<?xml version="1.0" encoding="utf-8"?>
<!-- Generator: Adobe Illustrator 22.0.1, SVG Export Plug-In . SVG Version: 6.00 Build 0)  -->
<svg version="1.1" id="Layer_1" xmlns="http://www.w3.org/2000/svg" xmlns:xlink="http://www.w3.org/1999/xlink" x="0px" y="0px"
	 viewBox="0 0 343.5 251.9" enable-background="new 0 0 343.5 251.9" xml:space="preserve">
<g id="LOGO">
	<g id="A">
		<g>
			<linearGradient id="SVGID_1_" gradientUnits="userSpaceOnUse" x1="142.2035" y1="94.2167" x2="226.7405" y2="94.2167">
				<stop  offset="0" style="stop-color:#BFBFBF"/>
				<stop  offset="1" style="stop-color:#FFFFFF"/>
			</linearGradient>
			<path fill="url(#SVGID_1_)" d="M211.9,130.3h-10.5v-10.7h6.7l-15.7-44.2h-15.7V58.5h9.7l-15-42h-29.2l54.3,155.4h30.2
				L211.9,130.3z M176.6,83.4h10.7v10.7h-10.7V83.4z M192.8,117.7h-12.6V105h12.6V117.7z"/>
			
				<linearGradient id="SVGID_2_" gradientUnits="userSpaceOnUse" x1="86.8392" y1="351.8265" x2="171.3761" y2="351.8265" gradientTransform="matrix(1 0 0 -1 0 446.0432)">
				<stop  offset="0" style="stop-color:#BFBFBF"/>
				<stop  offset="1" style="stop-color:#FFFFFF"/>
			</linearGradient>
			<polygon fill="url(#SVGID_2_)" points="141.1,16.5 171.4,16.5 116,171.9 86.8,171.9 			"/>
		</g>
		<linearGradient id="SVGID_3_" gradientUnits="userSpaceOnUse" x1="174.9592" y1="13.9873" x2="187.5215" y2="13.9873">
			<stop  offset="0" style="stop-color:#BFBFBF"/>
			<stop  offset="1" style="stop-color:#FFFFFF"/>
		</linearGradient>
		<path fill="url(#SVGID_3_)" d="M181.2,20.4c-1.7,0-3.2-0.6-4.5-1.8c-1.2-1.2-1.8-2.8-1.8-4.5c0-1.8,0.6-3.3,1.8-4.5
			c1.2-1.2,2.7-1.8,4.5-1.8c1.7,0,3.2,0.6,4.4,1.8c1.2,1.2,1.8,2.7,1.8,4.5c0,1.8-0.6,3.3-1.8,4.5C184.5,19.7,183,20.4,181.2,20.4z
			 M181.2,8.8c-1.4,0-2.6,0.5-3.6,1.5c-1,1-1.5,2.2-1.5,3.7c0,1.5,0.5,2.7,1.5,3.7c1,1,2.2,1.5,3.6,1.5c1.4,0,2.6-0.5,3.6-1.5
			c1-1,1.5-2.2,1.5-3.7c0-1.4-0.5-2.7-1.5-3.7C183.8,9.3,182.6,8.8,181.2,8.8z M181.2,17.9c-0.9,0-1.7-0.3-2.2-1
			c-0.6-0.6-0.8-1.5-0.8-2.5v-1c0-1,0.3-1.8,0.8-2.4c0.6-0.6,1.3-1,2.2-1c0.9,0,1.6,0.2,2.1,0.7c0.5,0.5,0.8,1.2,0.8,2.1l0,0
			l-0.1,0.2h-1.2v-0.2c0-0.5-0.1-0.9-0.4-1.2c-0.3-0.3-0.7-0.4-1.2-0.4c-0.5,0-1,0.2-1.3,0.6c-0.3,0.4-0.5,0.9-0.5,1.6v1
			c0,0.7,0.2,1.2,0.5,1.6c0.3,0.4,0.7,0.6,1.3,0.6c0.5,0,0.9-0.1,1.2-0.4c0.3-0.2,0.4-0.7,0.4-1.2v-0.2h1.2l0.1,0.2l0,0
			c0,0.9-0.2,1.6-0.7,2.1C182.8,17.6,182.1,17.9,181.2,17.9z"/>
	</g>
	<linearGradient id="SVGID_4_" gradientUnits="userSpaceOnUse" x1="9.1075" y1="149.2029" x2="334.3763" y2="149.2029">
		<stop  offset="0" style="stop-color:#BFBFBF"/>
		<stop  offset="1" style="stop-color:#FFFFFF"/>
	</linearGradient>
	<path fill="url(#SVGID_4_)" d="M12.5,235.5h1.5l3.3,8.6h-1.7l-0.8-2.2h-3l-0.8,2.2H9.2L12.5,235.5z M14.4,240.8l-1.2-3.4l-1.2,3.4
		H14.4z M42.2,235.5v8.6h-1.7v-3.7h-3.9v3.7h-1.7v-8.6h1.7v3.5h3.9v-3.5H42.2z M67.7,244.2v-5.7l-2.2,4.3h-0.9l-2.2-4.3v5.7h-1.7
		v-8.6h1.8l2.6,4.9l2.6-4.9h1.8v8.6H67.7z M93.9,242.7v1.5h-6v-8.6h5.9v1.5h-4.2v2.1h3.6v1.4h-3.6v2.2H93.9z M112,244.2v-8.6h3.1
		c0.7,0,1.3,0.1,1.9,0.3c0.5,0.2,1,0.5,1.3,0.9c0.4,0.4,0.6,0.8,0.8,1.4c0.2,0.5,0.3,1.1,0.3,1.7c0,0.7-0.1,1.2-0.3,1.8
		c-0.2,0.5-0.5,1-0.9,1.4c-0.4,0.4-0.8,0.7-1.3,0.9c-0.5,0.2-1.1,0.3-1.8,0.3H112z M117.6,239.8c0-0.4-0.1-0.8-0.2-1.1
		c-0.1-0.3-0.3-0.6-0.5-0.9c-0.2-0.3-0.5-0.4-0.8-0.6c-0.3-0.1-0.7-0.2-1.1-0.2h-1.5v5.7h1.5c0.4,0,0.8-0.1,1.1-0.2
		c0.3-0.1,0.6-0.3,0.8-0.6c0.2-0.3,0.4-0.6,0.5-0.9C117.6,240.6,117.6,240.2,117.6,239.8z M137.2,241.6v-1.5h3.7v1.5H137.2z
		 M164.3,237.8c-0.1-0.1-0.2-0.1-0.3-0.2c-0.1-0.1-0.3-0.2-0.5-0.3c-0.2-0.1-0.4-0.2-0.7-0.2c-0.3-0.1-0.5-0.1-0.8-0.1
		c-0.5,0-0.8,0.1-1,0.3c-0.2,0.2-0.3,0.4-0.3,0.7c0,0.2,0,0.3,0.1,0.4c0.1,0.1,0.2,0.2,0.4,0.3c0.2,0.1,0.4,0.2,0.6,0.2
		s0.5,0.1,0.9,0.2c0.4,0.1,0.8,0.2,1.1,0.4c0.3,0.1,0.6,0.3,0.9,0.5c0.2,0.2,0.4,0.4,0.6,0.7c0.1,0.3,0.2,0.6,0.2,1
		c0,0.5-0.1,0.9-0.3,1.2c-0.2,0.3-0.4,0.6-0.7,0.8c-0.3,0.2-0.6,0.4-1,0.4c-0.4,0.1-0.8,0.1-1.2,0.1c-0.6,0-1.3-0.1-1.9-0.3
		c-0.6-0.2-1.2-0.5-1.7-0.8l0.7-1.4c0.1,0.1,0.2,0.2,0.4,0.3c0.2,0.1,0.4,0.2,0.7,0.4c0.3,0.1,0.5,0.2,0.9,0.3
		c0.3,0.1,0.6,0.1,1,0.1c0.9,0,1.4-0.3,1.4-0.9c0-0.2-0.1-0.3-0.2-0.5c-0.1-0.1-0.3-0.2-0.4-0.3c-0.2-0.1-0.4-0.2-0.7-0.3
		s-0.6-0.2-0.9-0.3c-0.4-0.1-0.8-0.2-1.1-0.4c-0.3-0.1-0.6-0.3-0.8-0.5c-0.2-0.2-0.4-0.4-0.5-0.6c-0.1-0.2-0.2-0.5-0.2-0.9
		c0-0.4,0.1-0.8,0.2-1.2c0.2-0.3,0.4-0.6,0.7-0.9c0.3-0.2,0.6-0.4,1-0.5c0.4-0.1,0.8-0.2,1.2-0.2c0.6,0,1.2,0.1,1.7,0.3
		c0.5,0.2,1,0.4,1.3,0.7L164.3,237.8z M185.7,235.5h1.5l3.3,8.6h-1.7l-0.8-2.2h-3l-0.8,2.2h-1.7L185.7,235.5z M187.6,240.8l-1.2-3.4
		l-1.2,3.4H187.6z M215.1,244.2v-5.7l-2.2,4.3H212l-2.2-4.3v5.7h-1.7v-8.6h1.8l2.6,4.9l2.6-4.9h1.8v8.6H215.1z M235.3,244.2v-8.6
		h1.7v8.6H235.3z M255.4,244.2v-1.7h1.3v1.7H255.4z M274.3,239.8c0-0.5,0.1-1,0.3-1.6c0.2-0.5,0.5-1,0.8-1.4c0.4-0.4,0.8-0.7,1.3-1
		c0.5-0.3,1.1-0.4,1.8-0.4c0.8,0,1.5,0.2,2.1,0.5c0.6,0.3,1,0.8,1.3,1.4l-1.3,0.9c-0.1-0.2-0.3-0.4-0.4-0.6
		c-0.2-0.2-0.3-0.3-0.5-0.4s-0.4-0.2-0.6-0.2c-0.2,0-0.4-0.1-0.6-0.1c-0.4,0-0.8,0.1-1.1,0.3c-0.3,0.2-0.6,0.4-0.8,0.7
		c-0.2,0.3-0.4,0.6-0.5,0.9c-0.1,0.3-0.2,0.7-0.2,1c0,0.4,0.1,0.7,0.2,1.1s0.3,0.7,0.5,0.9c0.2,0.3,0.5,0.5,0.8,0.6
		c0.3,0.2,0.7,0.2,1,0.2c0.2,0,0.4,0,0.6-0.1c0.2,0,0.4-0.1,0.6-0.2c0.2-0.1,0.4-0.2,0.5-0.4c0.2-0.2,0.3-0.4,0.4-0.6l1.4,0.8
		c-0.1,0.3-0.3,0.6-0.6,0.9c-0.3,0.2-0.5,0.5-0.9,0.6c-0.3,0.2-0.7,0.3-1,0.4c-0.4,0.1-0.7,0.1-1.1,0.1c-0.6,0-1.2-0.1-1.7-0.4
		c-0.5-0.3-0.9-0.6-1.3-1c-0.4-0.4-0.7-0.9-0.9-1.4C274.4,240.9,274.3,240.3,274.3,239.8z M303.4,244.2c-0.6,0-1.2-0.1-1.7-0.4
		c-0.5-0.2-1-0.6-1.3-1c-0.4-0.4-0.7-0.9-0.9-1.4c-0.2-0.5-0.3-1.1-0.3-1.6c0-0.6,0.1-1.1,0.3-1.7s0.5-1,0.9-1.4
		c0.4-0.4,0.8-0.7,1.3-1c0.5-0.2,1.1-0.4,1.7-0.4c0.6,0,1.2,0.1,1.7,0.4c0.5,0.3,1,0.6,1.3,1c0.4,0.4,0.6,0.9,0.9,1.4
		c0.2,0.5,0.3,1.1,0.3,1.6c0,0.6-0.1,1.1-0.3,1.6c-0.2,0.5-0.5,1-0.9,1.4c-0.4,0.4-0.8,0.7-1.3,1C304.6,244.1,304,244.2,303.4,244.2
		z M300.9,239.8c0,0.4,0.1,0.7,0.2,1.1c0.1,0.3,0.3,0.7,0.5,0.9c0.2,0.3,0.5,0.5,0.8,0.6c0.3,0.2,0.7,0.2,1.1,0.2
		c0.4,0,0.8-0.1,1.1-0.2c0.3-0.2,0.6-0.4,0.8-0.7c0.2-0.3,0.4-0.6,0.5-0.9c0.1-0.3,0.2-0.7,0.2-1.1c0-0.4-0.1-0.7-0.2-1.1
		c-0.1-0.3-0.3-0.7-0.5-0.9c-0.2-0.3-0.5-0.5-0.8-0.6c-0.3-0.2-0.7-0.2-1.1-0.2c-0.4,0-0.8,0.1-1.1,0.2c-0.3,0.2-0.6,0.4-0.8,0.7
		c-0.2,0.3-0.4,0.6-0.5,0.9C301,239.1,300.9,239.5,300.9,239.8z M332.7,244.2v-5.7l-2.2,4.3h-0.9l-2.2-4.3v5.7h-1.7v-8.6h1.8
		l2.6,4.9l2.6-4.9h1.8v8.6H332.7z M17.1,229.1h-8l14.6-41h7.7l14.6,41h-8l-10.6-30.3L17.1,229.1z M72.6,212.2H56.9v16.9h-7.6v-41
		h7.6v16.8h15.7v-16.8h7.6v41h-7.6V212.2z M85,188.1h7.6l12.4,17.3l12.9-17.3h7.2v41h-7.6v-28.8l-12.6,17l-12.3-16.7v28.5H85V188.1z
		 M129.8,188.1h24.3v7.3h-16.7v9.4h16.7v7.3h-16.7v9.7h16.7v7.3h-24.3V188.1z M158.4,188.1h11.2c13.8,0,21.7,8.9,21.7,20.5
		c0,11.7-8.9,20.5-21.4,20.5h-11.5V188.1z M166.1,195.1V222h3c9,0,14.6-5.8,14.6-13.4c0-7.9-4.8-13.4-14.9-13.4H166.1z M208.4,222.9
		l2.7-2.1c2.6,3.9,6.3,5.8,11,5.8c5.6,0,9.8-3.4,9.8-8.7c0-5.6-5.1-7.2-10.5-9c-5.6-1.8-11.5-4-11.5-11.1c0-6,5.3-10.4,12.2-10.4
		c5.6,0,9.4,2.2,12.1,5.6l-2.5,2c-2.2-3.1-5.2-4.7-9.6-4.7c-5,0-8.9,3.1-8.9,7.5c0,5.3,4.9,6.7,10.2,8.5c5.7,2,11.7,4.2,11.7,11.6
		c0,6.4-5.4,11.6-13.1,11.6C216,229.7,211.5,227,208.4,222.9z M243.4,229.1H240l15.8-41h3.5l15.8,41h-3.4l-14.1-36.7L243.4,229.1z
		 M281.3,188.1h3.2l16.6,23l17.3-23h3.1v41h-3.2v-35.9l-17.2,23.2l-16.5-22.7v35.4h-3.3V188.1z M330.6,188.1h3.2v41h-3.2V188.1z
		 M256,66.4h-10.7v10.7H256V66.4z M234.5,54.1h-16.7V71h16.7V54.1z M220.9,79h-10.7v10.7h10.7V79z M225.8,115.2H215v10.7h10.7V115.2
		z M245.2,91.5h-15.9v15.9h15.9V91.5z"/>
</g>
</svg>
