<svg xmlns="http://www.w3.org/2000/svg" xmlns:xlink="http://www.w3.org/1999/xlink" width="44.54" height="40.479" viewBox="0 0 44.54 40.479"><defs><clipPath id="a"><path d="M802,659.195c-4.623,2.669-12.118,2.669-16.741,0-2.174-1.255-3.325-2.877-3.455-4.52-.008-.1-.012-3.234-.012-3.333-.007-1.754,1.148-.474,3.467-1.812,4.623-2.669,12.118-2.669,16.741,0,2.3,1.326,3.453.025,3.467,1.764,0,.1,0,3.231-.008,3.328C805.353,656.283,804.2,657.926,802,659.195Z" transform="translate(-781.795 -647.528)" fill="#ef8809"/></clipPath><clipPath id="b"><path d="M797.976,634.233c-4.623,2.669-12.118,2.669-16.741,0-2.174-1.255-3.325-2.876-3.455-4.52-.008-.1-.012-3.234-.012-3.333-.007-1.754,1.149-.474,3.467-1.812,4.623-2.669,12.118-2.669,16.741,0,2.3,1.326,3.453.025,3.467,1.764,0,.1,0,3.231-.008,3.328C801.326,631.321,800.174,632.964,797.976,634.233Z" transform="translate(-777.768 -622.566)" fill="#ef8809"/></clipPath><clipPath id="c"><path d="M799.587,610.076c-4.623,2.669-12.118,2.669-16.741,0-2.174-1.255-3.325-2.877-3.455-4.52-.008-.1-.012-3.234-.012-3.333-.007-1.754,1.148-.474,3.467-1.812,4.623-2.669,12.118-2.669,16.741,0,2.3,1.326,3.453.025,3.467,1.764,0,.1,0,3.231-.008,3.328C802.937,607.164,801.784,608.808,799.587,610.076Z" transform="translate(-779.379 -598.409)" fill="#ef8809"/></clipPath><clipPath id="d"><path d="M800.392,585.92c-4.623,2.669-12.118,2.669-16.741,0-2.174-1.255-3.325-2.876-3.455-4.52-.008-.1-.012-3.234-.012-3.333-.007-1.754,1.149-.474,3.467-1.812,4.623-2.669,12.118-2.669,16.741,0,2.3,1.326,3.453.025,3.467,1.764,0,.1,0,3.231-.008,3.328C803.742,583.008,802.589,584.651,800.392,585.92Z" transform="translate(-780.184 -574.253)" fill="#ef8809"/></clipPath><clipPath id="e"><path d="M803.613,560.958c-4.623,2.669-12.118,2.669-16.741,0-2.174-1.255-3.325-2.876-3.455-4.52-.008-.1-.012-3.234-.012-3.333-.007-1.754,1.149-.474,3.467-1.812,4.623-2.669,12.118-2.669,16.741,0,2.3,1.326,3.453.025,3.467,1.764,0,.1,0,3.231-.008,3.328C806.963,558.046,805.81,559.69,803.613,560.958Z" transform="translate(-783.405 -549.291)" fill="#ef8809"/></clipPath><clipPath id="f"><path d="M671.267,711.929c-4.623,2.669-12.118,2.669-16.741,0-2.174-1.255-3.325-2.876-3.455-4.52-.008-.1-.012-3.234-.012-3.333-.007-1.755,1.149-.474,3.467-1.812,4.623-2.669,12.118-2.669,16.741,0,2.3,1.326,3.453.025,3.467,1.764,0,.1,0,3.231-.008,3.328C674.617,709.017,673.464,710.66,671.267,711.929Z" transform="translate(-651.059 -700.262)" fill="#ef8809"/></clipPath><clipPath id="g"><path d="M667.241,686.967c-4.623,2.669-12.118,2.669-16.741,0-2.174-1.255-3.325-2.877-3.455-4.52-.008-.1-.012-3.234-.012-3.333-.007-1.754,1.149-.474,3.467-1.812,4.623-2.669,12.118-2.669,16.741,0,2.3,1.326,3.453.025,3.467,1.764,0,.1,0,3.231-.008,3.328C670.591,684.055,669.438,685.7,667.241,686.967Z" transform="translate(-647.033 -675.3)" fill="#ef8809"/></clipPath><clipPath id="h"><path d="M668.851,662.811c-4.623,2.669-12.118,2.669-16.741,0-2.174-1.255-3.325-2.876-3.455-4.52-.008-.1-.012-3.234-.012-3.333-.007-1.754,1.149-.474,3.467-1.812,4.623-2.669,12.118-2.669,16.741,0,2.3,1.326,3.453.025,3.467,1.763,0,.1,0,3.231-.008,3.328C672.2,659.9,671.049,661.542,668.851,662.811Z" transform="translate(-648.643 -651.144)" fill="#ef8809"/></clipPath><clipPath id="i"><path d="M669.656,638.654c-4.623,2.669-12.118,2.669-16.741,0-2.174-1.255-3.325-2.877-3.455-4.52-.008-.1-.012-3.234-.012-3.333-.007-1.754,1.149-.474,3.467-1.812,4.623-2.669,12.118-2.669,16.741,0,2.3,1.326,3.453.025,3.467,1.764,0,.1,0,3.231-.008,3.328C673.006,635.742,671.853,637.385,669.656,638.654Z" transform="translate(-649.448 -626.987)" fill="#ef8809"/></clipPath><clipPath id="j"><path d="M672.878,613.693c-4.623,2.669-12.118,2.669-16.741,0-2.174-1.255-3.325-2.877-3.455-4.52-.008-.1-.012-3.234-.012-3.333-.007-1.755,1.148-.474,3.467-1.812,4.623-2.669,12.118-2.669,16.741,0,2.3,1.326,3.453.025,3.467,1.764,0,.1,0,3.231-.008,3.328C676.228,610.781,675.075,612.424,672.878,613.693Z" transform="translate(-652.67 -602.026)" fill="#ef8809"/></clipPath></defs><g transform="translate(-647.033 -529.442)"><path d="M674.045,703.871c-5.21,3.342-13.373,4.119-18.294,1.278s-4.686-7.853.524-11.2,13.422-3.749,18.343-.908c4.362,2.519,11.059,1.908,7.435,5.1-.294.259-7.04,5.059-7.385,5.307Q674.369,703.663,674.045,703.871Z" transform="translate(-4.385 -136.97)" fill="#ccc" opacity="0.5" style="mix-blend-mode:multiply;isolation:isolate"/><g transform="translate(667.035 529.442)"><g transform="translate(0.616 15.03)"><g transform="translate(0 3.037)"><path d="M802,659.195c-4.623,2.669-12.118,2.669-16.741,0-2.174-1.255-3.325-2.877-3.455-4.52-.008-.1-.012-3.234-.012-3.333-.007-1.754,1.148-.474,3.467-1.812,4.623-2.669,12.118-2.669,16.741,0,2.3,1.326,3.453.025,3.467,1.764,0,.1,0,3.231-.008,3.328C805.353,656.283,804.2,657.926,802,659.195Z" transform="translate(-781.795 -647.528)" fill="#ef8809"/><g clip-path="url(#a)"><g transform="translate(-0.168 3.03)"><path d="M780.894,673.439a.2.2,0,0,1-.2-.2v-5.714a.2.2,0,0,1,.392,0v5.714A.2.2,0,0,1,780.894,673.439Z" transform="translate(-780.698 -667.333)" fill="#ff9e23"/><path d="M784.925,671.371a.2.2,0,0,1,.181-.2h.019a.2.2,0,0,1,.2.2v5.712a.2.2,0,0,1-.2.2h-.019a.2.2,0,0,1-.181-.2Z" transform="translate(-784.278 -670.586)" fill="#ff9e23"/><path d="M789.15,675.214a.2.2,0,0,1,.184-.2h.019a.2.2,0,0,1,.2.2v5.71a.2.2,0,0,1-.2.2h-.019a.2.2,0,0,1-.184-.2Z" transform="translate(-787.857 -673.841)" fill="#ff9e23"/><path d="M793.376,679.057a.2.2,0,0,1,.188-.2h.019a.2.2,0,0,1,.2.2v5.707a.2.2,0,0,1-.2.2h-.019a.2.2,0,0,1-.188-.2Z" transform="translate(-791.436 -677.094)" fill="#ff9e23"/><path d="M797.6,682.9a.2.2,0,0,1,.191-.2h.019a.2.2,0,0,1,.2.2v5.7a.2.2,0,0,1-.2.2h-.019a.2.2,0,0,1-.191-.2Z" transform="translate(-795.016 -680.348)" fill="#ff9e23"/><path d="M801.827,686.743a.2.2,0,0,1,.195-.2h.02a.2.2,0,0,1,.2.2v5.7a.2.2,0,0,1-.2.2h-.02a.2.2,0,0,1-.195-.2Z" transform="translate(-798.594 -683.602)" fill="#ff9e23"/><path d="M806.053,690.585a.206.206,0,0,1,.2-.2h.02a.2.2,0,0,1,.2.2v5.7a.2.2,0,0,1-.2.2h-.02a.206.206,0,0,1-.2-.2Z" transform="translate(-802.174 -686.856)" fill="#ff9e23"/><path d="M810.279,694.428a.208.208,0,0,1,.2-.2h.02a.2.2,0,0,1,.2.2v5.7a.2.2,0,0,1-.2.2h-.02a.208.208,0,0,1-.2-.2Z" transform="translate(-805.753 -690.11)" fill="#ff9e23"/><rect width="0.431" height="6.106" rx="0.215" transform="translate(5.172 4.702)" fill="#ff9e23"/><rect width="0.433" height="6.106" rx="0.217" transform="translate(6.004 4.824)" fill="#ff9e23"/><path d="M.218,0h0A.218.218,0,0,1,.436.218v5.67a.218.218,0,0,1-.218.218h0A.218.218,0,0,1,0,5.888V.218A.218.218,0,0,1,.218,0Z" transform="translate(6.835 4.947)" fill="#ff9e23"/><path d="M.219,0h0A.219.219,0,0,1,.438.219V5.887a.219.219,0,0,1-.219.219h0A.219.219,0,0,1,0,5.887V.219A.219.219,0,0,1,.219,0Z" transform="translate(7.667 5.069)" fill="#ff9e23"/><rect width="0.441" height="6.106" rx="0.22" transform="translate(8.498 5.192)" fill="#ff9e23"/><rect width="0.443" height="6.106" rx="0.222" transform="translate(9.33 5.314)" fill="#ff9e23"/><rect width="0.446" height="6.106" rx="0.223" transform="translate(10.161 5.437)" fill="#ff9e23"/><path d="M.224,0h0A.224.224,0,0,1,.448.224V5.882a.224.224,0,0,1-.224.224h0A.224.224,0,0,1,0,5.882V.224A.224.224,0,0,1,.224,0Z" transform="translate(10.993 5.559)" fill="#ff9e23"/><path d="M.225,0h0A.225.225,0,0,1,.451.225V5.881a.225.225,0,0,1-.225.225h0A.225.225,0,0,1,0,5.881V.225A.225.225,0,0,1,.225,0Z" transform="translate(11.824 5.682)" fill="#ff9e23"/><path d="M.224,0h0A.224.224,0,0,1,.448.224V5.882a.224.224,0,0,1-.224.224h0A.224.224,0,0,1,0,5.882V.224A.224.224,0,0,1,.224,0Z" transform="translate(12.67 5.555)" fill="#ff9e23"/><rect width="0.446" height="6.106" rx="0.223" transform="translate(13.516 5.429)" fill="#ff9e23"/><rect width="0.443" height="6.106" rx="0.222" transform="translate(14.362 5.302)" fill="#ff9e23"/><rect width="0.441" height="6.106" rx="0.22" transform="translate(15.209 5.176)" fill="#ff9e23"/><rect width="0.438" height="6.106" rx="0.219" transform="translate(16.055 5.049)" fill="#ff9e23"/><rect width="0.436" height="6.106" rx="0.218" transform="translate(16.901 4.922)" fill="#ff9e23"/><rect width="0.434" height="6.106" rx="0.217" transform="translate(17.747 4.796)" fill="#ff9e23"/><rect width="0.431" height="6.106" rx="0.216" transform="translate(18.593 4.669)" fill="#ff9e23"/><path d="M906.186,694.508a.208.208,0,0,1,.2-.2h.02a.2.2,0,0,1,.2.2v5.7a.2.2,0,0,1-.2.2h-.02a.208.208,0,0,1-.2-.2Z" transform="translate(-886.986 -690.177)" fill="#ff9e23"/><path d="M910.151,690.959a.206.206,0,0,1,.2-.2h.02a.2.2,0,0,1,.2.2v5.7a.2.2,0,0,1-.2.2h-.02a.206.206,0,0,1-.2-.2Z" transform="translate(-890.345 -687.172)" fill="#ff9e23"/><path d="M914.115,687.41a.2.2,0,0,1,.195-.2h.019a.2.2,0,0,1,.2.2v5.7a.2.2,0,0,1-.2.2h-.019a.2.2,0,0,1-.195-.2Z" transform="translate(-893.702 -684.167)" fill="#ff9e23"/><path d="M918.079,683.86a.2.2,0,0,1,.191-.2h.019a.2.2,0,0,1,.2.2v5.7a.2.2,0,0,1-.2.2h-.019a.2.2,0,0,1-.191-.2Z" transform="translate(-897.06 -681.161)" fill="#ff9e23"/><path d="M922.044,680.311a.2.2,0,0,1,.188-.2h.019a.2.2,0,0,1,.2.2v5.707a.2.2,0,0,1-.2.2h-.019a.2.2,0,0,1-.188-.2Z" transform="translate(-900.418 -678.156)" fill="#ff9e23"/><path d="M926.008,676.761a.2.2,0,0,1,.184-.2h.019a.2.2,0,0,1,.2.2v5.71a.2.2,0,0,1-.2.2h-.019a.2.2,0,0,1-.184-.2Z" transform="translate(-903.776 -675.151)" fill="#ff9e23"/><path d="M929.972,673.212a.2.2,0,0,1,.181-.2h.019a.2.2,0,0,1,.2.2v5.712a.2.2,0,0,1-.2.2h-.019a.2.2,0,0,1-.181-.2Z" transform="translate(-907.133 -672.146)" fill="#ff9e23"/><path d="M934.133,675.573a.2.2,0,0,1-.2-.2v-5.714a.2.2,0,0,1,.392,0v5.714A.2.2,0,0,1,934.133,675.573Z" transform="translate(-910.491 -669.141)" fill="#ff9e23"/></g></g></g><ellipse cx="11.838" cy="6.834" rx="11.838" ry="6.834" fill="#ff9e23"/><ellipse cx="11.269" cy="6.506" rx="11.269" ry="6.506" transform="translate(0.569 0.329)" fill="#ffb43f"/><ellipse cx="9.333" cy="5.389" rx="9.333" ry="5.389" transform="translate(2.504 1.446)" fill="#e68913"/><path d="M814.15,641.908a14.588,14.588,0,0,0-13.2,0,3.7,3.7,0,0,0,0,7.131,14.587,14.587,0,0,0,13.2,0,3.7,3.7,0,0,0,0-7.131Z" transform="translate(-795.713 -638.394)" fill="#ff9e23"/><path d="M826,651.213l.649.029c.074.043.029.4.031.452a.192.192,0,0,1-.115.166l-.406.234a3.514,3.514,0,0,1,1.016.948c.3.481-.294,1.042-1.175,1.1a1.529,1.529,0,0,1-1.482-.594,1.388,1.388,0,0,0-.244-.388l-1.951,1.127q1.789,1.937-.331,3.161a6.1,6.1,0,0,1-5.34.1l-.387.223a.674.674,0,0,1-.61,0l-.491-.284a.214.214,0,0,1-.126-.176c0-.064-.034-.408.05-.457l.45.065a3.658,3.658,0,0,1-1.513-1.536,1.481,1.481,0,0,1-.042-.452c.041-.361.536-.463,1.2-.506a1.467,1.467,0,0,1,1.462.612,2.246,2.246,0,0,0,.65.869l2.268-1.31c-2.671-2.585,2.121-4.921,5.489-3.153l.392-.226A.614.614,0,0,1,826,651.213Zm-4.445,2.23,1.661-.959C822.037,652.151,821.029,652.8,821.558,653.442Zm-1.276,2.023-1.755,1.013C819.66,656.87,820.909,656.233,820.282,655.465Z" transform="translate(-809.06 -647.281)" fill="#e68913"/><path d="M826,648.812l.565.326a.169.169,0,0,1,0,.321l-.406.234a3.5,3.5,0,0,1,.993.993c.3.481-.27,1-1.151,1.053a1.529,1.529,0,0,1-1.482-.594,1.387,1.387,0,0,0-.244-.388l-1.951,1.127q1.789,1.937-.331,3.161a6.1,6.1,0,0,1-5.34.1l-.387.224a.675.675,0,0,1-.61,0l-.491-.283a.186.186,0,0,1,0-.352l.374-.216a3.658,3.658,0,0,1-1.513-1.536c-.211-.453.348-.906,1.156-.958a1.467,1.467,0,0,1,1.462.612,2.247,2.247,0,0,0,.65.869l2.268-1.31c-2.671-2.585,2.121-4.921,5.489-3.153l.392-.226A.614.614,0,0,1,826,648.812Zm-4.445,2.23,1.661-.959C822.036,649.75,821.029,650.4,821.558,651.041Zm-1.276,2.023-1.755,1.013C819.66,654.468,820.908,653.832,820.282,653.064Z" transform="translate(-809.06 -645.247)" fill="#ffb43f"/></g><g transform="translate(0 11.211)"><g transform="translate(0 3.037)"><path d="M797.976,634.233c-4.623,2.669-12.118,2.669-16.741,0-2.174-1.255-3.325-2.876-3.455-4.52-.008-.1-.012-3.234-.012-3.333-.007-1.754,1.149-.474,3.467-1.812,4.623-2.669,12.118-2.669,16.741,0,2.3,1.326,3.453.025,3.467,1.764,0,.1,0,3.231-.008,3.328C801.326,631.321,800.174,632.964,797.976,634.233Z" transform="translate(-777.768 -622.566)" fill="#ef8809"/><g clip-path="url(#b)"><g transform="translate(-0.168 3.03)"><path d="M776.869,648.477a.2.2,0,0,1-.2-.2v-5.714a.2.2,0,0,1,.392,0v5.714A.2.2,0,0,1,776.869,648.477Z" transform="translate(-776.673 -642.371)" fill="#ff9e23"/><path d="M780.9,646.409a.2.2,0,0,1,.181-.2h.019a.2.2,0,0,1,.2.2v5.712a.2.2,0,0,1-.2.2h-.019a.2.2,0,0,1-.181-.2Z" transform="translate(-780.252 -645.624)" fill="#ff9e23"/><path d="M785.124,650.252a.2.2,0,0,1,.184-.2h.019a.2.2,0,0,1,.2.2v5.71a.2.2,0,0,1-.2.2h-.019a.2.2,0,0,1-.184-.2Z" transform="translate(-783.831 -648.879)" fill="#ff9e23"/><path d="M789.35,654.1a.2.2,0,0,1,.188-.2h.019a.2.2,0,0,1,.2.2V659.8a.2.2,0,0,1-.2.2h-.019a.2.2,0,0,1-.188-.2Z" transform="translate(-787.41 -652.133)" fill="#ff9e23"/><path d="M793.576,657.938a.2.2,0,0,1,.191-.2h.019a.2.2,0,0,1,.2.2v5.7a.2.2,0,0,1-.2.2h-.019a.2.2,0,0,1-.191-.2Z" transform="translate(-790.99 -655.386)" fill="#ff9e23"/><path d="M797.8,661.781a.2.2,0,0,1,.195-.2h.02a.2.2,0,0,1,.2.2v5.7a.2.2,0,0,1-.2.2H798a.2.2,0,0,1-.195-.2Z" transform="translate(-794.568 -658.64)" fill="#ff9e23"/><path d="M802.027,665.623a.206.206,0,0,1,.2-.2h.02a.2.2,0,0,1,.2.2v5.7a.2.2,0,0,1-.2.2h-.02a.206.206,0,0,1-.2-.2Z" transform="translate(-798.148 -661.893)" fill="#ff9e23"/><path d="M806.253,669.466a.208.208,0,0,1,.2-.2h.02a.2.2,0,0,1,.2.2v5.7a.2.2,0,0,1-.2.2h-.02a.208.208,0,0,1-.2-.2Z" transform="translate(-801.727 -665.148)" fill="#ff9e23"/><rect width="0.431" height="6.106" rx="0.216" transform="translate(5.172 4.702)" fill="#ff9e23"/><rect width="0.433" height="6.106" rx="0.217" transform="translate(6.004 4.825)" fill="#ff9e23"/><path d="M.218,0h0A.218.218,0,0,1,.436.218v5.67a.218.218,0,0,1-.218.218h0A.218.218,0,0,1,0,5.888V.218A.218.218,0,0,1,.218,0Z" transform="translate(6.835 4.947)" fill="#ff9e23"/><path d="M.219,0h0A.219.219,0,0,1,.438.219V5.887a.219.219,0,0,1-.219.219h0A.219.219,0,0,1,0,5.887V.219A.219.219,0,0,1,.219,0Z" transform="translate(7.667 5.069)" fill="#ff9e23"/><rect width="0.441" height="6.106" rx="0.22" transform="translate(8.498 5.192)" fill="#ff9e23"/><rect width="0.443" height="6.106" rx="0.222" transform="translate(9.33 5.314)" fill="#ff9e23"/><rect width="0.446" height="6.106" rx="0.223" transform="translate(10.161 5.437)" fill="#ff9e23"/><path d="M.224,0h0A.224.224,0,0,1,.448.224V5.882a.224.224,0,0,1-.224.224h0A.224.224,0,0,1,0,5.882V.224A.224.224,0,0,1,.224,0Z" transform="translate(10.992 5.559)" fill="#ff9e23"/><rect width="0.451" height="6.106" rx="0.225" transform="translate(11.824 5.682)" fill="#ff9e23"/><rect width="0.448" height="6.106" rx="0.224" transform="translate(12.67 5.555)" fill="#ff9e23"/><rect width="0.446" height="6.106" rx="0.223" transform="translate(13.516 5.429)" fill="#ff9e23"/><path d="M.222,0h0A.222.222,0,0,1,.443.222V5.885a.222.222,0,0,1-.222.222h0A.222.222,0,0,1,0,5.885V.222A.222.222,0,0,1,.222,0Z" transform="translate(14.362 5.302)" fill="#ff9e23"/><rect width="0.441" height="6.106" rx="0.22" transform="translate(15.208 5.176)" fill="#ff9e23"/><path d="M.219,0h0A.219.219,0,0,1,.438.219V5.887a.219.219,0,0,1-.219.219h0A.219.219,0,0,1,0,5.887V.219A.219.219,0,0,1,.219,0Z" transform="translate(16.055 5.049)" fill="#ff9e23"/><path d="M.218,0h0A.218.218,0,0,1,.436.218v5.67a.218.218,0,0,1-.218.218h0A.218.218,0,0,1,0,5.888V.218A.218.218,0,0,1,.218,0Z" transform="translate(16.901 4.923)" fill="#ff9e23"/><rect width="0.433" height="6.106" rx="0.217" transform="translate(17.747 4.796)" fill="#ff9e23"/><rect width="0.431" height="6.106" rx="0.216" transform="translate(18.593 4.669)" fill="#ff9e23"/><path d="M902.16,669.546a.208.208,0,0,1,.2-.2h.02a.205.205,0,0,1,.2.2v5.7a.205.205,0,0,1-.2.2h-.02a.208.208,0,0,1-.2-.2Z" transform="translate(-882.961 -665.215)" fill="#ff9e23"/><path d="M906.125,666a.206.206,0,0,1,.2-.2h.02a.2.2,0,0,1,.2.2v5.7a.2.2,0,0,1-.2.2h-.02a.206.206,0,0,1-.2-.2Z" transform="translate(-886.319 -662.21)" fill="#ff9e23"/><path d="M910.089,662.448a.2.2,0,0,1,.195-.2h.019a.2.2,0,0,1,.2.2v5.7a.2.2,0,0,1-.2.2h-.019a.2.2,0,0,1-.195-.2Z" transform="translate(-889.676 -659.205)" fill="#ff9e23"/><path d="M914.053,658.9a.2.2,0,0,1,.191-.2h.019a.2.2,0,0,1,.2.2v5.7a.2.2,0,0,1-.2.2h-.019a.2.2,0,0,1-.191-.2Z" transform="translate(-893.034 -656.2)" fill="#ff9e23"/><path d="M918.018,655.349a.2.2,0,0,1,.188-.2h.019a.2.2,0,0,1,.2.2v5.707a.2.2,0,0,1-.2.2h-.019a.2.2,0,0,1-.188-.2Z" transform="translate(-896.392 -653.194)" fill="#ff9e23"/><path d="M921.982,651.8a.2.2,0,0,1,.184-.2h.019a.2.2,0,0,1,.2.2v5.71a.2.2,0,0,1-.2.2h-.019a.2.2,0,0,1-.184-.2Z" transform="translate(-899.75 -650.189)" fill="#ff9e23"/><path d="M925.947,648.25a.2.2,0,0,1,.181-.2h.019a.2.2,0,0,1,.2.2v5.712a.2.2,0,0,1-.2.2h-.019a.2.2,0,0,1-.181-.2Z" transform="translate(-903.108 -647.184)" fill="#ff9e23"/><path d="M930.107,650.611a.2.2,0,0,1-.2-.2V644.7a.2.2,0,1,1,.392,0v5.714A.2.2,0,0,1,930.107,650.611Z" transform="translate(-906.466 -644.179)" fill="#ff9e23"/></g></g></g><ellipse cx="11.838" cy="6.834" rx="11.838" ry="6.834" transform="translate(0)" fill="#ff9e23"/><path d="M800.725,615.971a17.612,17.612,0,0,1-15.936,0c-4.4-2.541-4.4-6.66,0-9.2a17.612,17.612,0,0,1,15.936,0C805.125,609.311,805.125,613.431,800.725,615.971Z" transform="translate(-780.919 -604.536)" fill="#ffb43f"/><ellipse cx="9.334" cy="5.389" rx="9.334" ry="5.389" transform="translate(2.504 1.446)" fill="#e68913"/><path d="M810.124,616.947a14.588,14.588,0,0,0-13.2,0,3.7,3.7,0,0,0,0,7.131,14.588,14.588,0,0,0,13.2,0,3.7,3.7,0,0,0,0-7.131Z" transform="translate(-791.687 -613.433)" fill="#ff9e23"/><path d="M821.977,626.251l.649.029c.074.043.029.4.031.452a.192.192,0,0,1-.115.166l-.406.234a3.518,3.518,0,0,1,1.016.948c.3.481-.294,1.042-1.175,1.1a1.529,1.529,0,0,1-1.482-.594,1.387,1.387,0,0,0-.244-.388l-1.951,1.127q1.789,1.937-.331,3.161a6.1,6.1,0,0,1-5.34.1l-.387.224a.674.674,0,0,1-.609,0l-.491-.284a.214.214,0,0,1-.126-.176c0-.064-.035-.408.05-.457l.45.065A3.658,3.658,0,0,1,810,630.418a1.489,1.489,0,0,1-.042-.452c.041-.361.536-.463,1.2-.506a1.467,1.467,0,0,1,1.462.612,2.245,2.245,0,0,0,.65.868l2.268-1.31c-2.671-2.585,2.121-4.921,5.489-3.153l.392-.226A.614.614,0,0,1,821.977,626.251Zm-4.445,2.23,1.661-.959C818.01,627.189,817,627.84,817.531,628.481Zm-1.276,2.023-1.755,1.013C815.633,631.908,816.882,631.272,816.255,630.5Z" transform="translate(-805.033 -622.319)" fill="#e68913"/><path d="M821.977,623.85l.565.326a.169.169,0,0,1,0,.321l-.406.234a3.506,3.506,0,0,1,.992.993c.3.481-.271,1-1.151,1.053a1.529,1.529,0,0,1-1.482-.594,1.385,1.385,0,0,0-.244-.388l-1.951,1.127q1.789,1.937-.331,3.161a6.1,6.1,0,0,1-5.34.1l-.387.224a.675.675,0,0,1-.609,0l-.491-.284a.186.186,0,0,1,0-.352l.374-.216A3.657,3.657,0,0,1,810,628.016c-.211-.453.348-.906,1.156-.958a1.467,1.467,0,0,1,1.462.612,2.245,2.245,0,0,0,.65.869l2.268-1.31c-2.671-2.585,2.121-4.921,5.489-3.153l.392-.226A.614.614,0,0,1,821.977,623.85Zm-4.445,2.23,1.661-.959C818.011,624.788,817,625.439,817.532,626.079Zm-1.276,2.023-1.755,1.013C815.634,629.507,816.883,628.87,816.256,628.1Z" transform="translate(-805.034 -620.285)" fill="#ffb43f"/></g><g transform="translate(0.246 7.515)"><g transform="translate(0 3.037)"><path d="M799.587,610.076c-4.623,2.669-12.118,2.669-16.741,0-2.174-1.255-3.325-2.877-3.455-4.52-.008-.1-.012-3.234-.012-3.333-.007-1.754,1.148-.474,3.467-1.812,4.623-2.669,12.118-2.669,16.741,0,2.3,1.326,3.453.025,3.467,1.764,0,.1,0,3.231-.008,3.328C802.937,607.164,801.784,608.808,799.587,610.076Z" transform="translate(-779.379 -598.409)" fill="#ef8809"/><g clip-path="url(#c)"><g transform="translate(-0.168 3.03)"><path d="M778.479,624.32a.2.2,0,0,1-.2-.2V618.41a.2.2,0,1,1,.392,0v5.714A.2.2,0,0,1,778.479,624.32Z" transform="translate(-778.283 -618.214)" fill="#ff9e23"/><path d="M782.509,622.253a.2.2,0,0,1,.181-.2h.019a.2.2,0,0,1,.2.2v5.712a.2.2,0,0,1-.2.2h-.019a.2.2,0,0,1-.181-.2Z" transform="translate(-781.862 -621.468)" fill="#ff9e23"/><path d="M786.735,626.1a.2.2,0,0,1,.184-.2h.019a.2.2,0,0,1,.2.2v5.71a.2.2,0,0,1-.2.2h-.019a.2.2,0,0,1-.184-.2Z" transform="translate(-785.442 -624.721)" fill="#ff9e23"/><path d="M790.96,629.939a.2.2,0,0,1,.188-.2h.019a.2.2,0,0,1,.2.2v5.707a.2.2,0,0,1-.2.2h-.019a.2.2,0,0,1-.188-.2Z" transform="translate(-789.02 -627.976)" fill="#ff9e23"/><path d="M795.186,633.782a.2.2,0,0,1,.191-.2h.019a.2.2,0,0,1,.2.2v5.7a.2.2,0,0,1-.2.2h-.019a.2.2,0,0,1-.191-.2Z" transform="translate(-792.6 -631.23)" fill="#ff9e23"/><path d="M799.412,637.624a.2.2,0,0,1,.195-.2h.02a.2.2,0,0,1,.2.2v5.7a.2.2,0,0,1-.2.2h-.02a.2.2,0,0,1-.195-.2Z" transform="translate(-796.179 -634.483)" fill="#ff9e23"/><path d="M803.637,641.467a.206.206,0,0,1,.2-.2h.02a.2.2,0,0,1,.2.2v5.7a.2.2,0,0,1-.2.2h-.02a.206.206,0,0,1-.2-.2Z" transform="translate(-799.758 -637.737)" fill="#ff9e23"/><path d="M807.863,645.309a.208.208,0,0,1,.2-.2h.02a.205.205,0,0,1,.2.2v5.7a.2.2,0,0,1-.2.2h-.02a.208.208,0,0,1-.2-.2Z" transform="translate(-803.337 -640.991)" fill="#ff9e23"/><rect width="0.431" height="6.106" rx="0.215" transform="translate(5.172 4.702)" fill="#ff9e23"/><rect width="0.433" height="6.106" rx="0.217" transform="translate(6.004 4.825)" fill="#ff9e23"/><rect width="0.436" height="6.106" rx="0.218" transform="translate(6.835 4.947)" fill="#ff9e23"/><path d="M.219,0h0A.219.219,0,0,1,.438.219V5.887a.219.219,0,0,1-.219.219h0A.219.219,0,0,1,0,5.887V.219A.219.219,0,0,1,.219,0Z" transform="translate(7.667 5.07)" fill="#ff9e23"/><rect width="0.441" height="6.106" rx="0.22" transform="translate(8.498 5.192)" fill="#ff9e23"/><rect width="0.443" height="6.106" rx="0.222" transform="translate(9.33 5.314)" fill="#ff9e23"/><path d="M.223,0h0A.223.223,0,0,1,.446.223V5.883a.223.223,0,0,1-.223.223h0A.223.223,0,0,1,0,5.883V.223A.223.223,0,0,1,.223,0Z" transform="translate(10.161 5.437)" fill="#ff9e23"/><path d="M.224,0h0A.224.224,0,0,1,.448.224V5.882a.224.224,0,0,1-.224.224h0A.224.224,0,0,1,0,5.882V.224A.224.224,0,0,1,.224,0Z" transform="translate(10.993 5.559)" fill="#ff9e23"/><path d="M.225,0h0A.225.225,0,0,1,.451.225V5.881a.225.225,0,0,1-.225.225h0A.225.225,0,0,1,0,5.881V.225A.225.225,0,0,1,.225,0Z" transform="translate(11.824 5.682)" fill="#ff9e23"/><path d="M.224,0h0A.224.224,0,0,1,.448.224V5.882a.224.224,0,0,1-.224.224h0A.224.224,0,0,1,0,5.882V.224A.224.224,0,0,1,.224,0Z" transform="translate(12.67 5.555)" fill="#ff9e23"/><rect width="0.446" height="6.106" rx="0.223" transform="translate(13.516 5.429)" fill="#ff9e23"/><path d="M.222,0h0A.221.221,0,0,1,.443.221V5.885a.222.222,0,0,1-.222.222h0A.222.222,0,0,1,0,5.885V.222A.222.222,0,0,1,.222,0Z" transform="translate(14.362 5.302)" fill="#ff9e23"/><rect width="0.441" height="6.106" rx="0.22" transform="translate(15.209 5.176)" fill="#ff9e23"/><path d="M.219,0h0A.219.219,0,0,1,.438.219V5.887a.219.219,0,0,1-.219.219h0A.219.219,0,0,1,0,5.887V.219A.219.219,0,0,1,.219,0Z" transform="translate(16.055 5.049)" fill="#ff9e23"/><rect width="0.436" height="6.106" rx="0.218" transform="translate(16.901 4.923)" fill="#ff9e23"/><rect width="0.433" height="6.106" rx="0.217" transform="translate(17.747 4.796)" fill="#ff9e23"/><rect width="0.431" height="6.106" rx="0.216" transform="translate(18.593 4.67)" fill="#ff9e23"/><path d="M903.771,645.39a.208.208,0,0,1,.2-.2h.02a.2.2,0,0,1,.2.2v5.7a.2.2,0,0,1-.2.2h-.02a.208.208,0,0,1-.2-.2Z" transform="translate(-884.571 -641.059)" fill="#ff9e23"/><path d="M907.735,641.841a.206.206,0,0,1,.2-.2h.02a.2.2,0,0,1,.2.2v5.7a.2.2,0,0,1-.2.2h-.02a.206.206,0,0,1-.2-.2Z" transform="translate(-887.929 -638.054)" fill="#ff9e23"/><path d="M911.7,638.291a.2.2,0,0,1,.195-.2h.02a.2.2,0,0,1,.2.2v5.7a.2.2,0,0,1-.2.2h-.02a.205.205,0,0,1-.195-.2Z" transform="translate(-891.286 -635.048)" fill="#ff9e23"/><path d="M915.664,634.742a.2.2,0,0,1,.191-.2h.019a.2.2,0,0,1,.2.2v5.7a.2.2,0,0,1-.2.2h-.019a.2.2,0,0,1-.191-.2Z" transform="translate(-894.645 -632.043)" fill="#ff9e23"/><path d="M919.628,631.193a.2.2,0,0,1,.188-.2h.019a.2.2,0,0,1,.2.2V636.9a.2.2,0,0,1-.2.2h-.019a.2.2,0,0,1-.188-.2Z" transform="translate(-898.002 -629.038)" fill="#ff9e23"/><path d="M923.593,627.643a.2.2,0,0,1,.184-.2h.019a.2.2,0,0,1,.2.2v5.71a.2.2,0,0,1-.2.2h-.019a.2.2,0,0,1-.184-.2Z" transform="translate(-901.361 -626.033)" fill="#ff9e23"/><path d="M927.557,624.093a.2.2,0,0,1,.181-.2h.019a.2.2,0,0,1,.2.2v5.712a.2.2,0,0,1-.2.2h-.019a.2.2,0,0,1-.181-.2Z" transform="translate(-904.718 -623.027)" fill="#ff9e23"/><path d="M931.717,626.455a.2.2,0,0,1-.2-.2v-5.714a.2.2,0,0,1,.392,0v5.714A.2.2,0,0,1,931.717,626.455Z" transform="translate(-908.076 -620.022)" fill="#ff9e23"/></g></g></g><path d="M799.587,590.228c-4.623,2.669-12.118,2.669-16.741,0s-4.623-7,0-9.665,12.118-2.669,16.741,0S804.209,587.559,799.587,590.228Z" transform="translate(-779.378 -578.561)" fill="#ff9e23"/><ellipse cx="11.268" cy="6.506" rx="11.268" ry="6.506" transform="translate(0.569 0.329)" fill="#ffb43f"/><path d="M811.679,597.209a14.588,14.588,0,0,1-13.2,0c-3.645-2.1-3.645-5.516,0-7.621a14.588,14.588,0,0,1,13.2,0C815.324,591.693,815.324,595.1,811.679,597.209Z" transform="translate(-793.241 -586.564)" fill="#e68913"/><path d="M811.735,592.79a14.588,14.588,0,0,0-13.2,0,3.7,3.7,0,0,0,0,7.131,14.588,14.588,0,0,0,13.2,0,3.7,3.7,0,0,0,0-7.131Z" transform="translate(-793.298 -589.276)" fill="#ff9e23"/><path d="M823.587,602.095l.649.029c.074.043.028.4.031.452a.192.192,0,0,1-.115.166l-.406.234a3.515,3.515,0,0,1,1.016.948c.3.481-.294,1.042-1.175,1.1a1.529,1.529,0,0,1-1.482-.594,1.386,1.386,0,0,0-.244-.388l-1.951,1.126q1.789,1.937-.331,3.161a6.1,6.1,0,0,1-5.34.1l-.387.223a.674.674,0,0,1-.609,0l-.491-.284a.214.214,0,0,1-.126-.176c0-.064-.035-.408.05-.457l.45.065a3.658,3.658,0,0,1-1.513-1.536,1.483,1.483,0,0,1-.042-.452c.041-.361.536-.463,1.2-.506a1.466,1.466,0,0,1,1.462.612,2.244,2.244,0,0,0,.65.868l2.269-1.31c-2.671-2.585,2.121-4.921,5.489-3.153l.392-.226A.614.614,0,0,1,823.587,602.095Zm-4.445,2.23,1.661-.959C819.621,603.033,818.613,603.683,819.142,604.324Zm-1.276,2.023-1.755,1.013C817.244,607.752,818.493,607.115,817.866,606.347Z" transform="translate(-806.644 -598.163)" fill="#e68913"/><path d="M823.587,599.693l.565.326a.169.169,0,0,1,0,.321l-.406.234a3.5,3.5,0,0,1,.992.993c.3.481-.27,1-1.151,1.053a1.528,1.528,0,0,1-1.482-.594,1.388,1.388,0,0,0-.244-.388l-1.951,1.127q1.789,1.937-.331,3.161a6.1,6.1,0,0,1-5.34.1l-.387.223a.674.674,0,0,1-.609,0l-.491-.284a.186.186,0,0,1,0-.352l.373-.216a3.658,3.658,0,0,1-1.513-1.536c-.211-.453.348-.906,1.156-.958a1.467,1.467,0,0,1,1.462.612,2.246,2.246,0,0,0,.65.868l2.269-1.31c-2.671-2.585,2.121-4.921,5.489-3.153l.392-.226A.614.614,0,0,1,823.587,599.693Zm-4.445,2.23,1.661-.959C819.621,600.632,818.613,601.282,819.142,601.923Zm-1.276,2.023-1.755,1.013C817.244,605.35,818.493,604.714,817.866,603.946Z" transform="translate(-806.644 -596.129)" fill="#ffb43f"/></g><g transform="translate(0.37 3.819)"><g transform="translate(0 3.037)"><path d="M800.392,585.92c-4.623,2.669-12.118,2.669-16.741,0-2.174-1.255-3.325-2.876-3.455-4.52-.008-.1-.012-3.234-.012-3.333-.007-1.754,1.149-.474,3.467-1.812,4.623-2.669,12.118-2.669,16.741,0,2.3,1.326,3.453.025,3.467,1.764,0,.1,0,3.231-.008,3.328C803.742,583.008,802.589,584.651,800.392,585.92Z" transform="translate(-780.184 -574.253)" fill="#ef8809"/><g clip-path="url(#d)"><g transform="translate(-0.168 3.03)"><path d="M779.284,600.164a.2.2,0,0,1-.2-.2v-5.715a.2.2,0,0,1,.392,0v5.715A.2.2,0,0,1,779.284,600.164Z" transform="translate(-779.088 -594.058)" fill="#ff9e23"/><path d="M783.314,598.1a.2.2,0,0,1,.181-.2h.019a.2.2,0,0,1,.2.2v5.712a.2.2,0,0,1-.2.2h-.019a.2.2,0,0,1-.181-.2Z" transform="translate(-782.667 -597.311)" fill="#ff9e23"/><path d="M787.54,601.939a.2.2,0,0,1,.184-.2h.019a.2.2,0,0,1,.2.2v5.71a.2.2,0,0,1-.2.2h-.019a.2.2,0,0,1-.184-.2Z" transform="translate(-786.247 -600.566)" fill="#ff9e23"/><path d="M791.765,605.783a.2.2,0,0,1,.188-.2h.019a.2.2,0,0,1,.2.2v5.707a.2.2,0,0,1-.2.2h-.019a.2.2,0,0,1-.188-.2Z" transform="translate(-789.825 -603.82)" fill="#ff9e23"/><path d="M795.991,609.625a.2.2,0,0,1,.191-.2h.019a.2.2,0,0,1,.2.2v5.7a.2.2,0,0,1-.2.2h-.019a.2.2,0,0,1-.191-.2Z" transform="translate(-793.405 -607.073)" fill="#ff9e23"/><path d="M800.217,613.468a.2.2,0,0,1,.195-.2h.02a.2.2,0,0,1,.2.2v5.7a.2.2,0,0,1-.2.2h-.02a.2.2,0,0,1-.195-.2Z" transform="translate(-796.984 -610.327)" fill="#ff9e23"/><path d="M804.443,617.31a.206.206,0,0,1,.2-.2h.02a.2.2,0,0,1,.2.2v5.7a.2.2,0,0,1-.2.2h-.02a.206.206,0,0,1-.2-.2Z" transform="translate(-800.564 -613.581)" fill="#ff9e23"/><path d="M808.669,621.153a.208.208,0,0,1,.2-.2h.02a.2.2,0,0,1,.2.2v5.7a.2.2,0,0,1-.2.2h-.02a.208.208,0,0,1-.2-.2Z" transform="translate(-804.143 -616.835)" fill="#ff9e23"/><rect width="0.431" height="6.106" rx="0.216" transform="translate(5.172 4.702)" fill="#ff9e23"/><rect width="0.433" height="6.106" rx="0.217" transform="translate(6.004 4.825)" fill="#ff9e23"/><rect width="0.436" height="6.106" rx="0.218" transform="translate(6.835 4.947)" fill="#ff9e23"/><path d="M.219,0h0A.219.219,0,0,1,.438.219V5.887a.219.219,0,0,1-.219.219h0A.219.219,0,0,1,0,5.887V.219A.219.219,0,0,1,.219,0Z" transform="translate(7.667 5.069)" fill="#ff9e23"/><rect width="0.441" height="6.106" rx="0.22" transform="translate(8.498 5.192)" fill="#ff9e23"/><rect width="0.443" height="6.106" rx="0.222" transform="translate(9.33 5.314)" fill="#ff9e23"/><rect width="0.446" height="6.106" rx="0.223" transform="translate(10.161 5.437)" fill="#ff9e23"/><rect width="0.448" height="6.106" rx="0.224" transform="translate(10.992 5.559)" fill="#ff9e23"/><rect width="0.451" height="6.106" rx="0.225" transform="translate(11.824 5.682)" fill="#ff9e23"/><path d="M.224,0h0A.224.224,0,0,1,.448.224V5.882a.224.224,0,0,1-.224.224h0A.224.224,0,0,1,0,5.882V.224A.224.224,0,0,1,.224,0Z" transform="translate(12.67 5.555)" fill="#ff9e23"/><rect width="0.446" height="6.106" rx="0.223" transform="translate(13.516 5.429)" fill="#ff9e23"/><rect width="0.443" height="6.106" rx="0.222" transform="translate(14.362 5.302)" fill="#ff9e23"/><rect width="0.441" height="6.106" rx="0.22" transform="translate(15.209 5.176)" fill="#ff9e23"/><path d="M.219,0h0A.219.219,0,0,1,.438.219V5.887a.219.219,0,0,1-.219.219h0A.219.219,0,0,1,0,5.887V.219A.219.219,0,0,1,.219,0Z" transform="translate(16.055 5.049)" fill="#ff9e23"/><rect width="0.436" height="6.106" rx="0.218" transform="translate(16.901 4.923)" fill="#ff9e23"/><rect width="0.434" height="6.106" rx="0.217" transform="translate(17.747 4.796)" fill="#ff9e23"/><rect width="0.431" height="6.106" rx="0.216" transform="translate(18.593 4.669)" fill="#ff9e23"/><path d="M904.576,621.233a.208.208,0,0,1,.2-.2h.02a.2.2,0,0,1,.2.2v5.7a.2.2,0,0,1-.2.2h-.02a.208.208,0,0,1-.2-.2Z" transform="translate(-885.376 -616.902)" fill="#ff9e23"/><path d="M908.54,617.684a.206.206,0,0,1,.2-.2h.02a.2.2,0,0,1,.2.2v5.7a.2.2,0,0,1-.2.2h-.02a.206.206,0,0,1-.2-.2Z" transform="translate(-888.734 -613.897)" fill="#ff9e23"/><path d="M912.505,614.135a.2.2,0,0,1,.195-.2h.019a.2.2,0,0,1,.2.2v5.7a.2.2,0,0,1-.2.2H912.7a.2.2,0,0,1-.195-.2Z" transform="translate(-892.092 -610.892)" fill="#ff9e23"/><path d="M916.469,610.586a.2.2,0,0,1,.191-.2h.019a.2.2,0,0,1,.2.2v5.7a.2.2,0,0,1-.2.2h-.019a.2.2,0,0,1-.191-.2Z" transform="translate(-895.45 -607.887)" fill="#ff9e23"/><path d="M920.433,607.036a.2.2,0,0,1,.188-.2h.019a.2.2,0,0,1,.2.2v5.707a.2.2,0,0,1-.2.2h-.019a.2.2,0,0,1-.188-.2Z" transform="translate(-898.807 -604.881)" fill="#ff9e23"/><path d="M924.4,603.486a.2.2,0,0,1,.184-.2h.019a.2.2,0,0,1,.2.2v5.71a.2.2,0,0,1-.2.2h-.019a.2.2,0,0,1-.184-.2Z" transform="translate(-902.166 -601.876)" fill="#ff9e23"/><path d="M928.362,599.937a.2.2,0,0,1,.181-.2h.019a.2.2,0,0,1,.2.2v5.712a.2.2,0,0,1-.2.2h-.019a.2.2,0,0,1-.181-.2Z" transform="translate(-905.523 -598.871)" fill="#ff9e23"/><path d="M932.522,602.3a.2.2,0,0,1-.2-.2v-5.714a.2.2,0,1,1,.392,0V602.1A.2.2,0,0,1,932.522,602.3Z" transform="translate(-908.881 -595.866)" fill="#ff9e23"/></g></g></g><ellipse cx="11.838" cy="6.834" rx="11.838" ry="6.834" transform="translate(0)" fill="#ff9e23"/><ellipse cx="11.268" cy="6.506" rx="11.268" ry="6.506" transform="translate(0.569 0.329)" fill="#ffb43f"/><path d="M812.484,573.053a14.588,14.588,0,0,1-13.2,0c-3.645-2.1-3.645-5.516,0-7.621a14.587,14.587,0,0,1,13.2,0C816.129,567.536,816.129,570.948,812.484,573.053Z" transform="translate(-794.046 -562.408)" fill="#e68913"/><path d="M812.54,568.633a14.588,14.588,0,0,0-13.2,0,3.7,3.7,0,0,0,0,7.131,14.588,14.588,0,0,0,13.2,0,3.7,3.7,0,0,0,0-7.131Z" transform="translate(-794.103 -565.12)" fill="#ff9e23"/><path d="M824.392,577.938l.649.029c.074.043.028.4.031.452a.192.192,0,0,1-.115.166l-.406.234a3.512,3.512,0,0,1,1.016.948c.3.481-.294,1.042-1.175,1.1a1.528,1.528,0,0,1-1.482-.594,1.387,1.387,0,0,0-.244-.388l-1.951,1.127q1.789,1.937-.331,3.161a6.1,6.1,0,0,1-5.34.1l-.387.224a.674.674,0,0,1-.609,0l-.491-.284a.214.214,0,0,1-.126-.176c0-.064-.035-.408.05-.457l.45.065a3.66,3.66,0,0,1-1.513-1.536,1.483,1.483,0,0,1-.042-.452c.041-.361.536-.463,1.2-.506a1.466,1.466,0,0,1,1.462.612,2.243,2.243,0,0,0,.65.868l2.268-1.31c-2.671-2.585,2.121-4.921,5.489-3.153l.392-.226A.613.613,0,0,1,824.392,577.938Zm-4.445,2.23,1.661-.959C820.426,578.876,819.418,579.527,819.947,580.168Zm-1.276,2.023-1.755,1.013C818.049,583.6,819.3,582.959,818.671,582.191Z" transform="translate(-807.449 -574.006)" fill="#e68913"/><path d="M824.392,575.537l.565.326a.169.169,0,0,1,0,.321l-.406.234a3.506,3.506,0,0,1,.993.993c.3.481-.271,1-1.151,1.053a1.529,1.529,0,0,1-1.482-.594,1.387,1.387,0,0,0-.244-.388l-1.951,1.127q1.789,1.937-.331,3.161a6.1,6.1,0,0,1-5.34.1l-.387.224a.675.675,0,0,1-.609,0l-.491-.284a.186.186,0,0,1,0-.352l.373-.216a3.659,3.659,0,0,1-1.513-1.536c-.211-.453.349-.906,1.156-.958a1.467,1.467,0,0,1,1.462.612,2.242,2.242,0,0,0,.65.869l2.268-1.31c-2.671-2.585,2.121-4.921,5.489-3.153l.392-.226A.614.614,0,0,1,824.392,575.537Zm-4.445,2.23,1.661-.959C820.426,576.475,819.418,577.126,819.947,577.767Zm-1.276,2.023-1.755,1.013C818.049,581.194,819.3,580.557,818.671,579.79Z" transform="translate(-807.449 -571.973)" fill="#ffb43f"/></g><g transform="translate(0.862)"><g transform="translate(0 3.037)"><path d="M803.613,560.958c-4.623,2.669-12.118,2.669-16.741,0-2.174-1.255-3.325-2.876-3.455-4.52-.008-.1-.012-3.234-.012-3.333-.007-1.754,1.149-.474,3.467-1.812,4.623-2.669,12.118-2.669,16.741,0,2.3,1.326,3.453.025,3.467,1.764,0,.1,0,3.231-.008,3.328C806.963,558.046,805.81,559.69,803.613,560.958Z" transform="translate(-783.405 -549.291)" fill="#ef8809"/><g clip-path="url(#e)"><g transform="translate(-0.168 3.03)"><path d="M782.505,575.2a.2.2,0,0,1-.2-.2v-5.715a.2.2,0,0,1,.392,0v5.715A.2.2,0,0,1,782.505,575.2Z" transform="translate(-782.309 -569.096)" fill="#ff9e23"/><path d="M786.535,573.135a.2.2,0,0,1,.181-.2h.019a.2.2,0,0,1,.2.2v5.712a.2.2,0,0,1-.2.2h-.019a.2.2,0,0,1-.181-.2Z" transform="translate(-785.888 -572.35)" fill="#ff9e23"/><path d="M790.76,576.977a.2.2,0,0,1,.184-.2h.019a.2.2,0,0,1,.2.2v5.71a.2.2,0,0,1-.2.2h-.019a.2.2,0,0,1-.184-.2Z" transform="translate(-789.467 -575.604)" fill="#ff9e23"/><path d="M794.986,580.82a.2.2,0,0,1,.188-.2h.019a.2.2,0,0,1,.2.2v5.707a.2.2,0,0,1-.2.2h-.019a.2.2,0,0,1-.188-.2Z" transform="translate(-793.046 -578.858)" fill="#ff9e23"/><path d="M799.212,584.663a.2.2,0,0,1,.191-.2h.019a.2.2,0,0,1,.2.2v5.7a.2.2,0,0,1-.2.2H799.4a.2.2,0,0,1-.191-.2Z" transform="translate(-796.626 -582.111)" fill="#ff9e23"/><path d="M803.438,588.506a.2.2,0,0,1,.195-.2h.02a.2.2,0,0,1,.2.2v5.7a.2.2,0,0,1-.2.2h-.02a.2.2,0,0,1-.195-.2Z" transform="translate(-800.205 -585.365)" fill="#ff9e23"/><path d="M807.664,592.349a.206.206,0,0,1,.2-.2h.02a.2.2,0,0,1,.2.2v5.7a.2.2,0,0,1-.2.2h-.02a.206.206,0,0,1-.2-.2Z" transform="translate(-803.785 -588.619)" fill="#ff9e23"/><path d="M811.889,596.191a.208.208,0,0,1,.2-.2h.02a.2.2,0,0,1,.2.2v5.7a.2.2,0,0,1-.2.2h-.02a.208.208,0,0,1-.2-.2Z" transform="translate(-807.363 -591.873)" fill="#ff9e23"/><rect width="0.431" height="6.106" rx="0.215" transform="translate(5.172 4.702)" fill="#ff9e23"/><rect width="0.434" height="6.106" rx="0.217" transform="translate(6.004 4.825)" fill="#ff9e23"/><path d="M.218,0h0A.218.218,0,0,1,.436.218v5.67a.218.218,0,0,1-.218.218h0A.218.218,0,0,1,0,5.888V.218A.218.218,0,0,1,.218,0Z" transform="translate(6.835 4.947)" fill="#ff9e23"/><rect width="0.438" height="6.106" rx="0.219" transform="translate(7.667 5.069)" fill="#ff9e23"/><rect width="0.441" height="6.106" rx="0.22" transform="translate(8.498 5.192)" fill="#ff9e23"/><rect width="0.443" height="6.106" rx="0.222" transform="translate(9.33 5.314)" fill="#ff9e23"/><path d="M.223,0h0A.223.223,0,0,1,.446.223V5.883a.223.223,0,0,1-.223.223h0A.223.223,0,0,1,0,5.883V.223A.223.223,0,0,1,.223,0Z" transform="translate(10.161 5.437)" fill="#ff9e23"/><path d="M.224,0h0A.224.224,0,0,1,.448.224V5.882a.224.224,0,0,1-.224.224h0A.224.224,0,0,1,0,5.882V.224A.224.224,0,0,1,.224,0Z" transform="translate(10.992 5.559)" fill="#ff9e23"/><path d="M.225,0h0A.225.225,0,0,1,.451.225V5.881a.225.225,0,0,1-.225.225h0A.225.225,0,0,1,0,5.881V.225A.225.225,0,0,1,.225,0Z" transform="translate(11.824 5.682)" fill="#ff9e23"/><path d="M.224,0h0A.224.224,0,0,1,.448.224V5.882a.224.224,0,0,1-.224.224h0A.224.224,0,0,1,0,5.882V.224A.224.224,0,0,1,.224,0Z" transform="translate(12.67 5.555)" fill="#ff9e23"/><rect width="0.446" height="6.106" rx="0.223" transform="translate(13.516 5.429)" fill="#ff9e23"/><rect width="0.443" height="6.106" rx="0.222" transform="translate(14.362 5.302)" fill="#ff9e23"/><rect width="0.441" height="6.106" rx="0.22" transform="translate(15.209 5.176)" fill="#ff9e23"/><rect width="0.438" height="6.106" rx="0.219" transform="translate(16.055 5.049)" fill="#ff9e23"/><path d="M.218,0h0A.218.218,0,0,1,.436.218v5.67a.218.218,0,0,1-.218.218h0A.218.218,0,0,1,0,5.888V.218A.218.218,0,0,1,.218,0Z" transform="translate(16.901 4.923)" fill="#ff9e23"/><rect width="0.433" height="6.106" rx="0.217" transform="translate(17.747 4.796)" fill="#ff9e23"/><rect width="0.431" height="6.106" rx="0.215" transform="translate(18.593 4.67)" fill="#ff9e23"/><path d="M907.8,596.271a.208.208,0,0,1,.2-.2h.02a.2.2,0,0,1,.2.2v5.7a.2.2,0,0,1-.2.2H908a.208.208,0,0,1-.2-.2Z" transform="translate(-888.597 -591.94)" fill="#ff9e23"/><path d="M911.761,592.722a.206.206,0,0,1,.2-.2h.02a.2.2,0,0,1,.2.2v5.7a.2.2,0,0,1-.2.2h-.02a.206.206,0,0,1-.2-.2Z" transform="translate(-891.955 -588.935)" fill="#ff9e23"/><path d="M915.725,589.173a.205.205,0,0,1,.195-.2h.02a.2.2,0,0,1,.2.2v5.7a.2.2,0,0,1-.2.2h-.02a.2.2,0,0,1-.195-.2Z" transform="translate(-895.312 -585.93)" fill="#ff9e23"/><path d="M919.69,585.624a.2.2,0,0,1,.191-.2h.019a.2.2,0,0,1,.2.2v5.7a.2.2,0,0,1-.2.2h-.019a.2.2,0,0,1-.191-.2Z" transform="translate(-898.671 -582.925)" fill="#ff9e23"/><path d="M923.654,582.075a.2.2,0,0,1,.188-.2h.019a.2.2,0,0,1,.2.2v5.707a.2.2,0,0,1-.2.2h-.019a.2.2,0,0,1-.188-.2Z" transform="translate(-902.028 -579.92)" fill="#ff9e23"/><path d="M927.618,578.525a.2.2,0,0,1,.184-.2h.019a.2.2,0,0,1,.2.2v5.709a.2.2,0,0,1-.2.2H927.8a.2.2,0,0,1-.184-.2Z" transform="translate(-905.386 -576.915)" fill="#ff9e23"/><path d="M931.583,574.975a.2.2,0,0,1,.181-.2h.019a.2.2,0,0,1,.2.2v5.712a.2.2,0,0,1-.2.2h-.019a.2.2,0,0,1-.181-.2Z" transform="translate(-908.744 -573.909)" fill="#ff9e23"/><path d="M935.744,577.336a.2.2,0,0,1-.2-.2v-5.714a.2.2,0,1,1,.392,0v5.714A.2.2,0,0,1,935.744,577.336Z" transform="translate(-912.102 -570.904)" fill="#ff9e23"/></g></g></g><ellipse cx="11.838" cy="6.834" rx="11.838" ry="6.834" fill="#ff9e23"/><path d="M806.361,542.7a17.612,17.612,0,0,1-15.936,0c-4.4-2.541-4.4-6.66,0-9.2a17.612,17.612,0,0,1,15.936,0C810.761,536.036,810.761,540.156,806.361,542.7Z" transform="translate(-786.555 -531.261)" fill="#ffb43f"/><ellipse cx="9.334" cy="5.389" rx="9.334" ry="5.389" transform="translate(2.504 1.446)" fill="#e68913"/><path d="M815.761,543.672a14.588,14.588,0,0,0-13.2,0,3.7,3.7,0,0,0,0,7.131,14.588,14.588,0,0,0,13.2,0,3.7,3.7,0,0,0,0-7.131Z" transform="translate(-797.324 -540.158)" fill="#ff9e23"/><path d="M827.613,552.976l.649.029c.074.043.028.4.031.452a.192.192,0,0,1-.115.166l-.406.234a3.513,3.513,0,0,1,1.016.948c.3.481-.294,1.042-1.175,1.1a1.528,1.528,0,0,1-1.482-.594,1.388,1.388,0,0,0-.244-.388l-1.951,1.126q1.789,1.937-.331,3.161a6.1,6.1,0,0,1-5.34.1l-.387.223a.674.674,0,0,1-.609,0l-.491-.284a.214.214,0,0,1-.126-.176c0-.064-.035-.408.05-.457l.45.065a3.657,3.657,0,0,1-1.513-1.536,1.482,1.482,0,0,1-.042-.452c.041-.361.536-.463,1.2-.506a1.466,1.466,0,0,1,1.462.612,2.246,2.246,0,0,0,.65.868l2.268-1.31c-2.671-2.585,2.121-4.921,5.489-3.153l.392-.226A.614.614,0,0,1,827.613,552.976Zm-4.445,2.23,1.661-.959C823.647,553.914,822.639,554.565,823.168,555.206Zm-1.276,2.023-1.755,1.013C821.27,558.633,822.519,558,821.892,557.229Z" transform="translate(-810.67 -549.044)" fill="#e68913"/><path d="M827.613,550.575l.565.326a.169.169,0,0,1,0,.321l-.406.234a3.5,3.5,0,0,1,.993.993c.3.481-.271,1-1.151,1.053a1.528,1.528,0,0,1-1.482-.594,1.386,1.386,0,0,0-.244-.388l-1.951,1.126q1.789,1.937-.331,3.161a6.1,6.1,0,0,1-5.34.1l-.387.224a.673.673,0,0,1-.609,0l-.491-.284a.186.186,0,0,1,0-.352l.374-.216a3.657,3.657,0,0,1-1.513-1.536c-.211-.453.348-.906,1.156-.958a1.467,1.467,0,0,1,1.462.612,2.247,2.247,0,0,0,.65.868l2.268-1.31c-2.671-2.585,2.122-4.921,5.489-3.153l.392-.226A.614.614,0,0,1,827.613,550.575Zm-4.445,2.23,1.661-.959C823.647,551.513,822.639,552.164,823.168,552.8Zm-1.276,2.023-1.755,1.013C821.27,556.232,822.518,555.6,821.892,554.828Z" transform="translate(-810.67 -547.011)" fill="#ffb43f"/></g></g><path d="M788.34,581.714c-.107-1.663-1.255-3.307-3.453-4.577a15.977,15.977,0,0,0-6.28-1.893,5.853,5.853,0,0,1-.006.681c0,.3,0,.658,0,1-.63,1.217-.5,1.957-.49,4.65a13.272,13.272,0,0,0-.125,3.307,4.189,4.189,0,0,0-.252,1.414c.014,3.289-.147,3.887.619,5.2,0,.892.005,1.894.01,1.95.13,1.643,1.281,3.265,3.455,4.52a16.138,16.138,0,0,0,6.55,1.92V581.733Z" transform="translate(-110.703 -38.794)" fill="#ccc" opacity="0.3" style="mix-blend-mode:multiply;isolation:isolate"/><path d="M657.1,626.877c3.983,4.476,9.856,4.353,11.909,4.312a16.613,16.613,0,0,0,8.378-2.669,6.357,6.357,0,0,0,2.792-4.641l1.068-2.135-.041-18.192a6.537,6.537,0,0,1-1.725-1.232c-.246-.452-2.916,22.874-2.916,22.874Z" transform="translate(-8.53 -61.721)" fill="#ccc" opacity="0.4" style="mix-blend-mode:multiply;isolation:isolate"/><g transform="translate(647.033 537.511)"><g transform="translate(0.616 15.03)"><g transform="translate(0 3.037)"><path d="M671.267,711.929c-4.623,2.669-12.118,2.669-16.741,0-2.174-1.255-3.325-2.876-3.455-4.52-.008-.1-.012-3.234-.012-3.333-.007-1.755,1.149-.474,3.467-1.812,4.623-2.669,12.118-2.669,16.741,0,2.3,1.326,3.453.025,3.467,1.764,0,.1,0,3.231-.008,3.328C674.617,709.017,673.464,710.66,671.267,711.929Z" transform="translate(-651.059 -700.262)" fill="#ef8809"/><g clip-path="url(#f)"><g transform="translate(-0.168 3.03)"><path d="M650.159,726.172a.2.2,0,0,1-.2-.2v-5.714a.2.2,0,1,1,.392,0v5.714A.2.2,0,0,1,650.159,726.172Z" transform="translate(-649.963 -720.066)" fill="#ff9e23"/><path d="M654.189,724.105a.2.2,0,0,1,.181-.2h.019a.2.2,0,0,1,.2.2v5.712a.2.2,0,0,1-.2.2h-.019a.2.2,0,0,1-.181-.2Z" transform="translate(-653.542 -723.32)" fill="#ff9e23"/><path d="M658.415,727.948a.2.2,0,0,1,.184-.2h.019a.2.2,0,0,1,.2.2v5.71a.2.2,0,0,1-.2.2H658.6a.2.2,0,0,1-.184-.2Z" transform="translate(-657.122 -726.574)" fill="#ff9e23"/><path d="M662.64,731.792a.2.2,0,0,1,.188-.2h.019a.2.2,0,0,1,.2.2V737.5a.2.2,0,0,1-.2.2h-.019a.2.2,0,0,1-.188-.2Z" transform="translate(-660.7 -729.828)" fill="#ff9e23"/><path d="M666.866,735.634a.2.2,0,0,1,.191-.2h.019a.2.2,0,0,1,.2.2v5.7a.2.2,0,0,1-.2.2h-.019a.2.2,0,0,1-.191-.2Z" transform="translate(-664.28 -733.082)" fill="#ff9e23"/><path d="M671.092,739.477a.2.2,0,0,1,.195-.2h.019a.2.2,0,0,1,.2.2v5.7a.2.2,0,0,1-.2.2h-.019a.2.2,0,0,1-.195-.2Z" transform="translate(-667.859 -736.336)" fill="#ff9e23"/><path d="M675.318,743.319a.206.206,0,0,1,.2-.2h.02a.2.2,0,0,1,.2.2v5.7a.2.2,0,0,1-.2.2h-.02a.206.206,0,0,1-.2-.2Z" transform="translate(-671.439 -739.589)" fill="#ff9e23"/><path d="M679.544,747.162a.208.208,0,0,1,.2-.2h.02a.2.2,0,0,1,.2.2v5.7a.2.2,0,0,1-.2.2h-.02a.208.208,0,0,1-.2-.2Z" transform="translate(-675.018 -742.844)" fill="#ff9e23"/><rect width="0.431" height="6.106" rx="0.216" transform="translate(5.172 4.702)" fill="#ff9e23"/><rect width="0.433" height="6.106" rx="0.217" transform="translate(6.004 4.825)" fill="#ff9e23"/><path d="M.218,0h0A.218.218,0,0,1,.436.218v5.67a.218.218,0,0,1-.218.218h0A.218.218,0,0,1,0,5.888V.218A.218.218,0,0,1,.218,0Z" transform="translate(6.835 4.947)" fill="#ff9e23"/><path d="M.219,0h0A.219.219,0,0,1,.438.219V5.887a.219.219,0,0,1-.219.219h0A.219.219,0,0,1,0,5.887V.219A.219.219,0,0,1,.219,0Z" transform="translate(7.667 5.07)" fill="#ff9e23"/><rect width="0.441" height="6.106" rx="0.22" transform="translate(8.498 5.192)" fill="#ff9e23"/><rect width="0.443" height="6.106" rx="0.222" transform="translate(9.33 5.314)" fill="#ff9e23"/><path d="M.223,0h0A.223.223,0,0,1,.446.223V5.883a.223.223,0,0,1-.223.223h0A.223.223,0,0,1,0,5.883V.223A.223.223,0,0,1,.223,0Z" transform="translate(10.161 5.437)" fill="#ff9e23"/><path d="M.224,0h0A.224.224,0,0,1,.448.224V5.882a.224.224,0,0,1-.224.224h0A.224.224,0,0,1,0,5.882V.224A.224.224,0,0,1,.224,0Z" transform="translate(10.992 5.559)" fill="#ff9e23"/><rect width="0.451" height="6.106" rx="0.225" transform="translate(11.824 5.682)" fill="#ff9e23"/><path d="M.224,0h0A.224.224,0,0,1,.448.224V5.882a.224.224,0,0,1-.224.224h0A.224.224,0,0,1,0,5.882V.224A.224.224,0,0,1,.224,0Z" transform="translate(12.67 5.555)" fill="#ff9e23"/><path d="M.223,0h0A.223.223,0,0,1,.446.223V5.883a.223.223,0,0,1-.223.223h0A.223.223,0,0,1,0,5.883V.223A.223.223,0,0,1,.223,0Z" transform="translate(13.516 5.429)" fill="#ff9e23"/><rect width="0.443" height="6.106" rx="0.222" transform="translate(14.362 5.302)" fill="#ff9e23"/><rect width="0.441" height="6.106" rx="0.22" transform="translate(15.208 5.176)" fill="#ff9e23"/><path d="M.219,0h0A.219.219,0,0,1,.438.219V5.887a.219.219,0,0,1-.219.219h0A.219.219,0,0,1,0,5.887V.219A.219.219,0,0,1,.219,0Z" transform="translate(16.055 5.049)" fill="#ff9e23"/><path d="M.218,0h0A.218.218,0,0,1,.436.218v5.67a.218.218,0,0,1-.218.218h0A.218.218,0,0,1,0,5.888V.218A.218.218,0,0,1,.218,0Z" transform="translate(16.901 4.923)" fill="#ff9e23"/><rect width="0.433" height="6.106" rx="0.217" transform="translate(17.747 4.796)" fill="#ff9e23"/><rect width="0.431" height="6.106" rx="0.216" transform="translate(18.593 4.67)" fill="#ff9e23"/><path d="M775.451,747.242a.208.208,0,0,1,.2-.2h.02a.2.2,0,0,1,.2.2v5.7a.2.2,0,0,1-.2.2h-.02a.208.208,0,0,1-.2-.2Z" transform="translate(-756.251 -742.911)" fill="#ff9e23"/><path d="M779.415,743.693a.206.206,0,0,1,.2-.2h.02a.2.2,0,0,1,.2.2v5.7a.2.2,0,0,1-.2.2h-.02a.206.206,0,0,1-.2-.2Z" transform="translate(-759.609 -739.906)" fill="#ff9e23"/><path d="M783.38,740.144a.2.2,0,0,1,.195-.2h.019a.2.2,0,0,1,.2.2v5.7a.2.2,0,0,1-.2.2h-.019a.2.2,0,0,1-.195-.2Z" transform="translate(-762.967 -736.901)" fill="#ff9e23"/><path d="M787.344,736.595a.2.2,0,0,1,.191-.2h.019a.2.2,0,0,1,.2.2v5.7a.2.2,0,0,1-.2.2h-.019a.2.2,0,0,1-.191-.2Z" transform="translate(-766.325 -733.896)" fill="#ff9e23"/><path d="M791.308,733.044a.2.2,0,0,1,.188-.2h.019a.2.2,0,0,1,.2.2v5.707a.2.2,0,0,1-.2.2H791.5a.2.2,0,0,1-.188-.2Z" transform="translate(-769.682 -730.89)" fill="#ff9e23"/><path d="M795.273,729.5a.2.2,0,0,1,.184-.2h.019a.2.2,0,0,1,.2.2v5.71a.2.2,0,0,1-.2.2h-.019a.2.2,0,0,1-.184-.2Z" transform="translate(-773.041 -727.885)" fill="#ff9e23"/><path d="M799.237,725.946a.2.2,0,0,1,.181-.2h.019a.2.2,0,0,1,.2.2v5.712a.2.2,0,0,1-.2.2h-.019a.2.2,0,0,1-.181-.2Z" transform="translate(-776.398 -724.88)" fill="#ff9e23"/><path d="M803.4,728.307a.2.2,0,0,1-.2-.2V722.4a.2.2,0,0,1,.392,0v5.715A.2.2,0,0,1,803.4,728.307Z" transform="translate(-779.756 -721.874)" fill="#ff9e23"/></g></g></g><ellipse cx="11.838" cy="6.835" rx="11.838" ry="6.835" transform="translate(0)" fill="#ff9e23"/><path d="M674.016,693.667a17.612,17.612,0,0,1-15.936,0c-4.4-2.541-4.4-6.66,0-9.2a17.612,17.612,0,0,1,15.936,0C678.416,687.007,678.416,691.126,674.016,693.667Z" transform="translate(-654.21 -682.232)" fill="#ffb43f"/><ellipse cx="9.334" cy="5.389" rx="9.334" ry="5.389" transform="translate(2.504 1.446)" fill="#e68913"/><path d="M683.415,694.642a14.587,14.587,0,0,0-13.2,0,3.7,3.7,0,0,0,0,7.131,14.588,14.588,0,0,0,13.2,0,3.7,3.7,0,0,0,0-7.131Z" transform="translate(-664.978 -691.128)" fill="#ff9e23"/><path d="M695.267,703.947l.649.029c.074.043.028.4.031.452a.192.192,0,0,1-.115.166l-.406.234a3.511,3.511,0,0,1,1.016.948c.3.481-.294,1.042-1.175,1.1a1.528,1.528,0,0,1-1.481-.594,1.391,1.391,0,0,0-.244-.388l-1.951,1.127q1.789,1.937-.331,3.161a6.1,6.1,0,0,1-5.34.1l-.387.223a.672.672,0,0,1-.609,0l-.491-.283a.214.214,0,0,1-.126-.176c0-.064-.035-.408.05-.457l.45.065a3.66,3.66,0,0,1-1.513-1.536,1.482,1.482,0,0,1-.042-.452c.041-.361.536-.463,1.2-.506a1.467,1.467,0,0,1,1.463.612,2.243,2.243,0,0,0,.65.868l2.268-1.31c-2.671-2.585,2.121-4.921,5.489-3.153l.392-.226A.614.614,0,0,1,695.267,703.947Zm-4.445,2.23,1.661-.959C691.3,704.885,690.293,705.536,690.822,706.177Zm-1.276,2.023-1.755,1.013C688.924,709.6,690.173,708.967,689.546,708.2Z" transform="translate(-678.324 -700.015)" fill="#e68913"/><path d="M695.267,701.546l.565.326a.169.169,0,0,1,0,.321l-.406.234a3.507,3.507,0,0,1,.993.993c.3.481-.271,1-1.151,1.053a1.528,1.528,0,0,1-1.482-.594,1.389,1.389,0,0,0-.244-.388l-1.951,1.127q1.789,1.937-.331,3.161a6.1,6.1,0,0,1-5.34.1l-.387.223a.673.673,0,0,1-.609,0l-.491-.283a.186.186,0,0,1,0-.352l.373-.216a3.66,3.66,0,0,1-1.513-1.536c-.211-.453.349-.906,1.156-.958a1.467,1.467,0,0,1,1.463.612,2.243,2.243,0,0,0,.65.868l2.268-1.31c-2.671-2.585,2.121-4.921,5.489-3.153l.392-.226A.614.614,0,0,1,695.267,701.546Zm-4.445,2.23,1.661-.959C691.3,702.484,690.293,703.135,690.822,703.776Zm-1.276,2.023-1.755,1.013C688.924,707.2,690.173,706.566,689.546,705.8Z" transform="translate(-678.324 -697.981)" fill="#ffb43f"/></g><g transform="translate(0 11.211)"><g transform="translate(0 3.037)"><path d="M667.241,686.967c-4.623,2.669-12.118,2.669-16.741,0-2.174-1.255-3.325-2.877-3.455-4.52-.008-.1-.012-3.234-.012-3.333-.007-1.754,1.149-.474,3.467-1.812,4.623-2.669,12.118-2.669,16.741,0,2.3,1.326,3.453.025,3.467,1.764,0,.1,0,3.231-.008,3.328C670.591,684.055,669.438,685.7,667.241,686.967Z" transform="translate(-647.033 -675.3)" fill="#ef8809"/><g clip-path="url(#g)"><g transform="translate(-0.168 3.03)"><path d="M646.133,701.211a.2.2,0,0,1-.2-.2V695.3a.2.2,0,1,1,.392,0v5.714A.2.2,0,0,1,646.133,701.211Z" transform="translate(-645.937 -695.105)" fill="#ff9e23"/><path d="M650.163,699.144a.2.2,0,0,1,.181-.2h.019a.2.2,0,0,1,.2.2v5.712a.2.2,0,0,1-.2.2h-.019a.2.2,0,0,1-.181-.2Z" transform="translate(-649.516 -698.359)" fill="#ff9e23"/><path d="M654.388,702.986a.2.2,0,0,1,.184-.2h.019a.2.2,0,0,1,.2.2v5.71a.2.2,0,0,1-.2.2h-.019a.2.2,0,0,1-.184-.2Z" transform="translate(-653.095 -701.613)" fill="#ff9e23"/><path d="M658.614,706.83a.2.2,0,0,1,.188-.2h.019a.2.2,0,0,1,.2.2v5.707a.2.2,0,0,1-.2.2H658.8a.2.2,0,0,1-.188-.2Z" transform="translate(-656.674 -704.867)" fill="#ff9e23"/><path d="M662.84,710.673a.2.2,0,0,1,.191-.2h.019a.2.2,0,0,1,.2.2v5.7a.2.2,0,0,1-.2.2h-.019a.2.2,0,0,1-.191-.2Z" transform="translate(-660.254 -708.121)" fill="#ff9e23"/><path d="M667.066,714.515a.2.2,0,0,1,.195-.2h.02a.2.2,0,0,1,.2.2v5.7a.2.2,0,0,1-.2.2h-.02a.2.2,0,0,1-.195-.2Z" transform="translate(-663.833 -711.374)" fill="#ff9e23"/><path d="M671.292,718.358a.206.206,0,0,1,.2-.2h.02a.2.2,0,0,1,.2.2v5.7a.2.2,0,0,1-.2.2h-.02a.206.206,0,0,1-.2-.2Z" transform="translate(-667.413 -714.628)" fill="#ff9e23"/><path d="M675.517,722.2a.208.208,0,0,1,.2-.2h.02a.2.2,0,0,1,.2.2v5.7a.2.2,0,0,1-.2.2h-.02a.208.208,0,0,1-.2-.2Z" transform="translate(-670.991 -717.882)" fill="#ff9e23"/><rect width="0.431" height="6.106" rx="0.215" transform="translate(5.172 4.702)" fill="#ff9e23"/><rect width="0.434" height="6.106" rx="0.217" transform="translate(6.004 4.825)" fill="#ff9e23"/><rect width="0.436" height="6.106" rx="0.218" transform="translate(6.835 4.947)" fill="#ff9e23"/><rect width="0.438" height="6.106" rx="0.219" transform="translate(7.667 5.07)" fill="#ff9e23"/><rect width="0.441" height="6.106" rx="0.22" transform="translate(8.498 5.192)" fill="#ff9e23"/><rect width="0.443" height="6.106" rx="0.222" transform="translate(9.33 5.314)" fill="#ff9e23"/><rect width="0.446" height="6.106" rx="0.223" transform="translate(10.161 5.437)" fill="#ff9e23"/><rect width="0.448" height="6.106" rx="0.224" transform="translate(10.992 5.559)" fill="#ff9e23"/><rect width="0.451" height="6.106" rx="0.225" transform="translate(11.824 5.682)" fill="#ff9e23"/><path d="M.224,0h0A.224.224,0,0,1,.448.224V5.882a.224.224,0,0,1-.224.224h0A.224.224,0,0,1,0,5.882V.224A.224.224,0,0,1,.224,0Z" transform="translate(12.67 5.555)" fill="#ff9e23"/><rect width="0.446" height="6.106" rx="0.223" transform="translate(13.516 5.429)" fill="#ff9e23"/><rect width="0.443" height="6.106" rx="0.222" transform="translate(14.362 5.302)" fill="#ff9e23"/><rect width="0.441" height="6.106" rx="0.22" transform="translate(15.208 5.176)" fill="#ff9e23"/><rect width="0.438" height="6.106" rx="0.219" transform="translate(16.055 5.049)" fill="#ff9e23"/><path d="M.218,0h0A.218.218,0,0,1,.436.218v5.67a.218.218,0,0,1-.218.218h0A.218.218,0,0,1,0,5.888V.218A.218.218,0,0,1,.218,0Z" transform="translate(16.901 4.923)" fill="#ff9e23"/><rect width="0.433" height="6.106" rx="0.217" transform="translate(17.747 4.796)" fill="#ff9e23"/><rect width="0.431" height="6.106" rx="0.215" transform="translate(18.593 4.669)" fill="#ff9e23"/><path d="M771.425,722.28a.208.208,0,0,1,.2-.2h.02a.2.2,0,0,1,.2.2v5.7a.2.2,0,0,1-.2.2h-.02a.208.208,0,0,1-.2-.2Z" transform="translate(-752.225 -717.949)" fill="#ff9e23"/><path d="M775.389,718.731a.206.206,0,0,1,.2-.2h.02a.2.2,0,0,1,.2.2v5.7a.2.2,0,0,1-.2.2h-.02a.206.206,0,0,1-.2-.2Z" transform="translate(-755.583 -714.944)" fill="#ff9e23"/><path d="M779.354,715.182a.2.2,0,0,1,.195-.2h.02a.2.2,0,0,1,.2.2v5.7a.2.2,0,0,1-.2.2h-.02a.2.2,0,0,1-.195-.2Z" transform="translate(-758.941 -711.939)" fill="#ff9e23"/><path d="M783.318,711.633a.2.2,0,0,1,.191-.2h.019a.2.2,0,0,1,.2.2v5.7a.2.2,0,0,1-.2.2h-.019a.2.2,0,0,1-.191-.2Z" transform="translate(-762.299 -708.934)" fill="#ff9e23"/><path d="M787.282,708.083a.2.2,0,0,1,.188-.2h.019a.2.2,0,0,1,.2.2v5.707a.2.2,0,0,1-.2.2h-.019a.2.2,0,0,1-.188-.2Z" transform="translate(-765.656 -705.929)" fill="#ff9e23"/><path d="M791.247,704.533a.2.2,0,0,1,.184-.2h.019a.2.2,0,0,1,.2.2v5.71a.2.2,0,0,1-.2.2h-.019a.2.2,0,0,1-.184-.2Z" transform="translate(-769.015 -702.923)" fill="#ff9e23"/><path d="M795.211,700.985a.2.2,0,0,1,.181-.2h.019a.2.2,0,0,1,.2.2V706.7a.2.2,0,0,1-.2.2h-.019a.2.2,0,0,1-.181-.2Z" transform="translate(-772.372 -699.919)" fill="#ff9e23"/><path d="M799.372,703.345a.2.2,0,0,1-.2-.2v-5.714a.2.2,0,1,1,.392,0v5.714A.2.2,0,0,1,799.372,703.345Z" transform="translate(-775.73 -696.913)" fill="#ff9e23"/></g></g></g><ellipse cx="11.838" cy="6.834" rx="11.838" ry="6.834" fill="#ff9e23"/><path d="M669.989,668.706a17.612,17.612,0,0,1-15.936,0c-4.4-2.541-4.4-6.66,0-9.2a17.613,17.613,0,0,1,15.936,0C674.39,662.046,674.39,666.165,669.989,668.706Z" transform="translate(-650.183 -657.271)" fill="#ffb43f"/><ellipse cx="9.334" cy="5.389" rx="9.334" ry="5.389" transform="translate(2.504 1.446)" fill="#e68913"/><path d="M679.389,669.681a14.588,14.588,0,0,0-13.2,0,3.7,3.7,0,0,0,0,7.131,14.588,14.588,0,0,0,13.2,0,3.7,3.7,0,0,0,0-7.131Z" transform="translate(-660.952 -666.167)" fill="#ff9e23"/><path d="M691.241,678.985l.649.029c.074.043.028.4.031.452a.192.192,0,0,1-.115.166l-.406.234a3.511,3.511,0,0,1,1.016.948c.3.481-.294,1.042-1.174,1.1a1.529,1.529,0,0,1-1.482-.594,1.387,1.387,0,0,0-.243-.388l-1.951,1.127q1.789,1.937-.331,3.161a6.1,6.1,0,0,1-5.34.1l-.387.224a.673.673,0,0,1-.609,0l-.491-.284a.214.214,0,0,1-.126-.176c0-.064-.035-.408.05-.457l.45.065a3.657,3.657,0,0,1-1.513-1.536,1.484,1.484,0,0,1-.042-.452c.041-.361.536-.463,1.2-.506a1.466,1.466,0,0,1,1.462.612,2.246,2.246,0,0,0,.65.868l2.268-1.31c-2.671-2.585,2.122-4.921,5.489-3.153l.392-.226A.614.614,0,0,1,691.241,678.985Zm-4.445,2.23,1.661-.959C687.275,679.923,686.267,680.574,686.8,681.215Zm-1.276,2.023-1.755,1.013C684.9,684.642,686.147,684.005,685.52,683.238Z" transform="translate(-674.298 -675.054)" fill="#e68913"/><path d="M691.241,676.584l.565.326a.169.169,0,0,1,0,.321l-.406.234a3.507,3.507,0,0,1,.993.993c.3.481-.271,1-1.151,1.053a1.529,1.529,0,0,1-1.482-.594,1.385,1.385,0,0,0-.243-.388l-1.951,1.127q1.789,1.937-.331,3.161a6.1,6.1,0,0,1-5.34.1l-.387.223a.674.674,0,0,1-.609,0l-.491-.284a.186.186,0,0,1,0-.352l.374-.216a3.659,3.659,0,0,1-1.513-1.536c-.211-.453.349-.906,1.156-.958a1.466,1.466,0,0,1,1.462.612,2.246,2.246,0,0,0,.65.868l2.268-1.31c-2.671-2.585,2.122-4.921,5.489-3.153l.392-.226A.614.614,0,0,1,691.241,676.584Zm-4.445,2.23,1.661-.959C687.275,677.522,686.267,678.173,686.8,678.814Zm-1.276,2.023-1.755,1.013C684.9,682.241,686.147,681.6,685.52,680.837Z" transform="translate(-674.298 -673.02)" fill="#ffb43f"/></g><g transform="translate(0.246 7.515)"><g transform="translate(0 3.037)"><path d="M668.851,662.811c-4.623,2.669-12.118,2.669-16.741,0-2.174-1.255-3.325-2.876-3.455-4.52-.008-.1-.012-3.234-.012-3.333-.007-1.754,1.149-.474,3.467-1.812,4.623-2.669,12.118-2.669,16.741,0,2.3,1.326,3.453.025,3.467,1.763,0,.1,0,3.231-.008,3.328C672.2,659.9,671.049,661.542,668.851,662.811Z" transform="translate(-648.643 -651.144)" fill="#ef8809"/><g clip-path="url(#h)"><g transform="translate(-0.168 3.03)"><path d="M647.744,677.054a.2.2,0,0,1-.2-.2v-5.714a.2.2,0,1,1,.392,0v5.714A.2.2,0,0,1,647.744,677.054Z" transform="translate(-647.548 -670.948)" fill="#ff9e23"/><path d="M651.773,674.987a.2.2,0,0,1,.181-.2h.019a.2.2,0,0,1,.2.2V680.7a.2.2,0,0,1-.2.2h-.019a.2.2,0,0,1-.181-.2Z" transform="translate(-651.127 -674.202)" fill="#ff9e23"/><path d="M656,678.83a.2.2,0,0,1,.184-.2h.019a.2.2,0,0,1,.2.2v5.71a.2.2,0,0,1-.2.2h-.019a.2.2,0,0,1-.184-.2Z" transform="translate(-654.706 -677.456)" fill="#ff9e23"/><path d="M660.225,682.673a.2.2,0,0,1,.188-.2h.019a.2.2,0,0,1,.2.2v5.707a.2.2,0,0,1-.2.2h-.019a.2.2,0,0,1-.188-.2Z" transform="translate(-658.285 -680.71)" fill="#ff9e23"/><path d="M664.45,686.516a.2.2,0,0,1,.191-.2h.019a.2.2,0,0,1,.2.2v5.7a.2.2,0,0,1-.2.2h-.019a.2.2,0,0,1-.191-.2Z" transform="translate(-661.864 -683.964)" fill="#ff9e23"/><path d="M668.676,690.359a.2.2,0,0,1,.195-.2h.02a.2.2,0,0,1,.2.2v5.7a.2.2,0,0,1-.2.2h-.02a.2.2,0,0,1-.195-.2Z" transform="translate(-665.443 -687.218)" fill="#ff9e23"/><path d="M672.9,694.2a.206.206,0,0,1,.2-.2h.02a.2.2,0,0,1,.2.2v5.7a.2.2,0,0,1-.2.2h-.02a.206.206,0,0,1-.2-.2Z" transform="translate(-669.023 -690.471)" fill="#ff9e23"/><path d="M677.128,698.044a.208.208,0,0,1,.2-.2h.02a.2.2,0,0,1,.2.2v5.7a.2.2,0,0,1-.2.2h-.02a.208.208,0,0,1-.2-.2Z" transform="translate(-672.602 -693.726)" fill="#ff9e23"/><rect width="0.431" height="6.106" rx="0.216" transform="translate(5.172 4.702)" fill="#ff9e23"/><rect width="0.434" height="6.106" rx="0.217" transform="translate(6.004 4.825)" fill="#ff9e23"/><path d="M.218,0h0A.218.218,0,0,1,.436.218v5.67a.218.218,0,0,1-.218.218h0A.218.218,0,0,1,0,5.888V.218A.218.218,0,0,1,.218,0Z" transform="translate(6.835 4.947)" fill="#ff9e23"/><path d="M.219,0h0A.219.219,0,0,1,.438.219V5.887a.219.219,0,0,1-.219.219h0A.219.219,0,0,1,0,5.887V.219A.219.219,0,0,1,.219,0Z" transform="translate(7.667 5.07)" fill="#ff9e23"/><rect width="0.441" height="6.106" rx="0.22" transform="translate(8.498 5.192)" fill="#ff9e23"/><rect width="0.443" height="6.106" rx="0.222" transform="translate(9.329 5.314)" fill="#ff9e23"/><rect width="0.446" height="6.106" rx="0.223" transform="translate(10.161 5.437)" fill="#ff9e23"/><path d="M.224,0h0A.224.224,0,0,1,.448.224V5.882a.224.224,0,0,1-.224.224h0A.224.224,0,0,1,0,5.882V.224A.224.224,0,0,1,.224,0Z" transform="translate(10.992 5.559)" fill="#ff9e23"/><path d="M.225,0h0A.225.225,0,0,1,.451.225V5.881a.225.225,0,0,1-.225.225h0A.225.225,0,0,1,0,5.881V.225A.225.225,0,0,1,.225,0Z" transform="translate(11.824 5.682)" fill="#ff9e23"/><path d="M.224,0h0A.224.224,0,0,1,.448.224V5.882a.224.224,0,0,1-.224.224h0A.224.224,0,0,1,0,5.882V.224A.224.224,0,0,1,.224,0Z" transform="translate(12.67 5.555)" fill="#ff9e23"/><rect width="0.446" height="6.106" rx="0.223" transform="translate(13.516 5.429)" fill="#ff9e23"/><rect width="0.443" height="6.106" rx="0.222" transform="translate(14.362 5.302)" fill="#ff9e23"/><rect width="0.441" height="6.106" rx="0.22" transform="translate(15.208 5.176)" fill="#ff9e23"/><path d="M.219,0h0A.219.219,0,0,1,.438.219V5.887a.219.219,0,0,1-.219.219h0A.219.219,0,0,1,0,5.887V.219A.219.219,0,0,1,.219,0Z" transform="translate(16.055 5.049)" fill="#ff9e23"/><rect width="0.436" height="6.106" rx="0.218" transform="translate(16.901 4.923)" fill="#ff9e23"/><rect width="0.433" height="6.106" rx="0.217" transform="translate(17.747 4.796)" fill="#ff9e23"/><rect width="0.431" height="6.106" rx="0.216" transform="translate(18.593 4.67)" fill="#ff9e23"/><path d="M773.035,698.124a.208.208,0,0,1,.2-.2h.02a.205.205,0,0,1,.2.2v5.7a.205.205,0,0,1-.2.2h-.02a.208.208,0,0,1-.2-.2Z" transform="translate(-753.836 -693.793)" fill="#ff9e23"/><path d="M777,694.575a.206.206,0,0,1,.2-.2h.02a.2.2,0,0,1,.2.2v5.7a.2.2,0,0,1-.2.2h-.02a.206.206,0,0,1-.2-.2Z" transform="translate(-757.194 -690.788)" fill="#ff9e23"/><path d="M780.964,691.026a.2.2,0,0,1,.195-.2h.019a.2.2,0,0,1,.2.2v5.7a.2.2,0,0,1-.2.2h-.019a.2.2,0,0,1-.195-.2Z" transform="translate(-760.551 -687.783)" fill="#ff9e23"/><path d="M784.928,687.476a.2.2,0,0,1,.191-.2h.019a.2.2,0,0,1,.2.2v5.7a.2.2,0,0,1-.2.2h-.019a.2.2,0,0,1-.191-.2Z" transform="translate(-763.909 -684.777)" fill="#ff9e23"/><path d="M788.893,683.927a.2.2,0,0,1,.188-.2h.019a.2.2,0,0,1,.2.2v5.707a.2.2,0,0,1-.2.2h-.019a.2.2,0,0,1-.188-.2Z" transform="translate(-767.267 -681.772)" fill="#ff9e23"/><path d="M792.857,680.377a.2.2,0,0,1,.184-.2h.019a.2.2,0,0,1,.2.2v5.71a.2.2,0,0,1-.2.2h-.019a.2.2,0,0,1-.184-.2Z" transform="translate(-770.625 -678.767)" fill="#ff9e23"/><path d="M796.822,676.828a.2.2,0,0,1,.181-.2h.019a.2.2,0,0,1,.2.2v5.712a.2.2,0,0,1-.2.2H797a.2.2,0,0,1-.181-.2Z" transform="translate(-773.983 -675.761)" fill="#ff9e23"/><path d="M800.982,679.189a.2.2,0,0,1-.2-.2v-5.714a.2.2,0,0,1,.392,0v5.714A.2.2,0,0,1,800.982,679.189Z" transform="translate(-777.341 -672.756)" fill="#ff9e23"/></g></g></g><ellipse cx="11.838" cy="6.834" rx="11.838" ry="6.834" transform="translate(0)" fill="#ff9e23"/><path d="M671.6,644.549a17.612,17.612,0,0,1-15.936,0c-4.4-2.541-4.4-6.66,0-9.2a17.613,17.613,0,0,1,15.936,0C676,637.889,676,642.008,671.6,644.549Z" transform="translate(-651.794 -633.114)" fill="#ffb43f"/><path d="M680.943,649.944a14.588,14.588,0,0,1-13.2,0c-3.645-2.1-3.645-5.516,0-7.621a14.588,14.588,0,0,1,13.2,0C684.588,644.427,684.588,647.839,680.943,649.944Z" transform="translate(-662.506 -639.299)" fill="#e68913"/><path d="M681,645.524a14.588,14.588,0,0,0-13.2,0,3.7,3.7,0,0,0,0,7.131,14.588,14.588,0,0,0,13.2,0,3.7,3.7,0,0,0,0-7.131Z" transform="translate(-662.562 -642.01)" fill="#ff9e23"/><path d="M692.851,654.829l.649.029c.074.043.029.4.031.452a.192.192,0,0,1-.115.166l-.406.234a3.515,3.515,0,0,1,1.016.948c.3.481-.294,1.042-1.175,1.1a1.528,1.528,0,0,1-1.482-.594,1.388,1.388,0,0,0-.243-.388l-1.951,1.127q1.789,1.937-.331,3.161a6.1,6.1,0,0,1-5.34.1l-.387.223a.673.673,0,0,1-.609,0l-.491-.283a.214.214,0,0,1-.126-.176c0-.064-.035-.408.05-.457l.45.065A3.66,3.66,0,0,1,680.878,659a1.493,1.493,0,0,1-.042-.452c.041-.361.536-.463,1.2-.506a1.467,1.467,0,0,1,1.462.612,2.247,2.247,0,0,0,.65.869l2.268-1.31c-2.671-2.585,2.121-4.921,5.489-3.153l.392-.226A.614.614,0,0,1,692.851,654.829Zm-4.445,2.23,1.661-.959C688.885,655.767,687.877,656.417,688.406,657.058Zm-1.276,2.023-1.755,1.013C686.508,660.486,687.757,659.849,687.13,659.081Z" transform="translate(-675.908 -650.897)" fill="#e68913"/><path d="M692.851,652.428l.565.326a.169.169,0,0,1,0,.321l-.406.234a3.5,3.5,0,0,1,.993.993c.3.481-.271,1-1.151,1.053a1.529,1.529,0,0,1-1.482-.594,1.388,1.388,0,0,0-.243-.388l-1.951,1.127q1.789,1.937-.331,3.161a6.1,6.1,0,0,1-5.34.1l-.387.223a.673.673,0,0,1-.609,0l-.491-.283a.186.186,0,0,1,0-.352l.374-.216a3.658,3.658,0,0,1-1.513-1.536c-.211-.453.349-.906,1.156-.958a1.467,1.467,0,0,1,1.462.612,2.245,2.245,0,0,0,.65.869l2.268-1.31c-2.671-2.585,2.121-4.921,5.489-3.153l.392-.226A.614.614,0,0,1,692.851,652.428Zm-4.445,2.23,1.661-.959C688.885,653.366,687.877,654.017,688.406,654.657Zm-1.276,2.023-1.755,1.013C686.508,658.085,687.757,657.448,687.13,656.68Z" transform="translate(-675.908 -648.863)" fill="#ffb43f"/></g><g transform="translate(0.37 3.819)"><g transform="translate(0 3.037)"><path d="M669.656,638.654c-4.623,2.669-12.118,2.669-16.741,0-2.174-1.255-3.325-2.877-3.455-4.52-.008-.1-.012-3.234-.012-3.333-.007-1.754,1.149-.474,3.467-1.812,4.623-2.669,12.118-2.669,16.741,0,2.3,1.326,3.453.025,3.467,1.764,0,.1,0,3.231-.008,3.328C673.006,635.742,671.853,637.385,669.656,638.654Z" transform="translate(-649.448 -626.987)" fill="#ef8809"/><g clip-path="url(#i)"><g transform="translate(-0.168 3.03)"><path d="M648.549,652.9a.2.2,0,0,1-.2-.2v-5.714a.2.2,0,1,1,.392,0V652.7A.2.2,0,0,1,648.549,652.9Z" transform="translate(-648.353 -646.792)" fill="#ff9e23"/><path d="M652.578,650.831a.2.2,0,0,1,.181-.2h.019a.2.2,0,0,1,.2.2v5.712a.2.2,0,0,1-.2.2h-.019a.2.2,0,0,1-.181-.2Z" transform="translate(-651.932 -650.046)" fill="#ff9e23"/><path d="M656.8,654.673a.2.2,0,0,1,.184-.2h.019a.2.2,0,0,1,.2.2v5.71a.2.2,0,0,1-.2.2h-.019a.2.2,0,0,1-.184-.2Z" transform="translate(-655.511 -653.299)" fill="#ff9e23"/><path d="M661.03,658.517a.2.2,0,0,1,.188-.2h.019a.2.2,0,0,1,.2.2v5.707a.2.2,0,0,1-.2.2h-.019a.2.2,0,0,1-.188-.2Z" transform="translate(-659.09 -656.554)" fill="#ff9e23"/><path d="M665.256,662.359a.2.2,0,0,1,.191-.2h.019a.2.2,0,0,1,.2.2v5.7a.2.2,0,0,1-.2.2h-.019a.2.2,0,0,1-.191-.2Z" transform="translate(-662.67 -659.807)" fill="#ff9e23"/><path d="M669.482,666.2a.2.2,0,0,1,.195-.2h.019a.2.2,0,0,1,.2.2v5.7a.2.2,0,0,1-.2.2h-.019a.2.2,0,0,1-.195-.2Z" transform="translate(-666.249 -663.061)" fill="#ff9e23"/><path d="M673.707,670.045a.206.206,0,0,1,.2-.2h.02a.2.2,0,0,1,.2.2v5.7a.2.2,0,0,1-.2.2h-.02a.206.206,0,0,1-.2-.2Z" transform="translate(-669.828 -666.315)" fill="#ff9e23"/><path d="M677.933,673.888a.208.208,0,0,1,.2-.2h.02a.2.2,0,0,1,.2.2v5.7a.2.2,0,0,1-.2.2h-.02a.208.208,0,0,1-.2-.2Z" transform="translate(-673.407 -669.57)" fill="#ff9e23"/><rect width="0.431" height="6.106" rx="0.216" transform="translate(5.172 4.702)" fill="#ff9e23"/><rect width="0.433" height="6.106" rx="0.217" transform="translate(6.004 4.825)" fill="#ff9e23"/><rect width="0.436" height="6.106" rx="0.218" transform="translate(6.835 4.947)" fill="#ff9e23"/><path d="M.219,0h0A.219.219,0,0,1,.438.219V5.887a.219.219,0,0,1-.219.219h0A.219.219,0,0,1,0,5.887V.219A.219.219,0,0,1,.219,0Z" transform="translate(7.667 5.069)" fill="#ff9e23"/><rect width="0.441" height="6.106" rx="0.22" transform="translate(8.498 5.192)" fill="#ff9e23"/><rect width="0.443" height="6.106" rx="0.222" transform="translate(9.33 5.314)" fill="#ff9e23"/><rect width="0.446" height="6.106" rx="0.223" transform="translate(10.161 5.437)" fill="#ff9e23"/><path d="M.224,0h0A.224.224,0,0,1,.448.224V5.882a.224.224,0,0,1-.224.224h0A.224.224,0,0,1,0,5.882V.224A.224.224,0,0,1,.224,0Z" transform="translate(10.992 5.559)" fill="#ff9e23"/><path d="M.225,0h0A.225.225,0,0,1,.451.225V5.881a.225.225,0,0,1-.225.225h0A.225.225,0,0,1,0,5.881V.225A.225.225,0,0,1,.225,0Z" transform="translate(11.824 5.682)" fill="#ff9e23"/><path d="M.224,0h0A.224.224,0,0,1,.448.224V5.882a.224.224,0,0,1-.224.224h0A.224.224,0,0,1,0,5.882V.224A.224.224,0,0,1,.224,0Z" transform="translate(12.67 5.555)" fill="#ff9e23"/><rect width="0.446" height="6.106" rx="0.223" transform="translate(13.516 5.429)" fill="#ff9e23"/><rect width="0.443" height="6.106" rx="0.222" transform="translate(14.362 5.302)" fill="#ff9e23"/><rect width="0.441" height="6.106" rx="0.22" transform="translate(15.208 5.176)" fill="#ff9e23"/><rect width="0.438" height="6.106" rx="0.219" transform="translate(16.055 5.049)" fill="#ff9e23"/><rect width="0.436" height="6.106" rx="0.218" transform="translate(16.901 4.923)" fill="#ff9e23"/><rect width="0.433" height="6.106" rx="0.217" transform="translate(17.747 4.796)" fill="#ff9e23"/><rect width="0.431" height="6.106" rx="0.215" transform="translate(18.593 4.669)" fill="#ff9e23"/><path d="M773.841,673.967a.208.208,0,0,1,.2-.2h.02a.2.2,0,0,1,.2.2v5.7a.2.2,0,0,1-.2.2h-.02a.208.208,0,0,1-.2-.2Z" transform="translate(-754.641 -669.636)" fill="#ff9e23"/><path d="M777.8,670.418a.206.206,0,0,1,.2-.2h.02a.2.2,0,0,1,.2.2v5.7a.2.2,0,0,1-.2.2H778a.206.206,0,0,1-.2-.2Z" transform="translate(-757.999 -666.631)" fill="#ff9e23"/><path d="M781.769,666.869a.2.2,0,0,1,.195-.2h.02a.2.2,0,0,1,.2.2v5.7a.2.2,0,0,1-.2.2h-.02a.2.2,0,0,1-.195-.2Z" transform="translate(-761.356 -663.626)" fill="#ff9e23"/><path d="M785.734,663.32a.2.2,0,0,1,.191-.2h.019a.2.2,0,0,1,.2.2v5.7a.2.2,0,0,1-.2.2h-.019a.2.2,0,0,1-.191-.2Z" transform="translate(-764.715 -660.621)" fill="#ff9e23"/><path d="M789.7,659.771a.2.2,0,0,1,.188-.2h.019a.2.2,0,0,1,.2.2v5.707a.2.2,0,0,1-.2.2h-.019a.2.2,0,0,1-.188-.2Z" transform="translate(-768.072 -657.616)" fill="#ff9e23"/><path d="M793.662,656.22a.2.2,0,0,1,.184-.2h.019a.2.2,0,0,1,.2.2v5.71a.2.2,0,0,1-.2.2h-.019a.2.2,0,0,1-.184-.2Z" transform="translate(-771.43 -654.61)" fill="#ff9e23"/><path d="M797.627,652.672a.2.2,0,0,1,.181-.2h.019a.2.2,0,0,1,.2.2v5.712a.2.2,0,0,1-.2.2h-.019a.2.2,0,0,1-.181-.2Z" transform="translate(-774.788 -651.605)" fill="#ff9e23"/><path d="M801.787,655.032a.2.2,0,0,1-.2-.2v-5.714a.2.2,0,1,1,.392,0v5.714A.2.2,0,0,1,801.787,655.032Z" transform="translate(-778.146 -648.6)" fill="#ff9e23"/></g></g></g><ellipse cx="11.838" cy="6.834" rx="11.838" ry="6.834" transform="translate(0)" fill="#ff9e23"/><ellipse cx="11.268" cy="6.506" rx="11.268" ry="6.506" transform="translate(0.569 0.329)" fill="#ffb43f"/><path d="M681.749,625.787a14.588,14.588,0,0,1-13.2,0c-3.645-2.1-3.645-5.516,0-7.621a14.588,14.588,0,0,1,13.2,0C685.394,620.271,685.394,623.682,681.749,625.787Z" transform="translate(-663.311 -615.142)" fill="#e68913"/><path d="M681.8,621.368a14.588,14.588,0,0,0-13.2,0,3.7,3.7,0,0,0,0,7.131,14.588,14.588,0,0,0,13.2,0,3.7,3.7,0,0,0,0-7.131Z" transform="translate(-663.368 -617.854)" fill="#ff9e23"/><path d="M693.656,630.672l.649.029c.074.043.029.4.031.452a.192.192,0,0,1-.115.166l-.406.234a3.515,3.515,0,0,1,1.016.948c.3.481-.294,1.042-1.175,1.1a1.529,1.529,0,0,1-1.482-.594,1.386,1.386,0,0,0-.243-.388l-1.951,1.127q1.789,1.937-.331,3.161a6.1,6.1,0,0,1-5.34.1l-.387.224a.674.674,0,0,1-.609,0l-.491-.284a.214.214,0,0,1-.126-.176c0-.064-.035-.408.05-.457l.45.065a3.657,3.657,0,0,1-1.513-1.536,1.488,1.488,0,0,1-.042-.452c.041-.361.536-.463,1.2-.506a1.467,1.467,0,0,1,1.462.612,2.247,2.247,0,0,0,.65.868l2.268-1.31c-2.671-2.585,2.121-4.921,5.489-3.153l.392-.226A.614.614,0,0,1,693.656,630.672Zm-4.445,2.23,1.661-.959C689.69,631.61,688.682,632.261,689.211,632.9Zm-1.276,2.023-1.755,1.013C687.313,636.329,688.562,635.692,687.935,634.925Z" transform="translate(-676.713 -626.741)" fill="#e68913"/><path d="M693.657,628.271l.565.326a.169.169,0,0,1,0,.321l-.406.234a3.507,3.507,0,0,1,.993.993c.3.481-.271,1-1.151,1.053a1.529,1.529,0,0,1-1.482-.594,1.386,1.386,0,0,0-.243-.388l-1.951,1.127q1.789,1.937-.331,3.161a6.1,6.1,0,0,1-5.34.1l-.387.223a.674.674,0,0,1-.609,0l-.491-.284a.186.186,0,0,1,0-.352l.374-.216a3.658,3.658,0,0,1-1.513-1.536c-.211-.453.348-.906,1.156-.958a1.467,1.467,0,0,1,1.462.612,2.245,2.245,0,0,0,.65.868l2.268-1.31c-2.671-2.585,2.121-4.921,5.489-3.153l.392-.226A.614.614,0,0,1,693.657,628.271Zm-4.445,2.23,1.661-.959C689.691,629.209,688.683,629.86,689.212,630.5Zm-1.276,2.023-1.755,1.013C687.314,633.928,688.563,633.292,687.936,632.524Z" transform="translate(-676.714 -624.707)" fill="#ffb43f"/></g><g transform="translate(0.862 0)"><g transform="translate(0 3.037)"><path d="M672.878,613.693c-4.623,2.669-12.118,2.669-16.741,0-2.174-1.255-3.325-2.877-3.455-4.52-.008-.1-.012-3.234-.012-3.333-.007-1.755,1.148-.474,3.467-1.812,4.623-2.669,12.118-2.669,16.741,0,2.3,1.326,3.453.025,3.467,1.764,0,.1,0,3.231-.008,3.328C676.228,610.781,675.075,612.424,672.878,613.693Z" transform="translate(-652.67 -602.026)" fill="#ef8809"/><g clip-path="url(#j)"><g transform="translate(-0.168 3.03)"><path d="M651.769,627.936a.2.2,0,0,1-.2-.2v-5.714a.2.2,0,1,1,.392,0v5.714A.2.2,0,0,1,651.769,627.936Z" transform="translate(-651.573 -621.83)" fill="#ff9e23"/><path d="M655.8,625.869a.2.2,0,0,1,.181-.2H656a.2.2,0,0,1,.2.2v5.712a.2.2,0,0,1-.2.2h-.019a.2.2,0,0,1-.181-.2Z" transform="translate(-655.153 -625.084)" fill="#ff9e23"/><path d="M660.025,629.712a.2.2,0,0,1,.184-.2h.019a.2.2,0,0,1,.2.2v5.709a.2.2,0,0,1-.2.2h-.019a.2.2,0,0,1-.184-.2Z" transform="translate(-658.732 -628.338)" fill="#ff9e23"/><path d="M664.251,633.554a.2.2,0,0,1,.188-.2h.019a.2.2,0,0,1,.2.2v5.707a.2.2,0,0,1-.2.2h-.019a.2.2,0,0,1-.188-.2Z" transform="translate(-662.311 -631.592)" fill="#ff9e23"/><path d="M668.477,637.4a.2.2,0,0,1,.191-.2h.019a.2.2,0,0,1,.2.2v5.7a.2.2,0,0,1-.2.2h-.019a.2.2,0,0,1-.191-.2Z" transform="translate(-665.891 -634.846)" fill="#ff9e23"/><path d="M672.7,641.24a.2.2,0,0,1,.195-.2h.02a.2.2,0,0,1,.2.2v5.7a.2.2,0,0,1-.2.2h-.02a.2.2,0,0,1-.195-.2Z" transform="translate(-669.469 -638.099)" fill="#ff9e23"/><path d="M676.928,645.083a.207.207,0,0,1,.2-.2h.02a.2.2,0,0,1,.2.2v5.7a.2.2,0,0,1-.2.2h-.02a.206.206,0,0,1-.2-.2Z" transform="translate(-673.049 -641.353)" fill="#ff9e23"/><path d="M681.154,648.926a.208.208,0,0,1,.2-.2h.02a.2.2,0,0,1,.2.2v5.7a.2.2,0,0,1-.2.2h-.02a.208.208,0,0,1-.2-.2Z" transform="translate(-676.628 -644.608)" fill="#ff9e23"/><rect width="0.431" height="6.106" rx="0.216" transform="translate(5.172 4.702)" fill="#ff9e23"/><rect width="0.433" height="6.106" rx="0.217" transform="translate(6.004 4.825)" fill="#ff9e23"/><rect width="0.436" height="6.106" rx="0.218" transform="translate(6.835 4.947)" fill="#ff9e23"/><path d="M.219,0h0A.219.219,0,0,1,.438.219V5.887a.219.219,0,0,1-.219.219h0A.219.219,0,0,1,0,5.887V.219A.219.219,0,0,1,.219,0Z" transform="translate(7.667 5.07)" fill="#ff9e23"/><rect width="0.441" height="6.106" rx="0.22" transform="translate(8.498 5.192)" fill="#ff9e23"/><rect width="0.443" height="6.106" rx="0.222" transform="translate(9.33 5.314)" fill="#ff9e23"/><rect width="0.446" height="6.106" rx="0.223" transform="translate(10.161 5.437)" fill="#ff9e23"/><path d="M.224,0h0A.224.224,0,0,1,.448.224V5.882a.224.224,0,0,1-.224.224h0A.224.224,0,0,1,0,5.882V.224A.224.224,0,0,1,.224,0Z" transform="translate(10.993 5.559)" fill="#ff9e23"/><rect width="0.451" height="6.106" rx="0.225" transform="translate(11.824 5.682)" fill="#ff9e23"/><path d="M.224,0h0A.224.224,0,0,1,.448.224V5.882a.224.224,0,0,1-.224.224h0A.224.224,0,0,1,0,5.882V.224A.224.224,0,0,1,.224,0Z" transform="translate(12.67 5.555)" fill="#ff9e23"/><rect width="0.446" height="6.106" rx="0.223" transform="translate(13.516 5.429)" fill="#ff9e23"/><rect width="0.443" height="6.106" rx="0.222" transform="translate(14.362 5.302)" fill="#ff9e23"/><rect width="0.441" height="6.106" rx="0.22" transform="translate(15.209 5.176)" fill="#ff9e23"/><path d="M.219,0h0A.219.219,0,0,1,.438.219V5.887a.219.219,0,0,1-.219.219h0A.219.219,0,0,1,0,5.887V.219A.219.219,0,0,1,.219,0Z" transform="translate(16.055 5.049)" fill="#ff9e23"/><path d="M.218,0h0A.218.218,0,0,1,.436.218v5.67a.218.218,0,0,1-.218.218h0A.218.218,0,0,1,0,5.888V.218A.218.218,0,0,1,.218,0Z" transform="translate(16.901 4.923)" fill="#ff9e23"/><rect width="0.434" height="6.106" rx="0.217" transform="translate(17.747 4.796)" fill="#ff9e23"/><rect width="0.431" height="6.106" rx="0.216" transform="translate(18.593 4.669)" fill="#ff9e23"/><path d="M777.061,649.006a.208.208,0,0,1,.2-.2h.02a.2.2,0,0,1,.2.2v5.7a.2.2,0,0,1-.2.2h-.02a.208.208,0,0,1-.2-.2Z" transform="translate(-757.861 -644.675)" fill="#ff9e23"/><path d="M781.026,645.456a.206.206,0,0,1,.2-.2h.02a.2.2,0,0,1,.2.2v5.7a.2.2,0,0,1-.2.2h-.02a.206.206,0,0,1-.2-.2Z" transform="translate(-761.22 -641.669)" fill="#ff9e23"/><path d="M784.99,641.908a.2.2,0,0,1,.195-.2h.019a.2.2,0,0,1,.2.2v5.7a.2.2,0,0,1-.2.2h-.019a.2.2,0,0,1-.195-.2Z" transform="translate(-764.577 -638.665)" fill="#ff9e23"/><path d="M788.954,638.358a.2.2,0,0,1,.191-.2h.019a.2.2,0,0,1,.2.2v5.7a.2.2,0,0,1-.2.2h-.019a.2.2,0,0,1-.191-.2Z" transform="translate(-767.935 -635.659)" fill="#ff9e23"/><path d="M792.919,634.809a.2.2,0,0,1,.188-.2h.019a.2.2,0,0,1,.2.2v5.707a.2.2,0,0,1-.2.2h-.019a.2.2,0,0,1-.188-.2Z" transform="translate(-771.293 -632.654)" fill="#ff9e23"/><path d="M796.883,631.259a.2.2,0,0,1,.184-.2h.019a.2.2,0,0,1,.2.2v5.71a.2.2,0,0,1-.2.2h-.019a.2.2,0,0,1-.184-.2Z" transform="translate(-774.651 -629.649)" fill="#ff9e23"/><path d="M800.847,627.71a.2.2,0,0,1,.181-.2h.019a.2.2,0,0,1,.2.2v5.712a.2.2,0,0,1-.2.2h-.019a.2.2,0,0,1-.181-.2Z" transform="translate(-778.008 -626.643)" fill="#ff9e23"/><path d="M805.008,630.07a.2.2,0,0,1-.2-.2V624.16a.2.2,0,1,1,.392,0v5.714A.2.2,0,0,1,805.008,630.07Z" transform="translate(-781.366 -623.638)" fill="#ff9e23"/></g></g></g><ellipse cx="11.838" cy="6.834" rx="11.838" ry="6.834" fill="#ff9e23"/><ellipse cx="11.269" cy="6.506" rx="11.269" ry="6.506" transform="translate(0.569 0.329)" fill="#ffb43f"/><path d="M684.969,600.826a14.588,14.588,0,0,1-13.2,0c-3.645-2.1-3.645-5.516,0-7.621a14.588,14.588,0,0,1,13.2,0C688.614,595.309,688.614,598.721,684.969,600.826Z" transform="translate(-666.532 -590.181)" fill="#e68913"/><path d="M685.025,596.406a14.588,14.588,0,0,0-13.2,0,3.7,3.7,0,0,0,0,7.131,14.588,14.588,0,0,0,13.2,0,3.7,3.7,0,0,0,0-7.131Z" transform="translate(-666.588 -592.892)" fill="#ff9e23"/><path d="M696.878,605.711l.649.029c.074.043.029.4.031.452a.192.192,0,0,1-.115.166l-.406.234a3.514,3.514,0,0,1,1.016.948c.3.481-.294,1.043-1.175,1.1a1.529,1.529,0,0,1-1.482-.594,1.39,1.39,0,0,0-.244-.388l-1.951,1.127q1.789,1.937-.331,3.161a6.1,6.1,0,0,1-5.34.1l-.387.223a.674.674,0,0,1-.61,0l-.491-.284a.214.214,0,0,1-.126-.176c0-.064-.034-.408.05-.457l.45.065a3.658,3.658,0,0,1-1.513-1.536,1.481,1.481,0,0,1-.042-.452c.041-.361.536-.463,1.2-.506a1.467,1.467,0,0,1,1.462.612,2.246,2.246,0,0,0,.65.868l2.268-1.31c-2.671-2.585,2.121-4.921,5.489-3.153l.392-.226A.613.613,0,0,1,696.878,605.711Zm-4.445,2.23,1.661-.959C692.912,606.649,691.9,607.3,692.433,607.94Zm-1.276,2.023-1.755,1.013C690.535,611.367,691.784,610.731,691.157,609.963Z" transform="translate(-679.935 -601.779)" fill="#e68913"/><path d="M696.878,603.309l.565.326a.169.169,0,0,1,0,.321l-.406.234a3.5,3.5,0,0,1,.993.993c.3.481-.27,1-1.151,1.053a1.529,1.529,0,0,1-1.482-.594,1.387,1.387,0,0,0-.244-.388l-1.951,1.127q1.789,1.937-.331,3.161a6.1,6.1,0,0,1-5.34.1l-.387.223a.674.674,0,0,1-.61,0l-.491-.284a.186.186,0,0,1,0-.352l.374-.216a3.658,3.658,0,0,1-1.513-1.536c-.211-.453.348-.906,1.156-.958a1.467,1.467,0,0,1,1.462.612,2.247,2.247,0,0,0,.65.869l2.268-1.31c-2.671-2.585,2.121-4.921,5.489-3.153l.392-.226A.615.615,0,0,1,696.878,603.309Zm-4.445,2.23,1.661-.959C692.911,604.247,691.9,604.9,692.433,605.539Zm-1.276,2.023-1.755,1.013C690.535,608.966,691.783,608.33,691.157,607.562Z" transform="translate(-679.935 -599.745)" fill="#ffb43f"/></g></g></g></svg>