<svg xmlns="http://www.w3.org/2000/svg" xmlns:xlink="http://www.w3.org/1999/xlink" width="54.584" height="42.131" viewBox="0 0 54.584 42.131"><defs><clipPath id="a"><path d="M979.884,355.548c-4.638,2.678-12.159,2.678-16.8,0-2.181-1.259-3.337-2.886-3.467-4.535-.008-.1-.012-3.245-.012-3.345-.007-1.76,1.152-.475,3.479-1.818,4.638-2.678,12.159-2.678,16.8,0,2.3,1.331,3.464.025,3.479,1.77,0,.1,0,3.242-.009,3.339C983.245,352.626,982.089,354.275,979.884,355.548Z" transform="translate(-959.608 -343.842)" fill="#ef8809"/></clipPath><clipPath id="b"><path d="M975.858,330.587c-4.638,2.678-12.159,2.678-16.8,0-2.181-1.259-3.336-2.886-3.466-4.535-.008-.1-.012-3.245-.012-3.345-.007-1.76,1.152-.475,3.479-1.818,4.638-2.678,12.159-2.678,16.8,0,2.3,1.331,3.465.025,3.479,1.77,0,.1,0,3.242-.008,3.339C979.22,327.665,978.063,329.314,975.858,330.587Z" transform="translate(-955.582 -318.88)" fill="#ef8809"/></clipPath><clipPath id="c"><path d="M977.468,306.43c-4.638,2.678-12.159,2.678-16.8,0-2.181-1.259-3.336-2.886-3.466-4.535-.008-.1-.012-3.245-.012-3.345-.007-1.76,1.152-.475,3.479-1.818,4.638-2.678,12.159-2.678,16.8,0,2.3,1.331,3.464.025,3.479,1.769,0,.1,0,3.242-.008,3.339C980.83,303.508,979.673,305.157,977.468,306.43Z" transform="translate(-957.192 -294.724)" fill="#ef8809"/></clipPath><clipPath id="d"><path d="M978.274,282.274c-4.638,2.678-12.159,2.678-16.8,0-2.181-1.259-3.337-2.886-3.467-4.535-.008-.1-.012-3.245-.012-3.345-.007-1.76,1.152-.475,3.479-1.818,4.638-2.678,12.159-2.678,16.8,0,2.3,1.331,3.464.025,3.479,1.77,0,.1,0,3.242-.008,3.339C981.635,279.352,980.479,281,978.274,282.274Z" transform="translate(-957.998 -270.567)" fill="#ef8809"/></clipPath><clipPath id="e"><path d="M981.495,257.312c-4.638,2.678-12.159,2.678-16.8,0-2.181-1.259-3.337-2.886-3.467-4.535-.008-.1-.012-3.245-.012-3.344-.007-1.76,1.152-.475,3.479-1.818,4.638-2.678,12.159-2.678,16.8,0,2.3,1.331,3.464.025,3.479,1.769,0,.1,0,3.242-.008,3.339C984.856,254.39,983.7,256.039,981.495,257.312Z" transform="translate(-961.219 -245.606)" fill="#ef8809"/></clipPath><clipPath id="f"><path d="M1046.136,333.009c0,5.5-3.862,12.191-8.627,14.942-2.331,1.346-2.143,2.811-3.7,1.972-.059-.032-2.42-1.376-2.477-1.411-1.518-.919-2.454-2.834-2.454-5.542,0-5.5,3.862-12.191,8.627-14.942,2.334-1.348,4.452-1.5,6-.657.066.036,2.434,1.385,2.5,1.424C1047.515,329.72,1046.136,330.317,1046.136,333.009Z" transform="translate(-1028.883 -326.85)" fill="#ef8809"/></clipPath><clipPath id="g"><path d="M849.149,408.283c-4.638,2.678-12.159,2.678-16.8,0-2.181-1.259-3.336-2.886-3.467-4.535-.008-.1-.012-3.245-.012-3.345-.007-1.76,1.152-.475,3.479-1.818,4.638-2.678,12.159-2.678,16.8,0,2.3,1.331,3.464.026,3.479,1.77,0,.1,0,3.242-.008,3.339C852.51,405.361,851.354,407.01,849.149,408.283Z" transform="translate(-828.873 -396.576)" fill="#ef8809"/></clipPath><clipPath id="h"><path d="M845.123,383.321c-4.638,2.678-12.159,2.678-16.8,0-2.181-1.259-3.336-2.886-3.466-4.535-.008-.1-.012-3.245-.012-3.345-.007-1.76,1.152-.475,3.479-1.818,4.638-2.678,12.159-2.678,16.8,0,2.3,1.331,3.464.025,3.479,1.77,0,.1,0,3.242-.008,3.339C848.484,380.4,847.328,382.048,845.123,383.321Z" transform="translate(-824.847 -371.614)" fill="#ef8809"/></clipPath><clipPath id="i"><path d="M846.733,359.164c-4.638,2.678-12.159,2.678-16.8,0-2.181-1.259-3.336-2.886-3.466-4.535-.008-.1-.012-3.245-.012-3.345-.007-1.76,1.152-.475,3.479-1.818,4.638-2.678,12.159-2.678,16.8,0,2.3,1.331,3.464.025,3.479,1.77,0,.1,0,3.242-.008,3.339C850.094,356.243,848.938,357.891,846.733,359.164Z" transform="translate(-826.457 -347.458)" fill="#ef8809"/></clipPath><clipPath id="j"><path d="M847.538,335.008c-4.638,2.678-12.159,2.678-16.8,0-2.181-1.259-3.337-2.886-3.467-4.535-.008-.1-.012-3.245-.012-3.345-.007-1.76,1.152-.475,3.479-1.818,4.638-2.678,12.159-2.678,16.8,0,2.3,1.331,3.464.025,3.479,1.77,0,.1,0,3.242-.008,3.339C850.9,332.086,849.743,333.735,847.538,335.008Z" transform="translate(-827.262 -323.301)" fill="#ef8809"/></clipPath><clipPath id="k"><path d="M850.759,310.046c-4.638,2.678-12.159,2.678-16.8,0-2.181-1.259-3.336-2.886-3.467-4.535-.008-.1-.012-3.245-.012-3.345-.007-1.76,1.152-.475,3.479-1.818,4.638-2.678,12.159-2.678,16.8,0,2.3,1.331,3.464.026,3.479,1.77,0,.1,0,3.242-.008,3.339C854.12,307.125,852.964,308.774,850.759,310.046Z" transform="translate(-830.483 -298.34)" fill="#ef8809"/></clipPath><clipPath id="l"><path d="M848.343,286.158c-4.638,2.678-12.159,2.678-16.8,0-2.181-1.259-3.336-2.886-3.467-4.535-.008-.1-.012-3.245-.012-3.345-.007-1.76,1.152-.475,3.479-1.818,4.638-2.678,12.159-2.678,16.8,0,2.3,1.331,3.465.025,3.479,1.77,0,.1,0,3.242-.008,3.339C851.7,283.236,850.548,284.885,848.343,286.158Z" transform="translate(-828.067 -274.452)" fill="#ef8809"/></clipPath></defs><g transform="translate(-824.846 -225.757)"><path d="M851.933,400.228c-5.227,3.354-13.418,4.132-18.355,1.282s-4.7-7.88.526-11.233,13.467-3.761,18.4-.911c4.377,2.527,11.1,1.914,7.46,5.114-.3.26-7.063,5.076-7.41,5.324Q852.258,400.019,851.933,400.228Z" transform="translate(-4.382 -136.887)" fill="#ccc" opacity="0.5" style="mix-blend-mode:multiply;isolation:isolate"/><path d="M1045.758,441.28l-2.052-1.185a.169.169,0,0,1-.02-.3l14.753-7.282a1.038,1.038,0,0,1,.967.059l2.052,1.185a.169.169,0,0,1,.02.3l-14.753,7.282A1.039,1.039,0,0,1,1045.758,441.28Z" transform="translate(-185.174 -174.936)" fill="#ccc" opacity="0.3" style="mix-blend-mode:multiply;isolation:isolate"/><g transform="translate(844.916 225.757)"><g transform="translate(0.618 15.081)"><g transform="translate(0 3.047)"><path d="M979.884,355.548c-4.638,2.678-12.159,2.678-16.8,0-2.181-1.259-3.337-2.886-3.467-4.535-.008-.1-.012-3.245-.012-3.345-.007-1.76,1.152-.475,3.479-1.818,4.638-2.678,12.159-2.678,16.8,0,2.3,1.331,3.464.025,3.479,1.77,0,.1,0,3.242-.009,3.339C983.245,352.626,982.089,354.275,979.884,355.548Z" transform="translate(-959.608 -343.842)" fill="#ef8809"/><g clip-path="url(#a)"><g transform="translate(-0.168 3.04)"><path d="M958.709,369.774a.2.2,0,0,1-.2-.2v-5.734a.2.2,0,0,1,.393,0v5.734A.2.2,0,0,1,958.709,369.774Z" transform="translate(-958.512 -363.647)" fill="#ff9e23"/><path d="M962.738,367.686a.2.2,0,0,1,.181-.2h.019a.2.2,0,0,1,.2.2v5.731a.2.2,0,0,1-.2.2h-.019a.2.2,0,0,1-.181-.2Z" transform="translate(-962.089 -366.898)" fill="#ff9e23"/><path d="M966.964,371.529a.2.2,0,0,1,.185-.2h.019a.2.2,0,0,1,.2.2v5.729a.2.2,0,0,1-.2.2h-.019a.2.2,0,0,1-.185-.2Z" transform="translate(-965.667 -370.151)" fill="#ff9e23"/><path d="M971.189,375.372a.2.2,0,0,1,.188-.2h.019a.2.2,0,0,1,.2.2V381.1a.2.2,0,0,1-.2.2h-.019a.2.2,0,0,1-.188-.2Z" transform="translate(-969.243 -373.403)" fill="#ff9e23"/><path d="M975.415,379.214a.2.2,0,0,1,.192-.2h.02a.2.2,0,0,1,.2.2v5.724a.2.2,0,0,1-.2.2h-.02a.2.2,0,0,1-.192-.2Z" transform="translate(-972.82 -376.654)" fill="#ff9e23"/><path d="M979.641,383.058a.205.205,0,0,1,.2-.2h.02a.2.2,0,0,1,.2.2v5.722a.2.2,0,0,1-.2.2h-.02a.205.205,0,0,1-.2-.2Z" transform="translate(-976.397 -379.906)" fill="#ff9e23"/><path d="M983.867,386.9a.207.207,0,0,1,.2-.2h.02a.2.2,0,0,1,.2.2v5.719a.2.2,0,0,1-.2.2h-.02a.207.207,0,0,1-.2-.2Z" transform="translate(-979.975 -383.158)" fill="#ff9e23"/><path d="M988.093,390.743a.209.209,0,0,1,.2-.2h.02a.206.206,0,0,1,.2.2v5.717a.206.206,0,0,1-.2.2h-.02a.209.209,0,0,1-.2-.2Z" transform="translate(-983.552 -386.41)" fill="#ff9e23"/><rect width="0.432" height="6.127" rx="0.216" transform="translate(5.19 4.718)" fill="#ff9e23"/><rect width="0.435" height="6.127" rx="0.217" transform="translate(6.024 4.841)" fill="#ff9e23"/><path d="M.219,0h0A.219.219,0,0,1,.437.219V5.908a.219.219,0,0,1-.219.219h0A.219.219,0,0,1,0,5.908V.219A.219.219,0,0,1,.219,0Z" transform="translate(6.858 4.964)" fill="#ff9e23"/><rect width="0.44" height="6.127" rx="0.22" transform="translate(7.693 5.086)" fill="#ff9e23"/><rect width="0.442" height="6.127" rx="0.221" transform="translate(8.527 5.209)" fill="#ff9e23"/><rect width="0.445" height="6.127" rx="0.222" transform="translate(9.361 5.332)" fill="#ff9e23"/><rect width="0.447" height="6.127" rx="0.224" transform="translate(10.195 5.455)" fill="#ff9e23"/><path d="M.225,0h0A.225.225,0,0,1,.45.225V5.9a.225.225,0,0,1-.225.225h0A.225.225,0,0,1,0,5.9V.225A.225.225,0,0,1,.225,0Z" transform="translate(11.029 5.578)" fill="#ff9e23"/><rect width="0.452" height="6.127" rx="0.226" transform="translate(11.864 5.701)" fill="#ff9e23"/><path d="M.225,0h0A.225.225,0,0,1,.45.225V5.9a.225.225,0,0,1-.225.225h0A.225.225,0,0,1,0,5.9V.225A.225.225,0,0,1,.225,0Z" transform="translate(12.713 5.574)" fill="#ff9e23"/><rect width="0.447" height="6.127" rx="0.224" transform="translate(13.562 5.447)" fill="#ff9e23"/><rect width="0.445" height="6.127" rx="0.222" transform="translate(14.411 5.32)" fill="#ff9e23"/><rect width="0.442" height="6.127" rx="0.221" transform="translate(15.26 5.193)" fill="#ff9e23"/><path d="M.22,0h0A.22.22,0,0,1,.44.22V5.907a.22.22,0,0,1-.22.22h0A.22.22,0,0,1,0,5.907V.22A.22.22,0,0,1,.22,0Z" transform="translate(16.109 5.066)" fill="#ff9e23"/><path d="M.219,0h0A.219.219,0,0,1,.437.219V5.908a.219.219,0,0,1-.219.219h0A.219.219,0,0,1,0,5.908V.219A.219.219,0,0,1,.219,0Z" transform="translate(16.958 4.939)" fill="#ff9e23"/><rect width="0.435" height="6.127" rx="0.217" transform="translate(17.807 4.812)" fill="#ff9e23"/><rect width="0.433" height="6.127" rx="0.216" transform="translate(18.656 4.685)" fill="#ff9e23"/><path d="M1084,390.823a.209.209,0,0,1,.2-.2h.02a.206.206,0,0,1,.205.205v5.717a.205.205,0,0,1-.205.2h-.02a.209.209,0,0,1-.2-.2Z" transform="translate(-1064.736 -386.478)" fill="#ff9e23"/><path d="M1087.964,387.274a.207.207,0,0,1,.2-.2h.02a.2.2,0,0,1,.2.2v5.719a.2.2,0,0,1-.2.2h-.02a.207.207,0,0,1-.2-.2Z" transform="translate(-1068.091 -383.474)" fill="#ff9e23"/><path d="M1091.929,383.724a.205.205,0,0,1,.2-.2h.02a.2.2,0,0,1,.2.2v5.722a.2.2,0,0,1-.2.2h-.02a.205.205,0,0,1-.2-.2Z" transform="translate(-1071.448 -380.471)" fill="#ff9e23"/><path d="M1095.893,380.175a.2.2,0,0,1,.192-.2h.02a.2.2,0,0,1,.2.2V385.9a.2.2,0,0,1-.2.2h-.02a.2.2,0,0,1-.192-.2Z" transform="translate(-1074.803 -377.468)" fill="#ff9e23"/><path d="M1099.857,376.626a.2.2,0,0,1,.188-.2h.019a.2.2,0,0,1,.2.2v5.726a.2.2,0,0,1-.2.2h-.019a.2.2,0,0,1-.188-.2Z" transform="translate(-1078.158 -374.464)" fill="#ff9e23"/><path d="M1103.822,373.076a.2.2,0,0,1,.185-.2h.019a.2.2,0,0,1,.2.2V378.8a.2.2,0,0,1-.2.2h-.019a.2.2,0,0,1-.185-.2Z" transform="translate(-1081.515 -371.46)" fill="#ff9e23"/><path d="M1107.786,369.527a.2.2,0,0,1,.181-.2h.019a.2.2,0,0,1,.2.2v5.731a.2.2,0,0,1-.2.2h-.019a.2.2,0,0,1-.181-.2Z" transform="translate(-1084.87 -368.457)" fill="#ff9e23"/><path d="M1111.947,371.908a.2.2,0,0,1-.2-.2v-5.734a.2.2,0,0,1,.393,0v5.734A.2.2,0,0,1,1111.947,371.908Z" transform="translate(-1088.226 -365.453)" fill="#ff9e23"/></g></g></g><ellipse cx="11.877" cy="6.857" rx="11.877" ry="6.857" transform="translate(0)" fill="#ff9e23"/><ellipse cx="11.306" cy="6.528" rx="11.306" ry="6.528" transform="translate(0.571 0.33)" fill="#ffb43f"/><ellipse cx="9.365" cy="5.407" rx="9.365" ry="5.407" transform="translate(2.513 1.451)" fill="#e68913"/><path d="M992.018,338.228a14.638,14.638,0,0,0-13.244,0,3.708,3.708,0,0,0,0,7.155,14.637,14.637,0,0,0,13.244,0,3.708,3.708,0,0,0,0-7.155Z" transform="translate(-973.518 -334.702)" fill="#ff9e23"/><path d="M1003.856,347.528l.651.029c.074.043.029.4.031.453a.193.193,0,0,1-.115.167l-.407.235a3.525,3.525,0,0,1,1.02.951c.3.483-.3,1.046-1.178,1.1a1.534,1.534,0,0,1-1.487-.6,1.4,1.4,0,0,0-.244-.389l-1.958,1.13q1.8,1.944-.332,3.172a6.121,6.121,0,0,1-5.358.1l-.388.224a.676.676,0,0,1-.612,0l-.493-.284a.215.215,0,0,1-.127-.177c0-.064-.035-.41.05-.458l.452.065a3.671,3.671,0,0,1-1.518-1.541,1.492,1.492,0,0,1-.042-.453c.041-.362.538-.465,1.2-.508a1.471,1.471,0,0,1,1.467.614,2.25,2.25,0,0,0,.652.871l2.276-1.314c-2.68-2.593,2.129-4.938,5.507-3.164l.393-.227A.616.616,0,0,1,1003.856,347.528Zm-4.46,2.237,1.666-.962C999.877,348.47,998.866,349.123,999.4,349.766Zm-1.28,2.03-1.761,1.017C997.492,353.2,998.745,352.566,998.116,351.8Z" transform="translate(-986.857 -343.584)" fill="#e68913"/><path d="M1003.856,345.127l.567.327a.17.17,0,0,1,0,.322l-.407.235a3.516,3.516,0,0,1,1,1c.3.483-.271,1-1.155,1.057a1.533,1.533,0,0,1-1.487-.6,1.4,1.4,0,0,0-.245-.389l-1.958,1.13q1.795,1.944-.332,3.172a6.121,6.121,0,0,1-5.358.1l-.388.224a.676.676,0,0,1-.612,0l-.493-.284a.186.186,0,0,1,0-.353l.375-.216a3.672,3.672,0,0,1-1.518-1.541c-.211-.455.35-.909,1.16-.961a1.471,1.471,0,0,1,1.467.614,2.25,2.25,0,0,0,.652.871l2.276-1.314c-2.68-2.594,2.128-4.938,5.507-3.164l.393-.227A.616.616,0,0,1,1003.856,345.127Zm-4.46,2.237,1.667-.962C999.877,346.069,998.866,346.722,999.4,347.365Zm-1.28,2.03-1.761,1.017C997.492,350.8,998.745,350.165,998.116,349.394Z" transform="translate(-986.857 -341.551)" fill="#ffb43f"/></g><g transform="translate(0 11.249)"><g transform="translate(0 3.047)"><path d="M975.858,330.587c-4.638,2.678-12.159,2.678-16.8,0-2.181-1.259-3.336-2.886-3.466-4.535-.008-.1-.012-3.245-.012-3.345-.007-1.76,1.152-.475,3.479-1.818,4.638-2.678,12.159-2.678,16.8,0,2.3,1.331,3.465.025,3.479,1.77,0,.1,0,3.242-.008,3.339C979.22,327.665,978.063,329.314,975.858,330.587Z" transform="translate(-955.582 -318.88)" fill="#ef8809"/><g clip-path="url(#b)"><g transform="translate(-0.168 3.04)"><path d="M954.683,344.812a.2.2,0,0,1-.2-.2v-5.734a.2.2,0,1,1,.393,0v5.734A.2.2,0,0,1,954.683,344.812Z" transform="translate(-954.486 -338.685)" fill="#ff9e23"/><path d="M958.712,342.725a.2.2,0,0,1,.181-.2h.019a.2.2,0,0,1,.2.2v5.731a.2.2,0,0,1-.2.2h-.019a.2.2,0,0,1-.181-.2Z" transform="translate(-958.063 -341.937)" fill="#ff9e23"/><path d="M962.938,346.567a.2.2,0,0,1,.185-.2h.019a.2.2,0,0,1,.2.2V352.3a.2.2,0,0,1-.2.2h-.019a.2.2,0,0,1-.185-.2Z" transform="translate(-961.64 -345.189)" fill="#ff9e23"/><path d="M967.164,350.41a.2.2,0,0,1,.188-.2h.019a.2.2,0,0,1,.2.2v5.726a.2.2,0,0,1-.2.2h-.019a.2.2,0,0,1-.188-.2Z" transform="translate(-965.218 -348.441)" fill="#ff9e23"/><path d="M971.39,354.253a.2.2,0,0,1,.192-.2h.019a.2.2,0,0,1,.2.2v5.724a.2.2,0,0,1-.2.2h-.019a.2.2,0,0,1-.192-.2Z" transform="translate(-968.795 -351.693)" fill="#ff9e23"/><path d="M975.615,358.1a.206.206,0,0,1,.2-.2h.02a.2.2,0,0,1,.2.2v5.722a.2.2,0,0,1-.2.2h-.02a.205.205,0,0,1-.2-.2Z" transform="translate(-972.371 -354.944)" fill="#ff9e23"/><path d="M979.841,361.939a.207.207,0,0,1,.2-.2h.02a.2.2,0,0,1,.2.2v5.719a.2.2,0,0,1-.2.2h-.02a.207.207,0,0,1-.2-.2Z" transform="translate(-975.949 -358.196)" fill="#ff9e23"/><path d="M984.067,365.782a.209.209,0,0,1,.2-.2h.02a.206.206,0,0,1,.2.2V371.5a.206.206,0,0,1-.2.205h-.02a.209.209,0,0,1-.2-.2Z" transform="translate(-979.526 -361.449)" fill="#ff9e23"/><rect width="0.433" height="6.127" rx="0.216" transform="translate(5.19 4.718)" fill="#ff9e23"/><rect width="0.435" height="6.127" rx="0.217" transform="translate(6.024 4.841)" fill="#ff9e23"/><path d="M.219,0h0A.219.219,0,0,1,.437.219V5.908a.219.219,0,0,1-.219.219h0A.219.219,0,0,1,0,5.908V.219A.219.219,0,0,1,.219,0Z" transform="translate(6.858 4.964)" fill="#ff9e23"/><path d="M.22,0h0A.22.22,0,0,1,.44.22V5.907a.22.22,0,0,1-.22.22h0A.22.22,0,0,1,0,5.907V.22A.22.22,0,0,1,.22,0Z" transform="translate(7.693 5.087)" fill="#ff9e23"/><rect width="0.442" height="6.127" rx="0.221" transform="translate(8.527 5.209)" fill="#ff9e23"/><rect width="0.445" height="6.127" rx="0.222" transform="translate(9.361 5.332)" fill="#ff9e23"/><rect width="0.447" height="6.127" rx="0.224" transform="translate(10.195 5.455)" fill="#ff9e23"/><path d="M.225,0h0A.225.225,0,0,1,.45.225V5.9a.225.225,0,0,1-.225.225h0A.225.225,0,0,1,0,5.9V.225A.225.225,0,0,1,.225,0Z" transform="translate(11.029 5.578)" fill="#ff9e23"/><rect width="0.452" height="6.127" rx="0.226" transform="translate(11.864 5.701)" fill="#ff9e23"/><path d="M.225,0h0A.225.225,0,0,1,.45.225V5.9a.225.225,0,0,1-.225.225h0A.225.225,0,0,1,0,5.9V.225A.225.225,0,0,1,.225,0Z" transform="translate(12.713 5.574)" fill="#ff9e23"/><rect width="0.447" height="6.127" rx="0.224" transform="translate(13.562 5.447)" fill="#ff9e23"/><path d="M.222,0h0A.222.222,0,0,1,.445.222V5.9a.222.222,0,0,1-.222.222h0A.222.222,0,0,1,0,5.9V.222A.222.222,0,0,1,.222,0Z" transform="translate(14.411 5.32)" fill="#ff9e23"/><rect width="0.442" height="6.127" rx="0.221" transform="translate(15.26 5.193)" fill="#ff9e23"/><path d="M.22,0h0A.22.22,0,0,1,.44.22V5.907a.22.22,0,0,1-.22.22h0A.22.22,0,0,1,0,5.907V.22A.22.22,0,0,1,.22,0Z" transform="translate(16.109 5.066)" fill="#ff9e23"/><path d="M.219,0h0A.219.219,0,0,1,.437.219V5.908a.219.219,0,0,1-.219.219h0A.219.219,0,0,1,0,5.908V.219A.219.219,0,0,1,.219,0Z" transform="translate(16.958 4.939)" fill="#ff9e23"/><rect width="0.435" height="6.127" rx="0.217" transform="translate(17.807 4.812)" fill="#ff9e23"/><rect width="0.432" height="6.127" rx="0.216" transform="translate(18.656 4.685)" fill="#ff9e23"/><path d="M1079.974,365.861a.209.209,0,0,1,.2-.2h.02a.206.206,0,0,1,.2.205v5.717a.206.206,0,0,1-.2.205h-.02a.209.209,0,0,1-.2-.2Z" transform="translate(-1060.71 -361.516)" fill="#ff9e23"/><path d="M1083.939,362.312a.207.207,0,0,1,.2-.2h.02a.2.2,0,0,1,.2.2v5.719a.2.2,0,0,1-.2.2h-.02a.207.207,0,0,1-.2-.2Z" transform="translate(-1064.066 -358.512)" fill="#ff9e23"/><path d="M1087.9,358.763a.205.205,0,0,1,.2-.2h.019a.2.2,0,0,1,.2.2v5.722a.2.2,0,0,1-.2.2h-.019a.205.205,0,0,1-.2-.2Z" transform="translate(-1067.422 -355.509)" fill="#ff9e23"/><path d="M1091.867,355.213a.2.2,0,0,1,.192-.2h.02a.2.2,0,0,1,.2.2v5.724a.2.2,0,0,1-.2.2h-.02a.2.2,0,0,1-.192-.2Z" transform="translate(-1070.777 -352.506)" fill="#ff9e23"/><path d="M1095.832,351.664a.2.2,0,0,1,.188-.2h.019a.2.2,0,0,1,.2.2v5.726a.2.2,0,0,1-.2.2h-.019a.2.2,0,0,1-.188-.2Z" transform="translate(-1074.133 -349.502)" fill="#ff9e23"/><path d="M1099.8,348.115a.2.2,0,0,1,.185-.2H1100a.2.2,0,0,1,.2.2v5.729a.2.2,0,0,1-.2.2h-.019a.2.2,0,0,1-.185-.2Z" transform="translate(-1077.489 -346.499)" fill="#ff9e23"/><path d="M1103.76,344.566a.2.2,0,0,1,.181-.2h.019a.2.2,0,0,1,.2.2V350.3a.2.2,0,0,1-.2.2h-.019a.2.2,0,0,1-.181-.2Z" transform="translate(-1080.844 -343.496)" fill="#ff9e23"/><path d="M1107.922,346.946a.2.2,0,0,1-.2-.2v-5.734a.2.2,0,1,1,.393,0v5.734A.2.2,0,0,1,1107.922,346.946Z" transform="translate(-1084.201 -340.491)" fill="#ff9e23"/></g></g></g><ellipse cx="11.877" cy="6.857" rx="11.877" ry="6.857" fill="#ff9e23"/><path d="M978.6,312.323a17.671,17.671,0,0,1-15.99,0c-4.416-2.549-4.416-6.682,0-9.232a17.671,17.671,0,0,1,15.99,0C983.018,305.641,983.018,309.774,978.6,312.323Z" transform="translate(-958.731 -300.85)" fill="#ffb43f"/><ellipse cx="9.365" cy="5.407" rx="9.365" ry="5.407" transform="translate(2.513 1.451)" fill="#e68913"/><path d="M987.991,313.266a14.637,14.637,0,0,0-13.244,0,3.708,3.708,0,0,0,0,7.155,14.637,14.637,0,0,0,13.244,0,3.708,3.708,0,0,0,0-7.155Z" transform="translate(-969.492 -309.74)" fill="#ff9e23"/><path d="M999.83,322.566l.651.029c.074.043.028.4.031.453a.193.193,0,0,1-.115.167l-.407.235a3.525,3.525,0,0,1,1.02.951c.3.483-.3,1.046-1.178,1.1a1.534,1.534,0,0,1-1.487-.6,1.388,1.388,0,0,0-.244-.389l-1.958,1.13q1.795,1.944-.332,3.172a6.121,6.121,0,0,1-5.358.1l-.388.224a.676.676,0,0,1-.611,0l-.493-.284a.215.215,0,0,1-.127-.177c0-.064-.035-.409.05-.458l.452.065a3.671,3.671,0,0,1-1.518-1.541,1.488,1.488,0,0,1-.042-.453c.041-.362.538-.465,1.2-.508a1.472,1.472,0,0,1,1.467.614,2.254,2.254,0,0,0,.652.871l2.276-1.314c-2.68-2.593,2.128-4.938,5.507-3.164l.393-.227A.615.615,0,0,1,999.83,322.566Zm-4.46,2.237,1.666-.962C995.851,323.508,994.839,324.161,995.37,324.8Zm-1.28,2.03-1.761,1.017C993.466,328.242,994.719,327.6,994.09,326.834Z" transform="translate(-982.83 -318.622)" fill="#e68913"/><path d="M999.83,320.166l.567.327a.17.17,0,0,1,0,.322l-.407.235a3.519,3.519,0,0,1,1,1c.3.483-.271,1-1.155,1.057a1.534,1.534,0,0,1-1.487-.6,1.392,1.392,0,0,0-.244-.389l-1.958,1.13q1.8,1.944-.332,3.172a6.121,6.121,0,0,1-5.358.1l-.388.224a.676.676,0,0,1-.611,0l-.493-.284a.186.186,0,0,1,0-.353l.375-.216a3.671,3.671,0,0,1-1.518-1.541c-.211-.455.35-.909,1.16-.961a1.472,1.472,0,0,1,1.467.614,2.255,2.255,0,0,0,.652.871l2.276-1.314c-2.68-2.593,2.128-4.938,5.507-3.164l.393-.227A.616.616,0,0,1,999.83,320.166Zm-4.46,2.237,1.666-.962C995.851,321.107,994.839,321.76,995.37,322.4Zm-1.28,2.03-1.761,1.017C993.466,325.842,994.719,325.2,994.09,324.433Z" transform="translate(-982.83 -316.59)" fill="#ffb43f"/></g><g transform="translate(0.247 7.54)"><g transform="translate(0 3.047)"><path d="M977.468,306.43c-4.638,2.678-12.159,2.678-16.8,0-2.181-1.259-3.336-2.886-3.466-4.535-.008-.1-.012-3.245-.012-3.345-.007-1.76,1.152-.475,3.479-1.818,4.638-2.678,12.159-2.678,16.8,0,2.3,1.331,3.464.025,3.479,1.769,0,.1,0,3.242-.008,3.339C980.83,303.508,979.673,305.157,977.468,306.43Z" transform="translate(-957.192 -294.724)" fill="#ef8809"/><g clip-path="url(#c)"><g transform="translate(-0.168 3.04)"><path d="M956.293,320.656a.2.2,0,0,1-.2-.2v-5.734a.2.2,0,0,1,.393,0v5.734A.2.2,0,0,1,956.293,320.656Z" transform="translate(-956.097 -314.529)" fill="#ff9e23"/><path d="M960.322,318.568a.2.2,0,0,1,.181-.2h.019a.2.2,0,0,1,.2.2V324.3a.2.2,0,0,1-.2.2H960.5a.2.2,0,0,1-.181-.2Z" transform="translate(-959.673 -317.78)" fill="#ff9e23"/><path d="M964.548,322.411a.2.2,0,0,1,.185-.2h.019a.2.2,0,0,1,.2.2v5.729a.2.2,0,0,1-.2.2h-.019a.2.2,0,0,1-.185-.2Z" transform="translate(-963.251 -321.033)" fill="#ff9e23"/><path d="M968.774,326.254a.2.2,0,0,1,.188-.2h.019a.2.2,0,0,1,.2.2v5.727a.2.2,0,0,1-.2.2h-.019a.2.2,0,0,1-.188-.2Z" transform="translate(-966.828 -324.285)" fill="#ff9e23"/><path d="M973,330.1a.2.2,0,0,1,.192-.2h.019a.2.2,0,0,1,.2.2v5.724a.2.2,0,0,1-.2.2h-.019a.2.2,0,0,1-.192-.2Z" transform="translate(-970.405 -327.536)" fill="#ff9e23"/><path d="M977.226,333.94a.205.205,0,0,1,.2-.2h.02a.2.2,0,0,1,.2.2v5.721a.2.2,0,0,1-.2.2h-.02a.205.205,0,0,1-.2-.2Z" transform="translate(-973.982 -330.788)" fill="#ff9e23"/><path d="M981.451,337.783a.207.207,0,0,1,.2-.2h.02a.2.2,0,0,1,.2.2V343.5a.2.2,0,0,1-.2.2h-.02a.207.207,0,0,1-.2-.2Z" transform="translate(-977.559 -334.04)" fill="#ff9e23"/><path d="M985.677,341.625a.209.209,0,0,1,.2-.2h.02a.206.206,0,0,1,.2.2v5.717a.206.206,0,0,1-.2.2h-.02a.209.209,0,0,1-.2-.2Z" transform="translate(-981.136 -337.292)" fill="#ff9e23"/><rect width="0.432" height="6.127" rx="0.216" transform="translate(5.19 4.718)" fill="#ff9e23"/><rect width="0.435" height="6.127" rx="0.217" transform="translate(6.024 4.841)" fill="#ff9e23"/><rect width="0.437" height="6.127" rx="0.219" transform="translate(6.858 4.964)" fill="#ff9e23"/><path d="M.22,0h0A.22.22,0,0,1,.44.22V5.907a.22.22,0,0,1-.22.22h0A.22.22,0,0,1,0,5.907V.22A.22.22,0,0,1,.22,0Z" transform="translate(7.692 5.086)" fill="#ff9e23"/><rect width="0.442" height="6.127" rx="0.221" transform="translate(8.527 5.209)" fill="#ff9e23"/><rect width="0.445" height="6.127" rx="0.222" transform="translate(9.361 5.332)" fill="#ff9e23"/><path d="M.224,0h0A.224.224,0,0,1,.447.224V5.9a.224.224,0,0,1-.224.224h0A.224.224,0,0,1,0,5.9V.224A.224.224,0,0,1,.224,0Z" transform="translate(10.195 5.455)" fill="#ff9e23"/><rect width="0.45" height="6.127" rx="0.225" transform="translate(11.029 5.578)" fill="#ff9e23"/><path d="M.226,0h0A.226.226,0,0,1,.452.226V5.9a.226.226,0,0,1-.226.226h0A.226.226,0,0,1,0,5.9V.226A.226.226,0,0,1,.226,0Z" transform="translate(11.864 5.701)" fill="#ff9e23"/><path d="M.225,0h0A.225.225,0,0,1,.45.225V5.9a.225.225,0,0,1-.225.225h0A.225.225,0,0,1,0,5.9V.225A.225.225,0,0,1,.225,0Z" transform="translate(12.713 5.574)" fill="#ff9e23"/><rect width="0.447" height="6.127" rx="0.224" transform="translate(13.562 5.447)" fill="#ff9e23"/><path d="M.222,0h0A.222.222,0,0,1,.445.222V5.9a.222.222,0,0,1-.222.222h0A.222.222,0,0,1,0,5.9V.222A.222.222,0,0,1,.222,0Z" transform="translate(14.411 5.32)" fill="#ff9e23"/><rect width="0.442" height="6.127" rx="0.221" transform="translate(15.26 5.193)" fill="#ff9e23"/><path d="M.22,0h0A.22.22,0,0,1,.44.22V5.907a.22.22,0,0,1-.22.22h0A.22.22,0,0,1,0,5.907V.22A.22.22,0,0,1,.22,0Z" transform="translate(16.109 5.066)" fill="#ff9e23"/><rect width="0.437" height="6.127" rx="0.219" transform="translate(16.958 4.939)" fill="#ff9e23"/><rect width="0.435" height="6.127" rx="0.217" transform="translate(17.807 4.812)" fill="#ff9e23"/><rect width="0.433" height="6.127" rx="0.216" transform="translate(18.655 4.685)" fill="#ff9e23"/><path d="M1081.585,341.7a.209.209,0,0,1,.2-.2h.02a.206.206,0,0,1,.2.2v5.717a.205.205,0,0,1-.2.2h-.02a.209.209,0,0,1-.2-.2Z" transform="translate(-1062.321 -337.36)" fill="#ff9e23"/><path d="M1085.549,338.156a.207.207,0,0,1,.2-.2h.02a.2.2,0,0,1,.2.2v5.719a.2.2,0,0,1-.2.2h-.02a.207.207,0,0,1-.2-.2Z" transform="translate(-1065.676 -334.356)" fill="#ff9e23"/><path d="M1089.513,334.606a.205.205,0,0,1,.2-.2h.02a.2.2,0,0,1,.2.2v5.722a.2.2,0,0,1-.2.2h-.02a.205.205,0,0,1-.2-.2Z" transform="translate(-1069.032 -331.353)" fill="#ff9e23"/><path d="M1093.478,331.056a.2.2,0,0,1,.192-.2h.019a.2.2,0,0,1,.2.2v5.724a.2.2,0,0,1-.2.2h-.019a.2.2,0,0,1-.192-.2Z" transform="translate(-1072.388 -328.349)" fill="#ff9e23"/><path d="M1097.442,327.508a.2.2,0,0,1,.188-.2h.019a.2.2,0,0,1,.2.2v5.727a.2.2,0,0,1-.2.2h-.019a.2.2,0,0,1-.188-.2Z" transform="translate(-1075.744 -325.346)" fill="#ff9e23"/><path d="M1101.406,323.958a.2.2,0,0,1,.185-.2h.019a.2.2,0,0,1,.2.2v5.729a.2.2,0,0,1-.2.2h-.019a.2.2,0,0,1-.185-.2Z" transform="translate(-1079.099 -322.342)" fill="#ff9e23"/><path d="M1105.371,320.409a.2.2,0,0,1,.181-.2h.019a.2.2,0,0,1,.2.2v5.731a.2.2,0,0,1-.2.2h-.019a.2.2,0,0,1-.181-.2Z" transform="translate(-1082.455 -319.339)" fill="#ff9e23"/><path d="M1109.531,322.79a.2.2,0,0,1-.2-.2v-5.734a.2.2,0,0,1,.393,0v5.734A.2.2,0,0,1,1109.531,322.79Z" transform="translate(-1085.811 -316.335)" fill="#ff9e23"/></g></g></g><path d="M977.468,286.582c-4.638,2.678-12.159,2.678-16.8,0s-4.639-7.02,0-9.7,12.159-2.678,16.8,0S982.107,283.9,977.468,286.582Z" transform="translate(-957.192 -274.875)" fill="#ff9e23"/><ellipse cx="11.306" cy="6.528" rx="11.306" ry="6.528" transform="translate(0.571 0.33)" fill="#ffb43f"/><path d="M989.546,293.555a14.637,14.637,0,0,1-13.244,0c-3.657-2.112-3.657-5.535,0-7.646a14.637,14.637,0,0,1,13.244,0C993.2,288.02,993.2,291.443,989.546,293.555Z" transform="translate(-971.046 -282.874)" fill="#e68913"/><path d="M989.6,289.109a14.637,14.637,0,0,0-13.244,0,3.708,3.708,0,0,0,0,7.155,14.637,14.637,0,0,0,13.244,0,3.708,3.708,0,0,0,0-7.155Z" transform="translate(-971.102 -285.584)" fill="#ff9e23"/><path d="M1001.441,298.41l.651.029c.075.043.029.4.031.453a.193.193,0,0,1-.115.167l-.407.235a3.527,3.527,0,0,1,1.02.951c.3.483-.3,1.046-1.179,1.1a1.534,1.534,0,0,1-1.487-.6,1.394,1.394,0,0,0-.244-.389l-1.958,1.13q1.8,1.944-.332,3.172a6.121,6.121,0,0,1-5.358.1l-.388.224a.675.675,0,0,1-.611,0l-.493-.284a.215.215,0,0,1-.127-.177c0-.064-.035-.41.05-.458l.452.065a3.669,3.669,0,0,1-1.518-1.541,1.493,1.493,0,0,1-.042-.453c.041-.362.538-.465,1.2-.508a1.471,1.471,0,0,1,1.467.614,2.254,2.254,0,0,0,.652.871l2.276-1.314c-2.68-2.593,2.129-4.938,5.507-3.164l.393-.227A.616.616,0,0,1,1001.441,298.41Zm-4.46,2.237,1.666-.962C997.461,299.352,996.45,300,996.981,300.647Zm-1.28,2.03-1.761,1.017C995.076,304.086,996.329,303.447,995.7,302.677Z" transform="translate(-984.441 -294.465)" fill="#e68913"/><path d="M1001.441,296.009l.567.327a.17.17,0,0,1,0,.322l-.407.235a3.516,3.516,0,0,1,1,1c.3.483-.271,1-1.155,1.057a1.534,1.534,0,0,1-1.487-.6,1.4,1.4,0,0,0-.244-.389l-1.958,1.13q1.8,1.944-.332,3.172a6.12,6.12,0,0,1-5.358.1l-.388.224a.675.675,0,0,1-.611,0l-.493-.284a.186.186,0,0,1,0-.353l.375-.216a3.67,3.67,0,0,1-1.518-1.541c-.211-.455.349-.909,1.16-.961a1.471,1.471,0,0,1,1.467.614,2.253,2.253,0,0,0,.652.871l2.276-1.314c-2.68-2.593,2.129-4.938,5.507-3.164l.393-.227A.616.616,0,0,1,1001.441,296.009Zm-4.46,2.237,1.666-.962C997.462,296.951,996.45,297.6,996.981,298.246Zm-1.28,2.03-1.761,1.017C995.077,301.685,996.33,301.046,995.7,300.276Z" transform="translate(-984.441 -292.433)" fill="#ffb43f"/></g><g transform="translate(0.371 3.832)"><g transform="translate(0 3.047)"><path d="M978.274,282.274c-4.638,2.678-12.159,2.678-16.8,0-2.181-1.259-3.337-2.886-3.467-4.535-.008-.1-.012-3.245-.012-3.345-.007-1.76,1.152-.475,3.479-1.818,4.638-2.678,12.159-2.678,16.8,0,2.3,1.331,3.464.025,3.479,1.77,0,.1,0,3.242-.008,3.339C981.635,279.352,980.479,281,978.274,282.274Z" transform="translate(-957.998 -270.567)" fill="#ef8809"/><g clip-path="url(#d)"><g transform="translate(-0.168 3.04)"><path d="M957.1,296.5a.2.2,0,0,1-.2-.2v-5.734a.2.2,0,1,1,.393,0V296.3A.2.2,0,0,1,957.1,296.5Z" transform="translate(-956.902 -290.372)" fill="#ff9e23"/><path d="M961.128,294.412a.2.2,0,0,1,.181-.2h.019a.2.2,0,0,1,.2.2v5.731a.2.2,0,0,1-.2.2h-.019a.2.2,0,0,1-.181-.2Z" transform="translate(-960.479 -293.624)" fill="#ff9e23"/><path d="M965.353,298.254a.2.2,0,0,1,.185-.2h.019a.2.2,0,0,1,.2.2v5.729a.2.2,0,0,1-.2.2h-.019a.2.2,0,0,1-.185-.2Z" transform="translate(-964.056 -296.876)" fill="#ff9e23"/><path d="M969.579,302.1a.2.2,0,0,1,.189-.2h.019a.2.2,0,0,1,.2.2v5.726a.2.2,0,0,1-.2.2h-.019a.2.2,0,0,1-.189-.2Z" transform="translate(-967.633 -300.128)" fill="#ff9e23"/><path d="M973.8,305.94a.2.2,0,0,1,.192-.2h.02a.2.2,0,0,1,.2.2v5.724a.2.2,0,0,1-.2.2H974a.2.2,0,0,1-.192-.2Z" transform="translate(-971.21 -303.38)" fill="#ff9e23"/><path d="M978.031,309.783a.205.205,0,0,1,.2-.2h.02a.2.2,0,0,1,.2.2V315.5a.2.2,0,0,1-.2.2h-.02a.205.205,0,0,1-.2-.2Z" transform="translate(-974.787 -306.631)" fill="#ff9e23"/><path d="M982.257,313.626a.207.207,0,0,1,.2-.2h.02a.2.2,0,0,1,.2.2v5.719a.2.2,0,0,1-.2.2h-.02a.207.207,0,0,1-.2-.2Z" transform="translate(-978.365 -309.883)" fill="#ff9e23"/><path d="M986.482,317.469a.209.209,0,0,1,.2-.2h.02a.206.206,0,0,1,.2.2v5.717a.206.206,0,0,1-.2.205h-.02a.209.209,0,0,1-.2-.2Z" transform="translate(-981.941 -313.136)" fill="#ff9e23"/><rect width="0.433" height="6.127" rx="0.216" transform="translate(5.19 4.718)" fill="#ff9e23"/><rect width="0.435" height="6.127" rx="0.217" transform="translate(6.024 4.841)" fill="#ff9e23"/><rect width="0.437" height="6.127" rx="0.219" transform="translate(6.858 4.964)" fill="#ff9e23"/><path d="M.22,0h0A.22.22,0,0,1,.44.22V5.907a.22.22,0,0,1-.22.22h0A.22.22,0,0,1,0,5.907V.22A.22.22,0,0,1,.22,0Z" transform="translate(7.692 5.087)" fill="#ff9e23"/><rect width="0.442" height="6.127" rx="0.221" transform="translate(8.527 5.209)" fill="#ff9e23"/><rect width="0.445" height="6.127" rx="0.222" transform="translate(9.361 5.332)" fill="#ff9e23"/><rect width="0.447" height="6.127" rx="0.224" transform="translate(10.195 5.455)" fill="#ff9e23"/><rect width="0.45" height="6.127" rx="0.225" transform="translate(11.029 5.578)" fill="#ff9e23"/><rect width="0.452" height="6.127" rx="0.226" transform="translate(11.864 5.701)" fill="#ff9e23"/><path d="M.225,0h0A.225.225,0,0,1,.45.225V5.9a.225.225,0,0,1-.225.225h0A.225.225,0,0,1,0,5.9V.225A.225.225,0,0,1,.225,0Z" transform="translate(12.713 5.574)" fill="#ff9e23"/><rect width="0.447" height="6.127" rx="0.224" transform="translate(13.562 5.447)" fill="#ff9e23"/><rect width="0.445" height="6.127" rx="0.222" transform="translate(14.411 5.32)" fill="#ff9e23"/><rect width="0.442" height="6.127" rx="0.221" transform="translate(15.26 5.193)" fill="#ff9e23"/><path d="M.22,0h0A.22.22,0,0,1,.44.22V5.907a.22.22,0,0,1-.22.22h0A.22.22,0,0,1,0,5.907V.22A.22.22,0,0,1,.22,0Z" transform="translate(16.109 5.066)" fill="#ff9e23"/><rect width="0.437" height="6.127" rx="0.219" transform="translate(16.958 4.939)" fill="#ff9e23"/><rect width="0.435" height="6.127" rx="0.217" transform="translate(17.807 4.812)" fill="#ff9e23"/><rect width="0.433" height="6.127" rx="0.216" transform="translate(18.656 4.685)" fill="#ff9e23"/><path d="M1082.39,317.549a.209.209,0,0,1,.2-.2h.02a.205.205,0,0,1,.2.2v5.717a.206.206,0,0,1-.2.205h-.02a.209.209,0,0,1-.2-.2Z" transform="translate(-1063.126 -313.203)" fill="#ff9e23"/><path d="M1086.354,314a.207.207,0,0,1,.2-.2h.02a.2.2,0,0,1,.2.2v5.719a.2.2,0,0,1-.2.2h-.02a.207.207,0,0,1-.2-.2Z" transform="translate(-1066.481 -310.199)" fill="#ff9e23"/><path d="M1090.318,310.45a.206.206,0,0,1,.2-.2h.02a.2.2,0,0,1,.2.2v5.722a.2.2,0,0,1-.2.2h-.02a.205.205,0,0,1-.2-.2Z" transform="translate(-1069.837 -307.196)" fill="#ff9e23"/><path d="M1094.283,306.9a.2.2,0,0,1,.192-.2h.02a.2.2,0,0,1,.2.2v5.724a.2.2,0,0,1-.2.2h-.02a.2.2,0,0,1-.192-.2Z" transform="translate(-1073.193 -304.193)" fill="#ff9e23"/><path d="M1098.247,303.351a.2.2,0,0,1,.189-.2h.019a.2.2,0,0,1,.2.2v5.726a.2.2,0,0,1-.2.2h-.019a.2.2,0,0,1-.189-.2Z" transform="translate(-1076.548 -301.189)" fill="#ff9e23"/><path d="M1102.211,299.8a.2.2,0,0,1,.185-.2h.019a.2.2,0,0,1,.2.2v5.729a.2.2,0,0,1-.2.2h-.019a.2.2,0,0,1-.185-.2Z" transform="translate(-1079.904 -298.185)" fill="#ff9e23"/><path d="M1106.176,296.253a.2.2,0,0,1,.181-.2h.019a.2.2,0,0,1,.2.2v5.731a.2.2,0,0,1-.2.2h-.019a.2.2,0,0,1-.181-.2Z" transform="translate(-1083.26 -295.183)" fill="#ff9e23"/><path d="M1110.337,298.633a.2.2,0,0,1-.2-.2V292.7a.2.2,0,1,1,.393,0v5.734A.2.2,0,0,1,1110.337,298.633Z" transform="translate(-1086.616 -292.178)" fill="#ff9e23"/></g></g></g><ellipse cx="11.877" cy="6.857" rx="11.877" ry="6.857" transform="translate(0)" fill="#ff9e23"/><ellipse cx="11.306" cy="6.528" rx="11.306" ry="6.528" transform="translate(0.571 0.33)" fill="#ffb43f"/><path d="M990.351,269.4a14.637,14.637,0,0,1-13.244,0c-3.657-2.111-3.657-5.535,0-7.646a14.638,14.638,0,0,1,13.244,0C994.008,263.864,994.008,267.287,990.351,269.4Z" transform="translate(-971.852 -258.718)" fill="#e68913"/><path d="M990.408,264.953a14.637,14.637,0,0,0-13.244,0,3.708,3.708,0,0,0,0,7.155,14.637,14.637,0,0,0,13.244,0,3.708,3.708,0,0,0,0-7.155Z" transform="translate(-971.908 -261.427)" fill="#ff9e23"/><path d="M1002.246,274.253l.651.029c.074.043.029.4.031.453a.193.193,0,0,1-.115.167l-.407.235a3.525,3.525,0,0,1,1.02.951c.3.483-.3,1.046-1.178,1.1a1.534,1.534,0,0,1-1.487-.6,1.393,1.393,0,0,0-.244-.389l-1.958,1.13q1.8,1.944-.332,3.172a6.121,6.121,0,0,1-5.358.1l-.388.224a.676.676,0,0,1-.611,0l-.493-.284a.215.215,0,0,1-.127-.177c0-.064-.035-.41.05-.458l.452.065a3.669,3.669,0,0,1-1.518-1.541,1.488,1.488,0,0,1-.042-.453c.041-.362.538-.465,1.2-.508a1.471,1.471,0,0,1,1.467.614,2.255,2.255,0,0,0,.652.871l2.276-1.314c-2.68-2.594,2.129-4.938,5.507-3.164l.394-.227A.616.616,0,0,1,1002.246,274.253Zm-4.46,2.237,1.666-.962C998.267,275.195,997.255,275.848,997.786,276.491Zm-1.28,2.03-1.761,1.017C995.882,279.929,997.135,279.291,996.506,278.521Z" transform="translate(-985.246 -270.309)" fill="#e68913"/><path d="M1002.246,271.853l.567.327a.17.17,0,0,1,0,.322l-.407.235a3.519,3.519,0,0,1,1,1c.3.483-.271,1-1.155,1.057a1.534,1.534,0,0,1-1.486-.6,1.393,1.393,0,0,0-.244-.389l-1.958,1.13q1.8,1.944-.332,3.172a6.122,6.122,0,0,1-5.358.1l-.388.224a.676.676,0,0,1-.611,0l-.493-.284a.186.186,0,0,1,0-.353l.375-.216a3.67,3.67,0,0,1-1.518-1.541c-.211-.455.349-.909,1.16-.961a1.472,1.472,0,0,1,1.467.614,2.254,2.254,0,0,0,.652.871l2.276-1.314c-2.68-2.594,2.129-4.938,5.507-3.164l.393-.227A.616.616,0,0,1,1002.246,271.853Zm-4.46,2.237,1.666-.962C998.267,272.794,997.255,273.447,997.786,274.09Zm-1.28,2.03-1.761,1.017C995.882,277.529,997.135,276.89,996.506,276.12Z" transform="translate(-985.246 -268.277)" fill="#ffb43f"/></g><g transform="translate(0.865 0)"><g transform="translate(0 3.047)"><path d="M981.495,257.312c-4.638,2.678-12.159,2.678-16.8,0-2.181-1.259-3.337-2.886-3.467-4.535-.008-.1-.012-3.245-.012-3.344-.007-1.76,1.152-.475,3.479-1.818,4.638-2.678,12.159-2.678,16.8,0,2.3,1.331,3.464.025,3.479,1.769,0,.1,0,3.242-.008,3.339C984.856,254.39,983.7,256.039,981.495,257.312Z" transform="translate(-961.219 -245.606)" fill="#ef8809"/><g clip-path="url(#e)"><g transform="translate(-0.168 3.04)"><path d="M960.319,271.537a.2.2,0,0,1-.2-.2v-5.734a.2.2,0,1,1,.393,0v5.734A.2.2,0,0,1,960.319,271.537Z" transform="translate(-960.123 -265.41)" fill="#ff9e23"/><path d="M964.349,269.45a.2.2,0,0,1,.181-.2h.019a.2.2,0,0,1,.2.2v5.731a.2.2,0,0,1-.2.2h-.019a.2.2,0,0,1-.181-.2Z" transform="translate(-963.7 -268.662)" fill="#ff9e23"/><path d="M968.574,273.293a.2.2,0,0,1,.185-.2h.019a.2.2,0,0,1,.2.2v5.729a.2.2,0,0,1-.2.2h-.019a.2.2,0,0,1-.185-.2Z" transform="translate(-967.277 -271.914)" fill="#ff9e23"/><path d="M972.8,277.135a.2.2,0,0,1,.188-.2h.019a.2.2,0,0,1,.2.2v5.727a.2.2,0,0,1-.2.2h-.019a.2.2,0,0,1-.188-.2Z" transform="translate(-970.854 -275.166)" fill="#ff9e23"/><path d="M977.026,280.978a.2.2,0,0,1,.192-.2h.02a.2.2,0,0,1,.2.2V286.7a.2.2,0,0,1-.2.2h-.02a.2.2,0,0,1-.192-.2Z" transform="translate(-974.431 -278.418)" fill="#ff9e23"/><path d="M981.251,284.821a.205.205,0,0,1,.2-.2h.02a.2.2,0,0,1,.2.2v5.722a.2.2,0,0,1-.2.2h-.02a.205.205,0,0,1-.2-.2Z" transform="translate(-978.008 -281.67)" fill="#ff9e23"/><path d="M985.477,288.664a.207.207,0,0,1,.2-.2h.02a.2.2,0,0,1,.2.2v5.719a.2.2,0,0,1-.2.2h-.02a.207.207,0,0,1-.2-.2Z" transform="translate(-981.585 -284.921)" fill="#ff9e23"/><path d="M989.7,292.507a.209.209,0,0,1,.2-.2h.02a.205.205,0,0,1,.2.2v5.717a.205.205,0,0,1-.2.2h-.02a.209.209,0,0,1-.2-.2Z" transform="translate(-985.162 -288.174)" fill="#ff9e23"/><rect width="0.432" height="6.127" rx="0.216" transform="translate(5.19 4.718)" fill="#ff9e23"/><rect width="0.435" height="6.127" rx="0.217" transform="translate(6.024 4.841)" fill="#ff9e23"/><path d="M.219,0h0A.219.219,0,0,1,.437.219V5.908a.219.219,0,0,1-.219.219h0A.219.219,0,0,1,0,5.908V.219A.219.219,0,0,1,.219,0Z" transform="translate(6.858 4.964)" fill="#ff9e23"/><rect width="0.44" height="6.127" rx="0.22" transform="translate(7.692 5.087)" fill="#ff9e23"/><rect width="0.442" height="6.127" rx="0.221" transform="translate(8.527 5.209)" fill="#ff9e23"/><rect width="0.445" height="6.127" rx="0.222" transform="translate(9.361 5.332)" fill="#ff9e23"/><path d="M.224,0h0A.224.224,0,0,1,.447.224V5.9a.224.224,0,0,1-.224.224h0A.224.224,0,0,1,0,5.9V.224A.224.224,0,0,1,.224,0Z" transform="translate(10.195 5.455)" fill="#ff9e23"/><path d="M.225,0h0A.225.225,0,0,1,.45.225V5.9a.225.225,0,0,1-.225.225h0A.225.225,0,0,1,0,5.9V.225A.225.225,0,0,1,.225,0Z" transform="translate(11.029 5.578)" fill="#ff9e23"/><path d="M.226,0h0A.226.226,0,0,1,.452.226V5.9a.226.226,0,0,1-.226.226h0A.226.226,0,0,1,0,5.9V.226A.226.226,0,0,1,.226,0Z" transform="translate(11.864 5.701)" fill="#ff9e23"/><rect width="0.45" height="6.127" rx="0.225" transform="translate(12.713 5.574)" fill="#ff9e23"/><rect width="0.447" height="6.127" rx="0.224" transform="translate(13.562 5.447)" fill="#ff9e23"/><rect width="0.445" height="6.127" rx="0.222" transform="translate(14.411 5.32)" fill="#ff9e23"/><rect width="0.442" height="6.127" rx="0.221" transform="translate(15.26 5.193)" fill="#ff9e23"/><rect width="0.44" height="6.127" rx="0.22" transform="translate(16.109 5.066)" fill="#ff9e23"/><path d="M.219,0h0A.219.219,0,0,1,.437.219V5.908a.219.219,0,0,1-.219.219h0A.219.219,0,0,1,0,5.908V.219A.219.219,0,0,1,.219,0Z" transform="translate(16.958 4.939)" fill="#ff9e23"/><rect width="0.435" height="6.127" rx="0.217" transform="translate(17.807 4.812)" fill="#ff9e23"/><rect width="0.432" height="6.127" rx="0.216" transform="translate(18.656 4.685)" fill="#ff9e23"/><path d="M1085.61,292.587a.209.209,0,0,1,.2-.2h.02a.206.206,0,0,1,.205.2V298.3a.206.206,0,0,1-.205.2h-.02a.209.209,0,0,1-.2-.2Z" transform="translate(-1066.346 -288.241)" fill="#ff9e23"/><path d="M1089.575,289.037a.207.207,0,0,1,.2-.2h.02a.2.2,0,0,1,.2.2v5.719a.2.2,0,0,1-.2.2h-.02a.207.207,0,0,1-.2-.2Z" transform="translate(-1069.702 -285.237)" fill="#ff9e23"/><path d="M1093.539,285.488a.205.205,0,0,1,.2-.2h.02a.2.2,0,0,1,.2.2v5.722a.2.2,0,0,1-.2.2h-.02a.205.205,0,0,1-.2-.2Z" transform="translate(-1073.058 -282.235)" fill="#ff9e23"/><path d="M1097.5,281.938a.2.2,0,0,1,.192-.2h.02a.2.2,0,0,1,.2.2v5.724a.2.2,0,0,1-.2.2h-.02a.2.2,0,0,1-.192-.2Z" transform="translate(-1076.414 -279.231)" fill="#ff9e23"/><path d="M1101.468,278.389a.2.2,0,0,1,.188-.2h.019a.2.2,0,0,1,.2.2v5.726a.2.2,0,0,1-.2.2h-.019a.2.2,0,0,1-.188-.2Z" transform="translate(-1079.77 -276.227)" fill="#ff9e23"/><path d="M1105.432,274.84a.2.2,0,0,1,.185-.2h.019a.2.2,0,0,1,.2.2v5.729a.2.2,0,0,1-.2.2h-.019a.2.2,0,0,1-.185-.2Z" transform="translate(-1083.125 -273.224)" fill="#ff9e23"/><path d="M1109.4,271.291a.2.2,0,0,1,.182-.2h.019a.2.2,0,0,1,.2.2v5.731a.2.2,0,0,1-.2.2h-.019a.2.2,0,0,1-.182-.2Z" transform="translate(-1086.48 -270.221)" fill="#ff9e23"/><path d="M1113.558,273.672a.2.2,0,0,1-.2-.2v-5.734a.2.2,0,0,1,.393,0v5.734A.2.2,0,0,1,1113.558,273.672Z" transform="translate(-1089.837 -267.217)" fill="#ff9e23"/></g></g></g><ellipse cx="11.877" cy="6.857" rx="11.877" ry="6.857" fill="#ff9e23"/><path d="M984.239,239.048a17.671,17.671,0,0,1-15.99,0c-4.416-2.549-4.416-6.682,0-9.232a17.671,17.671,0,0,1,15.99,0C988.655,232.366,988.655,236.5,984.239,239.048Z" transform="translate(-964.367 -227.575)" fill="#ffb43f"/><ellipse cx="9.365" cy="5.407" rx="9.365" ry="5.407" transform="translate(2.513 1.451)" fill="#e68913"/><path d="M993.628,239.991a14.637,14.637,0,0,0-13.244,0,3.708,3.708,0,0,0,0,7.155,14.637,14.637,0,0,0,13.244,0,3.708,3.708,0,0,0,0-7.155Z" transform="translate(-975.128 -236.466)" fill="#ff9e23"/><path d="M1005.467,249.292l.651.029c.074.043.029.4.031.453a.192.192,0,0,1-.115.167l-.407.235a3.526,3.526,0,0,1,1.02.951c.3.483-.3,1.046-1.178,1.1a1.534,1.534,0,0,1-1.487-.6,1.392,1.392,0,0,0-.244-.389l-1.958,1.13q1.795,1.944-.332,3.172a6.121,6.121,0,0,1-5.358.1l-.388.224a.676.676,0,0,1-.612,0l-.493-.284a.215.215,0,0,1-.127-.176c0-.064-.035-.41.05-.458l.452.065a3.671,3.671,0,0,1-1.518-1.541,1.484,1.484,0,0,1-.042-.453c.041-.362.537-.465,1.2-.508a1.471,1.471,0,0,1,1.467.614,2.255,2.255,0,0,0,.652.871l2.276-1.314c-2.68-2.594,2.129-4.938,5.507-3.164l.393-.227A.615.615,0,0,1,1005.467,249.292Zm-4.46,2.237,1.666-.962C1001.488,250.233,1000.476,250.886,1001.007,251.529Zm-1.28,2.03-1.761,1.017C999.1,254.968,1000.356,254.329,999.727,253.559Z" transform="translate(-988.467 -245.347)" fill="#e68913"/><path d="M1005.467,246.891l.567.327a.17.17,0,0,1,0,.322l-.407.235a3.513,3.513,0,0,1,1,1c.3.483-.271,1-1.155,1.057a1.534,1.534,0,0,1-1.487-.6,1.392,1.392,0,0,0-.244-.389l-1.958,1.13q1.795,1.944-.332,3.172a6.12,6.12,0,0,1-5.358.1l-.388.224a.675.675,0,0,1-.612,0l-.493-.284a.186.186,0,0,1,0-.353l.375-.216a3.671,3.671,0,0,1-1.518-1.541c-.211-.455.35-.909,1.16-.961a1.472,1.472,0,0,1,1.467.614,2.253,2.253,0,0,0,.652.872l2.276-1.314c-2.68-2.593,2.128-4.938,5.507-3.164l.393-.227A.616.616,0,0,1,1005.467,246.891Zm-4.46,2.237,1.666-.962C1001.487,247.832,1000.476,248.485,1001.007,249.128Zm-1.28,2.03-1.761,1.017C999.1,252.567,1000.356,251.928,999.727,251.158Z" transform="translate(-988.467 -243.315)" fill="#ffb43f"/></g></g><path d="M966.19,278.051c-.107-1.668-1.259-3.318-3.465-4.592a16.035,16.035,0,0,0-6.3-1.9,5.866,5.866,0,0,1-.006.684c0,.306,0,.66,0,1.006-.632,1.221-.5,1.964-.492,4.665a13.318,13.318,0,0,0-.125,3.318,4.2,4.2,0,0,0-.252,1.419c.013,3.3-.147,3.9.621,5.22,0,.895.005,1.9.01,1.956.13,1.649,1.286,3.276,3.467,4.535a16.193,16.193,0,0,0,6.572,1.926V278.069Z" transform="translate(-110.636 -38.771)" fill="#ccc" opacity="0.3" style="mix-blend-mode:multiply;isolation:isolate"/><path d="M1045.42,332.536c.172,5.631-3.433,12.358-8.052,15.024s-8.5.264-8.674-5.367,3.433-12.358,8.052-15.025S1045.248,326.9,1045.42,332.536Z" transform="translate(-172.55 -84.922)" fill="#ccc" opacity="0.4" style="mix-blend-mode:multiply;isolation:isolate"/><path d="M834.916,323.273c4,4.491,9.889,4.368,11.949,4.327a16.671,16.671,0,0,0,8.406-2.678,6.379,6.379,0,0,0,2.8-4.656l1.071-2.143-.041-18.253a6.56,6.56,0,0,1-1.731-1.236c-.247-.453-2.925,22.951-2.925,22.951Z" transform="translate(-8.524 -61.683)" fill="#ccc" opacity="0.4" style="mix-blend-mode:multiply;isolation:isolate"/><g transform="translate(855.03 239.713)"><g transform="translate(1.139 1.563)"><path d="M1046.136,333.009c0,5.5-3.862,12.191-8.627,14.942-2.331,1.346-2.143,2.811-3.7,1.972-.059-.032-2.42-1.376-2.477-1.411-1.518-.919-2.454-2.834-2.454-5.542,0-5.5,3.862-12.191,8.627-14.942,2.334-1.348,4.452-1.5,6-.657.066.036,2.434,1.385,2.5,1.424C1047.515,329.72,1046.136,330.317,1046.136,333.009Z" transform="translate(-1028.883 -326.85)" fill="#ef8809"/><g clip-path="url(#f)"><g transform="translate(-1.496 -1.265)"><path d="M1034.506,468.341l-6.07-3.5.4-.231,6.07,3.5Z" transform="translate(-1027.008 -442.193)" fill="#ff9e23"/><path d="M1033.791,463.5l-6.07-3.5.4-.231,6.07,3.5Z" transform="translate(-1026.403 -438.099)" fill="#ff9e23"/><path d="M1033.075,458.667l-6.07-3.5.4-.231,6.07,3.5Z" transform="translate(-1025.797 -434.004)" fill="#ff9e23"/><path d="M1032.36,453.83l-6.07-3.5.4-.231,6.07,3.5Z" transform="translate(-1025.192 -429.91)" fill="#ff9e23"/><path d="M1031.645,448.993l-6.07-3.5.4-.231,6.07,3.5Z" transform="translate(-1024.587 -425.815)" fill="#ff9e23"/><path d="M1030.93,444.155l-6.07-3.5.4-.231,6.07,3.5Z" transform="translate(-1023.982 -421.72)" fill="#ff9e23"/><path d="M1030.215,439.318l-6.07-3.5.4-.231,6.07,3.5Z" transform="translate(-1023.377 -417.626)" fill="#ff9e23"/><path d="M1029.5,434.481l-6.07-3.5.4-.231,6.07,3.5Z" transform="translate(-1022.771 -413.531)" fill="#ff9e23"/><path d="M1028.785,429.644l-6.07-3.5.4-.231,6.07,3.5Z" transform="translate(-1022.166 -409.436)" fill="#ff9e23"/><path d="M1028.07,424.807l-6.07-3.5.4-.231,6.07,3.5Z" transform="translate(-1021.56 -405.342)" fill="#ff9e23"/><path d="M1027.355,419.969l-6.07-3.5.4-.231,6.07,3.5Z" transform="translate(-1020.955 -401.247)" fill="#ff9e23"/><path d="M1026.64,415.132l-6.07-3.5.4-.231,6.07,3.5Z" transform="translate(-1020.35 -397.152)" fill="#ff9e23"/><path d="M1025.925,410.3l-6.07-3.5.4-.231,6.07,3.5Z" transform="translate(-1019.745 -393.058)" fill="#ff9e23"/><path d="M1025.21,405.458l-6.07-3.5.4-.231,6.07,3.5Z" transform="translate(-1019.14 -388.963)" fill="#ff9e23"/><path d="M1027.081,401.273l-6.07-3.5.4-.231,6.07,3.5Z" transform="translate(-1020.724 -385.42)" fill="#ff9e23"/><path d="M1028.953,397.088l-6.07-3.5.4-.231,6.07,3.5Z" transform="translate(-1022.308 -381.878)" fill="#ff9e23"/><path d="M1030.825,392.9l-6.07-3.5.4-.231,6.07,3.5Z" transform="translate(-1023.893 -378.335)" fill="#ff9e23"/><path d="M1032.7,388.717l-6.07-3.5.4-.231,6.07,3.5Z" transform="translate(-1025.477 -374.792)" fill="#ff9e23"/><path d="M1034.569,384.532l-6.07-3.5.4-.231,6.07,3.5Z" transform="translate(-1027.062 -371.249)" fill="#ff9e23"/><path d="M1036.44,380.347l-6.07-3.5.4-.231,6.07,3.5Z" transform="translate(-1028.646 -367.707)" fill="#ff9e23"/><path d="M1038.312,376.161l-6.07-3.5.4-.231,6.07,3.5Z" transform="translate(-1030.23 -364.164)" fill="#ff9e23"/><path d="M1040.184,371.976l-6.07-3.5.4-.231,6.07,3.5Z" transform="translate(-1031.815 -360.621)" fill="#ff9e23"/><path d="M1042.056,367.791l-6.07-3.5.4-.231,6.07,3.5Z" transform="translate(-1033.399 -357.079)" fill="#ff9e23"/><path d="M1043.927,363.606l-6.07-3.5.4-.231,6.07,3.5Z" transform="translate(-1034.984 -353.536)" fill="#ff9e23"/><path d="M1045.8,359.421l-6.07-3.5.4-.231,6.07,3.5Z" transform="translate(-1036.568 -349.993)" fill="#ff9e23"/><path d="M1047.671,355.235l-6.07-3.5.4-.231,6.07,3.5Z" transform="translate(-1038.152 -346.45)" fill="#ff9e23"/><path d="M1049.543,351.05l-6.07-3.5.4-.231,6.07,3.5Z" transform="translate(-1039.737 -342.907)" fill="#ff9e23"/><path d="M1053.9,348.842l-6.07-3.5.4-.231,6.07,3.5Z" transform="translate(-1043.422 -341.038)" fill="#ff9e23"/><path d="M1058.25,346.633l-6.07-3.5.4-.231,6.07,3.5Z" transform="translate(-1047.108 -339.169)" fill="#ff9e23"/><path d="M1062.6,344.425l-6.07-3.5.4-.231,6.07,3.5Z" transform="translate(-1050.793 -337.3)" fill="#ff9e23"/><path d="M1066.957,342.217l-6.07-3.5.4-.231,6.07,3.5Z" transform="translate(-1054.478 -335.43)" fill="#ff9e23"/><path d="M1071.31,340.009l-6.07-3.5.4-.231,6.07,3.5Z" transform="translate(-1058.163 -333.561)" fill="#ff9e23"/><path d="M1075.664,337.8l-6.07-3.5.4-.231,6.07,3.5Z" transform="translate(-1061.848 -331.692)" fill="#ff9e23"/><path d="M1080.017,335.592l-6.07-3.5.4-.231,6.07,3.5Z" transform="translate(-1065.533 -329.822)" fill="#ff9e23"/><path d="M1084.371,333.384l-6.07-3.5.4-.231,6.07,3.5Z" transform="translate(-1069.218 -327.953)" fill="#ff9e23"/><path d="M1088.724,331.175l-6.07-3.5.4-.231,6.07,3.5Z" transform="translate(-1072.904 -326.084)" fill="#ff9e23"/><path d="M1093.077,328.967l-6.07-3.5.4-.231,6.07,3.5Z" transform="translate(-1076.589 -324.215)" fill="#ff9e23"/><path d="M1097.431,326.759l-6.07-3.5.4-.231,6.07,3.5Z" transform="translate(-1080.274 -322.345)" fill="#ff9e23"/><path d="M1101.784,324.551l-6.07-3.5.4-.231,6.07,3.5Z" transform="translate(-1083.959 -320.476)" fill="#ff9e23"/><path d="M1106.138,322.342l-6.07-3.5.4-.231,6.07,3.5Z" transform="translate(-1087.644 -318.607)" fill="#ff9e23"/></g></g></g><ellipse cx="12.2" cy="7.044" rx="12.2" ry="7.044" transform="translate(0 21.13) rotate(-59.999)" fill="#ff9e23"/><ellipse cx="11.892" cy="6.866" rx="11.892" ry="6.866" transform="translate(0.392 20.995) rotate(-59.998)" fill="#ffb43f"/><ellipse cx="9.619" cy="5.554" rx="9.619" ry="5.554" transform="matrix(0.5, -0.866, 0.866, 0.5, 2.707, 19.725)" fill="#e68913"/><path d="M1070.674,356.417c0-2.094-.711-3.584-1.867-4.324a4.951,4.951,0,0,0-4.557.607,15.034,15.034,0,0,0-6.8,11.781c0,2.093.711,3.584,1.867,4.324a4.952,4.952,0,0,0,4.557-.607A15.034,15.034,0,0,0,1070.674,356.417Z" transform="translate(-1051.924 -346.383)" fill="#ff9e23"/><path d="M1084.291,364.885l.582-.336c.158-.091.286-.017.286.165v.483a3.612,3.612,0,0,1,1.4-.374c.584-.02.751.755.347,1.57-.312.63-.865,1.066-1.293,1.016a1.43,1.43,0,0,0-.472.017v2.322q2.651-.6,2.651,1.924a6.286,6.286,0,0,1-2.665,4.816v.461a.694.694,0,0,1-.314.544l-.506.292c-.174.1-.314.019-.314-.181v-.445a3.771,3.771,0,0,1-2.151.559c-.513-.045-.629-.778-.259-1.525.315-.637.873-1.054,1.3-.99a2.314,2.314,0,0,0,1.11-.133v-2.7c-3.684,1.052-3.3-4.429.014-6.524v-.467A.633.633,0,0,1,1084.291,364.885Zm-.3,5.116v-1.976C1083.085,368.909,1083.146,370.144,1083.991,370Zm1.148,2.181v2.089C1086.071,373.462,1086.147,372.019,1085.139,372.183Z" transform="translate(-1072.169 -357.166)" fill="#e68913"/><path d="M1085.658,365.979l.582-.336c.158-.091.286-.017.286.165v.483a3.607,3.607,0,0,1,1.4-.374c.584-.02.751.755.347,1.57-.312.63-.865,1.066-1.293,1.016a1.427,1.427,0,0,0-.472.017v2.322q2.651-.6,2.651,1.924a6.287,6.287,0,0,1-2.665,4.817v.461a.694.694,0,0,1-.314.544l-.506.292c-.173.1-.314.019-.314-.181v-.445a3.768,3.768,0,0,1-2.15.559c-.513-.045-.629-.778-.259-1.525.315-.637.873-1.054,1.3-.99a2.314,2.314,0,0,0,1.11-.133v-2.7c-3.683,1.052-3.3-4.429.014-6.524v-.467A.633.633,0,0,1,1085.658,365.979Zm-.3,5.116v-1.976C1084.452,370,1084.513,371.238,1085.358,371.1Zm1.148,2.181v2.089C1087.439,374.556,1087.514,373.113,1086.506,373.277Z" transform="translate(-1073.326 -358.092)" fill="#ffb43f"/></g><g transform="translate(824.846 230.185)"><g transform="translate(0.618 18.748)"><g transform="translate(0 3.047)"><path d="M849.149,408.283c-4.638,2.678-12.159,2.678-16.8,0-2.181-1.259-3.336-2.886-3.467-4.535-.008-.1-.012-3.245-.012-3.345-.007-1.76,1.152-.475,3.479-1.818,4.638-2.678,12.159-2.678,16.8,0,2.3,1.331,3.464.026,3.479,1.77,0,.1,0,3.242-.008,3.339C852.51,405.361,851.354,407.01,849.149,408.283Z" transform="translate(-828.873 -396.576)" fill="#ef8809"/><g clip-path="url(#g)"><g transform="translate(-0.168 3.04)"><path d="M827.974,422.508a.2.2,0,0,1-.2-.2v-5.734a.2.2,0,1,1,.393,0v5.734A.2.2,0,0,1,827.974,422.508Z" transform="translate(-827.777 -416.381)" fill="#ff9e23"/><path d="M832,420.421a.2.2,0,0,1,.181-.2h.019a.2.2,0,0,1,.2.2v5.731a.2.2,0,0,1-.2.2h-.019a.2.2,0,0,1-.181-.2Z" transform="translate(-831.353 -419.633)" fill="#ff9e23"/><path d="M836.228,424.264a.2.2,0,0,1,.185-.2h.019a.2.2,0,0,1,.2.2v5.729a.2.2,0,0,1-.2.2h-.019a.2.2,0,0,1-.185-.2Z" transform="translate(-834.931 -422.885)" fill="#ff9e23"/><path d="M840.454,428.106a.2.2,0,0,1,.188-.2h.019a.2.2,0,0,1,.2.2v5.726a.2.2,0,0,1-.2.2h-.019a.2.2,0,0,1-.188-.2Z" transform="translate(-838.508 -426.137)" fill="#ff9e23"/><path d="M844.68,431.949a.2.2,0,0,1,.192-.2h.019a.2.2,0,0,1,.2.2v5.724a.2.2,0,0,1-.2.2h-.019a.2.2,0,0,1-.192-.2Z" transform="translate(-842.085 -429.389)" fill="#ff9e23"/><path d="M848.906,435.792a.205.205,0,0,1,.2-.2h.019a.2.2,0,0,1,.2.2v5.722a.2.2,0,0,1-.2.2H849.1a.205.205,0,0,1-.2-.2Z" transform="translate(-845.662 -432.64)" fill="#ff9e23"/><path d="M853.132,439.635a.207.207,0,0,1,.2-.2h.02a.2.2,0,0,1,.2.2v5.719a.2.2,0,0,1-.2.2h-.02a.207.207,0,0,1-.2-.2Z" transform="translate(-849.24 -435.892)" fill="#ff9e23"/><path d="M857.357,443.478a.209.209,0,0,1,.2-.2h.02a.206.206,0,0,1,.205.2v5.717a.206.206,0,0,1-.205.2h-.02a.209.209,0,0,1-.2-.2Z" transform="translate(-852.816 -439.145)" fill="#ff9e23"/><rect width="0.433" height="6.127" rx="0.216" transform="translate(5.19 4.718)" fill="#ff9e23"/><rect width="0.435" height="6.127" rx="0.217" transform="translate(6.024 4.841)" fill="#ff9e23"/><path d="M.219,0h0A.219.219,0,0,1,.437.219V5.908a.219.219,0,0,1-.219.219h0A.219.219,0,0,1,0,5.908V.219A.219.219,0,0,1,.219,0Z" transform="translate(6.858 4.964)" fill="#ff9e23"/><rect width="0.44" height="6.127" rx="0.22" transform="translate(7.692 5.087)" fill="#ff9e23"/><rect width="0.442" height="6.127" rx="0.221" transform="translate(8.527 5.209)" fill="#ff9e23"/><rect width="0.445" height="6.127" rx="0.222" transform="translate(9.361 5.332)" fill="#ff9e23"/><path d="M.224,0h0A.224.224,0,0,1,.447.224V5.9a.224.224,0,0,1-.224.224h0A.224.224,0,0,1,0,5.9V.224A.224.224,0,0,1,.224,0Z" transform="translate(10.195 5.455)" fill="#ff9e23"/><path d="M.225,0h0A.225.225,0,0,1,.45.225V5.9a.225.225,0,0,1-.225.225h0A.225.225,0,0,1,0,5.9V.225A.225.225,0,0,1,.225,0Z" transform="translate(11.029 5.578)" fill="#ff9e23"/><rect width="0.452" height="6.127" rx="0.226" transform="translate(11.864 5.701)" fill="#ff9e23"/><path d="M.225,0h0A.225.225,0,0,1,.45.225V5.9a.225.225,0,0,1-.225.225h0A.225.225,0,0,1,0,5.9V.225A.225.225,0,0,1,.225,0Z" transform="translate(12.713 5.574)" fill="#ff9e23"/><path d="M.224,0h0A.224.224,0,0,1,.447.224V5.9a.224.224,0,0,1-.224.224h0A.224.224,0,0,1,0,5.9V.224A.224.224,0,0,1,.224,0Z" transform="translate(13.562 5.447)" fill="#ff9e23"/><rect width="0.445" height="6.127" rx="0.222" transform="translate(14.411 5.32)" fill="#ff9e23"/><rect width="0.442" height="6.127" rx="0.221" transform="translate(15.26 5.193)" fill="#ff9e23"/><path d="M.22,0h0A.22.22,0,0,1,.44.22V5.907a.22.22,0,0,1-.22.22h0A.22.22,0,0,1,0,5.907V.22A.22.22,0,0,1,.22,0Z" transform="translate(16.109 5.066)" fill="#ff9e23"/><path d="M.219,0h0A.219.219,0,0,1,.437.219V5.908a.219.219,0,0,1-.219.219h0A.219.219,0,0,1,0,5.908V.219A.219.219,0,0,1,.219,0Z" transform="translate(16.958 4.939)" fill="#ff9e23"/><rect width="0.435" height="6.127" rx="0.217" transform="translate(17.807 4.812)" fill="#ff9e23"/><rect width="0.433" height="6.127" rx="0.216" transform="translate(18.656 4.685)" fill="#ff9e23"/><path d="M953.265,443.557a.208.208,0,0,1,.2-.2h.02a.206.206,0,0,1,.2.205v5.717a.206.206,0,0,1-.2.2h-.02a.209.209,0,0,1-.2-.2Z" transform="translate(-934.001 -439.212)" fill="#ff9e23"/><path d="M957.229,440.008a.207.207,0,0,1,.2-.2h.02a.2.2,0,0,1,.2.2v5.719a.2.2,0,0,1-.2.2h-.02a.207.207,0,0,1-.2-.2Z" transform="translate(-937.356 -436.208)" fill="#ff9e23"/><path d="M961.193,436.459a.206.206,0,0,1,.2-.2h.02a.2.2,0,0,1,.2.2v5.722a.2.2,0,0,1-.2.2h-.02a.205.205,0,0,1-.2-.2Z" transform="translate(-940.712 -433.205)" fill="#ff9e23"/><path d="M965.158,432.909a.2.2,0,0,1,.192-.2h.019a.2.2,0,0,1,.2.2v5.724a.2.2,0,0,1-.2.2h-.019a.2.2,0,0,1-.192-.2Z" transform="translate(-944.068 -430.202)" fill="#ff9e23"/><path d="M969.122,429.36a.2.2,0,0,1,.188-.2h.019a.2.2,0,0,1,.2.2v5.726a.2.2,0,0,1-.2.2h-.019a.2.2,0,0,1-.188-.2Z" transform="translate(-947.424 -427.198)" fill="#ff9e23"/><path d="M973.086,425.811a.2.2,0,0,1,.185-.2h.019a.2.2,0,0,1,.2.2v5.729a.2.2,0,0,1-.2.2h-.019a.2.2,0,0,1-.185-.2Z" transform="translate(-950.779 -424.195)" fill="#ff9e23"/><path d="M977.051,422.262a.2.2,0,0,1,.181-.2h.019a.2.2,0,0,1,.2.2v5.731a.2.2,0,0,1-.2.2h-.019a.2.2,0,0,1-.181-.2Z" transform="translate(-954.135 -421.192)" fill="#ff9e23"/><path d="M981.212,424.643a.2.2,0,0,1-.2-.2v-5.734a.2.2,0,0,1,.393,0v5.734A.2.2,0,0,1,981.212,424.643Z" transform="translate(-957.491 -418.188)" fill="#ff9e23"/></g></g></g><ellipse cx="11.877" cy="6.857" rx="11.877" ry="6.857" fill="#ff9e23"/><path d="M851.893,390.019a17.671,17.671,0,0,1-15.99,0c-4.416-2.549-4.416-6.682,0-9.232a17.672,17.672,0,0,1,15.99,0C856.309,383.337,856.309,387.47,851.893,390.019Z" transform="translate(-832.021 -378.546)" fill="#ffb43f"/><ellipse cx="9.365" cy="5.407" rx="9.365" ry="5.407" transform="translate(2.512 1.451)" fill="#e68913"/><path d="M861.282,390.962a14.637,14.637,0,0,0-13.244,0,3.708,3.708,0,0,0,0,7.155,14.637,14.637,0,0,0,13.244,0,3.708,3.708,0,0,0,0-7.155Z" transform="translate(-842.783 -387.436)" fill="#ff9e23"/><path d="M873.121,400.263l.651.029c.075.043.029.4.031.453a.193.193,0,0,1-.115.167l-.407.235a3.529,3.529,0,0,1,1.02.951c.3.483-.3,1.046-1.179,1.1a1.533,1.533,0,0,1-1.487-.6,1.39,1.39,0,0,0-.244-.389l-1.958,1.13q1.8,1.944-.332,3.172a6.121,6.121,0,0,1-5.358.1l-.388.224a.676.676,0,0,1-.611,0l-.493-.284a.215.215,0,0,1-.127-.177c0-.064-.035-.41.05-.458l.452.065a3.671,3.671,0,0,1-1.518-1.541,1.489,1.489,0,0,1-.042-.453c.041-.362.538-.465,1.2-.508a1.472,1.472,0,0,1,1.467.614,2.254,2.254,0,0,0,.652.871l2.276-1.314c-2.68-2.594,2.128-4.938,5.507-3.164l.393-.227A.616.616,0,0,1,873.121,400.263Zm-4.46,2.237,1.666-.962C869.142,401.2,868.13,401.857,868.661,402.5Zm-1.28,2.03-1.761,1.017C866.757,405.939,868.01,405.3,867.381,404.53Z" transform="translate(-856.121 -396.318)" fill="#e68913"/><path d="M873.121,397.861l.567.327a.17.17,0,0,1,0,.322l-.407.235a3.518,3.518,0,0,1,1,1c.3.483-.271,1-1.155,1.057a1.533,1.533,0,0,1-1.487-.6,1.391,1.391,0,0,0-.244-.389l-1.958,1.13q1.8,1.944-.332,3.172a6.121,6.121,0,0,1-5.358.1l-.388.224a.676.676,0,0,1-.611,0l-.493-.284a.186.186,0,0,1,0-.353l.375-.216a3.671,3.671,0,0,1-1.518-1.541c-.211-.455.35-.909,1.16-.961a1.472,1.472,0,0,1,1.467.614,2.253,2.253,0,0,0,.652.871l2.276-1.314c-2.68-2.593,2.128-4.938,5.507-3.164l.393-.227A.616.616,0,0,1,873.121,397.861Zm-4.46,2.237,1.666-.962C869.142,398.8,868.13,399.456,868.661,400.1Zm-1.28,2.03-1.761,1.017C866.757,403.537,868.01,402.9,867.381,402.129Z" transform="translate(-856.121 -394.285)" fill="#ffb43f"/></g><g transform="translate(0 14.916)"><g transform="translate(0 3.047)"><path d="M845.123,383.321c-4.638,2.678-12.159,2.678-16.8,0-2.181-1.259-3.336-2.886-3.466-4.535-.008-.1-.012-3.245-.012-3.345-.007-1.76,1.152-.475,3.479-1.818,4.638-2.678,12.159-2.678,16.8,0,2.3,1.331,3.464.025,3.479,1.77,0,.1,0,3.242-.008,3.339C848.484,380.4,847.328,382.048,845.123,383.321Z" transform="translate(-824.847 -371.614)" fill="#ef8809"/><g clip-path="url(#h)"><g transform="translate(-0.168 3.04)"><path d="M823.947,397.546a.2.2,0,0,1-.2-.2v-5.734a.2.2,0,1,1,.393,0v5.734A.2.2,0,0,1,823.947,397.546Z" transform="translate(-823.751 -391.419)" fill="#ff9e23"/><path d="M827.977,395.459a.2.2,0,0,1,.181-.2h.019a.2.2,0,0,1,.2.2v5.731a.2.2,0,0,1-.2.2h-.019a.2.2,0,0,1-.181-.2Z" transform="translate(-827.328 -394.671)" fill="#ff9e23"/><path d="M832.2,399.3a.2.2,0,0,1,.185-.2h.019a.2.2,0,0,1,.2.2v5.729a.2.2,0,0,1-.2.2h-.019a.2.2,0,0,1-.185-.2Z" transform="translate(-830.905 -397.923)" fill="#ff9e23"/><path d="M836.428,403.144a.2.2,0,0,1,.189-.2h.019a.2.2,0,0,1,.2.2v5.726a.2.2,0,0,1-.2.2h-.019a.2.2,0,0,1-.189-.2Z" transform="translate(-834.482 -401.175)" fill="#ff9e23"/><path d="M840.654,406.987a.2.2,0,0,1,.192-.2h.02a.2.2,0,0,1,.2.2v5.724a.2.2,0,0,1-.2.2h-.02a.2.2,0,0,1-.192-.2Z" transform="translate(-838.059 -404.427)" fill="#ff9e23"/><path d="M844.88,410.83a.205.205,0,0,1,.2-.2h.02a.2.2,0,0,1,.2.2v5.722a.2.2,0,0,1-.2.2h-.02a.205.205,0,0,1-.2-.2Z" transform="translate(-841.636 -407.678)" fill="#ff9e23"/><path d="M849.1,414.673a.207.207,0,0,1,.2-.2h.02a.2.2,0,0,1,.2.2v5.719a.2.2,0,0,1-.2.2h-.02a.207.207,0,0,1-.2-.2Z" transform="translate(-845.213 -410.93)" fill="#ff9e23"/><path d="M853.331,418.515a.209.209,0,0,1,.2-.2h.02a.206.206,0,0,1,.2.205v5.717a.205.205,0,0,1-.2.2h-.02a.209.209,0,0,1-.2-.2Z" transform="translate(-848.79 -414.182)" fill="#ff9e23"/><rect width="0.432" height="6.127" rx="0.216" transform="translate(5.19 4.718)" fill="#ff9e23"/><rect width="0.435" height="6.127" rx="0.217" transform="translate(6.024 4.841)" fill="#ff9e23"/><rect width="0.437" height="6.127" rx="0.219" transform="translate(6.858 4.964)" fill="#ff9e23"/><rect width="0.44" height="6.127" rx="0.22" transform="translate(7.692 5.087)" fill="#ff9e23"/><rect width="0.442" height="6.127" rx="0.221" transform="translate(8.527 5.209)" fill="#ff9e23"/><rect width="0.445" height="6.127" rx="0.222" transform="translate(9.361 5.332)" fill="#ff9e23"/><path d="M.224,0h0A.224.224,0,0,1,.447.224V5.9a.224.224,0,0,1-.224.224h0A.224.224,0,0,1,0,5.9V.224A.224.224,0,0,1,.224,0Z" transform="translate(10.195 5.455)" fill="#ff9e23"/><rect width="0.45" height="6.127" rx="0.225" transform="translate(11.029 5.578)" fill="#ff9e23"/><rect width="0.452" height="6.127" rx="0.226" transform="translate(11.864 5.701)" fill="#ff9e23"/><path d="M.225,0h0A.225.225,0,0,1,.45.225V5.9a.225.225,0,0,1-.225.225h0A.225.225,0,0,1,0,5.9V.225A.225.225,0,0,1,.225,0Z" transform="translate(12.713 5.574)" fill="#ff9e23"/><rect width="0.447" height="6.127" rx="0.224" transform="translate(13.562 5.447)" fill="#ff9e23"/><rect width="0.445" height="6.127" rx="0.222" transform="translate(14.411 5.32)" fill="#ff9e23"/><rect width="0.442" height="6.127" rx="0.221" transform="translate(15.26 5.193)" fill="#ff9e23"/><rect width="0.44" height="6.127" rx="0.22" transform="translate(16.109 5.066)" fill="#ff9e23"/><rect width="0.437" height="6.127" rx="0.219" transform="translate(16.958 4.939)" fill="#ff9e23"/><rect width="0.435" height="6.127" rx="0.217" transform="translate(17.807 4.812)" fill="#ff9e23"/><rect width="0.432" height="6.127" rx="0.216" transform="translate(18.656 4.685)" fill="#ff9e23"/><path d="M949.239,418.6a.209.209,0,0,1,.2-.2h.02a.206.206,0,0,1,.2.2v5.717a.205.205,0,0,1-.2.2h-.02a.209.209,0,0,1-.2-.2Z" transform="translate(-929.975 -414.25)" fill="#ff9e23"/><path d="M953.2,415.047a.207.207,0,0,1,.2-.2h.02a.2.2,0,0,1,.2.2v5.719a.2.2,0,0,1-.2.2h-.02a.207.207,0,0,1-.2-.2Z" transform="translate(-933.33 -411.247)" fill="#ff9e23"/><path d="M957.167,411.5a.205.205,0,0,1,.2-.2h.02a.2.2,0,0,1,.2.2v5.722a.2.2,0,0,1-.2.2h-.02a.206.206,0,0,1-.2-.2Z" transform="translate(-936.686 -408.243)" fill="#ff9e23"/><path d="M961.132,407.948a.2.2,0,0,1,.192-.2h.019a.2.2,0,0,1,.2.2v5.724a.2.2,0,0,1-.2.2h-.019a.2.2,0,0,1-.192-.2Z" transform="translate(-940.042 -405.24)" fill="#ff9e23"/><path d="M965.1,404.4a.2.2,0,0,1,.188-.2h.019a.2.2,0,0,1,.2.2v5.726a.2.2,0,0,1-.2.2h-.019a.2.2,0,0,1-.188-.2Z" transform="translate(-943.398 -402.236)" fill="#ff9e23"/><path d="M969.06,400.849a.2.2,0,0,1,.185-.2h.019a.2.2,0,0,1,.2.2v5.729a.2.2,0,0,1-.2.2h-.019a.2.2,0,0,1-.185-.2Z" transform="translate(-946.753 -399.233)" fill="#ff9e23"/><path d="M973.024,397.3a.2.2,0,0,1,.181-.2h.019a.2.2,0,0,1,.2.2v5.731a.2.2,0,0,1-.2.2h-.019a.2.2,0,0,1-.181-.2Z" transform="translate(-950.108 -396.23)" fill="#ff9e23"/><path d="M977.185,399.681a.2.2,0,0,1-.2-.2V393.75a.2.2,0,0,1,.393,0v5.734A.2.2,0,0,1,977.185,399.681Z" transform="translate(-953.465 -393.226)" fill="#ff9e23"/></g></g></g><ellipse cx="11.877" cy="6.857" rx="11.877" ry="6.857" fill="#ff9e23"/><path d="M847.867,365.057a17.672,17.672,0,0,1-15.99,0c-4.416-2.549-4.416-6.682,0-9.232a17.671,17.671,0,0,1,15.99,0C852.283,358.375,852.283,362.508,847.867,365.057Z" transform="translate(-827.995 -353.584)" fill="#ffb43f"/><ellipse cx="9.365" cy="5.407" rx="9.365" ry="5.407" transform="translate(2.513 1.451)" fill="#e68913"/><path d="M857.256,366a14.637,14.637,0,0,0-13.244,0,3.708,3.708,0,0,0,0,7.155,14.637,14.637,0,0,0,13.244,0,3.708,3.708,0,0,0,0-7.155Z" transform="translate(-838.756 -362.475)" fill="#ff9e23"/><path d="M869.1,375.3l.651.029c.074.043.029.4.031.453a.193.193,0,0,1-.115.167l-.407.235a3.526,3.526,0,0,1,1.02.951c.3.483-.3,1.046-1.178,1.1a1.534,1.534,0,0,1-1.487-.6,1.386,1.386,0,0,0-.244-.389l-1.958,1.13q1.8,1.944-.332,3.172a6.121,6.121,0,0,1-5.358.1l-.388.224a.675.675,0,0,1-.612,0l-.493-.284a.215.215,0,0,1-.126-.176c0-.064-.035-.41.05-.458l.452.065a3.67,3.67,0,0,1-1.518-1.541,1.487,1.487,0,0,1-.042-.453c.041-.362.538-.465,1.2-.508a1.472,1.472,0,0,1,1.467.614,2.253,2.253,0,0,0,.652.871l2.276-1.314c-2.68-2.593,2.128-4.938,5.507-3.164l.393-.227A.616.616,0,0,1,869.1,375.3Zm-4.46,2.237,1.666-.962C865.116,376.242,864.1,376.9,864.635,377.538Zm-1.28,2.03-1.761,1.017C862.731,380.977,863.984,380.338,863.355,379.568Z" transform="translate(-852.095 -371.356)" fill="#e68913"/><path d="M869.095,372.9l.567.327a.17.17,0,0,1,0,.322l-.407.235a3.516,3.516,0,0,1,1,1c.3.483-.271,1-1.155,1.057a1.534,1.534,0,0,1-1.487-.6,1.386,1.386,0,0,0-.244-.389l-1.958,1.13q1.8,1.944-.332,3.172a6.121,6.121,0,0,1-5.358.1l-.388.224a.676.676,0,0,1-.612,0l-.493-.284a.186.186,0,0,1,0-.353l.375-.216a3.67,3.67,0,0,1-1.518-1.541c-.211-.455.35-.909,1.16-.961a1.472,1.472,0,0,1,1.467.614,2.253,2.253,0,0,0,.652.871l2.276-1.314c-2.68-2.593,2.128-4.938,5.507-3.164l.393-.227A.616.616,0,0,1,869.095,372.9Zm-4.46,2.237,1.666-.962C865.116,373.841,864.1,374.494,864.635,375.137Zm-1.28,2.03-1.761,1.017C862.731,378.576,863.984,377.937,863.355,377.167Z" transform="translate(-852.095 -369.324)" fill="#ffb43f"/></g><g transform="translate(0.247 11.207)"><g transform="translate(0 3.047)"><path d="M846.733,359.164c-4.638,2.678-12.159,2.678-16.8,0-2.181-1.259-3.336-2.886-3.466-4.535-.008-.1-.012-3.245-.012-3.345-.007-1.76,1.152-.475,3.479-1.818,4.638-2.678,12.159-2.678,16.8,0,2.3,1.331,3.464.025,3.479,1.77,0,.1,0,3.242-.008,3.339C850.094,356.243,848.938,357.891,846.733,359.164Z" transform="translate(-826.457 -347.458)" fill="#ef8809"/><g clip-path="url(#i)"><g transform="translate(-0.168 3.04)"><path d="M825.558,373.39a.2.2,0,0,1-.2-.2v-5.734a.2.2,0,0,1,.393,0v5.734A.2.2,0,0,1,825.558,373.39Z" transform="translate(-825.361 -367.263)" fill="#ff9e23"/><path d="M829.587,371.3a.2.2,0,0,1,.181-.2h.019a.2.2,0,0,1,.2.2v5.731a.2.2,0,0,1-.2.2h-.019a.2.2,0,0,1-.181-.2Z" transform="translate(-828.938 -370.515)" fill="#ff9e23"/><path d="M833.813,375.145a.2.2,0,0,1,.185-.2h.019a.2.2,0,0,1,.2.2v5.729a.2.2,0,0,1-.2.2H834a.2.2,0,0,1-.185-.2Z" transform="translate(-832.516 -373.767)" fill="#ff9e23"/><path d="M838.039,378.988a.2.2,0,0,1,.188-.2h.019a.2.2,0,0,1,.2.2v5.726a.2.2,0,0,1-.2.2h-.019a.2.2,0,0,1-.188-.2Z" transform="translate(-836.093 -377.019)" fill="#ff9e23"/><path d="M842.264,382.83a.2.2,0,0,1,.192-.2h.019a.2.2,0,0,1,.2.2v5.724a.2.2,0,0,1-.2.2h-.019a.2.2,0,0,1-.192-.2Z" transform="translate(-839.669 -380.27)" fill="#ff9e23"/><path d="M846.49,386.674a.205.205,0,0,1,.2-.2h.02a.2.2,0,0,1,.2.2V392.4a.2.2,0,0,1-.2.2h-.02a.205.205,0,0,1-.2-.2Z" transform="translate(-843.246 -383.522)" fill="#ff9e23"/><path d="M850.716,390.517a.207.207,0,0,1,.2-.2h.02a.2.2,0,0,1,.2.2v5.719a.2.2,0,0,1-.2.2h-.02a.207.207,0,0,1-.2-.2Z" transform="translate(-846.824 -386.774)" fill="#ff9e23"/><path d="M854.941,394.359a.209.209,0,0,1,.2-.2h.02a.206.206,0,0,1,.2.205v5.717a.206.206,0,0,1-.2.2h-.02a.209.209,0,0,1-.2-.2Z" transform="translate(-850.4 -390.026)" fill="#ff9e23"/><rect width="0.433" height="6.127" rx="0.216" transform="translate(5.19 4.718)" fill="#ff9e23"/><rect width="0.435" height="6.127" rx="0.217" transform="translate(6.024 4.841)" fill="#ff9e23"/><path d="M.219,0h0A.219.219,0,0,1,.437.219V5.908a.219.219,0,0,1-.219.219h0A.219.219,0,0,1,0,5.908V.219A.219.219,0,0,1,.219,0Z" transform="translate(6.858 4.964)" fill="#ff9e23"/><path d="M.22,0h0A.22.22,0,0,1,.44.22V5.907a.22.22,0,0,1-.22.22h0A.22.22,0,0,1,0,5.907V.22A.22.22,0,0,1,.22,0Z" transform="translate(7.692 5.087)" fill="#ff9e23"/><rect width="0.442" height="6.127" rx="0.221" transform="translate(8.527 5.209)" fill="#ff9e23"/><rect width="0.445" height="6.127" rx="0.222" transform="translate(9.361 5.332)" fill="#ff9e23"/><rect width="0.447" height="6.127" rx="0.224" transform="translate(10.195 5.455)" fill="#ff9e23"/><path d="M.225,0h0A.225.225,0,0,1,.45.225V5.9a.225.225,0,0,1-.225.225h0A.225.225,0,0,1,0,5.9V.225A.225.225,0,0,1,.225,0Z" transform="translate(11.029 5.578)" fill="#ff9e23"/><path d="M.226,0h0A.226.226,0,0,1,.452.226V5.9a.226.226,0,0,1-.226.226h0A.226.226,0,0,1,0,5.9V.226A.226.226,0,0,1,.226,0Z" transform="translate(11.864 5.701)" fill="#ff9e23"/><path d="M.225,0h0A.225.225,0,0,1,.45.225V5.9a.225.225,0,0,1-.225.225h0A.225.225,0,0,1,0,5.9V.225A.225.225,0,0,1,.225,0Z" transform="translate(12.713 5.574)" fill="#ff9e23"/><rect width="0.447" height="6.127" rx="0.224" transform="translate(13.562 5.447)" fill="#ff9e23"/><rect width="0.445" height="6.127" rx="0.222" transform="translate(14.411 5.32)" fill="#ff9e23"/><rect width="0.442" height="6.127" rx="0.221" transform="translate(15.26 5.193)" fill="#ff9e23"/><rect width="0.44" height="6.127" rx="0.22" transform="translate(16.109 5.066)" fill="#ff9e23"/><path d="M.219,0h0A.219.219,0,0,1,.437.219V5.908a.219.219,0,0,1-.219.219h0A.219.219,0,0,1,0,5.908V.219A.219.219,0,0,1,.219,0Z" transform="translate(16.958 4.939)" fill="#ff9e23"/><rect width="0.435" height="6.127" rx="0.217" transform="translate(17.807 4.812)" fill="#ff9e23"/><rect width="0.432" height="6.127" rx="0.216" transform="translate(18.656 4.685)" fill="#ff9e23"/><path d="M950.849,394.439a.209.209,0,0,1,.2-.2h.02a.206.206,0,0,1,.2.2v5.717a.206.206,0,0,1-.2.205h-.02a.209.209,0,0,1-.2-.2Z" transform="translate(-931.585 -390.094)" fill="#ff9e23"/><path d="M954.813,390.89a.207.207,0,0,1,.2-.2h.02a.2.2,0,0,1,.2.2v5.719a.2.2,0,0,1-.2.2h-.02a.207.207,0,0,1-.2-.2Z" transform="translate(-934.94 -387.09)" fill="#ff9e23"/><path d="M958.778,387.341a.205.205,0,0,1,.2-.2h.02a.2.2,0,0,1,.2.2v5.722a.2.2,0,0,1-.2.2h-.02a.205.205,0,0,1-.2-.2Z" transform="translate(-938.297 -384.087)" fill="#ff9e23"/><path d="M962.742,383.791a.2.2,0,0,1,.192-.2h.019a.2.2,0,0,1,.2.2v5.724a.2.2,0,0,1-.2.2h-.019a.2.2,0,0,1-.192-.2Z" transform="translate(-941.652 -381.084)" fill="#ff9e23"/><path d="M966.706,380.242a.2.2,0,0,1,.188-.2h.019a.2.2,0,0,1,.2.2v5.726a.2.2,0,0,1-.2.2h-.019a.2.2,0,0,1-.188-.2Z" transform="translate(-945.008 -378.08)" fill="#ff9e23"/><path d="M970.671,376.693a.2.2,0,0,1,.185-.2h.019a.2.2,0,0,1,.2.2v5.729a.2.2,0,0,1-.2.2h-.019a.2.2,0,0,1-.185-.2Z" transform="translate(-948.364 -375.077)" fill="#ff9e23"/><path d="M974.635,373.143a.2.2,0,0,1,.181-.2h.019a.2.2,0,0,1,.2.2v5.731a.2.2,0,0,1-.2.2h-.019a.2.2,0,0,1-.181-.2Z" transform="translate(-951.719 -372.073)" fill="#ff9e23"/><path d="M978.8,375.524a.2.2,0,0,1-.2-.2v-5.734a.2.2,0,1,1,.393,0v5.734A.2.2,0,0,1,978.8,375.524Z" transform="translate(-955.076 -369.069)" fill="#ff9e23"/></g></g></g><ellipse cx="11.877" cy="6.857" rx="11.877" ry="6.857" fill="#ff9e23"/><path d="M849.478,340.9a17.671,17.671,0,0,1-15.99,0c-4.416-2.549-4.416-6.682,0-9.232a17.671,17.671,0,0,1,15.99,0C853.893,334.218,853.893,338.351,849.478,340.9Z" transform="translate(-829.606 -329.427)" fill="#ffb43f"/><path d="M858.811,346.289a14.637,14.637,0,0,1-13.244,0c-3.657-2.112-3.657-5.535,0-7.647a14.637,14.637,0,0,1,13.244,0C862.468,340.754,862.468,344.178,858.811,346.289Z" transform="translate(-840.311 -335.608)" fill="#e68913"/><path d="M858.866,341.844a14.636,14.636,0,0,0-13.244,0,3.708,3.708,0,0,0,0,7.155,14.637,14.637,0,0,0,13.244,0,3.708,3.708,0,0,0,0-7.155Z" transform="translate(-840.367 -338.318)" fill="#ff9e23"/><path d="M870.705,351.144l.651.029c.074.043.029.4.031.453a.193.193,0,0,1-.115.167l-.407.235a3.525,3.525,0,0,1,1.02.951c.3.483-.295,1.046-1.178,1.1a1.534,1.534,0,0,1-1.487-.6,1.4,1.4,0,0,0-.244-.389l-1.958,1.13q1.8,1.944-.332,3.172a6.121,6.121,0,0,1-5.358.1l-.388.224a.676.676,0,0,1-.611,0l-.493-.284a.215.215,0,0,1-.127-.177c0-.064-.035-.41.05-.458l.452.066a3.672,3.672,0,0,1-1.518-1.541,1.486,1.486,0,0,1-.042-.453c.041-.362.538-.465,1.2-.508a1.471,1.471,0,0,1,1.467.614,2.252,2.252,0,0,0,.652.871l2.276-1.314c-2.68-2.593,2.128-4.938,5.507-3.164l.393-.227A.616.616,0,0,1,870.705,351.144Zm-4.46,2.237,1.666-.962C866.726,352.086,865.714,352.739,866.245,353.382Zm-1.28,2.03-1.761,1.017C864.341,356.82,865.594,356.182,864.965,355.411Z" transform="translate(-853.705 -347.2)" fill="#e68913"/><path d="M870.705,348.743l.567.327a.17.17,0,0,1,0,.322l-.407.235a3.517,3.517,0,0,1,1,1c.3.483-.271,1-1.155,1.057a1.534,1.534,0,0,1-1.487-.6,1.4,1.4,0,0,0-.244-.389l-1.958,1.13q1.8,1.944-.332,3.172a6.121,6.121,0,0,1-5.358.1l-.388.224a.676.676,0,0,1-.611,0l-.493-.284a.186.186,0,0,1,0-.353l.375-.216a3.672,3.672,0,0,1-1.518-1.541c-.211-.455.35-.909,1.16-.961a1.471,1.471,0,0,1,1.467.614,2.252,2.252,0,0,0,.652.871l2.276-1.314c-2.68-2.593,2.129-4.938,5.507-3.164l.393-.227A.616.616,0,0,1,870.705,348.743Zm-4.46,2.237,1.666-.962C866.726,349.685,865.714,350.338,866.245,350.981Zm-1.28,2.03-1.761,1.017C864.341,354.419,865.594,353.781,864.965,353.011Z" transform="translate(-853.705 -345.167)" fill="#ffb43f"/></g><g transform="translate(0.371 7.499)"><g transform="translate(0 3.047)"><path d="M847.538,335.008c-4.638,2.678-12.159,2.678-16.8,0-2.181-1.259-3.337-2.886-3.467-4.535-.008-.1-.012-3.245-.012-3.345-.007-1.76,1.152-.475,3.479-1.818,4.638-2.678,12.159-2.678,16.8,0,2.3,1.331,3.464.025,3.479,1.77,0,.1,0,3.242-.008,3.339C850.9,332.086,849.743,333.735,847.538,335.008Z" transform="translate(-827.262 -323.301)" fill="#ef8809"/><g clip-path="url(#j)"><g transform="translate(-0.168 3.04)"><path d="M826.363,349.233a.2.2,0,0,1-.2-.2V343.3a.2.2,0,1,1,.393,0v5.734A.2.2,0,0,1,826.363,349.233Z" transform="translate(-826.166 -343.106)" fill="#ff9e23"/><path d="M830.392,347.146a.2.2,0,0,1,.181-.2h.019a.2.2,0,0,1,.2.2v5.731a.2.2,0,0,1-.2.2h-.019a.2.2,0,0,1-.181-.2Z" transform="translate(-829.743 -346.358)" fill="#ff9e23"/><path d="M834.618,350.989a.2.2,0,0,1,.185-.2h.019a.2.2,0,0,1,.2.2v5.729a.2.2,0,0,1-.2.2H834.8a.2.2,0,0,1-.185-.2Z" transform="translate(-833.32 -349.61)" fill="#ff9e23"/><path d="M838.844,354.831a.2.2,0,0,1,.188-.2h.019a.2.2,0,0,1,.2.2v5.726a.2.2,0,0,1-.2.2h-.019a.2.2,0,0,1-.188-.2Z" transform="translate(-836.898 -352.862)" fill="#ff9e23"/><path d="M843.069,358.674a.2.2,0,0,1,.192-.2h.02a.2.2,0,0,1,.2.2V364.4a.2.2,0,0,1-.2.2h-.02a.2.2,0,0,1-.192-.2Z" transform="translate(-840.474 -356.114)" fill="#ff9e23"/><path d="M847.295,362.517a.205.205,0,0,1,.2-.2h.02a.2.2,0,0,1,.2.2v5.722a.2.2,0,0,1-.2.2h-.02a.206.206,0,0,1-.2-.2Z" transform="translate(-844.051 -359.366)" fill="#ff9e23"/><path d="M851.521,366.36a.207.207,0,0,1,.2-.2h.02a.2.2,0,0,1,.2.2v5.719a.2.2,0,0,1-.2.2h-.02a.207.207,0,0,1-.2-.2Z" transform="translate(-847.629 -362.617)" fill="#ff9e23"/><path d="M855.747,370.2a.209.209,0,0,1,.2-.2h.02a.206.206,0,0,1,.2.2v5.717a.206.206,0,0,1-.2.2h-.02a.209.209,0,0,1-.2-.2Z" transform="translate(-851.206 -365.87)" fill="#ff9e23"/><rect width="0.432" height="6.127" rx="0.216" transform="translate(5.19 4.718)" fill="#ff9e23"/><rect width="0.435" height="6.127" rx="0.217" transform="translate(6.024 4.841)" fill="#ff9e23"/><rect width="0.437" height="6.127" rx="0.219" transform="translate(6.858 4.964)" fill="#ff9e23"/><rect width="0.44" height="6.127" rx="0.22" transform="translate(7.692 5.087)" fill="#ff9e23"/><rect width="0.442" height="6.127" rx="0.221" transform="translate(8.527 5.209)" fill="#ff9e23"/><rect width="0.445" height="6.127" rx="0.222" transform="translate(9.361 5.332)" fill="#ff9e23"/><rect width="0.447" height="6.127" rx="0.224" transform="translate(10.195 5.455)" fill="#ff9e23"/><path d="M.225,0h0A.225.225,0,0,1,.45.225V5.9a.225.225,0,0,1-.225.225h0A.225.225,0,0,1,0,5.9V.225A.225.225,0,0,1,.225,0Z" transform="translate(11.029 5.578)" fill="#ff9e23"/><path d="M.226,0h0A.226.226,0,0,1,.452.226V5.9a.226.226,0,0,1-.226.226h0A.226.226,0,0,1,0,5.9V.226A.226.226,0,0,1,.226,0Z" transform="translate(11.864 5.701)" fill="#ff9e23"/><path d="M.225,0h0A.225.225,0,0,1,.45.225V5.9a.225.225,0,0,1-.225.225h0A.225.225,0,0,1,0,5.9V.225A.225.225,0,0,1,.225,0Z" transform="translate(12.713 5.574)" fill="#ff9e23"/><rect width="0.447" height="6.127" rx="0.224" transform="translate(13.562 5.447)" fill="#ff9e23"/><rect width="0.445" height="6.127" rx="0.222" transform="translate(14.411 5.32)" fill="#ff9e23"/><rect width="0.442" height="6.127" rx="0.221" transform="translate(15.26 5.193)" fill="#ff9e23"/><rect width="0.44" height="6.127" rx="0.22" transform="translate(16.109 5.066)" fill="#ff9e23"/><rect width="0.437" height="6.127" rx="0.219" transform="translate(16.958 4.939)" fill="#ff9e23"/><rect width="0.435" height="6.127" rx="0.217" transform="translate(17.807 4.812)" fill="#ff9e23"/><rect width="0.432" height="6.127" rx="0.216" transform="translate(18.656 4.685)" fill="#ff9e23"/><path d="M951.654,370.283a.209.209,0,0,1,.2-.2h.02a.206.206,0,0,1,.2.2V376a.206.206,0,0,1-.2.2h-.02a.209.209,0,0,1-.2-.2Z" transform="translate(-932.39 -365.937)" fill="#ff9e23"/><path d="M955.619,366.734a.207.207,0,0,1,.2-.2h.02a.2.2,0,0,1,.2.2v5.719a.2.2,0,0,1-.2.2h-.02a.207.207,0,0,1-.2-.2Z" transform="translate(-935.746 -362.934)" fill="#ff9e23"/><path d="M959.583,363.184a.205.205,0,0,1,.2-.2h.02a.2.2,0,0,1,.2.2v5.722a.2.2,0,0,1-.2.2h-.02a.205.205,0,0,1-.2-.2Z" transform="translate(-939.102 -359.93)" fill="#ff9e23"/><path d="M963.547,359.635a.2.2,0,0,1,.192-.2h.02a.2.2,0,0,1,.2.2v5.724a.2.2,0,0,1-.2.2h-.02a.2.2,0,0,1-.192-.2Z" transform="translate(-942.457 -356.927)" fill="#ff9e23"/><path d="M967.512,356.085a.2.2,0,0,1,.188-.2h.019a.2.2,0,0,1,.2.2v5.726a.2.2,0,0,1-.2.2H967.7a.2.2,0,0,1-.188-.2Z" transform="translate(-945.813 -353.923)" fill="#ff9e23"/><path d="M971.476,352.536a.2.2,0,0,1,.185-.2h.019a.2.2,0,0,1,.2.2v5.729a.2.2,0,0,1-.2.2h-.019a.2.2,0,0,1-.185-.2Z" transform="translate(-949.169 -350.92)" fill="#ff9e23"/><path d="M975.44,348.987a.2.2,0,0,1,.182-.2h.019a.2.2,0,0,1,.2.2v5.731a.2.2,0,0,1-.2.2h-.019a.2.2,0,0,1-.182-.2Z" transform="translate(-952.524 -347.917)" fill="#ff9e23"/><path d="M979.6,351.368a.2.2,0,0,1-.2-.2v-5.734a.2.2,0,0,1,.393,0v5.734A.2.2,0,0,1,979.6,351.368Z" transform="translate(-955.881 -344.913)" fill="#ff9e23"/></g></g></g><ellipse cx="11.877" cy="6.857" rx="11.877" ry="6.857" transform="translate(0)" fill="#ff9e23"/><ellipse cx="11.306" cy="6.528" rx="11.306" ry="6.528" transform="translate(0.571 0.33)" fill="#ffb43f"/><path d="M859.616,322.133a14.637,14.637,0,0,1-13.244,0c-3.657-2.111-3.657-5.535,0-7.646a14.637,14.637,0,0,1,13.244,0C863.273,316.6,863.273,320.021,859.616,322.133Z" transform="translate(-841.116 -311.452)" fill="#e68913"/><path d="M859.672,317.688a14.637,14.637,0,0,0-13.244,0,3.708,3.708,0,0,0,0,7.155,14.637,14.637,0,0,0,13.244,0,3.708,3.708,0,0,0,0-7.155Z" transform="translate(-841.172 -314.162)" fill="#ff9e23"/><path d="M871.511,326.988l.651.029c.075.043.029.4.031.453a.192.192,0,0,1-.115.167l-.407.235a3.527,3.527,0,0,1,1.02.951c.3.483-.3,1.046-1.178,1.1a1.534,1.534,0,0,1-1.487-.6,1.394,1.394,0,0,0-.244-.389l-1.958,1.13q1.8,1.944-.332,3.172a6.12,6.12,0,0,1-5.358.1l-.388.224a.676.676,0,0,1-.611,0l-.493-.284a.215.215,0,0,1-.127-.177c0-.064-.035-.409.05-.458l.452.065a3.671,3.671,0,0,1-1.518-1.541,1.5,1.5,0,0,1-.042-.453c.041-.362.538-.465,1.2-.508a1.472,1.472,0,0,1,1.467.614,2.252,2.252,0,0,0,.652.871l2.276-1.314c-2.68-2.593,2.129-4.938,5.507-3.164l.393-.227A.616.616,0,0,1,871.511,326.988Zm-4.46,2.237,1.666-.962C867.531,327.929,866.52,328.582,867.051,329.225Zm-1.28,2.03-1.761,1.017C865.146,332.664,866.4,332.025,865.77,331.255Z" transform="translate(-854.511 -323.043)" fill="#e68913"/><path d="M871.511,324.587l.567.327a.17.17,0,0,1,0,.322l-.407.235a3.516,3.516,0,0,1,1,1c.3.483-.271,1-1.155,1.057a1.534,1.534,0,0,1-1.487-.6,1.394,1.394,0,0,0-.244-.389l-1.958,1.13q1.8,1.944-.332,3.172a6.121,6.121,0,0,1-5.358.1l-.388.224a.676.676,0,0,1-.612,0l-.493-.284a.186.186,0,0,1,0-.353l.375-.216a3.67,3.67,0,0,1-1.518-1.541c-.211-.455.35-.909,1.16-.961a1.472,1.472,0,0,1,1.467.614,2.253,2.253,0,0,0,.652.871l2.276-1.314c-2.68-2.593,2.128-4.938,5.507-3.164l.393-.227A.616.616,0,0,1,871.511,324.587Zm-4.46,2.237,1.666-.962C867.532,325.528,866.52,326.181,867.051,326.824Zm-1.28,2.03-1.761,1.017C865.147,330.263,866.4,329.624,865.771,328.854Z" transform="translate(-854.511 -321.011)" fill="#ffb43f"/></g><g transform="translate(0.865 3.667)"><g transform="translate(0 3.047)"><path d="M850.759,310.046c-4.638,2.678-12.159,2.678-16.8,0-2.181-1.259-3.336-2.886-3.467-4.535-.008-.1-.012-3.245-.012-3.345-.007-1.76,1.152-.475,3.479-1.818,4.638-2.678,12.159-2.678,16.8,0,2.3,1.331,3.464.026,3.479,1.77,0,.1,0,3.242-.008,3.339C854.12,307.125,852.964,308.774,850.759,310.046Z" transform="translate(-830.483 -298.34)" fill="#ef8809"/><g clip-path="url(#k)"><g transform="translate(-0.168 3.04)"><path d="M829.584,324.272a.2.2,0,0,1-.2-.2v-5.734a.2.2,0,0,1,.393,0v5.734A.2.2,0,0,1,829.584,324.272Z" transform="translate(-829.387 -318.145)" fill="#ff9e23"/><path d="M833.613,322.184a.2.2,0,0,1,.181-.2h.019a.2.2,0,0,1,.2.2v5.731a.2.2,0,0,1-.2.2h-.019a.2.2,0,0,1-.181-.2Z" transform="translate(-832.964 -321.396)" fill="#ff9e23"/><path d="M837.839,326.027a.2.2,0,0,1,.185-.2h.019a.2.2,0,0,1,.2.2v5.729a.2.2,0,0,1-.2.2h-.019a.2.2,0,0,1-.185-.2Z" transform="translate(-836.541 -324.649)" fill="#ff9e23"/><path d="M842.064,329.869a.2.2,0,0,1,.189-.2h.019a.2.2,0,0,1,.2.2V335.6a.2.2,0,0,1-.2.2h-.019a.2.2,0,0,1-.189-.2Z" transform="translate(-840.118 -327.9)" fill="#ff9e23"/><path d="M846.29,333.712a.2.2,0,0,1,.192-.2h.019a.2.2,0,0,1,.2.2v5.724a.2.2,0,0,1-.2.2h-.019a.2.2,0,0,1-.192-.2Z" transform="translate(-843.695 -331.152)" fill="#ff9e23"/><path d="M850.516,337.555a.205.205,0,0,1,.2-.2h.02a.2.2,0,0,1,.2.2v5.722a.2.2,0,0,1-.2.2h-.02a.205.205,0,0,1-.2-.2Z" transform="translate(-847.272 -334.403)" fill="#ff9e23"/><path d="M854.742,341.4a.207.207,0,0,1,.2-.2h.02a.2.2,0,0,1,.2.2v5.719a.2.2,0,0,1-.2.2h-.02a.207.207,0,0,1-.2-.2Z" transform="translate(-850.85 -337.656)" fill="#ff9e23"/><path d="M858.968,345.241a.209.209,0,0,1,.2-.2h.02a.206.206,0,0,1,.2.2v5.717a.205.205,0,0,1-.2.2h-.02a.209.209,0,0,1-.2-.2Z" transform="translate(-854.427 -340.908)" fill="#ff9e23"/><rect width="0.432" height="6.127" rx="0.216" transform="translate(5.19 4.718)" fill="#ff9e23"/><rect width="0.435" height="6.127" rx="0.217" transform="translate(6.024 4.841)" fill="#ff9e23"/><rect width="0.437" height="6.127" rx="0.219" transform="translate(6.858 4.964)" fill="#ff9e23"/><path d="M.22,0h0A.22.22,0,0,1,.44.22V5.907a.22.22,0,0,1-.22.22h0A.22.22,0,0,1,0,5.907V.22A.22.22,0,0,1,.22,0Z" transform="translate(7.693 5.087)" fill="#ff9e23"/><rect width="0.442" height="6.127" rx="0.221" transform="translate(8.527 5.209)" fill="#ff9e23"/><rect width="0.445" height="6.127" rx="0.222" transform="translate(9.361 5.332)" fill="#ff9e23"/><rect width="0.447" height="6.127" rx="0.224" transform="translate(10.195 5.455)" fill="#ff9e23"/><path d="M.225,0h0A.225.225,0,0,1,.45.225V5.9a.225.225,0,0,1-.225.225h0A.225.225,0,0,1,0,5.9V.225A.225.225,0,0,1,.225,0Z" transform="translate(11.029 5.578)" fill="#ff9e23"/><rect width="0.452" height="6.127" rx="0.226" transform="translate(11.864 5.701)" fill="#ff9e23"/><path d="M.225,0h0A.225.225,0,0,1,.45.225V5.9a.225.225,0,0,1-.225.225h0A.225.225,0,0,1,0,5.9V.225A.225.225,0,0,1,.225,0Z" transform="translate(12.713 5.574)" fill="#ff9e23"/><rect width="0.447" height="6.127" rx="0.224" transform="translate(13.562 5.447)" fill="#ff9e23"/><rect width="0.445" height="6.127" rx="0.222" transform="translate(14.411 5.32)" fill="#ff9e23"/><rect width="0.442" height="6.127" rx="0.221" transform="translate(15.26 5.193)" fill="#ff9e23"/><rect width="0.44" height="6.127" rx="0.22" transform="translate(16.109 5.066)" fill="#ff9e23"/><rect width="0.437" height="6.127" rx="0.219" transform="translate(16.958 4.939)" fill="#ff9e23"/><rect width="0.435" height="6.127" rx="0.217" transform="translate(17.807 4.812)" fill="#ff9e23"/><rect width="0.433" height="6.127" rx="0.216" transform="translate(18.656 4.685)" fill="#ff9e23"/><path d="M954.875,345.321a.209.209,0,0,1,.2-.2h.02a.206.206,0,0,1,.2.2v5.717a.206.206,0,0,1-.2.2h-.02a.209.209,0,0,1-.2-.2Z" transform="translate(-935.611 -340.976)" fill="#ff9e23"/><path d="M958.839,341.772a.207.207,0,0,1,.2-.2h.02a.2.2,0,0,1,.2.2v5.719a.2.2,0,0,1-.2.2h-.02a.207.207,0,0,1-.2-.2Z" transform="translate(-938.966 -337.972)" fill="#ff9e23"/><path d="M962.8,338.222a.205.205,0,0,1,.2-.2h.02a.2.2,0,0,1,.2.2v5.722a.2.2,0,0,1-.2.2H963a.205.205,0,0,1-.2-.2Z" transform="translate(-942.323 -334.969)" fill="#ff9e23"/><path d="M966.768,334.673a.2.2,0,0,1,.192-.2h.019a.2.2,0,0,1,.2.2V340.4a.2.2,0,0,1-.2.2h-.019a.2.2,0,0,1-.192-.2Z" transform="translate(-945.678 -331.966)" fill="#ff9e23"/><path d="M970.732,331.123a.2.2,0,0,1,.188-.2h.019a.2.2,0,0,1,.2.2v5.727a.2.2,0,0,1-.2.2h-.019a.2.2,0,0,1-.188-.2Z" transform="translate(-949.034 -328.961)" fill="#ff9e23"/><path d="M974.7,327.575a.2.2,0,0,1,.185-.2h.019a.2.2,0,0,1,.2.2V333.3a.2.2,0,0,1-.2.2h-.019a.2.2,0,0,1-.185-.2Z" transform="translate(-952.39 -325.959)" fill="#ff9e23"/><path d="M978.661,324.025a.2.2,0,0,1,.181-.2h.019a.2.2,0,0,1,.2.2v5.731a.2.2,0,0,1-.2.2h-.019a.2.2,0,0,1-.181-.2Z" transform="translate(-955.745 -322.955)" fill="#ff9e23"/><path d="M982.822,326.406a.2.2,0,0,1-.2-.2v-5.734a.2.2,0,1,1,.393,0v5.734A.2.2,0,0,1,982.822,326.406Z" transform="translate(-959.101 -319.951)" fill="#ff9e23"/></g></g></g><ellipse cx="11.877" cy="6.857" rx="11.877" ry="6.857" transform="translate(0)" fill="#ff9e23"/><ellipse cx="11.306" cy="6.528" rx="11.306" ry="6.528" transform="translate(0.571 0.33)" fill="#ffb43f"/><path d="M862.837,297.171a14.637,14.637,0,0,1-13.244,0c-3.657-2.112-3.657-5.535,0-7.646a14.636,14.636,0,0,1,13.244,0C866.494,291.636,866.494,295.059,862.837,297.171Z" transform="translate(-844.337 -286.49)" fill="#e68913"/><path d="M862.893,292.726a14.637,14.637,0,0,0-13.244,0,3.708,3.708,0,0,0,0,7.155,14.637,14.637,0,0,0,13.244,0,3.708,3.708,0,0,0,0-7.155Z" transform="translate(-844.393 -289.2)" fill="#ff9e23"/><path d="M874.732,302.026l.651.029c.074.043.029.4.031.453a.193.193,0,0,1-.115.167l-.407.235a3.529,3.529,0,0,1,1.02.951c.3.483-.3,1.046-1.179,1.1a1.534,1.534,0,0,1-1.487-.6,1.394,1.394,0,0,0-.244-.389l-1.958,1.13q1.8,1.944-.332,3.172a6.121,6.121,0,0,1-5.358.1l-.388.224a.676.676,0,0,1-.611,0l-.493-.284a.215.215,0,0,1-.127-.177c0-.064-.035-.41.05-.458l.452.065a3.672,3.672,0,0,1-1.518-1.541,1.49,1.49,0,0,1-.042-.453c.041-.362.538-.465,1.2-.508a1.472,1.472,0,0,1,1.467.614,2.251,2.251,0,0,0,.652.871l2.276-1.314c-2.68-2.593,2.128-4.938,5.507-3.164l.393-.227A.616.616,0,0,1,874.732,302.026Zm-4.46,2.237,1.666-.962C870.752,302.967,869.741,303.62,870.272,304.263Zm-1.28,2.03-1.761,1.017C868.367,307.7,869.62,307.063,868.991,306.293Z" transform="translate(-857.732 -298.081)" fill="#e68913"/><path d="M874.731,299.625l.567.327a.17.17,0,0,1,0,.322l-.407.235a3.516,3.516,0,0,1,1,1c.3.483-.271,1-1.155,1.057a1.534,1.534,0,0,1-1.486-.6,1.4,1.4,0,0,0-.244-.389l-1.958,1.13q1.8,1.944-.332,3.172a6.121,6.121,0,0,1-5.358.1l-.388.224a.676.676,0,0,1-.612,0l-.493-.284a.186.186,0,0,1,0-.353l.375-.216a3.672,3.672,0,0,1-1.518-1.541c-.211-.454.35-.909,1.16-.961a1.472,1.472,0,0,1,1.467.614,2.249,2.249,0,0,0,.652.872l2.276-1.314c-2.68-2.593,2.128-4.938,5.507-3.164l.393-.227A.616.616,0,0,1,874.731,299.625Zm-4.46,2.237,1.666-.962C870.752,300.567,869.741,301.22,870.272,301.863Zm-1.28,2.03-1.761,1.017C868.367,305.3,869.62,304.663,868.991,303.892Z" transform="translate(-857.732 -296.049)" fill="#ffb43f"/></g><g transform="translate(0.494)"><g transform="translate(0 3.047)"><path d="M848.343,286.158c-4.638,2.678-12.159,2.678-16.8,0-2.181-1.259-3.336-2.886-3.467-4.535-.008-.1-.012-3.245-.012-3.345-.007-1.76,1.152-.475,3.479-1.818,4.638-2.678,12.159-2.678,16.8,0,2.3,1.331,3.465.025,3.479,1.77,0,.1,0,3.242-.008,3.339C851.7,283.236,850.548,284.885,848.343,286.158Z" transform="translate(-828.067 -274.452)" fill="#ef8809"/><g clip-path="url(#l)"><g transform="translate(-0.168 3.04)"><path d="M827.168,300.384a.2.2,0,0,1-.2-.2v-5.734a.2.2,0,0,1,.393,0v5.734A.2.2,0,0,1,827.168,300.384Z" transform="translate(-826.972 -294.257)" fill="#ff9e23"/><path d="M831.2,298.3a.2.2,0,0,1,.181-.2h.019a.2.2,0,0,1,.2.2v5.731a.2.2,0,0,1-.2.2h-.019a.2.2,0,0,1-.181-.2Z" transform="translate(-830.548 -297.508)" fill="#ff9e23"/><path d="M835.423,302.139a.2.2,0,0,1,.185-.2h.019a.2.2,0,0,1,.2.2v5.729a.2.2,0,0,1-.2.2h-.019a.2.2,0,0,1-.185-.2Z" transform="translate(-834.126 -300.761)" fill="#ff9e23"/><path d="M839.649,305.981a.2.2,0,0,1,.188-.2h.019a.2.2,0,0,1,.2.2v5.727a.2.2,0,0,1-.2.2h-.019a.2.2,0,0,1-.188-.2Z" transform="translate(-837.703 -304.012)" fill="#ff9e23"/><path d="M843.875,309.824a.2.2,0,0,1,.192-.2h.02a.2.2,0,0,1,.2.2v5.724a.2.2,0,0,1-.2.2h-.02a.2.2,0,0,1-.192-.2Z" transform="translate(-841.28 -307.264)" fill="#ff9e23"/><path d="M848.1,313.667a.205.205,0,0,1,.2-.2h.02a.2.2,0,0,1,.2.2v5.722a.2.2,0,0,1-.2.2h-.02a.205.205,0,0,1-.2-.2Z" transform="translate(-844.857 -310.516)" fill="#ff9e23"/><path d="M852.326,317.51a.207.207,0,0,1,.2-.2h.02a.2.2,0,0,1,.2.2v5.719a.2.2,0,0,1-.2.2h-.02a.207.207,0,0,1-.2-.2Z" transform="translate(-848.434 -313.768)" fill="#ff9e23"/><path d="M856.552,321.353a.209.209,0,0,1,.2-.2h.02a.206.206,0,0,1,.2.2v5.717a.205.205,0,0,1-.2.2h-.02a.209.209,0,0,1-.2-.2Z" transform="translate(-852.011 -317.02)" fill="#ff9e23"/><rect width="0.433" height="6.127" rx="0.216" transform="translate(5.19 4.718)" fill="#ff9e23"/><rect width="0.435" height="6.127" rx="0.217" transform="translate(6.024 4.841)" fill="#ff9e23"/><rect width="0.437" height="6.127" rx="0.219" transform="translate(6.858 4.964)" fill="#ff9e23"/><rect width="0.44" height="6.127" rx="0.22" transform="translate(7.692 5.086)" fill="#ff9e23"/><rect width="0.442" height="6.127" rx="0.221" transform="translate(8.527 5.209)" fill="#ff9e23"/><rect width="0.445" height="6.127" rx="0.222" transform="translate(9.361 5.332)" fill="#ff9e23"/><rect width="0.447" height="6.127" rx="0.224" transform="translate(10.195 5.455)" fill="#ff9e23"/><path d="M.225,0h0A.225.225,0,0,1,.45.225V5.9a.225.225,0,0,1-.225.225h0A.225.225,0,0,1,0,5.9V.225A.225.225,0,0,1,.225,0Z" transform="translate(11.029 5.578)" fill="#ff9e23"/><path d="M.226,0h0A.226.226,0,0,1,.452.226V5.9a.226.226,0,0,1-.226.226h0A.226.226,0,0,1,0,5.9V.226A.226.226,0,0,1,.226,0Z" transform="translate(11.864 5.701)" fill="#ff9e23"/><rect width="0.45" height="6.127" rx="0.225" transform="translate(12.713 5.574)" fill="#ff9e23"/><rect width="0.447" height="6.127" rx="0.224" transform="translate(13.562 5.447)" fill="#ff9e23"/><rect width="0.445" height="6.127" rx="0.222" transform="translate(14.411 5.32)" fill="#ff9e23"/><rect width="0.442" height="6.127" rx="0.221" transform="translate(15.26 5.193)" fill="#ff9e23"/><path d="M.22,0h0A.22.22,0,0,1,.44.22V5.907a.22.22,0,0,1-.22.22h0A.22.22,0,0,1,0,5.907V.22A.22.22,0,0,1,.22,0Z" transform="translate(16.109 5.066)" fill="#ff9e23"/><rect width="0.437" height="6.127" rx="0.219" transform="translate(16.958 4.939)" fill="#ff9e23"/><rect width="0.435" height="6.127" rx="0.217" transform="translate(17.807 4.812)" fill="#ff9e23"/><rect width="0.433" height="6.127" rx="0.216" transform="translate(18.655 4.685)" fill="#ff9e23"/><path d="M952.459,321.433a.209.209,0,0,1,.2-.2h.02a.206.206,0,0,1,.205.2v5.717a.206.206,0,0,1-.205.2h-.02a.209.209,0,0,1-.2-.2Z" transform="translate(-933.195 -317.088)" fill="#ff9e23"/><path d="M956.424,317.884a.207.207,0,0,1,.2-.2h.02a.2.2,0,0,1,.2.2V323.6a.2.2,0,0,1-.2.2h-.02a.207.207,0,0,1-.2-.2Z" transform="translate(-936.551 -314.084)" fill="#ff9e23"/><path d="M960.388,314.334a.205.205,0,0,1,.2-.2h.02a.2.2,0,0,1,.2.2v5.722a.2.2,0,0,1-.2.2h-.02a.205.205,0,0,1-.2-.2Z" transform="translate(-939.907 -311.081)" fill="#ff9e23"/><path d="M964.352,310.784a.2.2,0,0,1,.192-.2h.02a.2.2,0,0,1,.2.2v5.724a.2.2,0,0,1-.2.2h-.02a.2.2,0,0,1-.192-.2Z" transform="translate(-943.262 -308.077)" fill="#ff9e23"/><path d="M968.317,307.235a.2.2,0,0,1,.188-.2h.019a.2.2,0,0,1,.2.2v5.727a.2.2,0,0,1-.2.2h-.019a.2.2,0,0,1-.188-.2Z" transform="translate(-946.619 -305.073)" fill="#ff9e23"/><path d="M972.281,303.686a.2.2,0,0,1,.185-.2h.019a.2.2,0,0,1,.2.2v5.729a.2.2,0,0,1-.2.2h-.019a.2.2,0,0,1-.185-.2Z" transform="translate(-949.974 -302.07)" fill="#ff9e23"/><path d="M976.246,300.137a.2.2,0,0,1,.181-.2h.019a.2.2,0,0,1,.2.2v5.731a.2.2,0,0,1-.2.2h-.019a.2.2,0,0,1-.181-.2Z" transform="translate(-953.33 -299.067)" fill="#ff9e23"/><path d="M980.406,302.518a.2.2,0,0,1-.2-.2v-5.734a.2.2,0,0,1,.393,0v5.734A.2.2,0,0,1,980.406,302.518Z" transform="translate(-956.686 -296.063)" fill="#ff9e23"/></g></g></g><path d="M848.343,266.31c-4.638,2.678-12.159,2.678-16.8,0s-4.639-7.02,0-9.7,12.159-2.678,16.8,0S852.982,263.632,848.343,266.31Z" transform="translate(-828.067 -254.603)" fill="#ff9e23"/><ellipse cx="11.306" cy="6.528" rx="11.306" ry="6.528" transform="translate(0.571 0.33)" fill="#ffb43f"/><path d="M860.421,273.283a14.637,14.637,0,0,1-13.244,0c-3.657-2.112-3.657-5.535,0-7.646a14.637,14.637,0,0,1,13.244,0C864.078,267.748,864.078,271.171,860.421,273.283Z" transform="translate(-841.921 -262.602)" fill="#e68913"/><path d="M860.477,268.837a14.637,14.637,0,0,0-13.244,0,3.708,3.708,0,0,0,0,7.155,14.637,14.637,0,0,0,13.244,0,3.708,3.708,0,0,0,0-7.155Z" transform="translate(-841.977 -265.312)" fill="#ff9e23"/><path d="M872.316,278.138l.651.029c.075.043.029.4.031.453a.192.192,0,0,1-.115.167l-.407.235a3.524,3.524,0,0,1,1.02.951c.3.483-.3,1.046-1.178,1.1a1.534,1.534,0,0,1-1.487-.6,1.4,1.4,0,0,0-.244-.389l-1.958,1.13q1.8,1.944-.332,3.172a6.121,6.121,0,0,1-5.358.1l-.388.224a.675.675,0,0,1-.611,0l-.493-.284a.215.215,0,0,1-.127-.177c0-.064-.035-.41.05-.458l.452.065a3.67,3.67,0,0,1-1.518-1.541,1.494,1.494,0,0,1-.042-.453c.041-.362.538-.465,1.2-.508a1.471,1.471,0,0,1,1.467.614,2.254,2.254,0,0,0,.652.871l2.276-1.314c-2.68-2.594,2.128-4.938,5.507-3.164l.393-.227A.616.616,0,0,1,872.316,278.138Zm-4.46,2.237,1.666-.962C868.336,279.08,867.325,279.732,867.856,280.375Zm-1.28,2.03-1.761,1.017C865.951,283.814,867.2,283.175,866.576,282.405Z" transform="translate(-855.316 -274.193)" fill="#e68913"/><path d="M872.316,275.737l.567.327a.17.17,0,0,1,0,.322l-.407.235a3.515,3.515,0,0,1,1,1c.3.483-.271,1-1.155,1.057a1.534,1.534,0,0,1-1.487-.6,1.393,1.393,0,0,0-.244-.389l-1.958,1.13q1.8,1.944-.332,3.172a6.121,6.121,0,0,1-5.358.1l-.388.224a.674.674,0,0,1-.611,0l-.493-.284a.186.186,0,0,1,0-.353l.375-.216a3.669,3.669,0,0,1-1.518-1.541c-.211-.455.35-.909,1.16-.961a1.472,1.472,0,0,1,1.467.614,2.254,2.254,0,0,0,.652.871l2.276-1.314c-2.68-2.593,2.128-4.938,5.507-3.164l.393-.227A.617.617,0,0,1,872.316,275.737Zm-4.46,2.237,1.666-.962C868.337,276.678,867.325,277.331,867.856,277.974Zm-1.28,2.03-1.761,1.017C865.952,281.413,867.2,280.774,866.576,280Z" transform="translate(-855.316 -272.161)" fill="#ffb43f"/></g></g></g></svg>