<svg xmlns="http://www.w3.org/2000/svg" width="48.826" height="32.92" viewBox="0 0 48.826 32.92"><g transform="translate(-820.588 -47.573)"><path d="M869.337,210.265,856.6,211.925l10.264,6.137,6.452-1.757L900.8,200.912,891.7,197.4l-36.92,8.123.036.254Z" transform="translate(-31.391 -137.569)" fill="#b3b3b3" opacity="0.5" style="mix-blend-mode:multiply;isolation:isolate"/><g transform="translate(820.623 53.696)"><g transform="translate(0 0)"><path d="M1133.328,180.356a5.161,5.161,0,0,1,3.7-.344c1.137.358,1.323,1.092.416,1.64a5.161,5.161,0,0,1-3.7.344C1132.607,181.638,1132.421,180.9,1133.328,180.356Z" transform="translate(-1107.252 -175.124)" fill="#3d5e2a"/><path d="M1089.74,148.533l6.267,1.972-2.911,1.758c-.965.583-1.273,1.281-.974,1.9L1089.9,155.5l-9.046-2.854,2.262-1.366a8.487,8.487,0,0,0,3.708-.991Zm.048,4.393c.909-.549.723-1.283-.414-1.641a5.161,5.161,0,0,0-3.7.343c-.909.549-.723,1.283.413,1.641a5.161,5.161,0,0,0,3.7-.343Z" transform="translate(-1059.598 -146.397)" fill="#839749"/><path d="M1066.58,130.121l12.76,4.014-8.358,5.047-1.85-.584,2.221-1.341c-.3-.619.009-1.317.974-1.9l2.912-1.758-6.267-1.972-2.912,1.759a8.487,8.487,0,0,1-3.712.993l-2.262,1.366-1.85-.584Z" transform="translate(-1038.829 -129.492)" fill="#3d5e2a"/><path d="M1056.264,122.427,1070.807,127l-8.936,5.4-.891-.281,8.358-5.047-12.76-4.014-8.346,5.04-.891-.281Z" transform="translate(-1028.828 -122.427)" fill="#839749"/><path d="M1034.8,188.289l.891.281,1.85.584,9.046,2.854,1.85.584.891.281-.272.164-.846.511-14.529-4.584,1.083-.655Z" transform="translate(-1016.289 -182.901)" fill="#a43936"/><path d="M999.686,250.8l8.516,2.687a14.241,14.241,0,0,1-5.673-.484C1000.781,252.458,999.791,251.632,999.686,250.8Z" transform="translate(-985.07 -240.303)" fill="#3d5e2a"/><path d="M982.4,188.534l-1.084.655,14.529,4.584.846-.511-5.511,3.328-14.529-4.584.083-.05Z" transform="translate(-963.917 -183.126)" fill="#c8c8c8"/><path d="M964.109,230.979l14.53,4.584-1.117.675-14.529-4.584.211-.127Z" transform="translate(-951.378 -222.099)" fill="#a43936"/><path d="M890.121,254.23c.885-.535,1.214-1.166,1.031-1.745L895.6,249.8l.26.082c.1.827,1.1,1.653,2.843,2.2a14.242,14.242,0,0,0,5.673.484l.27.085-4.386,2.649a8.389,8.389,0,0,0-3.59.983l-3.518,2.124-6.542-2.058Zm6.06-1a5.161,5.161,0,0,0-3.7.343c-.909.549-.723,1.283.413,1.641a5.161,5.161,0,0,0,3.7-.343c.91-.549.724-1.283-.413-1.641Z" transform="translate(-881.243 -239.38)" fill="#839749"/><path d="M951.94,289.888a5.161,5.161,0,0,1,3.7-.344c1.137.358,1.323,1.092.415,1.639a5.161,5.161,0,0,1-3.7.345C951.219,291.17,951.033,290.436,951.94,289.888Z" transform="translate(-940.702 -275.696)" fill="#3d5e2a"/><path d="M835.562,249.386l-14.543-4.575,11.825-7.141-.211.127.891.281-11.036,6.664,12.76,4.014,11.023-6.657.891.281Z" transform="translate(-821.019 -228.243)" fill="#a7c05d"/><path d="M851.737,253.342l-12.76-4.014,11.036-6.664,1.85.584-4.445,2.684c.183.579-.146,1.211-1.031,1.745l-3.513,2.122,6.542,2.058,3.514-2.122a8.39,8.39,0,0,1,3.594-.985l4.386-2.649,1.85.584Z" transform="translate(-837.509 -232.828)" fill="#3d5e2a"/></g><g transform="translate(14.543 4.575)"><path d="M1233.89,178.357l.3,5.653-8.936,5.4-.3-5.653Z" transform="translate(-1206.453 -178.357)" fill="#54602f"/><path d="M1159.771,246.332l.3,5.653-5.511,3.328-.3-5.653Z" transform="translate(-1141.543 -240.771)" fill="gray"/><path d="M1212.405,244.326l.3,5.653-1.121.692-.3-5.673Z" transform="translate(-1193.905 -238.93)" fill="#692423"/><path d="M1141.717,287.016l.3,5.653-1.117.675-.3-5.653Z" transform="translate(-1129 -278.127)" fill="#692423"/><path d="M1010.4,295.262l.3,5.653-11.6,7-.3-5.653Z" transform="translate(-998.8 -285.698)" fill="#54602f"/></g><path d="M835.562,329.536l.3,5.653-14.543-4.575-.3-5.653Z" transform="translate(-821.019 -308.393)" fill="#778942"/></g><g transform="translate(820.588 47.573)"><g transform="translate(0 0)"><path d="M1132.9,105.5a5.161,5.161,0,0,1,3.7-.344c1.137.358,1.323,1.092.416,1.639a5.16,5.16,0,0,1-3.7.344C1132.177,106.783,1131.991,106.049,1132.9,105.5Z" transform="translate(-1106.822 -100.27)" fill="#3d5e2a"/><path d="M1089.31,73.679l6.267,1.972-2.911,1.758c-.965.583-1.273,1.281-.974,1.9l-2.221,1.341-9.046-2.854,2.262-1.366a8.485,8.485,0,0,0,3.708-.991Zm.048,4.393c.909-.549.723-1.283-.413-1.641a5.161,5.161,0,0,0-3.7.343c-.909.549-.723,1.283.413,1.641a5.161,5.161,0,0,0,3.7-.343Z" transform="translate(-1059.168 -71.543)" fill="#a7c05d"/><path d="M1066.151,55.267l12.76,4.014-8.358,5.047-1.85-.584,2.221-1.341c-.3-.619.009-1.317.974-1.9l2.912-1.758-6.267-1.972-2.912,1.759a8.488,8.488,0,0,1-3.712.993l-2.262,1.366-1.85-.584Z" transform="translate(-1038.4 -54.638)" fill="#3d5e2a"/><path d="M1055.835,47.573l14.543,4.575-8.936,5.4-.891-.281,8.358-5.047-12.76-4.014-8.346,5.04-.891-.281Z" transform="translate(-1028.398 -47.573)" fill="#a7c05d"/><path d="M1034.373,113.435l.891.281,1.85.584,9.046,2.854,1.85.584.891.281-.272.164-.846.511-14.529-4.584,1.084-.655Z" transform="translate(-1015.859 -108.047)" fill="#a43936"/><path d="M999.256,175.95l8.516,2.687a14.241,14.241,0,0,1-5.673-.484C1000.351,177.6,999.36,176.777,999.256,175.95Z" transform="translate(-984.64 -165.448)" fill="#3d5e2a"/><path d="M981.968,113.679l-1.083.655,14.529,4.584.846-.511-5.511,3.328-14.529-4.584.083-.05Z" transform="translate(-963.488 -108.271)" fill="#c8c8c8"/><path d="M963.679,156.125l14.53,4.584-1.117.675L962.563,156.8l.211-.127Z" transform="translate(-950.949 -147.245)" fill="#a43936"/><path d="M889.693,179.376c.885-.535,1.214-1.166,1.031-1.745l4.445-2.684.261.082c.1.827,1.1,1.653,2.843,2.2a14.242,14.242,0,0,0,5.673.484l.27.085-4.386,2.649a8.389,8.389,0,0,0-3.59.983l-3.518,2.124L886.18,181.5Zm6.06-1a5.161,5.161,0,0,0-3.7.343c-.909.549-.723,1.283.414,1.641a5.161,5.161,0,0,0,3.7-.344c.91-.549.724-1.283-.413-1.64Z" transform="translate(-880.814 -164.526)" fill="#a7c05d"/><path d="M951.51,215.034a5.161,5.161,0,0,1,3.7-.345c1.137.358,1.323,1.092.415,1.639a5.161,5.161,0,0,1-3.7.345C950.789,216.316,950.6,215.582,951.51,215.034Z" transform="translate(-940.272 -200.842)" fill="#3d5e2a"/><path d="M835.131,174.532l-14.543-4.575,11.825-7.141-.211.127.891.281-11.036,6.664,12.76,4.014,11.023-6.656.891.281Z" transform="translate(-820.588 -153.389)" fill="#a7c05d"/><path d="M851.307,178.488l-12.76-4.014,11.036-6.664,1.85.584-4.445,2.684c.183.579-.146,1.211-1.031,1.745l-3.513,2.122L848.985,177l3.514-2.122a8.389,8.389,0,0,1,3.594-.985l4.386-2.649,1.85.584Z" transform="translate(-837.078 -157.974)" fill="#3d5e2a"/></g><g transform="translate(14.543 4.575)"><path d="M1233.46,103.5l.3,5.653-8.936,5.4-.3-5.653Z" transform="translate(-1206.023 -103.503)" fill="#54602f"/><path d="M1159.341,171.477l.3,5.653-5.511,3.328-.3-5.653Z" transform="translate(-1141.113 -165.917)" fill="gray"/><path d="M1211.975,169.472l.3,5.653-1.121.692-.3-5.673Z" transform="translate(-1193.475 -164.076)" fill="#692423"/><path d="M1141.287,212.162l.3,5.653-1.117.675-.3-5.653Z" transform="translate(-1128.57 -203.273)" fill="#692423"/><path d="M1009.969,220.408l.3,5.653-11.6,7-.3-5.653Z" transform="translate(-998.369 -210.844)" fill="#54602f"/></g><path d="M835.131,254.682l.3,5.653-14.543-4.575-.3-5.653Z" transform="translate(-820.588 -233.539)" fill="#778942"/></g></g></svg>