<svg xmlns="http://www.w3.org/2000/svg" width="62.202" height="36" viewBox="0 0 62.202 36"><g transform="translate(-1525.437 -590.813)"><path d="M1543.059,826.933l6.73-.349,9.511,5.687,7.661-2.9,24.492-14.637-9.14-1.607-52.75,9.414.033.236Z" transform="translate(-3.815 -205.458)" fill="#b3b3b3" opacity="0.5" style="mix-blend-mode:multiply;isolation:isolate"/><g transform="translate(1525.469 596.487)"><path d="M1539.343,872.44l.28,5.239-13.477-4.24-.28-5.239Z" transform="translate(-1525.866 -852.848)" fill="#778942"/><g transform="translate(0 0)"><path d="M1838.134,723.557a4.782,4.782,0,0,1,3.429-.319c1.053.331,1.226,1.011.385,1.519a4.783,4.783,0,0,1-3.429.319C1837.465,724.745,1837.293,724.065,1838.134,723.557Z" transform="translate(-1813.97 -718.709)" fill="#3d5e2a"/><path d="M1770.816,673.361l11.824,3.72-7.745,4.677-1.715-.541,2.058-1.243c-.277-.574.009-1.221.9-1.76l2.7-1.629-5.808-1.827-2.7,1.63a7.864,7.864,0,0,1-3.44.92l-2.1,1.266-1.715-.541Z" transform="translate(-1745.1 -672.778)" fill="#3d5e2a"/><path d="M1793.937,691.774l5.808,1.827-2.7,1.629c-.894.54-1.18,1.187-.9,1.76l-2.059,1.243-8.383-2.645,2.1-1.265a7.864,7.864,0,0,0,3.436-.918Zm.045,4.071c.843-.509.67-1.189-.383-1.52a4.783,4.783,0,0,0-3.427.318c-.843.509-.67,1.189.383,1.521a4.783,4.783,0,0,0,3.427-.318Z" transform="translate(-1766.005 -689.795)" fill="#839749"/><path d="M1739.57,731.532l.825.26,1.715.541,8.383,2.645,1.715.541.826.261-.252.152-.784.473-13.463-4.248.784-.473.221-.133Z" transform="translate(-1722.413 -726.539)" fill="#a43936"/><path d="M1594.713,797.145c.821-.5,1.125-1.081.956-1.617l4.119-2.487.241.076c.1.766,1.015,1.531,2.634,2.041a13.194,13.194,0,0,0,5.257.449l.25.079-4.064,2.454a7.773,7.773,0,0,0-3.327.911l-3.26,1.968-6.062-1.907Zm5.616-.928a4.782,4.782,0,0,0-3.427.318c-.843.509-.67,1.189.383,1.52a4.785,4.785,0,0,0,3.429-.319c.842-.508.669-1.188-.384-1.52Z" transform="translate(-1586.485 -783.385)" fill="#839749"/><path d="M1704.533,794.045l7.891,2.49a13.2,13.2,0,0,1-5.257-.449C1705.548,795.576,1704.63,794.811,1704.533,794.045Z" transform="translate(-1690.989 -784.313)" fill="#3d5e2a"/><path d="M1668.875,774.222l13.463,4.248-1.036.625-13.463-4.248Z" transform="translate(-1657.078 -765.993)" fill="#a43936"/><path d="M1673.2,739.779l13.463,4.248.784-.473-5.107,3.084-13.463-4.248-1.036.625Z" transform="translate(-1657.078 -734.161)" fill="#c8c8c8"/><path d="M1656.745,833.089a4.783,4.783,0,0,1,3.43-.319c1.053.331,1.226,1.011.385,1.519a4.785,4.785,0,0,1-3.429.319C1656.077,834.277,1655.9,833.6,1656.745,833.089Z" transform="translate(-1646.332 -819.938)" fill="#3d5e2a"/><path d="M1555.65,795.8l-11.824-3.72,10.226-6.175,1.715.541-4.119,2.487c.169.537-.135,1.122-.956,1.617l-3.255,1.966,6.062,1.907,3.256-1.966a7.775,7.775,0,0,1,3.331-.913l4.064-2.454,1.715.541Z" transform="translate(-1542.464 -776.789)" fill="#3d5e2a"/><path d="M1551.291,665.667l13.477,4.24-8.281,5-.826-.261,7.745-4.677-11.824-3.72-7.734,4.67-.825-.26-.252.152-.784.473-5.359,3.236.826.26-10.226,6.175,11.824,3.72,10.215-6.168.826.26-10.749,6.491-13.477-4.24Z" transform="translate(-1525.866 -665.667)" fill="#a7c05d"/></g><g transform="translate(13.477 4.24)"><path d="M1938.082,721.6l.28,5.239-8.281,5-.28-5.239Z" transform="translate(-1912.658 -721.597)" fill="#54602f"/><path d="M1864.214,789.572l.28,5.239-5.107,3.084-.28-5.239Z" transform="translate(-1847.323 -784.419)" fill="gray"/><path d="M1917.146,787.566l.28,5.239-1.038.625-.281-5.239Z" transform="translate(-1900.002 -782.566)" fill="#692423"/><path d="M1846.483,830.256l.28,5.239-1.036.625-.28-5.239Z" transform="translate(-1834.698 -822.019)" fill="#692423"/><path d="M1714.4,838.5l.28,5.239-10.749,6.491-.28-5.239Z" transform="translate(-1703.647 -829.64)" fill="#54602f"/></g></g><g transform="translate(1541.728 601.982)"><g transform="translate(0)"><path d="M2052.622,796.041a4.783,4.783,0,0,1,3.429-.319c1.053.331,1.226,1.011.385,1.519a4.782,4.782,0,0,1-3.429.319C2051.954,797.229,2051.781,796.548,2052.622,796.041Z" transform="translate(-2028.458 -791.193)" fill="#3d5e2a"/><path d="M2008.424,764.258l5.808,1.827-2.7,1.629c-.894.54-1.18,1.187-.9,1.76l-2.058,1.243-8.383-2.645,2.1-1.266a7.863,7.863,0,0,0,3.436-.918Zm.045,4.071c.843-.509.67-1.189-.383-1.52a4.783,4.783,0,0,0-3.427.318c-.843.509-.67,1.189.383,1.52a4.782,4.782,0,0,0,3.427-.318Z" transform="translate(-1980.493 -762.279)" fill="#839749"/><path d="M1985.3,745.845l11.824,3.72-7.745,4.677-1.715-.541,2.059-1.243c-.277-.574.009-1.221.9-1.76l2.7-1.629-5.808-1.827-2.7,1.63a7.864,7.864,0,0,1-3.44.92l-2.1,1.266-1.715-.541Z" transform="translate(-1959.588 -745.262)" fill="#3d5e2a"/><path d="M1974.946,738.151l13.477,4.24-8.281,5-.826-.261,7.745-4.677-11.824-3.72-7.734,4.67-.826-.261Z" transform="translate(-1949.521 -738.151)" fill="#839749"/><path d="M1954.056,804.014l.826.261,1.715.541,8.383,2.645,1.715.541.826.261-.252.152-.784.473-13.463-4.248,1-.607Z" transform="translate(-1936.9 -799.021)" fill="#a43936"/><path d="M1919.022,866.529l7.891,2.49a13.2,13.2,0,0,1-5.257-.449C1920.037,868.061,1919.119,867.3,1919.022,866.529Z" transform="translate(-1905.478 -856.797)" fill="#3d5e2a"/><path d="M1901.312,804.258l-1,.607,13.463,4.248.784-.473-5.107,3.084-13.464-4.248.077-.047Z" transform="translate(-1884.187 -799.247)" fill="#c8c8c8"/><path d="M1883.363,846.7l13.464,4.248-1.036.625-13.463-4.248.2-.118Z" transform="translate(-1871.566 -838.475)" fill="#a43936"/><path d="M1809.2,869.63c.82-.5,1.125-1.081.955-1.617l4.119-2.487.241.076c.1.766,1.015,1.531,2.634,2.041a13.2,13.2,0,0,0,5.257.449l.25.079-4.064,2.454a7.771,7.771,0,0,0-3.327.911l-3.26,1.968-6.062-1.907Zm5.615-.928a4.781,4.781,0,0,0-3.427.318c-.843.509-.67,1.189.383,1.52a4.781,4.781,0,0,0,3.427-.318c.844-.509.671-1.189-.382-1.52Z" transform="translate(-1800.972 -855.87)" fill="#839749"/><path d="M1871.234,905.573a4.783,4.783,0,0,1,3.43-.319c1.053.331,1.226,1.011.384,1.519a4.783,4.783,0,0,1-3.429.319C1870.565,906.761,1870.393,906.081,1871.234,905.573Z" transform="translate(-1860.82 -892.422)" fill="#3d5e2a"/><path d="M1753.831,864.251l-13.477-4.24,10.958-6.617-.2.118.826.26-10.226,6.175,11.824,3.72,10.215-6.168.826.26Z" transform="translate(-1740.354 -844.659)" fill="#a7c05d"/><path d="M1770.138,868.284l-11.824-3.72,10.226-6.175,1.715.541-4.119,2.487c.169.537-.135,1.122-.956,1.617L1761.925,865l6.062,1.907,3.256-1.966a7.772,7.772,0,0,1,3.331-.913l4.064-2.454,1.715.541Z" transform="translate(-1756.953 -849.274)" fill="#3d5e2a"/></g><g transform="translate(13.477 4.24)"><path d="M2152.57,794.081l.28,5.239-8.281,5-.281-5.239Z" transform="translate(-2127.146 -794.081)" fill="#54602f"/><path d="M2078.7,862.056l.28,5.239-5.107,3.084-.28-5.239Z" transform="translate(-2061.811 -856.903)" fill="gray"/><path d="M2131.659,860.051l.28,5.239-1.039.641-.278-5.257Z" transform="translate(-2114.515 -855.05)" fill="#692423"/><path d="M2060.971,902.74l.28,5.239-1.035.625-.28-5.239Z" transform="translate(-2049.187 -894.503)" fill="#692423"/><path d="M1928.885,910.986l.28,5.239-10.749,6.491-.28-5.239Z" transform="translate(-1918.136 -902.124)" fill="#54602f"/></g><path d="M1753.831,944.925l.28,5.239-13.477-4.24-.28-5.239Z" transform="translate(-1740.354 -925.333)" fill="#778942"/></g><g transform="translate(1525.437 590.813)"><path d="M1538.913,797.586l.28,5.239-13.477-4.24-.28-5.239Z" transform="translate(-1525.437 -777.994)" fill="#778942"/><g transform="translate(0)"><path d="M1837.7,648.7a4.782,4.782,0,0,1,3.429-.319c1.053.331,1.226,1.011.385,1.519a4.782,4.782,0,0,1-3.429.319C1837.036,649.89,1836.863,649.21,1837.7,648.7Z" transform="translate(-1813.54 -643.854)" fill="#3d5e2a"/><path d="M1770.386,598.507l11.824,3.72-7.745,4.677-1.715-.541,2.059-1.243c-.277-.574.009-1.221.9-1.76l2.7-1.629L1772.6,599.9l-2.7,1.63a7.865,7.865,0,0,1-3.44.92l-2.1,1.266-1.715-.541Z" transform="translate(-1744.67 -597.924)" fill="#3d5e2a"/><path d="M1793.506,616.919l5.808,1.827-2.7,1.629c-.894.54-1.179,1.187-.9,1.76l-2.059,1.243-8.383-2.645,2.1-1.266a7.865,7.865,0,0,0,3.437-.918Zm.045,4.071c.843-.509.67-1.189-.383-1.52a4.783,4.783,0,0,0-3.427.318c-.843.509-.67,1.189.383,1.52a4.782,4.782,0,0,0,3.427-.318Z" transform="translate(-1765.575 -614.94)" fill="#a7c05d"/><path d="M1739.14,656.678l.825.26,1.715.541,8.383,2.645,1.715.541.826.26-.252.152-.784.473L1738.1,657.3l.784-.473.221-.133Z" transform="translate(-1721.983 -651.685)" fill="#a43936"/><path d="M1594.283,722.291c.821-.5,1.125-1.081.955-1.617l4.119-2.487.241.076c.1.766,1.015,1.531,2.634,2.041a13.2,13.2,0,0,0,5.257.449l.25.079-4.064,2.454a7.775,7.775,0,0,0-3.327.911l-3.26,1.968-6.062-1.907Zm5.616-.928a4.781,4.781,0,0,0-3.427.318c-.843.509-.67,1.189.383,1.521a4.785,4.785,0,0,0,3.428-.319c.842-.508.669-1.188-.384-1.52Z" transform="translate(-1586.055 -708.531)" fill="#a7c05d"/><path d="M1704.1,719.191l7.891,2.49a13.2,13.2,0,0,1-5.257-.449C1705.119,720.722,1704.2,719.957,1704.1,719.191Z" transform="translate(-1690.56 -709.459)" fill="#3d5e2a"/><path d="M1668.446,699.368l13.463,4.248-1.036.625-13.463-4.248Z" transform="translate(-1656.648 -691.139)" fill="#a43936"/><path d="M1672.769,664.925l13.463,4.248.784-.473-5.107,3.084-13.463-4.248-1.036.625Z" transform="translate(-1656.648 -659.307)" fill="#c8c8c8"/><path d="M1656.316,758.235a4.782,4.782,0,0,1,3.429-.319c1.053.331,1.226,1.011.385,1.519a4.785,4.785,0,0,1-3.429.319C1655.647,759.423,1655.475,758.743,1656.316,758.235Z" transform="translate(-1645.902 -745.084)" fill="#3d5e2a"/><path d="M1555.22,720.945l-11.824-3.72,10.226-6.175,1.715.541-4.119,2.487c.169.537-.135,1.122-.955,1.617l-3.256,1.966,6.062,1.907,3.256-1.966a7.773,7.773,0,0,1,3.331-.913l4.064-2.454,1.715.541Z" transform="translate(-1542.035 -701.935)" fill="#3d5e2a"/><path d="M1550.861,590.813l13.477,4.24-8.281,5-.826-.26,7.745-4.677-11.824-3.72-7.734,4.67-.825-.26-.252.152-.784.473-5.359,3.236.825.26L1526.8,606.1l11.824,3.72,10.215-6.168.826.26-10.749,6.491-13.477-4.24Z" transform="translate(-1525.437 -590.813)" fill="#a7c05d"/></g><g transform="translate(13.477 4.24)"><path d="M1937.653,646.742l.28,5.239-8.281,5-.28-5.239Z" transform="translate(-1912.229 -646.742)" fill="#54602f"/><path d="M1863.785,714.718l.28,5.239-5.107,3.084-.28-5.239Z" transform="translate(-1846.893 -709.565)" fill="gray"/><path d="M1916.716,712.712l.28,5.238-1.038.625-.28-5.239Z" transform="translate(-1899.572 -707.712)" fill="#692423"/><path d="M1846.053,755.4l.28,5.239-1.036.625-.28-5.239Z" transform="translate(-1834.269 -747.165)" fill="#692423"/><path d="M1713.967,763.648l.28,5.239-10.749,6.491-.28-5.239Z" transform="translate(-1703.218 -754.786)" fill="#54602f"/></g></g><g transform="translate(1541.696 596.308)"><g transform="translate(0 0)"><path d="M2052.192,721.187a4.783,4.783,0,0,1,3.429-.319c1.053.331,1.226,1.012.385,1.519a4.782,4.782,0,0,1-3.429.319C2051.524,722.375,2051.352,721.694,2052.192,721.187Z" transform="translate(-2028.029 -716.339)" fill="#3d5e2a"/><path d="M2007.995,689.4l5.808,1.827-2.7,1.629c-.894.54-1.18,1.187-.9,1.76l-2.058,1.243-8.383-2.645,2.1-1.266a7.862,7.862,0,0,0,3.436-.918Zm.045,4.071c.843-.509.67-1.189-.383-1.52a4.782,4.782,0,0,0-3.427.318c-.843.509-.67,1.189.383,1.52a4.782,4.782,0,0,0,3.427-.318Z" transform="translate(-1980.063 -687.425)" fill="#a7c05d"/><path d="M1984.875,670.991l11.824,3.72-7.745,4.677-1.715-.541,2.058-1.243c-.277-.574.009-1.221.9-1.76l2.7-1.629-5.808-1.827-2.7,1.63a7.864,7.864,0,0,1-3.44.92l-2.1,1.266-1.715-.541Z" transform="translate(-1959.159 -670.408)" fill="#3d5e2a"/><path d="M1974.516,663.3l13.477,4.24-8.281,5-.826-.261,7.745-4.677-11.824-3.72-7.734,4.67-.826-.26Z" transform="translate(-1949.092 -663.297)" fill="#a7c05d"/><path d="M1953.627,729.16l.826.261,1.715.541,8.383,2.645,1.715.541.826.26-.252.152-.784.473-13.464-4.248,1-.607Z" transform="translate(-1936.471 -724.167)" fill="#a43936"/><path d="M1918.592,791.675l7.891,2.49a13.2,13.2,0,0,1-5.257-.449C1919.607,793.207,1918.689,792.441,1918.592,791.675Z" transform="translate(-1905.048 -781.943)" fill="#3d5e2a"/><path d="M1900.883,729.4l-1,.607,13.463,4.248.784-.473-5.107,3.084-13.464-4.248.077-.047Z" transform="translate(-1883.757 -724.393)" fill="#c8c8c8"/><path d="M1882.933,771.85,1896.4,776.1l-1.036.625-13.463-4.248.2-.118Z" transform="translate(-1871.136 -763.621)" fill="#a43936"/><path d="M1808.771,794.775c.82-.5,1.125-1.081.956-1.617l4.119-2.487.241.076c.1.766,1.015,1.531,2.634,2.041a13.2,13.2,0,0,0,5.257.449l.25.079-4.064,2.454a7.774,7.774,0,0,0-3.327.911l-3.26,1.968-6.062-1.907Zm5.616-.928a4.783,4.783,0,0,0-3.428.318c-.842.509-.67,1.189.383,1.52a4.783,4.783,0,0,0,3.427-.318c.843-.509.671-1.189-.382-1.52Z" transform="translate(-1800.544 -781.015)" fill="#a7c05d"/><path d="M1870.8,830.719a4.783,4.783,0,0,1,3.43-.319c1.053.331,1.226,1.011.385,1.519a4.783,4.783,0,0,1-3.429.32C1870.135,831.907,1869.963,831.227,1870.8,830.719Z" transform="translate(-1860.39 -817.568)" fill="#3d5e2a"/><path d="M1753.4,789.4l-13.477-4.24,10.958-6.617-.2.118.825.26-10.226,6.175,11.824,3.72,10.215-6.168.826.26Z" transform="translate(-1739.924 -769.805)" fill="#a7c05d"/><path d="M1769.707,793.429l-11.824-3.72,10.226-6.175,1.715.541-4.119,2.487c.169.537-.135,1.122-.956,1.617l-3.255,1.966,6.062,1.907,3.256-1.966a7.773,7.773,0,0,1,3.331-.913l4.064-2.454,1.715.541Z" transform="translate(-1756.522 -774.419)" fill="#3d5e2a"/></g><g transform="translate(13.477 4.24)"><path d="M2152.14,719.227l.281,5.239-8.281,5-.28-5.239Z" transform="translate(-2126.716 -719.227)" fill="#54602f"/><path d="M2078.273,787.2l.28,5.239-5.107,3.084-.281-5.239Z" transform="translate(-2061.381 -782.049)" fill="gray"/><path d="M2131.229,785.2l.28,5.239-1.039.641-.278-5.257Z" transform="translate(-2114.086 -780.196)" fill="#692423"/><path d="M2060.541,827.886l.281,5.239-1.036.625-.28-5.239Z" transform="translate(-2048.757 -819.649)" fill="#692423"/><path d="M1928.454,836.132l.28,5.239-10.749,6.491-.28-5.239Z" transform="translate(-1917.705 -827.27)" fill="#54602f"/></g><path d="M1753.4,870.071l.28,5.239-13.477-4.24-.28-5.239Z" transform="translate(-1739.924 -850.478)" fill="#778942"/></g><g transform="translate(1532.78 617.164)"><g transform="translate(0 0)" style="mix-blend-mode:multiply;isolation:isolate"><path d="M1622.309,938.43l1.578.442,1.577.446,1.577.446.788.224.392.118q.2.059.391.121l-.057,0c.293-.13.587-.259.883-.382.148-.062.3-.125.444-.185s.3-.121.448-.178l.007.015c-.14.078-.283.152-.424.228s-.285.146-.428.22c-.285.147-.573.288-.861.428l-.026.013-.031-.009q-.2-.054-.394-.112l-.393-.115-.783-.243-1.564-.487-1.564-.487-1.563-.492Z" transform="translate(-1622.304 -938.43)" fill="#b3b3b3"/></g></g><g transform="translate(1549.806 613.821)"><g transform="translate(0 0)" style="mix-blend-mode:multiply;isolation:isolate"><path d="M1846.917,898.7l5.565,1.748-.043.005,4.873-3.11c.406-.259.816-.512,1.224-.768l1.231-.757c.41-.254.823-.5,1.236-.75s.827-.495,1.243-.739l.009.014q-.6.4-1.2.8c-.4.263-.8.53-1.21.79l-1.215.783c-.407.257-.813.517-1.222.772l-4.911,3.049-.02.013-.022-.007-5.539-1.829Z" transform="translate(-1846.912 -894.327)" fill="#b3b3b3"/></g></g><g transform="translate(1541.94 621.03)"><g transform="translate(0 0)" style="mix-blend-mode:multiply;isolation:isolate"><path d="M1743.2,989.437l5.485,1.721-5.533-1.559Z" transform="translate(-1743.15 -989.437)" fill="#b3b3b3"/></g></g><g transform="translate(1525.526 607.215)"><g transform="translate(0 0)" style="mix-blend-mode:multiply;isolation:isolate"><path d="M1526.659,807.184l5.725,1.828-5.774-1.666Z" transform="translate(-1526.609 -807.184)" fill="#b3b3b3"/></g></g></g></svg>