<svg xmlns="http://www.w3.org/2000/svg" width="49.983" height="27.452" viewBox="0 0 49.983 27.452"><g transform="translate(-155.151 -122.427)"><path d="M224.212,210.58l-13.053,1.7,10.515,6.287,6.609-1.8L256.448,201l-9.332-3.6-33.779,9.515.037.26Z" transform="translate(-51.314 -68.689)" fill="#b3b3b3" opacity="0.5" style="mix-blend-mode:multiply;isolation:isolate"/><g transform="translate(155.151 122.427)"><g transform="translate(0 0)"><path d="M467.474,180.369a5.288,5.288,0,0,1,3.791-.353c1.165.366,1.355,1.118.426,1.68a5.287,5.287,0,0,1-3.791.353C466.736,181.682,466.545,180.93,467.474,180.369Z" transform="translate(-440.76 -175.009)" fill="#3d5e2a"/><path d="M424.09,148.533l6.42,2.02-2.983,1.8c-.988.6-1.3,1.312-1,1.946l-2.276,1.374-9.268-2.924,2.317-1.4a8.694,8.694,0,0,0,3.8-1.015Zm.049,4.5c.932-.563.741-1.315-.423-1.681a5.287,5.287,0,0,0-3.789.351c-.932.563-.741,1.315.423,1.681a5.287,5.287,0,0,0,3.789-.351Z" transform="translate(-393.211 -146.345)" fill="#839749"/><path d="M400.916,130.121l13.072,4.112-8.563,5.171-1.9-.6,2.276-1.374c-.306-.634.01-1.35,1-1.946l2.983-1.8-6.421-2.02-2.984,1.8a8.7,8.7,0,0,1-3.8,1.017l-2.317,1.4-1.9-.6Z" transform="translate(-372.486 -129.476)" fill="#3d5e2a"/><path d="M390.614,122.427l14.9,4.687-9.155,5.529-.913-.288,8.563-5.171-13.072-4.112-8.55,5.163-.913-.288Z" transform="translate(-362.507 -122.427)" fill="#839749"/><path d="M368.962,188.289l.913.288,1.9.6,9.268,2.924,1.9.6.913.288-.278.168-.866.523-14.884-4.7,1.11-.671Z" transform="translate(-349.995 -182.77)" fill="#a43936"/><path d="M333.818,250.8l8.724,2.752a14.59,14.59,0,0,1-5.812-.5C334.94,252.5,333.925,251.652,333.818,250.8Z" transform="translate(-318.845 -240.046)" fill="#3d5e2a"/><path d="M316.671,188.534l-1.11.671,14.884,4.7.866-.523-5.646,3.409-14.885-4.7.086-.052Z" transform="translate(-297.738 -182.994)" fill="#c8c8c8"/><path d="M298.268,230.979l14.885,4.7-1.145.691-14.884-4.7.216-.131Z" transform="translate(-285.226 -221.882)" fill="#a43936"/><path d="M224.339,254.338c.907-.548,1.244-1.195,1.056-1.788l4.554-2.75.267.084c.107.847,1.122,1.693,2.912,2.256a14.589,14.589,0,0,0,5.812.5l.277.087-4.493,2.713a8.594,8.594,0,0,0-3.678,1.007l-3.6,2.176-6.7-2.108Zm6.208-1.026a5.287,5.287,0,0,0-3.789.352c-.932.563-.741,1.315.424,1.681a5.287,5.287,0,0,0,3.788-.352c.932-.562.742-1.314-.423-1.681Z" transform="translate(-215.243 -239.126)" fill="#839749"/><path d="M286.086,289.9a5.287,5.287,0,0,1,3.791-.353c1.165.366,1.355,1.118.425,1.679a5.287,5.287,0,0,1-3.791.353C285.347,291.215,285.157,290.463,286.086,289.9Z" transform="translate(-274.573 -275.362)" fill="#3d5e2a"/><path d="M170.049,249.672l-14.9-4.687,12.114-7.315-.216.131.913.288-11.306,6.827,13.072,4.112,11.293-6.819.913.288Z" transform="translate(-155.151 -228.012)" fill="#a7c05d"/><path d="M186.181,253.6l-13.071-4.112,11.306-6.827,1.9.6-4.554,2.75c.187.593-.15,1.24-1.056,1.788l-3.6,2.174,6.7,2.108,3.6-2.174a8.6,8.6,0,0,1,3.682-1.009l4.493-2.713,1.9.6Z" transform="translate(-171.605 -232.588)" fill="#3d5e2a"/></g><g transform="translate(14.899 4.687)"><path d="M568.24,178.357l.31,5.791-9.155,5.529-.31-5.791Z" transform="translate(-540.133 -178.357)" fill="#54602f"/><path d="M494.038,246.332l.31,5.791-5.646,3.41-.31-5.791Z" transform="translate(-475.364 -240.635)" fill="gray"/><path d="M546.564,244.326l.31,5.791-1.148.708-.307-5.811Z" transform="translate(-527.612 -238.798)" fill="#692423"/><path d="M475.876,287.016l.31,5.791-1.145.691-.31-5.791Z" transform="translate(-462.848 -277.91)" fill="#692423"/><path d="M344.815,295.262l.31,5.791-11.883,7.176-.31-5.791Z" transform="translate(-332.932 -285.465)" fill="#54602f"/></g><path d="M170.049,329.648l.31,5.791-14.9-4.687-.31-5.791Z" transform="translate(-155.151 -307.988)" fill="#778942"/></g></g></svg>