<svg xmlns="http://www.w3.org/2000/svg" xmlns:xlink="http://www.w3.org/1999/xlink" width="57.712" height="44.922" viewBox="0 0 57.712 44.922"><defs><clipPath id="a"><path d="M2004.056,2262.758a8.588,8.588,0,0,1-7.77,0,2.819,2.819,0,0,1-1.6-2.1c0-.046-.005-1.5-.006-1.547,0-.814.533-.22,1.609-.841a8.588,8.588,0,0,1,7.771,0c1.066.616,1.6.012,1.609.819,0,.045,0,1.5,0,1.545A2.8,2.8,0,0,1,2004.056,2262.758Z" transform="translate(-1994.677 -2257.342)" fill="#ef8809"/></clipPath><clipPath id="b"><path d="M2000.182,2238.739a8.587,8.587,0,0,1-7.77,0,2.819,2.819,0,0,1-1.6-2.1c0-.046-.005-1.5-.006-1.547,0-.814.533-.22,1.609-.841a8.589,8.589,0,0,1,7.77,0c1.066.615,1.6.011,1.609.818,0,.045,0,1.5,0,1.545A2.8,2.8,0,0,1,2000.182,2238.739Z" transform="translate(-1990.803 -2233.323)" fill="#ef8809"/></clipPath><clipPath id="c"><path d="M2001.732,2215.495a8.588,8.588,0,0,1-7.77,0,2.819,2.819,0,0,1-1.6-2.1c0-.046-.005-1.5-.006-1.547,0-.814.533-.22,1.609-.841a8.588,8.588,0,0,1,7.77,0c1.066.616,1.6.012,1.609.819,0,.045,0,1.5,0,1.545A2.8,2.8,0,0,1,2001.732,2215.495Z" transform="translate(-1992.353 -2210.079)" fill="#ef8809"/></clipPath><clipPath id="d"><path d="M2002.507,2192.251a8.586,8.586,0,0,1-7.77,0,2.818,2.818,0,0,1-1.6-2.1c0-.046-.006-1.5-.006-1.547,0-.814.533-.22,1.609-.841a8.587,8.587,0,0,1,7.77,0c1.066.615,1.6.011,1.609.818,0,.045,0,1.5,0,1.545A2.8,2.8,0,0,1,2002.507,2192.251Z" transform="translate(-1993.128 -2186.836)" fill="#ef8809"/></clipPath><clipPath id="e"><path d="M2005.607,2168.231a8.588,8.588,0,0,1-7.77,0,2.817,2.817,0,0,1-1.6-2.1c0-.046-.005-1.5-.006-1.547,0-.814.533-.22,1.609-.841a8.586,8.586,0,0,1,7.771,0c1.066.615,1.6.011,1.609.818,0,.045,0,1.5,0,1.545A2.8,2.8,0,0,1,2005.607,2168.231Z" transform="translate(-1996.227 -2162.816)" fill="#ef8809"/></clipPath><clipPath id="f"><path d="M2003.282,2145.245a8.587,8.587,0,0,1-7.771,0,2.819,2.819,0,0,1-1.6-2.1c0-.046-.006-1.5-.006-1.547,0-.814.533-.22,1.609-.841a8.585,8.585,0,0,1,7.771,0c1.066.615,1.6.012,1.609.819,0,.045,0,1.5,0,1.544A2.8,2.8,0,0,1,2003.282,2145.245Z" transform="translate(-1993.902 -2139.83)" fill="#ef8809"/></clipPath><clipPath id="g"><path d="M2150.575,1856.958a8.926,8.926,0,0,0,8.076,0,2.929,2.929,0,0,0,1.666-2.18c0-.048.006-1.56.006-1.608,0-.846-.554-.229-1.672-.874a8.925,8.925,0,0,0-8.076,0c-1.108.64-1.665.012-1.672.851,0,.047,0,1.558,0,1.605A2.911,2.911,0,0,0,2150.575,1856.958Z" transform="translate(-2148.903 -1851.33)" fill="#ef8809"/></clipPath><clipPath id="h"><path d="M2154.87,1829.58a8.925,8.925,0,0,0,8.075,0,2.928,2.928,0,0,0,1.667-2.18c0-.047.006-1.56.006-1.608,0-.846-.554-.228-1.673-.874a8.925,8.925,0,0,0-8.075,0c-1.108.64-1.665.012-1.672.851,0,.047,0,1.558,0,1.605A2.913,2.913,0,0,0,2154.87,1829.58Z" transform="translate(-2153.198 -1823.953)" fill="#ef8809"/></clipPath></defs><g transform="translate(-1900.048 -1738.884)"><path d="M1954.892,1903.143l.124-1.494-13.949-19.047.081,4.631-14.32-.034,2.668,1.88-4.856,2.8-14.638-.034,2.668,1.88-11.144,6.434a.1.1,0,0,0,0,.176l26.548,15.327,12.065-1.953,4.854-2.712,14.089-6.439-4.2-.537A.507.507,0,0,0,1954.892,1903.143Z" transform="translate(-1.322 -133.11)" fill="#b3b3b3" opacity="0.5" style="mix-blend-mode:multiply;isolation:isolate"/><g transform="translate(1916.58 1748.921)"><g transform="translate(0.073 0)"><path d="M2151.665,1985.235l-26.6-15.355c-.046-.027-.046-6.817,0-6.843l11.192.261,26.7,15.415Z" transform="translate(-2125.034 -1956.531)" fill="#8ba34e"/><path d="M2152.066,1896.821l-26.548-15.327a.1.1,0,0,1,0-.176l11.144-6.434,26.7,15.415Z" transform="translate(-2125.436 -1874.884)" fill="#a2b767"/><path d="M2166.666,1905.187l-25.576-14.766L2151,1884.7l25.576,14.766Z" transform="translate(-2139.905 -1883.974)" fill="#375526"/><path d="M2211.254,1922.691a2.051,2.051,0,0,1-1.239-1.873l-13.146-7.589a6.391,6.391,0,0,1-3.447-.709l-2.833-1.636-4.868,2.811,2.834,1.636a2.026,2.026,0,0,1,1.234,1.932l13.241,7.645a6.247,6.247,0,0,1,3.142.718l3.42,1.974,5.081-2.934Z" transform="translate(-2181.242 -1908.226)" fill="#a2b767"/><ellipse cx="5.415" cy="3.026" rx="5.415" ry="3.026" transform="translate(13.116 8.799) rotate(-8.728)" fill="#375526"/><path d="M2250.77,1953.024a3.533,3.533,0,0,1-3.2,0,.974.974,0,0,1,0-1.846,3.533,3.533,0,0,1,3.2,0A.974.974,0,0,1,2250.77,1953.024Z" transform="translate(-2237.916 -1945.193)" fill="#375526"/><path d="M2446.424,2065.985a3.532,3.532,0,0,1-3.2,0,.974.974,0,0,1,0-1.846,3.533,3.533,0,0,1,3.2,0A.974.974,0,0,1,2446.424,2065.985Z" transform="translate(-2419.131 -2049.817)" fill="#375526"/></g><path d="M2485.865,2090.276l11.3-6.522v6.768l-11.3,6.522Z" transform="translate(-2459.162 -2068.339)" fill="#62763e"/><path d="M2231.942,1943.546l5.75,3.32,11.315-6.527-5.751-3.325Z" transform="translate(-2223.979 -1932.428)" fill="#d1ddc4"/><path d="M2231.906,1943.47l.8.469,11.322-6.535-.8-.469Z" transform="translate(-2223.946 -1932.356)" fill="#af3c3a"/><path d="M2299.056,1982.467l.815.463,11.3-6.54-.787-.449Z" transform="translate(-2286.14 -1968.482)" fill="#af3c3a"/><path d="M2231.906,2025.481v6.782l5.775,3.362-.021-6.822Z" transform="translate(-2223.946 -2014.367)" fill="#ada8a1"/><path d="M2231.906,2025.481v6.782l.817.511-.01-6.834Z" transform="translate(-2223.946 -2014.367)" fill="#963332"/><path d="M2299.1,2064.268l-.009,6.793.817.51,0-6.834Z" transform="translate(-2286.173 -2050.291)" fill="#963332"/><g transform="translate(16.307 18.764)"><path d="M2345.012,2129.121l10.371,5.823h-.063l.709-.393.711-.389,1.426-.773c.475-.258.952-.512,1.429-.766s.957-.5,1.435-.757l.006.011c-.469.269-.935.542-1.406.808s-.94.534-1.412.8l-1.415.792-.71.393-.711.39-.032.017-.031-.018-10.314-5.924Z" transform="translate(-2345.006 -2129.121)" fill="#4f632d"/></g><g transform="translate(0 12.265)"><path d="M2124.109,2041.068l3.927,2.227-3.989-2.115Z" transform="translate(-2124.048 -2041.068)" fill="#4f632d"/></g></g><path d="M2473.865,2069.048l3.479-.325,8.672-5.055-2.983-1.613Z" transform="translate(-531.468 -299.319)" fill="#b3b3b3" opacity="0.5" style="mix-blend-mode:multiply;isolation:isolate"/><g transform="translate(1915.694 1740.951)"><g transform="translate(0.073 0)"><path d="M2139.665,1877.235l-26.6-15.355c-.046-.027-.046-6.817,0-6.843l11.192.261,26.7,15.415Z" transform="translate(-2113.034 -1848.531)" fill="#8ba34e"/><path d="M2140.066,1788.821l-26.548-15.327a.1.1,0,0,1,0-.176l11.144-6.434,26.7,15.415Z" transform="translate(-2113.436 -1766.884)" fill="#a2b767"/><path d="M2154.666,1797.187l-25.576-14.766L2139,1776.7l25.576,14.767Z" transform="translate(-2127.905 -1775.974)" fill="#375526"/><path d="M2199.253,1814.691a2.051,2.051,0,0,1-1.238-1.873l-13.146-7.59a6.391,6.391,0,0,1-3.447-.709l-2.834-1.636-4.868,2.811,2.834,1.636a2.025,2.025,0,0,1,1.234,1.932l13.241,7.645a6.25,6.25,0,0,1,3.142.718l3.42,1.974,5.081-2.934Z" transform="translate(-2169.242 -1800.226)" fill="#a2b767"/><ellipse cx="5.415" cy="3.026" rx="5.415" ry="3.026" transform="translate(13.116 8.799) rotate(-8.728)" fill="#375526"/><path d="M2238.77,1845.024a3.532,3.532,0,0,1-3.2,0,.974.974,0,0,1,0-1.846,3.532,3.532,0,0,1,3.2,0A.974.974,0,0,1,2238.77,1845.024Z" transform="translate(-2225.916 -1837.193)" fill="#375526"/><path d="M2434.425,1957.985a3.532,3.532,0,0,1-3.2,0,.974.974,0,0,1,0-1.846,3.533,3.533,0,0,1,3.2,0A.974.974,0,0,1,2434.425,1957.985Z" transform="translate(-2407.131 -1941.817)" fill="#375526"/></g><path d="M2473.865,1982.276l11.3-6.522v6.767l-11.3,6.522Z" transform="translate(-2447.162 -1960.339)" fill="#62763e"/><path d="M2219.942,1835.546l5.75,3.32,11.315-6.527-5.751-3.325Z" transform="translate(-2211.979 -1824.428)" fill="#d1ddc4"/><path d="M2219.906,1835.471l.8.469,11.323-6.535-.8-.469Z" transform="translate(-2211.946 -1824.356)" fill="#af3c3a"/><path d="M2287.056,1874.467l.815.463,11.3-6.539-.787-.45Z" transform="translate(-2274.14 -1860.482)" fill="#af3c3a"/><path d="M2219.906,1917.481v6.782l5.775,3.363-.021-6.822Z" transform="translate(-2211.946 -1906.367)" fill="#ada8a1"/><path d="M2219.906,1917.481v6.782l.817.511-.01-6.834Z" transform="translate(-2211.946 -1906.367)" fill="#963332"/><path d="M2287.1,1956.268l-.009,6.792.817.511,0-6.834Z" transform="translate(-2274.173 -1942.291)" fill="#963332"/><g transform="translate(16.307 18.763)"><path d="M2333.012,2021.121l10.371,5.823h-.063l.709-.393.711-.389,1.425-.773c.475-.258.952-.512,1.429-.766s.957-.5,1.435-.757l.006.011c-.469.269-.936.542-1.406.807s-.94.535-1.412.8l-1.415.791-.71.393-.711.39-.032.017-.031-.018-10.314-5.924Z" transform="translate(-2333.006 -2021.121)" fill="#4f632d"/></g><g transform="translate(0 12.265)"><path d="M2112.109,1933.068l3.927,2.227-3.989-2.115Z" transform="translate(-2112.048 -1933.068)" fill="#4f632d"/></g></g><path d="M2491.5,2004.39v3.1l9.963-5.646V2000.4Z" transform="translate(-547.801 -242.219)" fill="#b3b3b3" opacity="0.3" style="mix-blend-mode:multiply;isolation:isolate"/><g transform="translate(1900.048 1753.497)"><g transform="translate(0.073 0)"><path d="M1927.665,2047.235l-26.6-15.355c-.047-.027-.047-6.816,0-6.843l11.191.261,26.7,15.415Z" transform="translate(-1901.034 -2018.531)" fill="#8ba34e"/><path d="M1928.066,1958.821l-26.548-15.328a.1.1,0,0,1,0-.176l11.144-6.434,26.7,15.415Z" transform="translate(-1901.435 -1936.884)" fill="#a2b767"/><path d="M1942.666,1967.186l-25.576-14.766,9.91-5.722,25.576,14.767Z" transform="translate(-1915.905 -1945.974)" fill="#375526"/><path d="M1987.253,1984.691a2.051,2.051,0,0,1-1.239-1.873l-13.145-7.589a6.392,6.392,0,0,1-3.447-.709l-2.834-1.636-4.868,2.81,2.834,1.636a2.024,2.024,0,0,1,1.234,1.932l13.242,7.645a6.247,6.247,0,0,1,3.142.718l3.42,1.974,5.081-2.934Z" transform="translate(-1957.242 -1970.226)" fill="#a2b767"/><ellipse cx="5.415" cy="3.026" rx="5.415" ry="3.026" transform="translate(13.116 8.799) rotate(-8.728)" fill="#375526"/><path d="M2026.771,2015.024a3.534,3.534,0,0,1-3.2,0,.974.974,0,0,1,0-1.846,3.532,3.532,0,0,1,3.2,0A.974.974,0,0,1,2026.771,2015.024Z" transform="translate(-2013.917 -2007.193)" fill="#375526"/><path d="M2222.425,2127.985a3.533,3.533,0,0,1-3.2,0,.974.974,0,0,1,0-1.846,3.533,3.533,0,0,1,3.2,0A.974.974,0,0,1,2222.425,2127.985Z" transform="translate(-2195.131 -2111.817)" fill="#375526"/></g><path d="M2261.865,2152.276l11.3-6.522v6.768l-11.3,6.522Z" transform="translate(-2235.162 -2130.339)" fill="#62763e"/><path d="M2007.943,2005.546l5.75,3.32,11.314-6.527-5.751-3.325Z" transform="translate(-1999.98 -1994.428)" fill="#d1ddc4"/><path d="M2007.906,2005.471l.8.468,11.322-6.535-.8-.469Z" transform="translate(-1999.946 -1994.356)" fill="#af3c3a"/><path d="M2075.056,2044.467l.815.462,11.3-6.54-.787-.449Z" transform="translate(-2062.14 -2030.482)" fill="#af3c3a"/><path d="M2007.906,2087.481v6.782l5.775,3.362-.021-6.822Z" transform="translate(-1999.946 -2076.367)" fill="#ada8a1"/><path d="M2007.906,2087.481v6.782l.817.511-.01-6.833Z" transform="translate(-1999.946 -2076.367)" fill="#963332"/><path d="M2075.1,2126.268l-.009,6.792.817.51,0-6.834Z" transform="translate(-2062.173 -2112.291)" fill="#963332"/><g transform="translate(16.307 18.764)"><path d="M2121.012,2191.121l10.371,5.823h-.063l.709-.393.711-.39,1.426-.772c.475-.258.952-.512,1.429-.766s.956-.5,1.435-.757l.006.011c-.469.269-.936.542-1.406.807s-.94.535-1.412.8l-1.415.792-.71.392-.711.39-.031.017-.031-.018-10.314-5.924Z" transform="translate(-2121.006 -2191.121)" fill="#4f632d"/></g><g transform="translate(0 12.265)"><path d="M1900.109,2103.068l3.927,2.227-3.989-2.115Z" transform="translate(-1900.048 -2103.068)" fill="#4f632d"/></g></g><path d="M2166.631,1804.314l10.431-3.543.025,3,5.231,3.165-.015-6.83,2.485-1.439-3.321.234-.01-6.786-1.835-1.012,2.214-.074V1784.5l2.067-.334-25.746-13.725v1.547Z" transform="translate(-239.058 -29.228)" fill="#b3b3b3" opacity="0.5" style="mix-blend-mode:multiply;isolation:isolate"/><path d="M2272,2171.48v3.1l10.517-6.236V2166.9Z" transform="translate(-344.501 -396.431)" fill="#b3b3b3" opacity="0.3" style="mix-blend-mode:multiply;isolation:isolate"/><g transform="translate(1903 1747.593)"><g transform="translate(0.073)"><path d="M1967.665,1967.235l-26.6-15.355c-.047-.027-.047-6.816,0-6.843l11.192.261,26.7,15.415Z" transform="translate(-1941.034 -1938.531)" fill="#8ba34e"/><path d="M1968.066,1878.821l-26.548-15.327a.1.1,0,0,1,0-.176l11.144-6.434,26.7,15.415Z" transform="translate(-1941.435 -1856.884)" fill="#a2b767"/><path d="M1982.666,1887.187l-25.576-14.766,9.91-5.722,25.576,14.766Z" transform="translate(-1955.905 -1865.974)" fill="#375526"/><path d="M2027.254,1904.691a2.051,2.051,0,0,1-1.239-1.873l-13.146-7.59a6.391,6.391,0,0,1-3.447-.709l-2.833-1.636-4.868,2.81,2.834,1.636a2.024,2.024,0,0,1,1.234,1.932l13.241,7.645a6.252,6.252,0,0,1,3.142.718l3.42,1.975,5.081-2.934Z" transform="translate(-1997.242 -1890.226)" fill="#a2b767"/><ellipse cx="5.415" cy="3.026" rx="5.415" ry="3.026" transform="translate(13.116 8.799) rotate(-8.728)" fill="#375526"/><path d="M2066.771,1935.024a3.533,3.533,0,0,1-3.2,0,.974.974,0,0,1,0-1.846,3.534,3.534,0,0,1,3.2,0A.974.974,0,0,1,2066.771,1935.024Z" transform="translate(-2053.917 -1927.193)" fill="#375526"/><path d="M2262.425,2047.985a3.533,3.533,0,0,1-3.2,0,.974.974,0,0,1,0-1.846,3.533,3.533,0,0,1,3.2,0A.974.974,0,0,1,2262.425,2047.985Z" transform="translate(-2235.131 -2031.817)" fill="#375526"/></g><path d="M2301.865,2072.276l11.3-6.522v6.768l-11.3,6.522Z" transform="translate(-2275.162 -2050.339)" fill="#62763e"/><path d="M2047.942,1925.546l5.75,3.32,11.314-6.527-5.751-3.325Z" transform="translate(-2039.979 -1914.428)" fill="#d1ddc4"/><path d="M2047.906,1925.471l.8.469,11.322-6.535-.8-.469Z" transform="translate(-2039.946 -1914.356)" fill="#af3c3a"/><path d="M2115.055,1964.467l.816.462,11.3-6.54-.787-.449Z" transform="translate(-2102.139 -1950.482)" fill="#af3c3a"/><path d="M2047.906,2007.481v6.782l5.775,3.362-.021-6.822Z" transform="translate(-2039.946 -1996.367)" fill="#ada8a1"/><path d="M2047.906,2007.481v6.782l.817.511-.01-6.834Z" transform="translate(-2039.946 -1996.367)" fill="#963332"/><path d="M2115.1,2046.268l-.009,6.792.816.51,0-6.834Z" transform="translate(-2102.173 -2032.291)" fill="#963332"/><g transform="translate(16.307 18.764)"><path d="M2161.012,2111.121l10.371,5.823h-.063l.71-.393.711-.389,1.426-.772c.475-.259.952-.512,1.429-.767s.956-.5,1.434-.756l.006.011c-.469.269-.935.542-1.406.808s-.94.535-1.412.8l-1.415.792-.709.393-.711.389-.031.018-.031-.018-10.314-5.924Z" transform="translate(-2161.006 -2111.121)" fill="#4f632d"/></g><g transform="translate(0 12.265)"><path d="M1940.109,2023.068l3.928,2.227-3.989-2.115Z" transform="translate(-1940.048 -2023.068)" fill="#4f632d"/></g></g><path d="M2289.865,2048.4l9.161-2.761,3.02-1.819-2.921-1.748Z" transform="translate(-361.048 -280.811)" fill="#b3b3b3" style="mix-blend-mode:multiply;isolation:isolate"/><g transform="translate(1902.114 1738.884)"><g transform="translate(0.073 0)"><path d="M1955.665,1849.235l-26.6-15.355c-.047-.027-.047-6.817,0-6.843l11.191.261,26.7,15.415Z" transform="translate(-1929.034 -1820.531)" fill="#8ba34e"/><path d="M1956.066,1760.821l-26.548-15.327a.1.1,0,0,1,0-.176l11.144-6.434,26.7,15.415Z" transform="translate(-1929.435 -1738.884)" fill="#a2b767"/><path d="M1970.666,1769.186l-25.576-14.766,9.91-5.722,25.576,14.767Z" transform="translate(-1943.905 -1747.974)" fill="#375526"/><path d="M2015.254,1786.691a2.051,2.051,0,0,1-1.239-1.873l-13.146-7.59a6.391,6.391,0,0,1-3.447-.709l-2.834-1.636-4.868,2.81,2.834,1.636a2.025,2.025,0,0,1,1.234,1.932l13.241,7.645a6.25,6.25,0,0,1,3.142.718l3.42,1.974,5.081-2.933Z" transform="translate(-1985.242 -1772.226)" fill="#a2b767"/><ellipse cx="5.415" cy="3.026" rx="5.415" ry="3.026" transform="translate(13.116 8.799) rotate(-8.728)" fill="#375526"/><path d="M2054.771,1817.024a3.533,3.533,0,0,1-3.2,0,.974.974,0,0,1,0-1.846,3.534,3.534,0,0,1,3.2,0A.974.974,0,0,1,2054.771,1817.024Z" transform="translate(-2041.917 -1809.193)" fill="#375526"/><path d="M2250.425,1929.985a3.534,3.534,0,0,1-3.2,0,.974.974,0,0,1,0-1.846,3.533,3.533,0,0,1,3.2,0A.974.974,0,0,1,2250.425,1929.985Z" transform="translate(-2223.13 -1913.817)" fill="#375526"/></g><path d="M2289.865,1954.275l11.3-6.521v6.767l-11.3,6.522Z" transform="translate(-2263.162 -1932.339)" fill="#62763e"/><path d="M2035.942,1807.546l5.75,3.32,11.315-6.527-5.752-3.325Z" transform="translate(-2027.979 -1796.428)" fill="#d1ddc4"/><path d="M2035.906,1807.471l.8.469,11.322-6.535-.8-.469Z" transform="translate(-2027.946 -1796.356)" fill="#af3c3a"/><path d="M2103.056,1846.467l.815.462,11.3-6.539-.787-.45Z" transform="translate(-2090.14 -1832.482)" fill="#af3c3a"/><path d="M2035.906,1889.481v6.782l5.775,3.363-.021-6.822Z" transform="translate(-2027.946 -1878.367)" fill="#ada8a1"/><path d="M2035.906,1889.481v6.782l.817.511-.01-6.834Z" transform="translate(-2027.946 -1878.367)" fill="#963332"/><path d="M2103.1,1928.267l-.009,6.792.817.511,0-6.834Z" transform="translate(-2090.173 -1914.29)" fill="#963332"/><g transform="translate(16.307 18.763)"><path d="M2149.012,1993.121l10.371,5.823h-.063l.709-.393.711-.39,1.426-.773c.475-.258.952-.512,1.429-.766s.956-.5,1.435-.757l.006.011c-.469.269-.935.542-1.406.807s-.939.535-1.412.8l-1.415.791-.71.393-.711.39-.032.017-.031-.018-10.314-5.924Z" transform="translate(-2149.006 -1993.121)" fill="#4f632d"/></g><g transform="translate(0 12.265)"><path d="M1928.109,1905.068l3.927,2.227-3.989-2.115Z" transform="translate(-1928.048 -1905.068)" fill="#4f632d"/></g></g><g transform="translate(1906.746 1767.066)"><path d="M2009.636,2147.773v-7.714l-.015-.009a2.8,2.8,0,0,0-1.6-2.124,7.416,7.416,0,0,0-2.915-.879,2.738,2.738,0,0,1,0,.316c0,.141,0,.305,0,.465-.293.565-.233.909-.228,2.158a6.18,6.18,0,0,0-.058,1.535,1.947,1.947,0,0,0-.117.656c.006,1.527-.068,1.8.287,2.415,0,.414,0,.879,0,.905,0,.05.01.1.018.149a9.336,9.336,0,0,0-7.339.931c-2.418,1.551-2.527,3.878-.243,5.2s6.073.958,8.491-.593c.1-.064.2-.13.289-.2.16-.115,2.292-2.062,2.429-2.183A9.821,9.821,0,0,0,2009.636,2147.773Z" transform="translate(-1995.416 -2135.843)" fill="#ccc" opacity="0.4" style="mix-blend-mode:multiply;isolation:isolate"/><g transform="translate(0.286 8.673)"><g transform="translate(0 1.41)"><path d="M2004.056,2262.758a8.588,8.588,0,0,1-7.77,0,2.819,2.819,0,0,1-1.6-2.1c0-.046-.005-1.5-.006-1.547,0-.814.533-.22,1.609-.841a8.588,8.588,0,0,1,7.771,0c1.066.616,1.6.012,1.609.819,0,.045,0,1.5,0,1.545A2.8,2.8,0,0,1,2004.056,2262.758Z" transform="translate(-1994.677 -2257.342)" fill="#ef8809"/><g clip-path="url(#a)"><g transform="translate(-0.078 1.406)"><path d="M1993.713,2279.233a.091.091,0,0,1-.091-.091v-2.652a.091.091,0,1,1,.182,0v2.652A.091.091,0,0,1,1993.713,2279.233Z" transform="translate(-1993.622 -2276.399)" fill="#ff9e23"/><path d="M1997.689,2280.188a.092.092,0,0,1,.084-.091h.009a.092.092,0,0,1,.091.092v2.651a.092.092,0,0,1-.091.091h-.009a.092.092,0,0,1-.084-.091Z" transform="translate(-1997.389 -2279.823)" fill="#ff9e23"/><path d="M2001.755,2283.884a.093.093,0,0,1,.085-.092h.009a.092.092,0,0,1,.092.092v2.65a.092.092,0,0,1-.092.092h-.009a.093.093,0,0,1-.085-.092Z" transform="translate(-2001.155 -2283.246)" fill="#ff9e23"/><path d="M2005.821,2287.581a.094.094,0,0,1,.087-.093h.009a.093.093,0,0,1,.093.093v2.649a.093.093,0,0,1-.093.093h-.009a.094.094,0,0,1-.087-.093Z" transform="translate(-2004.921 -2286.669)" fill="#ff9e23"/><path d="M2009.887,2291.279a.094.094,0,0,1,.089-.093h.009a.094.094,0,0,1,.093.094v2.648a.093.093,0,0,1-.093.093h-.009a.094.094,0,0,1-.089-.093Z" transform="translate(-2008.687 -2290.094)" fill="#ff9e23"/><path d="M2013.953,2294.976a.1.1,0,0,1,.091-.094h.009a.094.094,0,0,1,.094.094v2.647a.094.094,0,0,1-.094.093h-.009a.1.1,0,0,1-.091-.093Z" transform="translate(-2012.452 -2293.518)" fill="#ff9e23"/><path d="M2018.02,2298.672a.1.1,0,0,1,.092-.094h.009a.1.1,0,0,1,.094.094v2.646a.094.094,0,0,1-.094.094h-.009a.1.1,0,0,1-.092-.094Z" transform="translate(-2016.219 -2296.94)" fill="#ff9e23"/><path d="M2022.086,2302.37a.1.1,0,0,1,.094-.095h.01a.1.1,0,0,1,.095.095v2.645a.1.1,0,0,1-.095.095h-.01a.1.1,0,0,1-.094-.095Z" transform="translate(-2019.986 -2300.365)" fill="#ff9e23"/><path d="M.1,0h0A.1.1,0,0,1,.2.1V2.734a.1.1,0,0,1-.1.1h0a.1.1,0,0,1-.1-.1V.1A.1.1,0,0,1,.1,0Z" transform="translate(2.401 2.183)" fill="#ff9e23"/><rect width="0.201" height="2.834" rx="0.101" transform="translate(2.787 2.239)" fill="#ff9e23"/><path d="M.1,0h0A.1.1,0,0,1,.2.1V2.733a.1.1,0,0,1-.1.1h0a.1.1,0,0,1-.1-.1V.1A.1.1,0,0,1,.1,0Z" transform="translate(3.173 2.296)" fill="#ff9e23"/><path d="M.1,0h0A.1.1,0,0,1,.2.1V2.733a.1.1,0,0,1-.1.1h0a.1.1,0,0,1-.1-.1V.1A.1.1,0,0,1,.1,0Z" transform="translate(3.559 2.353)" fill="#ff9e23"/><path d="M.1,0h0A.1.1,0,0,1,.2.1v2.63a.1.1,0,0,1-.1.1h0a.1.1,0,0,1-.1-.1V.1A.1.1,0,0,1,.1,0Z" transform="translate(3.945 2.41)" fill="#ff9e23"/><rect width="0.206" height="2.834" rx="0.103" transform="translate(4.33 2.467)" fill="#ff9e23"/><path d="M.1,0h0a.1.1,0,0,1,.1.1V2.731a.1.1,0,0,1-.1.1h0a.1.1,0,0,1-.1-.1V.1A.1.1,0,0,1,.1,0Z" transform="translate(4.716 2.524)" fill="#ff9e23"/><path d="M.1,0h0a.1.1,0,0,1,.1.1V2.73a.1.1,0,0,1-.1.1h0a.1.1,0,0,1-.1-.1V.1A.1.1,0,0,1,.1,0Z" transform="translate(5.102 2.58)" fill="#ff9e23"/><rect width="0.209" height="2.834" rx="0.105" transform="translate(5.488 2.637)" fill="#ff9e23"/><rect width="0.208" height="2.834" rx="0.104" transform="translate(5.881 2.579)" fill="#ff9e23"/><rect width="0.207" height="2.834" rx="0.103" transform="translate(6.274 2.52)" fill="#ff9e23"/><path d="M.1,0h0a.1.1,0,0,1,.1.1V2.731a.1.1,0,0,1-.1.1h0a.1.1,0,0,1-.1-.1V.1A.1.1,0,0,1,.1,0Z" transform="translate(6.666 2.461)" fill="#ff9e23"/><rect width="0.205" height="2.834" rx="0.102" transform="translate(7.059 2.402)" fill="#ff9e23"/><path d="M.1,0h0A.1.1,0,0,1,.2.1V2.733a.1.1,0,0,1-.1.1h0a.1.1,0,0,1-.1-.1V.1A.1.1,0,0,1,.1,0Z" transform="translate(7.452 2.344)" fill="#ff9e23"/><path d="M.1,0h0A.1.1,0,0,1,.2.1V2.733a.1.1,0,0,1-.1.1h0a.1.1,0,0,1-.1-.1V.1A.1.1,0,0,1,.1,0Z" transform="translate(7.845 2.285)" fill="#ff9e23"/><path d="M.1,0h0A.1.1,0,0,1,.2.1V2.734a.1.1,0,0,1-.1.1h0a.1.1,0,0,1-.1-.1V.1A.1.1,0,0,1,.1,0Z" transform="translate(8.237 2.226)" fill="#ff9e23"/><path d="M.1,0h0A.1.1,0,0,1,.2.1V2.734a.1.1,0,0,1-.1.1h0a.1.1,0,0,1-.1-.1V.1A.1.1,0,0,1,.1,0Z" transform="translate(8.63 2.167)" fill="#ff9e23"/><path d="M2114.371,2302.447a.1.1,0,0,1,.094-.095h.009a.1.1,0,0,1,.095.095v2.644a.1.1,0,0,1-.095.095h-.009a.1.1,0,0,1-.094-.095Z" transform="translate(-2105.459 -2300.437)" fill="#ff9e23"/><path d="M2118.185,2299.031a.1.1,0,0,1,.093-.094h.009a.1.1,0,0,1,.094.094v2.646a.094.094,0,0,1-.094.094h-.009a.1.1,0,0,1-.093-.094Z" transform="translate(-2108.992 -2297.273)" fill="#ff9e23"/><path d="M2122,2295.617a.1.1,0,0,1,.091-.094h.009a.094.094,0,0,1,.094.094v2.647a.094.094,0,0,1-.094.094h-.009a.1.1,0,0,1-.091-.094Z" transform="translate(-2112.525 -2294.111)" fill="#ff9e23"/><path d="M2125.815,2292.2a.094.094,0,0,1,.088-.093h.009a.093.093,0,0,1,.093.093v2.648a.093.093,0,0,1-.093.093h-.009a.094.094,0,0,1-.088-.093Z" transform="translate(-2116.059 -2290.949)" fill="#ff9e23"/><path d="M2129.629,2288.788a.094.094,0,0,1,.087-.092h.009a.093.093,0,0,1,.093.093v2.649a.093.093,0,0,1-.093.092h-.009a.094.094,0,0,1-.087-.092Z" transform="translate(-2119.591 -2287.787)" fill="#ff9e23"/><path d="M2133.443,2285.373a.093.093,0,0,1,.085-.092h.009a.092.092,0,0,1,.092.092v2.65a.092.092,0,0,1-.092.092h-.009a.093.093,0,0,1-.085-.092Z" transform="translate(-2123.124 -2284.626)" fill="#ff9e23"/><path d="M2137.258,2281.958a.093.093,0,0,1,.084-.091h.009a.092.092,0,0,1,.092.092v2.652a.092.092,0,0,1-.092.091h-.009a.092.092,0,0,1-.084-.091Z" transform="translate(-2126.657 -2281.463)" fill="#ff9e23"/><path d="M2141.164,2281.287a.091.091,0,0,1-.091-.091v-2.652a.091.091,0,1,1,.182,0v2.652A.091.091,0,0,1,2141.164,2281.287Z" transform="translate(-2130.191 -2278.301)" fill="#ff9e23"/></g></g></g><ellipse cx="5.494" cy="3.172" rx="5.494" ry="3.172" transform="translate(0)" fill="#ff9e23"/><path d="M2007.185,2245.465a8.175,8.175,0,0,1-7.4,0c-2.042-1.179-2.043-3.092,0-4.271a8.174,8.174,0,0,1,7.4,0C2009.228,2242.373,2009.228,2244.286,2007.185,2245.465Z" transform="translate(-1997.992 -2240.157)" fill="#ffb43f"/><path d="M2017.82,2251.606a6.771,6.771,0,0,1-6.127,0c-1.692-.977-1.692-2.561,0-3.537a6.77,6.77,0,0,1,6.127,0C2019.512,2249.045,2019.512,2250.629,2017.82,2251.606Z" transform="translate(-2009.262 -2246.665)" fill="#e68913"/><path d="M2017.88,2251.149a6.77,6.77,0,0,0-6.126,0,1.715,1.715,0,0,0,0,3.31,6.769,6.769,0,0,0,6.127,0,1.715,1.715,0,0,0,0-3.31Z" transform="translate(-2009.322 -2249.518)" fill="#ff9e23"/><path d="M2031.229,2260.694l.3.014c.034.02.013.184.014.21a.09.09,0,0,1-.053.077l-.188.109a1.631,1.631,0,0,1,.472.44c.139.223-.137.484-.545.51a.709.709,0,0,1-.688-.276.645.645,0,0,0-.113-.18l-.906.523q.83.9-.153,1.467a2.831,2.831,0,0,1-2.479.045l-.18.1a.312.312,0,0,1-.283,0l-.228-.132a.1.1,0,0,1-.059-.081c0-.03-.016-.19.023-.212l.209.03a1.7,1.7,0,0,1-.7-.713.683.683,0,0,1-.02-.21c.019-.167.249-.215.556-.235a.682.682,0,0,1,.679.284,1.043,1.043,0,0,0,.3.4l1.053-.608c-1.24-1.2.985-2.284,2.548-1.463l.182-.105A.286.286,0,0,1,2031.229,2260.694Zm-2.063,1.035.771-.445C2029.388,2261.129,2028.921,2261.431,2029.166,2261.729Zm-.592.939-.814.47C2028.285,2263.32,2028.865,2263.024,2028.574,2262.668Z" transform="translate(-2023.365 -2258.869)" fill="#e68913"/><path d="M2031.23,2258.383l.262.152a.079.079,0,0,1,0,.149l-.188.109a1.63,1.63,0,0,1,.461.461c.139.223-.126.463-.534.489a.708.708,0,0,1-.687-.275.657.657,0,0,0-.113-.18l-.906.523q.83.9-.154,1.467a2.832,2.832,0,0,1-2.479.045l-.18.1a.314.314,0,0,1-.283,0l-.228-.132a.086.086,0,0,1,0-.164l.173-.1a1.7,1.7,0,0,1-.7-.713c-.1-.21.162-.42.536-.444a.679.679,0,0,1,.679.284,1.044,1.044,0,0,0,.3.4l1.053-.608c-1.24-1.2.985-2.284,2.548-1.464l.182-.1A.287.287,0,0,1,2031.23,2258.383Zm-2.063,1.035.771-.445C2029.389,2258.819,2028.921,2259.121,2029.167,2259.418Zm-.592.939-.814.47C2028.286,2261.009,2028.865,2260.713,2028.574,2260.357Z" transform="translate(-2023.366 -2256.729)" fill="#ffb43f"/></g><g transform="translate(0 6.9)"><g transform="translate(0 1.41)"><path d="M2000.182,2238.739a8.587,8.587,0,0,1-7.77,0,2.819,2.819,0,0,1-1.6-2.1c0-.046-.005-1.5-.006-1.547,0-.814.533-.22,1.609-.841a8.589,8.589,0,0,1,7.77,0c1.066.615,1.6.011,1.609.818,0,.045,0,1.5,0,1.545A2.8,2.8,0,0,1,2000.182,2238.739Z" transform="translate(-1990.803 -2233.323)" fill="#ef8809"/><g clip-path="url(#b)"><g transform="translate(-0.078 1.407)"><path d="M1989.839,2255.215a.091.091,0,0,1-.091-.091v-2.652a.091.091,0,0,1,.182,0v2.652A.091.091,0,0,1,1989.839,2255.215Z" transform="translate(-1989.748 -2252.381)" fill="#ff9e23"/><path d="M1993.815,2256.168a.092.092,0,0,1,.084-.091h.009a.091.091,0,0,1,.091.091v2.652a.091.091,0,0,1-.091.091h-.009a.092.092,0,0,1-.084-.091Z" transform="translate(-1993.515 -2255.804)" fill="#ff9e23"/><path d="M1997.881,2259.865a.092.092,0,0,1,.086-.091h.009a.092.092,0,0,1,.092.092v2.65a.092.092,0,0,1-.092.092h-.009a.093.093,0,0,1-.086-.092Z" transform="translate(-1997.281 -2259.227)" fill="#ff9e23"/><path d="M2001.947,2263.563a.094.094,0,0,1,.087-.092h.009a.093.093,0,0,1,.093.092v2.649a.093.093,0,0,1-.093.092h-.009a.093.093,0,0,1-.087-.092Z" transform="translate(-2001.047 -2262.652)" fill="#ff9e23"/><path d="M2006.014,2267.259a.094.094,0,0,1,.089-.093h.009a.094.094,0,0,1,.093.093v2.648a.094.094,0,0,1-.093.093h-.009a.094.094,0,0,1-.089-.093Z" transform="translate(-2004.814 -2266.075)" fill="#ff9e23"/><path d="M2010.079,2270.957a.1.1,0,0,1,.091-.094h.009a.094.094,0,0,1,.094.094v2.647a.094.094,0,0,1-.094.094h-.009a.1.1,0,0,1-.091-.094Z" transform="translate(-2008.578 -2269.499)" fill="#ff9e23"/><path d="M2014.146,2274.655a.1.1,0,0,1,.092-.094h.009a.094.094,0,0,1,.094.094v2.646a.094.094,0,0,1-.094.094h-.009a.1.1,0,0,1-.092-.094Z" transform="translate(-2012.345 -2272.923)" fill="#ff9e23"/><path d="M2018.212,2278.351a.1.1,0,0,1,.094-.095h.009a.1.1,0,0,1,.095.095V2281a.1.1,0,0,1-.095.094h-.009a.1.1,0,0,1-.094-.094Z" transform="translate(-2016.111 -2276.347)" fill="#ff9e23"/><rect width="0.2" height="2.834" rx="0.1" transform="translate(2.401 2.182)" fill="#ff9e23"/><path d="M.1,0h0A.1.1,0,0,1,.2.1V2.734a.1.1,0,0,1-.1.1h0a.1.1,0,0,1-.1-.1V.1A.1.1,0,0,1,.1,0Z" transform="translate(2.787 2.239)" fill="#ff9e23"/><path d="M.1,0h0A.1.1,0,0,1,.2.1V2.733a.1.1,0,0,1-.1.1h0a.1.1,0,0,1-.1-.1V.1A.1.1,0,0,1,.1,0Z" transform="translate(3.173 2.296)" fill="#ff9e23"/><path d="M.1,0h0A.1.1,0,0,1,.2.1V2.733a.1.1,0,0,1-.1.1h0a.1.1,0,0,1-.1-.1V.1A.1.1,0,0,1,.1,0Z" transform="translate(3.559 2.353)" fill="#ff9e23"/><rect width="0.205" height="2.834" rx="0.102" transform="translate(3.945 2.41)" fill="#ff9e23"/><rect width="0.206" height="2.834" rx="0.103" transform="translate(4.33 2.467)" fill="#ff9e23"/><rect width="0.207" height="2.834" rx="0.103" transform="translate(4.716 2.523)" fill="#ff9e23"/><path d="M.1,0h0a.1.1,0,0,1,.1.1V2.73a.1.1,0,0,1-.1.1h0a.1.1,0,0,1-.1-.1V.1A.1.1,0,0,1,.1,0Z" transform="translate(5.102 2.58)" fill="#ff9e23"/><rect width="0.209" height="2.834" rx="0.105" transform="translate(5.488 2.637)" fill="#ff9e23"/><path d="M.1,0h0a.1.1,0,0,1,.1.1V2.73a.1.1,0,0,1-.1.1h0a.1.1,0,0,1-.1-.1V.1A.1.1,0,0,1,.1,0Z" transform="translate(5.881 2.578)" fill="#ff9e23"/><rect width="0.207" height="2.834" rx="0.103" transform="translate(6.274 2.52)" fill="#ff9e23"/><path d="M.1,0h0a.1.1,0,0,1,.1.1V2.731a.1.1,0,0,1-.1.1h0a.1.1,0,0,1-.1-.1V.1A.1.1,0,0,1,.1,0Z" transform="translate(6.666 2.461)" fill="#ff9e23"/><path d="M.1,0h0A.1.1,0,0,1,.2.1v2.63a.1.1,0,0,1-.1.1h0a.1.1,0,0,1-.1-.1V.1A.1.1,0,0,1,.1,0Z" transform="translate(7.059 2.402)" fill="#ff9e23"/><path d="M.1,0h0A.1.1,0,0,1,.2.1V2.733a.1.1,0,0,1-.1.1h0a.1.1,0,0,1-.1-.1V.1A.1.1,0,0,1,.1,0Z" transform="translate(7.452 2.344)" fill="#ff9e23"/><path d="M.1,0h0A.1.1,0,0,1,.2.1V2.733a.1.1,0,0,1-.1.1h0a.1.1,0,0,1-.1-.1V.1A.1.1,0,0,1,.1,0Z" transform="translate(7.845 2.285)" fill="#ff9e23"/><rect width="0.201" height="2.834" rx="0.101" transform="translate(8.237 2.226)" fill="#ff9e23"/><path d="M.1,0h0A.1.1,0,0,1,.2.1V2.734a.1.1,0,0,1-.1.1h0a.1.1,0,0,1-.1-.1V.1A.1.1,0,0,1,.1,0Z" transform="translate(8.63 2.167)" fill="#ff9e23"/><path d="M2110.5,2278.428a.1.1,0,0,1,.094-.095h.009a.1.1,0,0,1,.095.095v2.645a.1.1,0,0,1-.095.095h-.009a.1.1,0,0,1-.094-.095Z" transform="translate(-2101.585 -2276.417)" fill="#ff9e23"/><path d="M2114.312,2275.013a.1.1,0,0,1,.092-.094h.009a.1.1,0,0,1,.094.094v2.646a.094.094,0,0,1-.094.094h-.009a.1.1,0,0,1-.092-.094Z" transform="translate(-2105.119 -2273.255)" fill="#ff9e23"/><path d="M2118.126,2271.6a.1.1,0,0,1,.091-.094h.009a.094.094,0,0,1,.094.094v2.647a.094.094,0,0,1-.094.094h-.009a.1.1,0,0,1-.091-.093Z" transform="translate(-2108.651 -2270.094)" fill="#ff9e23"/><path d="M2121.94,2268.184a.1.1,0,0,1,.089-.093h.009a.093.093,0,0,1,.093.093v2.648a.093.093,0,0,1-.093.093h-.009a.1.1,0,0,1-.089-.093Z" transform="translate(-2112.184 -2266.931)" fill="#ff9e23"/><path d="M2125.755,2264.77a.093.093,0,0,1,.087-.092h.009a.093.093,0,0,1,.093.093v2.649a.093.093,0,0,1-.093.092h-.009a.094.094,0,0,1-.087-.092Z" transform="translate(-2115.717 -2263.77)" fill="#ff9e23"/><path d="M2129.57,2261.354a.093.093,0,0,1,.085-.092h.009a.093.093,0,0,1,.092.092V2264a.093.093,0,0,1-.092.092h-.009a.093.093,0,0,1-.085-.092Z" transform="translate(-2119.25 -2260.606)" fill="#ff9e23"/><path d="M2133.385,2257.939a.092.092,0,0,1,.084-.091h.009a.092.092,0,0,1,.091.092v2.651a.091.091,0,0,1-.091.091h-.009a.092.092,0,0,1-.084-.091Z" transform="translate(-2122.784 -2257.444)" fill="#ff9e23"/><path d="M2137.29,2257.268a.092.092,0,0,1-.092-.091v-2.652a.091.091,0,0,1,.182,0v2.652A.091.091,0,0,1,2137.29,2257.268Z" transform="translate(-2126.316 -2254.283)" fill="#ff9e23"/></g></g></g><path d="M2000.182,2219.64a8.587,8.587,0,0,1-7.77,0c-2.146-1.239-2.146-3.247,0-4.486a8.587,8.587,0,0,1,7.77,0C2002.328,2216.393,2002.328,2218.4,2000.182,2219.64Z" transform="translate(-1990.803 -2214.224)" fill="#ff9e23"/><path d="M2003.311,2221.446a8.176,8.176,0,0,1-7.4,0c-2.043-1.179-2.043-3.091,0-4.271a8.175,8.175,0,0,1,7.4,0C2005.353,2218.355,2005.354,2220.267,2003.311,2221.446Z" transform="translate(-1994.118 -2216.138)" fill="#ffb43f"/><path d="M2013.947,2227.587a6.771,6.771,0,0,1-6.127,0c-1.692-.977-1.692-2.56,0-3.537a6.772,6.772,0,0,1,6.127,0C2015.638,2225.027,2015.638,2226.61,2013.947,2227.587Z" transform="translate(-2005.389 -2222.646)" fill="#e68913"/><path d="M2014.006,2227.13a6.771,6.771,0,0,0-6.127,0,1.715,1.715,0,0,0,0,3.31,6.77,6.77,0,0,0,6.127,0,1.715,1.715,0,0,0,0-3.31Z" transform="translate(-2005.448 -2225.499)" fill="#ff9e23"/><path d="M2027.356,2236.675l.3.014c.034.02.013.184.014.21a.09.09,0,0,1-.053.077l-.188.108a1.631,1.631,0,0,1,.472.44c.139.223-.137.483-.545.51a.71.71,0,0,1-.688-.276.655.655,0,0,0-.113-.18l-.906.523q.831.9-.154,1.468a2.833,2.833,0,0,1-2.479.045l-.18.1a.315.315,0,0,1-.283,0l-.228-.132a.1.1,0,0,1-.059-.082c0-.03-.016-.189.023-.212l.209.03a1.7,1.7,0,0,1-.7-.713.687.687,0,0,1-.02-.21c.019-.167.249-.215.556-.235a.68.68,0,0,1,.679.284,1.041,1.041,0,0,0,.3.4l1.053-.608c-1.24-1.2.985-2.284,2.548-1.463l.182-.105A.284.284,0,0,1,2027.356,2236.675Zm-2.063,1.035.771-.445C2025.515,2237.11,2025.047,2237.412,2025.292,2237.709Zm-.592.939-.814.471C2024.412,2239.3,2024.991,2239,2024.7,2238.648Z" transform="translate(-2019.491 -2234.85)" fill="#e68913"/><path d="M2027.356,2234.364l.262.151a.079.079,0,0,1,0,.149l-.188.109a1.619,1.619,0,0,1,.461.461c.139.223-.125.463-.534.489a.711.711,0,0,1-.688-.276.635.635,0,0,0-.113-.18l-.906.522q.831.9-.154,1.468a2.831,2.831,0,0,1-2.478.045l-.18.1a.314.314,0,0,1-.283,0l-.228-.131a.086.086,0,0,1,0-.164l.173-.1a1.7,1.7,0,0,1-.7-.713c-.1-.21.162-.421.536-.445a.681.681,0,0,1,.679.284,1.045,1.045,0,0,0,.3.4l1.052-.608c-1.24-1.2.985-2.284,2.548-1.464l.182-.105A.285.285,0,0,1,2027.356,2234.364Zm-2.063,1.035.771-.445C2025.515,2234.8,2025.047,2235.1,2025.293,2235.4Zm-.592.939-.815.47C2024.412,2236.99,2024.991,2236.695,2024.7,2236.338Z" transform="translate(-2019.491 -2232.71)" fill="#ffb43f"/></g><g transform="translate(0.114 5.185)"><g transform="translate(0 1.41)"><path d="M2001.732,2215.495a8.588,8.588,0,0,1-7.77,0,2.819,2.819,0,0,1-1.6-2.1c0-.046-.005-1.5-.006-1.547,0-.814.533-.22,1.609-.841a8.588,8.588,0,0,1,7.77,0c1.066.616,1.6.012,1.609.819,0,.045,0,1.5,0,1.545A2.8,2.8,0,0,1,2001.732,2215.495Z" transform="translate(-1992.353 -2210.079)" fill="#ef8809"/><g clip-path="url(#c)"><g transform="translate(-0.078 1.406)"><path d="M1991.389,2231.97a.091.091,0,0,1-.091-.091v-2.652a.091.091,0,1,1,.182,0v2.652A.091.091,0,0,1,1991.389,2231.97Z" transform="translate(-1991.298 -2229.136)" fill="#ff9e23"/><path d="M1995.364,2232.925a.092.092,0,0,1,.084-.091h.009a.092.092,0,0,1,.091.092v2.651a.092.092,0,0,1-.091.091h-.009a.092.092,0,0,1-.084-.091Z" transform="translate(-1995.064 -2232.56)" fill="#ff9e23"/><path d="M1999.431,2236.621a.093.093,0,0,1,.086-.092h.009a.092.092,0,0,1,.092.092v2.65a.092.092,0,0,1-.092.092h-.009a.093.093,0,0,1-.086-.092Z" transform="translate(-1998.831 -2235.983)" fill="#ff9e23"/><path d="M2003.5,2240.318a.094.094,0,0,1,.088-.092h.009a.093.093,0,0,1,.093.093v2.649a.093.093,0,0,1-.093.093h-.009a.093.093,0,0,1-.088-.092Z" transform="translate(-2002.596 -2239.407)" fill="#ff9e23"/><path d="M2007.563,2244.015a.094.094,0,0,1,.089-.093h.009a.094.094,0,0,1,.093.094v2.647a.093.093,0,0,1-.093.093h-.009a.1.1,0,0,1-.089-.093Z" transform="translate(-2006.363 -2242.83)" fill="#ff9e23"/><path d="M2011.629,2247.713a.1.1,0,0,1,.09-.094h.01a.094.094,0,0,1,.094.094v2.647a.094.094,0,0,1-.094.094h-.01a.1.1,0,0,1-.09-.094Z" transform="translate(-2010.129 -2246.255)" fill="#ff9e23"/><path d="M2015.695,2251.409a.1.1,0,0,1,.092-.094h.009a.1.1,0,0,1,.094.094v2.646a.1.1,0,0,1-.094.094h-.009a.1.1,0,0,1-.092-.094Z" transform="translate(-2013.894 -2249.678)" fill="#ff9e23"/><path d="M2019.762,2255.107a.1.1,0,0,1,.094-.095h.009a.1.1,0,0,1,.095.1v2.645a.1.1,0,0,1-.095.095h-.009a.1.1,0,0,1-.094-.095Z" transform="translate(-2017.661 -2253.102)" fill="#ff9e23"/><path d="M.1,0h0A.1.1,0,0,1,.2.1V2.734a.1.1,0,0,1-.1.1h0a.1.1,0,0,1-.1-.1V.1A.1.1,0,0,1,.1,0Z" transform="translate(2.401 2.183)" fill="#ff9e23"/><path d="M.1,0h0A.1.1,0,0,1,.2.1V2.734a.1.1,0,0,1-.1.1h0a.1.1,0,0,1-.1-.1V.1A.1.1,0,0,1,.1,0Z" transform="translate(2.787 2.239)" fill="#ff9e23"/><rect width="0.202" height="2.834" rx="0.101" transform="translate(3.173 2.296)" fill="#ff9e23"/><path d="M.1,0h0A.1.1,0,0,1,.2.1V2.733a.1.1,0,0,1-.1.1h0a.1.1,0,0,1-.1-.1V.1A.1.1,0,0,1,.1,0Z" transform="translate(3.559 2.353)" fill="#ff9e23"/><rect width="0.205" height="2.834" rx="0.102" transform="translate(3.944 2.41)" fill="#ff9e23"/><rect width="0.206" height="2.834" rx="0.103" transform="translate(4.33 2.467)" fill="#ff9e23"/><rect width="0.207" height="2.834" rx="0.103" transform="translate(4.716 2.524)" fill="#ff9e23"/><path d="M.1,0h0a.1.1,0,0,1,.1.1V2.73a.1.1,0,0,1-.1.1h0a.1.1,0,0,1-.1-.1V.1A.1.1,0,0,1,.1,0Z" transform="translate(5.102 2.58)" fill="#ff9e23"/><rect width="0.209" height="2.834" rx="0.105" transform="translate(5.488 2.637)" fill="#ff9e23"/><rect width="0.208" height="2.834" rx="0.104" transform="translate(5.881 2.578)" fill="#ff9e23"/><rect width="0.207" height="2.834" rx="0.103" transform="translate(6.274 2.52)" fill="#ff9e23"/><path d="M.1,0h0a.1.1,0,0,1,.1.1V2.731a.1.1,0,0,1-.1.1h0a.1.1,0,0,1-.1-.1V.1A.1.1,0,0,1,.1,0Z" transform="translate(6.666 2.461)" fill="#ff9e23"/><path d="M.1,0h0A.1.1,0,0,1,.2.1v2.63a.1.1,0,0,1-.1.1h0a.1.1,0,0,1-.1-.1V.1A.1.1,0,0,1,.1,0Z" transform="translate(7.059 2.402)" fill="#ff9e23"/><path d="M.1,0h0A.1.1,0,0,1,.2.1V2.733a.1.1,0,0,1-.1.1h0a.1.1,0,0,1-.1-.1V.1A.1.1,0,0,1,.1,0Z" transform="translate(7.452 2.344)" fill="#ff9e23"/><path d="M.1,0h0A.1.1,0,0,1,.2.1V2.733a.1.1,0,0,1-.1.1h0a.1.1,0,0,1-.1-.1V.1A.1.1,0,0,1,.1,0Z" transform="translate(7.845 2.285)" fill="#ff9e23"/><path d="M.1,0h0A.1.1,0,0,1,.2.1V2.734a.1.1,0,0,1-.1.1h0a.1.1,0,0,1-.1-.1V.1A.1.1,0,0,1,.1,0Z" transform="translate(8.237 2.226)" fill="#ff9e23"/><path d="M.1,0h0A.1.1,0,0,1,.2.1V2.734a.1.1,0,0,1-.1.1h0a.1.1,0,0,1-.1-.1V.1A.1.1,0,0,1,.1,0Z" transform="translate(8.63 2.167)" fill="#ff9e23"/><path d="M2112.047,2255.184a.1.1,0,0,1,.094-.095h.009a.1.1,0,0,1,.095.095v2.645a.1.1,0,0,1-.095.094h-.009a.1.1,0,0,1-.094-.094Z" transform="translate(-2103.135 -2253.174)" fill="#ff9e23"/><path d="M2115.861,2251.769a.1.1,0,0,1,.092-.094h.009a.1.1,0,0,1,.094.094v2.646a.1.1,0,0,1-.094.094h-.009a.1.1,0,0,1-.092-.094Z" transform="translate(-2106.668 -2250.011)" fill="#ff9e23"/><path d="M2119.676,2248.355a.1.1,0,0,1,.091-.094h.009a.094.094,0,0,1,.094.094V2251a.094.094,0,0,1-.094.094h-.009a.1.1,0,0,1-.091-.094Z" transform="translate(-2110.201 -2246.849)" fill="#ff9e23"/><path d="M2123.49,2244.94a.094.094,0,0,1,.089-.093h.009a.094.094,0,0,1,.093.093v2.648a.094.094,0,0,1-.093.093h-.009a.1.1,0,0,1-.089-.093Z" transform="translate(-2113.734 -2243.687)" fill="#ff9e23"/><path d="M2127.3,2241.525a.093.093,0,0,1,.088-.092h.009a.093.093,0,0,1,.093.093v2.649a.093.093,0,0,1-.093.093h-.009a.094.094,0,0,1-.088-.092Z" transform="translate(-2117.267 -2240.525)" fill="#ff9e23"/><path d="M2131.119,2238.11a.092.092,0,0,1,.086-.091h.009a.093.093,0,0,1,.092.092v2.65a.093.093,0,0,1-.092.092h-.009a.092.092,0,0,1-.086-.092Z" transform="translate(-2120.8 -2237.363)" fill="#ff9e23"/><path d="M2134.934,2234.695a.092.092,0,0,1,.084-.091h.009a.092.092,0,0,1,.092.092v2.651a.092.092,0,0,1-.092.092h-.009a.093.093,0,0,1-.084-.092Z" transform="translate(-2124.333 -2234.199)" fill="#ff9e23"/><path d="M2138.84,2234.023a.091.091,0,0,1-.091-.091v-2.653a.091.091,0,1,1,.182,0v2.653A.091.091,0,0,1,2138.84,2234.023Z" transform="translate(-2127.866 -2231.037)" fill="#ff9e23"/></g></g></g><path d="M2001.732,2196.4a8.587,8.587,0,0,1-7.77,0c-2.146-1.239-2.146-3.247,0-4.486a8.589,8.589,0,0,1,7.771,0C2003.878,2193.149,2003.878,2195.157,2001.732,2196.4Z" transform="translate(-1992.352 -2190.98)" fill="#ff9e23"/><path d="M2004.861,2198.2a8.175,8.175,0,0,1-7.4,0c-2.043-1.179-2.043-3.091,0-4.271a8.174,8.174,0,0,1,7.4,0C2006.9,2195.111,2006.9,2197.023,2004.861,2198.2Z" transform="translate(-1995.668 -2192.895)" fill="#ffb43f"/><path d="M2015.5,2204.343a6.772,6.772,0,0,1-6.127,0c-1.692-.978-1.692-2.561,0-3.537a6.769,6.769,0,0,1,6.127,0C2017.188,2201.782,2017.188,2203.366,2015.5,2204.343Z" transform="translate(-2006.938 -2199.403)" fill="#e68913"/><path d="M2015.556,2203.887a6.769,6.769,0,0,0-6.127,0,1.715,1.715,0,0,0,0,3.31,6.771,6.771,0,0,0,6.126,0,1.715,1.715,0,0,0,0-3.31Z" transform="translate(-2006.998 -2202.255)" fill="#ff9e23"/><path d="M2028.905,2213.431l.3.013c.034.02.013.184.014.21a.088.088,0,0,1-.053.077l-.188.109a1.624,1.624,0,0,1,.472.44c.139.223-.136.484-.545.51a.71.71,0,0,1-.688-.276.643.643,0,0,0-.113-.18l-.906.523q.831.9-.153,1.467a2.832,2.832,0,0,1-2.479.045l-.18.1a.314.314,0,0,1-.283,0l-.228-.131a.1.1,0,0,1-.059-.082c0-.03-.016-.189.023-.212l.209.031a1.7,1.7,0,0,1-.7-.713.686.686,0,0,1-.019-.21c.019-.167.249-.215.556-.235a.681.681,0,0,1,.679.284,1.043,1.043,0,0,0,.3.4l1.053-.608c-1.24-1.2.985-2.284,2.548-1.463l.182-.1A.284.284,0,0,1,2028.905,2213.431Zm-2.063,1.035.771-.445C2027.064,2213.866,2026.6,2214.168,2026.842,2214.466Zm-.592.939-.815.471C2025.961,2216.056,2026.541,2215.761,2026.25,2215.4Z" transform="translate(-2021.041 -2211.606)" fill="#e68913"/><path d="M2028.9,2211.12l.262.152a.079.079,0,0,1,0,.149l-.188.109a1.627,1.627,0,0,1,.461.461c.139.223-.125.463-.534.489a.709.709,0,0,1-.688-.275.645.645,0,0,0-.113-.18l-.906.523q.83.9-.153,1.467a2.831,2.831,0,0,1-2.479.045l-.18.1a.311.311,0,0,1-.283,0l-.228-.132a.086.086,0,0,1,0-.164l.174-.1a1.7,1.7,0,0,1-.7-.713c-.1-.21.162-.421.536-.445a.68.68,0,0,1,.679.284,1.044,1.044,0,0,0,.3.4l1.053-.608c-1.24-1.2.984-2.284,2.547-1.464l.182-.105A.286.286,0,0,1,2028.9,2211.12Zm-2.063,1.035.771-.445C2027.064,2211.556,2026.6,2211.858,2026.841,2212.155Zm-.592.939-.815.47C2025.96,2213.746,2026.54,2213.45,2026.249,2213.094Z" transform="translate(-2021.04 -2209.466)" fill="#ffb43f"/></g><g transform="translate(0.172 3.469)"><g transform="translate(0 1.41)"><path d="M2002.507,2192.251a8.586,8.586,0,0,1-7.77,0,2.818,2.818,0,0,1-1.6-2.1c0-.046-.006-1.5-.006-1.547,0-.814.533-.22,1.609-.841a8.587,8.587,0,0,1,7.77,0c1.066.615,1.6.011,1.609.818,0,.045,0,1.5,0,1.545A2.8,2.8,0,0,1,2002.507,2192.251Z" transform="translate(-1993.128 -2186.836)" fill="#ef8809"/><g clip-path="url(#d)"><g transform="translate(-0.078 1.406)"><path d="M1992.163,2208.726a.091.091,0,0,1-.091-.091v-2.652a.091.091,0,1,1,.182,0v2.652A.091.091,0,0,1,1992.163,2208.726Z" transform="translate(-1992.072 -2205.892)" fill="#ff9e23"/><path d="M1996.139,2209.68a.092.092,0,0,1,.084-.091h.009a.092.092,0,0,1,.091.091v2.651a.092.092,0,0,1-.091.092h-.009a.092.092,0,0,1-.084-.091Z" transform="translate(-1995.839 -2209.316)" fill="#ff9e23"/><path d="M2000.2,2213.377a.093.093,0,0,1,.086-.092h.009a.092.092,0,0,1,.092.092v2.65a.092.092,0,0,1-.092.092h-.009a.093.093,0,0,1-.086-.092Z" transform="translate(-1999.604 -2212.739)" fill="#ff9e23"/><path d="M2004.272,2217.074a.093.093,0,0,1,.087-.092h.009a.093.093,0,0,1,.093.093v2.649a.093.093,0,0,1-.093.092h-.009a.094.094,0,0,1-.087-.092Z" transform="translate(-2003.371 -2216.162)" fill="#ff9e23"/><path d="M2008.338,2220.771a.094.094,0,0,1,.089-.093h.009a.093.093,0,0,1,.093.093v2.648a.093.093,0,0,1-.093.093h-.009a.094.094,0,0,1-.089-.093Z" transform="translate(-2007.137 -2219.587)" fill="#ff9e23"/><path d="M2012.4,2224.469a.1.1,0,0,1,.09-.093h.009a.094.094,0,0,1,.094.094v2.647a.094.094,0,0,1-.094.094h-.009a.1.1,0,0,1-.09-.093Z" transform="translate(-2010.903 -2223.011)" fill="#ff9e23"/><path d="M2016.47,2228.165a.1.1,0,0,1,.092-.094h.009a.1.1,0,0,1,.094.094v2.646a.1.1,0,0,1-.094.094h-.009a.1.1,0,0,1-.092-.094Z" transform="translate(-2014.669 -2226.434)" fill="#ff9e23"/><path d="M2020.536,2231.863a.1.1,0,0,1,.094-.095h.009a.1.1,0,0,1,.095.095v2.645a.1.1,0,0,1-.095.095h-.009a.1.1,0,0,1-.094-.095Z" transform="translate(-2018.436 -2229.858)" fill="#ff9e23"/><path d="M.1,0h0A.1.1,0,0,1,.2.1V2.734a.1.1,0,0,1-.1.1h0a.1.1,0,0,1-.1-.1V.1A.1.1,0,0,1,.1,0Z" transform="translate(2.401 2.182)" fill="#ff9e23"/><path d="M.1,0h0A.1.1,0,0,1,.2.1V2.734a.1.1,0,0,1-.1.1h0a.1.1,0,0,1-.1-.1V.1A.1.1,0,0,1,.1,0Z" transform="translate(2.787 2.239)" fill="#ff9e23"/><rect width="0.202" height="2.834" rx="0.101" transform="translate(3.173 2.296)" fill="#ff9e23"/><rect width="0.204" height="2.834" rx="0.102" transform="translate(3.559 2.353)" fill="#ff9e23"/><rect width="0.205" height="2.834" rx="0.102" transform="translate(3.945 2.41)" fill="#ff9e23"/><path d="M.1,0h0a.1.1,0,0,1,.1.1V2.731a.1.1,0,0,1-.1.1h0a.1.1,0,0,1-.1-.1V.1A.1.1,0,0,1,.1,0Z" transform="translate(4.33 2.467)" fill="#ff9e23"/><rect width="0.207" height="2.834" rx="0.103" transform="translate(4.716 2.524)" fill="#ff9e23"/><path d="M.1,0h0a.1.1,0,0,1,.1.1V2.73a.1.1,0,0,1-.1.1h0a.1.1,0,0,1-.1-.1V.1A.1.1,0,0,1,.1,0Z" transform="translate(5.102 2.58)" fill="#ff9e23"/><rect width="0.209" height="2.834" rx="0.105" transform="translate(5.488 2.637)" fill="#ff9e23"/><path d="M.1,0h0a.1.1,0,0,1,.1.1V2.73a.1.1,0,0,1-.1.1h0a.1.1,0,0,1-.1-.1V.1A.1.1,0,0,1,.1,0Z" transform="translate(5.881 2.578)" fill="#ff9e23"/><rect width="0.207" height="2.834" rx="0.103" transform="translate(6.274 2.52)" fill="#ff9e23"/><path d="M.1,0h0a.1.1,0,0,1,.1.1V2.731a.1.1,0,0,1-.1.1h0a.1.1,0,0,1-.1-.1V.1A.1.1,0,0,1,.1,0Z" transform="translate(6.666 2.461)" fill="#ff9e23"/><path d="M.1,0h0A.1.1,0,0,1,.2.1v2.63a.1.1,0,0,1-.1.1h0a.1.1,0,0,1-.1-.1V.1A.1.1,0,0,1,.1,0Z" transform="translate(7.059 2.402)" fill="#ff9e23"/><path d="M.1,0h0A.1.1,0,0,1,.2.1V2.732a.1.1,0,0,1-.1.1h0a.1.1,0,0,1-.1-.1V.1A.1.1,0,0,1,.1,0Z" transform="translate(7.452 2.344)" fill="#ff9e23"/><rect width="0.202" height="2.834" rx="0.101" transform="translate(7.845 2.285)" fill="#ff9e23"/><rect width="0.201" height="2.834" rx="0.101" transform="translate(8.237 2.226)" fill="#ff9e23"/><rect width="0.2" height="2.834" rx="0.1" transform="translate(8.63 2.167)" fill="#ff9e23"/><path d="M2112.821,2231.94a.1.1,0,0,1,.094-.1h.009a.1.1,0,0,1,.095.1v2.644a.1.1,0,0,1-.095.095h-.009a.1.1,0,0,1-.094-.095Z" transform="translate(-2103.909 -2229.929)" fill="#ff9e23"/><path d="M2116.636,2228.525a.1.1,0,0,1,.092-.094h.01a.1.1,0,0,1,.094.094v2.645a.094.094,0,0,1-.094.094h-.01a.1.1,0,0,1-.092-.094Z" transform="translate(-2107.443 -2226.767)" fill="#ff9e23"/><path d="M2120.45,2225.111a.1.1,0,0,1,.09-.094h.009a.094.094,0,0,1,.094.094v2.647a.094.094,0,0,1-.094.094h-.009a.1.1,0,0,1-.09-.094Z" transform="translate(-2110.975 -2223.605)" fill="#ff9e23"/><path d="M2124.266,2221.7a.094.094,0,0,1,.089-.093h.009a.094.094,0,0,1,.093.093v2.648a.094.094,0,0,1-.093.093h-.009a.094.094,0,0,1-.089-.093Z" transform="translate(-2114.51 -2220.442)" fill="#ff9e23"/><path d="M2128.08,2218.28a.093.093,0,0,1,.087-.092h.009a.093.093,0,0,1,.093.092v2.649a.093.093,0,0,1-.093.093h-.009a.093.093,0,0,1-.087-.092Z" transform="translate(-2118.042 -2217.281)" fill="#ff9e23"/><path d="M2131.9,2214.865a.092.092,0,0,1,.085-.091h.009a.092.092,0,0,1,.092.092v2.65a.092.092,0,0,1-.092.092h-.009a.092.092,0,0,1-.085-.092Z" transform="translate(-2121.576 -2214.117)" fill="#ff9e23"/><path d="M2135.709,2211.45a.091.091,0,0,1,.084-.091h.009a.091.091,0,0,1,.091.092v2.651a.091.091,0,0,1-.091.091h-.009a.092.092,0,0,1-.084-.091Z" transform="translate(-2125.108 -2210.955)" fill="#ff9e23"/><path d="M2139.614,2210.78a.091.091,0,0,1-.091-.091v-2.652a.091.091,0,1,1,.182,0v2.652A.092.092,0,0,1,2139.614,2210.78Z" transform="translate(-2128.64 -2207.794)" fill="#ff9e23"/></g></g></g><path d="M2002.507,2173.152a8.588,8.588,0,0,1-7.77,0c-2.146-1.239-2.146-3.248,0-4.486a8.588,8.588,0,0,1,7.77,0C2004.652,2169.9,2004.653,2171.913,2002.507,2173.152Z" transform="translate(-1993.127 -2167.736)" fill="#ff9e23"/><path d="M2005.635,2174.958a8.174,8.174,0,0,1-7.4,0c-2.042-1.179-2.043-3.091,0-4.271a8.175,8.175,0,0,1,7.4,0C2007.678,2171.867,2007.678,2173.779,2005.635,2174.958Z" transform="translate(-1996.442 -2169.65)" fill="#ffb43f"/><path d="M2016.272,2181.1a6.771,6.771,0,0,1-6.127,0c-1.692-.977-1.692-2.561,0-3.537a6.769,6.769,0,0,1,6.127,0C2017.964,2178.538,2017.964,2180.122,2016.272,2181.1Z" transform="translate(-2007.714 -2176.157)" fill="#e68913"/><path d="M2016.331,2180.642a6.772,6.772,0,0,0-6.127,0,1.716,1.716,0,0,0,0,3.31,6.771,6.771,0,0,0,6.127,0,1.715,1.715,0,0,0,0-3.31Z" transform="translate(-2007.773 -2179.011)" fill="#ff9e23"/><path d="M2029.68,2190.186l.3.013c.034.02.013.184.014.21a.09.09,0,0,1-.053.077l-.188.109a1.621,1.621,0,0,1,.472.44c.139.223-.136.484-.545.51a.711.711,0,0,1-.688-.276.633.633,0,0,0-.113-.18l-.906.523q.83.9-.154,1.467a2.829,2.829,0,0,1-2.479.045l-.18.1a.314.314,0,0,1-.283,0l-.228-.132a.1.1,0,0,1-.059-.082c0-.03-.016-.189.023-.212l.209.03a1.7,1.7,0,0,1-.7-.713.7.7,0,0,1-.02-.21c.019-.167.249-.215.556-.235a.681.681,0,0,1,.679.284,1.036,1.036,0,0,0,.3.4l1.053-.608c-1.24-1.2.985-2.284,2.548-1.464l.182-.1A.283.283,0,0,1,2029.68,2190.186Zm-2.063,1.035.771-.445C2027.839,2190.622,2027.371,2190.924,2027.617,2191.221Zm-.592.939-.815.47C2026.736,2192.812,2027.316,2192.516,2027.025,2192.16Z" transform="translate(-2021.816 -2188.361)" fill="#e68913"/><path d="M2029.68,2187.876l.262.151a.079.079,0,0,1,0,.149l-.188.108a1.632,1.632,0,0,1,.461.461c.139.224-.126.463-.534.489a.709.709,0,0,1-.688-.276.648.648,0,0,0-.113-.18l-.906.523q.83.9-.154,1.467a2.831,2.831,0,0,1-2.479.045l-.179.1a.314.314,0,0,1-.283,0l-.228-.132a.086.086,0,0,1,0-.163l.173-.1a1.7,1.7,0,0,1-.7-.713c-.1-.21.162-.42.537-.445a.681.681,0,0,1,.679.284,1.04,1.04,0,0,0,.3.4l1.053-.608c-1.239-1.2.985-2.284,2.548-1.463l.182-.105A.285.285,0,0,1,2029.68,2187.876Zm-2.063,1.035.771-.445C2027.839,2188.312,2027.372,2188.614,2027.617,2188.911Zm-.592.939-.815.471C2026.736,2190.5,2027.316,2190.207,2027.025,2189.85Z" transform="translate(-2021.816 -2186.222)" fill="#ffb43f"/></g><g transform="translate(0.4 1.696)"><g transform="translate(0 1.41)"><path d="M2005.607,2168.231a8.588,8.588,0,0,1-7.77,0,2.817,2.817,0,0,1-1.6-2.1c0-.046-.005-1.5-.006-1.547,0-.814.533-.22,1.609-.841a8.586,8.586,0,0,1,7.771,0c1.066.615,1.6.011,1.609.818,0,.045,0,1.5,0,1.545A2.8,2.8,0,0,1,2005.607,2168.231Z" transform="translate(-1996.227 -2162.816)" fill="#ef8809"/><g clip-path="url(#e)"><g transform="translate(-0.078 1.406)"><path d="M1995.263,2184.708a.091.091,0,0,1-.091-.091v-2.652a.091.091,0,1,1,.182,0v2.652A.091.091,0,0,1,1995.263,2184.708Z" transform="translate(-1995.172 -2181.873)" fill="#ff9e23"/><path d="M1999.238,2185.661a.092.092,0,0,1,.084-.091h.009a.092.092,0,0,1,.091.092v2.651a.091.091,0,0,1-.091.091h-.009a.092.092,0,0,1-.084-.091Z" transform="translate(-1998.938 -2185.296)" fill="#ff9e23"/><path d="M2003.305,2189.358a.092.092,0,0,1,.085-.092h.009a.092.092,0,0,1,.092.092v2.65a.092.092,0,0,1-.092.092h-.009a.092.092,0,0,1-.085-.092Z" transform="translate(-2002.705 -2188.72)" fill="#ff9e23"/><path d="M2007.371,2193.056a.093.093,0,0,1,.087-.093h.009a.093.093,0,0,1,.093.093v2.649a.093.093,0,0,1-.093.093h-.009a.094.094,0,0,1-.087-.093Z" transform="translate(-2006.471 -2192.144)" fill="#ff9e23"/><path d="M2011.436,2196.752a.094.094,0,0,1,.089-.093h.009a.093.093,0,0,1,.093.093v2.648a.093.093,0,0,1-.093.093h-.009a.094.094,0,0,1-.089-.093Z" transform="translate(-2010.236 -2195.567)" fill="#ff9e23"/><path d="M2015.5,2200.449a.1.1,0,0,1,.09-.094h.009a.094.094,0,0,1,.094.094v2.646a.094.094,0,0,1-.094.094h-.009a.1.1,0,0,1-.09-.094Z" transform="translate(-2014.002 -2198.991)" fill="#ff9e23"/><path d="M2019.569,2204.147a.1.1,0,0,1,.092-.094h.009a.1.1,0,0,1,.094.094v2.646a.094.094,0,0,1-.094.094h-.009a.1.1,0,0,1-.092-.094Z" transform="translate(-2017.769 -2202.415)" fill="#ff9e23"/><path d="M2023.636,2207.844a.1.1,0,0,1,.093-.095h.009a.1.1,0,0,1,.095.095v2.645a.1.1,0,0,1-.095.095h-.009a.1.1,0,0,1-.093-.095Z" transform="translate(-2021.536 -2205.839)" fill="#ff9e23"/><path d="M.1,0h0A.1.1,0,0,1,.2.1V2.734a.1.1,0,0,1-.1.1h0a.1.1,0,0,1-.1-.1V.1A.1.1,0,0,1,.1,0Z" transform="translate(2.401 2.183)" fill="#ff9e23"/><rect width="0.201" height="2.834" rx="0.101" transform="translate(2.787 2.239)" fill="#ff9e23"/><rect width="0.202" height="2.834" rx="0.101" transform="translate(3.173 2.296)" fill="#ff9e23"/><path d="M.1,0h0A.1.1,0,0,1,.2.1V2.732a.1.1,0,0,1-.1.1h0a.1.1,0,0,1-.1-.1V.1A.1.1,0,0,1,.1,0Z" transform="translate(3.559 2.353)" fill="#ff9e23"/><rect width="0.205" height="2.834" rx="0.102" transform="translate(3.944 2.41)" fill="#ff9e23"/><rect width="0.206" height="2.834" rx="0.103" transform="translate(4.33 2.467)" fill="#ff9e23"/><path d="M.1,0h0a.1.1,0,0,1,.1.1V2.731a.1.1,0,0,1-.1.1h0a.1.1,0,0,1-.1-.1V.1A.1.1,0,0,1,.1,0Z" transform="translate(4.716 2.524)" fill="#ff9e23"/><path d="M.1,0h0a.1.1,0,0,1,.1.1V2.73a.1.1,0,0,1-.1.1h0a.1.1,0,0,1-.1-.1V.1A.1.1,0,0,1,.1,0Z" transform="translate(5.102 2.58)" fill="#ff9e23"/><rect width="0.209" height="2.834" rx="0.105" transform="translate(5.488 2.637)" fill="#ff9e23"/><rect width="0.208" height="2.834" rx="0.104" transform="translate(5.881 2.578)" fill="#ff9e23"/><rect width="0.207" height="2.834" rx="0.103" transform="translate(6.274 2.52)" fill="#ff9e23"/><rect width="0.206" height="2.834" rx="0.103" transform="translate(6.666 2.461)" fill="#ff9e23"/><path d="M.1,0h0A.1.1,0,0,1,.2.1v2.63a.1.1,0,0,1-.1.1h0a.1.1,0,0,1-.1-.1V.1A.1.1,0,0,1,.1,0Z" transform="translate(7.059 2.402)" fill="#ff9e23"/><path d="M.1,0h0A.1.1,0,0,1,.2.1V2.733a.1.1,0,0,1-.1.1h0a.1.1,0,0,1-.1-.1V.1A.1.1,0,0,1,.1,0Z" transform="translate(7.452 2.344)" fill="#ff9e23"/><rect width="0.202" height="2.834" rx="0.101" transform="translate(7.845 2.285)" fill="#ff9e23"/><path d="M.1,0h0A.1.1,0,0,1,.2.1V2.734a.1.1,0,0,1-.1.1h0a.1.1,0,0,1-.1-.1V.1A.1.1,0,0,1,.1,0Z" transform="translate(8.237 2.226)" fill="#ff9e23"/><path d="M.1,0h0A.1.1,0,0,1,.2.1V2.734a.1.1,0,0,1-.1.1h0a.1.1,0,0,1-.1-.1V.1A.1.1,0,0,1,.1,0Z" transform="translate(8.63 2.167)" fill="#ff9e23"/><path d="M2115.92,2207.921a.1.1,0,0,1,.094-.095h.01a.1.1,0,0,1,.095.095v2.644a.1.1,0,0,1-.095.095h-.01a.1.1,0,0,1-.094-.095Z" transform="translate(-2107.008 -2205.91)" fill="#ff9e23"/><path d="M2119.735,2204.506a.1.1,0,0,1,.092-.094h.01a.1.1,0,0,1,.094.094v2.646a.1.1,0,0,1-.094.094h-.01a.1.1,0,0,1-.092-.094Z" transform="translate(-2110.542 -2202.749)" fill="#ff9e23"/><path d="M2123.55,2201.091a.1.1,0,0,1,.091-.094h.009a.094.094,0,0,1,.094.094v2.647a.094.094,0,0,1-.094.094h-.009a.1.1,0,0,1-.091-.093Z" transform="translate(-2114.075 -2199.585)" fill="#ff9e23"/><path d="M2127.364,2197.676a.094.094,0,0,1,.089-.093h.009a.093.093,0,0,1,.093.093v2.648a.093.093,0,0,1-.093.093h-.009a.094.094,0,0,1-.089-.093Z" transform="translate(-2117.608 -2196.424)" fill="#ff9e23"/><path d="M2131.179,2194.262a.094.094,0,0,1,.087-.093h.009a.093.093,0,0,1,.093.093v2.649a.093.093,0,0,1-.093.093h-.009a.094.094,0,0,1-.087-.092Z" transform="translate(-2121.141 -2193.261)" fill="#ff9e23"/><path d="M2134.994,2190.847a.093.093,0,0,1,.086-.092h.009a.093.093,0,0,1,.093.092v2.65a.093.093,0,0,1-.093.092h-.009a.093.093,0,0,1-.086-.092Z" transform="translate(-2124.674 -2190.099)" fill="#ff9e23"/><path d="M2138.808,2187.433a.092.092,0,0,1,.084-.091h.009a.091.091,0,0,1,.091.091v2.652a.091.091,0,0,1-.091.091h-.009a.092.092,0,0,1-.084-.091Z" transform="translate(-2128.207 -2186.938)" fill="#ff9e23"/><path d="M2142.714,2186.761a.091.091,0,0,1-.091-.091v-2.652a.091.091,0,1,1,.182,0v2.652A.091.091,0,0,1,2142.714,2186.761Z" transform="translate(-2131.74 -2183.775)" fill="#ff9e23"/></g></g></g><path d="M2005.606,2149.133a8.586,8.586,0,0,1-7.77,0c-2.146-1.239-2.146-3.247,0-4.486a8.588,8.588,0,0,1,7.771,0C2007.751,2145.885,2007.751,2147.894,2005.606,2149.133Z" transform="translate(-1996.226 -2143.717)" fill="#ff9e23"/><path d="M2008.735,2150.939a8.173,8.173,0,0,1-7.4,0c-2.042-1.179-2.042-3.091,0-4.271a8.176,8.176,0,0,1,7.4,0C2010.777,2147.848,2010.778,2149.76,2008.735,2150.939Z" transform="translate(-1999.542 -2145.631)" fill="#ffb43f"/><path d="M2019.37,2157.08a6.768,6.768,0,0,1-6.126,0c-1.692-.977-1.692-2.56,0-3.537a6.772,6.772,0,0,1,6.126,0C2021.062,2154.519,2021.062,2156.1,2019.37,2157.08Z" transform="translate(-2010.813 -2152.139)" fill="#e68913"/><path d="M2019.43,2156.623a6.771,6.771,0,0,0-6.127,0,1.715,1.715,0,0,0,0,3.31,6.769,6.769,0,0,0,6.126,0,1.715,1.715,0,0,0,0-3.31Z" transform="translate(-2010.872 -2154.992)" fill="#ff9e23"/><path d="M2032.779,2166.167l.3.013c.035.02.013.184.014.21a.09.09,0,0,1-.053.077l-.189.108a1.632,1.632,0,0,1,.472.44c.139.223-.136.484-.545.51a.708.708,0,0,1-.687-.276.647.647,0,0,0-.113-.18l-.906.523q.831.9-.153,1.467a2.829,2.829,0,0,1-2.479.045l-.18.1a.312.312,0,0,1-.283,0l-.228-.132a.1.1,0,0,1-.059-.082c0-.029-.016-.189.023-.212l.209.03a1.7,1.7,0,0,1-.7-.713.691.691,0,0,1-.02-.21c.019-.167.249-.215.556-.235a.681.681,0,0,1,.679.284,1.039,1.039,0,0,0,.3.4l1.053-.608c-1.24-1.2.984-2.284,2.548-1.464l.182-.1A.285.285,0,0,1,2032.779,2166.167Zm-2.063,1.035.771-.445C2030.938,2166.6,2030.471,2166.9,2030.716,2167.2Zm-.592.939-.815.47C2029.835,2168.793,2030.415,2168.5,2030.124,2168.141Z" transform="translate(-2024.915 -2164.342)" fill="#e68913"/><path d="M2032.779,2163.857l.263.152a.079.079,0,0,1,0,.149l-.188.109a1.625,1.625,0,0,1,.461.461c.139.223-.126.463-.534.489a.71.71,0,0,1-.688-.276.649.649,0,0,0-.113-.18l-.906.523q.83.9-.153,1.467a2.831,2.831,0,0,1-2.479.045l-.18.1a.311.311,0,0,1-.283,0l-.228-.131a.086.086,0,0,1,0-.164l.174-.1a1.7,1.7,0,0,1-.7-.713c-.1-.21.161-.421.536-.444a.681.681,0,0,1,.679.284,1.045,1.045,0,0,0,.3.4l1.053-.608c-1.24-1.2.985-2.284,2.548-1.463l.182-.105A.287.287,0,0,1,2032.779,2163.857Zm-2.063,1.035.771-.445C2030.938,2164.292,2030.47,2164.594,2030.716,2164.892Zm-.592.939-.814.47C2029.835,2166.482,2030.414,2166.187,2030.124,2165.831Z" transform="translate(-2024.915 -2162.203)" fill="#ffb43f"/></g><g transform="translate(0.229 0)"><g transform="translate(0 1.41)"><path d="M2003.282,2145.245a8.587,8.587,0,0,1-7.771,0,2.819,2.819,0,0,1-1.6-2.1c0-.046-.006-1.5-.006-1.547,0-.814.533-.22,1.609-.841a8.585,8.585,0,0,1,7.771,0c1.066.615,1.6.012,1.609.819,0,.045,0,1.5,0,1.544A2.8,2.8,0,0,1,2003.282,2145.245Z" transform="translate(-1993.902 -2139.83)" fill="#ef8809"/><g clip-path="url(#f)"><g transform="translate(-0.078 1.406)"><path d="M1992.939,2161.721a.091.091,0,0,1-.091-.091v-2.652a.091.091,0,1,1,.182,0v2.652A.091.091,0,0,1,1992.939,2161.721Z" transform="translate(-1992.848 -2158.887)" fill="#ff9e23"/><path d="M1996.914,2162.675a.092.092,0,0,1,.084-.091h.009a.092.092,0,0,1,.092.091v2.651a.092.092,0,0,1-.092.091H1997a.092.092,0,0,1-.084-.091Z" transform="translate(-1996.614 -2162.311)" fill="#ff9e23"/><path d="M2000.98,2166.372a.093.093,0,0,1,.085-.092h.009a.092.092,0,0,1,.092.092v2.65a.093.093,0,0,1-.092.092h-.009a.093.093,0,0,1-.085-.092Z" transform="translate(-2000.38 -2165.735)" fill="#ff9e23"/><path d="M2005.047,2170.069a.093.093,0,0,1,.087-.092h.009a.093.093,0,0,1,.093.092v2.65a.093.093,0,0,1-.093.092h-.009a.093.093,0,0,1-.087-.092Z" transform="translate(-2004.146 -2169.158)" fill="#ff9e23"/><path d="M2009.112,2173.767a.094.094,0,0,1,.089-.093h.009a.093.093,0,0,1,.093.093v2.648a.093.093,0,0,1-.093.093h-.009a.094.094,0,0,1-.089-.093Z" transform="translate(-2007.912 -2172.583)" fill="#ff9e23"/><path d="M2013.179,2177.464a.094.094,0,0,1,.09-.094h.009a.094.094,0,0,1,.094.094v2.647a.094.094,0,0,1-.094.094h-.009a.1.1,0,0,1-.09-.094Z" transform="translate(-2011.679 -2176.006)" fill="#ff9e23"/><path d="M2017.245,2181.16a.1.1,0,0,1,.092-.094h.009a.094.094,0,0,1,.094.094v2.646a.094.094,0,0,1-.094.094h-.009a.1.1,0,0,1-.092-.094Z" transform="translate(-2015.444 -2179.429)" fill="#ff9e23"/><path d="M2021.31,2184.858a.1.1,0,0,1,.094-.095h.009a.1.1,0,0,1,.1.095v2.644a.1.1,0,0,1-.1.095h-.009a.1.1,0,0,1-.094-.095Z" transform="translate(-2019.21 -2182.853)" fill="#ff9e23"/><path d="M.1,0h0A.1.1,0,0,1,.2.1V2.734a.1.1,0,0,1-.1.1h0a.1.1,0,0,1-.1-.1V.1A.1.1,0,0,1,.1,0Z" transform="translate(2.401 2.183)" fill="#ff9e23"/><rect width="0.201" height="2.834" rx="0.101" transform="translate(2.787 2.239)" fill="#ff9e23"/><rect width="0.202" height="2.834" rx="0.101" transform="translate(3.173 2.296)" fill="#ff9e23"/><path d="M.1,0h0A.1.1,0,0,1,.2.1V2.733a.1.1,0,0,1-.1.1h0a.1.1,0,0,1-.1-.1V.1A.1.1,0,0,1,.1,0Z" transform="translate(3.559 2.353)" fill="#ff9e23"/><rect width="0.205" height="2.834" rx="0.102" transform="translate(3.944 2.41)" fill="#ff9e23"/><rect width="0.206" height="2.834" rx="0.103" transform="translate(4.33 2.467)" fill="#ff9e23"/><path d="M.1,0h0a.1.1,0,0,1,.1.1V2.731a.1.1,0,0,1-.1.1h0a.1.1,0,0,1-.1-.1V.1A.1.1,0,0,1,.1,0Z" transform="translate(4.716 2.524)" fill="#ff9e23"/><path d="M.1,0h0a.1.1,0,0,1,.1.1V2.73a.1.1,0,0,1-.1.1h0a.1.1,0,0,1-.1-.1V.1A.1.1,0,0,1,.1,0Z" transform="translate(5.102 2.58)" fill="#ff9e23"/><path d="M.1,0h0a.1.1,0,0,1,.1.1V2.73a.1.1,0,0,1-.1.1h0a.1.1,0,0,1-.1-.1V.1A.1.1,0,0,1,.1,0Z" transform="translate(5.488 2.637)" fill="#ff9e23"/><path d="M.1,0h0a.1.1,0,0,1,.1.1V2.73a.1.1,0,0,1-.1.1h0a.1.1,0,0,1-.1-.1V.1A.1.1,0,0,1,.1,0Z" transform="translate(5.881 2.578)" fill="#ff9e23"/><rect width="0.207" height="2.834" rx="0.103" transform="translate(6.274 2.52)" fill="#ff9e23"/><path d="M.1,0h0a.1.1,0,0,1,.1.1V2.731a.1.1,0,0,1-.1.1h0a.1.1,0,0,1-.1-.1V.1A.1.1,0,0,1,.1,0Z" transform="translate(6.666 2.461)" fill="#ff9e23"/><rect width="0.205" height="2.834" rx="0.102" transform="translate(7.059 2.402)" fill="#ff9e23"/><path d="M.1,0h0A.1.1,0,0,1,.2.1V2.733a.1.1,0,0,1-.1.1h0a.1.1,0,0,1-.1-.1V.1A.1.1,0,0,1,.1,0Z" transform="translate(7.452 2.344)" fill="#ff9e23"/><path d="M.1,0h0A.1.1,0,0,1,.2.1V2.733a.1.1,0,0,1-.1.1h0a.1.1,0,0,1-.1-.1V.1A.1.1,0,0,1,.1,0Z" transform="translate(7.845 2.285)" fill="#ff9e23"/><path d="M.1,0h0A.1.1,0,0,1,.2.1V2.734a.1.1,0,0,1-.1.1h0a.1.1,0,0,1-.1-.1V.1A.1.1,0,0,1,.1,0Z" transform="translate(8.237 2.226)" fill="#ff9e23"/><path d="M.1,0h0A.1.1,0,0,1,.2.1V2.734a.1.1,0,0,1-.1.1h0a.1.1,0,0,1-.1-.1V.1A.1.1,0,0,1,.1,0Z" transform="translate(8.63 2.167)" fill="#ff9e23"/><path d="M2113.6,2184.935a.1.1,0,0,1,.094-.094h.009a.1.1,0,0,1,.095.095v2.645a.1.1,0,0,1-.095.095h-.009a.1.1,0,0,1-.094-.095Z" transform="translate(-2104.684 -2182.925)" fill="#ff9e23"/><path d="M2117.41,2181.52a.1.1,0,0,1,.092-.094h.009a.094.094,0,0,1,.094.094v2.646a.094.094,0,0,1-.094.094h-.009a.1.1,0,0,1-.092-.094Z" transform="translate(-2108.217 -2179.762)" fill="#ff9e23"/><path d="M2121.225,2178.106a.1.1,0,0,1,.091-.094h.009a.094.094,0,0,1,.094.094v2.647a.094.094,0,0,1-.094.093h-.009a.1.1,0,0,1-.091-.093Z" transform="translate(-2111.75 -2176.6)" fill="#ff9e23"/><path d="M2125.04,2174.691a.094.094,0,0,1,.089-.093h.009a.094.094,0,0,1,.094.093v2.648a.093.093,0,0,1-.094.093h-.009a.094.094,0,0,1-.089-.093Z" transform="translate(-2115.284 -2173.438)" fill="#ff9e23"/><path d="M2128.854,2171.276a.093.093,0,0,1,.087-.092h.009a.093.093,0,0,1,.093.092v2.649a.093.093,0,0,1-.093.093h-.009a.093.093,0,0,1-.087-.092Z" transform="translate(-2118.816 -2170.276)" fill="#ff9e23"/><path d="M2132.669,2167.861a.093.093,0,0,1,.085-.091h.009a.092.092,0,0,1,.092.092v2.651a.093.093,0,0,1-.092.092h-.009a.093.093,0,0,1-.085-.092Z" transform="translate(-2122.35 -2167.114)" fill="#ff9e23"/><path d="M2136.483,2164.446a.092.092,0,0,1,.084-.091h.009a.092.092,0,0,1,.091.092v2.651a.092.092,0,0,1-.091.092h-.009a.092.092,0,0,1-.084-.091Z" transform="translate(-2125.882 -2163.951)" fill="#ff9e23"/><path d="M2140.39,2163.774a.091.091,0,0,1-.091-.091v-2.652a.091.091,0,1,1,.182,0v2.652A.091.091,0,0,1,2140.39,2163.774Z" transform="translate(-2129.416 -2160.789)" fill="#ff9e23"/></g></g></g><path d="M2003.282,2126.147a8.588,8.588,0,0,1-7.77,0c-2.146-1.239-2.146-3.248,0-4.487a8.589,8.589,0,0,1,7.771,0C2005.427,2122.9,2005.427,2124.908,2003.282,2126.147Z" transform="translate(-1993.902 -2120.731)" fill="#ff9e23"/><ellipse cx="5.23" cy="3.02" rx="5.23" ry="3.02" transform="translate(0.264 0.152)" fill="#ffb43f"/><path d="M2017.047,2134.094a6.771,6.771,0,0,1-6.127,0c-1.692-.977-1.692-2.56,0-3.537a6.773,6.773,0,0,1,6.127,0C2018.738,2131.534,2018.738,2133.118,2017.047,2134.094Z" transform="translate(-2008.489 -2129.154)" fill="#e68913"/><path d="M2017.106,2133.637a6.772,6.772,0,0,0-6.126,0,1.715,1.715,0,0,0,0,3.31,6.77,6.77,0,0,0,6.126,0,1.715,1.715,0,0,0,0-3.31Z" transform="translate(-2008.548 -2132.006)" fill="#ff9e23"/><path d="M2030.455,2143.181l.3.014c.035.02.014.184.014.209a.089.089,0,0,1-.053.077l-.188.109a1.641,1.641,0,0,1,.472.44c.139.224-.136.484-.545.51a.708.708,0,0,1-.688-.275.645.645,0,0,0-.113-.18l-.906.523q.831.9-.153,1.467a2.832,2.832,0,0,1-2.479.045l-.18.1a.312.312,0,0,1-.283,0l-.228-.132a.1.1,0,0,1-.058-.082c0-.03-.016-.189.023-.212l.209.031a1.7,1.7,0,0,1-.7-.713.693.693,0,0,1-.02-.21c.019-.167.249-.215.556-.235a.68.68,0,0,1,.679.284,1.042,1.042,0,0,0,.3.4l1.053-.608c-1.24-1.2.985-2.284,2.548-1.464l.182-.105A.286.286,0,0,1,2030.455,2143.181Zm-2.063,1.035.771-.445C2028.614,2143.617,2028.146,2143.919,2028.392,2144.216Zm-.592.939-.814.47C2027.511,2145.807,2028.091,2145.512,2027.8,2145.156Z" transform="translate(-2022.591 -2141.357)" fill="#e68913"/><path d="M2030.454,2140.871l.262.151a.079.079,0,0,1,0,.149l-.188.109a1.62,1.62,0,0,1,.461.461c.139.223-.126.463-.534.489a.71.71,0,0,1-.688-.275.646.646,0,0,0-.113-.18l-.906.523q.83.9-.154,1.467a2.832,2.832,0,0,1-2.479.045l-.18.1a.312.312,0,0,1-.283,0l-.228-.132a.086.086,0,0,1,0-.164l.174-.1a1.7,1.7,0,0,1-.7-.713c-.1-.21.162-.42.537-.445a.681.681,0,0,1,.679.284,1.048,1.048,0,0,0,.3.4l1.053-.608c-1.24-1.2.984-2.284,2.548-1.463l.182-.105A.284.284,0,0,1,2030.454,2140.871Zm-2.063,1.035.771-.445C2028.614,2141.307,2028.146,2141.609,2028.391,2141.906Zm-.592.939-.815.47C2027.51,2143.5,2028.09,2143.2,2027.8,2142.845Z" transform="translate(-2022.59 -2139.217)" fill="#ffb43f"/></g></g><g transform="translate(1918.29 1743.698)"><path d="M2160.179,1832.2a9.178,9.178,0,0,0-8.317-.011,4.309,4.309,0,0,0-1.049.822,7.1,7.1,0,0,0-1.879.728c-2.295,1.325-2.292,3.478.007,4.809a9.178,9.178,0,0,0,8.317.011c.43-.248,2.371-1.229,2.927-1.55a3.625,3.625,0,0,0,1.491-1.459c.01-.02.254.133.252.111-.006-.117-.006-.56-.03-.9A2.853,2.853,0,0,0,2160.179,1832.2Z" transform="translate(-2147.215 -1829.197)" fill="#ccc" opacity="0.5" style="mix-blend-mode:multiply;isolation:isolate"/><g transform="translate(0.125 2.021)"><g transform="translate(0 1.465)"><path d="M2150.575,1856.958a8.926,8.926,0,0,0,8.076,0,2.929,2.929,0,0,0,1.666-2.18c0-.048.006-1.56.006-1.608,0-.846-.554-.229-1.672-.874a8.925,8.925,0,0,0-8.076,0c-1.108.64-1.665.012-1.672.851,0,.047,0,1.558,0,1.605A2.911,2.911,0,0,0,2150.575,1856.958Z" transform="translate(-2148.903 -1851.33)" fill="#ef8809"/><g clip-path="url(#g)"><g transform="translate(0.003 1.462)"><path d="M2302.273,1874.08a.094.094,0,0,0,.094-.094v-2.757a.094.094,0,1,0-.189,0v2.757A.1.1,0,0,0,2302.273,1874.08Z" transform="translate(-2290.869 -1871.135)" fill="#ff9e23"/><path d="M2297.921,1875.072v2.755a.1.1,0,0,0,.087.095h.009a.1.1,0,0,0,.1-.1v-2.755a.1.1,0,0,0-.1-.1h-.009A.1.1,0,0,0,2297.921,1875.072Z" transform="translate(-2286.926 -1874.693)" fill="#ff9e23"/><path d="M2293.663,1878.914v2.754a.1.1,0,0,0,.089.1h.009a.1.1,0,0,0,.1-.1v-2.754a.1.1,0,0,0-.1-.1h-.009A.1.1,0,0,0,2293.663,1878.914Z" transform="translate(-2282.982 -1878.251)" fill="#ff9e23"/><path d="M2289.405,1882.756v2.753a.1.1,0,0,0,.091.1h.009a.1.1,0,0,0,.1-.1v-2.753a.1.1,0,0,0-.1-.1h-.009A.1.1,0,0,0,2289.405,1882.756Z" transform="translate(-2279.038 -1881.81)" fill="#ff9e23"/><path d="M2285.147,1886.6v2.752a.1.1,0,0,0,.093.1h.009a.1.1,0,0,0,.1-.1V1886.6a.1.1,0,0,0-.1-.1h-.009A.1.1,0,0,0,2285.147,1886.6Z" transform="translate(-2275.094 -1885.367)" fill="#ff9e23"/><path d="M2280.89,1890.441v2.751a.1.1,0,0,0,.094.1h.01a.1.1,0,0,0,.1-.1v-2.751a.1.1,0,0,0-.1-.1h-.01A.1.1,0,0,0,2280.89,1890.441Z" transform="translate(-2271.152 -1888.926)" fill="#ff9e23"/><path d="M2276.632,1894.283v2.75a.1.1,0,0,0,.1.1h.01a.1.1,0,0,0,.1-.1v-2.75a.1.1,0,0,0-.1-.1h-.01A.1.1,0,0,0,2276.632,1894.283Z" transform="translate(-2267.208 -1892.484)" fill="#ff9e23"/><path d="M2272.374,1898.125v2.748a.1.1,0,0,0,.1.1h.01a.1.1,0,0,0,.1-.1v-2.748a.1.1,0,0,0-.1-.1h-.01A.1.1,0,0,0,2272.374,1898.125Z" transform="translate(-2263.264 -1896.042)" fill="#ff9e23"/><path d="M.1,0h0a.1.1,0,0,1,.1.1V2.842a.1.1,0,0,1-.1.1h0a.1.1,0,0,1-.1-.1V.1A.1.1,0,0,1,.1,0Z" transform="translate(9.004 5.214) rotate(180)" fill="#ff9e23"/><rect width="0.209" height="2.945" rx="0.105" transform="translate(8.393 2.327)" fill="#ff9e23"/><path d="M.105,0h0A.105.105,0,0,1,.21.105V2.84a.105.105,0,0,1-.105.105h0A.105.105,0,0,1,0,2.84V.105A.105.105,0,0,1,.105,0Z" transform="translate(7.991 2.386)" fill="#ff9e23"/><path d="M.106,0h0A.106.106,0,0,1,.211.106V2.84a.106.106,0,0,1-.106.106h0A.106.106,0,0,1,0,2.84V.106A.106.106,0,0,1,.106,0Z" transform="translate(7.589 2.445)" fill="#ff9e23"/><path d="M.106,0h0A.106.106,0,0,1,.213.106V2.839a.106.106,0,0,1-.106.106h0A.106.106,0,0,1,0,2.839V.106A.106.106,0,0,1,.106,0Z" transform="translate(7.187 2.504)" fill="#ff9e23"/><path d="M.107,0h0A.107.107,0,0,1,.214.107V2.839a.107.107,0,0,1-.107.107h0A.107.107,0,0,1,0,2.839V.107A.107.107,0,0,1,.107,0Z" transform="translate(6.784 2.563)" fill="#ff9e23"/><rect width="0.215" height="2.945" rx="0.108" transform="translate(6.382 2.623)" fill="#ff9e23"/><path d="M.108,0h0A.108.108,0,0,1,.216.108V2.837a.108.108,0,0,1-.108.108h0A.108.108,0,0,1,0,2.837V.108A.108.108,0,0,1,.108,0Z" transform="translate(5.98 2.682)" fill="#ff9e23"/><rect width="0.217" height="2.945" rx="0.109" transform="translate(5.795 5.686) rotate(180)" fill="#ff9e23"/><path d="M.108,0h0A.108.108,0,0,1,.216.108V2.837a.108.108,0,0,1-.108.108h0A.108.108,0,0,1,0,2.837V.108A.108.108,0,0,1,.108,0Z" transform="translate(5.171 2.68)" fill="#ff9e23"/><rect width="0.215" height="2.946" rx="0.107" transform="translate(4.764 2.619)" fill="#ff9e23"/><rect width="0.214" height="2.946" rx="0.107" transform="translate(4.357 2.558)" fill="#ff9e23"/><rect width="0.213" height="2.945" rx="0.106" transform="translate(3.95 2.497)" fill="#ff9e23"/><path d="M.106,0h0A.106.106,0,0,1,.211.106V2.84a.106.106,0,0,1-.106.106h0A.106.106,0,0,1,0,2.84V.106A.106.106,0,0,1,.106,0Z" transform="translate(3.543 2.436)" fill="#ff9e23"/><path d="M.105,0h0A.105.105,0,0,1,.21.105V2.84a.105.105,0,0,1-.105.105h0A.105.105,0,0,1,0,2.84V.105A.105.105,0,0,1,.105,0Z" transform="translate(3.136 2.375)" fill="#ff9e23"/><rect width="0.209" height="2.945" rx="0.105" transform="translate(2.729 2.313)" fill="#ff9e23"/><path d="M.1,0h0a.1.1,0,0,1,.1.1V2.841a.1.1,0,0,1-.1.1h0a.1.1,0,0,1-.1-.1V.1A.1.1,0,0,1,.1,0Z" transform="translate(2.53 5.198) rotate(180)" fill="#ff9e23"/><path d="M2176.467,1898.2v2.748a.1.1,0,0,0,.1.1h.01a.1.1,0,0,0,.1-.1V1898.2a.1.1,0,0,0-.1-.1h-.01A.1.1,0,0,0,2176.467,1898.2Z" transform="translate(-2174.435 -1896.115)" fill="#ff9e23"/><path d="M2172.534,1894.656v2.75a.1.1,0,0,0,.1.1h.01a.1.1,0,0,0,.1-.1v-2.75a.1.1,0,0,0-.1-.1h-.01A.1.1,0,0,0,2172.534,1894.656Z" transform="translate(-2170.792 -1892.829)" fill="#ff9e23"/><path d="M2168.6,1891.107v2.751a.1.1,0,0,0,.094.1h.01a.1.1,0,0,0,.1-.1v-2.751a.1.1,0,0,0-.1-.1h-.01A.1.1,0,0,0,2168.6,1891.107Z" transform="translate(-2167.151 -1889.543)" fill="#ff9e23"/><path d="M2164.67,1887.559v2.752a.1.1,0,0,0,.093.1h.009a.1.1,0,0,0,.1-.1v-2.752a.1.1,0,0,0-.1-.1h-.009A.1.1,0,0,0,2164.67,1887.559Z" transform="translate(-2163.509 -1886.257)" fill="#ff9e23"/><path d="M2160.737,1884.009v2.753a.1.1,0,0,0,.091.1h.009a.1.1,0,0,0,.1-.1v-2.753a.1.1,0,0,0-.1-.1h-.009A.1.1,0,0,0,2160.737,1884.009Z" transform="translate(-2159.867 -1882.97)" fill="#ff9e23"/><path d="M2156.8,1880.461v2.754a.1.1,0,0,0,.089.1h.009a.1.1,0,0,0,.1-.1v-2.754a.1.1,0,0,0-.1-.1h-.009A.1.1,0,0,0,2156.8,1880.461Z" transform="translate(-2156.224 -1879.684)" fill="#ff9e23"/><path d="M2152.873,1876.912v2.755a.1.1,0,0,0,.087.095h.009a.1.1,0,0,0,.095-.095v-2.755a.1.1,0,0,0-.095-.1h-.009A.1.1,0,0,0,2152.873,1876.912Z" transform="translate(-2152.583 -1876.397)" fill="#ff9e23"/><path d="M2149.034,1876.215a.1.1,0,0,0,.095-.095v-2.756a.095.095,0,0,0-.189,0v2.756A.1.1,0,0,0,2149.034,1876.215Z" transform="translate(-2148.94 -1873.112)" fill="#ff9e23"/></g></g></g><path d="M2150.576,1837.109a8.925,8.925,0,0,0,8.075,0c2.23-1.288,2.23-3.375,0-4.663a8.925,8.925,0,0,0-8.075,0C2148.346,1833.734,2148.346,1835.822,2150.576,1837.109Z" transform="translate(-2148.904 -1831.481)" fill="#ff9e23"/><path d="M2154.216,1838.986a8.5,8.5,0,0,0,7.687,0c2.123-1.226,2.123-3.213,0-4.438a8.494,8.494,0,0,0-7.687,0C2152.093,1835.773,2152.093,1837.76,2154.216,1838.986Z" transform="translate(-2152.349 -1833.47)" fill="#ffb43f"/><path d="M2166.589,1845.368a7.037,7.037,0,0,0,6.367,0c1.758-1.015,1.758-2.661,0-3.676a7.037,7.037,0,0,0-6.367,0C2164.831,1842.707,2164.831,1844.353,2166.589,1845.368Z" transform="translate(-2164.063 -1840.233)" fill="#e68913"/><path d="M2166.65,1844.893a7.037,7.037,0,0,1,6.367,0,1.783,1.783,0,0,1,0,3.44,7.04,7.04,0,0,1-6.367,0,1.783,1.783,0,0,1,0-3.44Z" transform="translate(-2164.123 -1843.198)" fill="#ff9e23"/><path d="M2185.582,1854.812l.189.109c1.624-.853,3.936.274,2.648,1.521l1.094.632a1.083,1.083,0,0,0,.314-.419.707.707,0,0,1,.7-.3c.32.021.558.07.578.244a.721.721,0,0,1-.02.218,1.762,1.762,0,0,1-.73.741l.217-.032c.041.024.024.19.024.221a.1.1,0,0,1-.061.085l-.237.137a.326.326,0,0,1-.294,0l-.187-.108a2.942,2.942,0,0,1-2.576-.047q-1.022-.59-.159-1.525l-.941-.543a.681.681,0,0,0-.117.187.738.738,0,0,1-.715.286c-.425-.027-.711-.3-.567-.53a1.7,1.7,0,0,1,.49-.457l-.2-.113a.092.092,0,0,1-.055-.08c0-.027-.021-.2.015-.218l.313-.014A.3.3,0,0,1,2185.582,1854.812Zm1.074.613.8.463C2187.713,1855.579,2187.228,1855.265,2186.657,1855.425Zm2.264,1.927-.847-.489C2187.771,1857.234,2188.374,1857.541,2188.921,1857.353Z" transform="translate(-2182.067 -1852.916)" fill="#e68913"/><path d="M2185.713,1852.412l.189.109c1.624-.853,3.936.274,2.647,1.521l1.094.632a1.081,1.081,0,0,0,.313-.419.708.708,0,0,1,.706-.3c.389.025.659.244.558.462a1.767,1.767,0,0,1-.73.741l.18.1a.09.09,0,0,1,0,.17l-.237.137a.324.324,0,0,1-.294,0l-.187-.108a2.942,2.942,0,0,1-2.576-.047q-1.022-.59-.16-1.525l-.941-.543a.662.662,0,0,0-.118.187.737.737,0,0,1-.715.286c-.424-.027-.7-.276-.555-.508a1.689,1.689,0,0,1,.479-.479l-.2-.113a.082.082,0,0,1,0-.155l.272-.158A.3.3,0,0,1,2185.713,1852.412Zm1.075.613.8.463C2187.844,1853.178,2187.358,1852.865,2186.788,1853.025Zm2.263,1.927-.846-.489C2187.9,1854.833,2188.5,1855.141,2189.051,1854.952Z" transform="translate(-2182.198 -1850.693)" fill="#ffb43f"/></g><g transform="translate(0.442)"><g transform="translate(0 1.465)"><path d="M2154.87,1829.58a8.925,8.925,0,0,0,8.075,0,2.928,2.928,0,0,0,1.667-2.18c0-.047.006-1.56.006-1.608,0-.846-.554-.228-1.673-.874a8.925,8.925,0,0,0-8.075,0c-1.108.64-1.665.012-1.672.851,0,.047,0,1.558,0,1.605A2.913,2.913,0,0,0,2154.87,1829.58Z" transform="translate(-2153.198 -1823.953)" fill="#ef8809"/><g clip-path="url(#h)"><g transform="translate(0.003 1.462)"><path d="M2306.568,1846.7a.1.1,0,0,0,.094-.094v-2.757a.094.094,0,1,0-.189,0v2.757A.1.1,0,0,0,2306.568,1846.7Z" transform="translate(-2295.164 -1843.758)" fill="#ff9e23"/><path d="M2302.215,1847.694v2.755a.1.1,0,0,0,.087.095h.009a.1.1,0,0,0,.1-.1v-2.755a.1.1,0,0,0-.1-.1h-.009A.1.1,0,0,0,2302.215,1847.694Z" transform="translate(-2291.22 -1847.315)" fill="#ff9e23"/><path d="M2297.957,1851.536v2.754a.1.1,0,0,0,.089.1h.009a.1.1,0,0,0,.1-.1v-2.754a.1.1,0,0,0-.1-.1h-.009A.1.1,0,0,0,2297.957,1851.536Z" transform="translate(-2287.276 -1850.873)" fill="#ff9e23"/><path d="M2293.7,1855.378v2.753a.1.1,0,0,0,.09.1h.009a.1.1,0,0,0,.1-.1v-2.753a.1.1,0,0,0-.1-.1h-.009A.1.1,0,0,0,2293.7,1855.378Z" transform="translate(-2283.333 -1854.431)" fill="#ff9e23"/><path d="M2289.441,1859.221v2.752a.1.1,0,0,0,.092.1h.01a.1.1,0,0,0,.1-.1v-2.752a.1.1,0,0,0-.1-.1h-.01A.1.1,0,0,0,2289.441,1859.221Z" transform="translate(-2279.388 -1857.99)" fill="#ff9e23"/><path d="M2285.184,1863.063v2.751a.1.1,0,0,0,.094.1h.01a.1.1,0,0,0,.1-.1v-2.751a.1.1,0,0,0-.1-.1h-.01A.1.1,0,0,0,2285.184,1863.063Z" transform="translate(-2275.446 -1861.548)" fill="#ff9e23"/><path d="M2280.926,1866.906v2.75a.1.1,0,0,0,.1.1h.009a.1.1,0,0,0,.1-.1v-2.75a.1.1,0,0,0-.1-.1h-.009A.1.1,0,0,0,2280.926,1866.906Z" transform="translate(-2271.502 -1865.107)" fill="#ff9e23"/><path d="M2276.668,1870.746v2.749a.1.1,0,0,0,.1.1h.01a.1.1,0,0,0,.1-.1v-2.749a.1.1,0,0,0-.1-.1h-.01A.1.1,0,0,0,2276.668,1870.746Z" transform="translate(-2267.558 -1868.663)" fill="#ff9e23"/><rect width="0.208" height="2.945" rx="0.104" transform="translate(9.004 5.214) rotate(180)" fill="#ff9e23"/><path d="M.1,0h0a.1.1,0,0,1,.1.1V2.841a.1.1,0,0,1-.1.1h0a.1.1,0,0,1-.1-.1V.1A.1.1,0,0,1,.1,0Z" transform="translate(8.393 2.327)" fill="#ff9e23"/><path d="M.105,0h0A.105.105,0,0,1,.21.105V2.84a.105.105,0,0,1-.105.105h0A.105.105,0,0,1,0,2.84V.105A.105.105,0,0,1,.105,0Z" transform="translate(7.991 2.386)" fill="#ff9e23"/><rect width="0.211" height="2.945" rx="0.106" transform="translate(7.589 2.445)" fill="#ff9e23"/><path d="M.106,0h0A.106.106,0,0,1,.213.106V2.839a.106.106,0,0,1-.106.106h0A.106.106,0,0,1,0,2.839V.106A.106.106,0,0,1,.106,0Z" transform="translate(7.187 2.504)" fill="#ff9e23"/><rect width="0.214" height="2.945" rx="0.107" transform="translate(6.784 2.563)" fill="#ff9e23"/><path d="M.107,0h0A.108.108,0,0,1,.215.108v2.73a.107.107,0,0,1-.107.107h0A.107.107,0,0,1,0,2.838V.107A.107.107,0,0,1,.107,0Z" transform="translate(6.382 2.623)" fill="#ff9e23"/><path d="M.108,0h0A.108.108,0,0,1,.216.108V2.837a.108.108,0,0,1-.108.108h0A.108.108,0,0,1,0,2.837V.108A.108.108,0,0,1,.108,0Z" transform="translate(5.98 2.682)" fill="#ff9e23"/><path d="M.109,0h0A.109.109,0,0,1,.217.109V2.837a.109.109,0,0,1-.109.109h0A.109.109,0,0,1,0,2.837V.109A.109.109,0,0,1,.109,0Z" transform="translate(5.795 5.686) rotate(180)" fill="#ff9e23"/><rect width="0.216" height="2.945" rx="0.108" transform="translate(5.171 2.68)" fill="#ff9e23"/><path d="M.108,0h0A.107.107,0,0,1,.215.107V2.838a.107.107,0,0,1-.107.107h0A.108.108,0,0,1,0,2.838V.108A.108.108,0,0,1,.108,0Z" transform="translate(4.764 2.619)" fill="#ff9e23"/><rect width="0.214" height="2.945" rx="0.107" transform="translate(4.357 2.558)" fill="#ff9e23"/><path d="M.106,0h0A.106.106,0,0,1,.213.106V2.839a.106.106,0,0,1-.106.106h0A.106.106,0,0,1,0,2.839V.106A.106.106,0,0,1,.106,0Z" transform="translate(3.95 2.497)" fill="#ff9e23"/><rect width="0.211" height="2.945" rx="0.106" transform="translate(3.543 2.435)" fill="#ff9e23"/><path d="M.105,0h0A.105.105,0,0,1,.21.105V2.84a.105.105,0,0,1-.105.105h0A.105.105,0,0,1,0,2.84V.105A.105.105,0,0,1,.105,0Z" transform="translate(3.136 2.375)" fill="#ff9e23"/><path d="M.1,0h0a.1.1,0,0,1,.1.1V2.841a.1.1,0,0,1-.1.1h0a.1.1,0,0,1-.1-.1V.1A.1.1,0,0,1,.1,0Z" transform="translate(2.729 2.313)" fill="#ff9e23"/><path d="M.1,0h0a.1.1,0,0,1,.1.1V2.842a.1.1,0,0,1-.1.1h0a.1.1,0,0,1-.1-.1V.1A.1.1,0,0,1,.1,0Z" transform="translate(2.53 5.198) rotate(-180)" fill="#ff9e23"/><path d="M2180.762,1870.827v2.748a.1.1,0,0,0,.1.1h.01a.1.1,0,0,0,.1-.1v-2.748a.1.1,0,0,0-.1-.1h-.01A.1.1,0,0,0,2180.762,1870.827Z" transform="translate(-2178.73 -1868.738)" fill="#ff9e23"/><path d="M2176.829,1867.279v2.75a.1.1,0,0,0,.1.1h.01a.1.1,0,0,0,.1-.1v-2.75a.1.1,0,0,0-.1-.1h-.01A.1.1,0,0,0,2176.829,1867.279Z" transform="translate(-2175.087 -1865.453)" fill="#ff9e23"/><path d="M2172.9,1863.73v2.751a.1.1,0,0,0,.094.1H2173a.1.1,0,0,0,.1-.1v-2.751a.1.1,0,0,0-.1-.1h-.009A.1.1,0,0,0,2172.9,1863.73Z" transform="translate(-2171.446 -1862.166)" fill="#ff9e23"/><path d="M2168.964,1860.181v2.752a.1.1,0,0,0,.092.1h.01a.1.1,0,0,0,.1-.1v-2.752a.1.1,0,0,0-.1-.1h-.01A.1.1,0,0,0,2168.964,1860.181Z" transform="translate(-2167.803 -1858.879)" fill="#ff9e23"/><path d="M2165.032,1856.632v2.753a.1.1,0,0,0,.091.1h.009a.1.1,0,0,0,.1-.1v-2.753a.1.1,0,0,0-.1-.1h-.009A.1.1,0,0,0,2165.032,1856.632Z" transform="translate(-2164.161 -1855.593)" fill="#ff9e23"/><path d="M2161.1,1853.084v2.754a.1.1,0,0,0,.089.1h.009a.1.1,0,0,0,.1-.1v-2.754a.1.1,0,0,0-.1-.1h-.009A.1.1,0,0,0,2161.1,1853.084Z" transform="translate(-2160.52 -1852.307)" fill="#ff9e23"/><path d="M2157.167,1849.534v2.755a.1.1,0,0,0,.087.095h.009a.1.1,0,0,0,.095-.1v-2.755a.1.1,0,0,0-.095-.095h-.009A.1.1,0,0,0,2157.167,1849.534Z" transform="translate(-2156.877 -1849.02)" fill="#ff9e23"/><path d="M2153.329,1848.837a.1.1,0,0,0,.094-.094v-2.757a.095.095,0,0,0-.189,0v2.757A.1.1,0,0,0,2153.329,1848.837Z" transform="translate(-2153.234 -1845.734)" fill="#ff9e23"/></g></g></g><path d="M2154.871,1809.731a8.924,8.924,0,0,0,8.075,0c2.23-1.287,2.23-3.375,0-4.662a8.924,8.924,0,0,0-8.075,0C2152.641,1806.357,2152.641,1808.444,2154.871,1809.731Z" transform="translate(-2153.198 -1804.104)" fill="#ff9e23"/><path d="M2158.51,1811.609a8.5,8.5,0,0,0,7.687,0c2.123-1.225,2.123-3.213,0-4.438a8.494,8.494,0,0,0-7.687,0C2156.387,1808.4,2156.387,1810.384,2158.51,1811.609Z" transform="translate(-2156.644 -1806.094)" fill="#ffb43f"/><path d="M2170.883,1817.991a7.037,7.037,0,0,0,6.367,0c1.758-1.015,1.758-2.661,0-3.676a7.038,7.038,0,0,0-6.367,0C2169.125,1815.33,2169.125,1816.976,2170.883,1817.991Z" transform="translate(-2168.357 -1812.856)" fill="#e68913"/><path d="M2170.945,1817.516a7.037,7.037,0,0,1,6.367,0,1.783,1.783,0,0,1,0,3.44,7.036,7.036,0,0,1-6.367,0,1.783,1.783,0,0,1,0-3.44Z" transform="translate(-2168.418 -1815.821)" fill="#ff9e23"/><path d="M2189.877,1827.435l.189.109c1.625-.853,3.936.274,2.648,1.521l1.094.632a1.085,1.085,0,0,0,.314-.419.706.706,0,0,1,.705-.3c.32.021.558.07.578.244a.705.705,0,0,1-.02.218,1.763,1.763,0,0,1-.73.741l.217-.031c.041.023.024.19.024.22a.1.1,0,0,1-.061.085l-.237.137a.325.325,0,0,1-.294,0l-.187-.108a2.941,2.941,0,0,1-2.576-.047q-1.023-.59-.16-1.525l-.941-.543a.678.678,0,0,0-.117.187.736.736,0,0,1-.714.286c-.425-.027-.711-.3-.567-.53a1.7,1.7,0,0,1,.49-.457l-.2-.113a.092.092,0,0,1-.055-.08c0-.027-.021-.2.015-.218l.313-.014A.3.3,0,0,1,2189.877,1827.435Zm1.075.613.8.463C2192.008,1828.2,2191.521,1827.888,2190.951,1828.048Zm2.263,1.927-.846-.489C2192.066,1829.857,2192.668,1830.164,2193.215,1829.976Z" transform="translate(-2186.361 -1825.539)" fill="#e68913"/><path d="M2190.007,1825.034l.189.109c1.624-.853,3.936.274,2.647,1.521l1.094.632a1.082,1.082,0,0,0,.313-.419.707.707,0,0,1,.706-.3c.39.025.659.243.557.462a1.762,1.762,0,0,1-.729.741l.18.1a.09.09,0,0,1,0,.17l-.237.137a.326.326,0,0,1-.294,0l-.187-.108a2.942,2.942,0,0,1-2.576-.047q-1.022-.591-.16-1.525l-.941-.544a.676.676,0,0,0-.118.187.738.738,0,0,1-.715.286c-.424-.027-.7-.276-.555-.508a1.687,1.687,0,0,1,.479-.479l-.2-.113a.082.082,0,0,1,0-.155l.272-.157A.3.3,0,0,1,2190.007,1825.034Zm1.075.613.8.463C2192.139,1825.8,2191.653,1825.487,2191.083,1825.647Zm2.263,1.927-.847-.489C2192.2,1827.456,2192.8,1827.763,2193.346,1827.575Z" transform="translate(-2186.492 -1823.315)" fill="#ffb43f"/></g></g></g></svg>