<svg xmlns="http://www.w3.org/2000/svg" width="257.203" height="191.672" viewBox="0 0 257.203 191.672"><g transform="translate(0 -54.953)"><g transform="translate(0 54.953)"><rect width="257.203" height="0.129" transform="translate(0 168.44)" fill="#ebebeb"/><rect width="17.038" height="0.129" transform="translate(214.393 176.72)" fill="#ebebeb"/><rect width="4.472" height="0.129" transform="translate(165.91 178.115)" fill="#ebebeb"/><rect width="9.873" height="0.129" transform="translate(204.006 171.943)" fill="#ebebeb"/><rect width="22.219" height="0.129" transform="translate(26.985 172.807)" fill="#ebebeb"/><rect width="3.258" height="0.129" transform="translate(53.784 172.807)" fill="#ebebeb"/><rect width="48.187" height="0.129" transform="translate(67.63 174.979)" fill="#ebebeb"/><path d="M140.474,200.451H41.143a2.94,2.94,0,0,1-2.936-2.936V57.889a2.939,2.939,0,0,1,2.936-2.936h99.331a2.939,2.939,0,0,1,2.936,2.936V197.515A2.94,2.94,0,0,1,140.474,200.451ZM41.143,55.082a2.81,2.81,0,0,0-2.808,2.807V197.515a2.811,2.811,0,0,0,2.808,2.808h99.331a2.81,2.81,0,0,0,2.807-2.808V57.889a2.81,2.81,0,0,0-2.807-2.807Z" transform="translate(-18.553 -54.953)" fill="#ebebeb"/><path d="M356.771,200.451H257.441a2.939,2.939,0,0,1-2.936-2.936V57.889a2.939,2.939,0,0,1,2.936-2.936h99.331a2.94,2.94,0,0,1,2.937,2.936V197.515A2.94,2.94,0,0,1,356.771,200.451ZM257.441,55.082a2.81,2.81,0,0,0-2.807,2.807V197.515a2.81,2.81,0,0,0,2.807,2.808h99.331a2.811,2.811,0,0,0,2.808-2.808V57.889a2.811,2.811,0,0,0-2.808-2.807Z" transform="translate(-123.586 -54.953)" fill="#ebebeb"/></g><g transform="translate(23.722 60.268)"><g transform="translate(0 25.074)"><g transform="translate(4.586 7.682)"><path d="M107.432,132.823H78.877l.437-3.86h28.554Z" transform="translate(-66.611 -128.963)" fill="#f5f5f5"/><path d="M103.457,167.9H74.9l.437-3.86h28.554Z" transform="translate(-64.681 -145.998)" fill="#f5f5f5"/><path d="M99.483,202.986H70.928l.437-3.86H99.92Z" transform="translate(-62.751 -163.034)" fill="#f5f5f5"/><path d="M95.509,238.068H66.954l.437-3.86H95.946Z" transform="translate(-60.821 -180.069)" fill="#f5f5f5"/><path d="M91.534,273.15H62.98l.437-3.86H91.972Z" transform="translate(-58.891 -197.105)" fill="#f5f5f5"/><path d="M87.56,308.231H59.006l.437-3.86H88Z" transform="translate(-56.961 -214.14)" fill="#f5f5f5"/><path d="M83.586,343.313H55.031l.437-3.86H84.023Z" transform="translate(-55.031 -231.176)" fill="#f5f5f5"/></g><path d="M50.587,252.21H46.115L61.77,114.03h4.471Z" transform="translate(-46.115 -114.03)" fill="#ebebeb"/><path d="M107.148,252.21h-4.471l15.654-138.18H122.8Z" transform="translate(-73.581 -114.03)" fill="#ebebeb"/></g><g transform="translate(150.993 9.806)"><rect width="53.856" height="146.1" transform="translate(0 7.348)" fill="#f5f5f5"/><g transform="translate(2.948 10.556)"><rect width="47.96" height="23.832" fill="#ebebeb"/><rect width="14.831" height="14.831" transform="translate(5.997 9.001)" fill="#f0f0f0"/><rect width="10.556" height="10.556" transform="translate(26.155 13.276)" fill="#f0f0f0"/></g><g transform="translate(2.948 36.888)"><rect width="47.96" height="23.832" fill="#ebebeb"/><rect width="7.14" height="14.831" transform="translate(5.997 9.001)" fill="#f0f0f0"/><rect width="15.883" height="6.078" transform="translate(20.828 17.754)" fill="#f0f0f0"/><rect width="15.421" height="9.07" transform="translate(17.811 8.684)" fill="#f0f0f0"/></g><g transform="translate(2.948 63.22)"><rect width="47.96" height="23.832" fill="#ebebeb"/><rect width="3.017" height="14.831" transform="translate(17.811 9.001)" fill="#f0f0f0"/><rect width="18.519" height="20.072" transform="translate(26.155 3.76)" fill="#f0f0f0"/></g><g transform="translate(2.948 89.552)"><rect width="47.96" height="23.832" fill="#ebebeb"/><rect width="14.831" height="14.831" transform="translate(5.997 9.001)" fill="#f0f0f0"/><rect width="10.556" height="10.556" transform="translate(26.155 13.276)" fill="#f0f0f0"/></g><g transform="translate(2.948 115.885)"><rect width="47.96" height="23.832" fill="#ebebeb"/><rect width="14.831" height="14.831" transform="translate(5.997 9.001)" fill="#f0f0f0"/><rect width="10.556" height="10.556" transform="translate(26.155 13.276)" fill="#f0f0f0"/></g><rect width="16.245" height="7.348" transform="translate(7.532)" fill="#f0f0f0"/><rect width="8.361" height="3.674" transform="translate(30.002 3.674)" fill="#f0f0f0"/></g><g transform="translate(26.362 121.426)"><rect width="46.643" height="41.828" transform="translate(46.643 41.828) rotate(180)" fill="#ebebeb"/><rect width="16.233" height="41.828" transform="translate(46.643 41.828) rotate(180)" fill="#e0e0e0"/></g><g transform="translate(17.08 88.24)"><rect width="46.643" height="34.048" transform="translate(46.643 34.048) rotate(180)" fill="#f5f5f5"/><rect width="16.233" height="34.048" transform="translate(46.643 34.048) rotate(180)" fill="#ebebeb"/></g><g transform="translate(28.028 71.574)"><rect width="44.978" height="16.665" transform="translate(44.978 16.665) rotate(180)" fill="#fafafa"/><rect width="15.653" height="16.665" transform="translate(44.978 16.665) rotate(180)" fill="#f0f0f0"/></g><g transform="translate(10.063)"><rect width="63.716" height="3.674" transform="translate(0 9.806)" fill="#f0f0f0"/><rect width="9.253" height="5.194" transform="translate(4.746 4.613)" fill="#f5f5f5"/><rect width="9.806" height="9.806" transform="translate(16.133)" fill="#f0f0f0"/><rect width="4.903" height="4.903" transform="translate(29.472 4.903)" fill="#ebebeb"/><path d="M143.848,77.355a2.538,2.538,0,1,1-2.538-2.538A2.538,2.538,0,0,1,143.848,77.355Z" transform="translate(-101.172 -69.914)" fill="#f5f5f5"/><path d="M154.881,75.092l3.082-9.806h5.089l2.812,9.979Z" transform="translate(-108.994 -65.286)" fill="#ebebeb"/></g></g><g transform="translate(49.738 57.048)"><path d="M100.736,80.939c14.362-30.581,65.359-26.267,85.04-4.761s26.078,35.288,43.831,27.254S270,97.548,271.3,123.065s-19.5,55.691-52.515,64.617-33,40.514-76.7,34.14c-23.822-3.475-24.365-29.249-21-50.567S84.08,116.4,100.736,80.939Z" transform="translate(-96.69 -59.026)" fill="#2ec5b6"/><path d="M100.736,80.939c14.362-30.581,65.359-26.267,85.04-4.761s26.078,35.288,43.831,27.254S270,97.548,271.3,123.065s-19.5,55.691-52.515,64.617-33,40.514-76.7,34.14c-23.822-3.475-24.365-29.249-21-50.567S84.08,116.4,100.736,80.939Z" transform="translate(-96.69 -59.026)" fill="#fff" opacity="0.9"/></g><ellipse cx="99.738" cy="5.825" rx="99.738" ry="5.825" transform="translate(28.864 234.975)" fill="#f5f5f5"/><g transform="translate(93.27 85.521)"><g transform="translate(0 0)"><path d="M256.577,116.433V268.939a2.227,2.227,0,0,1-2.261,2.23H183.34a1.973,1.973,0,0,1-1.419-.572,2.033,2.033,0,0,1-.6-1.472V116.247a1.8,1.8,0,0,1,1.732-1.869h20.157a1.421,1.421,0,0,1,1.3.906l.836,2.055a1.419,1.419,0,0,0,1.3.9H231.3a1.4,1.4,0,0,0,1.3-.885l.837-2.065a1.421,1.421,0,0,1,1.3-.911H254.6A2.034,2.034,0,0,1,256.577,116.433Z" transform="translate(-181.317 -114.377)" fill="#f7c90b"/><g transform="translate(4.231 3.346)"><rect width="1.049" height="1.398" transform="translate(6.176 2.797) rotate(180)" fill="#fff" opacity="0.6" style="isolation:isolate"/><rect width="1.049" height="1.865" transform="translate(4.467 2.797) rotate(180)" fill="#fff" opacity="0.6" style="isolation:isolate"/><rect width="1.049" height="2.331" transform="translate(2.758 2.797) rotate(180)" fill="#fff" opacity="0.6" style="isolation:isolate"/><rect width="1.049" height="2.797" transform="translate(1.049 2.797) rotate(180)" fill="#fff" opacity="0.6" style="isolation:isolate"/><g transform="translate(60.799 0.379)"><rect width="0.622" height="1.398" transform="translate(0 0.51)" fill="#fff" opacity="0.6" style="isolation:isolate"/><rect width="4.953" height="2.419" transform="translate(6.002 2.419) rotate(180)" fill="#fff" opacity="0.6" style="isolation:isolate"/></g></g><g transform="translate(0.002)" opacity="0.1" style="isolation:isolate"><path d="M215.177,118.236l-21.666,81.155v0l-.241.912v0l-.391,1.462v0l-.246.912L181.32,245.067V193.78l21.2-79.4h.69a1.419,1.419,0,0,1,1.3.907l.835,2.056a1.417,1.417,0,0,0,1.3.9Z" transform="translate(-181.32 -114.376)" fill="#fff"/><path d="M299.53,202.449v51.288l-13.513,50.617-.328,1.23-2.229,8.351H269.769L272,305.589l.357-1.341,1.79-6.706.357-1.341.719-2.682.357-1.341.714-2.682.357-1.341,11.265-42.189v0l.521-1.949v0Z" transform="translate(-224.27 -157.144)" fill="#fff"/><path d="M222.6,121.879l-21.531,80.648-.13.482-1.177,4.419-.131.482-17.7,66.33a2.04,2.04,0,0,1-.6-1.476v-7.8l15.23-57.053.13-.482,1.177-4.419.13-.482,21.531-80.648Z" transform="translate(-181.32 -118.019)" fill="#fff"/></g></g><g transform="translate(0 9.942)"><rect width="75.26" height="140.097" fill="#fff" opacity="0.3" style="isolation:isolate"/></g><g transform="translate(10.121 24.877)"><path d="M296.995,209.364h0a2.621,2.621,0,0,0,2.621-2.621V165.357a2.622,2.622,0,0,0-2.621-2.621h0a2.622,2.622,0,0,0-2.622,2.621v41.385A2.622,2.622,0,0,0,296.995,209.364Z" transform="translate(-246.338 -162.736)" fill="#f7c90b"/><path d="M297.966,209.306a1.6,1.6,0,0,1-1.593-1.593V166.329a1.593,1.593,0,1,1,3.185,0v41.385A1.594,1.594,0,0,1,297.966,209.306Z" transform="translate(-247.309 -163.707)" opacity="0.3" style="isolation:isolate"/><circle cx="3.801" cy="3.801" r="3.801" transform="matrix(0.16, -0.987, 0.987, 0.16, 46.296, 9.842)" fill="#f7c90b"/><path d="M266.995,209.364h0a2.621,2.621,0,0,0,2.621-2.621V165.357a2.622,2.622,0,0,0-2.621-2.621h0a2.622,2.622,0,0,0-2.622,2.621v41.385A2.622,2.622,0,0,0,266.995,209.364Z" transform="translate(-231.77 -162.736)" fill="#f7c90b"/><path d="M267.966,209.306a1.6,1.6,0,0,1-1.593-1.593V166.329a1.593,1.593,0,1,1,3.185,0v41.385A1.594,1.594,0,0,1,267.966,209.306Z" transform="translate(-232.741 -163.707)" opacity="0.3" style="isolation:isolate"/><circle cx="3.801" cy="3.801" r="3.801" transform="matrix(0.16, -0.987, 0.987, 0.16, 30.864, 40.707)" fill="#f7c90b"/><path d="M236.995,209.364h0a2.621,2.621,0,0,0,2.621-2.621V165.357a2.622,2.622,0,0,0-2.621-2.621h0a2.622,2.622,0,0,0-2.622,2.621v41.385A2.621,2.621,0,0,0,236.995,209.364Z" transform="translate(-217.202 -162.736)" fill="#f7c90b"/><path d="M237.966,209.306a1.6,1.6,0,0,1-1.593-1.593V166.329a1.593,1.593,0,1,1,3.185,0v41.385A1.594,1.594,0,0,1,237.966,209.306Z" transform="translate(-218.173 -163.707)" opacity="0.3" style="isolation:isolate"/><circle cx="3.801" cy="3.801" r="3.801" transform="matrix(0.16, -0.987, 0.987, 0.16, 15.432, 20.13)" fill="#f7c90b"/><path d="M206.995,209.364h0a2.621,2.621,0,0,0,2.621-2.621V165.357a2.622,2.622,0,0,0-2.621-2.621h0a2.622,2.622,0,0,0-2.622,2.621v41.385A2.621,2.621,0,0,0,206.995,209.364Z" transform="translate(-202.634 -162.736)" fill="#f7c90b"/><path d="M207.966,209.306a1.6,1.6,0,0,1-1.593-1.593V166.329a1.593,1.593,0,1,1,3.185,0v41.385A1.594,1.594,0,0,1,207.966,209.306Z" transform="translate(-203.605 -163.707)" opacity="0.3" style="isolation:isolate"/><circle cx="3.801" cy="3.801" r="3.801" transform="matrix(0.16, -0.987, 0.987, 0.16, 0, 35.563)" fill="#f7c90b"/><circle cx="3.801" cy="3.801" r="3.801" transform="matrix(0.16, -0.987, 0.987, 0.16, 46.296, 9.842)" fill="#fff" opacity="0.6"/><path d="M296.853,175.915a2.772,2.772,0,1,1,2.772-2.772A2.775,2.775,0,0,1,296.853,175.915Z" transform="translate(-246.196 -166.444)" fill="#fff" opacity="0.6"/><circle cx="3.801" cy="3.801" r="3.801" transform="matrix(0.16, -0.987, 0.987, 0.16, 30.864, 40.707)" fill="#fff" opacity="0.6"/><path d="M266.853,235.915a2.772,2.772,0,1,1,2.772-2.772A2.775,2.775,0,0,1,266.853,235.915Z" transform="translate(-231.628 -195.579)" fill="#fff" opacity="0.6"/><circle cx="3.801" cy="3.801" r="3.801" transform="matrix(0.16, -0.987, 0.987, 0.16, 15.432, 20.13)" fill="#fff" opacity="0.6"/><path d="M236.853,195.915a2.772,2.772,0,1,1,2.772-2.772A2.775,2.775,0,0,1,236.853,195.915Z" transform="translate(-217.06 -176.155)" fill="#fff" opacity="0.6"/><circle cx="3.801" cy="3.801" r="3.801" transform="matrix(0.16, -0.987, 0.987, 0.16, 0, 35.563)" fill="#fff" opacity="0.6"/><path d="M206.853,225.915a2.772,2.772,0,1,1,2.772-2.772A2.775,2.775,0,0,1,206.853,225.915Z" transform="translate(-202.492 -190.723)" fill="#fff" opacity="0.6"/></g><g transform="translate(3.638 80.858)"><rect width="67.984" height="63.682" rx="2.751" fill="#f7c90b"/><rect width="67.984" height="63.682" rx="2.751" opacity="0.3" style="isolation:isolate"/></g><g transform="translate(9.309 83.635)"><path d="M242.545,338.128V343.6l2.819.265a14.631,14.631,0,0,0,2.1,5.057l-1.811,2.187,3.871,3.871,2.187-1.811a14.628,14.628,0,0,0,5.056,2.1l.265,2.819h5.474l.265-2.819a14.622,14.622,0,0,0,5.057-2.1l2.187,1.811,3.871-3.871-1.81-2.187a14.64,14.64,0,0,0,2.1-5.057L277,343.6v-5.474l-2.819-.265a14.63,14.63,0,0,0-2.1-5.057l1.81-2.187-3.871-3.87-2.187,1.81a14.618,14.618,0,0,0-5.057-2.1l-.265-2.819h-5.474l-.265,2.819a14.617,14.617,0,0,0-5.056,2.1l-2.187-1.81-3.871,3.87,1.811,2.187a14.631,14.631,0,0,0-2.1,5.057Zm17.227-4.674a7.411,7.411,0,1,1-7.411,7.411A7.411,7.411,0,0,1,259.772,333.454Z" transform="translate(-220.358 -299.627)" fill="#fff" opacity="0.6"/><path d="M199.413,310.529v4.29l2.209.208a11.466,11.466,0,0,0,1.648,3.962l-1.419,1.714,3.033,3.033,1.714-1.419a11.458,11.458,0,0,0,3.962,1.648l.208,2.208h4.29l.208-2.208a11.459,11.459,0,0,0,3.962-1.648l1.714,1.419,3.033-3.033-1.419-1.714a11.466,11.466,0,0,0,1.648-3.962l2.209-.208v-4.29l-2.209-.208a11.462,11.462,0,0,0-1.648-3.962l1.419-1.714-3.033-3.033-1.714,1.419a11.448,11.448,0,0,0-3.962-1.647l-.208-2.209h-4.29l-.208,2.209a11.447,11.447,0,0,0-3.962,1.647l-1.714-1.419-3.033,3.033,1.419,1.714a11.462,11.462,0,0,0-1.648,3.962Zm13.5-3.662a5.807,5.807,0,1,1-5.807,5.807A5.807,5.807,0,0,1,212.913,306.866Z" transform="translate(-199.413 -287.748)" fill="#fff" opacity="0.4"/><path d="M245.923,286.5v3.6l1.855.174a9.62,9.62,0,0,0,1.383,3.328l-1.191,1.439,2.548,2.548,1.439-1.192a9.619,9.619,0,0,0,3.328,1.383l.174,1.855h3.6l.174-1.855a9.631,9.631,0,0,0,3.328-1.384l1.439,1.192,2.548-2.548-1.192-1.439a9.63,9.63,0,0,0,1.383-3.328l1.855-.174v-3.6l-1.855-.174A9.631,9.631,0,0,0,265.362,283l1.192-1.439-2.548-2.548-1.439,1.192a9.631,9.631,0,0,0-3.328-1.384l-.174-1.855h-3.6l-.174,1.855a9.64,9.64,0,0,0-3.328,1.384l-1.439-1.192-2.548,2.548L249.162,283a9.631,9.631,0,0,0-1.384,3.328Zm11.339-3.076a4.878,4.878,0,1,1-4.878,4.878A4.878,4.878,0,0,1,257.262,283.422Z" transform="translate(-221.998 -276.961)" fill="#fff" opacity="0.2"/><path d="M225.888,320.409l-3.025-3.025-4.132,1.107-1.107,4.132,3.025,3.025,4.132-1.107Z" transform="translate(-208.256 -296.591)" fill="#fff" opacity="0.6"/><path d="M272.09,346.908l-4.887,2.05-.668,5.257,4.219,3.207,4.887-2.05.668-5.258Z" transform="translate(-232.007 -310.927)" fill="#fff" opacity="0.8"/><path d="M268.136,297.446v-3.508l-3.038-1.754-3.038,1.754v3.508L265.1,299.2Z" transform="translate(-229.834 -284.353)" fill="#fff" opacity="0.4"/></g></g><g transform="translate(156.223 110.472)"><path d="M408.366,237.611l5.472,4.445s1.339.028,1.759.47,2.036,3.726,1.807,4.174-2.93,1.333-3.5.8a12.385,12.385,0,0,1-1.539-3.893l-6.993-4.691Z" transform="translate(-353.069 -199.17)" fill="#b97964"/><path d="M402.007,223.953l-1.224,2.67s-7.526-3.524-9.156-5.576c-.417-.53-.993-1.373-1.615-2.335-1.024-1.59-2.181-3.5-2.984-4.846-.6-1-1-1.687-1-1.687l4.259-6.718c.931.715,3.781,12.2,4.29,12.814S402.007,223.953,402.007,223.953Z" transform="translate(-343.677 -183.557)" fill="#263238"/><path d="M390.954,222.033c-1.024-1.59-2.181-3.5-2.984-4.846l1.98-4.887A58.268,58.268,0,0,1,390.954,222.033Z" transform="translate(-344.619 -186.879)" opacity="0.2" style="isolation:isolate"/><path d="M315.338,182.91l-5.771-4.1s-.686-1.149-1.278-1.3-4.245.074-4.522.5.291,3.206,1.033,3.439a12.4,12.4,0,0,0,4.145-.589l5.861,4.049Z" transform="translate(-303.696 -169.964)" fill="#b97964"/><path d="M409.411,403.132l-3.229.57-1.324-4.4-1.208-4.041,3.723-1.3,1.081,4.857Z" transform="translate(-352.233 -275.091)" fill="#b97964"/><path d="M408.478,398.935l-3.6.474-1.216-4.085L407.384,394Z" transform="translate(-352.24 -275.112)" opacity="0.2" style="isolation:isolate"/><path d="M368.878,403.363H365.6l-.539-4.4-.487-4.106,3.893-.592.22,4.825Z" transform="translate(-333.258 -275.24)" fill="#b97964"/><path d="M368.686,399.439l-3.626-.159-.487-4.235,3.893-.656Z" transform="translate(-333.258 -275.3)" opacity="0.2" style="isolation:isolate"/><g transform="translate(23.766 42.1)"><path d="M382.673,322.915l-5.309.936c-5.357-13.346-9.167-24.487-11.858-33.732-1.45-4.988-2.6-9.424-3.466-13.361l.224,14.529v32.772h-5.353c-13.113-62.243-3.82-76.713-3.82-76.713l15.688-2.623a71.41,71.41,0,0,1,1.314,8.809l.708,5.2,6.133,31.673Z" transform="translate(-349.896 -244.723)" fill="#2ec5b6"/></g><g transform="translate(50.402 118.389)"><path d="M401.676,395.211l6.585-2.183-.089,2.8-5.446,1.737Z" transform="translate(-401.676 -393.028)" fill="#2ec5b6"/><path d="M401.676,395.211l6.585-2.183-.089,2.8-5.446,1.737Z" transform="translate(-401.676 -393.028)" fill="#fff" opacity="0.6" style="isolation:isolate"/></g><g transform="translate(30.077 119.871)"><path d="M362.166,396.915l6.864-1-.575,2.743-5.665.764Z" transform="translate(-362.166 -395.91)" fill="#2ec5b6"/><path d="M362.166,396.915l6.864-1-.575,2.743-5.665.764Z" transform="translate(-362.166 -395.91)" fill="#fff" opacity="0.6" style="isolation:isolate"/></g><path d="M377.4,305.6c-.247-.829-.511-1.643-.744-2.443-1.314-4.528-2.192-8.6-3.221-12.255v-.01l-.537-6.729s3.356-7.393,2.1-12.595a25.022,25.022,0,0,1,1.465,11.625A164.914,164.914,0,0,0,377.4,305.6Z" transform="translate(-337.3 -215.657)" opacity="0.2" style="isolation:isolate"/><g transform="translate(32.906 0.049)"><path d="M375.309,179.384a.754.754,0,0,1-.137.075,5.771,5.771,0,0,1-2.137.722c-2.189.214-3.6-.266-4.424-1.351h-.005c-1.139-1.615-1.138-4.213-.55-7.27a11.67,11.67,0,0,1,1.142-3.512c.006-.009.011-.045.016-.054.024-.036.046-.088.07-.124a4.243,4.243,0,0,1,3.425-2.165,8.6,8.6,0,0,1,1.848.032C380.575,166.457,380.361,176.551,375.309,179.384Z" transform="translate(-367.666 -164.284)" fill="#b97964"/><path d="M376.084,191.723a5.637,5.637,0,0,1-2.127.638c-2.189.213-3.594-.336-4.414-1.435a6.038,6.038,0,0,0,3.853.184A3.153,3.153,0,0,1,376.084,191.723Z" transform="translate(-368.578 -176.549)" opacity="0.2" style="isolation:isolate"/><path d="M377.214,195.681c.54,1.682-1.616,2.6-1.616,2.6-3.79-1.2-4.655-3.065-4.655-3.065,2.879-1.881,1.562-6.272,1.562-6.272l.647.243,4.417.422s-.976,2.425-1.084,2.967c0,.005,0,.01,0,.015C375.936,195.422,377.214,195.681,377.214,195.681Z" transform="translate(-369.257 -175.586)" fill="#b97964"/><path d="M370.564,166.7a6.371,6.371,0,0,0,2.878,6.5s1.145,4.6,3.662,4.991c3.431.532,7.1-3.971,6.558-9.113C382.957,162.409,373.227,160.607,370.564,166.7Z" transform="translate(-369.03 -162.977)" fill="#263238"/><path d="M372.549,178.611c.087-.657.759-1.692,1.761-1.409,1.038.293,1.284,2.976-1.391,3.22C372.536,180.457,372.367,179.983,372.549,178.611Z" transform="translate(-370.001 -169.861)" fill="#b97964"/></g><path d="M359.213,410.743h3.659a.335.335,0,0,1,.325.262l.751,3.394a.562.562,0,0,1-.434.667.554.554,0,0,1-.124.012c-1.5-.024-1.618-.116-3.5-.116-1.158,0-4.654.121-6.254.121s-1.808-1.581-1.154-1.726c2.938-.64,5.149-1.527,6.089-2.371A.922.922,0,0,1,359.213,410.743Z" transform="translate(-327.219 -283.241)" fill="#263238"/><path d="M362.568,411.128a1.14,1.14,0,0,1-.732-.194.533.533,0,0,1-.189-.485.272.272,0,0,1,.155-.252c.421-.218,1.653.538,1.789.625a.083.083,0,0,1,.044.087.091.091,0,0,1-.068.077A4.576,4.576,0,0,1,362.568,411.128Zm-.567-.791a.208.208,0,0,0-.116.025c-.024,0-.054.034-.058.107a.373.373,0,0,0,.121.325,1.852,1.852,0,0,0,1.357.068A3.709,3.709,0,0,0,362,410.337Z" transform="translate(-331.834 -282.957)" fill="#2ec5b6"/><path d="M364.275,410.179h-.044c-.392-.214-1.154-1.052-1.076-1.455a.3.3,0,0,1,.291-.237.484.484,0,0,1,.383.116c.441.359.533,1.454.538,1.508a.1.1,0,0,1-.044.082A.081.081,0,0,1,364.275,410.179Zm-.766-1.547h-.044c-.116,0-.126.068-.131.092-.049.247.436.883.829,1.179a2.136,2.136,0,0,0-.451-1.193A.313.313,0,0,0,363.509,408.632Z" transform="translate(-332.566 -282.144)" fill="#2ec5b6"/><path d="M401.649,410.743h3.659a.335.335,0,0,1,.325.262l.752,3.394a.563.563,0,0,1-.434.667.554.554,0,0,1-.124.012c-1.5-.024-1.618-.116-3.5-.116-1.158,0-4.654.121-6.254.121s-1.808-1.581-1.154-1.726c2.938-.64,5.148-1.527,6.089-2.371A.922.922,0,0,1,401.649,410.743Z" transform="translate(-347.825 -283.241)" fill="#263238"/><path d="M405,411.128a1.142,1.142,0,0,1-.732-.194.533.533,0,0,1-.189-.485.272.272,0,0,1,.155-.252c.422-.218,1.653.538,1.789.625a.083.083,0,0,1,.044.087.092.092,0,0,1-.068.077A4.576,4.576,0,0,1,405,411.128Zm-.567-.791a.207.207,0,0,0-.116.025c-.024,0-.053.034-.058.107a.373.373,0,0,0,.121.325,1.852,1.852,0,0,0,1.358.068A3.709,3.709,0,0,0,404.437,410.337Z" transform="translate(-352.441 -282.957)" fill="#2ec5b6"/><path d="M406.711,410.179h-.044c-.393-.214-1.154-1.052-1.076-1.455a.3.3,0,0,1,.291-.237.484.484,0,0,1,.383.116c.441.359.533,1.454.538,1.508a.1.1,0,0,1-.044.082A.08.08,0,0,1,406.711,410.179Zm-.766-1.547H405.9c-.116,0-.126.068-.131.092-.048.247.437.883.829,1.179a2.139,2.139,0,0,0-.451-1.193A.313.313,0,0,0,405.945,408.632Z" transform="translate(-353.173 -282.144)" fill="#2ec5b6"/><path d="M355.29,224.971s-2.993-18.235,2.151-26.411c0,0,10.273-.638,17.5,3.533,0,0-2.986,8.118-3.431,22.877Z" transform="translate(-328.329 -180.19)" fill="#263238"/><path d="M354.246,212.6c-.222-2.474.494-4.856.618-6.955a20.17,20.17,0,0,0,3.381-3.855S359.181,209.178,354.246,212.6Z" transform="translate(-328.222 -181.776)" opacity="0.2" style="isolation:isolate"/><path d="M342.081,191.8S331.9,190.6,330.369,189.96c-.959-.4-8.442-5.292-8.442-5.292l-1.754,2.613s7.656,6.183,8.95,6.894a89.549,89.549,0,0,0,9.858,4.019S343.1,195.329,342.081,191.8Z" transform="translate(-311.697 -173.461)" fill="#263238"/><path d="M391.82,166.822s3.492-2.97,6.959-1.1-.57,9.064.442,11.27,3.211,2.042.438,3.494-.088,2.653-.088,2.653-2.481.841-2.685-1.2-1.1-3.734-1.9-4.083,1.361-4.228.61-6.147a2.989,2.989,0,0,0-2.929-1.755Z" transform="translate(-346.489 -163.96)" fill="#263238"/><path d="M373.939,164.383s-4.4-2.76-6.478-.8c-3.2,3.028,1.362,7.38,6.193,9.442Z" transform="translate(-334.141 -162.881)" fill="#263238"/></g><g transform="translate(39.938 105.507)"><g transform="translate(9.828 9.591)"><path d="M149.618,224.506l-36.081-40.175a8.788,8.788,0,0,0-9.6-12.309.618.618,0,0,0-.356,1.02l4.733,5.269a.776.776,0,0,1,.16.758l-1.025,3.141a.775.775,0,0,1-.576.517l-3.233.683a.773.773,0,0,1-.736-.24l-4.733-5.27a.619.619,0,0,0-1.053.246,8.787,8.787,0,0,0,11.209,10.862l36.082,40.175a8.787,8.787,0,0,0,9.6,12.309.618.618,0,0,0,.356-1.02l-4.733-5.27a.775.775,0,0,1-.16-.758L150.5,231.3a.774.774,0,0,1,.576-.518l3.233-.683a.775.775,0,0,1,.736.24l4.733,5.27a.618.618,0,0,0,1.052-.246,8.787,8.787,0,0,0-11.209-10.862Z" transform="translate(-96.745 -171.874)" fill="#2ec5b6"/><path d="M149.618,224.506l-36.081-40.175a8.788,8.788,0,0,0-9.6-12.309.618.618,0,0,0-.356,1.02l4.733,5.269a.776.776,0,0,1,.16.758l-1.025,3.141a.775.775,0,0,1-.576.517l-3.233.683a.773.773,0,0,1-.736-.24l-4.733-5.27a.619.619,0,0,0-1.053.246,8.787,8.787,0,0,0,11.209,10.862l36.082,40.175a8.787,8.787,0,0,0,9.6,12.309.618.618,0,0,0,.356-1.02l-4.733-5.27a.775.775,0,0,1-.16-.758L150.5,231.3a.774.774,0,0,1,.576-.518l3.233-.683a.775.775,0,0,1,.736.24l4.733,5.27a.618.618,0,0,0,1.052-.246,8.787,8.787,0,0,0-11.209-10.862Z" transform="translate(-96.745 -171.874)" fill="#fff" opacity="0.7" style="isolation:isolate"/></g><path d="M108.141,182.156s-10.71,1.405-12.1,3.316-1.468,3.684,4.866,5.5l1.854-1.35s-2.627-1-2.317-1.622,7.7-.386,7.7-.386Z" transform="translate(-86.204 -167.276)" fill="#e4897b"/><path d="M118.952,181.544l-1.492,5.206-2.505.381-5.247.8-.154-2.1-.3-4.146A28.75,28.75,0,0,1,118.952,181.544Z" transform="translate(-92.989 -166.801)" fill="#2ec5b6"/><path d="M116.594,186.17l-1.353,3.385-5.247.8-.154-2.1C112.5,186.18,116.594,186.17,116.594,186.17Z" transform="translate(-93.276 -169.226)" opacity="0.2" style="isolation:isolate"/><path d="M120.965,403.233l4.172.437.211-2.418.571-6.579-4.172-.442-.633,7.269Z" transform="translate(-98.678 -270.259)" fill="#e4897b"/><path d="M80.485,401.96h4.043l.036-.916.005-.113.206-5.864.005-.118.082-2.248H80.814Z" transform="translate(-79.021 -269.516)" fill="#e4897b"/><path d="M121.888,394.231l-.633,7.269,4.234-.247.571-6.579Z" transform="translate(-98.819 -270.259)" opacity="0.2" style="isolation:isolate"/><path d="M80.535,403.874h.005l4.048-.514h.005L84.8,397.7H84.8l-4.053.324L80.54,403.7Z" transform="translate(-79.046 -271.944)" opacity="0.2" style="isolation:isolate"/><path d="M83.707,410.228H78.795a.354.354,0,0,0-.345.278l-.8,3.6a.6.6,0,0,0,.46.707.624.624,0,0,0,.131.013c1.59-.026,2.747-.123,4.743-.123,1.229,0,4.938.129,6.636.129s1.919-1.677,1.224-1.831c-3.117-.679-5.463-1.62-6.461-2.515A.978.978,0,0,0,83.707,410.228Z" transform="translate(-77.64 -278.027)" fill="#263238"/><path d="M124.207,409.978h-4.913a.354.354,0,0,0-.345.278l-.8,3.6a.6.6,0,0,0,.46.707.624.624,0,0,0,.131.013c1.59-.026,2.747-.123,4.743-.123,1.229,0,4.938.129,6.636.129s1.919-1.677,1.224-1.831c-3.117-.679-5.463-1.62-6.461-2.515A.978.978,0,0,0,124.207,409.978Z" transform="translate(-97.306 -277.905)" fill="#263238"/><path d="M106.057,322.693h-5.931s-1.7-51.279-8.116-68.521c.786,32.065-6.771,69.036-6.771,69.036H79.38s2.677-28.947,2.677-41.6c0-22.432-6.152-33.388-.162-47.9h21.461C108.612,265.362,110.636,287.714,106.057,322.693Z" transform="translate(-78.434 -192.306)" fill="#263238"/><path d="M125.743,403.451l-.289,1.672h-7.009v-1.543Z" transform="translate(-97.454 -274.736)" fill="#2ec5b6"/><path d="M85.631,404.7l-.673,1.543H79.081L78.7,404.7Z" transform="translate(-78.152 -275.343)" fill="#2ec5b6"/><g transform="translate(30.178)"><path d="M153.632,172.555a5.707,5.707,0,0,1-.481.356,5.691,5.691,0,0,1-4.052.878,5.1,5.1,0,0,1-3.635-2.453,5.149,5.149,0,0,1-.655-1.925c-.409-2.85,1.04-4.716,3.238-8.065a5.485,5.485,0,0,1,9.337.111C159.583,165.077,156.472,170.178,153.632,172.555Z" transform="translate(-140.401 -155.929)" fill="#e4897b"/><path d="M150.64,185.077a5.615,5.615,0,0,1-.857-.072,5.1,5.1,0,0,1-3.635-2.453,5.957,5.957,0,0,1,1.382-.665A7.9,7.9,0,0,1,150.64,185.077Z" transform="translate(-141.085 -167.146)" opacity="0.2" style="isolation:isolate"/><path d="M136.306,179.1c.517,2.611,4.789,4.953,4.789,4.953s2.912,1.131,2.964,0a3.354,3.354,0,0,1-1.1-3.531,5.145,5.145,0,0,1,1.062-1.736,10.543,10.543,0,0,1,.793-.82l-2.163-7.1C141.54,173.667,139.115,178.547,136.306,179.1Z" transform="translate(-136.306 -161.79)" fill="#e4897b"/><path d="M157.741,159.3c-.437-2.442-1.671-2.552-1.671-2.552-.119-1.945-4.707-3.911-7.707-3.28s-5.05,3.287-5.871,5.725a19.306,19.306,0,0,0-.475,7.961l0,0c2.429,1.849,4.961,2.191,5.731.82a4.687,4.687,0,0,1,2.668-1.842c1.156,1.005,2.987.009,2.987.009a3.878,3.878,0,0,0,2.431-2.743C156.192,161.376,158.109,161.363,157.741,159.3Z" transform="translate(-138.974 -153.289)" fill="#263238"/><path d="M158.139,174.49a2.593,2.593,0,0,0,.011,2.22c.449.763,1.562.159,2.183-.877.545-.922.995-2.456.176-2.816S158.551,173.457,158.139,174.49Z" transform="translate(-146.791 -162.796)" fill="#e4897b"/><path d="M159.393,153.392c4.512-1.347,8.143,6.059,7.964,9.985-.145,3.189-3.494,2.8-3.494,2.8a1.933,1.933,0,0,0,1.67-2.364s-.8,2.742-2.6.943.331-6.089.331-6.089Z" transform="translate(-147.517 -153.23)" fill="#263238"/></g><path d="M97.472,286.416a146.415,146.415,0,0,0-2.269-14.8c-6.075-7.634-2.757-14.681-2.757-14.681.813,4.9,5.52,8.524,5.52,8.524C98.136,272.352,97.92,279.476,97.472,286.416Z" transform="translate(-84.391 -203.586)" opacity="0.2" style="isolation:isolate"/><g transform="translate(1.757 14.741)"><path d="M136.286,184.291s1.306-.967,3.714.458a7.866,7.866,0,0,1,3.2,4.15Z" transform="translate(-107.875 -182.899)" fill="#2ec5b6"/><path d="M106.539,218.664s0-12.516,13.085-27.665c0,0-5.876-8.2-14.364-9.112,0,0-15.67,5.379-24.2,28.288Z" transform="translate(-81.056 -181.887)" fill="#2ec5b6"/><path d="M119.625,191q-2.076,2.407-3.729,4.712a58.832,58.832,0,0,0-5.144,8.513c-4.208,8.57-4.208,14.439-4.208,14.439L81.06,210.177c8.534-22.912,24.2-28.287,24.2-28.287C113.75,182.8,119.625,191,119.625,191Z" transform="translate(-81.058 -181.888)" fill="#fff" opacity="0.6" style="isolation:isolate"/><g transform="translate(0.347 0.115)"><g transform="translate(0 26.312)"><path d="M107.023,241.815c-.057.422-.093.772-.113,1.049l-25.18-8.647c.123-.324.252-.643.381-.957Z" transform="translate(-81.73 -233.26)" fill="#2ec5b6"/></g><g transform="translate(1.25 23.333)"><path d="M108.646,236.457c-.077.365-.149.7-.206,1.024-8.724-3.369-18.657-7.13-24.28-9.074.139-.319.283-.628.427-.936C90.858,229.63,101.712,233.777,108.646,236.457Z" transform="translate(-84.16 -227.47)" fill="#2ec5b6"/></g><g transform="translate(2.654 20.406)"><path d="M110.635,231.111c-.1.345-.2.679-.283,1-6.924-2.994-17.361-7.392-23.462-9.408.159-.314.319-.617.478-.921C93.582,223.848,103.788,228.143,110.635,231.111Z" transform="translate(-86.89 -221.78)" fill="#2ec5b6"/></g><g transform="translate(4.218 17.557)"><path d="M112.97,225.782c-.118.34-.237.669-.345.988-6.759-3.261-16.456-7.721-22.7-9.625.175-.309.355-.612.535-.905C96.813,218.205,106.3,222.562,112.97,225.782Z" transform="translate(-89.93 -216.24)" fill="#2ec5b6"/></g><g transform="translate(5.947 14.774)"><path d="M115.667,220.5c-.144.324-.278.643-.4.962-6.466-3.457-15.442-7.9-21.975-9.727.2-.3.406-.607.612-.9C100.523,212.738,109.3,217.08,115.667,220.5Z" transform="translate(-93.29 -210.83)" fill="#2ec5b6"/></g><g transform="translate(7.876 12.068)"><path d="M118.743,215.251c-.159.319-.314.638-.463.952-6.08-3.585-14.352-7.953-21.24-9.743.226-.3.453-.6.684-.89C104.663,207.453,112.755,211.717,118.743,215.251Z" transform="translate(-97.04 -205.57)" fill="#2ec5b6"/></g><g transform="translate(10.036 9.429)"><path d="M122.228,210.075c-.18.314-.35.622-.52.926-5.643-3.642-13.261-7.881-20.468-9.691.257-.3.514-.586.782-.869C109.234,202.338,116.677,206.479,122.228,210.075Z" transform="translate(-101.24 -200.44)" fill="#2ec5b6"/></g><g transform="translate(12.464 6.883)"><path d="M126.125,205.043c-.19.288-.37.576-.55.864-5.185-3.647-12.191-7.726-19.614-9.583.293-.288.581-.566.869-.833C114.149,197.445,121.012,201.452,126.125,205.043Z" transform="translate(-105.96 -195.49)" fill="#2ec5b6"/></g><g transform="translate(15.226 4.414)"><path d="M130.522,200.083c-.2.283-.4.561-.592.833a53.351,53.351,0,0,0-18.6-9.429c.34-.278.669-.545.993-.8A54.864,54.864,0,0,1,130.522,200.083Z" transform="translate(-111.33 -190.69)" fill="#2ec5b6"/></g><g transform="translate(18.405 2.088)"><path d="M135.483,195.3c-.216.273-.427.54-.633.813a47.134,47.134,0,0,0-17.341-9.208c.4-.268.777-.509,1.142-.736A48.441,48.441,0,0,1,135.483,195.3Z" transform="translate(-117.51 -186.17)" fill="#2ec5b6"/></g><g transform="translate(22.166)"><path d="M140.875,191.107c-.139.159-.273.319-.406.478a42.206,42.206,0,0,0-15.648-8.848c.633-.314,1.111-.514,1.394-.628a43.051,43.051,0,0,1,13.194,7.238.005.005,0,0,1,.005.005A20.89,20.89,0,0,1,140.875,191.107Z" transform="translate(-124.82 -182.11)" fill="#2ec5b6"/></g></g><path d="M143.92,207.177a58.834,58.834,0,0,0-5.144,8.513,12.866,12.866,0,0,1,4.753-10.19Z" transform="translate(-109.083 -193.353)" opacity="0.2" style="isolation:isolate"/></g><path d="M151.232,207.123V222.98l6.139,11.045,2.527,2.813s-2.951,1.823-3.765.652a18.973,18.973,0,0,1-1.628-3.465s-6.1-8.192-7.055-10.151-1.3-13.79-1.3-13.79Z" transform="translate(-110.906 -179.4)" fill="#e4897b"/><path d="M149.949,199.6c.967,2.675.959,11.792.959,11.792l-6.853.6-.55-3.6a12.6,12.6,0,0,1,2.358-6.488A5.74,5.74,0,0,1,149.949,199.6Z" transform="translate(-109.623 -175.748)" fill="#2ec5b6"/></g></g></svg>