<?xml version="1.0" encoding="utf-8"?>
<!-- Generator: Adobe Illustrator 25.2.0, SVG Export Plug-In . SVG Version: 6.00 Build 0)  -->
<svg version="1.1" id="Layer_1" xmlns="http://www.w3.org/2000/svg" xmlns:xlink="http://www.w3.org/1999/xlink" x="0px" y="0px"
	 viewBox="0 0 203 63" style="enable-background:new 0 0 203 63;" xml:space="preserve">
<style type="text/css">
	.st0{fill:#ACACAC;}
	.st1{fill:url(#SVGID_1_);}
	.st2{fill:#FFFFFF;}
</style>
<g>
	<g>
		<path class="st0" d="M193.9,62.5H9.1c-4.8,0-8.6-3.9-8.6-8.6V9.1c0-4.8,3.9-8.6,8.6-8.6h184.7c4.8,0,8.6,3.9,8.6,8.6v44.7
			C202.5,58.6,198.6,62.5,193.9,62.5z"/>
		<path d="M193.9,60.5H9.1c-3.7,0-6.6-3-6.6-6.6V9.1c0-3.7,3-6.6,6.6-6.6h184.7c3.7,0,6.6,3,6.6,6.6v44.7
			C200.5,57.5,197.5,60.5,193.9,60.5z"/>
		<linearGradient id="SVGID_1_" gradientUnits="userSpaceOnUse" x1="143.1612" y1="62.5" x2="143.1612" y2="0.5">
			<stop  offset="0" style="stop-color:#1A1A1A;stop-opacity:0.1"/>
			<stop  offset="0.123" style="stop-color:#212121;stop-opacity:0.151"/>
			<stop  offset="0.308" style="stop-color:#353535;stop-opacity:0.227"/>
			<stop  offset="0.532" style="stop-color:#575757;stop-opacity:0.318"/>
			<stop  offset="0.783" style="stop-color:#858585;stop-opacity:0.421"/>
			<stop  offset="1" style="stop-color:#B3B3B3;stop-opacity:0.51"/>
		</linearGradient>
		<path class="st1" d="M193.9,62.5h-70.1l-39.9-62h110c4.8,0,8.6,3.9,8.6,8.6v44.7C202.5,58.6,198.6,62.5,193.9,62.5z"/>
	</g>
	<g>
		<path class="st2" d="M46.1,31c0-4.8,3.9-7.1,4.1-7.2c-2.2-3.3-5.7-3.7-6.9-3.7c-2.9-0.3-5.7,1.7-7.2,1.7c-1.5,0-3.8-1.7-6.3-1.7
			c-3.2,0-6.1,1.9-7.8,4.7c-3.4,5.8-0.9,14.4,2.4,19.1c1.6,2.3,3.5,4.9,6,4.8c2.4-0.1,3.3-1.5,6.2-1.5c2.9,0,3.7,1.5,6.2,1.5
			c2.6,0,4.2-2.3,5.8-4.6c1.9-2.6,2.6-5.2,2.6-5.4C51.2,38.6,46.2,36.7,46.1,31L46.1,31z M41.4,16.9c1.3-1.6,2.2-3.8,1.9-6.1
			c-1.9,0.1-4.2,1.3-5.6,2.9c-1.2,1.4-2.3,3.7-2,5.8C37.9,19.8,40,18.5,41.4,16.9L41.4,16.9z"/>
		<path class="st2" d="M107.8,33.8c-2.1,0-3.7,0.8-4.8,2.5H103l-0.2-2.3H100c0.1,1.6,0.1,3.2,0.1,4.7v15.3h3.2v-7.5
			c0.8,1.3,2.2,2,4.1,2c1.7,0,3.2-0.6,4.4-1.9c1.3-1.4,2-3.3,2-5.7c0-2.2-0.6-3.9-1.7-5.2C110.9,34.5,109.5,33.8,107.8,33.8z
			 M109.5,44.8c-0.7,0.9-1.6,1.4-2.8,1.4c-1,0-1.8-0.4-2.5-1.1c-0.6-0.7-1-1.6-1-2.6v-2.4c0-0.3,0.1-0.6,0.1-1
			c0.2-0.8,0.6-1.5,1.2-2c0.6-0.5,1.3-0.8,2.1-0.8c1.2,0,2.1,0.5,2.7,1.4c0.6,0.9,0.9,2,0.9,3.4C110.5,42.7,110.1,43.9,109.5,44.8z
			 M91.5,33.8c-2.1,0-3.7,0.8-4.8,2.5h-0.1l-0.2-2.3h-2.8c0.1,1.6,0.1,3.2,0.1,4.7v15.3h3.2v-7.5c0.8,1.3,2.2,2,4.1,2
			c1.7,0,3.2-0.6,4.4-1.9c1.3-1.4,2-3.3,2-5.7c0-2.2-0.6-3.9-1.7-5.2C94.5,34.5,93.1,33.8,91.5,33.8z M93.1,44.8
			c-0.7,0.9-1.6,1.4-2.8,1.4c-1,0-1.8-0.4-2.5-1.1c-0.6-0.7-1-1.6-1-2.6v-2.4c0-0.3,0-0.6,0.1-1c0.2-0.8,0.6-1.5,1.2-2
			c0.6-0.5,1.3-0.8,2.1-0.8c1.2,0,2.1,0.5,2.8,1.4c0.6,0.9,0.9,2,0.9,3.4C94.1,42.7,93.8,43.9,93.1,44.8z M70.7,28.6l-6.4,19.7h3.3
			l1.8-5.8h6.4l1.8,5.8H81l-6.4-19.7H70.7z M70,40.1l1.6-5.2c0.4-1.6,0.7-2.9,0.9-3.7h0.1c0.5,2,0.8,3.2,1,3.7l1.7,5.2H70z
			 M139,34.1h3.5v2.4H139v6.9c0,1.8,0.6,2.6,1.8,2.6c0.6,0,1,0,1.4-0.1l0.1,2.4c-0.6,0.2-1.4,0.3-2.5,0.3c-1.2,0-2.2-0.4-2.9-1.1
			c-0.7-0.8-1.1-2-1.1-3.8v-7.2h-2.1v-2.4h2.1v-2.6l3.1-0.9V34.1z M130.8,39.4c0.8,0.9,1.2,2.1,1.2,3.4c0,1.7-0.6,3-1.8,4.1
			c-1.3,1.2-3.1,1.7-5.4,1.7c-2.1,0-3.8-0.4-5.1-1.2l0.7-2.6c1.4,0.8,2.9,1.2,4.6,1.2c1.2,0,2.1-0.3,2.8-0.8c0.7-0.5,1-1.3,1-2.1
			c0-0.8-0.3-1.5-0.8-2c-0.5-0.5-1.5-1.1-2.7-1.5c-3.5-1.3-5.2-3.2-5.2-5.7c0-1.6,0.6-2.9,1.8-4c1.2-1,2.8-1.6,4.8-1.6
			c1.8,0,3.3,0.3,4.5,0.9l-0.8,2.6c-1.1-0.6-2.4-0.9-3.8-0.9c-1.1,0-2,0.3-2.6,0.8c-0.5,0.5-0.8,1.1-0.8,1.8c0,0.8,0.3,1.4,0.9,1.9
			c0.5,0.5,1.5,1,2.9,1.5C128.7,37.7,130,38.5,130.8,39.4z M182.6,40.6c0-1.8-0.4-3.3-1.3-4.5c-1.1-1.5-2.6-2.3-4.7-2.3
			c-2.1,0-3.7,0.8-5,2.3c-1.2,1.4-1.8,3.2-1.8,5.4c0,2.2,0.6,3.9,1.9,5.2c1.3,1.3,3,1.9,5.2,1.9c1.8,0,3.4-0.3,4.8-0.9l-0.5-2.2
			c-1.2,0.4-2.4,0.7-3.8,0.7c-1.3,0-2.3-0.3-3.1-1c-0.9-0.7-1.3-1.8-1.4-3.2h9.5C182.5,41.6,182.6,41.1,182.6,40.6z M173,39.7
			c0.1-1,0.4-1.8,0.9-2.5c0.6-0.9,1.5-1.3,2.5-1.3c1.1,0,2,0.4,2.5,1.3c0.4,0.7,0.6,1.5,0.6,2.4L173,39.7z M151.3,33.8
			c-2.2,0-3.9,0.7-5.2,2.1c-1.3,1.4-1.9,3.2-1.9,5.4c0,2.1,0.6,3.9,1.9,5.2c1.2,1.4,2.9,2.1,5,2.1c2.2,0,3.9-0.7,5.2-2.2
			c1.2-1.4,1.9-3.2,1.9-5.4c0-2.1-0.6-3.9-1.8-5.2C155.1,34.5,153.4,33.8,151.3,33.8z M154,44.6c-0.7,1.1-1.6,1.7-2.8,1.7
			c-1.2,0-2.2-0.6-2.9-1.7c-0.6-0.9-0.8-2.1-0.8-3.4c0-1.3,0.3-2.5,0.8-3.4c0.7-1.1,1.6-1.7,2.9-1.7c1.2,0,2.2,0.6,2.8,1.7
			c0.6,0.9,0.8,2.1,0.8,3.4C154.9,42.5,154.6,43.6,154,44.6z M168.4,33.9l0,3c-0.3-0.1-0.6-0.1-1-0.1c-1.1,0-2,0.4-2.6,1.3
			c-0.5,0.7-0.8,1.7-0.8,2.8v7.5h-3.2v-9.7c0-1.6,0-3.1-0.1-4.5h2.8l0.1,2.7h0.1c0.3-0.9,0.9-1.7,1.6-2.3c0.7-0.5,1.5-0.8,2.3-0.8
			C167.9,33.8,168.2,33.9,168.4,33.9z M91.2,14.6h1.6v7h-1.6V14.6z M173.9,21.3l-0.2-1.1c-0.6,0.2-1.2,0.3-1.9,0.3
			c-1.3,0-2.2-0.7-2.2-2.1h4.7c0-0.2,0.1-0.4,0.1-0.7c0-2-1.1-3.3-2.9-3.3c-2,0-3.3,1.6-3.3,3.8c0,2.1,1.3,3.5,3.5,3.5
			C172.5,21.7,173.2,21.6,173.9,21.3z M171.3,15.5c1,0,1.5,0.8,1.5,1.8h-3.2C169.7,16.3,170.4,15.5,171.3,15.5z M91,12.5
			c0-0.5,0.4-0.9,1-0.9c0.5,0,1,0.4,0.9,0.9c0,0.6-0.4,0.9-1,0.9C91.4,13.4,91,13,91,12.5z M154.8,15.7h-1v-1.2h1v-1.3l1.5-0.5v1.7
			h1.7v1.2h-1.7v3.4c0,0.9,0.3,1.3,0.9,1.3c0.3,0,0.5,0,0.7-0.1l0,1.2c-0.3,0.1-0.7,0.2-1.2,0.2c-1.2,0-2-0.7-2-2.4V15.7z M124,21.7
			c0.9,0,1.7-0.1,2.3-0.4l-0.2-1.1c-0.6,0.2-1.2,0.3-1.9,0.3c-1.3,0-2.2-0.7-2.2-2.1h4.7c0-0.2,0.1-0.4,0.1-0.7c0-2-1.1-3.3-2.9-3.3
			c-2,0-3.3,1.6-3.3,3.8C120.5,20.3,121.8,21.7,124,21.7z M123.7,15.5c1,0,1.5,0.8,1.5,1.8H122C122.1,16.3,122.8,15.5,123.7,15.5z
			 M68,18.7h3.1l0.9,2.8h1.7l-3.1-9.7h-1.9l-3.1,9.7h1.6L68,18.7z M69.1,15c0.2-0.8,0.4-1.4,0.5-1.8h0c0.2,1,0.4,1.6,0.5,1.8
			l0.8,2.5h-2.6L69.1,15z M97.1,21.6h-1.6V11.4h1.6V21.6z M144.9,15.7c-0.9,0-1.6,0.8-1.6,1.7v4.2h-1.6v-5c0-0.6,0-1.3-0.1-2h1.4
			l0.1,1.1h0c0.4-0.7,1.3-1.2,2.2-1.2c1.5,0,2.4,1.1,2.4,2.9v4.2h0h-1.6v-4C146.3,16.3,145.9,15.7,144.9,15.7z M139.5,18
			c0-2.1-1.4-3.6-3.4-3.6c-2.1,0-3.5,1.5-3.5,3.7c0,2.1,1.3,3.6,3.4,3.6C138.2,21.7,139.5,20.2,139.5,18z M134.3,18.1
			c0-1.5,0.7-2.5,1.8-2.5c1.1,0,1.8,1.1,1.8,2.5c0,1.4-0.7,2.5-1.8,2.5S134.3,19.5,134.3,18.1z M103.5,20.8L103.5,20.8l0.2,0.8v0
			h1.4c-0.1-0.4-0.1-1-0.1-1.7v-2.6c0-1.9-0.9-2.9-2.7-2.9c-1,0-1.8,0.2-2.4,0.6l0.3,1c0.5-0.3,1.1-0.5,1.8-0.5c1,0,1.5,0.5,1.5,1.4
			v0.1c-2.6,0-4.1,0.9-4.1,2.6c0,1.2,0.9,2.1,2.1,2.1C102.3,21.7,103,21.4,103.5,20.8z M100.9,19.5c0-1,0.9-1.4,2.6-1.4v1.1
			c0,0.8-0.7,1.4-1.5,1.4C101.3,20.6,100.9,20.2,100.9,19.5z M116.6,11.4h1.6v10.2h-1.6V11.4z M111.5,14.4c-1,0-1.8,0.4-2.2,1.2h0
			v-4.2h-1.6v8.3c0,0.7,0,1.3-0.1,1.9h1.3l0.1-1.1h0c0.5,0.8,1.2,1.2,2.2,1.2c1.8,0,3.1-1.6,3.1-3.8
			C114.3,15.9,113.2,14.4,111.5,14.4z M110.9,20.5c-1,0-1.7-0.8-1.7-1.8v-1.2c0-1.1,0.8-1.9,1.7-1.9c1.1,0,1.8,1,1.8,2.4
			C112.8,19.5,112.1,20.5,110.9,20.5z M79.9,14.6h1.6l-2.6,7h-1.5l-2.6-7h1.7l1.2,3.7c0.2,0.6,0.4,1.2,0.5,1.8h0
			c0.1-0.5,0.3-1.1,0.5-1.8L79.9,14.6z M87,20.8L87,20.8l0.2,0.8l1.4,0c-0.1-0.4-0.1-1-0.1-1.7v-2.6c0-1.9-0.9-2.9-2.7-2.9
			c-1,0-1.8,0.2-2.4,0.6l0.3,1c0.5-0.3,1.1-0.5,1.8-0.5c1,0,1.5,0.5,1.5,1.4v0.1c-2.6,0-4.1,0.9-4.1,2.6c0,1.2,0.9,2.1,2.1,2.1
			C85.9,21.7,86.5,21.4,87,20.8z M84.4,19.5c0-1,0.9-1.4,2.6-1.4v1.1c0,0.8-0.7,1.4-1.5,1.4C84.8,20.6,84.4,20.2,84.4,19.5z
			 M161.8,21.6h-1.6V11.4h1.6v4.2h0c0.5-0.8,1.2-1.1,2.1-1.1c1.5,0,2.4,1.2,2.4,3v4.2h-1.6v-4c0-1.3-0.5-1.9-1.4-1.9
			c-0.8,0-1.6,0.5-1.6,1.7V21.6z"/>
	</g>
</g>
</svg>
