<svg xmlns="http://www.w3.org/2000/svg" width="247.922" height="168.109" viewBox="0 0 247.922 168.109">
  <g id="Group_3980" data-name="Group 3980" transform="translate(-82.446 -46.206)">
    <g id="Group_3955" data-name="Group 3955" transform="translate(94.175 46.206)">
      <g id="Group_3952" data-name="Group 3952">
        <path id="Path_4895" data-name="Path 4895" d="M160.04,168.313H112.532a1.836,1.836,0,0,1-1.836-1.836h0a1.836,1.836,0,0,1,1.836-1.836H160.04a1.836,1.836,0,0,1,1.836,1.836h0A1.836,1.836,0,0,1,160.04,168.313Z" transform="translate(-110.696 -115.468)" fill="#2ec5b6" opacity="0.38"/>
        <path id="Path_4896" data-name="Path 4896" d="M368.371,49.965H337.419a1.879,1.879,0,0,1-1.879-1.879h0a1.88,1.88,0,0,1,1.879-1.88h30.952a1.88,1.88,0,0,1,1.88,1.88h0A1.879,1.879,0,0,1,368.371,49.965Z" transform="translate(-242.187 -46.206)" fill="#f7c90b"/>
        <path id="Rectangle_64" data-name="Rectangle 64" d="M5.162,0H5.5a5.162,5.162,0,0,1,5.162,5.162v0A5.162,5.162,0,0,1,5.5,10.324H5.162A5.162,5.162,0,0,1,0,5.162v0A5.162,5.162,0,0,1,5.162,0Z" transform="translate(4.227 66.749)" fill="#2ec5b6"/>
        <rect id="Rectangle_65" data-name="Rectangle 65" width="5.815" height="5.633" rx="2.816" transform="translate(166.757 162.476)" fill="#2ec5b6" opacity="0.38"/>
        <path id="Rectangle_66" data-name="Rectangle 66" d="M2.816,0H3A2.816,2.816,0,0,1,5.815,2.816v0A2.816,2.816,0,0,1,3,5.633H2.816A2.816,2.816,0,0,1,0,2.816v0A2.816,2.816,0,0,1,2.816,0Z" transform="translate(205.864 43.028)" fill="#2ec5b6"/>
        <path id="Path_4897" data-name="Path 4897" d="M127.148,371.569,112.1,379.364l4.335,2.1-5.383,6.435,4.2,3.439,5.2-6.91,3.485,3.737Z" transform="translate(-110.905 -236.482)" fill="#fefef4"/>
        <path id="Path_4898" data-name="Path 4898" d="M247.921,430.9h-17.58a2.357,2.357,0,0,1-2.357-2.357h0a2.357,2.357,0,0,1,2.357-2.357h17.58a2.357,2.357,0,0,1,2.357,2.357h0A2.357,2.357,0,0,1,247.921,430.9Z" transform="translate(-179.287 -268.42)" fill="#f7c90b"/>
      </g>
      <g id="Group_3954" data-name="Group 3954" transform="translate(36.907 26.953)">
        <rect id="Rectangle_67" data-name="Rectangle 67" width="147.521" height="123.862" rx="7.151" fill="#2ec5b6" opacity="0.38"/>
        <line id="Line_3" data-name="Line 3" x2="147.521" transform="translate(0 14.904)" fill="none" stroke="#fefef4" stroke-miterlimit="10" stroke-width="1.941"/>
        <rect id="Rectangle_68" data-name="Rectangle 68" width="147.521" height="123.862" rx="7.151" fill="none" stroke="#fefef4" stroke-miterlimit="10" stroke-width="1.941"/>
        <g id="Group_3953" data-name="Group 3953" transform="translate(10.391 5.524)">
          <circle id="Ellipse_53" data-name="Ellipse 53" cx="2.08" cy="2.08" r="2.08" fill="none" stroke="#fefef4" stroke-miterlimit="10" stroke-width="1.941"/>
          <circle id="Ellipse_54" data-name="Ellipse 54" cx="2.08" cy="2.08" r="2.08" transform="translate(8.083)" fill="none" stroke="#fefef4" stroke-miterlimit="10" stroke-width="1.941"/>
          <circle id="Ellipse_55" data-name="Ellipse 55" cx="2.08" cy="2.08" r="2.08" transform="translate(16.165)" fill="none" stroke="#fefef4" stroke-miterlimit="10" stroke-width="1.941"/>
        </g>
      </g>
    </g>
    <g id="Group_3964" data-name="Group 3964" transform="translate(82.446 52.307)">
      <g id="Group_3957" data-name="Group 3957" transform="translate(0 86.004)">
        <rect id="Rectangle_69" data-name="Rectangle 69" width="83.561" height="36.387" rx="6" fill="#f7c90b"/>
        <g id="Group_3956" data-name="Group 3956" transform="translate(6.969 5.174)">
          <path id="Path_4899" data-name="Path 4899" d="M102.4,282.088a1.582,1.582,0,1,1-1.582-1.582A1.582,1.582,0,0,1,102.4,282.088Z" transform="translate(-99.232 -280.506)" fill="none" stroke="#fefef4" stroke-miterlimit="10" stroke-width="1.477"/>
          <circle id="Ellipse_56" data-name="Ellipse 56" cx="1.582" cy="1.582" r="1.582" transform="translate(6.149 0)" fill="none" stroke="#fefef4" stroke-miterlimit="10" stroke-width="1.477"/>
          <circle id="Ellipse_57" data-name="Ellipse 57" cx="1.582" cy="1.582" r="1.582" transform="translate(12.299 0)" fill="none" stroke="#fefef4" stroke-miterlimit="10" stroke-width="1.477"/>
        </g>
        <line id="Line_4" data-name="Line 4" x2="83.561" transform="translate(0 12.746)" fill="none" stroke="#fefef4" stroke-miterlimit="10" stroke-width="1.477"/>
      </g>
      <g id="Group_3959" data-name="Group 3959" transform="translate(172.51 2.526)">
        <rect id="Rectangle_70" data-name="Rectangle 70" width="43.794" height="37.291" rx="10" transform="translate(0)" fill="#f7c90b"/>
        <g id="Group_3958" data-name="Group 3958" transform="translate(11.565 7.752)">
          <path id="Path_4900" data-name="Path 4900" d="M533.367,100.79a7.568,7.568,0,1,1,7.568-7.568A7.576,7.576,0,0,1,533.367,100.79Zm0-13.421a5.853,5.853,0,1,0,5.853,5.853A5.86,5.86,0,0,0,533.367,87.37Z" transform="translate(-525.799 -85.655)" fill="#022222"/>
          <rect id="Rectangle_71" data-name="Rectangle 71" width="1.715" height="3.16" transform="translate(11.698 12.927) rotate(-45)" fill="#fefef4"/>
          <rect id="Rectangle_72" data-name="Rectangle 72" width="8.654" height="3.792" rx="1.896" transform="translate(18.882 21.581) rotate(-135)" fill="#022222"/>
        </g>
      </g>
      <g id="Group_3961" data-name="Group 3961" transform="translate(15.207 0)">
        <rect id="Rectangle_73" data-name="Rectangle 73" width="31.063" height="28.125" rx="6" fill="#2ec5b6"/>
        <g id="Group_3960" data-name="Group 3960" transform="translate(8.951 6.961)">
          <path id="Path_4901" data-name="Path 4901" d="M147.212,90.828a6.58,6.58,0,1,1,6.581-6.58A6.588,6.588,0,0,1,147.212,90.828Zm0-11.183a4.6,4.6,0,1,0,4.6,4.6A4.608,4.608,0,0,0,147.212,79.645Z" transform="translate(-140.632 -77.667)" fill="#fefef4"/>
          <line id="Line_5" data-name="Line 5" x1="7.546" y2="9.206" transform="translate(2.913 1.978)" fill="none" stroke="#fefef4" stroke-miterlimit="10" stroke-width="2"/>
        </g>
      </g>
      <g id="Group_3963" data-name="Group 3963" transform="translate(167.07 63.992)">
        <rect id="Rectangle_74" data-name="Rectangle 74" width="80.852" height="63.081" rx="8" fill="#2ec5b6"/>
        <g id="Group_3962" data-name="Group 3962" transform="translate(6.835 4.423)">
          <circle id="Ellipse_58" data-name="Ellipse 58" cx="1.533" cy="1.533" r="1.533" fill="none" stroke="#fefef4" stroke-miterlimit="10" stroke-width="1.43"/>
          <circle id="Ellipse_59" data-name="Ellipse 59" cx="1.533" cy="1.533" r="1.533" transform="translate(5.956 0)" fill="none" stroke="#fefef4" stroke-miterlimit="10" stroke-width="1.43"/>
          <circle id="Ellipse_60" data-name="Ellipse 60" cx="1.533" cy="1.533" r="1.533" transform="translate(11.912)" fill="none" stroke="#fefef4" stroke-miterlimit="10" stroke-width="1.43"/>
        </g>
        <line id="Line_6" data-name="Line 6" x2="80.852" transform="translate(0 12.347)" fill="none" stroke="#fefef4" stroke-miterlimit="10" stroke-width="1.43"/>
      </g>
    </g>
    <g id="Group_3979" data-name="Group 3979" transform="translate(126.572 63.475)">
      <g id="Group_3966" data-name="Group 3966" transform="translate(51.557 85.338)">
        <path id="Path_4902" data-name="Path 4902" d="M347.324,297.5l-.308-4.166-25.968,1.277v4.02s-5.841,5.557-8.146,42.526h46.745S364.775,308.442,347.324,297.5Z" transform="translate(-312.902 -293.338)" fill="#2ec5b6"/>
        <g id="Group_3965" data-name="Group 3965" transform="translate(8.146 4.166)">
          <line id="Line_7" data-name="Line 7" y1="1.131" x2="26.277" fill="none" stroke="#000" stroke-miterlimit="10" stroke-width="1.552"/>
          <path id="Path_4903" data-name="Path 4903" d="M345.453,347.15l5.383,2.192,2.881,23.289" transform="translate(-340.084 -328.973)" fill="none" stroke="#000" stroke-miterlimit="10" stroke-width="1.552"/>
        </g>
      </g>
      <g id="Group_3975" data-name="Group 3975" transform="translate(0 32.141)">
        <g id="Group_3969" data-name="Group 3969" transform="translate(0 6.806)">
          <g id="Group_3967" data-name="Group 3967" transform="translate(30.955 0.129)">
            <path id="Path_4904" data-name="Path 4904" d="M263.639,250.618l7.174-23.683,15.78,5.916-7.571,22.681a8.075,8.075,0,0,1-15.383-4.913Z" transform="translate(-263.281 -208.243)" fill="#e29696"/>
            <path id="Path_4905" data-name="Path 4905" d="M285.315,187.959a8.561,8.561,0,1,1,16.308,5.209L297.2,206.522l-15.78-5.916Z" transform="translate(-273.89 -181.914)" fill="#fefef4"/>
          </g>
          <g id="Group_3968" data-name="Group 3968">
            <path id="Path_4906" data-name="Path 4906" d="M232.222,222.331,214.2,188.157s.411-6.174-9.846-6.543l0,.009c-.139-.007-.278-.019-.419-.019h-3.428a1.3,1.3,0,0,0-1.3,1.079,1.269,1.269,0,0,0,1.1,1.444l3.458.489-4.7,1.256-.878.324-6.406-4.233a1.039,1.039,0,0,0-1.269,1.642c.4.33,1.032.876,1.725,1.475l-1.414-.847a1.039,1.039,0,0,0-1.134,1.738l1.263.889-.492-.192a1.269,1.269,0,0,0-1.505.418,1.221,1.221,0,0,0,.531,1.823l7,2.93a5.785,5.785,0,0,0,3.784.485l6.241-1.471,13.963,39.084Z" transform="translate(-188.725 -181.604)" fill="#e29696"/>
            <line id="Line_8" data-name="Line 8" x2="3.335" y2="6.324" transform="translate(36.1 26.702)" fill="none" stroke="#e57676" stroke-miterlimit="10" stroke-width="1.5"/>
          </g>
        </g>
        <g id="Group_3970" data-name="Group 3970" transform="translate(47.321 6.449)">
          <path id="Path_4907" data-name="Path 4907" d="M311.789,181.316l-6.7.5s-9.7,13.159,9.992,46.953l25.968-1.277,1.957-36.41L339.8,180.746H328.166Z" transform="translate(-302.7 -180.746)" fill="#fefef4"/>
          <path id="Path_4908" data-name="Path 4908" d="M304.716,217.846s-1.932-4.064-.691-13.068" transform="translate(-303.232 -194.8)" fill="none" stroke="#fce7e4" stroke-miterlimit="10" stroke-width="1.552"/>
        </g>
        <g id="Group_3974" data-name="Group 3974" transform="translate(76.231)">
          <g id="Group_3972" data-name="Group 3972" transform="translate(0 5.602)">
            <path id="Path_4909" data-name="Path 4909" d="M415.619,241.154l-10.785-22.272-14.663,8.308,11.02,21.22a8.075,8.075,0,0,0,14.427-7.255Z" transform="translate(-382.764 -202.201)" fill="#e29696"/>
            <g id="Group_3971" data-name="Group 3971">
              <path id="Path_4910" data-name="Path 4910" d="M388.58,183.5a8.56,8.56,0,1,0-15.295,7.692l6.452,12.5,14.663-8.308Z" transform="translate(-372.33 -178.705)" fill="#fefef4"/>
              <line id="Line_9" data-name="Line 9" x1="5.328" y1="10.32" transform="translate(2.08 14.669)" fill="none" stroke="#fce7e4" stroke-miterlimit="10" stroke-width="1.552"/>
            </g>
          </g>
          <g id="Group_3973" data-name="Group 3973" transform="translate(20.543)">
            <path id="Path_4911" data-name="Path 4911" d="M456.633,171.665a1.269,1.269,0,0,0-1.505-.418l-3.133,1.223,2.942-2.489a1.255,1.255,0,0,0,.255-1.662,1.222,1.222,0,0,0-1.77-.255l-2.738,2.2,2.334-3.051a1.254,1.254,0,0,0-.106-1.678,1.223,1.223,0,0,0-1.784.13l-4.607,4.781-4.7-1.256,3.458-.489a1.268,1.268,0,0,0,1.1-1.444,1.3,1.3,0,0,0-1.3-1.079h-3.429a8.226,8.226,0,0,0-5.5,2.052c-.025.019-.049.032-.074.053-2.1,1.659-1.339,5.059-1.339,5.059l-12.917,36.569,12.8,5.679,7.38-39.271,4.713.009a4.964,4.964,0,0,0,.878,0h.036l0,0a5.009,5.009,0,0,0,1.485-.365l7-2.478A1.221,1.221,0,0,0,456.633,171.665Z" transform="translate(-421.809 -165.212)" fill="#e29696"/>
            <line id="Line_10" data-name="Line 10" x1="2.789" y2="9.738" transform="translate(2.23 29.495)" fill="none" stroke="#e57676" stroke-miterlimit="10" stroke-width="1.5"/>
          </g>
        </g>
      </g>
      <g id="Group_3978" data-name="Group 3978" transform="translate(43.006 0)">
        <path id="Path_4912" data-name="Path 4912" d="M305.19,104.867c-.807.554-6.221,1.961-6.328,2.943,0,0,1.781,6.963-.043,8.262-4.932,3.513-6.511,10.4-6.511,10.4s13.011,9.742,47.6-.487c0,0,.414-4.143-5.877-7.151a9.9,9.9,0,0,1-4.4-3.91,7.593,7.593,0,0,1-1.107-3.16C327.943,108.35,318.52,95.723,305.19,104.867Z" transform="translate(-292.308 -95.873)"/>
        <path id="Path_4913" data-name="Path 4913" d="M312.9,129.16a4.148,4.148,0,1,1-4.425-3.85A4.148,4.148,0,0,1,312.9,129.16Z" transform="translate(-299.503 -109.73)" fill="#e57676"/>
        <path id="Path_4914" data-name="Path 4914" d="M329.081,152.022l.573,9.02c.195,3.168,1.49,5.326,4.607,5.11h0c2.661-.185,5.826-2.317,5.972-4.98l-1.586-14.153Z" transform="translate(-313.813 -122.432)" fill="#e29696"/>
        <path id="Path_4915" data-name="Path 4915" d="M324.578,181.316l16.377-.57s-.4,8.052-10.132,7.3A6.239,6.239,0,0,1,324.578,181.316Z" transform="translate(-311.174 -142.155)" fill="#e29696"/>
        <path id="Path_4916" data-name="Path 4916" d="M329.444,162.551l10.467-10.233L328.894,154.2Z" transform="translate(-313.704 -125.53)" fill="#e57676"/>
        <path id="Path_4917" data-name="Path 4917" d="M321.311,121.323h0c-5.329.016-9.73-4.181-9.89-8.533l-.313-10.27a10.117,10.117,0,0,1,9.408-10.463h0c5.574-.388,11.384,3.748,11.772,9.322l.162,8.263C332.575,116.033,327.687,120.879,321.311,121.323Z" transform="translate(-303.298 -90.275)" fill="#e29696"/>
        <g id="Group_3976" data-name="Group 3976" transform="translate(8.456 12.655)">
          <path id="Path_4918" data-name="Path 4918" d="M324.9,133.321l-.309,2.55,1.318.048" transform="translate(-319.644 -127.076)" fill="none" stroke="#000" stroke-linecap="round" stroke-linejoin="round" stroke-width="1.238"/>
          <path id="Path_4919" data-name="Path 4919" d="M333.826,118.3s-2.945-.242-2.974.957c0,0,0,.811,2.571.972s3.236-.027,3.471-.79S335.207,118.307,333.826,118.3Z" transform="translate(-323.305 -118.28)"/>
          <path id="Path_4920" data-name="Path 4920" d="M314.66,122.528s2.23-.179,2.44.9c0,0,.125.729-1.828.841s-2.558-.131-2.595-.748C312.633,122.785,313.6,122.517,314.66,122.528Z" transform="translate(-312.676 -120.758)"/>
          <path id="Path_4921" data-name="Path 4921" d="M317.919,129.693a.942.942,0,1,1-.972-.911A.942.942,0,0,1,317.919,129.693Z" transform="translate(-314.64 -124.421)"/>
          <path id="Path_4922" data-name="Path 4922" d="M336.976,129.069a.942.942,0,1,1-.973-.911A.942.942,0,0,1,336.976,129.069Z" transform="translate(-325.785 -124.057)"/>
          <path id="Path_4923" data-name="Path 4923" d="M328.662,143.652a2.981,2.981,0,0,0-3.075.816" transform="translate(-320.226 -133.037)" fill="none" stroke="#000" stroke-linecap="round" stroke-linejoin="round" stroke-width="1.238"/>
        </g>
        <path id="Path_4924" data-name="Path 4924" d="M321.948,87.817a12.77,12.77,0,0,0-3.955.418c-3.192.85-8.924,3.214-9.906,9.345a4.293,4.293,0,0,0-.1,2.158s10.706.42,17.035-2.568a17.266,17.266,0,0,0,5.562,10l3.382-5.084,3.808,3.415C337.8,105.627,337.793,88.659,321.948,87.817Z" transform="translate(-301.432 -87.799)"/>
        <g id="Group_3977" data-name="Group 3977" transform="translate(26.42 15.612)">
          <path id="Path_4925" data-name="Path 4925" d="M364.227,129.26a4.148,4.148,0,1,1-4.426-3.85A4.148,4.148,0,0,1,364.227,129.26Z" transform="translate(-355.942 -125.4)" fill="#e29696"/>
          <path id="Path_4926" data-name="Path 4926" d="M362.113,134.379s-.208-3,2.693-2.727" transform="translate(-359.549 -129.046)" fill="none" stroke="#000" stroke-linecap="round" stroke-linejoin="round" stroke-width="1.238"/>
        </g>
      </g>
    </g>
    <path id="Path_4927" data-name="Path 4927" d="M565.326,287.856a13.712,13.712,0,0,1,.7-4.856,7.59,7.59,0,0,1,2.254-3.086,14.98,14.98,0,0,0,2.37-2.391,3.9,3.9,0,0,0,.811-2.391q0-3.181-2.739-3.181a2.543,2.543,0,0,0-2.044.927,3.943,3.943,0,0,0-.821,2.507h-7.12a8.495,8.495,0,0,1,2.654-6.562q2.611-2.349,7.331-2.349,4.7,0,7.278,2.17a7.616,7.616,0,0,1,2.58,6.172,7.19,7.19,0,0,1-.695,3.181,10.765,10.765,0,0,1-2.233,2.928l-2.423,2.254a5.7,5.7,0,0,0-1.433,2.033,8.056,8.056,0,0,0-.442,2.644Zm-.864,6.4a3.268,3.268,0,0,1,1.127-2.559,4.452,4.452,0,0,1,5.625,0,3.471,3.471,0,0,1,0,5.119,4.454,4.454,0,0,1-5.625,0A3.268,3.268,0,0,1,564.463,294.26Z" transform="translate(-278.537 -128.816)" fill="#fff"/>
  </g>
</svg>
