<svg xmlns="http://www.w3.org/2000/svg" width="269.208" height="157.725" viewBox="0 0 269.208 157.725"><g transform="translate(-27.828 -50.027)"><g transform="translate(234.726 72.012)"><path d="M567.015,118.658l.383,1.376-1.239,8.743-2.306.642,1.22-8.357-3.039.845.415,1.494-1.887.525-.9-3.223Z" transform="translate(-559.665 -113.943)" fill="#e0e0e0"/><path d="M590.3,119.724c.452,1.625-.347,3.371-2.968,4.1a6.579,6.579,0,0,1-3.772-.01l.387-1.858a4.579,4.579,0,0,0,2.837.1c1.062-.3,1.593-.923,1.385-1.67-.2-.721-.8-1.061-2.467-.6l-2.345.652-.964-5.294,5.595-1.556.474,1.7-3.826,1.064.34,1.783.747-.207C588.44,117.179,589.853,118.1,590.3,119.724Z" transform="translate(-573.554 -110.848)" fill="#e0e0e0"/><path d="M602.071,111.3c-.416-1.493.146-2.722,1.378-3.065s2.344.407,2.762,1.914-.159,2.726-1.378,3.065S602.486,112.792,602.071,111.3Zm3.485-.969c-.332-1.192-1.092-1.743-1.944-1.506s-1.215,1.114-.887,2.293,1.079,1.747,1.943,1.506S605.887,111.522,605.556,110.329Zm3.466-3.575.773-.215-3.712,10.913-.773.215Zm-.128,7.305c-.415-1.493.159-2.726,1.378-3.065s2.347.42,2.762,1.914-.146,2.723-1.378,3.065S609.309,115.553,608.894,114.059Zm3.485-.969c-.328-1.179-1.079-1.747-1.944-1.506s-1.218,1.1-.887,2.294,1.092,1.743,1.944,1.506S612.707,114.269,612.379,113.09Z" transform="translate(-585.491 -106.539)" fill="#e0e0e0"/></g><g transform="translate(241.615 149.508)"><g transform="translate(20.44 20.36)"><rect width="27.392" height="34.575" transform="translate(27.391 34.787) rotate(-179.553)" fill="#ebebeb"/></g><g transform="translate(32.576 21.555)"><path d="M665.923,361.183l-.487,33.477-4.327-.034.927-33.474Z" transform="translate(-661.108 -361.153)" fill="#fafafa"/></g><g transform="translate(4.731 21.332)"><path d="M589.789,360.581l15.715.123,27.391.214-27.421,3.608-.232,29.657-15.708-.123Z" transform="translate(-589.534 -360.581)" fill="#e0e0e0"/></g><g transform="translate(8.253 21.363)"><path d="M603.875,360.7l-.624,33.476-4.663-.036.762-33.475Z" transform="translate(-598.587 -360.661)" fill="#fafafa"/></g><g transform="translate(13.93 0)"><g transform="translate(0 1.38)"><path d="M625.226,319.123c0,.07-.461.153-1.3.237a34.732,34.732,0,0,1-3.591.159,20.188,20.188,0,0,1-5.362-.7,3.833,3.833,0,0,1-.785-.351,2.131,2.131,0,0,1-.716-.677,1.893,1.893,0,0,1-.288-1,3.767,3.767,0,0,1,.115-.918,20.724,20.724,0,0,1,1.014-3.291A8.557,8.557,0,0,1,615.2,311a4.973,4.973,0,0,1,1.3-1.288,2.754,2.754,0,0,1,.9-.373,2.315,2.315,0,0,1,.995.018,3.979,3.979,0,0,1,1.514.828,15.686,15.686,0,0,1,3.571,4.068,13.046,13.046,0,0,1,1.444,3.334c.214.832.239,1.308.178,1.321a35.794,35.794,0,0,0-2.224-4.268,16.524,16.524,0,0,0-3.543-3.72,3.14,3.14,0,0,0-1.157-.621,1.472,1.472,0,0,0-1.148.25,4.087,4.087,0,0,0-1.02,1.043,7.758,7.758,0,0,0-.775,1.391,21.476,21.476,0,0,0-.978,3.116,1.54,1.54,0,0,0,.027,1.178,1.865,1.865,0,0,0,.985.658,12.4,12.4,0,0,0,1.349.36c.45.1.892.178,1.322.247.86.133,1.672.21,2.417.263,1.49.1,2.708.121,3.551.162S625.224,319.053,625.226,319.123Z" transform="translate(-613.18 -309.293)" fill="#e0e0e0"/></g><g transform="translate(11.48)"><path d="M642.691,317.207a4.306,4.306,0,0,1,1.421-.427c.923-.215,2.265-.485,3.9-.879a36.975,36.975,0,0,0,5.595-1.767,6.217,6.217,0,0,0,1.4-.745,1.591,1.591,0,0,0,.451-.5.839.839,0,0,0,.077-.566,3.1,3.1,0,0,0-.266-.74l-.4-.837a14.173,14.173,0,0,0-.9-1.611,7.006,7.006,0,0,0-1.15-1.358,4.423,4.423,0,0,0-1.392-.9,2.206,2.206,0,0,0-1.444-.063,3.752,3.752,0,0,0-1.293.785,19.7,19.7,0,0,0-3.748,4.414,16.853,16.853,0,0,0-1.663,3.559,5.936,5.936,0,0,1-.487,1.389,3.333,3.333,0,0,1,.106-1.49,13.544,13.544,0,0,1,1.424-3.817,18.639,18.639,0,0,1,3.752-4.757,4.61,4.61,0,0,1,1.614-1,3.174,3.174,0,0,1,2.074.051,4.436,4.436,0,0,1,.927.463,6.879,6.879,0,0,1,.8.617,7.857,7.857,0,0,1,1.321,1.55,14.528,14.528,0,0,1,.959,1.732l.4.859a3.945,3.945,0,0,1,.335,1,1.832,1.832,0,0,1-.191,1.189,2.524,2.524,0,0,1-.731.807,6.928,6.928,0,0,1-1.637.84,31.788,31.788,0,0,1-5.8,1.6c-1.677.31-3.043.472-3.988.568A4.211,4.211,0,0,1,642.691,317.207Z" transform="translate(-642.691 -305.746)" fill="#fafafa"/></g></g><g transform="translate(0 9.85)"><rect width="40.263" height="11.444" transform="matrix(-1, -0.008, 0.008, -1, 40.261, 11.758)" fill="#e0e0e0"/></g><g transform="translate(14.805 9.965)"><rect width="36.394" height="11.444" transform="translate(36.393 11.728) rotate(-179.553)" fill="#ebebeb"/></g><g transform="translate(35.621 10.129)"><path d="M673.436,331.817l-.256,11.5-4.244-.088.3-11.442Z" transform="translate(-668.936 -331.784)" fill="#fafafa"/></g><g transform="translate(4.888 9.889)"><path d="M595.013,331.261l-.41,11.394-4.667-.037.25-11.451Z" transform="translate(-589.936 -331.166)" fill="#fafafa"/></g></g><g transform="translate(273.609 179.488)"><g transform="translate(9.336 9.566)"><rect width="12.512" height="15.793" transform="translate(12.511 15.89) rotate(-179.553)" fill="#ebebeb"/></g><g transform="translate(14.88 10.112)"><path d="M700.063,408.815l-.222,15.292-1.977-.015.424-15.29Z" transform="translate(-697.864 -408.802)" fill="#fafafa"/></g><g transform="translate(2.161 10.01)"><path d="M665.286,408.54l7.178.056,12.512.1-12.525,1.648-.106,13.547-7.175-.056Z" transform="translate(-665.17 -408.54)" fill="#e0e0e0"/></g><g transform="translate(3.77 10.024)"><path d="M671.721,408.593l-.285,15.291-2.13-.017.348-15.291Z" transform="translate(-669.305 -408.577)" fill="#fafafa"/></g><g transform="translate(6.096)"><g transform="translate(0 0.631)"><path d="M681.054,389.187c0,.129-.834.323-2.244.375a8.712,8.712,0,0,1-2.524-.275,1.477,1.477,0,0,1-.826-.57,1.131,1.131,0,0,1-.175-.593,1.99,1.99,0,0,1,.057-.485,9.324,9.324,0,0,1,.473-1.551,4.137,4.137,0,0,1,.436-.771,2.516,2.516,0,0,1,.672-.655,1.384,1.384,0,0,1,1.072-.191,2.028,2.028,0,0,1,.789.434,7,7,0,0,1,1.638,1.953c.7,1.285.7,2.217.577,2.232-.151.039-.4-.787-1.179-1.844a7.856,7.856,0,0,0-1.611-1.6,1.171,1.171,0,0,0-.431-.228.416.416,0,0,0-.321.086,1.645,1.645,0,0,0-.389.409,3.348,3.348,0,0,0-.324.585,10.048,10.048,0,0,0-.437,1.376c-.057.216-.044.315-.027.337a.6.6,0,0,0,.309.2,8.335,8.335,0,0,0,1.168.291c.382.069.746.116,1.081.152C680.185,388.976,681.053,389.037,681.054,389.187Z" transform="translate(-675.285 -384.431)" fill="#e0e0e0"/></g><g transform="translate(5.484)"><path d="M689.408,388.31c-.025-.146.914-.391,2.39-.787a18.838,18.838,0,0,0,2.5-.852,2.613,2.613,0,0,0,.577-.315.445.445,0,0,0,.13-.144c.012-.031.013-.032,0-.089a4.354,4.354,0,0,0-.283-.645,6.4,6.4,0,0,0-.392-.7,2.953,2.953,0,0,0-.479-.568,1.78,1.78,0,0,0-.544-.359.752.752,0,0,0-.489-.032,1.458,1.458,0,0,0-.5.3,9.385,9.385,0,0,0-1.711,1.923c-.822,1.236-.994,2.189-1.15,2.163-.065-.009-.109-.26-.055-.708a5.622,5.622,0,0,1,.585-1.814,8.3,8.3,0,0,1,1.715-2.266,2.326,2.326,0,0,1,.825-.519,1.713,1.713,0,0,1,1.118.02,2.268,2.268,0,0,1,.481.237,3.34,3.34,0,0,1,.4.305,3.828,3.828,0,0,1,.651.76,6.818,6.818,0,0,1,.455.824l.183.4a2.06,2.06,0,0,1,.172.525,1.108,1.108,0,0,1-.118.712,1.4,1.4,0,0,1-.41.452,3.311,3.311,0,0,1-.811.409,13.438,13.438,0,0,1-2.7.688A5.745,5.745,0,0,1,689.408,388.31Z" transform="translate(-689.381 -382.809)" fill="#fafafa"/></g></g><g transform="translate(0 4.765)"><rect width="18.391" height="5.227" transform="translate(18.391 5.371) rotate(-179.553)" fill="#e0e0e0"/></g><g transform="translate(6.763 4.818)"><rect width="16.624" height="5.227" transform="translate(16.623 5.357) rotate(-179.553)" fill="#ebebeb"/></g><g transform="translate(16.271 4.893)"><path d="M703.495,395.4l-.117,5.251-1.939-.04.135-5.226Z" transform="translate(-701.439 -395.387)" fill="#fafafa"/></g><g transform="translate(2.233 4.783)"><path d="M667.672,395.147l-.187,5.2-2.132-.017.114-5.23Z" transform="translate(-665.354 -395.104)" fill="#fafafa"/></g></g><g transform="translate(28.151 159.202)"><g transform="translate(16.744 17.257)"><rect width="22.439" height="28.324" transform="translate(22.438 28.498) rotate(-179.553)" fill="#ebebeb"/></g><g transform="translate(26.686 18.236)"><path d="M101.2,377.565l-.4,27.424-3.545-.028.76-27.422Z" transform="translate(-97.255 -377.54)" fill="#fafafa"/></g><g transform="translate(3.876 18.053)"><path d="M38.83,377.071l12.874.1,22.438.175L51.679,380.3l-.19,24.3-12.868-.1Z" transform="translate(-38.621 -377.071)" fill="#e0e0e0"/></g><g transform="translate(6.761 18.079)"><path d="M50.37,377.166l-.511,27.424-3.82-.03.624-27.423Z" transform="translate(-46.038 -377.138)" fill="#fafafa"/></g><g transform="translate(10.832)"><g transform="translate(0 1.133)"><path d="M66.95,342.205c0,.139-.372.286-1.062.427a18.771,18.771,0,0,1-2.965.32,17.789,17.789,0,0,1-2.095-.051c-.379-.033-.772-.077-1.176-.145a9.839,9.839,0,0,1-1.283-.281,3.615,3.615,0,0,1-.759-.331,2.3,2.3,0,0,1-.776-.729A2.135,2.135,0,0,1,56.5,340.3a3.679,3.679,0,0,1,.1-.9,16.643,16.643,0,0,1,.852-2.8,7.471,7.471,0,0,1,.794-1.4,6.655,6.655,0,0,1,.532-.63,3.889,3.889,0,0,1,.7-.571,2.848,2.848,0,0,1,.937-.379,2.465,2.465,0,0,1,1.062.025,3.711,3.711,0,0,1,1.451.8,12.5,12.5,0,0,1,2.941,3.537,9.278,9.278,0,0,1,1.048,2.885c.112.718.055,1.128-.075,1.157-.3.075-.766-1.4-2.177-3.267a14.234,14.234,0,0,0-2.886-2.843,1.993,1.993,0,0,0-.738-.386.648.648,0,0,0-.5.142,2.009,2.009,0,0,0-.328.287,5.21,5.21,0,0,0-.34.422,5.928,5.928,0,0,0-.569,1.029,18.178,18.178,0,0,0-.779,2.449,2.054,2.054,0,0,0-.073.41.3.3,0,0,0,.009.117.967.967,0,0,0,.5.321,9.653,9.653,0,0,0,1.03.3c.353.09.7.161,1.044.226.682.128,1.332.215,1.932.285,1.2.137,2.2.218,2.886.323S66.946,342.065,66.95,342.205Z" transform="translate(-56.502 -333.577)" fill="#e0e0e0"/></g><g transform="translate(9.907)"><path d="M82.045,340.632c-.051-.29,1.632-.756,4.271-1.484a34.567,34.567,0,0,0,4.464-1.544,4.547,4.547,0,0,0,1.011-.556.686.686,0,0,0,.2-.226c.011-.037.007-.01,0-.1a2.207,2.207,0,0,0-.177-.454l-.323-.673a11.384,11.384,0,0,0-.7-1.249,5.239,5.239,0,0,0-.84-1,4.467,4.467,0,0,0-.482-.382,2.315,2.315,0,0,0-.46-.244,1.246,1.246,0,0,0-.812-.059,2.508,2.508,0,0,0-.869.512,17,17,0,0,0-3.068,3.414c-1.483,2.194-1.819,3.89-2.127,3.842-.131-.018-.222-.469-.138-1.28a9.908,9.908,0,0,1,1.025-3.279,14.813,14.813,0,0,1,3.076-4.1,4.253,4.253,0,0,1,1.513-.953,3.172,3.172,0,0,1,2.071.035,4.188,4.188,0,0,1,.885.436,6.146,6.146,0,0,1,.731.557,6.945,6.945,0,0,1,1.184,1.383,12.074,12.074,0,0,1,.822,1.49l.329.716a3.805,3.805,0,0,1,.316.967,2.094,2.094,0,0,1-.224,1.341,2.613,2.613,0,0,1-.765.843,6.028,6.028,0,0,1-1.478.743,23.758,23.758,0,0,1-4.868,1.216,25.352,25.352,0,0,1-3.317.281C82.511,340.835,82.067,340.769,82.045,340.632Z" transform="translate(-81.967 -330.665)" fill="#fafafa"/></g></g><g transform="translate(0 8.647)"><rect width="32.983" height="9.375" transform="matrix(-1, -0.008, 0.008, -1, 32.982, 9.632)" fill="#e0e0e0"/></g><g transform="translate(12.128 8.742)"><rect width="29.814" height="9.375" transform="matrix(-1, -0.008, 0.008, -1, 29.813, 9.607)" fill="#ebebeb"/></g><g transform="translate(29.18 8.876)"><path d="M107.354,353.508l-.21,9.418-3.477-.072.243-9.373Z" transform="translate(-103.667 -353.481)" fill="#fafafa"/></g><g transform="translate(4.004 8.679)"><path d="M43.109,353.052l-.336,9.334-3.823-.031.2-9.38Z" transform="translate(-38.951 -352.975)" fill="#fafafa"/></g></g><g transform="translate(63.02 50.027)"><path d="M125.878,67.514l.38,1.481-5.934,1.524-.3-1.178,2.294-3.638c.526-.841.545-1.276.447-1.657-.159-.617-.677-.867-1.507-.654a1.982,1.982,0,0,0-1.425,1.2l-1.543-.513a3.766,3.766,0,0,1,2.744-2.259c1.75-.449,3.147.149,3.513,1.573a3.234,3.234,0,0,1-.677,2.816L122.5,68.381Z" transform="translate(-118.289 -57.145)" fill="#e0e0e0"/><path d="M137.747,62c-.665-2.591.393-4.429,2.323-4.925s3.742.606,4.408,3.2-.382,4.426-2.323,4.925S138.413,64.588,137.747,62Zm4.9-1.259c-.458-1.784-1.277-2.362-2.185-2.129s-1.336,1.132-.878,2.915,1.276,2.363,2.174,2.133S143.107,62.522,142.65,60.738Z" transform="translate(-130.056 -54.26)" fill="#e0e0e0"/><path d="M156.35,53.948a1.932,1.932,0,0,1,1.225-2.587c1.043-.268,1.988.387,2.319,1.676a1.932,1.932,0,0,1-1.225,2.586C157.615,55.9,156.679,55.228,156.35,53.948Zm2.984-.766c-.262-1.021-.9-1.5-1.629-1.315s-1.053.928-.794,1.938.889,1.506,1.629,1.316S159.6,54.2,159.334,53.182Zm3.012-2.985.662-.17-3.346,9.228-.661.17Zm-.233,6.218a1.939,1.939,0,0,1,1.225-2.587c1.054-.27,1.991.4,2.319,1.677a1.861,1.861,0,1,1-3.544.91Zm2.984-.766c-.259-1.01-.889-1.506-1.629-1.316s-1.056.917-.794,1.937.9,1.5,1.63,1.315S165.357,56.658,165.1,55.648Z" transform="translate(-141.482 -50.027)" fill="#e0e0e0"/></g><g transform="translate(136.767 78.059)"><path d="M315.4,129.549c.028,1.6-1.184,3.095-3.89,3.141a6.543,6.543,0,0,1-3.648-.957l.827-1.7a4.624,4.624,0,0,0,2.734.809c1.1-.019,1.774-.479,1.76-1.254-.012-.721-.55-1.16-1.8-1.139l-1.006.018-.025-1.455,1.92-2.25-4.052.07-.031-1.768,6.663-.115.025,1.428-2.106,2.485A2.7,2.7,0,0,1,315.4,129.549Z" transform="translate(-307.857 -122.612)" fill="#e0e0e0"/><path d="M329.771,127.275c-.054-3.141,1.655-4.952,3.995-4.993s4.11,1.711,4.164,4.852-1.641,4.952-3.994,4.993S329.825,130.415,329.771,127.275Zm5.942-.1c-.038-2.162-.815-3.046-1.916-3.027s-1.833.929-1.8,3.091.814,3.046,1.9,3.027S335.751,129.334,335.713,127.172Z" transform="translate(-321.245 -122.205)" fill="#e0e0e0"/><path d="M353.509,124.751c-.027-1.55.826-2.6,2.1-2.62s2.166.983,2.193,2.546-.839,2.6-2.1,2.621S353.536,126.3,353.509,124.751Zm3.617-.062c-.021-1.237-.619-1.961-1.5-1.946s-1.455.773-1.434,2,.605,1.962,1.5,1.946S357.147,125.926,357.126,124.689Zm4.253-2.59.8-.014-6.335,9.631-.8.014Zm-1.959,7.039c-.026-1.55.839-2.6,2.1-2.621s2.166,1,2.193,2.547-.826,2.6-2.1,2.62S359.447,130.688,359.42,129.138Zm3.617-.062c-.021-1.224-.605-1.962-1.5-1.947s-1.456.76-1.435,2,.619,1.961,1.5,1.946S363.058,130.3,363.037,129.075Z" transform="translate(-335.749 -122.085)" fill="#e0e0e0"/></g><g transform="translate(184.638 50.179)"><path d="M436.617,55.829c-.186,1.216-1.24,2.138-3.2,1.839a4.793,4.793,0,0,1-2.505-1.136l.813-1.12a3.342,3.342,0,0,0,1.857.916c.794.121,1.336-.137,1.421-.7.082-.54-.217-.947-1.462-1.137l-1.755-.268.943-3.809,4.187.64-.194,1.275-2.863-.438-.307,1.288.559.086C436.138,53.578,436.8,54.613,436.617,55.829Z" transform="translate(-430.911 -50.418)" fill="#f5f5f5"/><path d="M447.642,56.378c.346-2.265,1.8-3.358,3.484-3.1s2.745,1.734,2.4,4-1.788,3.359-3.484,3.1S447.3,58.643,447.642,56.378Zm4.284.655c.238-1.559-.212-2.29-1.006-2.412s-1.432.443-1.67,2,.212,2.291,1,2.41S451.688,58.591,451.926,57.033Z" transform="translate(-441.093 -52.143)" fill="#f5f5f5"/><path d="M465.52,57.189c.171-1.118.912-1.767,1.834-1.627a1.655,1.655,0,0,1,1.264,2.1c-.173,1.127-.922,1.766-1.834,1.626A1.654,1.654,0,0,1,465.52,57.189Zm5.984-.942.578.088-5.736,6.147-.578-.088Zm-3.376,1.341c.137-.892-.2-1.486-.842-1.584s-1.142.378-1.276,1.26.195,1.485.842,1.583S467.992,58.479,468.128,57.587Zm1.1,3.48c.17-1.118.922-1.766,1.834-1.627a1.654,1.654,0,0,1,1.264,2.1c-.171,1.118-.912,1.767-1.834,1.626A1.659,1.659,0,0,1,469.232,61.067Zm2.608.4c.135-.883-.195-1.485-.842-1.584s-1.14.368-1.276,1.26.2,1.486.842,1.583S471.705,62.348,471.84,61.466Z" transform="translate(-452.036 -53.549)" fill="#f5f5f5"/></g><g transform="translate(31.326 87.991)"><path d="M39.708,148.229l-1.424,6.081-1.407-.33,1.159-4.952-1.216-.285.265-1.129Z" transform="translate(-36.82 -147.615)" fill="#f5f5f5"/><path d="M44.932,153.548c.47-2.006,1.848-2.884,3.343-2.535s2.34,1.749,1.87,3.755S48.3,157.655,46.8,157.3,44.462,155.555,44.932,153.548Zm3.8.889c.323-1.381-.029-2.068-.733-2.233s-1.315.3-1.639,1.677.029,2.069.724,2.231S48.405,155.818,48.728,154.437Z" transform="translate(-41.697 -149.645)" fill="#f5f5f5"/><path d="M66.431,154.956l.513.12-5.576,5.109-.512-.12ZM61,155.38c.232-.991.943-1.52,1.759-1.329a1.488,1.488,0,0,1,.986,1.972c-.234,1-.951,1.518-1.759,1.329A1.487,1.487,0,0,1,61,155.38Zm2.311.541c.185-.79-.079-1.347-.643-1.479s-1.05.259-1.233,1.04.07,1.345.643,1.479S63.125,156.711,63.31,155.92Zm.745,3.2a1.434,1.434,0,1,1,2.745.643c-.232.99-.943,1.52-1.759,1.329A1.493,1.493,0,0,1,64.054,159.119Zm2.311.541c.183-.782-.07-1.345-.643-1.479s-1.048.25-1.233,1.04.079,1.348.643,1.479S66.182,160.441,66.365,159.66Z" transform="translate(-51.505 -151.523)" fill="#f5f5f5"/></g><g transform="translate(35.207 96.91)"><g transform="translate(9.087 46.367)"><path d="M96.9,297.954a28.038,28.038,0,0,0-26.742-7.339,48.7,48.7,0,0,0,27.058,8.454" transform="translate(-70.155 -289.729)" fill="#2ec5b6"/></g><g transform="translate(0)"><g transform="translate(18.902)"><path d="M103.242,193.014a27.133,27.133,0,0,0-7.848-22.472,36.612,36.612,0,0,0,7.848,22.472" transform="translate(-95.386 -170.542)" fill="#2ec5b6"/></g><g transform="translate(12.152 18.89)"><path d="M97.358,237.569A42.08,42.08,0,0,0,78.033,219.1a26.555,26.555,0,0,0,19.4,18.552" transform="translate(-78.033 -219.1)" fill="#2ec5b6"/></g><g transform="translate(6.2 31.775)"><path d="M88.988,260.676a49.916,49.916,0,0,1-14.179-1.252,23.471,23.471,0,0,1-12.075-7.2,47.38,47.38,0,0,1,26.183,7.993" transform="translate(-62.734 -252.22)" fill="#2ec5b6"/></g><g transform="translate(30.038 10.378)"><path d="M124.01,217.61c2.416-9.055,6.4-15.318,13.519-20.392A18.831,18.831,0,0,1,124.01,217.61" transform="translate(-124.01 -197.218)" fill="#2ec5b6"/></g><g transform="translate(39.862 33.972)"><g transform="translate(0)"><path d="M157.4,270.281a13.405,13.405,0,0,0-8.142-12.414c.4,4.676,4.068,10.085,8.142,12.414" transform="translate(-149.262 -257.867)" fill="#2ec5b6"/></g></g><g transform="translate(50.278 21.715)"><path d="M176.038,243.4a19.973,19.973,0,0,1,13.083-17.036c-1.644,7.567-6.019,13.866-13.083,17.036" transform="translate(-176.038 -226.362)" fill="#2ec5b6"/></g><g transform="translate(46.851 46.795)"><path d="M167.229,296.334a12.6,12.6,0,0,1,7.252-4.636,37.476,37.476,0,0,1,8.724-.869,20.4,20.4,0,0,1-15.753,6.561" transform="translate(-167.229 -290.83)" fill="#2ec5b6"/></g><g transform="translate(43.45 70.622)"><path d="M158.485,353.055a22.348,22.348,0,0,1,27.29,12.928,58.382,58.382,0,0,1-27.29-12.928" transform="translate(-158.485 -352.077)" fill="#2ec5b6"/></g><g transform="translate(29.527 64.892)"><path d="M125.74,337.349c1.647,4.868,1.33,10.752-2.33,14.947a17.857,17.857,0,0,1,2.33-14.947" transform="translate(-122.697 -337.349)" fill="#2ec5b6"/></g><g transform="translate(14.68 62.188)"><path d="M95.991,330.4a18.312,18.312,0,0,1-10.114,14.86,1.14,1.14,0,0,1-.894.147c-.446-.182-.487-.79-.432-1.269.717-6.236,5.337-12.268,11.44-13.738" transform="translate(-84.532 -330.398)" fill="#2ec5b6"/></g><g transform="translate(0 60.873)"><path d="M68.736,327.7a15.018,15.018,0,0,1-21.939.112c6.974-.763,15.02-1.272,21.939-.112" transform="translate(-46.797 -327.016)" fill="#2ec5b6"/></g><g transform="translate(19.856 5.808)"><g transform="translate(1.039)"><path d="M100.507,185.471a1.238,1.238,0,0,0,.064.2l.212.59.841,2.258c.375.977.808,2.181,1.309,3.581l.808,2.239.871,2.522c1.235,3.531,2.607,7.77,4.088,12.489,1.454,4.727,2.981,9.947,4.484,15.453,1.482,5.514,2.8,10.792,3.915,15.61,1.087,4.825,2.022,9.181,2.7,12.861l.494,2.622.4,2.346c.253,1.464.469,2.726.614,3.762l.366,2.381.1.619a1.235,1.235,0,0,0,.044.21A1.248,1.248,0,0,0,121.8,265c-.019-.152-.044-.359-.075-.622l-.316-2.389c-.13-1.039-.331-2.3-.57-3.771l-.379-2.351-.477-2.627c-.652-3.687-1.568-8.05-2.642-12.881-1.106-4.825-2.414-10.108-3.9-15.625-1.5-5.51-3.039-10.73-4.506-15.456-1.5-4.718-2.886-8.953-4.145-12.478q-.467-1.323-.889-2.517l-.827-2.233c-.515-1.395-.962-2.595-1.353-3.566l-.888-2.24-.237-.58A1.275,1.275,0,0,0,100.507,185.471Z" transform="translate(-100.507 -185.471)" fill="#263238"/></g><g transform="translate(20.222 19.947)"><path d="M168.939,236.746a.761.761,0,0,0-.12.113l-.333.35c-.291.31-.713.774-1.24,1.387a48.809,48.809,0,0,0-4.106,5.474,36.758,36.758,0,0,0-4.293,9.185,89.89,89.89,0,0,0-2.575,12.156c-1.418,8.7-3.158,16.483-4.417,22.117l-1.51,6.668c-.172.775-.306,1.383-.4,1.816-.04.2-.073.352-.1.473a.774.774,0,0,0-.025.163.746.746,0,0,0,.051-.157l.124-.468.451-1.8c.38-1.588.924-3.855,1.593-6.65,1.306-5.623,3.077-13.411,4.5-22.115a91.946,91.946,0,0,1,2.547-12.127,37.171,37.171,0,0,1,4.217-9.156,52.631,52.631,0,0,1,4.026-5.509c.513-.622.922-1.1,1.2-1.418l.314-.368A.747.747,0,0,0,168.939,236.746Z" transform="translate(-149.818 -236.746)" fill="#263238"/></g><g transform="translate(0 55.443)"><path d="M97.836,328a.922.922,0,0,0,.251.046l.722.08.522.051.617.093c.443.065.947.13,1.5.252l.866.172.927.235c.645.146,1.312.382,2.023.6a29.725,29.725,0,0,1,4.415,1.945,24.951,24.951,0,0,1,3.959,2.75,19.961,19.961,0,0,1,1.519,1.458,15.872,15.872,0,0,1,1.2,1.387,14.486,14.486,0,0,1,.89,1.227,9.033,9.033,0,0,1,.61.969l.37.624a.957.957,0,0,0,.145.211.882.882,0,0,0-.1-.235l-.328-.651a8.034,8.034,0,0,0-.575-1,13.409,13.409,0,0,0-.866-1.26,15.128,15.128,0,0,0-1.19-1.423,18.982,18.982,0,0,0-1.519-1.492,24.071,24.071,0,0,0-3.991-2.8,28.4,28.4,0,0,0-4.467-1.946c-.719-.21-1.394-.44-2.047-.578l-.938-.221-.875-.157c-.556-.111-1.066-.163-1.512-.215l-.622-.071-.526-.028-.728-.03A.935.935,0,0,0,97.836,328Z" transform="translate(-97.836 -327.987)" fill="#263238"/></g></g><g transform="translate(17.869 25.921)"><path d="M92.73,237.174a3.474,3.474,0,0,0,.5.484l1.435,1.245c1.22,1.042,2.916,2.468,4.8,4.031s3.6,2.966,4.852,3.972l1.489,1.18a3.489,3.489,0,0,0,.568.4,3.507,3.507,0,0,0-.5-.485l-1.436-1.245c-1.22-1.043-2.916-2.468-4.8-4.03s-3.6-2.964-4.849-3.969l-1.49-1.18A3.517,3.517,0,0,0,92.73,237.174Z" transform="translate(-92.73 -237.173)" fill="#263238"/></g><g transform="translate(16.155 35.143)"><path d="M88.324,260.882c-.021.071,3.641,1.215,8.177,2.555s8.233,2.37,8.254,2.3-3.64-1.215-8.178-2.555S88.344,260.811,88.324,260.882Z" transform="translate(-88.324 -260.878)" fill="#263238"/></g><g transform="translate(29.674 18.437)"><path d="M123.076,230.972a3.024,3.024,0,0,0,.378-.526l.965-1.471c.819-1.239,1.981-2.928,3.355-4.727s2.7-3.365,3.676-4.484l1.159-1.323a2.985,2.985,0,0,0,.4-.505,3.033,3.033,0,0,0-.48.434c-.3.291-.717.724-1.224,1.268-1.014,1.089-2.366,2.643-3.748,4.448s-2.522,3.52-3.3,4.788c-.39.634-.7,1.153-.9,1.518A3.019,3.019,0,0,0,123.076,230.972Z" transform="translate(-123.074 -217.935)" fill="#263238"/></g><g transform="translate(42.389 36.594)"><path d="M155.762,264.607a12.012,12.012,0,0,0,.859,1.413c.547.86,1.289,2.056,2.058,3.406s1.417,2.6,1.876,3.51a12.054,12.054,0,0,0,.775,1.46,8.775,8.775,0,0,0-.6-1.541c-.417-.934-1.043-2.2-1.815-3.56s-1.544-2.543-2.133-3.379A8.747,8.747,0,0,0,155.762,264.607Z" transform="translate(-155.76 -264.606)" fill="#263238"/></g><g transform="translate(46.742 47.975)"><path d="M166.947,298.44c.019.036.717-.305,1.861-.82s2.74-1.187,4.543-1.82,3.472-1.1,4.687-1.411,1.974-.479,1.966-.519a2.16,2.16,0,0,0-.545.057c-.348.052-.849.147-1.464.279a40.851,40.851,0,0,0-9.268,3.244c-.564.28-1.014.518-1.318.695A2.156,2.156,0,0,0,166.947,298.44Z" transform="translate(-166.947 -293.864)" fill="#263238"/></g><g transform="translate(43.317 71.625)"><path d="M158.144,354.66a.809.809,0,0,0,.226.076l.659.168,2.436.562a80.312,80.312,0,0,1,7.954,2.1,35.313,35.313,0,0,1,7.421,3.486c.887.565,1.578,1.064,2.044,1.423a7.279,7.279,0,0,0,.737.545c.006-.007-.05-.067-.164-.173s-.279-.266-.508-.453a21.33,21.33,0,0,0-2.007-1.5,32.54,32.54,0,0,0-7.437-3.581,66.544,66.544,0,0,0-8-2.031l-2.453-.479A6.122,6.122,0,0,0,158.144,354.66Z" transform="translate(-158.144 -354.657)" fill="#263238"/></g><g transform="translate(30.921 64.82)"><path d="M126.29,348.675c.073.011.509-2.558.974-5.736s.783-5.764.71-5.775-.508,2.557-.974,5.737S126.217,348.664,126.29,348.675Z" transform="translate(-126.279 -337.164)" fill="#263238"/></g><g transform="translate(18.035 62.232)"><path d="M93.158,339.927a13.531,13.531,0,0,0,1.162-1.38c.7-.868,1.663-2.063,2.754-3.362s2.1-2.457,2.838-3.292a13.466,13.466,0,0,0,1.159-1.382,1.71,1.71,0,0,0-.369.316c-.226.216-.543.536-.929.938-.771.8-1.808,1.945-2.9,3.248s-2.039,2.52-2.7,3.418c-.33.449-.591.817-.764,1.077A1.71,1.71,0,0,0,93.158,339.927Z" transform="translate(-93.156 -330.509)" fill="#263238"/></g></g><g transform="translate(24.735 83.609)"><path d="M137.8,385.46v6.372h-1.593l-5.664,17.876h-12.56l-5.487-17.7-2.124-.177V385.46Z" transform="translate(-110.378 -385.46)" fill="#455a64"/></g><g transform="translate(25.797 90.024)"><path d="M113.108,402.083c0,.074,5.546.133,12.385.133s12.387-.06,12.387-.133-5.544-.133-12.387-.133S113.108,402.01,113.108,402.083Z" transform="translate(-113.108 -401.95)" fill="#263238"/></g><g transform="translate(16.763 49.168)"><path d="M89.888,296.935a4.937,4.937,0,0,0,.8.218l2.2.531c1.858.46,4.409,1.159,7.177,2.088s5.223,1.918,6.981,2.674l2.078.909a4.96,4.96,0,0,0,.773.313,5,5,0,0,0-.728-.407c-.476-.248-1.174-.587-2.046-.987A72.436,72.436,0,0,0,92.941,297.5c-.936-.208-1.7-.36-2.227-.45A5,5,0,0,0,89.888,296.935Z" transform="translate(-89.888 -296.931)" fill="#263238"/></g><g transform="translate(29.966 99.951)"><path d="M123.826,427.6c0,.074,3.891.133,8.69.133s8.69-.06,8.69-.133-3.89-.133-8.69-.133S123.826,427.527,123.826,427.6Z" transform="translate(-123.826 -427.467)" fill="#fafafa"/></g><g transform="translate(29.478 98.473)"><path d="M122.57,423.8c0,.074,4.123.133,9.209.133s9.209-.06,9.209-.133-4.122-.133-9.209-.133S122.57,423.729,122.57,423.8Z" transform="translate(-122.57 -423.669)" fill="#fafafa"/></g></g><g transform="translate(133.975 71.708)"><g transform="translate(0 50.596)"><path d="M431.185,269.253l-25.934-29.136a10.981,10.981,0,0,0-8.122-3.679l-85.387-.622a10.982,10.982,0,0,0-11.061,11.007l.143,60.464a10.981,10.981,0,0,0,11.027,10.955l85.089-.358a10.98,10.98,0,0,0,8.281-3.823l26.089-30.348A10.982,10.982,0,0,0,431.185,269.253Zm-14.43,10.489a9.057,9.057,0,1,1-4.981-11.8A9.057,9.057,0,0,1,416.755,279.742Z" transform="translate(-300.68 -235.815)" fill="#f7c90b"/><g opacity="0.4"><path d="M431.185,269.253l-25.934-29.136a10.981,10.981,0,0,0-8.122-3.679l-85.387-.622a10.982,10.982,0,0,0-11.061,11.007l.143,60.464a10.981,10.981,0,0,0,11.027,10.955l85.089-.358a10.98,10.98,0,0,0,8.281-3.823l26.089-30.348A10.982,10.982,0,0,0,431.185,269.253Zm-14.43,10.489a9.057,9.057,0,1,1-4.981-11.8A9.057,9.057,0,0,1,416.755,279.742Z" transform="translate(-300.68 -235.815)"/></g></g><g transform="translate(4.495 50.596)"><path d="M442.74,269.253l-25.935-29.136a10.979,10.979,0,0,0-8.122-3.679l-85.387-.622a10.981,10.981,0,0,0-11.061,11.007l.143,60.464a10.981,10.981,0,0,0,11.027,10.955l85.089-.358a10.98,10.98,0,0,0,8.281-3.823l26.089-30.348A10.981,10.981,0,0,0,442.74,269.253Zm-14.43,10.489a9.057,9.057,0,1,1-4.981-11.8A9.057,9.057,0,0,1,428.31,279.742Z" transform="translate(-312.235 -235.815)" fill="#f7c90b"/></g><g transform="translate(32.895 70.12)"><path d="M385.238,297.89c.068-7.328,4.583-11.945,10.918-11.886s10.7,4.7,10.633,12.087-4.52,11.946-10.856,11.887S385.17,305.219,385.238,297.89Zm15.34.142c.044-4.658-1.737-6.91-4.47-6.936-2.67-.025-4.555,2.256-4.6,6.851s1.8,6.911,4.469,6.936C398.713,304.91,400.535,302.691,400.578,298.033Zm21.471-11.291,7.391.068-30.092,43.2-7.39-.068Zm-7.439,31.918c.068-7.328,4.583-11.945,10.855-11.887,6.335.059,10.764,4.758,10.7,12.087s-4.584,11.945-10.918,11.886C418.97,330.688,414.542,325.989,414.61,318.661Zm15.278.142c.043-4.6-1.737-6.91-4.47-6.936-2.67-.025-4.554,2.193-4.6,6.851s1.8,6.911,4.469,6.936C428.023,325.68,429.845,323.4,429.888,318.8Z" transform="translate(-385.237 -286.004)" fill="#222"/></g><g transform="translate(110.537 93.405)"><path d="M606.443,354.475a4.048,4.048,0,0,1,.849.61c.533.426,1.311,1.065,2.3,1.908s2.181,1.886,3.531,3.145,2.854,2.73,4.412,4.462a44.892,44.892,0,0,1,4.641,6.056l.552.883.522.922a19.335,19.335,0,0,1,.988,1.946,12.115,12.115,0,0,1,1.124,4.484A7.022,7.022,0,0,1,625,381.34a6.341,6.341,0,0,1-1.281,2.2,8.3,8.3,0,0,1-4.452,2.545,12.119,12.119,0,0,1-5.255-.124A23.018,23.018,0,0,1,609,384.123a31.155,31.155,0,0,1-8.368-6.235,40.275,40.275,0,0,1-3.235-3.76q-1.466-1.919-2.786-3.814a72,72,0,0,1-7.935-14.27q-.641-1.625-1.119-3.132c-.155-.5-.3-.992-.424-1.476a9.136,9.136,0,0,1-.281-1.438,3.56,3.56,0,0,1,.639-2.609,3.812,3.812,0,0,1,1.846-1.285,5.194,5.194,0,0,1,.928-.215,5.082,5.082,0,0,1,.832-.018,3.836,3.836,0,0,1,1.266.278,2.36,2.36,0,0,1,.677.416c.133.12.194.186.182.2s-.1-.028-.242-.116a3.056,3.056,0,0,0-.686-.308,3.979,3.979,0,0,0-1.2-.168,4.158,4.158,0,0,0-1.617.3,3.436,3.436,0,0,0-1.589,1.2,3.061,3.061,0,0,0-.467,2.255,8.73,8.73,0,0,0,.3,1.351c.13.466.287.943.451,1.433.337.978.727,2,1.17,3.064a74.933,74.933,0,0,0,8.035,14q1.322,1.865,2.789,3.761a40.011,40.011,0,0,0,3.178,3.656,30.535,30.535,0,0,0,8.11,6.022,22.227,22.227,0,0,0,4.784,1.766,11.181,11.181,0,0,0,4.822.137,7.356,7.356,0,0,0,3.938-2.217,5.711,5.711,0,0,0,1.431-3.994,11.3,11.3,0,0,0-1.008-4.149,18.783,18.783,0,0,0-.931-1.884l-.5-.906-.528-.871a45.842,45.842,0,0,0-4.467-6.027c-1.505-1.741-2.963-3.237-4.267-4.527s-2.458-2.374-3.4-3.259l-2.168-2.049A4.092,4.092,0,0,1,606.443,354.475Z" transform="translate(-584.818 -345.858)" fill="#263238"/></g><g transform="translate(68.673)"><g transform="translate(18.289 7.603)"><path d="M528.893,159.336c-.056.008-1.146-7.606-2.436-17s-2.291-17.024-2.235-17.032,1.146,7.6,2.436,17S528.948,159.328,528.893,159.336Z" transform="translate(-524.219 -125.302)" fill="#263238"/></g><g transform="translate(38.661)"><path d="M592.963,105.758a.57.57,0,0,1-.036.118l-.125.338-.5,1.294-1.854,4.753c-1.561,4.015-3.687,9.573-5.949,15.743s-4.229,11.79-5.631,15.863l-1.655,4.825L576.758,150l-.123.339a.531.531,0,0,1-.049.114.587.587,0,0,1,.029-.12l.1-.346.418-1.323c.366-1.148.91-2.8,1.594-4.847,1.367-4.086,3.315-9.711,5.576-15.887s4.41-11.724,6.006-15.726c.8-2,1.452-3.617,1.914-4.73l.535-1.28.144-.331A.543.543,0,0,1,592.963,105.758Z" transform="translate(-576.586 -105.758)" fill="#263238"/></g><g transform="translate(53.023 29.939)"><path d="M638.5,182.717c.034.044-5.535,4.406-12.437,9.74s-12.528,9.625-12.562,9.581,5.534-4.4,12.438-9.741S638.469,182.673,638.5,182.717Z" transform="translate(-613.504 -182.717)" fill="#263238"/></g><g transform="translate(0 30.676)"><path d="M486.663,196.993c-.045.034-2.2-2.71-4.809-6.128s-4.692-6.219-4.648-6.252,2.2,2.71,4.809,6.129S486.708,196.959,486.663,196.993Z" transform="translate(-477.206 -184.612)" fill="#263238"/></g><g transform="translate(60.209 60.073)"><path d="M647.16,264.606c-.016.054-3.428-.894-7.62-2.116s-7.58-2.257-7.564-2.31,3.427.893,7.621,2.116S647.176,264.553,647.16,264.606Z" transform="translate(-631.976 -260.177)" fill="#263238"/></g></g></g><g transform="translate(229.017 132.039)"><path d="M544.99,264.887l2.529-1.456,1.344-2.59,1.456,2.529,2.59,1.344-2.529,1.456-1.344,2.59-1.456-2.529Z" transform="translate(-544.99 -260.841)" fill="#fff"/></g><g transform="translate(215.348 130.653)"><path d="M509.852,258.695l.885-.51.47-.907.51.885.907.47-.885.51-.47.907-.51-.885Z" transform="translate(-509.852 -257.278)" fill="#fff"/></g><g transform="translate(224.077 147.2)"><path d="M532.291,302.55l1.711-.985.909-1.753.985,1.711,1.753.909-1.711.985-.909,1.753-.985-1.711Z" transform="translate(-532.291 -299.811)" fill="#fff"/></g><g transform="translate(27.828 204.665)"><g transform="translate(0)"><path d="M295.859,447.63c0,.056-60.006.1-134.009.1-74.03,0-134.022-.046-134.022-.1s59.992-.1,134.022-.1C235.853,447.528,295.859,447.574,295.859,447.63Z" transform="translate(-27.828 -447.528)" fill="#263238"/></g></g><g transform="translate(71.308 99.373)"><g transform="translate(17.159 97.629)"><g transform="translate(0 0.868)"><path d="M201.21,430.061s-16.246,4.5-16.9,4.725c-.979.345-.814,3.93.708,3.874.72-.026,12.478.438,13.964.345a30.732,30.732,0,0,0,5.484-1.672Z" transform="translate(-183.7 -430.061)" fill="#455a64"/></g><g transform="translate(8.875 3.821)"><path d="M208.381,440.9a7.133,7.133,0,0,0-1.865-3.24,3.611,3.611,0,0,1,1.865,3.24Z" transform="translate(-206.514 -437.652)" fill="#263238"/></g><g transform="translate(10.87 3.194)"><path d="M213.208,439.145c-.08.014-.244-.754-.677-1.6s-.943-1.443-.885-1.5a4.077,4.077,0,0,1,1.562,3.1Z" transform="translate(-211.642 -436.04)" fill="#263238"/></g><g transform="translate(12.756 2.633)"><path d="M217.76,437.838A5.7,5.7,0,0,0,216.5,434.6a3.051,3.051,0,0,1,1.265,3.236Z" transform="translate(-216.491 -434.597)" fill="#263238"/></g><g transform="translate(13.562)"><path d="M218.737,431.6a2.872,2.872,0,0,1-.174-1.209,5.7,5.7,0,0,1,.165-1.325,5.625,5.625,0,0,1,.242-.754.913.913,0,0,1,.26-.4.434.434,0,0,1,.558.028.719.719,0,0,1,.217.459,3.175,3.175,0,0,1,.021.429,3.584,3.584,0,0,1-.1.8,4.838,4.838,0,0,1-.5,1.242,3.278,3.278,0,0,1-.73.978c-.037-.026.235-.4.559-1.067a5.34,5.34,0,0,0,.426-1.208,3.552,3.552,0,0,0,.078-.742c-.007-.25,0-.562-.15-.682a.157.157,0,0,0-.215-.018.687.687,0,0,0-.178.284,6,6,0,0,0-.246.717,6.509,6.509,0,0,0-.215,1.269C218.707,431.138,218.781,431.6,218.737,431.6Z" transform="translate(-218.563 -427.829)" fill="#263238"/></g><g transform="translate(13.757 3.44)"><path d="M219.063,436.842a2.273,2.273,0,0,1,1.048-.169,4.731,4.731,0,0,1,1.153.141,2.552,2.552,0,0,1,.664.245.686.686,0,0,1,.367.743.811.811,0,0,1-.585.58,1.483,1.483,0,0,1-.729,0,2.793,2.793,0,0,1-1.055-.519,2.847,2.847,0,0,1-.755-.744,7.263,7.263,0,0,1,.865.586,2.892,2.892,0,0,0,1,.431,1.282,1.282,0,0,0,.6-.009.549.549,0,0,0,.4-.386.419.419,0,0,0-.241-.454,2.477,2.477,0,0,0-.589-.23,5.448,5.448,0,0,0-1.095-.191C219.468,436.821,219.069,436.886,219.063,436.842Z" transform="translate(-219.063 -436.673)" fill="#263238"/></g><g transform="translate(7.127 4.497)"><path d="M203.139,442.132a4.383,4.383,0,0,0-1.116-2.737,2.33,2.33,0,0,1,1.116,2.737Z" transform="translate(-202.02 -439.388)" fill="#263238"/></g><g transform="translate(2.152 7.986)"><path d="M206.662,448.363a3.424,3.424,0,0,1-.628.3,14.02,14.02,0,0,1-1.808.56,25.78,25.78,0,0,1-6.2.588c-2.435-.027-4.628-.138-6.219-.2l-1.882-.1a3.408,3.408,0,0,1-.689-.074,3.378,3.378,0,0,1,.692-.032l1.885.013,6.215.122a29.061,29.061,0,0,0,6.158-.5C205.736,448.712,206.643,448.313,206.662,448.363Z" transform="translate(-189.232 -448.359)" fill="#263238"/></g><g transform="translate(12.176 6.98)"><path d="M222.885,447.152c-.022.037-.466-.223-1.217-.552a5.657,5.657,0,0,0-3.074-.511,4.869,4.869,0,0,0-2.657,1.581,9.574,9.574,0,0,1-.936.956,5.012,5.012,0,0,1,.795-1.087,6.468,6.468,0,0,1,1.077-1.007,3.865,3.865,0,0,1,1.679-.712,5.375,5.375,0,0,1,3.2.605A4.289,4.289,0,0,1,222.885,447.152Z" transform="translate(-214.999 -445.771)" fill="#263238"/></g><g transform="translate(3.023 5.048)"><path d="M192.212,444.82c-.03-.02.109-.235.237-.614a2.975,2.975,0,0,0-.537-2.911c-.255-.309-.461-.46-.441-.489s.256.086.556.384a2.769,2.769,0,0,1,.567,3.072C192.421,444.649,192.232,444.836,192.212,444.82Z" transform="translate(-191.47 -440.804)" fill="#263238"/></g></g><g transform="translate(48.745 97.754)"><g transform="translate(0 1.225)"><path d="M267.769,431.3s16.665,2.533,17.339,2.684c1.013.226,1.276,3.805-.243,3.931-.719.06-12.338,1.918-13.824,2s-6.146-1.137-6.146-1.137Z" transform="translate(-264.895 -431.298)" fill="#455a64"/></g><g transform="translate(10.263 3.132)"><path d="M291.345,439.645a7.122,7.122,0,0,1,1.466-3.438,3.609,3.609,0,0,0-1.466,3.438Z" transform="translate(-291.277 -436.202)" fill="#263238"/></g><g transform="translate(8.507 2.747)"><path d="M286.814,438.478c.081,0,.153-.778.481-1.672s.765-1.544.7-1.593a4.073,4.073,0,0,0-1.182,3.265Z" transform="translate(-286.764 -435.21)" fill="#263238"/></g><g transform="translate(6.728 2.413)"><path d="M282.391,437.72a5.7,5.7,0,0,1,.871-3.363,3.05,3.05,0,0,0-.871,3.363Z" transform="translate(-282.19 -434.353)" fill="#263238"/></g><g transform="translate(5.328)"><path d="M280.229,431.812a2.878,2.878,0,0,0,.029-1.221,5.692,5.692,0,0,0-.321-1.3,5.63,5.63,0,0,0-.33-.72.912.912,0,0,0-.306-.364.434.434,0,0,0-.551.093.72.72,0,0,0-.16.482,3.182,3.182,0,0,0,.03.429,3.613,3.613,0,0,0,.194.778,4.834,4.834,0,0,0,.644,1.174,3.28,3.28,0,0,0,.841.884c.033-.03-.282-.373-.682-.993a5.33,5.33,0,0,1-.567-1.149,3.568,3.568,0,0,1-.166-.727c-.023-.249-.063-.558.067-.695a.158.158,0,0,1,.211-.043.683.683,0,0,1,.211.261,6.022,6.022,0,0,1,.33.682,6.544,6.544,0,0,1,.364,1.234C280.2,431.346,280.184,431.811,280.229,431.812Z" transform="translate(-278.591 -428.15)" fill="#263238"/></g><g transform="translate(3.792 3.428)"><path d="M277.777,437.035a2.271,2.271,0,0,0-1.06-.044,4.723,4.723,0,0,0-1.127.277,2.533,2.533,0,0,0-.63.322.686.686,0,0,0-.276.781.811.811,0,0,0,.65.506,1.485,1.485,0,0,0,.723-.088,2.8,2.8,0,0,0,.986-.641,2.857,2.857,0,0,0,.662-.828,7.125,7.125,0,0,0-.79.685,2.881,2.881,0,0,1-.938.547,1.281,1.281,0,0,1-.6.063.551.551,0,0,1-.439-.337.419.419,0,0,1,.186-.479,2.481,2.481,0,0,1,.558-.3,5.456,5.456,0,0,1,1.064-.32C277.372,437.062,277.775,437.079,277.777,437.035Z" transform="translate(-274.643 -436.962)" fill="#263238"/></g><g transform="translate(12.616 3.595)"><path d="M297.538,440.248a4.388,4.388,0,0,1,.782-2.85,2.331,2.331,0,0,0-.782,2.85Z" transform="translate(-297.324 -437.392)" fill="#263238"/></g><g transform="translate(1.663 7.526)"><path d="M269.171,448.513a3.386,3.386,0,0,0,.659.219,13.918,13.918,0,0,0,1.861.342,25.809,25.809,0,0,0,6.228-.154c2.414-.316,4.579-.687,6.151-.94l1.857-.323a3.422,3.422,0,0,0,.676-.155,3.392,3.392,0,0,0-.691.05l-1.87.237-6.157.86a29.055,29.055,0,0,1-6.175.232C270.132,448.749,269.184,448.46,269.171,448.513Z" transform="translate(-269.171 -447.495)" fill="#263238"/></g><g transform="translate(1.23 7.129)"><path d="M268.058,448.314c.026.035.436-.276,1.143-.692a5.658,5.658,0,0,1,2.992-.873A4.869,4.869,0,0,1,275.018,448a9.544,9.544,0,0,0,1.043.838,5.044,5.044,0,0,0-.918-.985,6.466,6.466,0,0,0-1.189-.872,3.859,3.859,0,0,0-1.751-.507,5.375,5.375,0,0,0-3.1.981A4.305,4.305,0,0,0,268.058,448.314Z" transform="translate(-268.057 -446.475)" fill="#263238"/></g></g><g transform="translate(65.487 22.188)"><g transform="translate(0)"><path d="M345.892,242.224a1.042,1.042,0,0,0-.488-.479l.4-.8a2.249,2.249,0,0,0-.23-.8c-.192-.335-.874-.308-.874-.308l.1-.223a.988.988,0,0,0-.084-.979q-.046-.065-.1-.132a1.63,1.63,0,0,0-.863-.438s.388-.747.216-1.059a1.615,1.615,0,0,0-1.657-.655A23.9,23.9,0,0,0,339.3,237.8a.708.708,0,0,1-1.01-.372,10.241,10.241,0,0,0-1.473-2.769,1.531,1.531,0,0,0-1.817-.656.329.329,0,0,0-.164.478,17.761,17.761,0,0,1,1.058,1.929c.19.507.4,4.342.4,4.342l-1.051,2L324.628,259.5s-16.008-10.79-15.945-11.058l-.754,12.37L320,268.828a8.494,8.494,0,0,0,12.48-3.671l8.119-17.621.985-1.441,3.824-2.45S346.028,242.546,345.892,242.224Z" transform="translate(-307.929 -233.905)" fill="#ffbe9d"/><g transform="translate(31.51 3.017)"><path d="M393.621,242.833a.412.412,0,0,1-.076.07l-.23.185-.856.664-1.277.975c-.244.179-.484.385-.772.56a1.125,1.125,0,0,1-1.016.134.762.762,0,0,1-.377-.387,1.079,1.079,0,0,1-.089-.512,1.466,1.466,0,0,1,.4-.871,5.79,5.79,0,0,1,.638-.584l.576-.478.838-.687.231-.183a.4.4,0,0,1,.085-.059.416.416,0,0,1-.072.074l-.219.2-.818.71-.568.487a5.832,5.832,0,0,0-.622.581,1.385,1.385,0,0,0-.378.818.805.805,0,0,0,.41.8.823.823,0,0,0,.478.047,1.355,1.355,0,0,0,.449-.174c.275-.166.522-.373.766-.55l1.289-.959.875-.64.241-.17A.417.417,0,0,1,393.621,242.833Z" transform="translate(-388.927 -241.66)" fill="#eb996e"/></g><g transform="translate(32.791 5.989)"><path d="M396.481,249.3a1.021,1.021,0,0,1-.177.147c-.118.089-.291.216-.508.367-.434.3-1.045.705-1.741,1.116a5.223,5.223,0,0,1-.522.285,1.11,1.11,0,0,1-.556.105.866.866,0,0,1-.72-.579.849.849,0,0,1,.049-.63.725.725,0,0,1,.1-.144c.027-.029.043-.042.045-.04s-.05.067-.107.2a.844.844,0,0,0-.019.592.8.8,0,0,0,.664.512,1.036,1.036,0,0,0,.509-.1,5.552,5.552,0,0,0,.51-.281c.694-.409,1.309-.8,1.753-1.089l.525-.341A1.067,1.067,0,0,1,396.481,249.3Z" transform="translate(-392.219 -249.301)" fill="#eb996e"/></g><g transform="translate(33.634 7.745)"><path d="M398.3,253.816a.887.887,0,0,1-.184.108l-.518.261c-.439.216-1.048.509-1.724.827a4.942,4.942,0,0,1-.5.219.97.97,0,0,1-.524.042.573.573,0,0,1-.39-.28.645.645,0,0,1-.06-.413.881.881,0,0,1,.3-.5.571.571,0,0,1,.178-.119c0,.007-.057.051-.152.147a.883.883,0,0,0-.263.484.579.579,0,0,0,.063.363.492.492,0,0,0,.338.231.894.894,0,0,0,.475-.045,5.361,5.361,0,0,0,.493-.217c.675-.318,1.289-.6,1.736-.8l.531-.233A.885.885,0,0,1,398.3,253.816Z" transform="translate(-394.387 -253.815)" fill="#eb996e"/></g><g transform="translate(34.402 9.07)"><path d="M399.783,257.527a4.015,4.015,0,0,1-.608.159c-.378.086-.9.2-1.482.315l-.424.085a1.77,1.77,0,0,1-.409.049.591.591,0,0,1-.362-.13.386.386,0,0,1-.139-.309.552.552,0,0,1,.233-.407.293.293,0,0,1,.157-.07c0,.008-.054.03-.133.1a.535.535,0,0,0-.188.378.315.315,0,0,0,.121.246.516.516,0,0,0,.314.1,1.751,1.751,0,0,0,.387-.053l.423-.087c.58-.117,1.106-.219,1.488-.288A4.008,4.008,0,0,1,399.783,257.527Z" transform="translate(-396.359 -257.219)" fill="#eb996e"/></g><g transform="translate(31.513 8.391)"><path d="M391.1,255.685a3.736,3.736,0,0,0-2.161.1,2.4,2.4,0,0,1,2.161-.1Z" transform="translate(-388.935 -255.475)" fill="#eb996e"/></g></g></g><g transform="translate(36.284)"><g transform="translate(1.392)"><path d="M240.765,203.991s-5.385-4.542-4.137-7.67,4.7-4.679,6.4-10.366c1.358-4.544,9.447-13.3,19.031-6.717,0,0,3.244-.512,5.09.966s2.289,4.427,3.073,7.833c1.207,5.248,1.868,9.283-.468,11.847s-3.19,3.258-3.065,6.177c.163,3.809,1.843,3.3.394,6.076l-8.04-2.624-.083-2.213-.815,2.082L253.47,207.7Z" transform="translate(-236.441 -176.871)" fill="#263238"/></g><g transform="translate(6.996 3.889)"><g transform="translate(12.001 4.08)"><path d="M295.184,197.356a4.99,4.99,0,0,0,.4,3.8,6.822,6.822,0,0,1,.82,3.778c-.445,2.277-3.27,3.545-3.584,5.844-.168,1.232.45,2.485.211,3.7a4.258,4.258,0,0,1-2.263,2.662c-1.045.594-2.2.988-3.187,1.68,0,0-2.163,1.774-5.888-1.151" transform="translate(-281.695 -197.356)" fill="#263238"/></g><g transform="translate(0 1.055)"><path d="M261.068,189.632a1.98,1.98,0,0,0-2.334,1.316h0l-7.725,25.638c-1,3,2.775,6.2,5.993,7.243h0c3.25,1.053,3.908-.491,4.941-3.314,1.727-4.716,2.344-6.5,2.337-6.47,0,0,4.312.74,7.006-4.286a60.185,60.185,0,0,0,3.724-10.506c.908-3.261.155-7.912-3.142-8.681Z" transform="translate(-250.847 -189.58)" fill="#ffbe9d"/><g transform="translate(19.814 10.137)"><g transform="translate(0.201 1.332)"><path d="M303.713,219.953a.722.722,0,0,1-.9.46.691.691,0,0,1-.489-.86.722.722,0,0,1,.9-.46A.691.691,0,0,1,303.713,219.953Z" transform="translate(-302.297 -219.063)" fill="#263238"/></g><path d="M304.465,216.93c-.115.06-.5-.5-1.234-.756s-1.4-.073-1.449-.191c-.025-.053.117-.184.411-.273a1.982,1.982,0,0,1,1.2.042,1.9,1.9,0,0,1,.944.713C304.5,216.717,304.521,216.9,304.465,216.93Z" transform="translate(-301.78 -215.638)" fill="#263238"/></g><g transform="translate(12.489 7.94)"><g transform="translate(0.246 1.205)"><path d="M285,213.977a.722.722,0,0,1-.9.459.691.691,0,0,1-.489-.859.723.723,0,0,1,.9-.46A.691.691,0,0,1,285,213.977Z" transform="translate(-283.583 -213.087)" fill="#263238"/></g><path d="M285.637,211.282c-.116.06-.5-.5-1.235-.756s-1.4-.073-1.449-.191c-.025-.053.116-.184.411-.273a1.983,1.983,0,0,1,1.2.042,1.9,1.9,0,0,1,.943.713C285.671,211.069,285.692,211.257,285.637,211.282Z" transform="translate(-282.951 -209.99)" fill="#263238"/></g><g transform="translate(15.947 9.37)"><path d="M291.839,219.9a5.116,5.116,0,0,1,1.267.2c.194.046.385.07.461-.047a1.008,1.008,0,0,0,.068-.6q-.028-.773-.058-1.62a26.021,26.021,0,0,1,.053-4.166,26,26,0,0,1,.282,4.161c.011.566.023,1.1.032,1.621a1.146,1.146,0,0,1-.158.769.5.5,0,0,1-.4.167,1.335,1.335,0,0,1-.334-.067A5.069,5.069,0,0,1,291.839,219.9Z" transform="translate(-291.838 -213.665)" fill="#263238"/></g><g transform="translate(6.971 20.089)"><path d="M275.229,245.6a14.327,14.327,0,0,1-6.464-4.377s.526,4.282,6.023,5.635Z" transform="translate(-268.765 -241.22)" fill="#eb996e"/></g><g transform="translate(12.63 16.325)"><path d="M285.7,232.482a1.4,1.4,0,0,0-1.015-.9,1.28,1.28,0,0,0-.99.158.81.81,0,0,0-.362.855.939.939,0,0,0,.878.578,2.947,2.947,0,0,0,1.133-.234.858.858,0,0,0,.285-.144.259.259,0,0,0,.094-.273" transform="translate(-283.313 -231.543)" fill="#eb996e"/></g><g transform="translate(12.173 6.222)"><path d="M285.688,206.482c-.115.193-.858-.051-1.775-.113-.915-.081-1.687.044-1.77-.165-.036-.1.127-.27.457-.416a3.092,3.092,0,0,1,2.7.212C285.605,206.2,285.74,206.39,285.688,206.482Z" transform="translate(-282.138 -205.573)" fill="#263238"/></g><g transform="translate(20.537 7.672)"><path d="M306.659,210.622c-.205.126-.774-.225-1.515-.443-.734-.239-1.4-.273-1.5-.491-.039-.1.108-.246.428-.33a2.515,2.515,0,0,1,1.314.07,2.474,2.474,0,0,1,1.116.683C306.715,210.359,306.752,210.559,306.659,210.622Z" transform="translate(-303.638 -209.301)" fill="#263238"/></g></g><g transform="translate(1.231)"><path d="M254.01,204.8l4.345-14.552a4.968,4.968,0,0,1,1.468-2.684,4.745,4.745,0,0,1,2.811-.682,53.357,53.357,0,0,1,12.6,1.244,2.167,2.167,0,0,1-1.611,2.246,9.673,9.673,0,0,1-3,.219,3.757,3.757,0,0,0-2.784.932c-.725.789-.8,2.008-1.481,2.832-1.179,1.417-3.644,1.118-4.815,2.542-.885,1.077-.646,2.652-.938,4.015a10.178,10.178,0,0,1-1.539,3.818c-.742,1.4,1.125,4.056-.735,7.508l-3.609-1.027,1.585-5.332-2.147,5Z" transform="translate(-254.01 -186.868)" fill="#263238"/></g><g transform="translate(13.277 16.561)"><path d="M285.465,229.446c.076.044.037.238.032.517a1.887,1.887,0,0,0,.913,1.743c.232.155.414.233.407.321s-.221.158-.571.076a1.707,1.707,0,0,1-1.169-2.232C285.21,229.538,285.4,229.4,285.465,229.446Z" transform="translate(-284.974 -229.439)" fill="#263238"/></g></g><g transform="translate(13.66 8.763)"><path d="M274.008,199.4a.977.977,0,0,1-.2.114,6.319,6.319,0,0,0-.573.317,6.917,6.917,0,0,0-3.185,4.806,7.869,7.869,0,0,0,.015,2.091,12.669,12.669,0,0,1,.137,2.288,4.132,4.132,0,0,1-.249,1.154,6.936,6.936,0,0,1-.517,1.013,5.1,5.1,0,0,0-.815,1.9,6.516,6.516,0,0,0,.048,1.886c.082.593.188,1.145.229,1.661a4.4,4.4,0,0,1-.357,2.394,2.412,2.412,0,0,1-.386.542.98.98,0,0,1-.177.15,3.472,3.472,0,0,0,.492-.726,4.469,4.469,0,0,0,.285-2.346c-.049-.5-.162-1.053-.252-1.649a6.59,6.59,0,0,1-.067-1.938c.152-1.432,1.535-2.482,1.563-4.058a12.8,12.8,0,0,0-.132-2.252,7.941,7.941,0,0,1,0-2.139,6.869,6.869,0,0,1,1.476-3.276,6.5,6.5,0,0,1,1.853-1.57,4.525,4.525,0,0,1,.6-.286A.963.963,0,0,1,274.008,199.4Z" transform="translate(-267.978 -199.396)" fill="#263238"/></g><g transform="translate(31.567 5.087)"><path d="M319.566,215.5s-.02.021-.065.054a2.225,2.225,0,0,1-.207.138,3.267,3.267,0,0,1-.885.361,3.666,3.666,0,0,1-1.511.055,3.373,3.373,0,0,1-1.789-.89,3.659,3.659,0,0,1-1.072-2.168,3.422,3.422,0,0,1,.089-1.366,4.184,4.184,0,0,1,.641-1.3,17.09,17.09,0,0,1,2.15-2.194,8.2,8.2,0,0,0,1.058-1.2,5.75,5.75,0,0,0,.726-1.463,9.426,9.426,0,0,0,.409-3.209,22.817,22.817,0,0,0-.316-3.029,28.55,28.55,0,0,0-1.3-4.995,29.714,29.714,0,0,0-1.364-3.207c-.183-.369-.329-.654-.431-.846a1.99,1.99,0,0,1-.143-.3,2.073,2.073,0,0,1,.179.28c.113.186.271.465.465.83a26.306,26.306,0,0,1,1.428,3.194,27.63,27.63,0,0,1,1.347,5.013,22.608,22.608,0,0,1,.33,3.054,9.55,9.55,0,0,1-.416,3.278,5.909,5.909,0,0,1-.752,1.513,8.3,8.3,0,0,1-1.086,1.223,17.269,17.269,0,0,0-2.136,2.16,4.019,4.019,0,0,0-.621,1.238,3.265,3.265,0,0,0-.095,1.3,3.528,3.528,0,0,0,1.006,2.086,3.281,3.281,0,0,0,1.709.882,3.67,3.67,0,0,0,1.473-.02A4.271,4.271,0,0,0,319.566,215.5Z" transform="translate(-314.007 -189.947)" fill="#263238"/></g><g transform="translate(4.032 3.867)"><path d="M243.229,208.309a3.43,3.43,0,0,0,1.251-.621,5,5,0,0,0,1.657-3.344,19.151,19.151,0,0,0,.067-2.658,11.662,11.662,0,0,1,.239-3.07,5.677,5.677,0,0,1,.628-1.559,3.717,3.717,0,0,1,1.228-1.26c1.055-.646,2.348-.615,3.5-1.017a3.681,3.681,0,0,0,1.489-.974,9.072,9.072,0,0,0,1.054-1.422,7.952,7.952,0,0,1,2.168-2.619,3.7,3.7,0,0,1,1.506-.548,8.308,8.308,0,0,1,1.5-.066,15.367,15.367,0,0,0,2.655-.02,7.924,7.924,0,0,0,3.53-1.411,8.744,8.744,0,0,0,.812-.661l.2-.188a.339.339,0,0,1,.073-.06,5.565,5.565,0,0,1-1.036.972,7.806,7.806,0,0,1-3.557,1.489,15.124,15.124,0,0,1-2.679.047,4.941,4.941,0,0,0-2.9.6,7.849,7.849,0,0,0-2.1,2.568,9.19,9.19,0,0,1-1.075,1.455,3.882,3.882,0,0,1-1.568,1.026c-1.2.412-2.473.385-3.46,1a4.267,4.267,0,0,0-1.777,2.695,11.6,11.6,0,0,0-.252,3.023,18.784,18.784,0,0,1-.093,2.678,5.018,5.018,0,0,1-1.75,3.388,2.89,2.89,0,0,1-.939.486,2.053,2.053,0,0,1-.268.062A.327.327,0,0,1,243.229,208.309Z" transform="translate(-243.229 -186.812)" fill="#455a64"/></g><g transform="translate(7.93 2.961)"><path d="M253.248,190.771a4.685,4.685,0,0,0,.768.207,3.792,3.792,0,0,0,2.1-.346,8.794,8.794,0,0,0,2.514-1.979c.428-.435.873-.9,1.38-1.342a6.35,6.35,0,0,1,1.753-1.124,5.71,5.71,0,0,1,2.05-.377,17.223,17.223,0,0,1,1.925.107c.609.058,1.185.119,1.723.123a7.478,7.478,0,0,0,1.489-.121,4.124,4.124,0,0,0,1.954-.861,6.9,6.9,0,0,0,.55-.575.808.808,0,0,1-.105.181,1.356,1.356,0,0,1-.154.2,1.949,1.949,0,0,1-.239.252,4.05,4.05,0,0,1-1.979.942,7.4,7.4,0,0,1-1.518.149c-.55,0-1.131-.053-1.739-.105a17.694,17.694,0,0,0-1.9-.094,5.569,5.569,0,0,0-1.978.366,9.945,9.945,0,0,0-3.077,2.409,8.689,8.689,0,0,1-2.589,1.978,3.744,3.744,0,0,1-2.171.293,2.555,2.555,0,0,1-.573-.18A.82.82,0,0,1,253.248,190.771Z" transform="translate(-253.248 -184.483)" fill="#455a64"/></g><g transform="translate(28.753 3.805)"><path d="M314.1,203a3.173,3.173,0,0,0,.191-.74,3.217,3.217,0,0,0-.555-1.966,13.076,13.076,0,0,0-2.134-2.261,5.674,5.674,0,0,1-1.132-1.495,5.23,5.23,0,0,1-.482-1.956c-.09-1.381.146-2.673.116-3.843a4.625,4.625,0,0,0-.856-2.9,2.883,2.883,0,0,0-1.708-1.1,3.415,3.415,0,0,0-.764-.019.769.769,0,0,1,.2-.052,2,2,0,0,1,.581-.007,2.9,2.9,0,0,1,1.807,1.084,4.712,4.712,0,0,1,.932,2.988c.04,1.193-.189,2.487-.1,3.832a5.092,5.092,0,0,0,.459,1.883,5.559,5.559,0,0,0,1.086,1.45,12.532,12.532,0,0,1,2.124,2.318,3.2,3.2,0,0,1,.511,2.049,1.925,1.925,0,0,1-.165.557A.734.734,0,0,1,314.1,203Z" transform="translate(-306.774 -186.651)" fill="#455a64"/></g><g transform="translate(0 1.877)"><path d="M234.513,202.308a1.5,1.5,0,0,1-.249-.137,2.837,2.837,0,0,1-.606-.545,3.528,3.528,0,0,1-.747-2.839,3.385,3.385,0,0,1,.333-.951,3.687,3.687,0,0,1,.685-.849,8.7,8.7,0,0,1,2.024-1.246,7.947,7.947,0,0,0,2.162-1.377,5.1,5.1,0,0,0,1.223-2.422c.236-.922.4-1.854.7-2.718a11.761,11.761,0,0,1,1.129-2.369,12.275,12.275,0,0,1,2.959-3.286,11.337,11.337,0,0,1,2.573-1.51,7.276,7.276,0,0,1,.76-.284,1.49,1.49,0,0,1,.272-.078c.008.023-.365.139-1,.434a12.1,12.1,0,0,0-2.516,1.551,12.371,12.371,0,0,0-2.888,3.271,11.72,11.72,0,0,0-1.1,2.336c-.294.847-.452,1.769-.691,2.705a5.266,5.266,0,0,1-1.279,2.51,8.026,8.026,0,0,1-2.22,1.4,8.675,8.675,0,0,0-1.993,1.2,3.567,3.567,0,0,0-.662.8,3.286,3.286,0,0,0-.328.9,3.606,3.606,0,0,0,.092,1.648,3.306,3.306,0,0,0,.575,1.116A3.99,3.99,0,0,0,234.513,202.308Z" transform="translate(-232.864 -181.697)" fill="#263238"/></g><g transform="translate(32.864 4.586)"><path d="M321.65,204.593c-.017-.016.166-.186.414-.553a4.726,4.726,0,0,0,.69-1.724,6.506,6.506,0,0,0-.1-2.747,11.016,11.016,0,0,0-1.394-3.092c-.641-1.031-1.332-1.965-1.914-2.85a16.181,16.181,0,0,1-1.377-2.458,8.173,8.173,0,0,1-.562-1.816,4.908,4.908,0,0,1-.063-.513.593.593,0,0,1,0-.18c.019,0,.045.244.143.678a9.191,9.191,0,0,0,.615,1.773,17.319,17.319,0,0,0,1.4,2.413c.588.874,1.285,1.806,1.932,2.847a10.875,10.875,0,0,1,1.4,3.155,6.469,6.469,0,0,1,.054,2.82,4.514,4.514,0,0,1-.766,1.74,3.213,3.213,0,0,1-.342.389C321.7,204.558,321.655,204.6,321.65,204.593Z" transform="translate(-317.341 -188.66)" fill="#263238"/></g></g><g transform="translate(0 69.58)"><g transform="translate(0 4.921)"><path d="M172.646,368.629l-3.2,5.559s-15.877-5.809-25.172-4.117c-3.534.643-7.316,8.661-2.167,13.81,5.023,5.023,14.008,12.125,30.863,14.424.421.058,7.324,1.54,6.9,1.49s9.679,1.549,9.679,1.549l2.372-8.969,18.826,2.954c11.094-.758,16.524-12.621,9.843-16.44-6.233-3.563-17.952-3.848-17.952-3.848l-4.248-6.662Z" transform="translate(-139.594 -368.378)" fill="#263238"/></g><g transform="translate(15.619 10.378)"><path d="M214.457,410.239l.458-2.8c.15-.895.334-1.985.572-3.24.119-.627.253-1.3.412-2,.081-.352.167-.712.27-1.079.053-.183.107-.368.175-.554a1.669,1.669,0,0,1,.286-.554l.028.136c-4.008-1.422-9.016-3.3-14.356-5.553-3.283-1.4-6.38-2.807-9.105-4.275a29.552,29.552,0,0,1-3.734-2.316c-1.108-.818-2.095-1.635-3.019-2.347a16.347,16.347,0,0,0-4.736-2.776,7.393,7.393,0,0,0-.829-.245,4.846,4.846,0,0,0-.62-.134l-.384-.07a.067.067,0,1,1,0-.021l.389.051a4.373,4.373,0,0,1,.627.116,6.994,6.994,0,0,1,.84.229,11.229,11.229,0,0,1,2.179.969,22.907,22.907,0,0,1,2.619,1.767c.933.706,1.924,1.516,3.031,2.325a29.8,29.8,0,0,0,3.724,2.287c2.721,1.454,5.816,2.858,9.1,4.252,5.334,2.249,10.336,4.142,14.331,5.587l.112.04-.083.1a1.618,1.618,0,0,0-.247.489c-.066.179-.122.362-.175.542-.1.362-.193.72-.275,1.069-.163.7-.3,1.365-.427,1.991-.249,1.251-.446,2.338-.609,3.23s-.293,1.576-.383,2.062c-.047.236-.084.417-.114.538A1.364,1.364,0,0,1,214.457,410.239Z" transform="translate(-179.743 -382.406)" fill="#455a64"/></g><g transform="translate(39.145 15.966)"><path d="M278.42,397.317a.376.376,0,0,1-.1-.009l-.293-.047c-.258-.034-.632-.131-1.125-.178a21.811,21.811,0,0,0-4.176-.148,31.016,31.016,0,0,0-6.113,1.008c-1.129.3-2.3.658-3.505,1.074s-2.428.9-3.684,1.4a34.019,34.019,0,0,1-3.756,1.239c-1.232.34-2.436.606-3.587.829-2.3.449-4.4.725-6.157.94s-3.186.359-4.171.46l-1.136.111-.3.024a.375.375,0,0,1-.1,0,.37.37,0,0,1,.1-.022l.293-.044,1.131-.149,4.162-.524c1.755-.233,3.844-.524,6.138-.981,1.147-.227,2.346-.5,3.571-.837a34.477,34.477,0,0,0,3.733-1.236c1.255-.5,2.488-.98,3.695-1.4s2.388-.768,3.523-1.067a30.268,30.268,0,0,1,6.153-.971,20.489,20.489,0,0,1,4.194.213c.493.06.865.169,1.122.216l.289.067A.375.375,0,0,1,278.42,397.317Z" transform="translate(-240.218 -396.77)" fill="#455a64"/></g><g transform="translate(33.05 11.591)"><path d="M239.844,387.217c.012.133-.843.347-2.252.48a29.452,29.452,0,0,1-10.94-1.172c-1.35-.428-2.14-.818-2.1-.946.089-.284,3.424.6,7.623,1.04C236.37,387.081,239.818,386.921,239.844,387.217Z" transform="translate(-224.55 -385.524)" fill="#263238"/></g><g transform="translate(49.153 11.707)"><path d="M280.015,385.825a3.951,3.951,0,0,1-.621.165c-.2.042-.447.105-.727.189s-.6.167-.951.291a23.235,23.235,0,0,0-2.4.954c-.88.417-1.829.916-2.795,1.493a44.281,44.281,0,0,0-4.713,3.315c-.577.46-1.038.841-1.355,1.106a3.883,3.883,0,0,1-.507.4,3.921,3.921,0,0,1,.455-.455c.3-.284.749-.682,1.316-1.158a37.755,37.755,0,0,1,4.7-3.377,30.105,30.105,0,0,1,2.822-1.488,20.743,20.743,0,0,1,2.437-.921c.352-.117.679-.2.966-.264a7.03,7.03,0,0,1,.739-.157A3.873,3.873,0,0,1,280.015,385.825Z" transform="translate(-265.942 -385.822)" fill="#455a64"/></g><g transform="translate(38.428 16.304)"><path d="M245.522,400.953a4.549,4.549,0,0,1-1.115-.317,23.841,23.841,0,0,1-2.548-1.15l-2.47-1.294a8.41,8.41,0,0,1-1.016-.552,5.336,5.336,0,0,1,1.078.423c.652.3,1.531.746,2.5,1.242s1.853.922,2.509,1.2S245.531,400.923,245.522,400.953Z" transform="translate(-238.373 -397.638)" fill="#455a64"/></g><g transform="translate(46.918 5.831)"><path d="M260.573,370.717c.031,0-.023.584-.083,1.521s-.112,2.235-.085,3.667.131,2.727.227,3.661.172,1.512.141,1.517a1.621,1.621,0,0,1-.1-.4c-.053-.259-.116-.635-.182-1.1a31.453,31.453,0,0,1-.142-7.358c.048-.469.1-.848.14-1.108A1.615,1.615,0,0,1,260.573,370.717Z" transform="translate(-260.197 -370.717)" fill="#455a64"/></g><g transform="translate(48.483 6.238)"><path d="M264.8,371.935c.01.017-.067.062-.166.177a1.11,1.11,0,0,0-.248.573,1.07,1.07,0,0,0,.244.852,1,1,0,0,0,1.659-.615,1.07,1.07,0,0,0-.37-.8,1.11,1.11,0,0,0-.562-.273c-.15-.023-.238-.007-.241-.026s.081-.052.247-.053a1.083,1.083,0,0,1,.648.242,1.19,1.19,0,0,1,.465.92,1.173,1.173,0,0,1-1.984.735,1.19,1.19,0,0,1-.247-1,1.08,1.08,0,0,1,.334-.606C264.7,371.949,264.8,371.927,264.8,371.935Z" transform="translate(-264.22 -371.765)" fill="#455a64"/></g><g transform="translate(42.868)"><path d="M260.813,355.73a2.3,2.3,0,0,1-.3.4,11.264,11.264,0,0,1-.935.988,14.809,14.809,0,0,1-1.555,1.289,15.363,15.363,0,0,1-4.416,2.2,14.833,14.833,0,0,1-1.965.466,11.292,11.292,0,0,1-1.352.152,2.327,2.327,0,0,1-.5,0c0-.039.706-.077,1.825-.3a16.861,16.861,0,0,0,1.935-.5,16.5,16.5,0,0,0,4.364-2.176,16.706,16.706,0,0,0,1.566-1.242C260.326,356.247,260.785,355.7,260.813,355.73Z" transform="translate(-249.788 -355.729)" fill="#263238"/></g><g transform="translate(57.991 4.253)"><path d="M291.666,366.727c0,.061-.7.061-1.527.268s-1.447.524-1.477.471a4.05,4.05,0,0,1,3-.739Z" transform="translate(-288.661 -366.663)" fill="#263238"/></g><g transform="translate(44.078 0.281)" opacity="0.3"><path d="M253.487,361.461a14.887,14.887,0,0,0,8.671-5.009,3.521,3.521,0,0,1-.852,3.57,5.741,5.741,0,0,0,3.228.009c1.083-.149,2.405,0,2.923.96a113.979,113.979,0,0,1-14.56.416" transform="translate(-252.897 -356.452)"/></g></g><g transform="translate(24.156 65.613)"><path d="M212.54,347.167a5.131,5.131,0,0,0-3.805-1.447,5.832,5.832,0,0,0-2.543.681,11.055,11.055,0,0,0-3.469,3.345,10.666,10.666,0,0,0-.764,1.265,3.086,3.086,0,0,1-.269.476,2.621,2.621,0,0,1,.2-.51,8.5,8.5,0,0,1,.717-1.312c.358-.524.826-1.105,1.365-1.745a7.564,7.564,0,0,1,2.128-1.7,5.873,5.873,0,0,1,2.633-.689,5.337,5.337,0,0,1,2.185.413,4.248,4.248,0,0,1,1.263.807,2.544,2.544,0,0,1,.279.3C212.517,347.122,212.545,347.162,212.54,347.167Z" transform="translate(-201.688 -345.532)" fill="#263238"/></g><g transform="translate(22.793 29.933)"><g transform="translate(16.967)"><path d="M247.232,253.815,241.8,254.97l2.717,10.165,9.615,2.066,6.6-4.682.9-5.6-5.656-2.139Z" transform="translate(-241.799 -253.815)" fill="#ffbe9d"/></g><g transform="translate(2.915 0.736)"><path d="M221.339,255.707s3.675,10.675,10.468,9.689,6.226-7.905,6.226-7.905,7.09,2.161,9.281,4.461.907,7.3.907,7.3l-1.839,9.034-4,17.305s1.529,4.719-2.379,5.887l-1.235-1.937-23.446.663s-5.015,5.782-6.577,3.787a29.263,29.263,0,0,1-3.068-5.88l10.762-41.126Z" transform="translate(-205.679 -255.707)" fill="#455a64"/></g><g transform="translate(38.813 5.616)"><path d="M301.835,268.252c.19.11,16.647,12.073,16.647,12.073s-1.291,9.837,6.6,8.27c0,0-3.19,8.227-7.509,6.5-1.227-.491-16.4-10.09-16.4-10.09l-3.223-6.866Z" transform="translate(-297.955 -268.252)" fill="#455a64"/></g><g transform="translate(0 1.264)"><path d="M216.76,257.063s-.372.01-1,.07c-3.222.309-15.111,2.772-16.211,11.162-.576,4.389-.74,17.223-1.364,22.6,0,0,.995,7.479,1.364,8.865.657,2.465,12.584-1.481,12.584-1.481l.025-23.749,4.23-17.459" transform="translate(-198.185 -257.063)" fill="#455a64"/></g><g transform="translate(11.019 22.821)"><path d="M226.542,312.477a.712.712,0,0,1,.019.194,4.877,4.877,0,0,0,.038.549,7.943,7.943,0,0,0,.5,1.954c.3.8.766,1.713,1.231,2.755a12.572,12.572,0,0,1,.621,1.686,10.122,10.122,0,0,1,.322,1.905,22.979,22.979,0,0,1-.095,3.712c-.1,1.133-.193,2.157-.334,3.009a13.007,13.007,0,0,1-.47,1.989c-.077.229-.142.4-.194.521a.7.7,0,0,1-.086.175c-.016-.006.075-.257.2-.719a15.527,15.527,0,0,0,.4-1.988c.122-.848.2-1.868.289-3a24.2,24.2,0,0,0,.079-3.681,10.169,10.169,0,0,0-.312-1.868,12.747,12.747,0,0,0-.6-1.664c-.451-1.039-.9-1.964-1.194-2.78a7.309,7.309,0,0,1-.446-2,3.474,3.474,0,0,1,0-.557A.7.7,0,0,1,226.542,312.477Z" transform="translate(-226.509 -312.477)" fill="#263238"/></g><g transform="translate(11.57 19.828)"><path d="M227.943,304.784c.033,0,.062.6.2,1.568a20.714,20.714,0,0,0,.868,3.7c.121.351.242.692.374,1.017a1.479,1.479,0,0,0,.1.223l.139.215c.091.146.177.291.25.438a3.69,3.69,0,0,1,.438,1.683,2.965,2.965,0,0,1-.231,1.148,1.56,1.56,0,0,1-.214.372,4.014,4.014,0,0,0,.3-1.517,3.688,3.688,0,0,0-.461-1.6c-.073-.141-.158-.28-.247-.42l-.142-.214a1.573,1.573,0,0,1-.116-.254c-.135-.327-.259-.671-.381-1.026A17.512,17.512,0,0,1,228,306.37c-.053-.488-.067-.885-.074-1.159A1.754,1.754,0,0,1,227.943,304.784Z" transform="translate(-227.925 -304.784)" fill="#263238"/></g><g transform="translate(6.706 8.728)"><path d="M220.791,283.785c-.032.011-.208-.485-.56-1.253a17.259,17.259,0,0,0-3.805-5.342c-.611-.584-1.022-.912-1-.939a1.3,1.3,0,0,1,.313.2c.195.137.465.353.785.634a14.72,14.72,0,0,1,3.839,5.39,10.022,10.022,0,0,1,.343.95A1.3,1.3,0,0,1,220.791,283.785Z" transform="translate(-215.424 -276.25)" fill="#263238"/></g><g transform="translate(45.09 9.291)"><path d="M314.791,277.7a4.792,4.792,0,0,1-.081.943c-.07.578-.168,1.377-.261,2.26s-.161,1.685-.211,2.266a4.756,4.756,0,0,1-.116.939,4.106,4.106,0,0,1-.027-.947c.014-.584.061-1.391.153-2.279s.214-1.686.321-2.261A4.067,4.067,0,0,1,314.791,277.7Z" transform="translate(-314.09 -277.699)" fill="#263238"/></g><g transform="translate(43.027 19.272)"><path d="M314.934,303.363c.005.037-.513.086-1.31.314a6.185,6.185,0,0,0-2.741,1.608,7.463,7.463,0,0,0-1.046,1.423,10.633,10.633,0,0,0-.6,1.322l-.19.528-.123.406a1.3,1.3,0,0,1-.13.342,1.258,1.258,0,0,1,.053-.361l.091-.418.163-.543a9.169,9.169,0,0,1,.573-1.364,7.115,7.115,0,0,1,1.065-1.474,5.9,5.9,0,0,1,2.849-1.6,4.959,4.959,0,0,1,.557-.113,4,4,0,0,1,.425-.054A1.254,1.254,0,0,1,314.934,303.363Z" transform="translate(-308.788 -303.354)" fill="#263238"/></g><g transform="translate(58.184 17.601)"><path d="M349.637,311.567a2.471,2.471,0,0,1-.264-.436c-.081-.143-.175-.32-.27-.533s-.216-.45-.316-.726a14.319,14.319,0,0,1-.627-1.965,14.9,14.9,0,0,1-.338-5.025,14.365,14.365,0,0,1,.358-2.031c.063-.287.149-.539.216-.762a5.951,5.951,0,0,1,.2-.564,2.467,2.467,0,0,1,.2-.467c.037.013-.223.69-.476,1.826a16.157,16.157,0,0,0-.312,2.016,15.906,15.906,0,0,0,.334,4.964,16.168,16.168,0,0,0,.579,1.956C349.324,310.913,349.672,311.549,349.637,311.567Z" transform="translate(-347.749 -299.058)" fill="#263238"/></g><g transform="translate(55.325 17.621)"><path d="M340.869,308.675a1.814,1.814,0,0,1-.152-.416,7.664,7.664,0,0,1-.245-1.183,9.275,9.275,0,0,1,.367-3.953,8.932,8.932,0,0,1,1.989-3.437,1.713,1.713,0,0,1,1.069-.575.747.747,0,0,1,.331.064c.067.038.1.061.1.067a1.19,1.19,0,0,0-.421-.053,1.716,1.716,0,0,0-.972.6,9.479,9.479,0,0,0-1.9,3.4,9.868,9.868,0,0,0-.418,3.876C340.714,308.063,340.908,308.665,340.869,308.675Z" transform="translate(-340.4 -299.111)" fill="#263238"/></g><g transform="translate(21.052 25.25)"><path d="M260.292,318.72a2.1,2.1,0,0,1-.1.461,4.46,4.46,0,0,1-.159.529c-.073.2-.144.439-.259.686a10.984,10.984,0,0,1-.889,1.69,11.552,11.552,0,0,1-3.254,3.33,11,11,0,0,1-1.669.928c-.244.12-.479.2-.68.274a4.474,4.474,0,0,1-.526.171,2.077,2.077,0,0,1-.459.107c-.012-.039.636-.215,1.6-.682a12.225,12.225,0,0,0,1.624-.952,12.208,12.208,0,0,0,3.2-3.278,12.226,12.226,0,0,0,.914-1.646C260.091,319.361,260.252,318.708,260.292,318.72Z" transform="translate(-252.301 -318.72)" fill="#263238"/></g><g transform="translate(11.783 19.966)" opacity="0.3"><path d="M232.26,314.275l-2.242-8.187c-.109-.4-.291-.868-.7-.941a.767.767,0,0,0-.8.668,4.418,4.418,0,0,0-.02,1.2,9.385,9.385,0,0,0,1.144,4.362c1.613,2.684.55,3.986.55,3.986a36.857,36.857,0,0,1-1.163,11.083l.959,4.05c.912-3.01,2.992-5.521,3.343-8.647A20.389,20.389,0,0,0,232.26,314.275Z" transform="translate(-228.472 -305.138)"/></g><g transform="translate(43.616 22.312)" opacity="0.3"><path d="M310.3,312.224c2.664,1.386,5.033,3.3,7.631,4.78a12.137,12.137,0,0,0-4.781-5.341,3,3,0,0,0-1.805-.477c-.627.089-1.08.443-.984,1.069" transform="translate(-310.3 -311.169)"/></g><g transform="translate(55.287 17.34)" opacity="0.3"><path d="M343.9,298.552c-.91-.022-1.6.8-2.043,1.6a12.289,12.289,0,0,0-1.471,7.423c.056.459.225,1.013.68,1.1a.792.792,0,0,0,.8-.478,2.225,2.225,0,0,0,.152-.987,32.108,32.108,0,0,1,.116-4.673,6.889,6.889,0,0,1,1.955-4.15" transform="translate(-340.301 -298.388)"/></g><g transform="translate(17.738 19.552)"><path d="M243.782,304.947a.411.411,0,0,1,.091-.011l.27-.018,1.053-.056,3.985-.184,14.11-.6.092,0,0,.092c.116,4.746.249,10.205.391,15.988,0,.194.009.389.014.579l0,.1h-.1a138.616,138.616,0,0,0-17.371,1.3l-.076.01-.02-.074a62.137,62.137,0,0,1-2.072-12.515c-.092-1.53-.109-2.734-.109-3.554,0-.41.009-.724.013-.936l.007-.24a.361.361,0,0,1,.007-.081.35.35,0,0,1,.007.081l.006.24q0,.331.013.936c.017.819.05,2.021.157,3.547a63.826,63.826,0,0,0,2.138,12.475l-.1-.063a135.291,135.291,0,0,1,17.393-1.327l-.1.1c0-.19-.009-.384-.014-.579-.133-5.782-.259-11.242-.369-15.988l.094.088-14.113.526-3.987.133-1.055.028-.271,0A.462.462,0,0,1,243.782,304.947Z" transform="translate(-243.782 -304.075)" fill="#fff"/></g><g transform="translate(20.887 20.442)"><path d="M253.853,318.138c-.055.009-.542-2.62-1.086-5.871s-.942-5.9-.887-5.905.542,2.619,1.087,5.872S253.908,318.129,253.853,318.138Z" transform="translate(-251.875 -306.362)" fill="#fff"/></g><g transform="translate(22.768 32.962)"><path d="M257.393,342.817a23.144,23.144,0,0,1-.668-4.272,23.15,23.15,0,0,1,.668,4.272Z" transform="translate(-256.711 -338.545)" fill="#fff"/></g><g transform="translate(25.806 20.12)"><path d="M265.514,315.028a1.373,1.373,0,0,1-.109-.361c-.058-.235-.131-.578-.212-1-.163-.851-.348-2.034-.48-3.35s-.183-2.513-.191-3.379c0-.433,0-.783.01-1.025a1.355,1.355,0,0,1,.036-.376,11.444,11.444,0,0,1,.1,1.4c.045.862.12,2.052.25,3.363s.293,2.492.419,3.346A11.5,11.5,0,0,1,265.514,315.028Z" transform="translate(-264.52 -305.533)" fill="#fff"/></g><g transform="translate(25.661 31.191)"><path d="M264.846,339.516a38.322,38.322,0,0,1-.684-5.523,38.322,38.322,0,0,1,.684,5.523Z" transform="translate(-264.148 -333.993)" fill="#fff"/></g><g transform="translate(28.88 20.119)"><path d="M274.3,321.811a3.955,3.955,0,0,1-.079-.641l-.152-1.75c-.128-1.478-.317-3.517-.575-5.764s-.537-4.277-.749-5.745c-.1-.708-.185-1.294-.249-1.739a3.9,3.9,0,0,1-.068-.642,3.972,3.972,0,0,1,.146.629c.082.407.189,1,.313,1.73.248,1.464.549,3.493.808,5.744s.426,4.3.517,5.777c.046.741.076,1.341.088,1.756A3.91,3.91,0,0,1,274.3,321.811Z" transform="translate(-272.421 -305.531)" fill="#fff"/></g><g transform="translate(33.702 20.024)"><path d="M285.61,321.871a4.06,4.06,0,0,1-.028-.654c0-.455-.009-1.055-.016-1.78-.014-1.5-.055-3.577-.163-5.867s-.266-4.36-.394-5.857c-.062-.722-.114-1.32-.153-1.773a4.049,4.049,0,0,1-.034-.653,4.007,4.007,0,0,1,.113.644c.06.416.135,1.02.217,1.768.165,1.5.345,3.567.454,5.861s.126,4.373.1,5.877c-.011.752-.028,1.361-.049,1.781A4.033,4.033,0,0,1,285.61,321.871Z" transform="translate(-284.817 -305.288)" fill="#fff"/></g><g transform="translate(21.247 25.893)" opacity="0.3"><path d="M252.915,327.935a3.275,3.275,0,0,0,2.049.5,6.534,6.534,0,0,0,2.068-.543,6.238,6.238,0,0,0,2.354-1.55,5.452,5.452,0,0,0,1.188-2.757,16.247,16.247,0,0,0,.1-3.036.226.226,0,0,0-.029-.127.156.156,0,0,0-.22-.005.464.464,0,0,0-.118.214,11.277,11.277,0,0,1-7.506,7.094" transform="translate(-252.8 -320.372)"/></g></g><g transform="translate(25.077 65.853)"><path d="M220.722,376.268l-2.378-4.459L213,346.791s-4.918-2.822-8.942,3.366c-.162.249,5.538,18.166,7.129,23.151l.223,4.767s-.282,5.644,0,6.138a2.261,2.261,0,0,0,.988.776,1.367,1.367,0,0,0,1.411,1.552s.141,1.552,1.341,1.341a2.294,2.294,0,0,0,1.623-.988s0,1.975,1.059,1.764,1.231-1.059,1.427-1.341a21.675,21.675,0,0,0,.418-3.175l-.019-4.78,2.756,2.232c.8.4,1.961.888,2.624.3Z" transform="translate(-204.055 -346.149)" fill="#ffbe9d"/><g transform="translate(15.523 32.978)"><path d="M244.037,430.919a8.654,8.654,0,0,1,.156,2.575c-.032.663-.061,1.264-.088,1.817a3.155,3.155,0,0,1-.069.753,11.691,11.691,0,0,1-.046-2.577C244.06,432.07,243.984,430.926,244.037,430.919Z" transform="translate(-243.958 -430.919)" fill="#eb996e"/></g><g transform="translate(12.493 36.307)"><path d="M236.244,439.476a27.685,27.685,0,0,1,.064,4.729,27.685,27.685,0,0,1-.064-4.729Z" transform="translate(-236.17 -439.476)" fill="#eb996e"/></g><g transform="translate(9.696 37.174)"><path d="M229.306,441.706a6.443,6.443,0,0,1-.314,3.271,15.005,15.005,0,0,1,.167-1.635A14.792,14.792,0,0,1,229.306,441.706Z" transform="translate(-228.978 -441.706)" fill="#eb996e"/></g><g transform="translate(8.134 36.624)"><path d="M225.214,440.291a5.69,5.69,0,0,1-.211,2.127,5.691,5.691,0,0,1,.211-2.127Z" transform="translate(-224.963 -440.291)" fill="#eb996e"/></g></g></g><g transform="translate(75.199 72.277)"><g transform="translate(0.085 0.079)"><path d="M184.643,139.443l-3.579-6.308a16.9,16.9,0,1,0-4.049,4.5l-.005.008Z" transform="translate(-149.816 -107.425)" fill="#fff"/></g><path d="M184.509,139.319l-7.645-1.749a.05.05,0,0,1-.028-.08l.005-.007.071.07a17.274,17.274,0,0,1-3.471,2.092,16.927,16.927,0,0,1-4.628,1.321,15.181,15.181,0,0,1-2.672.135c-.459-.026-.927-.037-1.4-.077l-1.426-.216a17.026,17.026,0,0,1-10.546-6.771,16.825,16.825,0,0,1-2.852-6.52,17.2,17.2,0,0,1,.2-7.507,16.648,16.648,0,0,1,3.617-6.941l.689-.758c.226-.255.5-.465.742-.7s.489-.472.765-.668l.81-.605a7.152,7.152,0,0,1,.838-.555l.856-.52.9-.435a7.9,7.9,0,0,1,.9-.4,17.222,17.222,0,0,1,7.565-1.163,16.653,16.653,0,0,1,6.944,2.052,17.127,17.127,0,0,1,8.011,9.858,18.249,18.249,0,0,1,.734,5.489,16.793,16.793,0,0,1-.826,4.739,17.1,17.1,0,0,1-1.693,3.632v-.049l3.537,6.332-3.622-6.284a.05.05,0,0,1,0-.05,17.121,17.121,0,0,0,1.662-3.618,16.737,16.737,0,0,0,.8-4.706,18.156,18.156,0,0,0-.745-5.439,16.978,16.978,0,0,0-7.949-9.741,16.484,16.484,0,0,0-6.868-2.02,17.043,17.043,0,0,0-7.476,1.154,7.781,7.781,0,0,0-.894.4l-.886.43-.846.514a6.95,6.95,0,0,0-.828.548l-.8.6c-.273.193-.5.441-.755.659s-.51.439-.734.691l-.681.749a16.461,16.461,0,0,0-3.576,6.857,17.023,17.023,0,0,0-.2,7.42,16.659,16.659,0,0,0,2.812,6.449,16.882,16.882,0,0,0,10.425,6.722l1.412.217c.468.04.931.053,1.387.08a15.059,15.059,0,0,0,2.65-.125,16.844,16.844,0,0,0,4.6-1.292,17.289,17.289,0,0,0,3.459-2.06.051.051,0,0,1,.071.009.051.051,0,0,1,0,.062l-.005.007-.029-.08Z" transform="translate(-149.597 -107.222)" fill="#263238"/></g><g transform="translate(83.924 83.527)"><g transform="translate(0.121 2.247)"><path d="M175.492,142.156a2.444,2.444,0,0,0-.84-.216,2.521,2.521,0,0,0-2.318.857c1.827,1.059,4.312,2.463,6.089,3.477l2.244-1.283C179.053,144.1,177.022,142.978,175.492,142.156Z" transform="translate(-172.335 -141.913)" fill="#2ec5b6"/><g opacity="0.3"><path d="M175.492,142.156a2.444,2.444,0,0,0-.84-.216,2.521,2.521,0,0,0-2.318.857c1.827,1.059,4.312,2.463,6.089,3.477l2.244-1.283C179.053,144.1,177.022,142.978,175.492,142.156Z" transform="translate(-172.335 -141.913)"/></g></g><g transform="translate(0 0)"><path d="M182.176,145.11c-.058-.047-.069-.06-.082-.068-.559-.323-1.151-.939-1.717-.928-.216,0-.448.19-1,.5-.928.523-2.486,1.436-3.418,1.951a3.492,3.492,0,0,1-2.673.483,3.823,3.823,0,0,1-1.256-.759l10.149-5.884c-.053-.151-.106-.3-.156-.442a2.9,2.9,0,1,1,2.428,1.961,1.341,1.341,0,0,0-.676.137c-.386.184-.748.422-1.208.689.781.351,1.312.909,2.223.824a2.74,2.74,0,0,1,2.762,2.013,2.9,2.9,0,1,1-5.53-.066C182.064,145.39,182.119,145.258,182.176,145.11Zm2.592-4.674a1.387,1.387,0,0,0,1.4-1.416,1.41,1.41,0,0,0-1.393-1.387,1.431,1.431,0,0,0-1.414,1.425A1.416,1.416,0,0,0,184.768,140.435Zm-.016,7.423a1.412,1.412,0,0,0,1.419-1.361,1.385,1.385,0,0,0-1.376-1.443,1.416,1.416,0,0,0-1.43,1.352A1.435,1.435,0,0,0,184.752,147.858Z" transform="translate(-172.025 -136.138)" fill="#2ec5b6"/></g><g transform="translate(7.544 5.809)"><path d="M192.841,151.819c-.035.011-.021-.264-.3-.469a.6.6,0,0,0-.55-.065.571.571,0,0,0,0,1.067.6.6,0,0,0,.55-.065c.284-.2.269-.48.3-.469.012,0,.031.06.018.171a.66.66,0,0,1-.235.412.728.728,0,0,1-.7.126.75.75,0,0,1,0-1.418.728.728,0,0,1,.7.126.66.66,0,0,1,.235.412C192.872,151.759,192.852,151.819,192.841,151.819Z" transform="translate(-191.416 -151.07)" fill="#263238"/></g><g transform="translate(6.006 6.065)"><path d="M192.907,151.729a1.418,1.418,0,0,1-.206.138l-.577.349-1.919,1.127-1.931,1.106-.589.327a1.443,1.443,0,0,1-.222.11,1.5,1.5,0,0,1,.207-.138l.577-.35,1.919-1.127,1.93-1.106.59-.327A1.507,1.507,0,0,1,192.907,151.729Z" transform="translate(-187.463 -151.729)" fill="#263238"/></g><g transform="translate(0 4.51)"><path d="M181.787,147.731a.638.638,0,0,1-.095.065l-.279.174-1.034.626c-.874.526-2.084,1.25-3.439,2.016l-3.468,1.969-1.055.589-.289.156a.611.611,0,0,1-.1.05.6.6,0,0,1,.1-.064l.282-.17,1.043-.611,3.455-1.989c1.355-.766,2.57-1.481,3.451-2l1.047-.6.287-.161A.632.632,0,0,1,181.787,147.731Z" transform="translate(-172.025 -147.73)" fill="#263238"/></g></g><g transform="translate(155.866 109.22)"><path d="M359.041,202.184l.738,1.35,1.35.738-1.35.738-.738,1.35-.738-1.35-1.35-.738,1.35-.738Z" transform="translate(-356.953 -202.184)" fill="#f7c90b"/></g><g transform="translate(162.887 90.224)"><path d="M375,153.862l.768-.051.619-.457.051.768.457.619-.768.051-.619.457-.051-.768Z" transform="translate(-375 -153.355)" fill="#f7c90b"/></g><g transform="translate(287.321 151.612)"><path d="M694.861,311.66l.768-.051.619-.457.051.768.457.619-.768.051-.619.457-.051-.768Z" transform="translate(-694.861 -311.153)" fill="#f7c90b"/></g><g transform="translate(199.67 113.205)"><path d="M469.551,212.933l.768-.051.619-.457.051.768.457.619-.768.051-.619.457-.051-.768Z" transform="translate(-469.551 -212.426)" fill="#f7c90b"/></g><g transform="translate(204.344 80.333)"><path d="M481.566,128.437l.768-.051.619-.457.051.768.457.619-.768.051-.619.457-.051-.768Z" transform="translate(-481.566 -127.929)" fill="#2ec5b6"/></g><g transform="translate(180.789 99.373)"><path d="M421.019,178.74l1.167-.672.62-1.2.672,1.167,1.2.62-1.167.672-.62,1.2-.672-1.167Z" transform="translate(-421.019 -176.872)" fill="#f7c90b"/></g><g transform="translate(278.842 165.704)"><path d="M673.066,349.246l1.167-.672.62-1.2.672,1.167,1.2.62-1.167.672-.62,1.2-.672-1.167Z" transform="translate(-673.066 -347.378)" fill="#f7c90b"/></g><g transform="translate(272.982 144.366)"><path d="M658,294.4l1.167-.672.62-1.2.672,1.167,1.2.62-1.167.672-.62,1.2-.672-1.167Z" transform="translate(-658.003 -292.528)" fill="#f7c90b"/></g></g></svg>