<svg xmlns="http://www.w3.org/2000/svg" width="17.415" height="13.637" viewBox="0 0 17.415 13.637"><defs><style>.a{fill:#b3b3b3;}</style></defs><path class="a" d="M20.549,63.206H19.176a.464.464,0,0,0-.466.466v1.252h-.1V62.588a1.091,1.091,0,0,0-1.087-1.1H14.491V60.7h1.252a.464.464,0,0,0,.466-.466V58.866a.464.464,0,0,0-.466-.466H10.934a.464.464,0,0,0-.466.466v1.373a.464.464,0,0,0,.466.466h1.252v.787h-1.6a1.075,1.075,0,0,0-.773.328L9.8,61.84,8.319,63.551H7.5A1.2,1.2,0,0,0,6.35,64.7v.907H5.9V64.016a.464.464,0,0,0-.466-.466H4.066a.464.464,0,0,0-.466.466v5.5a.464.464,0,0,0,.466.466H5.439a.464.464,0,0,0,.466-.466V67.918h.442v.907A1.2,1.2,0,0,0,7.5,69.978h.818L9.8,71.692l.021.021a1.084,1.084,0,0,0,.769.324H15a1.092,1.092,0,0,0,.773-.324l2.522-2.57a1.1,1.1,0,0,0,.317-.773v-.452h.1v1.252a.464.464,0,0,0,.466.466h1.373a.464.464,0,0,0,.466-.466v-5.5A.468.468,0,0,0,20.549,63.206Zm-7.9-3.433H11.4v-.442h3.874v.442H14.022a.464.464,0,0,0-.466.466v1.252h-.442V60.239A.461.461,0,0,0,12.653,59.773Zm-7.214,7.21a.464.464,0,0,0-.466.466v1.594H4.531V64.482h.442v1.594a.464.464,0,0,0,.466.466h.907v.442ZM20.084,68.7h-.442V67.449a.464.464,0,0,0-.466-.466H18.145a.464.464,0,0,0-.466.466v.918a.172.172,0,0,1-.048.121l-2.522,2.57A.138.138,0,0,1,15,71.1H10.586a.15.15,0,0,1-.1-.038l-1.6-1.859a.465.465,0,0,0-.352-.162H7.5a.28.28,0,0,1-.221-.221V64.7a.289.289,0,0,1,.221-.221H8.53a.46.46,0,0,0,.352-.162l1.6-1.859a.15.15,0,0,1,.1-.038h6.938a.161.161,0,0,1,.155.166v2.8a.464.464,0,0,0,.466.466h1.032a.464.464,0,0,0,.466-.466V64.137h.442Zm-7.09-5.03L11.276,67.1h1.718L11.966,70.2l2.746-3.778H12.994l1.718-2.746Z" transform="translate(-3.6 -58.4)"/></svg>