<?xml version="1.0" encoding="utf-8"?>
<!-- Generator: Adobe Illustrator 25.2.0, SVG Export Plug-In . SVG Version: 6.00 Build 0)  -->
<svg version="1.1" id="Layer_1" xmlns="http://www.w3.org/2000/svg" xmlns:xlink="http://www.w3.org/1999/xlink" x="0px" y="0px"
	 viewBox="0 0 140 140" style="enable-background:new 0 0 140 140;" xml:space="preserve">
<style type="text/css">
	.st0{opacity:0.2;fill:#F7C90B;enable-background:new    ;}
	.st1{opacity:0.5;fill:#F7C90B;enable-background:new    ;}
	.st2{fill:#F7C90B;}
	.st3{fill:#FFFFFF;}
</style>
<g id="Group_2144" transform="translate(-118.5 -240.5)">
	<circle id="Oval_Copy_2" class="st0" cx="188.5" cy="310.5" r="70"/>
	<circle id="Oval_Copy" class="st1" cx="188.5" cy="310.5" r="60"/>
	<circle id="Oval" class="st2" cx="188.5" cy="310.5" r="50"/>
</g>
<path class="st3" d="M71.7,59.4v14.4c0,0.9-0.8,1.7-1.7,1.7H70c-0.9,0-1.7-0.8-1.7-1.7V59.4c0-0.9,0.8-1.7,1.7-1.7H70
	C71,57.7,71.7,58.5,71.7,59.4z M70,78.8c-1,0-1.7,0.8-1.7,1.7c0,1,0.8,1.7,1.7,1.7s1.7-0.8,1.7-1.7C71.7,79.6,71,78.8,70,78.8z"/>
</svg>
