<?xml version="1.0" encoding="utf-8"?>
<!-- Generator: Adobe Illustrator 25.2.0, SVG Export Plug-In . SVG Version: 6.00 Build 0)  -->
<svg version="1.1" id="facebook" xmlns="http://www.w3.org/2000/svg" xmlns:xlink="http://www.w3.org/1999/xlink" x="0px" y="0px"
	 viewBox="0 0 40 40" style="enable-background:new 0 0 40 40;" xml:space="preserve">
<style type="text/css">
	.st0{fill:none;stroke:#1778F2;stroke-width:2;}
	.st1{fill:#1778F2;}
</style>
<g id="bg">
	<path class="st0" d="M20,1L20,1c10.5,0,19,8.5,19,19l0,0c0,10.5-8.5,19-19,19l0,0C9.5,39,1,30.5,1,20l0,0C1,9.5,9.5,1,20,1z"/>
</g>
<path id="Path" class="st1" d="M23.1,18.2H21v-1.2c0-0.6,0-1,0.9-1H23v-1.9c-0.5-0.1-1.1-0.1-1.6-0.1c-1.4-0.1-2.6,0.9-2.7,2.4
	c0,0.1,0,0.3,0,0.4v1.3h-1.8v2.3h1.8v5.3H21v-5.3h1.8L23.1,18.2z"/>
</svg>
