<svg xmlns="http://www.w3.org/2000/svg" width="198.776" height="131.898" viewBox="0 0 198.776 131.898"><g transform="translate(-150.546 -24.731)"><rect width="27.844" height="0.654" transform="translate(281.803 76.156)" fill="#0f0f38"/><path d="M0,0H8.2a0,0,0,0,1,0,0V4.583A1.023,1.023,0,0,1,7.179,5.606H1.023A1.023,1.023,0,0,1,0,4.583V0A0,0,0,0,1,0,0Z" transform="translate(273.601 75.959)" fill="#f7941e"/><path d="M0,0H8.2a0,0,0,0,1,0,0V4.583A1.023,1.023,0,0,1,7.179,5.606H1.023A1.023,1.023,0,0,1,0,4.583V0A0,0,0,0,1,0,0Z" transform="translate(309.41 75.959)" fill="#f7941e"/><rect width="27.844" height="0.654" transform="translate(187.248 76.156)" fill="#0f0f38"/><rect width="20.129" height="106.743" transform="translate(285.542 41.51)" fill="#a7a9ac"/><g transform="translate(297.804 97.045)"><path d="M282.59,82.38v40.789H259.43V82.38a5.251,5.251,0,0,1,5.25-5.25h12.662a5.246,5.246,0,0,1,5.248,5.25Z" transform="translate(-256.42 -77.13)" fill="#2a2a91"/><path d="M282.59,80.235v13.5H259.43v-13.5a3.106,3.106,0,0,1,2.989-3.1l.116,0h16.95c.069,0,.137,0,.2.008A3.1,3.1,0,0,1,282.59,80.235Z" transform="translate(-256.42 -77.13)" fill="#f15a29"/><path d="M.978,0H28.2a.978.978,0,0,1,.978.978v5.3a0,0,0,0,1,0,0H0a0,0,0,0,1,0,0V.978A.978.978,0,0,1,.978,0Z" transform="translate(0 44.927)" fill="#262262"/><rect width="17.271" height="5.146" transform="translate(5.999 3.709)" fill="#231f20"/><path d="M265.578,79.818l11.776,5.146V79.818Z" transform="translate(-254.084 -76.108)" fill="#414042"/><path d="M264.6,79.818l9.159,5.146h-2.355l-7.851-5.146Z" transform="translate(-254.853 -76.108)" fill="#414042"/><path d="M277.011,80.233v41.822h-2.9V77.136A3.1,3.1,0,0,1,277.011,80.233Z" transform="translate(-250.841 -77.128)" fill="#d1d3d4" style="mix-blend-mode:multiply;isolation:isolate"/><path d="M262.419,77.132v44.924H259.43V80.234A3.106,3.106,0,0,1,262.419,77.132Z" transform="translate(-256.42 -77.129)" fill="#d1d3d4" style="mix-blend-mode:multiply;isolation:isolate"/><rect width="2.617" height="9.485" transform="translate(7.372 18.407)" fill="#262262"/><rect width="0.916" height="4.743" transform="translate(8.223 18.407)" fill="#e6e7e8"/><rect width="1.875" height="4.274" transform="translate(7.743 22.725)" fill="#e6e7e8"/><rect width="1.589" height="1.589" transform="translate(7.536 10.524)" fill="#2a2a91"/><rect width="1.589" height="1.589" transform="translate(10.652 10.524)" fill="#2a2a91"/><rect width="1.589" height="1.589" transform="translate(13.769 10.524)" fill="#2a2a91"/><rect width="1.589" height="1.589" transform="translate(16.885 10.524)" fill="#2a2a91"/><rect width="1.589" height="1.589" transform="translate(20.001 10.524)" fill="#2a2a91"/><rect width="14.055" height="1.963" transform="translate(7.536 12.977)" fill="#d1d3d4" style="mix-blend-mode:multiply;isolation:isolate"/><path d="M261.891,112.756a4.2,4.2,0,0,1-4.2-4.2V86.151a2.4,2.4,0,0,1,2.4-2.4v.654a1.746,1.746,0,0,0-1.743,1.744v22.407a3.543,3.543,0,1,0,7.087,0v-6.945h.654v6.945A4.2,4.2,0,0,1,261.891,112.756Z" transform="translate(-257.081 -74.613)" fill="#0f0f38"/><path d="M274.779,92.874v1.1h-7.6v-1.1Zm.464-.462h-8.527v2.029h8.527V92.412Z" transform="translate(-253.652 -71.322)" fill="#0f0f38"/><rect width="8.526" height="2.029" transform="translate(13.064 18.407)" fill="#d1d3d4" style="mix-blend-mode:multiply;isolation:isolate"/></g><g transform="translate(264.127 97.045)"><path d="M258.187,82.38v40.789h-23.16V82.38a5.251,5.251,0,0,1,5.25-5.25h12.662a5.246,5.246,0,0,1,5.248,5.25Z" transform="translate(-232.018 -77.13)" fill="#2a2a91"/><path d="M258.187,80.235v13.5h-23.16v-13.5a3.106,3.106,0,0,1,2.989-3.1l.116,0h16.951q.1,0,.2.008A3.1,3.1,0,0,1,258.187,80.235Z" transform="translate(-232.018 -77.13)" fill="#f15a29"/><path d="M.978,0H28.2a.978.978,0,0,1,.978.978v5.3a0,0,0,0,1,0,0H0a0,0,0,0,1,0,0V.978A.978.978,0,0,1,.978,0Z" transform="translate(0 44.927)" fill="#262262"/><rect width="17.271" height="5.146" transform="translate(5.998 3.709)" fill="#231f20"/><path d="M241.175,79.818l11.776,5.146V79.818Z" transform="translate(-229.681 -76.108)" fill="#414042"/><path d="M240.2,79.818l9.159,5.146H247l-7.851-5.146Z" transform="translate(-230.45 -76.108)" fill="#414042"/><path d="M252.608,80.233v41.822h-2.9V77.136A3.1,3.1,0,0,1,252.608,80.233Z" transform="translate(-226.438 -77.128)" fill="#d1d3d4" style="mix-blend-mode:multiply;isolation:isolate"/><path d="M238.016,77.132v44.924h-2.989V80.234A3.106,3.106,0,0,1,238.016,77.132Z" transform="translate(-232.018 -77.129)" fill="#d1d3d4" style="mix-blend-mode:multiply;isolation:isolate"/><rect width="2.617" height="9.485" transform="translate(7.372 18.407)" fill="#262262"/><rect width="0.916" height="4.743" transform="translate(8.223 18.407)" fill="#e6e7e8"/><rect width="1.875" height="4.274" transform="translate(7.743 22.725)" fill="#e6e7e8"/><rect width="1.589" height="1.589" transform="translate(7.536 10.524)" fill="#2a2a91"/><rect width="1.589" height="1.589" transform="translate(10.652 10.524)" fill="#2a2a91"/><rect width="1.589" height="1.589" transform="translate(13.769 10.524)" fill="#2a2a91"/><rect width="1.589" height="1.589" transform="translate(16.885 10.524)" fill="#2a2a91"/><rect width="1.589" height="1.589" transform="translate(20.001 10.524)" fill="#2a2a91"/><rect width="14.055" height="1.963" transform="translate(7.536 12.977)" fill="#d1d3d4" style="mix-blend-mode:multiply;isolation:isolate"/><path d="M237.488,112.756a4.2,4.2,0,0,1-4.2-4.2V86.151a2.4,2.4,0,0,1,2.4-2.4v.654a1.746,1.746,0,0,0-1.743,1.744v22.407a3.543,3.543,0,1,0,7.087,0v-6.945h.656v6.945A4.2,4.2,0,0,1,237.488,112.756Z" transform="translate(-232.678 -74.613)" fill="#0f0f38"/><path d="M250.377,92.874v1.1h-7.6v-1.1Zm.462-.462h-8.527v2.029h8.527V92.412Z" transform="translate(-229.249 -71.322)" fill="#0f0f38"/><rect width="8.526" height="2.029" transform="translate(13.064 18.407)" fill="#d1d3d4" style="mix-blend-mode:multiply;isolation:isolate"/></g><rect width="20.005" height="4.848" transform="translate(285.542 47.67)" fill="#939598"/><rect width="20.129" height="106.743" transform="translate(191.337 41.51)" fill="#a7a9ac"/><rect width="18.885" height="164.877" rx="5.139" transform="translate(331.919 28.785) rotate(90)" fill="#d1d3d4"/><rect width="161.213" height="15.222" rx="3.812" transform="translate(168.874 30.616)" fill="#e6e7e8"/><circle cx="13.033" cy="13.033" r="13.033" transform="translate(154.01 24.731)" fill="#f7941e"/><path d="M163.663,28.975s-10.555,14.4-.218,14.4S163.663,28.975,163.663,28.975Z" transform="translate(3.178 1.613)" fill="#2a2a91"/><path d="M164.805,38a.385.385,0,0,1-.378-.315,18.1,18.1,0,0,0-1.775-5.349.384.384,0,0,1,.662-.389,18.4,18.4,0,0,1,1.869,5.6.384.384,0,0,1-.309.447A.3.3,0,0,1,164.805,38Z" transform="translate(4.581 2.671)" fill="#fff"/><g transform="translate(199.742 34.386)"><path d="M186.815,37.908V33.132l-.606-.124v-.722h2.839a4.511,4.511,0,0,1,1.555.215,1.462,1.462,0,0,1,.8.631,2.164,2.164,0,0,1,.233,1.068,2.222,2.222,0,0,1-.656,1.72,2.776,2.776,0,0,1-1.949.607h-.293a1.486,1.486,0,0,1-.192-.008v1.39l1.105.1v.633h-3.46v-.633Zm2.832-2.385a2.562,2.562,0,0,0,.236-1.281q0-1.356-.919-1.355a1.864,1.864,0,0,0-.226.01,1.012,1.012,0,0,0-.124.023q-.046.012-.07.017V35.86a1.643,1.643,0,0,0,.439.044A.742.742,0,0,0,189.647,35.524Z" transform="translate(-186.193 -31.515)" fill="#262262"/><path d="M190.663,34.538a1.921,1.921,0,0,1,.828-.816,2.752,2.752,0,0,1,1.274-.279,2.147,2.147,0,0,1,1.435.424,1.524,1.524,0,0,1,.505,1.192,4.06,4.06,0,0,1-.079.847h-2.555a1.728,1.728,0,0,0,.338.987.985.985,0,0,0,.784.315,2.145,2.145,0,0,0,.621-.1,3.407,3.407,0,0,0,.564-.225l.276.588a1.738,1.738,0,0,1-.426.317,3.345,3.345,0,0,1-.689.293,2.69,2.69,0,0,1-.792.12,2.323,2.323,0,0,1-1.808-.628,2.486,2.486,0,0,1-.567-1.731A2.72,2.72,0,0,1,190.663,34.538Zm2.473.747,0-.3a1.628,1.628,0,0,0-.1-.669.379.379,0,0,0-.375-.222.538.538,0,0,0-.323.091.635.635,0,0,0-.2.349,2.976,2.976,0,0,0-.079.749Z" transform="translate(-184.604 -31.074)" fill="#262262"/><path d="M193.772,34.606v-.547A.6.6,0,0,1,193.9,34l.2-.091.146-.065c.039-.018.063-.029.076-.036a1.711,1.711,0,0,0,.3-.5,7.119,7.119,0,0,0,.3-.856h.938l.064,1.373h1.122v.78H195.93v2.059a5.475,5.475,0,0,0,.023.632.365.365,0,0,0,.091.237.4.4,0,0,0,.24.055h0a1.8,1.8,0,0,0,.323-.028c.1-.018.211-.041.337-.072h0l.2.592a2.205,2.205,0,0,1-.734.353,3.4,3.4,0,0,1-1,.144h-.008a1.224,1.224,0,0,1-.879-.273,1.075,1.075,0,0,1-.282-.807V34.606Z" transform="translate(-183.312 -31.451)" fill="#262262"/><path d="M196.925,37.515V34.584l-.455-.163v-.767l1.54-.2h.021l.276.2v.233l-.029.73h.033a1.37,1.37,0,0,1,.261-.511,1.829,1.829,0,0,1,.523-.464,1.311,1.311,0,0,1,.685-.19,1.075,1.075,0,0,1,.224.022.447.447,0,0,1,.149.054v1.758a1.438,1.438,0,0,0-.341-.206,1.232,1.232,0,0,0-.469-.075,1.776,1.776,0,0,0-.46.057.876.876,0,0,0-.309.141v2.316l.872.087v.6h-2.984v-.6Z" transform="translate(-182.29 -31.074)" fill="#262262"/><path d="M203.129,33.706a1.914,1.914,0,0,1,.831.784,2.539,2.539,0,0,1,.3,1.279,2.642,2.642,0,0,1-.33,1.387,1.964,1.964,0,0,1-.892.795,3.064,3.064,0,0,1-1.271.251,2.758,2.758,0,0,1-1.228-.261,1.931,1.931,0,0,1-.834-.785,2.534,2.534,0,0,1-.3-1.278,2.57,2.57,0,0,1,.331-1.357,2.05,2.05,0,0,1,.9-.811,2.936,2.936,0,0,1,1.264-.266A2.77,2.77,0,0,1,203.129,33.706Zm-.716,1.143a1.25,1.25,0,0,0-.206-.569.471.471,0,0,0-.386-.181c-.214,0-.375.132-.482.4a3.637,3.637,0,0,0-.161,1.27,6.027,6.027,0,0,0,.07,1.028,1.25,1.25,0,0,0,.222.571.481.481,0,0,0,.392.181c.211,0,.367-.13.465-.392a3.916,3.916,0,0,0,.149-1.274A6.6,6.6,0,0,0,202.413,34.849Z" transform="translate(-181.172 -31.074)" fill="#262262"/><path d="M203.739,38.1V32.748l-.555-.126V32.03l1.887-.222h.025l.284.208V38.1l.464.088v.633h-2.567v-.633Z" transform="translate(-179.735 -31.696)" fill="#262262"/><path d="M205.694,34.538a1.916,1.916,0,0,1,.829-.816,2.742,2.742,0,0,1,1.272-.279,2.147,2.147,0,0,1,1.435.424,1.524,1.524,0,0,1,.505,1.192,4.06,4.06,0,0,1-.079.847H207.1a1.728,1.728,0,0,0,.338.987.985.985,0,0,0,.784.315,2.145,2.145,0,0,0,.621-.1,3.359,3.359,0,0,0,.564-.225l.276.588a1.726,1.726,0,0,1-.425.317,3.411,3.411,0,0,1-.689.293,2.706,2.706,0,0,1-.794.12,2.325,2.325,0,0,1-1.808-.628,2.486,2.486,0,0,1-.567-1.731A2.72,2.72,0,0,1,205.694,34.538Zm2.473.747,0-.3a1.656,1.656,0,0,0-.1-.669.382.382,0,0,0-.377-.222.541.541,0,0,0-.323.091.636.636,0,0,0-.2.349,2.977,2.977,0,0,0-.079.749Z" transform="translate(-178.891 -31.074)" fill="#262262"/><path d="M212.195,37.505a1.252,1.252,0,0,1-.331.338,1.912,1.912,0,0,1-.5.258,1.661,1.661,0,0,1-.556.1,2.1,2.1,0,0,1-.926-.171,1.038,1.038,0,0,1-.505-.549,2.64,2.64,0,0,1-.159-1.012V34.213l-.367-.1v-.662h1.823l.193.069v3.036a1.731,1.731,0,0,0,.054.487.437.437,0,0,0,.164.248.535.535,0,0,0,.3.073.85.85,0,0,0,.373-.07.994.994,0,0,0,.248-.168V34.213l-.493-.117v-.647h1.925l.217.069V37.46h.421v.6c-.189.037-.382.069-.58.1a5,5,0,0,1-.656.04c-.428,0-.643-.186-.643-.562Z" transform="translate(-177.581 -31.073)" fill="#262262"/><path d="M213.438,37.508V34.585l-.455-.157v-.789l1.724-.21h.021l.247.2v.279l0,.2a1.693,1.693,0,0,1,.5-.34,3.465,3.465,0,0,1,.64-.233,2.268,2.268,0,0,1,.549-.086,1.563,1.563,0,0,1,.751.157,1,1,0,0,1,.438.48,2.147,2.147,0,0,1,.715-.466,2.311,2.311,0,0,1,.88-.171,1.585,1.585,0,0,1,.81.185,1.107,1.107,0,0,1,.465.58,2.949,2.949,0,0,1,.152,1.032v2.262l.46.086v.61h-2.459v-.61l.313-.086V35.285a2.357,2.357,0,0,0-.052-.571.5.5,0,0,0-.164-.287.509.509,0,0,0-.313-.084.973.973,0,0,0-.66.328,3.862,3.862,0,0,1,.043.606v2.232l.417.086v.61h-2.466v-.61l.355-.086V35.249a2.433,2.433,0,0,0-.048-.551.461.461,0,0,0-.161-.275.535.535,0,0,0-.316-.081.788.788,0,0,0-.381.1,1.252,1.252,0,0,0-.3.233v2.837l.409.086v.61H213.02v-.61Z" transform="translate(-176.011 -31.08)" fill="#262262"/><path d="M227.128,35.013v.693l-.551.134a2.228,2.228,0,0,1-.167.879,2.633,2.633,0,0,1-.422.69,2.41,2.41,0,0,0,.5.315,1.509,1.509,0,0,0,.537.137v.617a1.033,1.033,0,0,1-.426.121,3.935,3.935,0,0,1-.518.046,2.654,2.654,0,0,1-.643-.065,1.97,1.97,0,0,1-.53-.226,2.29,2.29,0,0,1-.632.215,4.552,4.552,0,0,1-.9.076,3.525,3.525,0,0,1-1.87-.413,1.36,1.36,0,0,1-.66-1.232,1.2,1.2,0,0,1,.19-.66,1.767,1.767,0,0,1,.48-.5,2.565,2.565,0,0,1,.611-.32,3.915,3.915,0,0,1-.494-.777,1.94,1.94,0,0,1-.182-.84,1.35,1.35,0,0,1,.276-.828,1.825,1.825,0,0,1,.751-.58,2.6,2.6,0,0,1,1.056-.21,2.55,2.55,0,0,1,1,.171,1.313,1.313,0,0,1,.595.447,1.025,1.025,0,0,1,.193.6,1.525,1.525,0,0,1-.149.7,1.481,1.481,0,0,1-.458.523,4.215,4.215,0,0,1-.846.457q.368.447.795.925t.7.729l.1.1a2.543,2.543,0,0,0,.159-.93l0-.163-.613-.134v-.693Zm-4.6,1.023a1.194,1.194,0,0,0-.206.323,1.026,1.026,0,0,0-.073.407,1.29,1.29,0,0,0,.163.664,1.082,1.082,0,0,0,.465.431,1.591,1.591,0,0,0,.711.15,1.718,1.718,0,0,0,.689-.113A12.186,12.186,0,0,1,222.528,36.035Zm1.372-1.856a2.32,2.32,0,0,0,.1-.694,1.123,1.123,0,0,0-.1-.478.373.373,0,0,0-.37-.219q-.555,0-.555.807a1.229,1.229,0,0,0,.159.6,3.51,3.51,0,0,0,.388.563A1.364,1.364,0,0,0,223.9,34.179Z" transform="translate(-173.022 -31.516)" fill="#262262"/><path d="M227.493,33.742a2.563,2.563,0,0,1,1.144-1.089,4.108,4.108,0,0,1,1.823-.37,8.9,8.9,0,0,1,1.234.09q.638.089,1.007.178l-.112,1.644h-1.231l-.264-1.1a.5.5,0,0,0-.217-.12,1.429,1.429,0,0,0-.435-.054,1.066,1.066,0,0,0-1,.633,4.158,4.158,0,0,0-.328,1.863,5.084,5.084,0,0,0,.279,1.91.952.952,0,0,0,.923.66,1.337,1.337,0,0,0,.449-.069.688.688,0,0,0,.294-.177V36.011l-.66-.092v-.68h2.746v.68l-.392.068V38.21a1.258,1.258,0,0,0-.257.03c-.1.022-.242.055-.428.1q-.542.137-.985.218a5.051,5.051,0,0,1-.93.081,3.194,3.194,0,0,1-1.662-.41,2.652,2.652,0,0,1-1.042-1.125,4,4,0,0,1,.04-3.367Z" transform="translate(-170.645 -31.516)" fill="#262262"/><path d="M234.468,35.035a.734.734,0,0,0-.057-.317.357.357,0,0,0-.221-.171,1.585,1.585,0,0,0-.494-.058,3.775,3.775,0,0,0-.773.07c-.222.047-.449.1-.676.177h0l-.33-.628a2.975,2.975,0,0,1,.476-.275,4.142,4.142,0,0,1,.771-.272,3.88,3.88,0,0,1,.961-.117,2.968,2.968,0,0,1,1.128.173,1.07,1.07,0,0,1,.576.538,2.355,2.355,0,0,1,.171.987V37.46h.417v.62c-.127.025-.324.051-.591.08a6.338,6.338,0,0,1-.673.043,1.164,1.164,0,0,1-.382-.047.288.288,0,0,1-.173-.152.79.79,0,0,1-.046-.3v-.156a1.682,1.682,0,0,1-.548.465,1.664,1.664,0,0,1-.821.192,1.523,1.523,0,0,1-.733-.178,1.34,1.34,0,0,1-.529-.513,1.528,1.528,0,0,1-.2-.788,1.3,1.3,0,0,1,.689-1.173,4.07,4.07,0,0,1,2.058-.415Zm0,.726a1.132,1.132,0,0,0-.78.221.717.717,0,0,0-.243.552.987.987,0,0,0,.144.559.454.454,0,0,0,.395.214.6.6,0,0,0,.259-.066.719.719,0,0,0,.225-.164Z" transform="translate(-168.889 -31.074)" fill="#262262"/><path d="M236.362,36.705l.243.676a.427.427,0,0,0,.237.144,1.187,1.187,0,0,0,.375.065.7.7,0,0,0,.439-.126.383.383,0,0,0,.159-.309.362.362,0,0,0-.109-.259,1.051,1.051,0,0,0-.279-.2c-.115-.058-.276-.131-.484-.218q-.238-.1-.5-.228a2.124,2.124,0,0,1-.773-.584,1.337,1.337,0,0,1-.266-.847,1.142,1.142,0,0,1,.232-.7,1.517,1.517,0,0,1,.689-.493,2.952,2.952,0,0,1,1.1-.182c.277,0,.518,0,.719.01s.411.014.628.023c.175.01.309.014.4.014v1.214h-.894l-.242-.506a.339.339,0,0,0-.173-.1,1.1,1.1,0,0,0-.32-.043.747.747,0,0,0-.449.117.37.37,0,0,0-.16.316.4.4,0,0,0,.115.283,1.02,1.02,0,0,0,.293.213c.117.059.282.132.49.217l.167.072a5.535,5.535,0,0,1,.751.368,1.694,1.694,0,0,1,.513.471,1.152,1.152,0,0,1,.2.689,1.224,1.224,0,0,1-.213.7,1.462,1.462,0,0,1-.678.508,3.084,3.084,0,0,1-1.18.193,4.778,4.778,0,0,1-.847-.066c-.242-.044-.491-.1-.751-.179-.181-.05-.3-.079-.367-.088V36.705Z" transform="translate(-167.49 -31.074)" fill="#262262"/><path d="M240.4,36.654h.926l.239,1.072a.59.59,0,0,0,.294.179,1.725,1.725,0,0,0,.549.075,1.035,1.035,0,0,0,.68-.189.673.673,0,0,0,.221-.535.662.662,0,0,0-.159-.437,1.647,1.647,0,0,0-.447-.356q-.288-.166-.8-.4a2.234,2.234,0,0,1-1.566-2.033,1.618,1.618,0,0,1,.243-.861,1.715,1.715,0,0,1,.767-.639,3.156,3.156,0,0,1,1.336-.246q.484,0,.838.026c.235.018.483.041.744.069a3,3,0,0,0,.326.03l-.054,1.569h-.905l-.2-.9a.446.446,0,0,0-.224-.109,1.573,1.573,0,0,0-.42-.048.821.821,0,0,0-.616.2.676.676,0,0,0-.195.489.7.7,0,0,0,.186.478,1.841,1.841,0,0,0,.461.373q.275.161.763.4c.014.006.055.023.121.057a5.424,5.424,0,0,1,.73.418,2.066,2.066,0,0,1,.558.578,1.457,1.457,0,0,1,.232.821,2.019,2.019,0,0,1-.213.9,1.7,1.7,0,0,1-.773.72,3.332,3.332,0,0,1-1.528.291,4.963,4.963,0,0,1-.912-.077q-.418-.077-.869-.2a2.861,2.861,0,0,0-.406-.092Z" transform="translate(-165.619 -31.516)" fill="#262262"/><path d="M243.931,34.606v-.547a.607.607,0,0,1,.124-.061l.2-.091.146-.065c.039-.018.065-.029.076-.036a1.712,1.712,0,0,0,.3-.5,7.121,7.121,0,0,0,.3-.856h.94l.062,1.373h1.122v.78h-1.105v2.059a5.836,5.836,0,0,0,.023.632.366.366,0,0,0,.091.237.4.4,0,0,0,.24.055h0a1.822,1.822,0,0,0,.324-.028c.1-.018.21-.041.335-.072h0l.2.592a2.206,2.206,0,0,1-.734.353,3.4,3.4,0,0,1-1,.144h-.008a1.224,1.224,0,0,1-.879-.273,1.076,1.076,0,0,1-.282-.807V34.606Z" transform="translate(-164.248 -31.451)" fill="#262262"/><path d="M249.233,35.035a.735.735,0,0,0-.057-.317.357.357,0,0,0-.221-.171,1.585,1.585,0,0,0-.494-.058,3.774,3.774,0,0,0-.773.07c-.222.047-.449.1-.676.177h0l-.33-.628a2.972,2.972,0,0,1,.476-.275,4.142,4.142,0,0,1,.771-.272,3.88,3.88,0,0,1,.961-.117,2.968,2.968,0,0,1,1.128.173,1.07,1.07,0,0,1,.576.538,2.355,2.355,0,0,1,.171.987V37.46h.417v.62c-.127.025-.324.051-.591.08a6.338,6.338,0,0,1-.673.043,1.164,1.164,0,0,1-.382-.047.288.288,0,0,1-.173-.152.787.787,0,0,1-.047-.3v-.156a1.657,1.657,0,0,1-1.368.657,1.523,1.523,0,0,1-.733-.178,1.331,1.331,0,0,1-.529-.513,1.528,1.528,0,0,1-.2-.788,1.3,1.3,0,0,1,.689-1.173,4.07,4.07,0,0,1,2.058-.415Zm0,.726a1.138,1.138,0,0,0-.781.221.721.721,0,0,0-.242.552.987.987,0,0,0,.144.559.454.454,0,0,0,.395.214.6.6,0,0,0,.259-.066.719.719,0,0,0,.225-.164Z" transform="translate(-163.277 -31.074)" fill="#262262"/><path d="M250.019,34.606v-.547a.605.605,0,0,1,.124-.061l.2-.091.146-.065c.039-.018.065-.029.076-.036a1.71,1.71,0,0,0,.3-.5,7.114,7.114,0,0,0,.3-.856h.94l.062,1.373h1.123v.78h-1.107v2.059a5.815,5.815,0,0,0,.023.632.365.365,0,0,0,.091.237.4.4,0,0,0,.24.055h0a1.822,1.822,0,0,0,.324-.028c.1-.018.21-.041.335-.072h0l.2.592a2.205,2.205,0,0,1-.734.353,3.4,3.4,0,0,1-1,.144h-.008a1.227,1.227,0,0,1-.879-.273,1.075,1.075,0,0,1-.282-.807V34.606Z" transform="translate(-161.935 -31.451)" fill="#262262"/><path d="M253.189,38.133V35.115l-.547-.167V34.21l1.9-.229h.021l.284.2v3.957l.442.084v.633h-2.571v-.633Zm-.117-5.954a.83.83,0,0,1,.326-.333,1,1,0,0,1,.5-.12h0a1.021,1.021,0,0,1,.478.1.711.711,0,0,1,.3.279.79.79,0,0,1,.1.4.982.982,0,0,1-.11.469.79.79,0,0,1-.33.326,1.1,1.1,0,0,1-.537.12h0a.919.919,0,0,1-.432-.1.749.749,0,0,1-.407-.672A.987.987,0,0,1,253.071,32.18Z" transform="translate(-160.938 -31.727)" fill="#262262"/><path d="M258.611,33.706a1.914,1.914,0,0,1,.831.784,2.539,2.539,0,0,1,.3,1.279,2.642,2.642,0,0,1-.33,1.387,1.964,1.964,0,0,1-.892.795,3.064,3.064,0,0,1-1.271.251,2.758,2.758,0,0,1-1.228-.261,1.931,1.931,0,0,1-.834-.785,2.534,2.534,0,0,1-.3-1.278,2.57,2.57,0,0,1,.331-1.357,2.05,2.05,0,0,1,.9-.811,2.936,2.936,0,0,1,1.264-.266A2.77,2.77,0,0,1,258.611,33.706Zm-.716,1.143a1.25,1.25,0,0,0-.206-.569.471.471,0,0,0-.386-.181c-.214,0-.375.132-.482.4a3.637,3.637,0,0,0-.161,1.27,5.869,5.869,0,0,0,.072,1.028,1.235,1.235,0,0,0,.221.571.481.481,0,0,0,.392.181c.211,0,.367-.13.465-.392a3.915,3.915,0,0,0,.149-1.274A6.6,6.6,0,0,0,257.895,34.849Z" transform="translate(-160.085 -31.074)" fill="#262262"/><path d="M259.275,37.508V34.585l-.455-.157v-.789l1.724-.21h.022l.25.2v.279l-.008.195a2.349,2.349,0,0,1,.733-.469,2.453,2.453,0,0,1,.958-.185,1.606,1.606,0,0,1,.8.173,1.015,1.015,0,0,1,.442.564,3.182,3.182,0,0,1,.142,1.06V37.5l.417.077V38.2h-2.47V37.59l.355-.086V35.249a2.433,2.433,0,0,0-.048-.551.466.466,0,0,0-.159-.275.525.525,0,0,0-.315-.081,1.018,1.018,0,0,0-.693.328v2.837l.417.081V38.2h-2.537V37.59Z" transform="translate(-158.59 -31.08)" fill="#262262"/></g><path d="M321.821,114.236H175.707c-7.176,0-10.411.713-17.445,2.132l-7.716,3.4H349.322L336.9,115.918C330.625,114.8,328.192,114.236,321.821,114.236Z" transform="translate(0 34.018)" fill="#d1d3d4"/><rect width="198.776" height="2.84" transform="translate(150.546 153.789)" fill="#a7a9ac"/><g transform="translate(203.598 97.045)"><path d="M214.329,82.38v40.789h-23.16V82.38a5.249,5.249,0,0,1,5.248-5.25H209.08a5.246,5.246,0,0,1,5.25,5.25Z" transform="translate(-188.159 -77.13)" fill="#2a2a91"/><path d="M214.329,80.235v13.5h-23.16v-13.5a3.1,3.1,0,0,1,2.988-3.1l.117,0h16.95c.068,0,.135,0,.2.008A3.1,3.1,0,0,1,214.329,80.235Z" transform="translate(-188.159 -77.13)" fill="#f15a29"/><path d="M.978,0H28.2a.978.978,0,0,1,.978.978v5.3a0,0,0,0,1,0,0H0a0,0,0,0,1,0,0V.978A.978.978,0,0,1,.978,0Z" transform="translate(0 44.927)" fill="#262262"/><rect width="17.271" height="5.146" transform="translate(5.998 3.709)" fill="#231f20"/><path d="M197.316,79.818l11.776,5.146V79.818Z" transform="translate(-185.822 -76.108)" fill="#414042"/><path d="M196.34,79.818l9.159,5.146h-2.355l-7.85-5.146Z" transform="translate(-186.591 -76.108)" fill="#414042"/><path d="M208.75,80.233v41.822h-2.9V77.136A3.1,3.1,0,0,1,208.75,80.233Z" transform="translate(-182.579 -77.128)" fill="#d1d3d4" style="mix-blend-mode:multiply;isolation:isolate"/><path d="M194.157,77.132v44.924h-2.988V80.234A3.1,3.1,0,0,1,194.157,77.132Z" transform="translate(-188.159 -77.129)" fill="#d1d3d4" style="mix-blend-mode:multiply;isolation:isolate"/><rect width="2.617" height="9.485" transform="translate(7.372 18.407)" fill="#262262"/><rect width="0.916" height="4.743" transform="translate(8.223 18.407)" fill="#e6e7e8"/><rect width="1.875" height="4.274" transform="translate(7.743 22.725)" fill="#e6e7e8"/><rect width="1.589" height="1.589" transform="translate(7.536 10.524)" fill="#2a2a91"/><rect width="1.589" height="1.589" transform="translate(10.652 10.524)" fill="#2a2a91"/><rect width="1.589" height="1.589" transform="translate(13.769 10.524)" fill="#2a2a91"/><rect width="1.589" height="1.589" transform="translate(16.885 10.524)" fill="#2a2a91"/><rect width="1.589" height="1.589" transform="translate(20.001 10.524)" fill="#2a2a91"/><rect width="14.055" height="1.963" transform="translate(7.536 12.977)" fill="#d1d3d4" style="mix-blend-mode:multiply;isolation:isolate"/><path d="M193.629,112.756a4.2,4.2,0,0,1-4.2-4.2V86.151a2.4,2.4,0,0,1,2.4-2.4v.654a1.746,1.746,0,0,0-1.744,1.744v22.407a3.544,3.544,0,1,0,7.088,0v-6.945h.654v6.945A4.2,4.2,0,0,1,193.629,112.756Z" transform="translate(-188.819 -74.613)" fill="#0f0f38"/><path d="M206.518,92.874v1.1h-7.6v-1.1Zm.462-.462h-8.526v2.029h8.526V92.412Z" transform="translate(-185.39 -71.322)" fill="#0f0f38"/><rect width="8.526" height="2.029" transform="translate(13.064 18.407)" fill="#d1d3d4" style="mix-blend-mode:multiply;isolation:isolate"/></g><g transform="translate(169.921 97.045)"><path d="M189.926,82.38v40.789h-23.16V82.38a5.249,5.249,0,0,1,5.25-5.25h12.661a5.246,5.246,0,0,1,5.25,5.25Z" transform="translate(-163.756 -77.13)" fill="#2a2a91"/><path d="M189.926,80.235v13.5h-23.16v-13.5a3.1,3.1,0,0,1,2.988-3.1l.117,0h16.95c.068,0,.137,0,.2.008A3.1,3.1,0,0,1,189.926,80.235Z" transform="translate(-163.756 -77.13)" fill="#f15a29"/><path d="M.978,0H28.2a.978.978,0,0,1,.978.978v5.3a0,0,0,0,1,0,0H0a0,0,0,0,1,0,0V.978A.978.978,0,0,1,.978,0Z" transform="translate(0 44.927)" fill="#262262"/><rect width="17.271" height="5.146" transform="translate(5.999 3.709)" fill="#231f20"/><path d="M172.913,79.818l11.776,5.146V79.818Z" transform="translate(-161.419 -76.108)" fill="#414042"/><path d="M171.938,79.818l9.159,5.146h-2.355l-7.851-5.146Z" transform="translate(-162.188 -76.108)" fill="#414042"/><path d="M184.347,80.233v41.822h-2.9V77.136A3.1,3.1,0,0,1,184.347,80.233Z" transform="translate(-158.176 -77.128)" fill="#d1d3d4" style="mix-blend-mode:multiply;isolation:isolate"/><path d="M169.754,77.132v44.924h-2.988V80.234A3.1,3.1,0,0,1,169.754,77.132Z" transform="translate(-163.756 -77.129)" fill="#d1d3d4" style="mix-blend-mode:multiply;isolation:isolate"/><rect width="2.617" height="9.485" transform="translate(7.372 18.407)" fill="#262262"/><rect width="0.916" height="4.743" transform="translate(8.223 18.407)" fill="#e6e7e8"/><rect width="1.875" height="4.274" transform="translate(7.743 22.725)" fill="#e6e7e8"/><rect width="1.589" height="1.589" transform="translate(7.536 10.524)" fill="#2a2a91"/><rect width="1.589" height="1.589" transform="translate(10.652 10.524)" fill="#2a2a91"/><rect width="1.589" height="1.589" transform="translate(13.769 10.524)" fill="#2a2a91"/><rect width="1.589" height="1.589" transform="translate(16.885 10.524)" fill="#2a2a91"/><rect width="1.589" height="1.589" transform="translate(20.001 10.524)" fill="#2a2a91"/><rect width="14.055" height="1.963" transform="translate(7.536 12.977)" fill="#d1d3d4" style="mix-blend-mode:multiply;isolation:isolate"/><path d="M169.226,112.756a4.2,4.2,0,0,1-4.2-4.2V86.151a2.4,2.4,0,0,1,2.4-2.4v.654a1.746,1.746,0,0,0-1.744,1.744v22.407a3.544,3.544,0,1,0,7.088,0v-6.945h.654v6.945A4.2,4.2,0,0,1,169.226,112.756Z" transform="translate(-164.416 -74.613)" fill="#0f0f38"/><path d="M182.115,92.874v1.1h-7.6v-1.1Zm.462-.462h-8.526v2.029h8.526V92.412Z" transform="translate(-160.987 -71.322)" fill="#0f0f38"/><rect width="8.526" height="2.029" transform="translate(13.064 18.407)" fill="#d1d3d4" style="mix-blend-mode:multiply;isolation:isolate"/></g><rect width="20.005" height="4.848" transform="translate(191.337 47.67)" fill="#939598"/><path d="M0,0H8.2a0,0,0,0,1,0,0V4.583A1.023,1.023,0,0,1,7.179,5.606H1.023A1.023,1.023,0,0,1,0,4.583V0A0,0,0,0,1,0,0Z" transform="translate(179.046 75.959)" fill="#f7941e"/><path d="M0,0H8.2a0,0,0,0,1,0,0V4.583A1.023,1.023,0,0,1,7.179,5.606H1.023A1.023,1.023,0,0,1,0,4.583V0A0,0,0,0,1,0,0Z" transform="translate(214.855 75.959)" fill="#f7941e"/></g></svg>