<?xml version="1.0" encoding="utf-8"?>
<!-- Generator: Adobe Illustrator 25.2.0, SVG Export Plug-In . SVG Version: 6.00 Build 0)  -->
<svg version="1.1" id="Layer_1" xmlns="http://www.w3.org/2000/svg" xmlns:xlink="http://www.w3.org/1999/xlink" x="0px" y="0px"
	 viewBox="0 0 40 40" style="enable-background:new 0 0 40 40;" xml:space="preserve">
<style type="text/css">
	.st0{fill:none;stroke:#DE4D3B;stroke-width:2;}
	.st1{fill:#DE4D3B;}
</style>
<g id="google" transform="translate(0 -2)">
	<g id="bg" transform="translate(0 2)">
		<path class="st0" d="M20,1L20,1c10.5,0,19,8.5,19,19l0,0c0,10.5-8.5,19-19,19l0,0C9.5,39,1,30.5,1,20l0,0C1,9.5,9.5,1,20,1z"/>
	</g>
	<g id="Icon_Text" transform="translate(13.115 12)">
		<path id="Path" class="st1" d="M7,9v2.2h3.2c-0.4,1.4-1.7,2.4-3.2,2.3c-1.9,0-3.5-1.6-3.5-3.5C3.5,8.1,5,6.5,7,6.5
			c0.8,0,1.7,0.3,2.3,0.8l1.6-1.6c-2.4-2.2-6.1-2-8.2,0.4s-2,6.1,0.4,8.2c1.1,1,2.5,1.5,3.9,1.5c4.9,0,6-4.6,5.5-6.9L7,9z"/>
	</g>
</g>
</svg>
