<?xml version="1.0" encoding="utf-8"?>
<!-- Generator: Adobe Illustrator 25.4.1, SVG Export Plug-In . SVG Version: 6.00 Build 0)  -->
<svg version="1.1" id="Layer_1" xmlns="http://www.w3.org/2000/svg" xmlns:xlink="http://www.w3.org/1999/xlink" x="0px" y="0px"
	 viewBox="0 0 200 200" style="enable-background:new 0 0 200 200;" xml:space="preserve">
<style type="text/css">
	.st0{fill:#DFE3E6;}
	.st1{fill:#B3B3B3;}
</style>
<g>
	<rect class="st0" width="200" height="200"/>
</g>
<path class="st1" d="M151.1,147.2H48.8c-6.5,0-11.8-5.3-11.8-11.8V64.6c0-6.5,5.3-11.8,11.8-11.8h102.3c6.5,0,11.8,5.3,11.8,11.8
	v70.8C163,141.9,157.7,147.2,151.1,147.2z M64.6,66.6c-7.6,0-13.8,6.2-13.8,13.8S57,94.1,64.6,94.1s13.8-6.2,13.8-13.8
	S72.2,66.6,64.6,66.6z M52.8,131.5h94.4v-27.5l-21.5-21.5c-1.2-1.2-3-1.2-4.2,0l-33.3,33.3l-13.7-13.7c-1.2-1.2-3-1.2-4.2,0
	l-17.6,17.6L52.8,131.5L52.8,131.5z"/>
</svg>
