<svg xmlns="http://www.w3.org/2000/svg" width="311.176" height="190.058" viewBox="0 0 311.176 190.058"><g transform="translate(-854.374 -309.715)"><path d="M933.412,399.482l-1.86,11.363L922.083,400.2ZM900.1,374.12l4.734,10.145,7.1-13.358Zm-23.8,44.806-7.482,14.456,14.964-4.058Zm18.9,74.057-3.551-5.834-10.906,4.312,3.044,7.608Zm214.737-4.508-5.326,4.565,3.805,5.073,6.34-4.819Zm14.534-49.767-2.79,8.116,7.863,3.089,2.029-8.669Zm-18.26-58.079-6.232,4.819,4.71,7.609,8.369-6.214Zm35.253-30.434,8.185,7.609,3.228-15.089Zm-52.5-25.575-6.341-8.486-8.508,7.5Zm-14.849,21.062-4.643-7.407-7.646,4.44,4.312,7.544Zm-135.8-2.967-3.8,8.748,9.637,3.044,1.268-8.825Zm-35.76-32.084-12.174,9.176v10.859l13.442-10.289Zm-39.311,25.108h-8.37v8.528h8.37Zm115.4-20.29a5.2,5.2,0,1,0,5.2,5.2A5.2,5.2,0,0,0,978.64,315.449Zm180.323,95.868a6.087,6.087,0,1,0,6.087,6.087A6.087,6.087,0,0,0,1158.963,411.317Zm-37.282-84.328a4.945,4.945,0,1,0,4.946,4.946A4.945,4.945,0,0,0,1121.681,326.989Z" fill="#3aa6d6" stroke="#2488ba" stroke-miterlimit="10" stroke-width="1" opacity="0.3"/><circle cx="35.507" cy="35.507" r="35.507" transform="translate(997.492 393.31)" fill="#3aa6d6" stroke="#2488ba" stroke-miterlimit="10" stroke-width="1" opacity="0.1"/><path d="M1010.639,361.85c8.552-.444,11.736,1.242,11.736,1.242a4.283,4.283,0,0,1,2.834,6.22l-.042.077a4.278,4.278,0,0,1-4.7,2.123,48.208,48.208,0,0,0-9.746-1.05,4.287,4.287,0,0,1-4.2-4.127h0A4.326,4.326,0,0,1,1010.639,361.85ZM1064.19,421.4a4.307,4.307,0,0,0-5.863,3.5,48.521,48.521,0,0,1-94.263,9.134,4.31,4.31,0,0,0-6.078-2.486h0a4.327,4.327,0,0,0-2.134,5.178,57.153,57.153,0,0,0,111.032-10.8,4.323,4.323,0,0,0-2.694-4.53Zm-30.2-50.537h0a4.327,4.327,0,0,0,1.139,6.472c.12.072.239.144.358.218a4.275,4.275,0,0,0,5.5-.809l.106-.124a4.261,4.261,0,0,0-1.053-6.412q-.259-.159-.52-.315A4.324,4.324,0,0,0,1033.987,370.862Zm-72.008,42.381a48.612,48.612,0,0,1,24.811-36.814,4.286,4.286,0,0,0,.114-7.507l-.09-.051a4.328,4.328,0,0,0-4.226.007,57.151,57.151,0,0,0-29.159,43.371,4.282,4.282,0,0,0,4.909,4.725l.086-.013A4.245,4.245,0,0,0,961.979,413.243Z" fill="#3aa6d6" stroke="#2488ba" stroke-miterlimit="10" stroke-width="1"/><path d="M1007.425,431.442q.041-5.751.992-7.973t5-5.871a86.7,86.7,0,0,0,5.593-7.14,10.61,10.61,0,0,0,1.666-6.03,8.8,8.8,0,0,0-2.241-6.466,8.623,8.623,0,0,0-6.406-2.261,9.747,9.747,0,0,0-6.149,1.964,6.849,6.849,0,0,0-2.539,5.771h-7.457l-.119-.238a12.323,12.323,0,0,1,4.5-10.234,17.764,17.764,0,0,1,11.762-3.848q7.815,0,12.138,3.987t4.325,11.126a16.662,16.662,0,0,1-2.8,9.362,52.217,52.217,0,0,1-7.4,8.688,9.312,9.312,0,0,0-2.6,3.847,22.392,22.392,0,0,0-.457,5.316Zm8.093,16.264h-8.172v-8.251h8.172Z" fill="#3aa6d6" stroke="#2488ba" stroke-miterlimit="10" stroke-width="1"/></g></svg>