<svg xmlns="http://www.w3.org/2000/svg" width="16.95" height="22.773" viewBox="0 0 16.95 22.773"><path d="M185.687,6.642c-.556.556-1.091,1.149-1.612,1.769-.5.6-.97,1.234-1.434,1.89a21.641,21.641,0,0,0-1.769,3,18.963,18.963,0,0,0-1.163,2.9l-.927-2.247c.136-.243.278-.485.428-.713.378-.6.778-1.17,1.184-1.726.371-.506.756-.992,1.149-1.455A20.9,20.9,0,0,1,183.3,8.2c.514-.478,1.042-.949,1.569-1.391.464-.385.934-.742,1.412-1.077-.05-.143-.107-.292-.164-.428-1.862,1.12-5.707,3.8-7.747,7.676L177.7,11.35a24.8,24.8,0,0,1,8.361-6.214c-.05-.114-.1-.228-.157-.342h0a7.474,7.474,0,0,0-.385-.7l.007-.007V4.081a.007.007,0,0,0-.007.007c-.093-.15-.185-.3-.292-.442l.007-.007c-.021-.029-.043-.064-.064-.093h0A8.478,8.478,0,0,0,169.8,8.475c0,3.909,5.914,11.585,7.861,14a.787.787,0,0,0,1.227,0c1.948-2.418,7.861-10.094,7.861-14a8.481,8.481,0,0,0-.371-2.49C186.143,6.2,185.915,6.413,185.687,6.642Zm-6.92,12.12a.542.542,0,0,1-.507.35.532.532,0,0,1-.507-.35c-1.448-3.845-3.232-8.268-4.423-11.214-.556-1.341-.9-1.712-1.783-1.855V4.972h5.008v.642c-1.591.164-1.605.35-1.27,1.313.3.77.87,2.219,1.534,3.9l2.59,6.292Q179.088,17.949,178.767,18.762Z" transform="translate(-169.8)" fill="#fff"/></svg>