<?xml version="1.0" encoding="utf-8"?>
<!-- Generator: Adobe Illustrator 25.2.0, SVG Export Plug-In . SVG Version: 6.00 Build 0)  -->
<svg version="1.1" id="Layer_1" xmlns="http://www.w3.org/2000/svg" xmlns:xlink="http://www.w3.org/1999/xlink" x="0px" y="0px"
	 viewBox="0 0 239.6 321.2" style="enable-background:new 0 0 239.6 321.2;" xml:space="preserve">
<style type="text/css">
	.st0{fill:#F7C90B;}
</style>
<g>
	<path class="st0" d="M223.7,94.1c-7.8,7.8-15.3,16.1-22.6,24.8c-7,8.4-13.6,17.3-20.1,26.5c-9.2,12.9-17.4,27-24.8,42
		c-6.3,12.9-12,26.3-16.3,40.7l-13-31.5c1.9-3.4,3.9-6.8,6-10c5.3-8.4,10.9-16.4,16.6-24.2c5.2-7.1,10.6-13.9,16.1-20.4
		c7.9-9.4,16.1-18.1,24.7-26.1c7.2-6.7,14.6-13.3,22-19.5c6.5-5.4,13.1-10.4,19.8-15.1c-0.7-2-1.5-4.1-2.3-6
		c-26.1,15.7-80,53.3-108.6,107.6l-9.4-22.8c4.6-5.5,49-57.2,117.2-87.1c-0.7-1.6-1.4-3.2-2.2-4.8l0,0c-1.6-3.3-3.4-6.6-5.4-9.8
		l0.1-0.1c0,0,0,0,0-0.1c0,0-0.1,0-0.1,0.1c-1.3-2.1-2.6-4.2-4.1-6.2l0.1-0.1c-0.3-0.4-0.6-0.9-0.9-1.3l0,0l0,0
		C194.9,20.6,159.7,1,119.8,1C54.2,1,1,54.2,1,119.8c0,54.8,82.9,162.4,110.2,196.3c4.4,5.5,12.8,5.5,17.2,0
		c27.3-33.9,110.2-141.5,110.2-196.3c0-12.1-1.8-23.8-5.2-34.9C230.1,87.9,226.9,90.9,223.7,94.1z M126.7,264
		c-1.1,2.9-3.9,4.9-7.1,4.9s-6-1.9-7.1-4.9c-20.3-53.9-45.3-115.9-62-157.2c-7.8-18.8-12.6-24-25-26V70.7h70.2v9
		C73.4,82,73.2,84.6,77.9,98.1c4.2,10.8,12.2,31.1,21.5,54.6l36.3,88.2C132.7,248.7,129.7,256.4,126.7,264z"/>
</g>
</svg>
