<svg xmlns="http://www.w3.org/2000/svg" width="37" height="24" viewBox="0 0 37 24"><g transform="translate(-277 -147)"><rect width="37" height="24" rx="3" transform="translate(277 147)" fill="#003276"/><g transform="translate(-891.435 -213.545)"><path d="M1237.583,377.871a7.057,7.057,0,0,0,4.789,1.864,7.19,7.19,0,0,0,0-14.379,7.055,7.055,0,0,0-4.789,1.864,7.195,7.195,0,0,0,0,10.652Z" transform="translate(-50.642)" fill="#e9b040" fill-rule="evenodd"/><path d="M1189.249,371.786c-.025-.259-.074-.506-.124-.765h-4.369a7.541,7.541,0,0,1,.2-.753h3.962q-.129-.39-.3-.765h-3.357q.185-.392.407-.765h2.531a6.513,6.513,0,0,0-.543-.753h-1.444a7.08,7.08,0,0,1,.728-.765,7.19,7.19,0,1,0,0,10.652,6.814,6.814,0,0,0,.716-.753h-1.444a8.542,8.542,0,0,1-.543-.765h2.531a5.75,5.75,0,0,0,.42-.765h-3.357a8.056,8.056,0,0,1-.309-.753h3.962a7.733,7.733,0,0,0,.21-.765,6.932,6.932,0,0,0,.161-1.518c0-.259-.012-.518-.037-.765Z" transform="translate(0)" fill="#cc2131" fill-rule="evenodd"/><path d="M1195.319,399.184l-.136.79a1.483,1.483,0,0,0-.691-.2c-.58,0-.987.568-.987,1.37,0,.556.271.889.728.889a1.514,1.514,0,0,0,.654-.185l-.136.827a2.572,2.572,0,0,1-.679.111c-.839,0-1.358-.605-1.358-1.58,0-1.3.716-2.21,1.74-2.21a1.52,1.52,0,0,1,.358.037l.309.074c.1.037.124.05.2.074Zm-2.493.543h-.074c-.259,0-.407.124-.642.481l.074-.457h-.7l-.481,2.962h.778c.284-1.814.358-2.123.728-2.123h.049a3.1,3.1,0,0,1,.3-.852l-.025-.012Zm-4.468,2.95a1.6,1.6,0,0,1-.555.1.571.571,0,0,1-.617-.654,2.038,2.038,0,0,1,.025-.259l.049-.3.037-.234.333-2.024h.765l-.086.444h.395l-.1.728h-.4l-.21,1.234a.461.461,0,0,0-.012.124c0,.148.074.21.259.21a.513.513,0,0,0,.21-.025l-.1.654Zm-2.975-1.987a.864.864,0,0,0,.58.827c.321.148.37.2.37.321,0,.185-.136.271-.444.271a2.31,2.31,0,0,1-.691-.111l-.111.679.037.012.136.025a.807.807,0,0,0,.21.025,2.858,2.858,0,0,0,.42.025c.815,0,1.2-.309,1.2-.987a.821.821,0,0,0-.543-.827c-.333-.148-.37-.185-.37-.321,0-.16.136-.235.382-.235a4.8,4.8,0,0,1,.556.037l.111-.679a4.462,4.462,0,0,0-.679-.062c-.864,0-1.173.457-1.16,1Zm15.848,2.024h-.728l.037-.284a.925.925,0,0,1-.716.321c-.568,0-.938-.481-.938-1.222,0-.987.58-1.827,1.259-1.827a.888.888,0,0,1,.741.407l.172-1.037h.765l-.592,3.641Zm-1.136-.691c.358,0,.6-.42.6-1,0-.383-.136-.58-.408-.58-.345,0-.6.407-.6.988q0,.593.407.592Zm-9.368.629a2.532,2.532,0,0,1-.8.123,1.176,1.176,0,0,1-1.308-1.333c0-1.012.568-1.765,1.346-1.765a.992.992,0,0,1,1.049,1.074,2.988,2.988,0,0,1-.1.741h-1.53a.241.241,0,0,0-.012.087c0,.346.235.518.679.518a1.7,1.7,0,0,0,.8-.185l-.124.741Zm-.432-1.765v-.148a.342.342,0,0,0-.37-.383c-.247,0-.42.185-.494.531Zm-7.862,1.827h-.765l.444-2.8-1,2.8h-.531l-.062-2.777-.469,2.777h-.716l.6-3.641h1.111l.037,2.259.74-2.259h1.21l-.6,3.641Zm1.913-1.321c-.074,0-.111-.012-.173-.012-.432,0-.654.16-.654.457a.26.26,0,0,0,.271.3c.321,0,.543-.3.555-.741Zm.568,1.321h-.642l.012-.309a.961.961,0,0,1-.814.358.717.717,0,0,1-.7-.8c0-.728.494-1.148,1.358-1.148.086,0,.2.012.321.025a.623.623,0,0,0,.025-.185c0-.2-.136-.272-.494-.272a2.541,2.541,0,0,0-.642.074l-.111.037-.074.012.111-.667a3.1,3.1,0,0,1,.926-.148c.667,0,1.025.3,1.025.864a3.728,3.728,0,0,1-.062.593l-.173,1.049-.025.185-.013.148-.012.111-.012.074Zm11.652-1.321c-.087,0-.123-.012-.173-.012-.444,0-.667.16-.667.457a.269.269,0,0,0,.284.3c.309,0,.543-.3.555-.741Zm.568,1.321h-.642l.012-.309a.961.961,0,0,1-.814.358.717.717,0,0,1-.7-.8c0-.728.494-1.148,1.358-1.148a3.094,3.094,0,0,1,.308.025.776.776,0,0,0,.037-.185c0-.2-.136-.272-.494-.272a2.645,2.645,0,0,0-.654.074l-.1.037-.074.012.111-.667a3.105,3.105,0,0,1,.926-.148c.667,0,1.012.3,1.012.864a2.659,2.659,0,0,1-.062.593l-.161,1.049-.025.185-.025.148-.012.111v.074Zm2.074-2.987h-.074c-.259,0-.407.124-.642.481l.074-.457h-.7l-.469,2.962h.765c.284-1.814.358-2.123.729-2.123h.049a3.1,3.1,0,0,1,.3-.852l-.025-.012Z" transform="translate(-3.651 -28.287)" fill="#fff" fill-rule="evenodd"/></g></g></svg>