<svg xmlns="http://www.w3.org/2000/svg" width="37" height="24" viewBox="0 0 37 24"><g transform="translate(-277 -147)"><rect width="37" height="24" rx="3" transform="translate(277 147)" fill="#3c016f"/><g transform="translate(281.956 148.178)"><path d="M190.826,7.57h.542a.78.78,0,0,0,.767-.717l.038-.542a.66.66,0,0,0-.667-.717h-1.258l-.088,1.258A.66.66,0,0,0,190.826,7.57Z" transform="translate(-180.17 -1.221)" fill="#ff5209"/><path d="M376.642,304.83a.983.983,0,0,0-.966.9L375.6,306.8h5.49a.983.983,0,0,0,.966-.9l.075-1.072Z" transform="translate(-358.832 -289.513)" fill="#ff5209"/><path d="M3.35,9.394l-.195,2.792A2.221,2.221,0,0,0,5.4,14.6h.8a2.629,2.629,0,0,0,2.582-2.414l.363-5.205H5.932A2.629,2.629,0,0,0,3.35,9.394Zm3.46,2.792a.478.478,0,0,1-.469.439h-.8a.4.4,0,0,1-.408-.439l.195-2.792a.479.479,0,0,1,.469-.439H7.035ZM20.133,14.6h.8a2.629,2.629,0,0,0,2.582-2.414l.195-2.792a2.221,2.221,0,0,0-2.245-2.414H18.251L18.09,9.287l-.187,2.67a.891.891,0,0,1-.874.817.753.753,0,0,1-.76-.817l.186-2.67L16.546,8A.937.937,0,0,0,15.6,6.981h-.957l-.094,1.344-.214,3.063a1.512,1.512,0,0,1-1.484,1.387,1.278,1.278,0,0,1-1.289-1.387l.214-3.063L11.8,8a.937.937,0,0,0-.947-1.018H9.895L9.173,17.317h.957A1.108,1.108,0,0,0,11.219,16.3l.129-1.848a3.209,3.209,0,0,0,1.366.3,3.5,3.5,0,0,0,1.408-.3,3.693,3.693,0,0,0,.851-.523,2.546,2.546,0,0,0,1.111.7,2.706,2.706,0,0,0,.808.121,2.962,2.962,0,0,0,1.82-.637A2.258,2.258,0,0,0,20.133,14.6Zm-.045-5.644H21.33a.4.4,0,0,1,.408.439l-.195,2.792a.479.479,0,0,1-.469.439h-.8a.4.4,0,0,1-.408-.439Zm-5.11,6.362h1.258l-.088,1.258a.78.78,0,0,1-.767.717H14.84a.66.66,0,0,1-.667-.717l.038-.542A.78.78,0,0,1,14.978,15.317Zm-3.175.717-.038.542a.66.66,0,0,0,.667.717h.542a.781.781,0,0,0,.767-.717l.088-1.258H12.569A.78.78,0,0,0,11.8,16.034ZM7.572,6.349h.542a.78.78,0,0,0,.767-.717l.088-1.258H7.71a.78.78,0,0,0-.767.717l-.038.542A.66.66,0,0,0,7.572,6.349Zm-2.409,0H5.7a.78.78,0,0,0,.767-.717l.088-1.258H5.3a.781.781,0,0,0-.767.717L4.5,5.632A.66.66,0,0,0,5.163,6.349Zm10.6-1.86a.763.763,0,0,1,.105.6l-.13,1.2c0,.039-.024.057-.06.057h-.421c-.036,0-.052-.018-.048-.057l.1-.968c.037-.525.022-.521-.283-.536a1.881,1.881,0,0,0-.292.021,1.167,1.167,0,0,1,.007.379l-.119,1.1c0,.039-.024.057-.056.057h-.425c-.032,0-.048-.018-.044-.057L14.209,5.2c.021-.2.021-.3-.034-.354s-.108-.061-.265-.061h-.243l-.158,1.5c0,.039-.024.057-.06.057h-.421c-.036,0-.052-.018-.048-.057l.193-1.847a.058.058,0,0,1,.052-.054,3.46,3.46,0,0,1,.692-.061,1.424,1.424,0,0,1,.627.114,1.812,1.812,0,0,1,.634-.118A.791.791,0,0,1,15.759,4.489Zm1.435-.157a1.028,1.028,0,0,0-.739.2,1.408,1.408,0,0,0-.264.814,1.24,1.24,0,0,0,.093.814q.156.2.7.2a3.734,3.734,0,0,0,.687-.05.06.06,0,0,0,.056-.057l.031-.3q.006-.054-.048-.054h-.632a.481.481,0,0,1-.314-.071c-.049-.046-.063-.15-.05-.307h1.122c.089,0,.117-.025.124-.1l.012-.111a1.2,1.2,0,0,0-.1-.793C17.772,4.4,17.547,4.332,17.194,4.332Zm.257.854h-.707c.036-.311.131-.4.4-.4S17.48,4.874,17.451,5.185Zm1.793-.854a1.028,1.028,0,0,0-.739.2,1.408,1.408,0,0,0-.264.814,1.24,1.24,0,0,0,.093.814q.156.2.7.2a3.734,3.734,0,0,0,.687-.05.06.06,0,0,0,.056-.057l.031-.3q.006-.054-.048-.054h-.632a.481.481,0,0,1-.314-.071c-.049-.046-.063-.15-.05-.307h1.121c.089,0,.117-.025.124-.1l.012-.111a1.2,1.2,0,0,0-.1-.793C19.823,4.4,19.6,4.332,19.244,4.332Zm.257.854h-.707c.036-.311.131-.4.4-.4S19.53,4.874,19.5,5.185ZM22.015,4.4l-.025.243a.127.127,0,0,1-.032.068l-1,1.179h.889c.039,0,.059.018.055.054l-.036.346a.059.059,0,0,1-.067.057H20.2c-.043,0-.062-.018-.058-.057l.024-.232a.127.127,0,0,1,.032-.068l1.033-1.2h-.829c-.039,0-.059-.018-.055-.054l.036-.339a.058.058,0,0,1,.066-.054H21.96C22,4.349,22.019,4.367,22.015,4.4Zm1.785.079a1.046,1.046,0,0,0-.666-.15,3.486,3.486,0,0,0-.652.054c-.04.011-.052.018-.056.057l-.031.293c0,.043.005.054.044.054h.646c.225,0,.327.082.31.246l-.013.129h-.454a1.06,1.06,0,0,0-.57.121.611.611,0,0,0-.224.464c-.025.275.019.436.163.521a1.147,1.147,0,0,0,.6.1,3.818,3.818,0,0,0,.819-.075.12.12,0,0,0,.09-.111l.129-1.236A.516.516,0,0,0,23.8,4.482ZM23.3,5.9a1.384,1.384,0,0,1-.361.036c-.229,0-.3-.05-.281-.218s.087-.214.272-.214h.411Z" transform="translate(0)" fill="#fff"/></g></g></svg>