<?xml version="1.0" encoding="utf-8"?>
<!-- Generator: Adobe Illustrator 25.2.0, SVG Export Plug-In . SVG Version: 6.00 Build 0)  -->
<svg version="1.1" id="Layer_1" xmlns="http://www.w3.org/2000/svg" xmlns:xlink="http://www.w3.org/1999/xlink" x="0px" y="0px"
	 viewBox="0 0 248.2 514" style="enable-background:new 0 0 248.2 514;" xml:space="preserve">
<style type="text/css">
	.st0{fill:#B3B3B3;}
	.st1{fill:#222222;}
	.st2{opacity:0.2196;fill:#FFFFFF;enable-background:new    ;}
</style>
<g>
	<g>
		<defs>
			<path id="SVGID_1_" d="M234.2,478c0,12.9-10.3,23.4-23,23.4H35.4c-12.7,0-23-10.5-23-23.4V36c0-12.9,10.3-23.4,23-23.4h29.9
				c1.4,0,2.6,1.2,2.6,2.7v2.8c0,6.3,5,11.5,11.3,11.5h88.3c6.2,0,11.3-5.1,11.3-11.5v-2.8c0-1.5,1.2-2.7,2.6-2.7h29.9
				c12.7,0,23,10.5,23,23.4v442H234.2z"/>
		</defs>
		<clipPath id="SVGID_2_">
			<use xlink:href="#SVGID_1_"  style="overflow:visible;"/>
		</clipPath>
		<g style="clip-path:url(#SVGID_2_);">
			
				<image style="overflow:visible;" width="390" height="844" xlink:href="screenshots/Home–10.png"  transform="matrix(0.5813 0 0 0.5813 10.7494 11.2)">
			</image>
		</g>
	</g>
	<path class="st0" d="M240.5,477c0,16.9-13.4,30.7-30,30.7H36.2c-16.6,0-30-13.7-30-30.7V37c0-16.9,13.4-30.7,30-30.7h174.3
		c16.6,0,30,13.7,30,30.7V477z M212.1,1H34.6C16.1,1,1,16.4,1,35.4v443.2c0,19,15.1,34.4,33.6,34.4H212c18.6,0,33.6-15.4,33.6-34.4
		V35.4C245.7,16.4,230.6,1,212.1,1z"/>
	<path class="st1" d="M234.2,478c0,12.9-10.3,23.4-23,23.4H35.4c-12.7,0-23-10.5-23-23.4V36c0-12.9,10.3-23.4,23-23.4h29.9
		c1.4,0,2.6,1.2,2.6,2.7v2.8c0,6.3,5,11.5,11.3,11.5h88.3c6.2,0,11.3-5.1,11.3-11.5v-2.8c0-1.5,1.2-2.7,2.6-2.7h29.9
		c12.7,0,23,10.5,23,23.4v442H234.2z M211.2,5.2h-32.5H67.9H35.4C18.7,5.2,5.2,19,5.2,36v442c0,17,13.5,30.8,30.3,30.8h175.8
		c16.7,0,30.3-13.8,30.3-30.8V36C241.5,19,228,5.2,211.2,5.2z"/>
	<path class="st2" d="M146,11.2c0.5,0,1,0.1,1.4,0.3c0.5,0.2,0.9,0.5,1.2,0.8s0.6,0.8,0.8,1.2c0.2,0.5,0.3,0.9,0.3,1.4
		s-0.1,1-0.3,1.4c-0.2,0.5-0.5,0.9-0.8,1.2c-0.3,0.3-0.8,0.6-1.2,0.8c-0.5,0.2-0.9,0.3-1.4,0.3s-1-0.1-1.4-0.3
		c-0.5-0.2-0.9-0.5-1.2-0.8s-0.6-0.8-0.8-1.2c-0.2-0.5-0.3-0.9-0.3-1.4s0.1-1,0.3-1.4c0.2-0.5,0.5-0.9,0.8-1.2s0.8-0.6,1.2-0.8
		C145.1,11.3,145.6,11.2,146,11.2z"/>
	<path class="st2" d="M113.2,14.9c0-0.3,0.1-0.6,0.2-0.8c0.1-0.3,0.3-0.5,0.5-0.7s0.4-0.4,0.7-0.5c0.3-0.1,0.5-0.2,0.8-0.2h16.4
		c0.3,0,0.6,0.1,0.8,0.2c0.3,0.1,0.5,0.3,0.7,0.5s0.4,0.4,0.5,0.7s0.2,0.5,0.2,0.8s-0.1,0.6-0.2,0.8c-0.1,0.3-0.3,0.5-0.5,0.7
		c-0.2,0.2-0.4,0.4-0.7,0.5s-0.5,0.2-0.8,0.2h-16.4c-0.3,0-0.6-0.1-0.8-0.2c-0.3-0.1-0.5-0.3-0.7-0.5s-0.4-0.4-0.5-0.7
		C113.3,15.5,113.2,15.2,113.2,14.9z"/>
	<path class="st1" d="M245.7,78.5V62.3c0.2,0,0.4,0,0.6,0.1c0.2,0.1,0.3,0.2,0.5,0.3c0.1,0.1,0.3,0.3,0.3,0.5
		c0.1,0.2,0.1,0.4,0.1,0.6V77c0,0.2,0,0.4-0.1,0.6s-0.2,0.3-0.3,0.5c-0.1,0.1-0.3,0.3-0.5,0.3C246.1,78.5,245.9,78.5,245.7,78.5z"/>
	<path class="st1" d="M245.7,136.1v-29.8c0.2,0,0.4,0,0.6,0.1c0.2,0.1,0.3,0.2,0.5,0.3c0.1,0.1,0.3,0.3,0.3,0.5
		c0.1,0.2,0.1,0.4,0.1,0.6v26.7c0,0.2,0,0.4-0.1,0.6c-0.1,0.2-0.2,0.3-0.3,0.5c-0.1,0.1-0.3,0.3-0.5,0.3
		C246.1,136,245.9,136.1,245.7,136.1z"/>
</g>
</svg>
