<svg xmlns="http://www.w3.org/2000/svg" width="127" height="24" viewBox="0 0 127 24"><g transform="translate(-232 -147)"><rect width="37" height="24" rx="3" transform="translate(277 147)" fill="#003276"/><g transform="translate(-891.435 -213.545)"><path d="M1237.583,377.871a7.057,7.057,0,0,0,4.789,1.864,7.19,7.19,0,0,0,0-14.379,7.055,7.055,0,0,0-4.789,1.864,7.195,7.195,0,0,0,0,10.652Z" transform="translate(-50.642)" fill="#e9b040" fill-rule="evenodd"/><path d="M1189.249,371.786c-.025-.259-.074-.506-.124-.765h-4.369a7.541,7.541,0,0,1,.2-.753h3.962q-.129-.39-.3-.765h-3.357q.185-.392.407-.765h2.531a6.513,6.513,0,0,0-.543-.753h-1.444a7.08,7.08,0,0,1,.728-.765,7.19,7.19,0,1,0,0,10.652,6.814,6.814,0,0,0,.716-.753h-1.444a8.542,8.542,0,0,1-.543-.765h2.531a5.75,5.75,0,0,0,.42-.765h-3.357a8.056,8.056,0,0,1-.309-.753h3.962a7.733,7.733,0,0,0,.21-.765,6.932,6.932,0,0,0,.161-1.518c0-.259-.012-.518-.037-.765Z" transform="translate(0)" fill="#cc2131" fill-rule="evenodd"/><path d="M1195.319,399.184l-.136.79a1.483,1.483,0,0,0-.691-.2c-.58,0-.987.568-.987,1.37,0,.556.271.889.728.889a1.514,1.514,0,0,0,.654-.185l-.136.827a2.572,2.572,0,0,1-.679.111c-.839,0-1.358-.605-1.358-1.58,0-1.3.716-2.21,1.74-2.21a1.52,1.52,0,0,1,.358.037l.309.074c.1.037.124.05.2.074Zm-2.493.543h-.074c-.259,0-.407.124-.642.481l.074-.457h-.7l-.481,2.962h.778c.284-1.814.358-2.123.728-2.123h.049a3.1,3.1,0,0,1,.3-.852l-.025-.012Zm-4.468,2.95a1.6,1.6,0,0,1-.555.1.571.571,0,0,1-.617-.654,2.038,2.038,0,0,1,.025-.259l.049-.3.037-.234.333-2.024h.765l-.086.444h.395l-.1.728h-.4l-.21,1.234a.461.461,0,0,0-.012.124c0,.148.074.21.259.21a.513.513,0,0,0,.21-.025l-.1.654Zm-2.975-1.987a.864.864,0,0,0,.58.827c.321.148.37.2.37.321,0,.185-.136.271-.444.271a2.31,2.31,0,0,1-.691-.111l-.111.679.037.012.136.025a.807.807,0,0,0,.21.025,2.858,2.858,0,0,0,.42.025c.815,0,1.2-.309,1.2-.987a.821.821,0,0,0-.543-.827c-.333-.148-.37-.185-.37-.321,0-.16.136-.235.382-.235a4.8,4.8,0,0,1,.556.037l.111-.679a4.462,4.462,0,0,0-.679-.062c-.864,0-1.173.457-1.16,1Zm15.848,2.024h-.728l.037-.284a.925.925,0,0,1-.716.321c-.568,0-.938-.481-.938-1.222,0-.987.58-1.827,1.259-1.827a.888.888,0,0,1,.741.407l.172-1.037h.765l-.592,3.641Zm-1.136-.691c.358,0,.6-.42.6-1,0-.383-.136-.58-.408-.58-.345,0-.6.407-.6.988q0,.593.407.592Zm-9.368.629a2.532,2.532,0,0,1-.8.123,1.176,1.176,0,0,1-1.308-1.333c0-1.012.568-1.765,1.346-1.765a.992.992,0,0,1,1.049,1.074,2.988,2.988,0,0,1-.1.741h-1.53a.241.241,0,0,0-.012.087c0,.346.235.518.679.518a1.7,1.7,0,0,0,.8-.185l-.124.741Zm-.432-1.765v-.148a.342.342,0,0,0-.37-.383c-.247,0-.42.185-.494.531Zm-7.862,1.827h-.765l.444-2.8-1,2.8h-.531l-.062-2.777-.469,2.777h-.716l.6-3.641h1.111l.037,2.259.74-2.259h1.21l-.6,3.641Zm1.913-1.321c-.074,0-.111-.012-.173-.012-.432,0-.654.16-.654.457a.26.26,0,0,0,.271.3c.321,0,.543-.3.555-.741Zm.568,1.321h-.642l.012-.309a.961.961,0,0,1-.814.358.717.717,0,0,1-.7-.8c0-.728.494-1.148,1.358-1.148.086,0,.2.012.321.025a.623.623,0,0,0,.025-.185c0-.2-.136-.272-.494-.272a2.541,2.541,0,0,0-.642.074l-.111.037-.074.012.111-.667a3.1,3.1,0,0,1,.926-.148c.667,0,1.025.3,1.025.864a3.728,3.728,0,0,1-.062.593l-.173,1.049-.025.185-.013.148-.012.111-.012.074Zm11.652-1.321c-.087,0-.123-.012-.173-.012-.444,0-.667.16-.667.457a.269.269,0,0,0,.284.3c.309,0,.543-.3.555-.741Zm.568,1.321h-.642l.012-.309a.961.961,0,0,1-.814.358.717.717,0,0,1-.7-.8c0-.728.494-1.148,1.358-1.148a3.094,3.094,0,0,1,.308.025.776.776,0,0,0,.037-.185c0-.2-.136-.272-.494-.272a2.645,2.645,0,0,0-.654.074l-.1.037-.074.012.111-.667a3.105,3.105,0,0,1,.926-.148c.667,0,1.012.3,1.012.864a2.659,2.659,0,0,1-.062.593l-.161,1.049-.025.185-.025.148-.012.111v.074Zm2.074-2.987h-.074c-.259,0-.407.124-.642.481l.074-.457h-.7l-.469,2.962h.765c.284-1.814.358-2.123.729-2.123h.049a3.1,3.1,0,0,1,.3-.852l-.025-.012Z" transform="translate(-3.651 -28.287)" fill="#fff" fill-rule="evenodd"/></g><g transform="translate(45)"><rect width="37" height="24" rx="3" transform="translate(277 147)" fill="#3c016f"/><g transform="translate(281.956 148.178)"><path d="M190.826,7.57h.542a.78.78,0,0,0,.767-.717l.038-.542a.66.66,0,0,0-.667-.717h-1.258l-.088,1.258A.66.66,0,0,0,190.826,7.57Z" transform="translate(-180.17 -1.221)" fill="#ff5209"/><path d="M376.642,304.83a.983.983,0,0,0-.966.9L375.6,306.8h5.49a.983.983,0,0,0,.966-.9l.075-1.072Z" transform="translate(-358.832 -289.513)" fill="#ff5209"/><path d="M3.35,9.394l-.195,2.792A2.221,2.221,0,0,0,5.4,14.6h.8a2.629,2.629,0,0,0,2.582-2.414l.363-5.205H5.932A2.629,2.629,0,0,0,3.35,9.394Zm3.46,2.792a.478.478,0,0,1-.469.439h-.8a.4.4,0,0,1-.408-.439l.195-2.792a.479.479,0,0,1,.469-.439H7.035ZM20.133,14.6h.8a2.629,2.629,0,0,0,2.582-2.414l.195-2.792a2.221,2.221,0,0,0-2.245-2.414H18.251L18.09,9.287l-.187,2.67a.891.891,0,0,1-.874.817.753.753,0,0,1-.76-.817l.186-2.67L16.546,8A.937.937,0,0,0,15.6,6.981h-.957l-.094,1.344-.214,3.063a1.512,1.512,0,0,1-1.484,1.387,1.278,1.278,0,0,1-1.289-1.387l.214-3.063L11.8,8a.937.937,0,0,0-.947-1.018H9.895L9.173,17.317h.957A1.108,1.108,0,0,0,11.219,16.3l.129-1.848a3.209,3.209,0,0,0,1.366.3,3.5,3.5,0,0,0,1.408-.3,3.693,3.693,0,0,0,.851-.523,2.546,2.546,0,0,0,1.111.7,2.706,2.706,0,0,0,.808.121,2.962,2.962,0,0,0,1.82-.637A2.258,2.258,0,0,0,20.133,14.6Zm-.045-5.644H21.33a.4.4,0,0,1,.408.439l-.195,2.792a.479.479,0,0,1-.469.439h-.8a.4.4,0,0,1-.408-.439Zm-5.11,6.362h1.258l-.088,1.258a.78.78,0,0,1-.767.717H14.84a.66.66,0,0,1-.667-.717l.038-.542A.78.78,0,0,1,14.978,15.317Zm-3.175.717-.038.542a.66.66,0,0,0,.667.717h.542a.781.781,0,0,0,.767-.717l.088-1.258H12.569A.78.78,0,0,0,11.8,16.034ZM7.572,6.349h.542a.78.78,0,0,0,.767-.717l.088-1.258H7.71a.78.78,0,0,0-.767.717l-.038.542A.66.66,0,0,0,7.572,6.349Zm-2.409,0H5.7a.78.78,0,0,0,.767-.717l.088-1.258H5.3a.781.781,0,0,0-.767.717L4.5,5.632A.66.66,0,0,0,5.163,6.349Zm10.6-1.86a.763.763,0,0,1,.105.6l-.13,1.2c0,.039-.024.057-.06.057h-.421c-.036,0-.052-.018-.048-.057l.1-.968c.037-.525.022-.521-.283-.536a1.881,1.881,0,0,0-.292.021,1.167,1.167,0,0,1,.007.379l-.119,1.1c0,.039-.024.057-.056.057h-.425c-.032,0-.048-.018-.044-.057L14.209,5.2c.021-.2.021-.3-.034-.354s-.108-.061-.265-.061h-.243l-.158,1.5c0,.039-.024.057-.06.057h-.421c-.036,0-.052-.018-.048-.057l.193-1.847a.058.058,0,0,1,.052-.054,3.46,3.46,0,0,1,.692-.061,1.424,1.424,0,0,1,.627.114,1.812,1.812,0,0,1,.634-.118A.791.791,0,0,1,15.759,4.489Zm1.435-.157a1.028,1.028,0,0,0-.739.2,1.408,1.408,0,0,0-.264.814,1.24,1.24,0,0,0,.093.814q.156.2.7.2a3.734,3.734,0,0,0,.687-.05.06.06,0,0,0,.056-.057l.031-.3q.006-.054-.048-.054h-.632a.481.481,0,0,1-.314-.071c-.049-.046-.063-.15-.05-.307h1.122c.089,0,.117-.025.124-.1l.012-.111a1.2,1.2,0,0,0-.1-.793C17.772,4.4,17.547,4.332,17.194,4.332Zm.257.854h-.707c.036-.311.131-.4.4-.4S17.48,4.874,17.451,5.185Zm1.793-.854a1.028,1.028,0,0,0-.739.2,1.408,1.408,0,0,0-.264.814,1.24,1.24,0,0,0,.093.814q.156.2.7.2a3.734,3.734,0,0,0,.687-.05.06.06,0,0,0,.056-.057l.031-.3q.006-.054-.048-.054h-.632a.481.481,0,0,1-.314-.071c-.049-.046-.063-.15-.05-.307h1.121c.089,0,.117-.025.124-.1l.012-.111a1.2,1.2,0,0,0-.1-.793C19.823,4.4,19.6,4.332,19.244,4.332Zm.257.854h-.707c.036-.311.131-.4.4-.4S19.53,4.874,19.5,5.185ZM22.015,4.4l-.025.243a.127.127,0,0,1-.032.068l-1,1.179h.889c.039,0,.059.018.055.054l-.036.346a.059.059,0,0,1-.067.057H20.2c-.043,0-.062-.018-.058-.057l.024-.232a.127.127,0,0,1,.032-.068l1.033-1.2h-.829c-.039,0-.059-.018-.055-.054l.036-.339a.058.058,0,0,1,.066-.054H21.96C22,4.349,22.019,4.367,22.015,4.4Zm1.785.079a1.046,1.046,0,0,0-.666-.15,3.486,3.486,0,0,0-.652.054c-.04.011-.052.018-.056.057l-.031.293c0,.043.005.054.044.054h.646c.225,0,.327.082.31.246l-.013.129h-.454a1.06,1.06,0,0,0-.57.121.611.611,0,0,0-.224.464c-.025.275.019.436.163.521a1.147,1.147,0,0,0,.6.1,3.818,3.818,0,0,0,.819-.075.12.12,0,0,0,.09-.111l.129-1.236A.516.516,0,0,0,23.8,4.482ZM23.3,5.9a1.384,1.384,0,0,1-.361.036c-.229,0-.3-.05-.281-.218s.087-.214.272-.214h.411Z" transform="translate(0)" fill="#fff"/></g></g><rect width="37" height="24" rx="3" transform="translate(232 147)" fill="#15216c"/><g transform="translate(38.434 -754.299)"><g transform="translate(198.015 908.74)"><path d="M210.2,917.7H207.9l1.433-8.807h2.293Zm-4.222-8.807-2.186,6.058-.259-1.3h0l-.772-3.961a.982.982,0,0,0-1.088-.793h-3.614l-.042.149a8.577,8.577,0,0,1,2.4,1.007l1.992,7.652h2.389l3.648-8.808Zm18.036,8.807h2.106l-1.836-8.808h-1.843a1.054,1.054,0,0,0-1.059.656l-3.42,8.151h2.39l.478-1.308h2.915l.269,1.308Zm-2.523-3.116,1.2-3.3.678,3.3Zm-3.349-3.574.327-1.891a6.619,6.619,0,0,0-2.062-.384c-1.138,0-3.84.5-3.84,2.916,0,2.275,3.172,2.3,3.172,3.5s-2.845.981-3.784.227l-.341,1.978a6.425,6.425,0,0,0,2.588.5c1.565,0,3.925-.81,3.925-3.015,0-2.29-3.2-2.5-3.2-3.5s2.233-.868,3.215-.327Z" transform="translate(-198.015 -908.74)" fill="#fff"/></g><path d="M203.531,925.259l-.772-3.961a.982.982,0,0,0-1.088-.793h-3.614l-.042.149a8.885,8.885,0,0,1,3.4,1.709A6.868,6.868,0,0,1,203.531,925.259Z" transform="translate(0 -11.608)" fill="#e6a540"/></g></g></svg>