<?xml version="1.0" encoding="utf-8"?>
<!-- Generator: Adobe Illustrator 25.2.0, SVG Export Plug-In . SVG Version: 6.00 Build 0)  -->
<svg version="1.1" id="artwork" xmlns="http://www.w3.org/2000/svg" xmlns:xlink="http://www.w3.org/1999/xlink" x="0px" y="0px"
	 viewBox="0 0 203 63" style="enable-background:new 0 0 203 63;" xml:space="preserve">
<style type="text/css">
	.st0{fill:#ACACAC;}
	.st1{fill:url(#SVGID_1_);}
	.st2{fill:#FFFFFF;}
	.st3{fill:url(#SVGID_2_);}
	.st4{fill:url(#SVGID_3_);}
	.st5{fill:url(#SVGID_4_);}
	.st6{fill:url(#SVGID_5_);}
	.st7{opacity:0.2;enable-background:new    ;}
	.st8{opacity:0.12;enable-background:new    ;}
	.st9{opacity:0.25;fill:#FFFFFF;enable-background:new    ;}
</style>
<g>
	<g>
		<path class="st0" d="M193.9,62.5H9.1c-4.8,0-8.6-3.9-8.6-8.6V9.1c0-4.8,3.9-8.6,8.6-8.6h184.7c4.8,0,8.6,3.9,8.6,8.6v44.7
			C202.5,58.6,198.6,62.5,193.9,62.5z"/>
		<path d="M193.9,60.5H9.1c-3.7,0-6.6-3-6.6-6.6V9.1c0-3.7,3-6.6,6.6-6.6h184.7c3.7,0,6.6,3,6.6,6.6v44.7
			C200.5,57.5,197.5,60.5,193.9,60.5z"/>
		<linearGradient id="SVGID_1_" gradientUnits="userSpaceOnUse" x1="143.1612" y1="62.5" x2="143.1612" y2="0.5">
			<stop  offset="0" style="stop-color:#1A1A1A;stop-opacity:0.1"/>
			<stop  offset="0.123" style="stop-color:#212121;stop-opacity:0.151"/>
			<stop  offset="0.308" style="stop-color:#353535;stop-opacity:0.227"/>
			<stop  offset="0.532" style="stop-color:#575757;stop-opacity:0.318"/>
			<stop  offset="0.783" style="stop-color:#858585;stop-opacity:0.421"/>
			<stop  offset="1" style="stop-color:#B3B3B3;stop-opacity:0.51"/>
		</linearGradient>
		<path class="st1" d="M193.9,62.5h-70.1l-39.9-62h110c4.8,0,8.6,3.9,8.6,8.6v44.7C202.5,58.6,198.6,62.5,193.9,62.5z"/>
	</g>
	<g>
		<path class="st2" d="M101.9,33.5c-3.4,0-6,2.5-6,6c0,3.4,2.7,6,6,6c3.4,0,6-2.5,6-6C107.9,35.9,105.3,33.5,101.9,33.5z M101.9,43
			c-1.8,0-3.4-1.5-3.4-3.6c0-2.1,1.5-3.6,3.4-3.6c1.8,0,3.4,1.4,3.4,3.6C105.3,41.5,103.7,43,101.9,43z M88.9,33.5c-3.4,0-6,2.5-6,6
			c0,3.4,2.7,6,6,6c3.4,0,6-2.5,6-6C94.9,35.9,92.3,33.5,88.9,33.5z M88.9,43c-1.8,0-3.4-1.5-3.4-3.6c0-2.1,1.5-3.6,3.4-3.6
			s3.4,1.4,3.4,3.6C92.3,41.5,90.7,43,88.9,43z M73.4,35.3v2.5h6c-0.1,1.4-0.7,2.5-1.4,3.2c-0.8,0.8-2.2,1.8-4.6,1.8
			c-3.8,0-6.6-2.9-6.6-6.7s2.9-6.7,6.6-6.7c2,0,3.5,0.8,4.6,1.8l1.8-1.8c-1.5-1.4-3.5-2.5-6.3-2.5c-5,0-9.4,4.2-9.4,9.2
			s4.3,9.2,9.4,9.2c2.8,0,4.8-0.8,6.4-2.7c1.7-1.7,2.2-4.1,2.2-5.9c0-0.6,0-1.1-0.1-1.5C82.1,35.3,73.4,35.3,73.4,35.3z M136.9,37.3
			c-0.6-1.4-2-3.8-5-3.8c-3.1,0-5.6,2.4-5.6,6c0,3.4,2.5,6,5.9,6c2.7,0,4.3-1.7,4.9-2.7l-2-1.4c-0.7,1-1.5,1.7-2.9,1.7
			c-1.4,0-2.2-0.6-2.9-1.8l8-3.4L136.9,37.3z M128.8,39.3c0-2.2,1.8-3.5,3.1-3.5c1,0,2,0.6,2.2,1.3L128.8,39.3z M122.2,45h2.7V27.5
			h-2.7V45z M118,34.8L118,34.8c-0.7-0.7-1.8-1.4-3.2-1.4c-2.9,0-5.7,2.7-5.7,6c0,3.4,2.7,5.9,5.7,5.9c1.4,0,2.5-0.7,3.1-1.4h0.1
			v0.8c0,2.2-1.3,3.5-3.2,3.5c-1.5,0-2.7-1.1-2.9-2.1l-2.2,1c0.7,1.5,2.4,3.5,5.3,3.5c3.1,0,5.6-1.8,5.6-6.2V33.8H118
			C118,33.8,118,34.8,118,34.8z M114.9,43c-1.8,0-3.4-1.5-3.4-3.6c0-2.1,1.5-3.6,3.4-3.6s3.2,1.5,3.2,3.6
			C118.1,41.5,116.8,43,114.9,43z M149.1,27.5h-6.3V45h2.7v-6.6h3.6c2.9,0,5.7-2.1,5.7-5.5C154.8,29.6,152,27.5,149.1,27.5z
			 M149.2,35.9h-3.8v-6h3.8c2,0,3.1,1.7,3.1,2.9C152.1,34.4,151,35.9,149.2,35.9z M165.3,33.4c-2,0-3.9,0.8-4.6,2.7l2.4,1
			c0.6-1,1.4-1.3,2.4-1.3c1.4,0,2.7,0.8,2.8,2.2v0.1c-0.4-0.3-1.5-0.7-2.7-0.7c-2.5,0-5,1.4-5,3.9c0,2.4,2.1,3.9,4.3,3.9
			c1.8,0,2.7-0.8,3.4-1.7h0.1V45h2.5v-6.7C170.6,35.2,168.2,33.4,165.3,33.4z M165,43c-0.8,0-2.1-0.4-2.1-1.5c0-1.4,1.5-1.8,2.8-1.8
			c1.1,0,1.7,0.3,2.4,0.6C167.8,41.9,166.4,43,165,43z M179.7,33.8l-2.9,7.6h-0.1l-3.1-7.6h-2.8l4.6,10.6l-2.7,5.9h2.7l7.1-16.5
			H179.7z M156.2,45h2.7V27.5h-2.7V45z"/>
		<path class="st2" d="M68.9,21.6c-1.3,0-2.4-0.4-3.3-1.3c-0.9-0.9-1.3-2-1.3-3.3c0-1.3,0.4-2.4,1.3-3.3c0.9-0.9,2-1.3,3.3-1.3
			c0.6,0,1.2,0.2,1.8,0.5c0.5,0.3,1,0.6,1.4,1.1l0.1,0.2l-1.1,1.1L70.9,15c-0.5-0.6-1.1-0.9-2-0.9c-0.9,0-1.6,0.3-2,0.9
			c-0.6,0.5-0.9,1.2-0.9,2.2s0.3,1.7,0.9,2.2c0.6,0.5,1.3,0.9,2.1,0.9c0.9,0,1.5-0.3,2.2-0.9c0.3-0.3,0.5-0.7,0.6-1.2h-3.1v-1.5h4.6
			v0.7c0,1.3-0.4,2.3-1.1,3C71.3,21.2,70.2,21.6,68.9,21.6z M79.7,21.5v-1.7h-3.8v-2.1h3.5v-1.5h-3.5v-2.1h3.8v-1.5h-5.5v9H79.7z
			 M84.3,21.5v-7.4h2.4v-1.5h-6.4v1.5h2.4v7.4H84.3z M91.8,21.5v-9h-1.7v9H91.8z M96.5,21.5v-7.4h2.4v-1.5h-6.3v1.5h2.4v7.4H96.5z
			 M109.8,20.3c0.9-0.9,1.3-2,1.3-3.3c0-1.3-0.4-2.4-1.3-3.3c-0.9-0.9-2-1.3-3.3-1.3c-1.3,0-2.4,0.4-3.3,1.3c-0.9,0.9-1.3,2-1.3,3.3
			c0,1.3,0.4,2.4,1.3,3.3c0.9,0.9,2,1.3,3.3,1.3C107.8,21.6,108.9,21.2,109.8,20.3z M108.6,14.9c0.6,0.5,0.9,1.2,0.9,2.2
			c0,0.8-0.3,1.6-0.9,2.2c-0.5,0.6-1.2,0.9-2,0.9c-0.7,0-1.5-0.3-2.1-0.9c-0.6-0.5-0.9-1.2-0.9-2.2c0-0.8,0.3-1.6,0.9-2.2
			c0.5-0.6,1.2-0.9,2-0.9C107.2,13.9,108,14.3,108.6,14.9z M119.1,21.5v-9h-1.7v5.9l-3.6-5.9h-1.7v9h1.5v-6.2l3.9,6.2H119.1z"/>
		<g>
			
				<linearGradient id="SVGID_2_" gradientUnits="userSpaceOnUse" x1="37.0986" y1="325.1725" x2="13.6181" y2="348.653" gradientTransform="matrix(1 0 0 1 0 -310)">
				<stop  offset="0" style="stop-color:#00A0FF"/>
				<stop  offset="6.574450e-03" style="stop-color:#00A1FF"/>
				<stop  offset="0.2601" style="stop-color:#00BEFF"/>
				<stop  offset="0.5122" style="stop-color:#00D2FF"/>
				<stop  offset="0.7604" style="stop-color:#00DFFF"/>
				<stop  offset="1" style="stop-color:#00E3FF"/>
			</linearGradient>
			<path class="st3" d="M21.2,13.5c-0.4,0.4-0.7,1.1-0.7,2v30.9c0,0.8,0.3,1.5,0.7,2l0.1,0.1l17.3-17.3V31v-0.1L21.2,13.5L21.2,13.5
				z"/>
			
				<linearGradient id="SVGID_3_" gradientUnits="userSpaceOnUse" x1="53.9781" y1="341.0805" x2="20.1238" y2="341.0805" gradientTransform="matrix(1 0 0 1 0 -310)">
				<stop  offset="0" style="stop-color:#FFE000"/>
				<stop  offset="0.4087" style="stop-color:#FFBD00"/>
				<stop  offset="0.7754" style="stop-color:#FFA500"/>
				<stop  offset="1" style="stop-color:#FF9C00"/>
			</linearGradient>
			<path class="st4" d="M44.4,37l-5.7-5.7V31v-0.1l5.7-5.7l0.1,0.1l6.9,3.9c2,1.1,2,2.9,0,4.1L44.4,37L44.4,37z"/>
			
				<linearGradient id="SVGID_4_" gradientUnits="userSpaceOnUse" x1="41.3596" y1="344.2069" x2="9.518" y2="376.0484" gradientTransform="matrix(1 0 0 1 0 -310)">
				<stop  offset="0" style="stop-color:#FF3A44"/>
				<stop  offset="1" style="stop-color:#C31162"/>
			</linearGradient>
			<path class="st5" d="M44.6,36.9L38.7,31L21.2,48.5c0.7,0.7,1.7,0.7,2.9,0.1L44.6,36.9"/>
			
				<linearGradient id="SVGID_5_" gradientUnits="userSpaceOnUse" x1="16.7998" y1="313.3245" x2="31.0185" y2="327.543" gradientTransform="matrix(1 0 0 1 0 -310)">
				<stop  offset="0" style="stop-color:#32A071"/>
				<stop  offset="6.850000e-02" style="stop-color:#2DA771"/>
				<stop  offset="0.4762" style="stop-color:#15CF74"/>
				<stop  offset="0.8009" style="stop-color:#06E775"/>
				<stop  offset="1" style="stop-color:#00F076"/>
			</linearGradient>
			<path class="st6" d="M44.6,25.1L24.1,13.5c-1.3-0.7-2.2-0.6-2.9,0.1L38.7,31L44.6,25.1z"/>
			<g>
				<path class="st7" d="M44.4,36.7L24.1,48.2c-1.1,0.7-2.1,0.6-2.8,0l0,0l-0.1,0.1l0,0l0.1,0.1l0,0c0.7,0.6,1.7,0.7,2.8,0
					L44.4,36.7L44.4,36.7z"/>
				<path class="st8" d="M21.2,48.2c-0.4-0.4-0.6-1.1-0.6-2v0.1c0,0.8,0.3,1.5,0.7,2v-0.1H21.2z"/>
			</g>
			<path class="st8" d="M51.4,32.8l-7,3.9l0.1,0.1l6.9-3.9c1-0.6,1.4-1.3,1.4-2l0,0C52.8,31.7,52.3,32.3,51.4,32.8z"/>
			<path class="st9" d="M24.1,13.7l27.3,15.5c0.8,0.6,1.4,1.1,1.4,1.8l0,0c0-0.7-0.4-1.4-1.4-2L24.1,13.5c-2-1.1-3.5-0.1-3.5,2.1
				v0.1C20.6,13.5,22.2,12.5,24.1,13.7z"/>
		</g>
	</g>
</g>
</svg>
