<svg xmlns="http://www.w3.org/2000/svg" width="192.198" height="180.649" viewBox="0 0 192.198 180.649"><g transform="translate(-22.927 -41.271)"><g transform="translate(84.049 184.341)"><rect width="44.183" height="34.078" transform="translate(0 0.092)" fill="#ebebeb"/><g transform="translate(33.003)"><path d="M244.92,412.463c-.061,0-.111-7.6-.111-16.964s.05-16.965.111-16.965.11,7.594.11,16.965S244.981,412.463,244.92,412.463Z" transform="translate(-244.809 -378.533)" fill="#e0e0e0"/></g><rect width="3.387" height="3.829" transform="translate(37.05 26.413)" fill="#fafafa"/><rect width="5.019" height="7.271" transform="translate(13.479 0.18)" fill="#e0e0e0"/><rect width="5.019" height="7.271" transform="translate(13.479 26.797)" fill="#e0e0e0"/></g><g transform="translate(152.69 175.773)"><rect width="55.71" height="42.968" transform="translate(0 0.116)" fill="#ebebeb"/><g transform="translate(41.641)"><path d="M427.093,401.117c-.061,0-.11-9.577-.11-21.39s.049-21.391.11-21.391.111,9.575.111,21.391S427.154,401.117,427.093,401.117Z" transform="translate(-426.983 -358.336)" fill="#e0e0e0"/></g><rect width="4.271" height="4.828" transform="translate(46.715 33.304)" fill="#fafafa"/><rect width="6.328" height="9.168" transform="translate(16.995 0.227)" fill="#e0e0e0"/><rect width="6.328" height="9.168" transform="translate(16.995 33.788)" fill="#e0e0e0"/></g><g transform="translate(22.927 146.73)"><g transform="translate(22.127 29.313)"><path d="M77.791,360.083a11.948,11.948,0,0,1,7.413-.9,6.159,6.159,0,0,1,3.662,1.634,2.635,2.635,0,0,1,.038,3.656,3.508,3.508,0,0,1-2.309.586c-1.959-.023-4.134-.368-5.7.812-.893.672-1.488,1.791-2.556,2.121a2.524,2.524,0,0,1-2.777-1.236,4.315,4.315,0,0,1-.314-3.185A4.862,4.862,0,0,1,77.791,360.083Z" transform="translate(-75.088 -358.973)" fill="#ebebeb"/></g><g transform="translate(18.363)"><g transform="translate(0)"><path d="M67.517,310.323c1.379,1.969,4.058,1.317,5.3.115a10.014,10.014,0,0,0,2.245-4.605c1.092-3.8,2.194-7.777,1.381-11.642a6.465,6.465,0,0,0-1.487-3.165,3.379,3.379,0,0,0-3.2-1.066c-1.352.357-2.191,1.68-2.8,2.939a27.758,27.758,0,0,0-2.743,11.911,9.627,9.627,0,0,0,1.3,5.514" transform="translate(-66.215 -289.872)" fill="#ebebeb"/></g></g><g transform="translate(0 6.336)"><path d="M38.806,321.749a7.165,7.165,0,0,0,1.115-6.593,12.713,12.713,0,0,0-3.905-5.665,21.033,21.033,0,0,0-6.994-4.126,7.457,7.457,0,0,0-3.145-.534,3.3,3.3,0,0,0-2.639,1.6c-.736,1.4-.03,3.106.733,4.5a53.326,53.326,0,0,0,4.593,6.995,12.434,12.434,0,0,0,5.052,4.328c2.1.8,4.278.708,5.39-.747" transform="translate(-22.927 -304.808)" fill="#ebebeb"/></g><g transform="translate(19.546 32.048)"><path d="M69.029,383.527a4.337,4.337,0,0,0,.125-.895c.063-.651.143-1.469.238-2.442a35.242,35.242,0,0,1,.549-3.582,27.629,27.629,0,0,1,1.3-4.228,15.582,15.582,0,0,1,2.159-3.825,8.054,8.054,0,0,1,2.729-2.269,7.634,7.634,0,0,1,2.3-.716,4.28,4.28,0,0,0,.891-.129,4.222,4.222,0,0,0-.907-.014,6.977,6.977,0,0,0-2.4.624,8.048,8.048,0,0,0-2.879,2.289,15.219,15.219,0,0,0-2.238,3.9,25.836,25.836,0,0,0-1.293,4.3,30.228,30.228,0,0,0-.476,3.627c-.078,1.037-.107,1.877-.121,2.457A4.174,4.174,0,0,0,69.029,383.527Z" transform="translate(-69.004 -365.419)" fill="#e0e0e0"/></g><g transform="translate(19.546 7.912)"><path d="M69.2,348.888a1.766,1.766,0,0,0,.024-.415c0-.312,0-.705,0-1.187,0-1.03,0-2.522.053-4.363.091-3.683.409-7.646,1.021-13.234.58-5.254,1.358-11.368,2.18-15.344.176-.9.353-1.718.521-2.43s.3-1.33.426-1.828l.277-1.154a1.77,1.77,0,0,0,.073-.409,1.764,1.764,0,0,0-.144.389l-.344,1.138c-.153.494-.31,1.105-.489,1.816s-.382,1.521-.575,2.424a134.687,134.687,0,0,0-2.292,14.238c-.614,5.6-.89,10.7-.915,14.389-.022,1.846.017,3.34.064,4.371.029.482.053.875.073,1.187A1.75,1.75,0,0,0,69.2,348.888Z" transform="translate(-69.004 -308.524)" fill="#e0e0e0"/></g><g transform="translate(6.611 10.919)"><path d="M51.665,343.136a7.865,7.865,0,0,0-.008-1.24c-.046-.8-.155-1.949-.38-3.36a44.278,44.278,0,0,0-1.093-4.9,40.086,40.086,0,0,0-2.047-5.793,30.869,30.869,0,0,0-6.012-9.361,15.31,15.31,0,0,0-1.414-1.315c-.217-.184-.409-.367-.6-.512l-.549-.378a7.884,7.884,0,0,0-1.044-.669,37.108,37.108,0,0,1,3.423,3.053,32.524,32.524,0,0,1,5.862,9.328,45.866,45.866,0,0,1,2.059,5.74c.537,1.8.893,3.453,1.163,4.847s.4,2.537.494,3.327A8.079,8.079,0,0,0,51.665,343.136Z" transform="translate(-38.511 -315.611)" fill="#e0e0e0"/></g><g transform="translate(9.602 54.295)"><path d="M45.563,417.864l.985,13.5H63.889l.985-13.5Z" transform="translate(-45.563 -417.864)" fill="#ebebeb"/></g><g transform="translate(7.927 48.975)"><rect width="23.056" height="5.321" fill="#ebebeb"/></g><g transform="translate(7.927 67.277)"><path d="M41.614,448.467v1.475H64.289v-1.475Z" transform="translate(-41.614 -448.467)" fill="#e0e0e0"/></g><g transform="translate(9.011 68.589)"><path d="M45.23,454.154l-1.062-2.6H64.934l-1.239,2.6Z" transform="translate(-44.168 -451.559)" fill="#e0e0e0"/></g><g transform="translate(9.895 56.811)"><path d="M64.949,425.69a.545.545,0,0,1-.081.124l-.259.344L63.6,427.45l-.045.057-.044-.06-2.482-3.432h.143l-2.443,3.46-.077.109-.086-.1-2.9-3.448.167,0-.16.2-2.591,3.249-.087.108-.08-.112-2.445-3.459.142.007-3.011,3.431-.053.061-.041-.069-.943-1.584-.242-.422a.683.683,0,0,1-.074-.15.643.643,0,0,1,.1.134l.268.406.99,1.555-.094-.008,2.962-3.472.075-.087.067.094,2.466,3.443-.166,0,2.585-3.254.16-.2.082-.1.085.1,2.89,3.455-.162.006,2.468-3.443.073-.1.07.1,2.429,3.47-.088,0,1.051-1.26.282-.325C64.91,425.722,64.945,425.686,64.949,425.69Z" transform="translate(-46.252 -423.793)" fill="#f5f5f5"/></g><g transform="translate(9.747 54.098)"><path d="M65.312,417.507c0,.059-4.345.108-9.7.108s-9.705-.048-9.705-.108,4.344-.108,9.705-.108S65.312,417.447,65.312,417.507Z" transform="translate(-45.903 -417.399)" fill="#f5f5f5"/></g></g><g transform="translate(127.395 41.271)"><g transform="translate(42.781 6.596)"><rect width="3.555" height="17.689" transform="translate(0 0.019) rotate(-0.307)" fill="#e0e0e0"/></g><g transform="translate(11.916 6.593)"><g transform="translate(0.067 0.049)"><rect width="9.206" height="9.766" transform="matrix(1, -0.005, 0.005, 1, 0, 0.049)" fill="#ebebeb"/></g><g transform="translate(9.229)"><rect width="9.206" height="9.766" transform="translate(0 0.049) rotate(-0.307)" fill="#f5f5f5"/></g><g transform="translate(0 2.502)"><path d="M297.363,63.006q9.177.076,18.369-.084a.1.1,0,0,0,0-.2c-6.118-.034-12.251,0-18.368.112a.084.084,0,0,0,0,.168Z" transform="translate(-297.281 -62.713)" fill="#e0e0e0"/></g></g><g transform="translate(6.174 16.156)"><g transform="translate(0.07 0.089)"><rect width="16.726" height="7.958" transform="translate(0 0.09) rotate(-0.307)" fill="#ebebeb"/></g><g transform="translate(16.716)"><rect width="16.726" height="7.958" transform="translate(0 0.09) rotate(-0.307)" fill="#f5f5f5"/></g><g transform="translate(0 2.001)"><path d="M283.826,84.465c11.111.126,22.262.013,33.373-.165a.1.1,0,0,0,0-.2c-11.112-.059-22.263-.052-33.372.193a.084.084,0,0,0,0,.168Z" transform="translate(-283.745 -84.073)" fill="#e0e0e0"/></g></g><g transform="translate(0 24.293)"><rect width="64.801" height="2.851" fill="#e0e0e0"/><g transform="translate(10.609 1.371)"><rect width="2.631" height="9.729" fill="#e0e0e0"/></g><g transform="translate(49.879 1.371)"><rect width="2.631" height="9.729" fill="#e0e0e0"/></g></g><g transform="translate(46.25)"><rect width="3.555" height="24.329" transform="translate(0 0.019) rotate(-0.307)" fill="#ebebeb"/></g><g transform="translate(49.798 4.529)"><g transform="translate(0.037)"><rect width="5.524" height="19.716" transform="translate(0 0.03) rotate(-0.307)" fill="#f5f5f5"/></g><g transform="translate(0 3.703)"><path d="M392.106,60.771a39.835,39.835,0,0,1-5.524,0,40.009,40.009,0,0,1,5.524,0Z" transform="translate(-386.582 -60.676)" fill="#e0e0e0"/></g><g transform="translate(0 2.874)"><path d="M392.106,58.819a40.009,40.009,0,0,1-5.524,0,39.835,39.835,0,0,1,5.524,0Z" transform="translate(-386.582 -58.723)" fill="#e0e0e0"/></g><g transform="translate(0 16.654)"><path d="M392.106,91.3a39.835,39.835,0,0,1-5.524,0,40.013,40.013,0,0,1,5.524,0Z" transform="translate(-386.582 -91.206)" fill="#e0e0e0"/></g><g transform="translate(0 15.825)"><path d="M392.106,89.349a40.009,40.009,0,0,1-5.524,0,39.835,39.835,0,0,1,5.524,0Z" transform="translate(-386.582 -89.253)" fill="#e0e0e0"/></g><g transform="translate(2.755 5.229)"><path d="M393.173,73.159c-.053,0-.1-1.989-.1-4.442s.043-4.443.1-4.443.1,1.989.1,4.443S393.225,73.159,393.173,73.159Z" transform="translate(-393.077 -64.274)" fill="#e0e0e0"/></g></g><g transform="translate(55.382 9.37)"><rect width="6.013" height="14.881" fill="#ebebeb"/></g><g transform="translate(46.953 3.132)"><circle cx="1.022" cy="1.022" r="1.022" fill="#e0e0e0"/></g><g transform="translate(47.659 6.964)"><rect width="0.632" height="14.473" fill="#e0e0e0"/></g></g><g transform="translate(28.194 218.515)"><path d="M217.462,459.2c0,.061-40.772.111-91.055.111-50.3,0-91.064-.05-91.064-.111s40.763-.11,91.064-.11C176.69,459.091,217.462,459.14,217.462,459.2Z" transform="translate(-35.343 -459.091)" fill="#263238"/></g><g transform="translate(40.097 60.095)"><g transform="translate(12.598 0.15)"><path d="M140.341,92.351a13.549,13.549,0,0,1,3.062,8.678c-.019,1.789-.349,3.763.692,5.218.79,1.1,2.23,1.657,2.872,2.854.772,1.439.114,3.258.589,4.82.673,2.215,3.268,3.141,4.806,4.872a6.149,6.149,0,0,1,1.291,5.631,6.34,6.34,0,0,1-3.977,4.21,4.12,4.12,0,0,1-3.149-.053,5.474,5.474,0,0,1-2.2-2.622c-1.024-2.043-10.006-13.1-10.514-15.324" transform="translate(-116.539 -89.656)" fill="#263238"/><path d="M110.368,86.088c-3.672-.591-7.2,1.847-8.749,5.23s-1.59,7.23-1.7,10.948-.375,7.6-2.273,10.8c-1.2,2.031-3.07,3.812-3.362,6.154-.262,2.1.824,4.21.463,6.293-.314,1.813-1.7,3.392-1.641,5.231.066,2.213,2.342,3.881,4.555,3.94a9.634,9.634,0,0,0,6.017-2.476,23.138,23.138,0,0,0,6.6-8.392" transform="translate(-93.1 -85.999)" fill="#263238"/></g><g transform="translate(23.77)"><g transform="translate(0 1.179)"><path d="M119.491,96.242a6.953,6.953,0,0,1,6.249-7.787,7.092,7.092,0,0,1,7.557,6.089,72.46,72.46,0,0,1,.89,7.669c-.045,3.568-2.133,4.957-2.979,5.374a4.618,4.618,0,0,1-.939.234h0a.024.024,0,0,0-.02.028l.792,4.1a4.61,4.61,0,0,1-3.818,5.468c-2.688.392-4.79-1.67-5.2-4.355Z" transform="translate(-119.436 -88.424)" fill="#ffbe9d"/><g transform="translate(10.907 7.236)"><path d="M147.371,105.928c-.059.084-.53-.169-1.134-.08s-1,.456-1.078.392c-.037-.028.014-.171.187-.339a1.553,1.553,0,0,1,.85-.4,1.492,1.492,0,0,1,.916.155C147.318,105.767,147.4,105.89,147.371,105.928Z" transform="translate(-145.147 -105.482)" fill="#263238"/></g><g transform="translate(5.535 8.541)"><path d="M134.708,109c-.059.084-.531-.169-1.134-.079s-1,.456-1.079.392c-.037-.028.014-.17.188-.339a1.55,1.55,0,0,1,.85-.4,1.493,1.493,0,0,1,.916.155C134.655,108.843,134.738,108.966,134.708,109Z" transform="translate(-132.484 -108.558)" fill="#263238"/></g><g transform="translate(8.947 7.232)"><path d="M141.542,110.466a4.069,4.069,0,0,1,.955-.32c.152-.038.294-.09.3-.2a.794.794,0,0,0-.17-.442L142,108.4a20.4,20.4,0,0,1-1.472-2.923,20.435,20.435,0,0,1,1.7,2.8c.213.39.416.762.609,1.118a.9.9,0,0,1,.168.593.393.393,0,0,1-.221.263,1.083,1.083,0,0,1-.257.075A3.936,3.936,0,0,1,141.542,110.466Z" transform="translate(-140.528 -105.473)" fill="#263238"/></g><g transform="translate(5.331 18.603)"><path d="M137.48,133.075a9.721,9.721,0,0,1-5.477-.8s1.37,2.949,5.691,1.9Z" transform="translate(-132.003 -132.278)" fill="#eb996e"/></g><g transform="translate(4.737 7.095)"><path d="M133.321,105.46c-.036.173-.65.183-1.346.372s-1.241.466-1.357.332c-.052-.064.025-.233.233-.426a2.426,2.426,0,0,1,2.059-.536C133.185,105.268,133.335,105.378,133.321,105.46Z" transform="translate(-130.602 -105.15)" fill="#263238"/></g><g transform="translate(10.561 5.855)"><path d="M146.406,102.715c-.087.153-.523.071-1.025.137-.5.049-.91.227-1.029.1-.053-.063-.006-.21.16-.367a1.5,1.5,0,0,1,1.654-.189C146.365,102.509,146.443,102.642,146.406,102.715Z" transform="translate(-144.332 -102.227)" fill="#263238"/></g></g><g transform="translate(6.445 10.398)"><path d="M134.634,110.7a.5.5,0,0,0,.572.405.48.48,0,0,0,.422-.543.5.5,0,0,0-.571-.406A.48.48,0,0,0,134.634,110.7Z" transform="translate(-134.628 -110.155)" fill="#263238"/></g><g transform="translate(11.793 9.24)"><path d="M147.241,107.976a.5.5,0,0,0,.572.405.481.481,0,0,0,.422-.543.5.5,0,0,0-.572-.406A.481.481,0,0,0,147.241,107.976Z" transform="translate(-147.235 -107.427)" fill="#263238"/></g><path d="M143.832,119.972a.753.753,0,0,0-.881.366.773.773,0,0,0,.107.9.68.68,0,0,0,.881.062.842.842,0,0,0,.277-.577.806.806,0,0,0-.137-.576.471.471,0,0,0-.539-.163" transform="translate(-132.921 -105.392)" fill="#eb996e"/><path d="M137.695,90.056a5.471,5.471,0,0,0-2.326-3.269,6.092,6.092,0,0,0-3.249-1.139,4.451,4.451,0,0,0-3.2,1.161,3.316,3.316,0,0,0-.968,2.3l.067-.593a2.158,2.158,0,0,0,.008,1.494v0c.1.26.216.52.321.781a3.341,3.341,0,0,0,1.586,1.726,2.161,2.161,0,0,0,1.061.258,1.285,1.285,0,0,0,.961-.468,2.131,2.131,0,0,0,.23-1.521,3.692,3.692,0,0,0,1.158,1.3,1.265,1.265,0,0,0,1.6-.182,1.71,1.71,0,0,0,.009-1.624,3.21,3.21,0,0,0,1.325,1.145,1.183,1.183,0,0,0,.947.1.913.913,0,0,0,.491-.635A1.9,1.9,0,0,0,137.695,90.056Z" transform="translate(-124.305 -85.645)" fill="#263238"/><g transform="translate(4.649 0.506)"><path d="M136.071,91.851c-.039,0-.032-.5-.2-1.285a4.89,4.89,0,0,0-1.465-2.66,3.52,3.52,0,0,0-1.468-.792,3.185,3.185,0,0,0-1.366-.034,4.071,4.071,0,0,0-1.181.49c-.007-.008.074-.108.26-.243a2.646,2.646,0,0,1,.887-.4,3.169,3.169,0,0,1,1.447-.011,3.574,3.574,0,0,1,1.567.825,4.749,4.749,0,0,1,1.472,2.8,5.627,5.627,0,0,1,.076.962A1,1,0,0,1,136.071,91.851Z" transform="translate(-130.395 -86.838)" fill="#455a64"/></g></g><path d="M194.668,191.308l-16.311-6.466s-8.356-10.958-8.182-11.17l-5.865,6.424,8.525,11.54,19.754,4.624,9.356.076C201.221,192.737,194.668,191.308,194.668,191.308Z" transform="translate(-121.504 -136.329)" fill="#ffbe9d"/><g transform="translate(14.82 22.858)"><g transform="translate(0.009)"><path d="M121.144,140.39l-2.221-.861-9.6,1.217v1.7l-.275.034a19.628,19.628,0,0,0-5.878,2.282,10.031,10.031,0,0,0-4.682,10.21c.39,2.426,1.147,5.376,2.6,7.081,2.787,3.26,5.332-.769,5.332-.769s1.749,3.99,1.649,5.877a51.372,51.372,0,0,1-1.008,5.9.312.312,0,0,0,.25.373l20.243,3.743.1-4.948-.644-20.35-.893-7.9S126.152,140.195,121.144,140.39Z" transform="translate(-98.362 -139.529)" fill="#2ec5b6"/></g><path d="M163.073,146.9l7.718,11.152-6.214,7.569Z" transform="translate(-135.612 -143.773)" fill="#2ec5b6"/><g transform="translate(26.826 8.514)"><path d="M163.867,177.68a4.515,4.515,0,0,1-.03-.719c-.006-.5-.014-1.161-.025-1.959a60.252,60.252,0,0,0-.462-6.438,64.24,64.24,0,0,0-1.178-6.348l-.448-1.908a4.486,4.486,0,0,1-.143-.706,4.516,4.516,0,0,1,.226.684c.132.444.311,1.09.517,1.893a52.66,52.66,0,0,1,1.245,6.357,49.85,49.85,0,0,1,.4,6.465c-.008.829-.02,1.5-.046,1.962A4.455,4.455,0,0,1,163.867,177.68Z" transform="translate(-161.578 -159.6)" fill="#263238"/></g><g transform="translate(0 9.559)"><path d="M108.463,162.142c0,.036-.586.028-1.525.079a24.01,24.01,0,0,0-7.166,1.484c-.883.327-1.416.566-1.431.534a1.485,1.485,0,0,1,.355-.21c.234-.124.582-.286,1.019-.469a19.724,19.724,0,0,1,7.218-1.495c.474-.006.857,0,1.122.025A1.5,1.5,0,0,1,108.463,162.142Z" transform="translate(-98.339 -162.064)" fill="#fafafa"/></g><g transform="translate(21.327 14.731)"><path d="M155.288,174.268a3.85,3.85,0,0,1-.962.209,21.283,21.283,0,0,1-4.738.162,3.825,3.825,0,0,1-.974-.143,5.038,5.038,0,0,1,.982-.013c.6.011,1.438.017,2.358-.014s1.752-.1,2.354-.148A5.026,5.026,0,0,1,155.288,174.268Z" transform="translate(-148.614 -174.256)" fill="#fafafa"/></g><g transform="translate(27.942 9.694)"><path d="M167.81,162.383a8.141,8.141,0,0,1-3.6,2.2c-.024-.06.842-.444,1.832-1.052S167.767,162.334,167.81,162.383Z" transform="translate(-164.207 -162.38)" fill="#fafafa"/></g><g transform="translate(23.584 4.523)"><path d="M158.776,150.194a8.019,8.019,0,0,1-4.841,2.05c-.011-.068,1.169-.247,2.508-.82S158.735,150.138,158.776,150.194Z" transform="translate(-153.935 -150.191)" fill="#fafafa"/></g><g transform="translate(17.628 23.374)"><path d="M151.113,194.632a1.77,1.77,0,0,1-.4.211c-.263.125-.653.285-1.142.464a21,21,0,0,1-8,1.229c-.521-.024-.94-.059-1.229-.1a1.764,1.764,0,0,1-.445-.081c0-.036.644.016,1.678.024a24.873,24.873,0,0,0,7.947-1.221C150.5,194.84,151.1,194.6,151.113,194.632Z" transform="translate(-139.894 -194.629)" fill="#fafafa"/></g><g transform="translate(9.105 29.127)"><path d="M139.7,208.192a.74.74,0,0,1-.181.1l-.537.255c-.467.221-1.157.509-2.023.832s-1.913.665-3.092.989a36.172,36.172,0,0,1-7.847,1.217c-1.222.048-2.323.044-3.246-.006s-1.668-.111-2.18-.18l-.589-.08a.719.719,0,0,1-.2-.043.772.772,0,0,1,.208,0l.593.039c.513.043,1.258.084,2.177.109s2.016.018,3.23-.041,2.546-.2,3.934-.408,2.693-.5,3.871-.8,2.223-.632,3.091-.939,1.566-.568,2.042-.764l.553-.216A.768.768,0,0,1,139.7,208.192Z" transform="translate(-119.803 -208.191)" fill="#fafafa"/></g></g><g transform="translate(0 142.166)"><path d="M70.006,420.777l-2.293,10.365-4.177,7.675a1.088,1.088,0,0,0,.5,1.508h0a1.081,1.081,0,0,0,.995-.045c1.943-1.123,9.072-5.289,9.2-6.057.145-.89,3.144-10.772,3.144-10.772Z" transform="translate(-63.403 -420.777)" fill="#2ec5b6"/><g transform="translate(0.634 12.75)" opacity="0.6"><path d="M64.9,457.632l10.363-6.8-.107.436a1.638,1.638,0,0,1-.63.939c-.843.609-3.209,2.239-8.6,5.385a1.087,1.087,0,0,1-1.026.037Z" transform="translate(-64.898 -450.834)" fill="#fff"/></g><g transform="translate(9.288 8.863)" opacity="0.6"><path d="M85.707,441.712a.658.658,0,0,0-.38.792.633.633,0,0,0,.781.383.694.694,0,0,0,.4-.841.656.656,0,0,0-.857-.308" transform="translate(-85.299 -441.669)" fill="#fff"/></g><g transform="translate(2.257 14.022)"><path d="M70.562,455.431a2.347,2.347,0,0,0-1.839-1.542c0-.028.147-.076.4-.05a1.733,1.733,0,0,1,1.422,1.192C70.611,455.273,70.59,455.429,70.562,455.431Z" transform="translate(-68.724 -453.832)" fill="#263238"/></g><g transform="translate(1.243 15.717)"><path d="M68.113,458.932c-.06.033-.308-.384-.8-.667a8.822,8.822,0,0,0-.975-.377,1.2,1.2,0,0,1,1.093.176C67.99,458.39,68.173,458.918,68.113,458.932Z" transform="translate(-66.333 -457.827)" fill="#263238"/></g><g transform="translate(3.283 12.322)"><path d="M73.755,451.69a10.9,10.9,0,0,0-1.172-1.114,10.826,10.826,0,0,0-1.442-.731,2.972,2.972,0,0,1,2.614,1.845Z" transform="translate(-71.141 -449.825)" fill="#263238"/></g><g transform="translate(4.196 10.216)"><path d="M75.955,445.738c-.043.055-.554-.323-1.288-.532s-1.366-.174-1.372-.244a2.7,2.7,0,0,1,2.661.775Z" transform="translate(-73.294 -444.859)" fill="#263238"/></g><g transform="translate(4.828 7.202)"><path d="M77.564,438.622a5.324,5.324,0,0,0-1.326-.589,5.315,5.315,0,0,0-1.451.008c-.011-.026.133-.128.4-.207a2.369,2.369,0,0,1,2.086.436C77.493,438.452,77.585,438.6,77.564,438.622Z" transform="translate(-74.786 -437.755)" fill="#263238"/></g><g transform="translate(5.1 4.925)"><path d="M76.766,434.371a.914.914,0,0,1,.082-.394,2.788,2.788,0,0,1,.56-.945,1.235,1.235,0,0,1,.656-.447.437.437,0,0,1,.455.212.712.712,0,0,1,.049.505,1.538,1.538,0,0,1-1.648,1.061,1.784,1.784,0,0,1-1.479-1.324.618.618,0,0,1,.094-.507.429.429,0,0,1,.49-.114,1.523,1.523,0,0,1,.593.52,3.12,3.12,0,0,1,.507.974.944.944,0,0,1,.071.395,4.951,4.951,0,0,0-.706-1.265,1.423,1.423,0,0,0-.528-.441.228.228,0,0,0-.267.061.424.424,0,0,0-.042.337,1.591,1.591,0,0,0,1.3,1.132,1.335,1.335,0,0,0,1.411-.88.518.518,0,0,0-.019-.354.237.237,0,0,0-.25-.12,1.116,1.116,0,0,0-.562.369A4.118,4.118,0,0,0,76.766,434.371Z" transform="translate(-75.427 -432.387)" fill="#263238"/></g><g transform="translate(5.839 0)" opacity="0.3"><path d="M77.664,421.9l-.5,2.377,7.505,1.245.626-2.073-7.368-2.674Z" transform="translate(-77.168 -420.777)"/></g></g><g transform="translate(31.662 145.668)"><path d="M146.518,429.366l-.62,8.282s8.211,3.411,8.245,4.953l-16.1-.625.436-12.944Z" transform="translate(-138.041 -429.032)" fill="#2ec5b6"/><g transform="translate(2.411 7.703)" opacity="0.6"><path d="M144.219,447.213a.658.658,0,0,0-.484.733.633.633,0,0,0,.722.486.694.694,0,0,0,.508-.779.656.656,0,0,0-.807-.422" transform="translate(-143.726 -447.19)" fill="#fff"/></g><g transform="translate(0 11.642)" opacity="0.6"><path d="M138.041,457.778l.1-1.3,15.4,1.086s.7.34.6.842Z" transform="translate(-138.041 -456.475)" fill="#fff"/></g><g transform="translate(6.62 8.461)"><path d="M155.147,449.06c-.006.079-.4.1-.8.337s-.616.56-.687.526c-.072-.018.064-.484.549-.763S155.167,448.989,155.147,449.06Z" transform="translate(-153.645 -448.977)" fill="#263238"/></g><g transform="translate(8.674 9.273)"><path d="M159.6,450.927c.015.077-.33.2-.61.52s-.371.671-.449.664c-.075.009-.111-.453.245-.847S159.6,450.852,159.6,450.927Z" transform="translate(-158.489 -450.891)" fill="#263238"/></g><g transform="translate(10.58 10.033)"><path d="M163.066,454.017c-.072.014-.166-.383.052-.806s.593-.579.624-.513-.206.288-.38.638S163.144,454.012,163.066,454.017Z" transform="translate(-162.982 -452.683)" fill="#263238"/></g><g transform="translate(6.376 6.328)"><path d="M154.748,444.262c-.036.07-.392-.052-.838-.039s-.8.14-.836.07.305-.336.831-.344S154.789,444.2,154.748,444.262Z" transform="translate(-153.07 -443.948)" fill="#263238"/></g><g transform="translate(0.332 1.364)" opacity="0.3"><path d="M146.844,432.858l-.108,1.476-7.911-.379.053-1.707Z" transform="translate(-138.824 -432.248)"/></g><g transform="translate(5.735 3.592)"><path d="M153.972,438.875a1.515,1.515,0,0,1-.806-.036,3.613,3.613,0,0,1-.834-.292,3.831,3.831,0,0,1-.453-.263,1.01,1.01,0,0,1-.236-.2.343.343,0,0,1-.02-.42.43.43,0,0,1,.351-.166,1.043,1.043,0,0,1,.3.053,2.9,2.9,0,0,1,.5.191,2.845,2.845,0,0,1,.725.517c.36.36.476.659.449.673s-.209-.229-.578-.529a3.209,3.209,0,0,0-.7-.433,3,3,0,0,0-.457-.161c-.169-.051-.314-.058-.361.016-.017.028-.02.04.014.091a.819.819,0,0,0,.174.146,4.235,4.235,0,0,0,.417.26,4.439,4.439,0,0,0,.768.329A5.5,5.5,0,0,1,153.972,438.875Z" transform="translate(-151.56 -437.499)" fill="#263238"/></g><g transform="translate(7.857 2.542)"><path d="M156.746,437.559a1.29,1.29,0,0,1-.182-.787,2.635,2.635,0,0,1,.144-.879,2.67,2.67,0,0,1,.224-.482.668.668,0,0,1,.53-.387.377.377,0,0,1,.328.238,1.086,1.086,0,0,1,.072.3,1.8,1.8,0,0,1-.021.543,1.853,1.853,0,0,1-.377.82c-.331.405-.663.487-.668.459-.025-.04.255-.182.512-.573a1.862,1.862,0,0,0,.285-.748,1.65,1.65,0,0,0,0-.467c-.018-.172-.077-.313-.142-.3-.08,0-.221.12-.292.253a2.717,2.717,0,0,0-.217.429,2.907,2.907,0,0,0-.187.8C156.717,437.251,156.789,437.548,156.746,437.559Z" transform="translate(-156.564 -435.024)" fill="#263238"/></g></g><g transform="translate(4.593 55.554)"><path d="M93.1,217.749s-2.557.112-4.241,8.818S74.23,305.8,74.23,305.8l9.378.085L101.3,238.832l-1.176,69.13,9.528.729s7.149-76.479,7.217-80.929c.084-5.548-3.1-11.16-3.1-11.16Z" transform="translate(-74.23 -216.603)" fill="#263238"/><g transform="translate(27.198 0.4)"><path d="M142.91,217.547c.06.012-.914,4.986-2.174,11.107s-2.33,11.076-2.39,11.064.913-4.985,2.174-11.108S142.85,217.535,142.91,217.547Z" transform="translate(-138.344 -217.547)" fill="#455a64"/></g><g transform="translate(32.5 1.614)"><path d="M151.569,220.436c-.016-.022.254-.1.545.158a.786.786,0,0,1,.256.6.793.793,0,0,1-1.276.538.786.786,0,0,1-.251-.6c.017-.39.263-.527.267-.5a1.163,1.163,0,0,0-.111.5.664.664,0,0,0,.227.451.609.609,0,0,0,.941-.4A.663.663,0,0,0,152,220.7C151.8,220.464,151.564,220.473,151.569,220.436Z" transform="translate(-150.843 -220.407)" fill="#455a64"/></g><g transform="translate(31.85 5.048)"><path d="M150.28,228.545c-.006-.027.264.009.411.353a.74.74,0,0,1-.026.624.747.747,0,0,1-1.316-.1.739.739,0,0,1,.071-.621c.2-.317.47-.311.461-.285.014.033-.2.086-.323.358a.616.616,0,0,0-.019.475.562.562,0,0,0,.95.074.616.616,0,0,0,.055-.472C150.464,228.661,150.261,228.576,150.28,228.545Z" transform="translate(-149.31 -228.503)" fill="#455a64"/></g><g transform="translate(15.03 1.73)"><path d="M118.464,220.681a1.576,1.576,0,0,1-.112.436,7.15,7.15,0,0,1-.495,1.123,8.254,8.254,0,0,1-6.525,4.3,7.172,7.172,0,0,1-1.227.011,1.553,1.553,0,0,1-.445-.069c0-.042.641.031,1.654-.1a8.613,8.613,0,0,0,6.406-4.222C118.239,221.282,118.425,220.666,118.464,220.681Z" transform="translate(-109.661 -220.68)" fill="#455a64"/></g><g transform="translate(39.034 0.578)"><path d="M169.292,225.3c-.009.012-.109-.048-.282-.169a5.016,5.016,0,0,1-.68-.582,7.229,7.229,0,0,1-2.075-5.384,5.023,5.023,0,0,1,.114-.888.937.937,0,0,1,.1-.315c.039.008-.051.465-.053,1.206a7.881,7.881,0,0,0,2.032,5.273C168.942,224.995,169.316,225.273,169.292,225.3Z" transform="translate(-166.245 -217.966)" fill="#455a64"/></g></g></g><g transform="translate(55.475 77.023)"><g transform="translate(0.047)"><g transform="translate(0 0.127)"><path d="M104.078,148.717l4.167.23a20.977,20.977,0,0,0,1.178,3.416,69.243,69.243,0,0,0,6.6-16.756c-.094-.313-.205-.659-.344-1.047a4.445,4.445,0,0,1,.053-1.763c.112-.7.308-1.637.366-2.072.179-1.324.392-1.533.854-1.383.628.2-.258,3.719.257,3.8.277.041.616-1.164.714-2.152s.545-4.029.872-4.231c.479-.3.9.173.775,1.157s-.277,3.967.246,4.007.947-5,.947-5-.081-1.1.523-1.07c1.091.047.238,5.361.145,5.865-.065.35.5.414.551.034s.315-5.041,1.425-5c.852.029-.66,4.379-.182,5.388s.811-3.425,1.625-3.364c.3.023.527.082-.03,2.591a56.784,56.784,0,0,1-1.946,5.88c-1.29,6.957-6.951,29.212-15.826,25.138-4.966-2.28-7.283-13.566-7.283-13.566Z" transform="translate(-99.765 -125.849)" fill="#ffbe9d"/></g><g transform="translate(15.795)"><path d="M144.312,137.071a.718.718,0,0,1,.042-.152l.149-.438.58-1.679c.248-.73.551-1.624.853-2.675.155-.525.28-1.093.4-1.7.056-.3.114-.618.15-.94a3.245,3.245,0,0,0,.022-.483c-.012-.165-.037-.3-.168-.3-.135-.036-.226.075-.319.216a2.616,2.616,0,0,0-.21.47c-.119.334-.212.69-.3,1.054s-.178.739-.288,1.12a1.747,1.747,0,0,1-.255.585.229.229,0,0,1-.116.07.2.2,0,0,1-.16-.036.512.512,0,0,1-.117-.16,1.117,1.117,0,0,1-.09-.324,10.416,10.416,0,0,1,.251-2.529c.073-.426.15-.857.206-1.293a5.9,5.9,0,0,0,.053-.655c.008-.2-.027-.473-.115-.511-.109-.041-.3.082-.409.262a2.693,2.693,0,0,0-.278.6,9.26,9.26,0,0,0-.326,1.357c-.081.467-.144.943-.2,1.425q-.036.363-.071.728l-.032.369a.548.548,0,0,1-.168.428.434.434,0,0,1-.5.02.352.352,0,0,1-.152-.241.451.451,0,0,1,0-.136l.016-.091q.057-.369.113-.742c.07-.5.131-1,.179-1.509s.083-1.021.091-1.535a5.117,5.117,0,0,0-.149-1.509.517.517,0,0,0-.214-.307.265.265,0,0,0-.286.092,1.418,1.418,0,0,0-.16.824v.021c-.09,1-.2,1.977-.342,2.94-.074.481-.153.958-.274,1.429-.03.118-.066.235-.108.353a.742.742,0,0,1-.24.366.259.259,0,0,1-.312-.068.612.612,0,0,1-.115-.192,1.87,1.87,0,0,1-.1-.366,13.7,13.7,0,0,1-.025-2.779,7.631,7.631,0,0,0,.069-1.3.713.713,0,0,0-.237-.483.268.268,0,0,0-.217-.034.515.515,0,0,0-.118.05.148.148,0,0,0-.06.073,5.806,5.806,0,0,0-.334,1.181c-.084.406-.155.809-.22,1.208s-.122.792-.172,1.18-.079.774-.155,1.153a6.2,6.2,0,0,1-.3,1.1,2.16,2.16,0,0,1-.123.26c-.059.08-.093.184-.255.233a.214.214,0,0,1-.215-.091.557.557,0,0,1-.067-.157,1.564,1.564,0,0,1-.034-.283c-.009-.723.1-1.386.134-2.026a4.98,4.98,0,0,0,0-.921c-.019-.136-.063-.3-.14-.328a.394.394,0,0,0-.346-.008,1.224,1.224,0,0,0-.314.694c-.06.262-.087.523-.135.773-.176,1-.364,1.865-.454,2.569a3.426,3.426,0,0,0-.013.934c.059.257.145.484.194.663l.122.41a.073.073,0,1,1-.025.008l-.146-.4c-.059-.181-.148-.388-.22-.664a3.4,3.4,0,0,1-.011-.96c.077-.717.248-1.572.411-2.578.045-.25.069-.515.128-.786a3.027,3.027,0,0,1,.112-.411.748.748,0,0,1,.266-.389.55.55,0,0,1,.5-.006c.2.114.206.3.241.454a5.114,5.114,0,0,1,.013.957c-.031.644-.132,1.321-.117,2.006a1.373,1.373,0,0,0,.03.243c.018.082.061.114.052.1.015,0,.08-.07.116-.137a1.975,1.975,0,0,0,.108-.234,6.067,6.067,0,0,0,.279-1.06c.071-.367.094-.749.146-1.142s.1-.787.167-1.188.133-.808.215-1.219a5.76,5.76,0,0,1,.355-1.252.4.4,0,0,1,.149-.163.755.755,0,0,1,.179-.075.512.512,0,0,1,.405.064.932.932,0,0,1,.346.648,2.578,2.578,0,0,1,0,.693c-.025.218-.043.439-.059.662a13.632,13.632,0,0,0,.03,2.717,1.63,1.63,0,0,0,.081.314.368.368,0,0,0,.063.11.043.043,0,0,0,.021.017h0c-.008.1,0,.021,0,.04,0-.018-.006-.015-.017-.036a.8.8,0,0,0,.123-.233c.037-.106.071-.216.1-.329.115-.453.193-.926.266-1.4.141-.954.249-1.934.338-2.924v.021a1.621,1.621,0,0,1,.215-1.006.525.525,0,0,1,.592-.174.746.746,0,0,1,.364.465,5.283,5.283,0,0,1,.164,1.6c-.008.525-.045,1.044-.093,1.556s-.111,1.02-.182,1.521q-.058.376-.116.749c-.031.158-.024.163.023.21a.179.179,0,0,0,.2-.008c.054-.036.061-.11.072-.248l.033-.368q.037-.368.073-.733c.053-.486.118-.967.2-1.441a9.445,9.445,0,0,1,.34-1.394,2.91,2.91,0,0,1,.308-.658.951.951,0,0,1,.272-.281.472.472,0,0,1,.441-.064.493.493,0,0,1,.231.374,1.981,1.981,0,0,1,.022.361,6.146,6.146,0,0,1-.057.682c-.059.445-.138.877-.213,1.3a10.45,10.45,0,0,0-.263,2.459.923.923,0,0,0,.067.259.391.391,0,0,0,.055.084s0-.008-.01.019,0-.008,0,0c-.016-.026,0-.019,0-.028a1.733,1.733,0,0,0,.208-.5c.11-.37.2-.744.294-1.11s.192-.724.317-1.07a2.822,2.822,0,0,1,.232-.5.854.854,0,0,1,.193-.225.4.4,0,0,1,.151-.075.475.475,0,0,1,.163,0,.328.328,0,0,1,.268.2.809.809,0,0,1,.055.281,3.367,3.367,0,0,1-.028.512c-.04.33-.1.646-.161.952-.123.61-.257,1.186-.42,1.711-.317,1.052-.635,1.942-.9,2.669s-.479,1.285-.627,1.663l-.173.429A.716.716,0,0,1,144.312,137.071Z" transform="translate(-136.998 -125.549)" fill="#eb996e"/></g></g><g transform="translate(0 19.681)"><path d="M99.654,175.74c.806,2.844,2.38,7.238,4.073,11.87a.8.8,0,0,0,1.481.069l4.15-8.774s-1-7.209-.915-6.954-8.563.932-8.563.932Z" transform="translate(-99.654 -171.943)" fill="#2ec5b6"/></g><g transform="translate(1.113 22.058)"><path d="M110.511,177.552c.009.035-.515.188-1.337.5a18.782,18.782,0,0,0-5.834,3.538c-.658.584-1.035.979-1.062.954a1.307,1.307,0,0,1,.232-.308c.159-.19.406-.452.724-.761a15.763,15.763,0,0,1,5.888-3.571c.421-.139.767-.237,1.009-.29A1.305,1.305,0,0,1,110.511,177.552Z" transform="translate(-102.277 -177.548)" fill="#fafafa"/></g><g transform="translate(8.04 17.15)"><path d="M121.56,173.077a4.488,4.488,0,0,1-.692-.906,15.062,15.062,0,0,1-2.1-5.065,4.489,4.489,0,0,1-.152-1.13,8.238,8.238,0,0,1,.3,1.094,20.049,20.049,0,0,0,2.081,5.02A8.313,8.313,0,0,1,121.56,173.077Z" transform="translate(-118.608 -165.976)" fill="#263238"/></g></g><g transform="translate(56.856 60.867)"><path d="M123.466,89.932a9.332,9.332,0,0,0-.81,7.979c.426,1.165,1.1,2.317.978,3.553-.126,1.267-1.088,2.463-.748,3.689.2.725.823,1.262,1.061,1.975a5.642,5.642,0,0,1-.145,2.614c-.339,2.222.371,4.455.547,6.7s-.428,4.864-2.427,5.841a1.75,1.75,0,0,1-1.907-.07c-.641-.575-.463-1.608-.287-2.457,1.757-8.492-3.669-16.764-2.43-25.35a9.782,9.782,0,0,1,1.958-4.674c.991-.963,3.73-.846,4.668.17" transform="translate(-111.087 -88.388)" fill="#263238"/><g transform="translate(4.023 0.072)"><path d="M112.393,113.716c-.017-.015.255-.306.637-.907a8.154,8.154,0,0,0,1.108-2.778,8.258,8.258,0,0,0,.131-2.063,22.451,22.451,0,0,1-.087-2.41,5.159,5.159,0,0,1,.243-1.3,7.132,7.132,0,0,1,.582-1.246c.475-.8,1.076-1.55,1.626-2.349a6.433,6.433,0,0,0,1.154-2.529,7.933,7.933,0,0,0-.148-2.6,9.689,9.689,0,0,1-.187-2.411,8.1,8.1,0,0,1,.406-2.07,7.946,7.946,0,0,1,1.5-2.64,5.874,5.874,0,0,1,.577-.593,1.434,1.434,0,0,1,.223-.182c.017.017-.286.277-.734.83a8.24,8.24,0,0,0-1.417,2.634,8.087,8.087,0,0,0-.372,2.032,9.634,9.634,0,0,0,.2,2.366A8.029,8.029,0,0,1,118,98.168a6.592,6.592,0,0,1-1.186,2.619c-.557.809-1.156,1.551-1.622,2.334a6.968,6.968,0,0,0-.569,1.2,4.977,4.977,0,0,0-.241,1.246,23.133,23.133,0,0,0,.067,2.389,8.271,8.271,0,0,1-.161,2.1,7.853,7.853,0,0,1-1.189,2.794,6.852,6.852,0,0,1-.506.655A1.383,1.383,0,0,1,112.393,113.716Z" transform="translate(-112.392 -87.634)" fill="#455a64"/></g><path d="M102.909,114.253a1.691,1.691,0,0,1,.132-.284l.412-.8c.355-.692.887-1.687,1.409-2.972a12.929,12.929,0,0,0,1.036-4.714,8.665,8.665,0,0,0-.1-1.392c-.073-.471-.182-.952-.254-1.454a4.094,4.094,0,0,1,.032-1.56,2.811,2.811,0,0,1,.863-1.362c.8-.727,1.764-1.2,2.263-2.051a6.958,6.958,0,0,0,.752-2.721,10.767,10.767,0,0,1,.584-2.563,9.149,9.149,0,0,1,3.434-4.335,6.773,6.773,0,0,1,.776-.454,1.662,1.662,0,0,1,.286-.129c.011.021-.381.207-1.013.654a9.265,9.265,0,0,0-2.278,2.328,8.978,8.978,0,0,0-1.033,2,10.708,10.708,0,0,0-.554,2.526,7.086,7.086,0,0,1-.77,2.807,10.507,10.507,0,0,1-2.3,2.1,2.6,2.6,0,0,0-.8,1.255,3.9,3.9,0,0,0-.031,1.475c.067.49.175.97.248,1.452a8.84,8.84,0,0,1,.1,1.425,12.837,12.837,0,0,1-1.095,4.772,29.069,29.069,0,0,1-1.478,2.954l-.449.777A1.634,1.634,0,0,1,102.909,114.253Z" transform="translate(-102.908 -87.464)" fill="#455a64"/></g><g transform="translate(184.876 135.851)"><g transform="translate(5.178)"><path d="M424.057,335.9a1.029,1.029,0,0,1,.074-.179l.241-.512a12.867,12.867,0,0,0,.706-2.051,18.1,18.1,0,0,0-.06-7.923,42.551,42.551,0,0,0-1.469-5.321c-.622-1.889-1.344-3.892-1.934-6.059a23.439,23.439,0,0,1-.955-6.966,27.273,27.273,0,0,1,1.621-7.372,35.829,35.829,0,0,0,1.877-7.259,11.064,11.064,0,0,0-1.331-6.7c-1.062-1.956-2.4-3.63-3.4-5.363a18.631,18.631,0,0,1-2.042-5.155,19.2,19.2,0,0,1-.129-7.987,14.878,14.878,0,0,1,.834-2.821,1.136,1.136,0,0,1-.05.188l-.168.54a20.5,20.5,0,0,0-.518,2.111,19.456,19.456,0,0,0,.207,7.927,18.58,18.58,0,0,0,2.049,5.09c1,1.713,2.339,3.379,3.422,5.358a11.29,11.29,0,0,1,1.372,6.84,35.777,35.777,0,0,1-1.883,7.313,27.188,27.188,0,0,0-1.614,7.3,23.325,23.325,0,0,0,.932,6.9c.58,2.155,1.294,4.16,1.909,6.054a41.958,41.958,0,0,1,1.445,5.353,17.9,17.9,0,0,1-.02,7.981,11.846,11.846,0,0,1-.756,2.049l-.264.5A1.155,1.155,0,0,1,424.057,335.9Z" transform="translate(-416.899 -264.226)" fill="#263238"/></g><g transform="translate(8.501 7.308)"><path d="M425.3,291.818s-2.03-6.492,1.612-10.293a.225.225,0,0,1,.386.111C427.488,282.709,427.731,285.974,425.3,291.818Z" transform="translate(-424.732 -281.454)" fill="#2ec5b6"/><g transform="translate(0.491 2.234)"><path d="M427.178,286.721a5.958,5.958,0,0,1-.137,1.2c-.134.825-.29,1.794-.463,2.863s-.324,2.038-.454,2.863a6.5,6.5,0,0,1-.215,1.185,5,5,0,0,1,.036-1.207c.067-.742.2-1.762.382-2.882s.378-2.129.537-2.855A5.44,5.44,0,0,1,427.178,286.721Z" transform="translate(-425.889 -286.721)" fill="#263238"/></g></g><g transform="translate(11.41 24.627)"><g transform="translate(0.04)"><path d="M431.684,330.637s1.242-6.688,6.238-8.345a.225.225,0,0,1,.289.279C437.882,323.61,436.569,326.61,431.684,330.637Z" transform="translate(-431.684 -322.281)" fill="#2ec5b6"/></g><g transform="translate(0 1.738)"><path d="M436.507,326.38a5.97,5.97,0,0,1-.681.995l-1.748,2.314-1.741,2.318a6.547,6.547,0,0,1-.744.947,5.015,5.015,0,0,1,.6-1.049c.406-.624,1-1.465,1.686-2.369s1.33-1.7,1.81-2.272A5.431,5.431,0,0,1,436.507,326.38Z" transform="translate(-431.59 -326.379)" fill="#263238"/></g></g><g transform="translate(10.045 39.922)"><g transform="translate(0.004)"><path d="M428.432,368.175s-.754-6.76,3.546-9.8a.225.225,0,0,1,.358.183C432.322,359.651,431.937,362.9,428.432,368.175Z" transform="translate(-428.381 -358.335)" fill="#2ec5b6"/></g><g transform="translate(0 2.09)"><path d="M431.172,363.264a6,6,0,0,1-.363,1.15l-1,2.723-.992,2.724a6.478,6.478,0,0,1-.437,1.122,5.066,5.066,0,0,1,.266-1.178c.207-.715.531-1.692.925-2.757s.778-2.018,1.072-2.7A5.407,5.407,0,0,1,431.172,363.264Z" transform="translate(-428.373 -363.263)" fill="#263238"/></g></g><g transform="translate(13.811 56.936)"><g transform="translate(0.034)"><path d="M437.348,408.143s-.512-6.783,3.895-9.663a.225.225,0,0,1,.35.2C441.541,399.764,441.04,403,437.348,408.143Z" transform="translate(-437.33 -398.442)" fill="#2ec5b6"/></g><g transform="translate(0 2.056)"><path d="M440.323,403.288a5.953,5.953,0,0,1-.4,1.136l-1.1,2.685-1.089,2.687a6.51,6.51,0,0,1-.477,1.106,5.011,5.011,0,0,1,.308-1.167c.233-.708.591-1.672,1.023-2.722s.85-1.988,1.168-2.66A5.427,5.427,0,0,1,440.323,403.288Z" transform="translate(-437.25 -403.288)" fill="#263238"/></g></g><g transform="translate(0 3.323)"><path d="M410.84,280.7s-6.029-3.149-6.147-8.412a.225.225,0,0,1,.351-.194C405.941,272.718,408.423,274.853,410.84,280.7Z" transform="translate(-404.693 -272.059)" fill="#2ec5b6"/><g transform="translate(1.249 2.042)"><path d="M407.641,276.872a5.978,5.978,0,0,1,.751.943l1.7,2.351,1.706,2.344a6.5,6.5,0,0,1,.687.989,5.027,5.027,0,0,1-.828-.878c-.478-.571-1.108-1.385-1.771-2.306s-1.24-1.771-1.642-2.4A5.42,5.42,0,0,1,407.641,276.872Z" transform="translate(-407.638 -276.871)" fill="#263238"/></g></g><g transform="translate(5.974 17.64)"><path d="M425.423,314.08s-6.209-2.776-6.647-8.023a.225.225,0,0,1,.339-.215C420.047,306.406,422.655,308.386,425.423,314.08Z" transform="translate(-418.775 -305.81)" fill="#2ec5b6"/><g transform="translate(1.358 1.976)"><path d="M421.979,310.468a5.941,5.941,0,0,1,.807.9l1.839,2.243,1.845,2.236a6.5,6.5,0,0,1,.746.946,5.02,5.02,0,0,1-.88-.826c-.512-.541-1.189-1.315-1.907-2.195s-1.345-1.693-1.784-2.293A5.432,5.432,0,0,1,421.979,310.468Z" transform="translate(-421.977 -310.467)" fill="#263238"/></g></g><g transform="translate(6.252 31.15)"><path d="M422.227,347.97s-4.263-5.3-2.264-10.17a.225.225,0,0,1,.4-.037C420.936,338.689,422.356,341.64,422.227,347.97Z" transform="translate(-419.43 -337.657)" fill="#2ec5b6"/><g transform="translate(0.946 2.3)"><path d="M421.67,343.08a5.955,5.955,0,0,1,.31,1.165c.178.817.386,1.775.616,2.835l.624,2.831a6.538,6.538,0,0,1,.233,1.181,5.036,5.036,0,0,1-.407-1.136c-.209-.715-.46-1.713-.7-2.822s-.426-2.12-.544-2.855A5.381,5.381,0,0,1,421.67,343.08Z" transform="translate(-421.66 -343.08)" fill="#263238"/></g></g><g transform="translate(6.76 51.386)"><path d="M427.14,393.737s-6.162-2.881-6.511-8.133a.225.225,0,0,1,.343-.21C421.894,385.973,424.469,388,427.14,393.737Z" transform="translate(-420.629 -385.359)" fill="#2ec5b6"/><g transform="translate(1.329 1.995)"><path d="M423.763,390.062a6,6,0,0,1,.792.909l1.8,2.273,1.807,2.267a6.53,6.53,0,0,1,.73.958,5.025,5.025,0,0,1-.866-.841c-.5-.55-1.167-1.335-1.87-2.226s-1.316-1.716-1.745-2.323A5.4,5.4,0,0,1,423.763,390.062Z" transform="translate(-423.761 -390.061)" fill="#263238"/></g></g><g transform="translate(11.763 31.473)"><g transform="translate(2.016 1.547)"><path d="M448.941,342.066a.525.525,0,0,1,.008.15c0,.118-.006.261-.011.435-.018.409-.042.96-.073,1.649-.08,1.45-.19,3.472-.323,5.89v.014a22.857,22.857,0,0,1-3.377,7.838c-1.235,1.951-2.53,3.725-3.646,5.375a38.071,38.071,0,0,0-2.734,4.52,19.178,19.178,0,0,0-1.279,3.316c-.108.406-.19.723-.236.94a1.692,1.692,0,0,1-.09.328,1.729,1.729,0,0,1,.04-.337c.031-.221.1-.543.191-.955a17.489,17.489,0,0,1,1.213-3.37,36.073,36.073,0,0,1,2.7-4.572c1.109-1.661,2.4-3.438,3.625-5.379a23.174,23.174,0,0,0,3.378-7.744l0,.014c.17-2.416.312-4.436.413-5.884.056-.687.1-1.238.133-1.646l.044-.433A.49.49,0,0,1,448.941,342.066Z" transform="translate(-437.175 -342.066)" fill="#263238"/></g><g transform="translate(8.747 6.533)"><path d="M454.408,364.3s2.61-6.282-.673-10.4a.225.225,0,0,0-.394.076C453.05,355.032,452.513,358.262,454.408,364.3Z" transform="translate(-453.042 -353.819)" fill="#2ec5b6"/><g transform="translate(0.872 2.277)"><path d="M455.117,359.187a5.433,5.433,0,0,1,.207,1.189c.092.738.2,1.76.277,2.892s.12,2.16.12,2.9a5.031,5.031,0,0,1-.073,1.205,6.5,6.5,0,0,1-.107-1.2c-.056-.833-.121-1.811-.193-2.893s-.144-2.06-.2-2.894A5.938,5.938,0,0,1,455.117,359.187Z" transform="translate(-455.098 -359.187)" fill="#263238"/></g><g opacity="0.3"><path d="M454.408,364.3s2.61-6.282-.673-10.4a.225.225,0,0,0-.394.076C453.05,355.032,452.513,358.262,454.408,364.3Z" transform="translate(-453.042 -353.819)"/></g></g><g transform="translate(0 21.773)"><path d="M434.453,400.126s2.092-6.473-1.514-10.308a.225.225,0,0,0-.387.108C432.348,391,432.074,394.259,434.453,400.126Z" transform="translate(-432.423 -389.745)" fill="#2ec5b6"/><g transform="translate(0.881 2.24)"><path d="M434.51,395.025a5.436,5.436,0,0,1,.3,1.168c.152.728.338,1.738.51,2.86s.294,2.144.355,2.886a5,5,0,0,1,.025,1.207,6.581,6.581,0,0,1-.2-1.186l-.427-2.868-.436-2.868A5.946,5.946,0,0,1,434.51,395.025Z" transform="translate(-434.499 -395.025)" fill="#263238"/></g><g opacity="0.3"><path d="M434.453,400.126s2.092-6.473-1.514-10.308a.225.225,0,0,0-.387.108C432.348,391,432.074,394.259,434.453,400.126Z" transform="translate(-432.423 -389.745)"/></g></g><g transform="translate(13.436)"><path d="M464.1,347.759s5.572-3.9,5.01-9.135a.225.225,0,0,0-.373-.148C467.925,339.207,465.738,341.644,464.1,347.759Z" transform="translate(-464.097 -338.419)" fill="#2ec5b6"/><g opacity="0.3"><path d="M464.1,347.759s5.572-3.9,5.01-9.135a.225.225,0,0,0-.373-.148C467.925,339.207,465.738,341.644,464.1,347.759Z" transform="translate(-464.097 -338.419)"/></g><g transform="translate(0.052 2.159)"><path d="M468.169,343.509a5.423,5.423,0,0,1-.463,1.114c-.318.672-.779,1.59-1.318,2.589s-1.058,1.887-1.458,2.516a5,5,0,0,1-.708.978,6.535,6.535,0,0,1,.554-1.069l1.388-2.545,1.382-2.55A5.979,5.979,0,0,1,468.169,343.509Z" transform="translate(-464.219 -343.509)" fill="#263238"/></g></g><g transform="translate(4.277 19.437)"><path d="M442.506,390.538s6.721-1.048,8.521-5.995a.225.225,0,0,0-.271-.3C449.709,384.546,446.672,385.771,442.506,390.538Z" transform="translate(-442.506 -384.238)" fill="#2ec5b6"/><g opacity="0.3"><path d="M442.506,390.538s6.721-1.048,8.521-5.995a.225.225,0,0,0-.271-.3C449.709,384.546,446.672,385.771,442.506,390.538Z" transform="translate(-442.506 -384.238)"/></g><g transform="translate(0.041 1.614)"><path d="M449.317,388.045a5.409,5.409,0,0,1-.906.8c-.582.464-1.4,1.085-2.324,1.744s-1.781,1.229-2.417,1.616a5.01,5.01,0,0,1-1.066.566,6.55,6.55,0,0,1,.968-.716l2.368-1.673L448.3,388.7A5.98,5.98,0,0,1,449.317,388.045Z" transform="translate(-442.603 -388.043)" fill="#263238"/></g></g></g><g transform="translate(7.669 69.579)"><path d="M424.731,428.246l-1.961,13.2h12.218l-1.584-13.2Z" transform="translate(-422.77 -428.246)" fill="#455a64"/></g><g transform="translate(8.937 73.541)"><path d="M435.615,437.712a95.754,95.754,0,0,1-9.854,0,95.41,95.41,0,0,1,9.854,0Z" transform="translate(-425.761 -437.585)" fill="#263238"/></g><g transform="translate(8.857 74.59)"><path d="M435.747,440.187c0,.07-2.278.127-5.088.127s-5.088-.057-5.088-.127,2.278-.127,5.088-.127S435.747,440.117,435.747,440.187Z" transform="translate(-425.571 -440.06)" fill="#263238"/></g></g><g transform="translate(98.878 77.391)"><g transform="translate(33.087 0)"><path d="M304.4,126.47s-.113,0-.332,0a8,8,0,0,0-.971.006,10.776,10.776,0,0,0-3.615.833,11.118,11.118,0,0,0-4.591,3.578,9.984,9.984,0,0,0-1.6,3.279,11.017,11.017,0,0,0,1.13,8.345,9.568,9.568,0,0,0,1.444,1.914,7.739,7.739,0,0,0,1.952,1.527,4.789,4.789,0,0,0,2.449.617,3.525,3.525,0,0,0,2.371-.957,3.431,3.431,0,0,0,.945-2.446,4.485,4.485,0,0,0-.86-2.6,8.894,8.894,0,0,0-4.777-3.15,11.752,11.752,0,0,0-6.025-.084,12.453,12.453,0,0,0-2.9,1.154,10.509,10.509,0,0,0-2.491,1.954c-.174.2-.372.385-.527.6l-.479.647a11.244,11.244,0,0,0-1.7,4.541,11.852,11.852,0,0,0,.857,6.364,9.8,9.8,0,0,0,4.1,4.647,6.744,6.744,0,0,0,2.9.882,5.142,5.142,0,0,0,2.863-.687,4.514,4.514,0,0,0,1.937-2.11,3.843,3.843,0,0,0,.045-2.774,5.544,5.544,0,0,0-1.6-2.256,7.241,7.241,0,0,0-2.346-1.363,9.112,9.112,0,0,0-5.164-.09,10.083,10.083,0,0,0-4.236,2.362,9.666,9.666,0,0,0-2.429,3.764,10.9,10.9,0,0,0,.111,7.622,11.536,11.536,0,0,0,3.5,4.662,12.318,12.318,0,0,0,3.211,1.87c.4.152.706.26.917.319s.315.1.315.1-.109-.024-.321-.083-.524-.153-.927-.3a12.063,12.063,0,0,1-3.249-1.844,11.575,11.575,0,0,1-3.556-4.684,11.016,11.016,0,0,1-.144-7.72,9.818,9.818,0,0,1,2.458-3.835,10.247,10.247,0,0,1,4.306-2.415,9.286,9.286,0,0,1,5.275.082,7.427,7.427,0,0,1,2.414,1.4,5.732,5.732,0,0,1,1.656,2.337,4.048,4.048,0,0,1-.044,2.922,4.722,4.722,0,0,1-2.023,2.212,5.356,5.356,0,0,1-2.979.718,6.956,6.956,0,0,1-2.995-.906,10.007,10.007,0,0,1-4.192-4.748,12.059,12.059,0,0,1-.874-6.483,11.47,11.47,0,0,1,1.739-4.633l.49-.661c.159-.223.361-.41.539-.617a10.741,10.741,0,0,1,2.544-1.994,12.675,12.675,0,0,1,2.957-1.173,11.957,11.957,0,0,1,6.137.091,9.092,9.092,0,0,1,4.885,3.237,4.693,4.693,0,0,1,.893,2.716,3.627,3.627,0,0,1-1.008,2.583,3.712,3.712,0,0,1-2.5,1.008,4.973,4.973,0,0,1-2.542-.644,7.9,7.9,0,0,1-1.993-1.566,9.726,9.726,0,0,1-1.463-1.951,11.157,11.157,0,0,1-1.118-8.468,10.08,10.08,0,0,1,1.639-3.316,11.158,11.158,0,0,1,4.657-3.583,10.611,10.611,0,0,1,3.646-.8,7.168,7.168,0,0,1,.974.017C304.288,126.456,304.4,126.47,304.4,126.47Z" transform="translate(-279.964 -126.416)" fill="#263238"/></g><rect width="59.479" height="45.875" transform="translate(12.211 42.5)" fill="#f7c90b"/><g transform="translate(12.211 42.391)"><path d="M230.753,226.6l10.986,10.247h58.47L290.231,226.6Z" transform="translate(-230.753 -226.493)" fill="#f7c90b"/><g transform="translate(0)"><path d="M230.753,226.455l59.478-.108h.046l.032.033,9.876,10.14.1.105.183.188h-.262l-58.47-.044h-.026l-.019-.018-10.94-10.3,11.031,10.2-.045-.018,58.47-.044-.079.188-.1-.106-9.873-10.142.078.033Z" transform="translate(-230.753 -226.346)" fill="#263238"/></g></g><g transform="translate(28.861 63.653)"><path d="M271.217,276.468a1.218,1.218,0,1,0,.092,0" transform="translate(-270.003 -276.468)" fill="#263238"/><path d="M304.323,276.468a1.218,1.218,0,1,0,.092,0" transform="translate(-289.065 -276.468)" fill="#263238"/><g transform="translate(0.974 4.825)"><path d="M286.673,294a8.647,8.647,0,0,0-1.177-2.637,7.791,7.791,0,0,0-2.247-2.156,6.861,6.861,0,0,0-7.267-.2,7.782,7.782,0,0,0-2.362,2.029,8.654,8.654,0,0,0-1.32,2.568.7.7,0,0,1,.034-.2,4.462,4.462,0,0,1,.156-.563,6.794,6.794,0,0,1,1.005-1.9,7.731,7.731,0,0,1,2.386-2.112,6.97,6.97,0,0,1,7.477.2,7.732,7.732,0,0,1,2.267,2.24,6.806,6.806,0,0,1,.9,1.951,4.514,4.514,0,0,1,.125.571A.7.7,0,0,1,286.673,294Z" transform="translate(-272.298 -287.843)" fill="#263238"/></g></g><path d="M231.071,227.792l10.519,13.337h48.825v-3.595H241.922Z" transform="translate(-218.725 -184.787)" opacity="0.5"/><g transform="translate(59.85 52.627)"><path d="M343.165,286.119c-.061,0-.111-7.979-.111-17.821s.05-17.822.111-17.822.11,7.978.11,17.822S343.226,286.119,343.165,286.119Z" transform="translate(-343.054 -250.476)" fill="#263238"/></g><rect width="5.243" height="5.927" transform="translate(64.057 77.87)" fill="#f5f5f5"/><g transform="translate(0 42.5)"><path d="M214.178,226.6l-12.211,10.247h12.211Z" transform="translate(-201.967 -226.602)" fill="#f7c90b"/><g opacity="0.4"><path d="M214.178,226.6l-12.211,10.247h12.211Z" transform="translate(-201.967 -226.602)"/></g></g></g><g transform="translate(103.936 165.623)"><g transform="translate(0)"><rect width="68.386" height="52.745" transform="translate(0 0.143)" fill="#f7c90b"/><rect width="68.386" height="52.745" transform="translate(0 0.143)" opacity="0.3"/><g transform="translate(51.142)"><path d="M334.561,386.924c-.061,0-.11-11.757-.11-26.257s.049-26.259.11-26.259.11,11.754.11,26.259S334.622,386.924,334.561,386.924Z" transform="translate(-334.451 -334.408)" fill="#263238"/></g><rect width="5.243" height="5.927" transform="translate(57.345 40.883)" fill="#f5f5f5"/><rect width="7.768" height="11.255" transform="translate(20.863 0.279)" fill="#263238"/><rect width="7.768" height="11.255" transform="translate(20.863 41.477)" fill="#263238"/></g><g transform="translate(0 0.032)"><path d="M281.682,334.594a1,1,0,0,1-.175.011l-.514.011-1.975.021-7.264.035-23.965.032-23.97-.032-7.264-.035-1.975-.021-.513-.011a1.012,1.012,0,0,1-.175-.011,1.028,1.028,0,0,1,.175-.011l.513-.011,1.975-.021,7.264-.035,23.97-.033,23.965.033,7.264.035,1.975.021.514.011A1.019,1.019,0,0,1,281.682,334.594Z" transform="translate(-213.892 -334.483)" fill="#263238"/></g></g><g transform="translate(28.054 49.628)"><g transform="translate(0 0)"><path d="M61.485,85.786l-7.447-1.83.055-.009a12.38,12.38,0,0,1-6.428,1.928,13.452,13.452,0,0,1-3.983-.582A12.314,12.314,0,0,1,39.8,83.236a12.476,12.476,0,0,1-4.7-8.3,12.326,12.326,0,0,1,3.2-9.942,12.939,12.939,0,0,1,2.157-1.879c.4-.249.8-.507,1.215-.725l.633-.305.316-.151.328-.12A12.558,12.558,0,0,1,48.306,61a12.4,12.4,0,0,1,10.927,8.343,12.839,12.839,0,0,1,.688,4.02,12.343,12.343,0,0,1-1.784,6.451v-.067l3.347,6.041-3.464-5.975L58,79.778l.02-.034a12.266,12.266,0,0,0,1.718-6.381,12.7,12.7,0,0,0-.7-3.956,12.2,12.2,0,0,0-10.754-8.17,12.348,12.348,0,0,0-5.249.805l-.322.118-.309.149-.621.3c-.406.215-.8.468-1.19.712a12.706,12.706,0,0,0-2.114,1.842,12.227,12.227,0,0,0,1.45,17.9A12.136,12.136,0,0,0,43.744,85.1a13.305,13.305,0,0,0,3.918.59,12.281,12.281,0,0,0,6.356-1.862l.026-.016.029.008Z" transform="translate(-35.012 -60.971)" fill="#263238"/></g><path d="M61.959,76.128l.394,6.22a1.01,1.01,0,0,0,.947.944h0a1.009,1.009,0,0,0,1.063-.9l.691-6.252a.792.792,0,0,0-.8-.879l-1.517.021A.792.792,0,0,0,61.959,76.128Z" transform="translate(-50.527 -69.201)" fill="#f7c90b"/><path d="M64.992,99.725a1.518,1.518,0,1,1-.963-1.92A1.518,1.518,0,0,1,64.992,99.725Z" transform="translate(-50.57 -82.135)" fill="#f7c90b"/></g></g></svg>