<svg xmlns="http://www.w3.org/2000/svg" width="254.586" height="165.038" viewBox="0 0 254.586 165.038"><g transform="translate(-147.332 -123.136)"><path d="M267.953,123.436C310,121,354.08,133.7,347.6,152.127s34.642-6.543,51.053.1c7.838,3.172,7.776,11.446,9.76,18.424a44.951,44.951,0,0,0,10.944,18.611c4.983,5.16,10.805,9.676,14.554,15.9,3.609,5.989,3.9,12.247,4.383,19a123.513,123.513,0,0,1-1.029,23.835c-1.169,9.413-3.031,19.015-6.686,27.809-1.792,4.311-5.306,12.339-11.059,12.3l-196.532-1.194-14.1-1.267s-39.013-21.333-11.105-41.013c18.869-13.307,5.292-22.969,3.24-29.061-2.356-6.994-7.854-19.21,16.1-28.175s17.77-28.47,17.181-32.509S225.908,125.876,267.953,123.436Z" transform="translate(-36.59 0)" fill="#9bc1f9" opacity="0.1"/><g transform="translate(171.951 208.672)"><g transform="translate(5.571 4.799)"><path d="M474.49,1115.836c-4.521-6.739-5.615-15.034-5.737-20.806a55.594,55.594,0,0,1,.83-11.042l-.313-.1a55.963,55.963,0,0,0-.838,11.119c.122,5.829,1.229,14.208,5.806,21.031Z" transform="translate(-468.418 -1083.887)" fill="#3c8f7c"/></g><g transform="translate(5.076 0)"><path d="M465.823,1036.563a4.765,4.765,0,0,1-1.469,3.392,5.585,5.585,0,0,1-1.2-3.717,4.765,4.765,0,0,1,1.469-3.392A5.585,5.585,0,0,1,465.823,1036.563Z" transform="translate(-463.152 -1032.846)" fill="#3c8f7c"/></g><g transform="translate(1.923 4.895)"><path d="M432.674,1087.1a5.578,5.578,0,0,1,.854,3.809,4.823,4.823,0,0,1-2.993-2.2,5.578,5.578,0,0,1-.854-3.809A4.823,4.823,0,0,1,432.674,1087.1Z" transform="translate(-429.624 -1084.908)" fill="#3c8f7c"/></g><g transform="translate(0 10.309)"><path d="M412.644,1143.176a5.318,5.318,0,0,1,2.3,3.076,4.12,4.12,0,0,1-3.474-.507,5.318,5.318,0,0,1-2.3-3.076A4.121,4.121,0,0,1,412.644,1143.176Z" transform="translate(-409.17 -1142.484)" fill="#3c8f7c"/></g><g transform="translate(0.564 14.944)"><ellipse cx="1.398" cy="2.699" rx="1.398" ry="2.699" transform="matrix(0.568, -0.823, 0.823, 0.568, 0, 2.301)" fill="#3c8f7c"/></g><g transform="translate(5.789 9.341)"><path d="M472.578,1132.707a3.535,3.535,0,0,1,3.078-.3,3.988,3.988,0,0,1-1.838,2.652,3.534,3.534,0,0,1-3.078.3A3.988,3.988,0,0,1,472.578,1132.707Z" transform="translate(-470.74 -1132.188)" fill="#3c8f7c"/></g><g transform="translate(5.81 13.047)"><path d="M472.8,1172.126a3.535,3.535,0,0,1,3.078-.3,3.988,3.988,0,0,1-1.838,2.652,3.535,3.535,0,0,1-3.078.3A3.987,3.987,0,0,1,472.8,1172.126Z" transform="translate(-470.965 -1171.607)" fill="#3c8f7c"/></g></g><g transform="translate(147.332 242.273)"><g transform="translate(4.94 5.274)"><path d="M226.533,1477.271c-9.477-3.45-16.105-11.68-20-17.977a67.549,67.549,0,0,1-6.248-12.994l-.419.167a68.019,68.019,0,0,0,6.289,13.086c3.929,6.359,10.627,14.673,20.221,18.166Z" transform="translate(-199.869 -1446.301)" fill="#96d9c9"/></g><g transform="translate(1.707)"><path d="M169.5,1393.272a6.85,6.85,0,0,1,.551,5.074,5.924,5.924,0,0,1-3.766-3.059,6.85,6.85,0,0,1-.551-5.074A5.924,5.924,0,0,1,169.5,1393.272Z" transform="translate(-165.482 -1390.213)" fill="#96d9c9"/></g><g transform="translate(0 8.861)"><path d="M152.133,1484.865a6.041,6.041,0,0,1,3.44,3.465,5.773,5.773,0,0,1-4.8.229,6.041,6.041,0,0,1-3.44-3.465A5.774,5.774,0,0,1,152.133,1484.865Z" transform="translate(-147.332 -1484.451)" fill="#96d9c9"/></g><g transform="translate(1.139 14.335)"><ellipse cx="4.454" cy="1.956" rx="4.454" ry="1.956" transform="matrix(0.99, -0.141, 0.141, 0.99, 0, 1.257)" fill="#96d9c9"/></g><g transform="translate(4.48 19.771)"><ellipse cx="4.454" cy="1.956" rx="4.454" ry="1.956" transform="translate(0 1.257) rotate(-8.113)" fill="#96d9c9"/></g><g transform="translate(8.716 7.596)"><path d="M240.046,1475.318a6.687,6.687,0,0,1,1.865-4.323,5.808,5.808,0,0,1,1.385,4.265,6.687,6.687,0,0,1-1.865,4.323A5.808,5.808,0,0,1,240.046,1475.318Z" transform="translate(-240.035 -1470.995)" fill="#96d9c9"/></g><g transform="translate(12.21 13.189)"><path d="M277.2,1534.84a6.71,6.71,0,0,1,1.8-4.356,5.779,5.779,0,0,1,1.448,4.236,6.711,6.711,0,0,1-1.8,4.356A5.781,5.781,0,0,1,277.2,1534.84Z" transform="translate(-277.193 -1530.484)" fill="#96d9c9"/></g><g transform="translate(13.362 25.721)"><path d="M290.777,1664.058a2.341,2.341,0,0,1,2.037-.1,2.7,2.7,0,0,1-1.33,1.683,2.341,2.341,0,0,1-2.037.1A2.7,2.7,0,0,1,290.777,1664.058Z" transform="translate(-289.447 -1663.773)" fill="#96d9c9"/></g></g><path d="M331.959,1240.052s7.367-16.266,4.9-19.9c-3.4-5.016-7.636,10.376-7.842,9.023-1.949-12.776-1.541-28.889-10.658-31.331-5.183-1.388.343,12.034-.3,15.492s-9.265-8.888-14.575-15.421-8.561-2.928-5.483,5c2.976,7.663,13.758,16.642,11.345,17.411s-15.947-9.906-17.987-5.972c-2.5,4.824,18.347,13.338,16.255,14.3s-12.023-3.555-12.023.287,13.724,4.8,13.367,6.464c-.578,2.69-9.2-4.2-9.872-.464-.689,3.818,11.7,4.107,11.27,7.093-.249,1.716-3.37-.08-3.934,2.279-1.287,5.38,18.239,12.918,18.239,12.918Z" transform="translate(-130.298 -970.66)" fill="#3c8f7c"/><path d="M644.513,1716.053c2.964,1.389,2.165,4.837,2.165,4.837s8.038-6.276,11.042-2.613,1.426,10.843-2.1,12.01-34.177.349-34.177.349S641.847,1714.8,644.513,1716.053Z" transform="translate(-429.535 -1443.08)" fill="#96d9c9"/><g transform="translate(176.088 238.234)"><g transform="translate(6.383 5.551)"><path d="M532.558,1444.328l.284-.242c-6.44-7.845-9.19-17.679-10.363-24.547a67.905,67.905,0,0,1-1.013-13.177l-.391-.07a68.331,68.331,0,0,0,1.017,13.26C523.274,1426.479,526.049,1436.4,532.558,1444.328Z" transform="translate(-521.052 -1406.292)" fill="#50bfa5"/></g><g transform="translate(4.472)"><path d="M503.916,1351.63a5.2,5.2,0,0,1-1.094,4.1,7.6,7.6,0,0,1-2.048-4.375,5.2,5.2,0,0,1,1.094-4.1A7.6,7.6,0,0,1,503.916,1351.63Z" transform="translate(-500.73 -1347.255)" fill="#50bfa5"/></g><g transform="translate(1.292 5.824)"><path d="M470.76,1411.7a7.437,7.437,0,0,1,1.669,4.5,6.536,6.536,0,0,1-3.855-2.494,7.437,7.437,0,0,1-1.669-4.5A6.537,6.537,0,0,1,470.76,1411.7Z" transform="translate(-466.905 -1409.201)" fill="#50bfa5"/></g><g transform="translate(0 12.297)"><path d="M457.278,1478.772a7.446,7.446,0,0,1,3.205,3.568,4.852,4.852,0,0,1-4.11-.464,7.447,7.447,0,0,1-3.205-3.568A4.851,4.851,0,0,1,457.278,1478.772Z" transform="translate(-453.168 -1478.039)" fill="#50bfa5"/></g><g transform="translate(5.003 20.557)"><path d="M508.1,1566.114a3.105,3.105,0,0,1,1.439,1.4,1.984,1.984,0,0,1-1.72-.061,3.1,3.1,0,0,1-1.439-1.4A1.984,1.984,0,0,1,508.1,1566.114Z" transform="translate(-506.378 -1565.885)" fill="#50bfa5"/></g><g transform="translate(5.796 23.448)"><path d="M516.532,1596.866a3.1,3.1,0,0,1,1.439,1.4,1.985,1.985,0,0,1-1.72-.06,3.1,3.1,0,0,1-1.439-1.4A1.984,1.984,0,0,1,516.532,1596.866Z" transform="translate(-514.812 -1596.637)" fill="#50bfa5"/></g><g transform="translate(7.058 10.812)"><path d="M529.886,1462.934a3.858,3.858,0,0,1,3.508-.475,4.13,4.13,0,0,1-1.653,3.229,3.857,3.857,0,0,1-3.508.475A4.131,4.131,0,0,1,529.886,1462.934Z" transform="translate(-528.233 -1462.241)" fill="#50bfa5"/></g><g transform="translate(7.744 15.221)"><path d="M537.187,1509.835a3.858,3.858,0,0,1,3.508-.475,4.131,4.131,0,0,1-1.653,3.229,3.857,3.857,0,0,1-3.508.475A4.13,4.13,0,0,1,537.187,1509.835Z" transform="translate(-535.534 -1509.141)" fill="#50bfa5"/></g><g transform="translate(8.773 21.831)"><path d="M547.548,1579.891a2.511,2.511,0,0,1,2.283-.309,2.688,2.688,0,0,1-1.076,2.1,2.511,2.511,0,0,1-2.283.309A2.688,2.688,0,0,1,547.548,1579.891Z" transform="translate(-546.472 -1579.439)" fill="#50bfa5"/></g></g><path d="M371.341,1718.927s-9.414-12.087-13.35-13.939c-4.193-1.973-.557,4.865-.557,4.865s-8.967-8.808-11.073-6.609a2.907,2.907,0,0,0,.143,4.257s-7.508-1.4-8.6,1.418c-1.682,4.322,10.667,6.472,10.667,6.472s-5.916-1.3-4.732,1.377C345.621,1720.8,371.341,1718.927,371.341,1718.927Z" transform="translate(-172.508 -1431.219)" fill="#50bfa5"/><path d="M339.418,1707.086c1.095-2.812,8.6-1.417,8.6-1.417a2.907,2.907,0,0,1-.143-4.257c2.106-2.2,9.125,2.994,9.125,2.994s-1.087-4.773,4.185-1.019c3.766,2.682,11.035,12.687,11.035,12.687Z" transform="translate(-174.025 -1429.386)" fill="#96d9c9"/><g transform="translate(191.91 261.064)"><path d="M621.445,1616.528s15,1.061,17.923-1.625.023-7.553.023-7.553,5.148-4.069,5.068-6.726-3.434-1.309-3.434-1.309,5.684-7.319,4.336-8.711c-2.511-2.593-9.083,5.015-9.083,5.015s1.95-3.619-.107-4.194c-3.1-.867-5.385,8.059-5.385,8.059s.579-3.525-1.56-3.057C625.387,1597.266,621.445,1616.528,621.445,1616.528Z" transform="translate(-621.445 -1590.065)" fill="#50bfa5"/></g><path d="M741.842,1639h-1.256l4.679-24.313,1.044.2Z" transform="translate(-537.474 -1351.303)" fill="#0e2e35"/><path d="M2119.327,1378.089l1.211-2.937a4.129,4.129,0,0,1,5.37-2.3h0c5.106,2.237,7.326,8.462,4.958,13.905l-1.731,3.979a5.011,5.011,0,0,0,.528,5.013,4.426,4.426,0,0,1,.437,4.416l-.913,2.1a8.323,8.323,0,0,1-5.191,4.647,5.05,5.05,0,0,0-3.134,2.842l-1.292,2.97a6.277,6.277,0,0,1-8.165,3.5l-1.758-.77a6.316,6.316,0,0,1-2.992-8.39h0c2.31-3.927,2.126-6.857,1.307-8.845a11.928,11.928,0,0,1,.113-9.279l.183-.42a11.781,11.781,0,0,1,7.189-6.528A6.428,6.428,0,0,0,2119.327,1378.089Z" transform="translate(-1774.58 -1131.92)" fill="#50bfa5"/><path d="M2012.856,1569.639c2.478-3.224,16.248-20.346,25.108-23.224,9.78-3.177.563,9.441.563,9.441s17.35-19.036,23.717-17.32c5.836,1.573,0,13.373,0,13.373s6.574-6.534,14.545-6.534c7.758,0-5.386,23.757-6.1,25Z" transform="translate(-1690.118 -1282.218)" fill="#96d9c9"/><g transform="translate(359.098 241.313)"><g transform="translate(0 2.997)"><path d="M2415.476,1418.344a117.888,117.888,0,0,0-15.211,37.109l-.7-.008a119.8,119.8,0,0,1,15.368-36.924c1.645-2.579,3.421-5.639,6.5-6.645.059-.019.082.071.025.093C2418.644,1413.033,2417.015,1415.932,2415.476,1418.344Z" transform="translate(-2399.563 -1411.874)" fill="#3c8f7c"/></g><g transform="translate(2.314 16.978)"><path d="M2424.169,1590.19a144.086,144.086,0,0,1,29.091-29.6c.115-.087.269.113.154.2a142.588,142.588,0,0,0-28.52,29.4Z" transform="translate(-2424.169 -1560.568)" fill="#3c8f7c"/></g><path d="M2570.533,1385.687a5.06,5.06,0,0,1,1.086,1.894,3.918,3.918,0,0,1,.035,1.933,4.21,4.21,0,0,0,1.077-1.87,4.142,4.142,0,0,0-.329-3.172c-.748-1.157-2.055-1.275-2.309-.714A2.248,2.248,0,0,0,2570.533,1385.687Z" transform="translate(-2553.972 -1383.109)" fill="#3c8f7c"/><path d="M2557.194,1489.868a5.035,5.035,0,0,0-1.866-1.127,3.877,3.877,0,0,0-1.925-.073,4.2,4.2,0,0,1,1.885-1.044,4.1,4.1,0,0,1,3.154.392c1.138.773,1.229,2.087.665,2.33C2558.546,1490.605,2557.8,1490.248,2557.194,1489.868Z" transform="translate(-2538.937 -1477.375)" fill="#3c8f7c"/><path d="M2529.975,1536.089a5.039,5.039,0,0,0-1.866-1.127,3.876,3.876,0,0,0-1.925-.073,4.193,4.193,0,0,1,1.885-1.044,4.1,4.1,0,0,1,3.154.392c1.139.773,1.23,2.087.666,2.33C2531.327,1536.826,2530.578,1536.469,2529.975,1536.089Z" transform="translate(-2514.278 -1519.25)" fill="#3c8f7c"/><path d="M2627.063,1643.3a5.037,5.037,0,0,0-1.866-1.127,3.874,3.874,0,0,0-1.925-.073,4.189,4.189,0,0,1,1.885-1.044,4.1,4.1,0,0,1,3.154.392c1.139.773,1.23,2.087.666,2.33C2628.415,1644.036,2627.666,1643.679,2627.063,1643.3Z" transform="translate(-2602.237 -1616.379)" fill="#3c8f7c"/><path d="M2676.665,1599.451a5.035,5.035,0,0,0-1.866-1.127,3.875,3.875,0,0,0-1.925-.073,4.2,4.2,0,0,1,1.885-1.044,4.1,4.1,0,0,1,3.154.392c1.139.773,1.23,2.087.666,2.33C2678.017,1600.189,2677.268,1599.831,2676.665,1599.451Z" transform="translate(-2647.175 -1576.654)" fill="#3c8f7c"/><path d="M2530.131,1437.782a5.051,5.051,0,0,1,1.371,1.7,3.916,3.916,0,0,1,.338,1.9,4.223,4.223,0,0,0,.77-2.017,4.138,4.138,0,0,0-.823-3.08c-.92-1.025-2.229-.934-2.392-.34C2529.216,1436.54,2529.673,1437.235,2530.131,1437.782Z" transform="translate(-2517.152 -1430.287)" fill="#3c8f7c"/><path d="M2486.027,1486.016a4.393,4.393,0,0,1,1.98,1.3,3.378,3.378,0,0,1,.668,1.978,5.6,5.6,0,0,0,.752-2.584,3.436,3.436,0,0,0-1.438-3.083c-1.316-.747-3-.081-3.137.653C2484.692,1485.025,2485.367,1485.6,2486.027,1486.016Z" transform="translate(-2476.811 -1473.593)" fill="#3c8f7c"/><path d="M2441.484,1564.283a4.39,4.39,0,0,1,2.17.952,3.373,3.373,0,0,1,.99,1.837,5.6,5.6,0,0,0,.309-2.674,3.432,3.432,0,0,0-1.935-2.8c-1.422-.514-2.97.427-2.983,1.173C2440,1563.531,2440.765,1563.988,2441.484,1564.283Z" transform="translate(-2436.229 -1544.395)" fill="#3c8f7c"/><path d="M2571.52,1625.909a3.587,3.587,0,0,1,1.537,1.175,2.759,2.759,0,0,1,.431,1.647,4.572,4.572,0,0,0,.758-2.059,2.805,2.805,0,0,0-1-2.59c-1.028-.683-2.435-.237-2.589.352C2570.49,1625.026,2571.007,1625.535,2571.52,1625.909Z" transform="translate(-2554.544 -1600.82)" fill="#3c8f7c"/><path d="M2623.9,1411.976a2.991,2.991,0,0,0-1.055-.749,2.3,2.3,0,0,0-1.135-.128,2.485,2.485,0,0,1,1.16-.535,2.435,2.435,0,0,1,1.849.37c.64.507.636,1.289.292,1.408S2624.244,1412.227,2623.9,1411.976Z" transform="translate(-2600.825 -1407.651)" fill="#3c8f7c"/><path d="M2623.667,1381.154a3.015,3.015,0,0,1-.053,1.3,2.316,2.316,0,0,1-.593.98,2.485,2.485,0,0,0,1.13-.6,2.452,2.452,0,0,0,.836-1.7c-.01-.818-.628-1.292-.933-1.091S2623.676,1380.73,2623.667,1381.154Z" transform="translate(-2602.01 -1380.001)" fill="#3c8f7c"/><path d="M2727.815,1563.767a2.99,2.99,0,0,0-1.055-.749,2.3,2.3,0,0,0-1.136-.128,2.488,2.488,0,0,1,1.161-.535,2.433,2.433,0,0,1,1.849.37c.64.507.636,1.288.292,1.408S2728.156,1564.019,2727.815,1563.767Z" transform="translate(-2694.967 -1545.17)" fill="#3c8f7c"/><path d="M2726.27,1532.246a3.011,3.011,0,0,1,.053,1.3,2.317,2.317,0,0,1-.51,1.026,2.486,2.486,0,0,0,1.078-.687,2.453,2.453,0,0,0,.695-1.758c-.077-.815-.732-1.236-1.019-1.011S2726.244,1531.823,2726.27,1532.246Z" transform="translate(-2695.135 -1516.848)" fill="#3c8f7c"/></g><path d="M2643.151,1721.43a4.7,4.7,0,0,1,.166,2.018,3.619,3.619,0,0,1-.731,1.634,3.886,3.886,0,0,0,1.638-1.141,3.833,3.833,0,0,0,.972-2.789c-.172-1.266-1.221-1.882-1.655-1.512S2643.084,1720.772,2643.151,1721.43Z" transform="translate(-2260.636 -1446.296)" fill="#3c8f7c"/><path d="M2575.33,1745.8a4.7,4.7,0,0,1,.166,2.018,3.618,3.618,0,0,1-.731,1.634,3.885,3.885,0,0,0,1.638-1.141,3.834,3.834,0,0,0,.972-2.789c-.172-1.266-1.221-1.882-1.655-1.512S2575.263,1745.138,2575.33,1745.8Z" transform="translate(-2199.192 -1468.371)" fill="#3c8f7c"/><path d="M2506.419,1776.617a4.7,4.7,0,0,1,.166,2.018,3.615,3.615,0,0,1-.731,1.634,3.885,3.885,0,0,0,1.638-1.141,3.833,3.833,0,0,0,.972-2.789c-.172-1.266-1.221-1.882-1.655-1.512S2506.353,1775.959,2506.419,1776.617Z" transform="translate(-2136.76 -1496.294)" fill="#3c8f7c"/><path d="M2645.27,1778.785a4.334,4.334,0,0,0-1-1.58,3.328,3.328,0,0,0-1.447-.795,3.582,3.582,0,0,1,1.842-.076,3.522,3.522,0,0,1,2.267,1.511c.578,1.029.147,2.071-.378,2.041S2645.587,1779.308,2645.27,1778.785Z" transform="translate(-2260.851 -1497.673)" fill="#3c8f7c"/><path d="M2574.726,1803.84a4.334,4.334,0,0,0-1-1.58,3.329,3.329,0,0,0-1.447-.795,3.582,3.582,0,0,1,1.842-.076,3.522,3.522,0,0,1,2.267,1.511c.578,1.029.147,2.071-.378,2.041S2575.043,1804.363,2574.726,1803.84Z" transform="translate(-2196.94 -1520.372)" fill="#3c8f7c"/><path d="M2704.762,1763.424a2.773,2.773,0,0,0-.836-.859,2.128,2.128,0,0,0-1.013-.307,2.3,2.3,0,0,1,1.147-.292,2.257,2.257,0,0,1,1.623.648c.5.57.365,1.281.031,1.332S2705.03,1763.71,2704.762,1763.424Z" transform="translate(-2315.292 -1484.737)" fill="#3c8f7c"/><path d="M2705.11,1734.937a2.789,2.789,0,0,1-.265,1.171,2.135,2.135,0,0,1-.7.794,2.3,2.3,0,0,0,1.13-.353,2.268,2.268,0,0,0,1.044-1.4c.128-.747-.357-1.283-.667-1.151S2705.189,1734.552,2705.11,1734.937Z" transform="translate(-2316.406 -1459.378)" fill="#3c8f7c"/><path d="M2307.584,725.225a.616.616,0,0,0,.623-.749c-.156-.585-.3-1.173-.453-1.76-.331-1.3-.384-1.337-.293-1.446.217-.261.74.043.922.173a7.288,7.288,0,0,0,1.2.885c.9.4,1.79-.115,1.644-1.143-.134-.941-.322-1.882-.516-2.817.94.5,1.866,1.033,2.812,1.521a.421.421,0,0,0,.629-.443l-.5-4.084c-.025-.209-.259-1.168-.047-1.275.19-.1.82.3.97.368.833.386,1.132.51,3.869,1.7a.493.493,0,0,0,.629-.578c-1.159-3.363-.738-3.512-1.329-4.111a.233.233,0,0,0-.388.085c-.187.4-.2.506.15,2.051q.138.6.3,1.19c-3.3-1.511-4.092-1.971-4.788-1.337-.483.44-.37.632.206,5.266-.958-.578-1.946-1.1-2.93-1.634a.48.48,0,0,0-.718.5c.5,3.368.646,3.435.609,3.744,0,.008.167.1-.1,0-.445-.177-1.089-1.093-1.995-1.252a1.446,1.446,0,0,0-1.793,1.162,10.178,10.178,0,0,0,.517,2.647,12.426,12.426,0,0,0-2.944.079,1.933,1.933,0,0,0-1.077.445.515.515,0,0,0,.187.863C2304.03,725.53,2304.708,724.872,2307.584,725.225Z" transform="translate(-1952.658 -532.95)" fill="#f7cc7f"/><path d="M2425.875,951.207a15.359,15.359,0,0,1,.61-2.658c.055-.17.121-.5.327-.555.495-.135.906.769,2.407,1.6.651.36,1.967,1.16,2.551.315a5.533,5.533,0,0,0,.524-1.568c.111-.378.237-.752.355-1.128,2.388,1.512,2.194,1.62,2.862,1.538a.347.347,0,0,0,.275-.4c-.179-.637-.156-.464-3.149-2.4a.537.537,0,0,0-.8.261c-.15.512-.7,2.868-.819,3.146-.021-.026-.153-.04-.18-.049a8.837,8.837,0,0,1-2.742-1.73c-.71-.575-1.808-.908-2.369.052a10.741,10.741,0,0,0-.775,2.616c-1.436-.98-2.866-1.972-4.308-2.942a.59.59,0,0,0-.884.288c-.238,1.057-.511,2.1-.792,3.146a10,10,0,0,1-2.217-2.114c-.463-.6-1.458,0-.187,1.438a9.665,9.665,0,0,0,2.43,2.089.594.594,0,0,0,.886-.289c.309-1.025.571-2.067.813-3.111,1.443.959,2.9,1.9,4.338,2.863A.548.548,0,0,0,2425.875,951.207Z" transform="translate(-2055.303 -745.368)" fill="#f47458"/><path d="M2411.983,1108.483a.593.593,0,0,0,.335.722,13.047,13.047,0,0,0,4.321,1.448c.8.1.865-1.118.1-1.259a15.846,15.846,0,0,1-3.564-1.016,12.658,12.658,0,0,1,1.127-2.484.61.61,0,0,0-.287-.9c-.949-.254-4.571-1.107-4.614-1.078a.2.2,0,0,0,.026-.1c.043-.4.7-1.6.851-2.2.164-.67-.642-1.17-1.158-1.379-1.047-.424-2.473,0-3.4-.733-.89-.7.717-1.948.271-3.428-.343-1.141-1.508-1.175-3.308-1.354a1.329,1.329,0,0,0-1.207.267.3.3,0,0,0-.068.349c.37.629,1.05.6,2.682.8.208.026.578.008.71.207.442.663-.817,1.747-.458,3.085a2.618,2.618,0,0,0,2.27,1.69c.748.128,1.763-.027,2.417.451-.227.614-.472,1.229-.65,1.857a1.149,1.149,0,0,0,.684,1.527,19.1,19.1,0,0,0,2.334.611c.518.129,1.035.259,1.554.384A14.306,14.306,0,0,0,2411.983,1108.483Z" transform="translate(-2042.109 -880.214)" fill="#3cb4c5"/><path d="M2113.323,629.944c-3.078-4.552-6.047-2.164-5.288-.429a1.182,1.182,0,0,0,1.853.519.485.485,0,0,0-.274-.84c-.347,0-.314-.378.064-.417.509-.053.962.444,1.291.767.769.755,1.775,1.723,1.59,2.913-.277,1.776-2.55,3.065-4.826,1.3-3.282-2.54-1.3-8.557,2.935-8.394a5.813,5.813,0,0,1,5.123,3.834c.154.421.732.154.7-.232-.271-2.926-3.312-4.916-6.106-4.783a5.9,5.9,0,0,0-5.373,5.247,5.62,5.62,0,0,0,4.247,6.472C2112.526,636.526,2115.476,633.127,2113.323,629.944Z" transform="translate(-1773.55 -453.933)" fill="#3cb4c5"/><path d="M2387.994,1291.111c-.526-.662-1.811-1.356-2.527-.584a.785.785,0,0,0,.071,1.218c.432.3.954.175,1.191.727a1.05,1.05,0,0,1-.539,1.215c-1.19.775-2.973-.1-3.854-.991a2.663,2.663,0,0,1,1.165-4.5,5.982,5.982,0,0,1,2.031-.032c.377.023.712-.485.4-.783-1.217-1.149-3.259-.747-4.469.218a4.261,4.261,0,0,0-1.339,4.392,5.479,5.479,0,0,0,3.812,3.487C2387.419,1296.475,2389.7,1293.256,2387.994,1291.111Z" transform="translate(-2022.709 -1054.143)" fill="#3c8f7c"/><g transform="translate(177.099 182.767)"><path d="M542.179,924.987a13.655,13.655,0,0,0-1.229-6.536,5.491,5.491,0,0,0-4.9-2.814c-6.13-.008-6.909,8.153-10.811,11.3-1.192.962-2.525,1.745-3.653,2.783-4.166,3.83-2.289,10.921,1.536,14.279,2.654,2.33,6.826,3.654,10.1,1.833a10.337,10.337,0,0,0,3.928-4.263,58.548,58.548,0,0,0,3.088-7.914A29.729,29.729,0,0,0,542.179,924.987Z" transform="translate(-514.022 -900.752)" fill="#0e2e35"/><path d="M478.929,782.492s-4.5-8.1-5.6-9.818-3.949-8.561-4.051-8.83,1.965-3.506,1.5-3.617-.972,1.707-1.464,1.489-1.93-4.592-2.211-4.375c-.525.406.775,2.714.5,2.859s-1.127-2.539-1.677-2.46,1.045,2.461.891,2.671-1.809-2.034-2.108-1.555c-.163.26,1.522,1.959,1.2,2.118s-1.822-.937-1.981-.621,1.386.749,1.848,1.6,1.248,1.221,1.575,2.8.815,7.292,2.488,10.143,5.353,9.159,5.353,9.159Z" transform="translate(-463.918 -757.333)" fill="#f79c8d"/><path d="M760.579,1199.285l-7-5.358s-.7-5-1.647-9.434c-1.181.335-2.247,1.264-3.429,1.589l1.78,9.933,9.174,4.749,2.591,3.342.589-3.43Z" transform="translate(-721.745 -1144.329)" fill="#f48c7f"/><path d="M734.95,1076.648c-1.915-5.828-4.056-5.579-4.056-5.579l1.656,12.252c1.182-.324,2.722-1.046,3.9-1.381A53.546,53.546,0,0,0,734.95,1076.648Z" transform="translate(-705.792 -1041.568)" fill="#f7cc7f"/><path d="M536.169,1781.905s-.432,3.012-1.175,3.984a7.684,7.684,0,0,0-1,1.329,3.928,3.928,0,0,0,.135,3.037c.176.386-.012.385.389.51a2.461,2.461,0,0,0,2.958-1.4,7.128,7.128,0,0,0,.58-2.567,9.336,9.336,0,0,1,.973-4.126Z" transform="translate(-527.173 -1685.57)" fill="#f7a491"/><path d="M693.091,1796.559a28.576,28.576,0,0,1,.05,4.5c-.116.591-.761,1.808-.465,2.364a1.489,1.489,0,0,0,.635.7l7.672.124c.418.007.142-.264-.2-.513a15.442,15.442,0,0,0-2.759-1.535c-.115-.056-.533-.323-.684-.416a5.312,5.312,0,0,1-1.1-.975c-.551-.617-.6-3.608-.6-3.608Z" transform="translate(-671.097 -1698.846)" fill="#f7a491"/><path d="M690.995,1308.135s.966,5.515.332,9.131-3.679,37.131-3.679,37.131l-3.384.192s-.709-14-.582-15.947a30.334,30.334,0,0,1,1.131-5.205l-.337-11.3,4.27-14.85Z" transform="translate(-663.004 -1255.575)" fill="#13375b"/><path d="M564.578,1291.94s-2.664,4.033-3.3,7.371.466,13.595-.755,17.969c-.661,2.368-3.164,6.024-3.545,9.083s-1.874,11.073-1.874,11.073l3.382.674,7.86-20.015,6.165-18.09,1.579-9.317Z" transform="translate(-546.532 -1240.54)" fill="#355389"/><path d="M628.76,1059.843s-3.528-.226-4.923,1.3,3.1,13.631,3.349,15.578-1.294,7.124-1.294,7.124,8.287,1.677,10.655.1c0,0,.254-14,0-15.391a41.292,41.292,0,0,0-2.876-7.6C633.165,1060.4,628.76,1059.843,628.76,1059.843Z" transform="translate(-608.558 -1031.389)" fill="#fae0b2"/><path d="M678.8,1008.778s-.018.1-.051.282a27.042,27.042,0,0,1-1.172,4.46c-.495.94,1.693,3.938,3.8,3.572.627-.109-.53-2.755-.474-3.035.106-.536.251-1.268.4-2.019l.247-1.256c.225-1.146.409-2.084.409-2.084Z" transform="translate(-657.428 -985.064)" fill="#f7a491"/><path d="M689.806,1009.06c.033-.178.051-.282.051-.282l3.155-.079s-.184.938-.409,2.084l-.245,1.249a2.949,2.949,0,0,1-1.506-.76,4.006,4.006,0,0,1-1.141-1.706C689.749,1009.365,689.781,1009.193,689.806,1009.06Z" transform="translate(-668.48 -985.064)" fill="#f47458"/><path d="M680.531,932.762a2.835,2.835,0,0,0-2.419,1.04c-.932,1.212-1.936,4.961.379,7s4.6-.269,4.942-2.715S683.9,932.674,680.531,932.762Z" transform="translate(-657.031 -916.26)" fill="#f7a491"/><path d="M739.775,976.2c-.276.54-.74.839-1.036.668s-.312-.748-.035-1.288.74-.839,1.036-.668S740.052,975.663,739.775,976.2Z" transform="translate(-712.688 -954.414)" fill="#f7a491"/><path d="M667.3,928.217s-1.986,3.565-3.408,3.73-1.608,2.059-1.608,2.059.508-4.365,1.915-5.207A5.2,5.2,0,0,1,667.3,928.217Z" transform="translate(-643.631 -912.115)" fill="#0e2e35"/><path d="M535.191,1839.864a3.772,3.772,0,0,1-3.708-1.558,4.109,4.109,0,0,0-.352,3.047c.3.665,1.19.646,1.889.672a1.823,1.823,0,0,0,1.676-1.032A6.192,6.192,0,0,0,535.191,1839.864Z" transform="translate(-524.661 -1736.668)" fill="#b75742"/><path d="M697.179,1850.419a6.91,6.91,0,0,1-4.368-.172,3.563,3.563,0,0,0-.351,1.836c.186.546.451.67.686.676,1.853.049,6.789.116,8.2.134a.232.232,0,0,0,.179-.382A37.014,37.014,0,0,0,697.179,1850.419Z" transform="translate(-670.932 -1747.485)" fill="#b75742"/><path d="M669.021,968.086c.116.633-.117,1.214-.519,1.3s-.822-.363-.938-1,.117-1.214.519-1.3S668.906,967.453,669.021,968.086Z" transform="translate(-648.39 -947.359)" fill="#f7a491"/><path d="M576.271,997.005s4.98,5.385,5.72,7.556-.722,5.275-2.741,5.411-6.513-9.558-6.513-9.558Z" transform="translate(-562.506 -974.47)" fill="#f7cc7f"/></g><g transform="translate(274.848 190.596)"><rect width="69.036" height="96.906" rx="34.518" transform="translate(0)" fill="#f7cc7f"/><rect width="57.255" height="14.783" transform="translate(6.216 7.971)" fill="#3cb4c5"/><path d="M1571.161,927.5H1626.9v-2.128h-57.255v14.783h1.519Z" transform="translate(-1563.426 -917.403)" fill="#3cb4c5" opacity="0.5" style="mix-blend-mode:multiply;isolation:isolate"/><path d="M2.662,0h11.1a2.663,2.663,0,0,1,2.663,2.663v0a2.662,2.662,0,0,1-2.662,2.662H2.663A2.663,2.663,0,0,1,0,2.662v0A2.662,2.662,0,0,1,2.662,0Z" transform="translate(6.216 26.971)" fill="#f47458"/><rect width="16.428" height="5.326" rx="2.663" transform="translate(26.629 26.971)" fill="#f47458"/><rect width="16.428" height="5.326" rx="2.663" transform="translate(47.043 26.971)" fill="#f47458"/><rect width="12.714" height="11.94" rx="5.97" transform="translate(6.216 36.514)" fill="#f47458"/><path d="M5.969,0h.775a5.969,5.969,0,0,1,5.969,5.969v0a5.97,5.97,0,0,1-5.97,5.97H5.969A5.969,5.969,0,0,1,0,5.97v0A5.969,5.969,0,0,1,5.969,0Z" transform="translate(21.063 36.514)" fill="#fae0b2"/><path d="M5.969,0h.775a5.969,5.969,0,0,1,5.969,5.969v0a5.97,5.97,0,0,1-5.97,5.97H5.969A5.969,5.969,0,0,1,0,5.97v0A5.969,5.969,0,0,1,5.969,0Z" transform="translate(35.91 36.514)" fill="#fae0b2"/><path d="M5.97,0h.774a5.97,5.97,0,0,1,5.97,5.97v0a5.97,5.97,0,0,1-5.97,5.97H5.969A5.969,5.969,0,0,1,0,5.97v0A5.97,5.97,0,0,1,5.97,0Z" transform="translate(6.216 51.233)" fill="#f47458"/><path d="M5.97,0h.774a5.97,5.97,0,0,1,5.97,5.97v0a5.97,5.97,0,0,1-5.97,5.97H5.969A5.969,5.969,0,0,1,0,5.971v0A5.97,5.97,0,0,1,5.97,0Z" transform="translate(21.063 51.233)" fill="#fae0b2"/><path d="M5.97,0h.774a5.969,5.969,0,0,1,5.969,5.969v0A5.969,5.969,0,0,1,6.744,11.94H5.969A5.969,5.969,0,0,1,0,5.97v0A5.97,5.97,0,0,1,5.97,0Z" transform="translate(35.91 51.233)" fill="#fae0b2"/><path d="M2053.479,1228.943h-7.533a2.594,2.594,0,0,0-2.59,2.6V1253a2.6,2.6,0,0,0,2.59,2.6h7.533a2.6,2.6,0,0,0,2.59-2.6v-21.461A2.6,2.6,0,0,0,2053.479,1228.943Z" transform="translate(-1992.598 -1192.429)" fill="#fae0b2"/><rect width="12.714" height="11.94" rx="5.97" transform="translate(6.216 65.952)" fill="#f47458"/><rect width="12.714" height="11.94" rx="5.97" transform="translate(21.063 65.952)" fill="#fae0b2"/><rect width="12.714" height="11.94" rx="5.97" transform="translate(35.91 65.952)" fill="#fae0b2"/><path d="M5.969,0h.774a5.97,5.97,0,0,1,5.97,5.97v0A5.969,5.969,0,0,1,6.744,11.94H5.969A5.969,5.969,0,0,1,0,5.97v0A5.969,5.969,0,0,1,5.969,0Z" transform="translate(50.757 65.952)" fill="#fae0b2"/><rect width="12.714" height="11.939" rx="5.97" transform="translate(6.216 80.671)" fill="#f47458"/><rect width="12.714" height="11.939" rx="5.97" transform="translate(21.063 80.671)" fill="#fae0b2"/><rect width="12.714" height="11.939" rx="5.97" transform="translate(35.91 80.671)" fill="#fae0b2"/><rect width="12.714" height="11.939" rx="5.97" transform="translate(50.757 80.671)" fill="#e87b50"/><g transform="translate(10.497 68.785)"><path d="M1619.426,1572.16v.6l-2.935,6.161h-.944l2.925-5.984v-.021h-3.3v-.76Z" transform="translate(-1615.174 -1572.16)" fill="#fff"/></g><g transform="translate(25.194 68.67)"><path d="M1771.482,1576.1a1.932,1.932,0,0,1,1.338-1.811l-.01-.031a1.675,1.675,0,0,1-1.068-1.519,1.891,1.891,0,0,1,2.085-1.8,1.743,1.743,0,0,1,1.96,1.665,1.719,1.719,0,0,1-1.11,1.582v.031a1.874,1.874,0,0,1,1.359,1.748,2.079,2.079,0,0,1-2.292,1.967C1772.333,1577.936,1771.482,1577.093,1771.482,1576.1Zm3.63-.042c0-.822-.57-1.218-1.483-1.478a1.468,1.468,0,0,0-1.213,1.394,1.249,1.249,0,0,0,1.348,1.291A1.222,1.222,0,0,0,1775.112,1576.063Zm-2.51-3.382c0,.677.508,1.041,1.286,1.249a1.332,1.332,0,0,0,1.027-1.228,1.05,1.05,0,0,0-1.141-1.1A1.074,1.074,0,0,0,1772.6,1572.681Z" transform="translate(-1771.482 -1570.943)" fill="#fff"/></g><g transform="translate(25.184 83.208)"><path d="M1775.947,1728.988c0,2.3-.85,3.569-2.344,3.569-1.317,0-2.209-1.238-2.23-3.476,0-2.269.975-3.517,2.344-3.517C1775.138,1725.564,1775.947,1726.833,1775.947,1728.988Zm-3.661.1c0,1.759.539,2.758,1.369,2.758.933,0,1.379-1.093,1.379-2.82,0-1.665-.425-2.758-1.369-2.758C1772.866,1726.272,1772.286,1727.25,1772.286,1729.092Z" transform="translate(-1771.373 -1725.564)" fill="#fff"/></g><g transform="translate(40.296 68.67)"><path d="M1932.666,1577.177a3.8,3.8,0,0,0,.736-.031,2.539,2.539,0,0,0,1.411-.656,2.973,2.973,0,0,0,.892-1.8h-.031a2.024,2.024,0,0,1-3.578-1.343,2.315,2.315,0,0,1,2.3-2.4c1.379,0,2.23,1.124,2.23,2.851a4.282,4.282,0,0,1-1.162,3.174,3.366,3.366,0,0,1-1.96.905,4.241,4.241,0,0,1-.84.052Zm.332-3.892a1.3,1.3,0,0,0,1.3,1.436,1.508,1.508,0,0,0,1.328-.708.607.607,0,0,0,.083-.333c0-1.155-.425-2.04-1.379-2.04C1933.548,1571.64,1933,1572.327,1933,1573.284Z" transform="translate(-1932.096 -1570.943)" fill="#fff"/></g><g transform="translate(10.062 53.777)"><path d="M1613.673,1419.315v-1.842h-3.132v-.6l3.008-4.319h.985v4.2h.944v.718h-.944v1.842Zm0-2.56V1414.5q0-.531.031-1.062h-.031c-.207.4-.373.687-.56,1l-1.649,2.3v.021Z" transform="translate(-1610.541 -1412.551)" fill="#fff"/></g><g transform="translate(25.246 53.777)"><path d="M1776.089,1413.321h-2.572l-.259,1.738a3.6,3.6,0,0,1,.55-.042,2.84,2.84,0,0,1,1.452.364,1.929,1.929,0,0,1,.965,1.738,2.342,2.342,0,0,1-2.51,2.31,3.292,3.292,0,0,1-1.68-.416l.228-.7a3.01,3.01,0,0,0,1.442.375,1.489,1.489,0,0,0,1.6-1.467c-.01-.874-.591-1.5-1.939-1.5a6.9,6.9,0,0,0-.933.073l.436-3.247h3.225Z" transform="translate(-1772.034 -1412.551)" fill="#fff"/></g><g transform="translate(40.223 53.673)"><path d="M1935.285,1412.193a3.286,3.286,0,0,0-.685.042,2.745,2.745,0,0,0-2.344,2.4h.031a2.054,2.054,0,0,1,3.661,1.4,2.259,2.259,0,0,1-2.24,2.383c-1.442,0-2.385-1.124-2.385-2.883a4.26,4.26,0,0,1,1.141-3.049,3.664,3.664,0,0,1,2.157-1,4.355,4.355,0,0,1,.664-.052Zm-.259,3.9a1.373,1.373,0,0,0-1.39-1.551,1.5,1.5,0,0,0-1.307.833.78.78,0,0,0-.1.406c.021,1.114.529,1.936,1.483,1.936C1934.5,1417.719,1935.026,1417.063,1935.026,1416.1Z" transform="translate(-1931.323 -1411.444)" fill="#fff"/></g><g transform="translate(10.985 39.395)"><path d="M1621.727,1260.446h-.021l-1.172.635-.176-.7,1.473-.791h.778v6.764h-.882Z" transform="translate(-1620.358 -1259.593)" fill="#fff"/></g><g transform="translate(25.277 39.281)"><path d="M1772.365,1265.254v-.562l.716-.7c1.722-1.644,2.5-2.519,2.51-3.538a1.2,1.2,0,0,0-1.338-1.322,2.292,2.292,0,0,0-1.431.572l-.29-.645a2.953,2.953,0,0,1,1.908-.687,1.9,1.9,0,0,1,2.064,1.967c0,1.249-.9,2.258-2.323,3.632l-.539.5v.021h3.028v.76Z" transform="translate(-1772.365 -1258.375)" fill="#fff"/></g><g transform="translate(40.306 39.281)"><path d="M1932.455,1264.2a3.042,3.042,0,0,0,1.493.427c1.172,0,1.535-.749,1.525-1.311-.01-.947-.861-1.353-1.743-1.353h-.508v-.687h.508c.664,0,1.5-.343,1.5-1.145,0-.541-.342-1.02-1.182-1.02a2.471,2.471,0,0,0-1.348.448l-.239-.666a3.2,3.2,0,0,1,1.763-.52c1.328,0,1.929.791,1.929,1.613a1.679,1.679,0,0,1-1.244,1.592v.021a1.76,1.76,0,0,1,1.5,1.738c0,1.082-.84,2.029-2.458,2.029a3.419,3.419,0,0,1-1.753-.458Z" transform="translate(-1932.206 -1258.375)" fill="#fff"/></g><g transform="translate(11.76 88.379)"><ellipse cx="0.813" cy="0.816" rx="0.813" ry="0.816" fill="#fff"/></g><g transform="translate(52.284 45.98)"><path d="M2069.258,1333.911h-4.28v-4.294h-1.1v4.294H2059.6v1.1h4.279v4.294h1.1v-4.294h4.28Z" transform="translate(-2059.599 -1329.617)" fill="#fff"/></g><g transform="translate(39.419 84.051)"><path d="M1928.463,1739.657l-2.266-2.273,2.266-2.273-.583-.585-2.266,2.273-2.266-2.273-.583.585,2.266,2.273-2.266,2.273.583.585,2.266-2.273,2.266,2.273Z" transform="translate(-1922.767 -1734.525)" fill="#fff"/></g><g transform="translate(53.266 71.687)"><rect width="7.167" height="1.101" fill="#fff"/></g><g transform="translate(53.531 84.414)"><rect width="7.167" height="1.101" fill="#fff"/></g><g transform="translate(53.531 87.187)"><rect width="7.167" height="1.101" fill="#fff"/></g></g><path d="M929.538,266.463h0l-.019-.006c-.176-.063-.355-.12-.536-.172-.062-.018-.123-.036-.185-.053s-.132-.033-.2-.049-.134-.032-.2-.047l-.192-.039-.217-.039-.186-.029c-.079-.011-.158-.021-.237-.03l-.173-.019c-.091-.009-.182-.015-.273-.021l-.144-.009c-.14-.007-.281-.011-.423-.011H861.522q-.227,0-.451.011a8.8,8.8,0,0,0-.884.09q-.218.033-.432.077a8.794,8.794,0,0,0-6.957,7.721,8.906,8.906,0,0,0-.045.9V408.1a8.8,8.8,0,0,0,5.785,8.276h0l.045.015c.167.06.337.114.509.163.062.018.124.037.186.053s.132.033.2.049.134.032.2.047l.192.039.217.039.186.029c.078.011.157.021.237.03l.173.019c.09.009.182.015.273.021l.144.01c.14.007.281.011.423.011h65.032a8.79,8.79,0,0,0,8.769-8.8V274.739A8.8,8.8,0,0,0,929.538,266.463Z" transform="translate(-639.094 -129.377)" fill="#f47458"/><rect width="74.068" height="126.973" transform="translate(217.91 148.556)" fill="#f3fcff"/><rect width="31.694" height="1.591" rx="0.796" transform="translate(239.157 142.974)" fill="#fff"/><ellipse cx="3.638" cy="3.65" rx="3.638" ry="3.65" transform="translate(251.264 277.996)" fill="#daeef7" opacity="0.3"/><rect width="74.068" height="5.327" transform="translate(217.91 270.201)" fill="#3cb4c5" opacity="0.2"/><rect width="74.068" height="6.738" transform="translate(217.91 148.556)" fill="#3cb4c5" opacity="0.2"/><g transform="translate(161.838 144.752)"><path d="M398.2,426.513H333.875a4.03,4.03,0,0,0-4.023,4.037v26.636a4.03,4.03,0,0,0,4.023,4.037h50.644c2.05,2.87,5.766,8.009,6.094,8.009.307,0-.284-4.854-.7-8.009H398.2a4.03,4.03,0,0,0,4.023-4.037V430.55A4.03,4.03,0,0,0,398.2,426.513Z" transform="translate(-327.196 -419.604)" fill="#daeef7" opacity="0.3" style="mix-blend-mode:multiply;isolation:isolate"/><path d="M369.955,353.029H305.628a4.03,4.03,0,0,0-4.023,4.037V383.7a4.03,4.03,0,0,0,4.023,4.037h50.644c2.05,2.87,5.766,8.009,6.094,8.009.307,0-.284-4.854-.7-8.009h8.289a4.03,4.03,0,0,0,4.023-4.037V357.066A4.03,4.03,0,0,0,369.955,353.029Z" transform="translate(-301.605 -353.029)" fill="#9bc1f9"/><rect width="31.715" height="1.759" rx="0.879" transform="translate(6.652 8.636)" fill="#fff"/><path d="M.879,0h11.9a.879.879,0,0,1,.879.879v0a.879.879,0,0,1-.879.879H.879A.879.879,0,0,1,0,.879v0A.879.879,0,0,1,.879,0Z" transform="translate(6.652 13.277)" fill="#fff"/><path d="M.879,0H41.642a.88.88,0,0,1,.88.88v0a.879.879,0,0,1-.879.879H.879A.879.879,0,0,1,0,.88v0A.879.879,0,0,1,.879,0Z" transform="translate(21.855 13.277)" fill="#fff"/><rect width="22.896" height="1.759" rx="0.879" transform="translate(41.609 8.636)" fill="#fff"/><path d="M.879,0H56.973a.879.879,0,0,1,.879.879v0a.879.879,0,0,1-.879.879H.879A.879.879,0,0,1,0,.879v0A.879.879,0,0,1,.879,0Z" transform="translate(6.652 22.373)" fill="#fff"/><path d="M.879,0H29.007a.879.879,0,0,1,.879.879v0a.879.879,0,0,1-.879.879H.88A.88.88,0,0,1,0,.879v0A.879.879,0,0,1,.879,0Z" transform="translate(6.652 17.917)" fill="#fff"/><path d="M.879,0H25.351a.879.879,0,0,1,.879.879v0a.879.879,0,0,1-.879.879H.879A.879.879,0,0,1,0,.879v0A.879.879,0,0,1,.879,0Z" transform="translate(38.274 17.917)" fill="#fff"/></g><path d="M.786,0h18.2a.786.786,0,0,1,.786.786v0a.785.785,0,0,1-.785.785H.785A.785.785,0,0,1,0,.786v0A.786.786,0,0,1,.786,0Z" transform="translate(302.652 137.158) rotate(180)" fill="#fff"/><path d="M1492.548,208.532h57.468a3.6,3.6,0,0,1,3.594,3.607v23.8a3.6,3.6,0,0,1-3.594,3.606h-45.245c-1.831,2.564-5.151,7.155-5.444,7.155-.274,0,.254-4.337.626-7.155h-7.406a3.6,3.6,0,0,1-3.594-3.606v-23.8A3.6,3.6,0,0,1,1492.548,208.532Z" transform="translate(-1215.476 -77.366)" fill="#daeef7" opacity="0.3" style="mix-blend-mode:multiply;isolation:isolate"/><path d="M1517.783,142.882h57.468a3.6,3.6,0,0,1,3.594,3.607v23.8a3.6,3.6,0,0,1-3.594,3.607h-45.245c-1.831,2.564-5.151,7.155-5.444,7.155-.274,0,.254-4.337.626-7.155h-7.406a3.6,3.6,0,0,1-3.594-3.607v-23.8A3.6,3.6,0,0,1,1517.783,142.882Z" transform="translate(-1238.338 -17.889)" fill="#9bc1f9"/><path d="M.786,0h16a.786.786,0,0,1,.786.786v0a.785.785,0,0,1-.785.785h-16A.786.786,0,0,1,0,.786v0A.786.786,0,0,1,.786,0Z" transform="translate(333.131 134.28) rotate(180)" fill="#fff"/><path d="M.785,0h10.3a.786.786,0,0,1,.786.786v0a.785.785,0,0,1-.785.785H.785A.785.785,0,0,1,0,.786v0A.785.785,0,0,1,.785,0Z" transform="translate(333.131 139.411) rotate(180)" fill="#fff"/><path d="M.786,0H13.819A.785.785,0,0,1,14.6.785v0a.785.785,0,0,1-.785.785H.786A.786.786,0,0,1,0,.786v0A.786.786,0,0,1,.786,0Z" transform="translate(319.83 139.411) rotate(180)" fill="#fff"/><path d="M.785,0h18.84a.786.786,0,0,1,.786.786v0a.785.785,0,0,1-.785.785H.786A.786.786,0,0,1,0,.785v0A.785.785,0,0,1,.785,0Z" transform="translate(303.376 139.411) rotate(180)" fill="#fff"/><path d="M.785,0h27.9a.786.786,0,0,1,.786.786v0a.786.786,0,0,1-.786.786H.786A.786.786,0,0,1,0,.786v0A.785.785,0,0,1,.785,0Z" transform="translate(312.348 134.28) rotate(180)" fill="#fff"/><path d="M.785,0H49.466a.786.786,0,0,1,.786.786v0a.786.786,0,0,1-.786.786H.786A.786.786,0,0,1,0,.785v0A.785.785,0,0,1,.785,0Z" transform="translate(333.131 149.462) rotate(180)" fill="#fff"/><path d="M.786,0H25.174a.786.786,0,0,1,.786.786v0a.785.785,0,0,1-.785.785H.786A.786.786,0,0,1,0,.786v0A.786.786,0,0,1,.786,0Z" transform="translate(333.131 144.495) rotate(180)" fill="#fff"/><path d="M.785,0H22.218A.786.786,0,0,1,23,.786v0a.786.786,0,0,1-.786.786H.786A.786.786,0,0,1,0,.785v0A.785.785,0,0,1,.785,0Z" transform="translate(305.884 144.495) rotate(180)" fill="#fff"/><g transform="translate(224.049 164.934)"><path d="M975.643,905.444s-14.357,2.072-12.163,15.927c2.045,12.918,14.357,10.294,17.518,9.647S975.643,905.444,975.643,905.444Z" transform="translate(-963.252 -873.686)" fill="#f7cc7f"/><path d="M985.185,1064.422c1.472-.3.412-5.867-1.141-11.729-5.285,1.036-11.173,2.192-16.171,3.179C970.427,1067.54,982.116,1065.05,985.185,1064.422Z" transform="translate(-967.438 -1007.09)" fill="#e8ba70"/><path d="M1182.874,1156.559s3.153,11.258,2.323,20.006c-.774,8.158.387,9.517,3.42,9.258s10.388-2.072,10.517-4.985-1.226-17.869-6.323-25.9S1182.874,1156.559,1182.874,1156.559Z" transform="translate(-1162.224 -1096.832)" fill="#96d9c9"/><path d="M1187.774,1152.975a34.229,34.229,0,0,0-4.9,4.7s3.153,11.258,2.323,20.006c-.774,8.158.387,9.517,3.42,9.258a25.54,25.54,0,0,0,4.511-.89C1194.338,1165.995,1189.166,1155.244,1187.774,1152.975Z" transform="translate(-1162.224 -1097.943)" fill="#50bfa5"/><path d="M1210.644,615.208s-23.81,17.335-31.5,22.579l-4.5,6.7,3.194,19.52,7.694,3.787,37.6,7.429-.871-4.224-6.823-18.937-3.484-21.56-1.016-13.256Z" transform="translate(-1154.763 -610.739)" fill="#96d9c9"/><path d="M1233.075,952.72l-.914-5.652-38.051,9.266,1.363,8.331,7.695,3.787,37.6,7.429-.871-4.225Z" transform="translate(-1172.404 -911.396)" fill="#50bfa5"/><path d="M1096.59,840.584s-3.146,16.558,6.388,30.009a1.667,1.667,0,0,1-.629,2.023l-7.1,1.813s-3.291,1.165-6.065-3.561-7.678-15.344-4.775-27.063a5.307,5.307,0,0,1,4.581-3.755l5.162-.971S1096.445,838.722,1096.59,840.584Z" transform="translate(-1072.214 -813.535)" fill="#3c8f7c"/><path d="M1534.448,572.149s6.194-4.564,9.775-4.467,7.162,4.856,9.485,8.74,8.42,19.132,9,29.426.484,24.959-4.549,26.707-11.227-.388-11.227-.388-8.13-6.992-12.873-28.746S1534.448,572.149,1534.448,572.149Z" transform="translate(-1478.568 -567.68)" fill="#256653"/><path d="M1603.342,640.638s5.79-7.526,2.839-27.847c-4.646-31.994-16.357-36.832-16.357-36.832s-8.668,6.605-.387,37.524C1596.261,638.959,1603.342,640.638,1603.342,640.638Z" transform="translate(-1527.314 -575.181)" fill="#3c8f7c"/><path d="M1594.48,835.715a117.635,117.635,0,0,0,2.772,13.01c.661,2.469,1.325,4.711,1.984,6.753,3.6-1.251,9.424-4.386,6.937-12.337C1603.869,835.773,1597.87,835.323,1594.48,835.715Z" transform="translate(-1535.129 -810.423)" fill="#f7cc7f"/><path d="M1616.561,924.381c.661,2.469,1.325,4.711,1.984,6.753,3.551-1.234,9.262-4.3,7.035-12.011l-9.786,2.263Q1616.15,922.844,1616.561,924.381Z" transform="translate(-1554.438 -886.078)" fill="#e8ba70"/><path d="M1114.182,1049.669a36.7,36.7,0,0,1-5.714-12.956l-12.579,2.382a43.212,43.212,0,0,0,4.5,10.849c2.775,4.726,6.065,3.561,6.065,3.561l7.1-1.813A1.667,1.667,0,0,0,1114.182,1049.669Z" transform="translate(-1083.418 -992.612)" fill="#3c8f7c" opacity="0.3" style="mix-blend-mode:multiply;isolation:isolate"/></g><g transform="translate(349.064 149.548)"><g transform="translate(22.079 0)"><path d="M2580.383,409.978l-.057,6.236,3.952-3.72,12.457-8.46-10.167,2.217s-5.082,1.925-5.333,2.218A12.883,12.883,0,0,0,2580.383,409.978Z" transform="translate(-2575.374 -404.034)" fill="#dd513a"/><path d="M2527.664,406.836l21.36-2.8-16.352,5.944Z" transform="translate(-2527.664 -404.034)" fill="#f47458"/><path d="M2602.775,415.3l-6.157-3.822,14.877-7.445Z" transform="translate(-2590.135 -404.034)" fill="#f47458"/></g><g transform="translate(0 8.81)"><g transform="translate(0 2.253)"><path d="M2292.844,542.315a13.74,13.74,0,0,1,.1-1.5c.055-.46.134-.926.235-1.385l.5.11c-.1.443-.174.892-.227,1.335a13.272,13.272,0,0,0-.093,1.445q0,.211,0,.421l-.507.011C2292.844,542.6,2292.843,542.458,2292.844,542.315Zm1.392-6.042a19.364,19.364,0,0,1,1.635-2.893l.419.287a18.852,18.852,0,0,0-1.591,2.816Zm15.842-2.984-.094-.046.228-.455.077.038a.3.3,0,0,0,.053.01,2.333,2.333,0,0,0,1.377-.348,2.159,2.159,0,0,0,.7-1.028l.479.166a2.692,2.692,0,0,1-.869,1.263,2.816,2.816,0,0,1-1.749.451A.657.657,0,0,1,2310.078,533.289Zm-12.145-2.5a26.45,26.45,0,0,1,2.387-2.295l.328.389a25.935,25.935,0,0,0-2.341,2.25Zm9.65-1.188a6.2,6.2,0,0,1,0-1.506,7.35,7.35,0,0,1,.152-.844l.493.119a6.808,6.808,0,0,0-.142.785,5.7,5.7,0,0,0,0,1.382,4.751,4.751,0,0,0,.215.931l-.48.165A5.234,5.234,0,0,1,2307.583,529.6Zm2.1-2.872-.068-.023.158-.484.073.025a5.1,5.1,0,0,1,2.635,2.01l-.427.274A4.591,4.591,0,0,0,2309.685,526.724Zm-6.466.105a11.576,11.576,0,0,1,2.052-.749c.413-.071.793-.123,1.163-.157l.047.507c-.356.033-.724.083-1.124.152a10.46,10.46,0,0,0-1.931.713Zm5.888-2.647a11.373,11.373,0,0,1,2.23-2.491l.324.392a10.867,10.867,0,0,0-2.131,2.38Z" transform="translate(-2292.844 -521.692)" fill="#6db1b5"/></g><g transform="translate(21.353)"><path d="M2520.133,498.721a9.761,9.761,0,0,1,1.553-.5l-.113-.5a10.266,10.266,0,0,0-1.633.523Z" transform="translate(-2519.94 -497.727)" fill="#6db1b5"/></g></g></g><g transform="translate(312.418 194.348)"><path d="M1908.5,1107.509l-.26.233a.319.319,0,0,1-.449-.011l-4.609-5.084a.315.315,0,0,1,.035-.446l.26-.233a.319.319,0,0,1,.449.011l4.609,5.084A.315.315,0,0,1,1908.5,1107.509Z" transform="translate(-1903.101 -1081.066)" fill="#13375b"/><path d="M1934.169,1117.068c-.616-.5-5.38,1.595-5.32,2.325s-3.324,7.809-3.324,7.809l-5.849-4.68,0,0c-.052-.169-.606-1.989-.633-2.315-.028-.341-1.017-.939-1.476-.851s.393.666.448.772c.152.289-.436.4-.436.4s-1.69-.931-1.726-1.478-.385-1.695-.75-1.455c-.188.124-.187.938-.128,1.324-.109-.438-.262-.933-.412-.983-.273-.09-.409.26-.36.431s.491,2.033.625,2.242,2.86,2.411,3.254,2.89c0,0,7.566,8.678,8.1,8.906.473.2,2.158-2.792,3.75-4.777S1936.094,1118.638,1934.169,1117.068Z" transform="translate(-1913.148 -1094.756)" fill="#f7a491"/><path d="M2283.076,1769.04s1.04,1.018,1.063,1.391.092,4.376-.332,4.749-1.671.638-1.271,1.059c.3.318,2.634.25,4.178.164.451-.025,1.016-3.634,1.195-4.165.259-.771.89-2.506.654-3.043a4.509,4.509,0,0,0-1.439-1.3,7.09,7.09,0,0,1-1.594-1.7Z" transform="translate(-2246.789 -1682.915)" fill="#f48c7f"/><path d="M2136.782,1821.159s.931,2.637.932,2.644c.069.418.342,1.45.342,1.83,0,1.427-6.414-1.211-4.976-1.844a1.525,1.525,0,0,0,.581-1,3.348,3.348,0,0,0-.54-1.687Z" transform="translate(-2111.265 -1732.664)" fill="#f7a491"/><g transform="translate(13.728 39.387)"><path d="M2050.837,1299.405s-.467,4.728-.467,4.8c0,7.648-1.511,22.587-1.224,24.025.7,3.507,8.245,21.4,8.245,21.4l4.077-.489-5.313-21.42,1.955-8.622,2.767-17.042Z" transform="translate(-2049.11 -1299.405)" fill="#355389"/><path d="M2092.522,1310.087l.774,4.481,2.093,18.442,7.972,18.024s-1.122,2.623-2.776,2.991L2087.9,1335.52l-7.881-23.679.277-5.261Z" transform="translate(-2077.11 -1305.905)" fill="#13375b"/></g><path d="M2050.186,1060.439l5.654.579s.26-4.651.26-6.87c0-2.692-.229-6.159-.553-6.084a4.924,4.924,0,0,0-2.862,1.718C2050.162,1053.261,2050.186,1060.439,2050.186,1060.439Z" transform="translate(-2036.356 -1032.309)" fill="#86b1f2"/><path d="M2057.644,1051.95c-.119.821-2.292,23.131-2.292,23.131,10.295,4.989,15.976.889,15.976.889s-.337-15.667.067-17.8c.267-1.411.6-10.786-.311-11.048a22.747,22.747,0,0,0-3.971-.847,37.829,37.829,0,0,0-6.96.087A11.088,11.088,0,0,0,2057.644,1051.95Z" transform="translate(-2041.037 -1030.585)" fill="#9bc1f9"/><path d="M2283.048,1784.038s-2.4,6.77-3.334,7.1c-.249.087-1.444.307-1.67.837a2.3,2.3,0,0,0,0,.693h4.994s.632-2.983.882-4.293c0,0,1.322-3.2,1.175-3.493S2283.048,1784.038,2283.048,1784.038Z" transform="translate(-2242.763 -1699.084)" fill="#184655"/><path d="M2090.535,1851.863l-.735-2.328a6.362,6.362,0,0,1-2.314.546,23.363,23.363,0,0,1-2.277-.546c-3.078,1.017-5.6,1.51-5.141,2.328h10.466Z" transform="translate(-2063.38 -1758.422)" fill="#184655"/><g transform="translate(12.347 31.828)"><path d="M2035.109,1224.841a1.361,1.361,0,0,1-.155-.116c.183-2.186.15-4.3-.534-5.02l.322-.684c.792.615,1.169,2.249,1.021,4.9a4.516,4.516,0,0,1-.1.549C2035.429,1224.725,2035.22,1224.888,2035.109,1224.841Z" transform="translate(-2034.42 -1219.022)" fill="#f7a491"/></g><path d="M2233.594,1125.573a.615.615,0,0,0,0-.144c-.152-1.545-1.43-14.519-1.646-15.071-.194-.5-5.928-8.727-5.928-8.727l-2.818,3.853,5.514,7.381c.124.469,2.113,9.227,2.113,9.227s.408,1.6.591,2.553c-.083.23-.165.448-.238.626a5.763,5.763,0,0,1-.594.958,6.6,6.6,0,0,0-.7,1.25c-.058.225-.164.694-.223.976s-.141.612-.155.765a1.486,1.486,0,0,1-.178.411.247.247,0,0,0,.291.356c.2-.067.356-.327.452-.489.271-.458.416-1.293.484-1.249s.305,1.462.343,1.622a17.529,17.529,0,0,0,.484,2.108c.161.3.374.25.43.062.049-.162-.178-2.466-.178-2.466s-.028-.294.1-.2.338,2.183.427,2.489.292.468.465.222a9.294,9.294,0,0,0-.151-2.517s-.041-.279.078-.253.268,1.808.36,1.962a.234.234,0,0,0,.437-.048,11,11,0,0,0-.208-2.28s.017-.157.091-.105.309,1.563.462,1.7a.162.162,0,0,0,.236,0c.281-.193-.15-1.629-.146-2.343a17.676,17.676,0,0,1-.228-2.367C2233.565,1125.787,2233.583,1125.656,2233.594,1125.573Z" transform="translate(-2193.106 -1080.841)" fill="#f8a492"/><path d="M2206.4,1065.968l-4.9,3.3a53.319,53.319,0,0,0-4.243-5.589c-1.856-1.838.676-7.47,1.873-7.151C2201.806,1057.24,2206.4,1065.968,2206.4,1065.968Z" transform="translate(-2169.003 -1039.965)" fill="#9bc1f9"/><path d="M2135.1,993.317l.733,4.845s-2.676,5.769-4.273,5.269c-1.34-.42-.516-5.524-.516-5.524a14.033,14.033,0,0,0,.511-4.113C2131.341,992.421,2135.1,993.317,2135.1,993.317Z" transform="translate(-2109.388 -982.45)" fill="#f7a491"/><path d="M2138,993.793c-.219-1.372,3.544-.476,3.544-.476l.061.4a2.234,2.234,0,0,1-.408.675,4.948,4.948,0,0,1-3.291,1.494A7.5,7.5,0,0,0,2138,993.793Z" transform="translate(-2115.83 -982.45)" fill="#f47458"/><g transform="translate(19.907)"><path d="M2121.246,908.6c.106-.039.853,5.518-.563,7.047s-4.175,2.03-5.165.825c-1.095-1.332-1.04-7.3,1.162-8.878S2121.246,908.6,2121.246,908.6Z" transform="translate(-2114.82 -904.585)" fill="#f7a491"/><path d="M2125.094,880.545a6.112,6.112,0,0,1,3.209,1.836c.772.092,1.823.52,2.907,2.322a4.515,4.515,0,0,1-1.2,5.874,3.514,3.514,0,0,0-1.531,2.6l-.245-.72a4.035,4.035,0,0,1-.195-1.695,3.327,3.327,0,0,1,.251-1.019c.373-.8-.8-1.339-1.132-2.008-.254-.515-.266-1.694-.666-2.546l-.477-.65a3.029,3.029,0,0,0-2.179-.617C2122.756,884.161,2122.911,880.1,2125.094,880.545Z" transform="translate(-2122.396 -880.511)" fill="#184655"/><path d="M2166.214,956.118c-.011.678.3,1.233.686,1.24s.716-.538.727-1.216-.3-1.233-.686-1.24S2166.225,955.44,2166.214,956.118Z" transform="translate(-2161.382 -947.908)" fill="#f7a491"/></g><path d="M2121.191,983.424l-2.135-.111a.937.937,0,0,0,.945.892C2121.144,984.3,2121.191,983.424,2121.191,983.424Z" transform="translate(-2098.752 -973.647)" fill="#fff"/></g><path d="M1078.691,1638.886l1.044-.2-4.51-24.006-1.044.2Z" transform="translate(-839.702 -1351.303)" fill="#0e2e35"/><path d="M986.326,1639h-1.256l4.679-24.313,1.044.2Z" transform="translate(-758.971 -1351.303)" fill="#0e2e35"/><path d="M832.153,1640.047l1.019.012-4.486-24.217-1.044.2Z" transform="translate(-616.344 -1352.355)" fill="#0e2e35"/><path d="M749.916,1265.427c-4.134.444-9.483.913-14.853,10.057-5.869,9.994-2.78,24.923,1.853,29.072s19.763,9.271,32.481,1.6c0,0,7.68-4.647,3.738-12.36-6.065-11.869-5.208-14.344-7.92-19S758.69,1264.485,749.916,1265.427Z" transform="translate(-529.553 -1034.793)" fill="#fae0b2"/><path d="M735.062,1283.3c3.665-6.241,7.321-8.441,10.587-9.349a27.439,27.439,0,0,0-3.826,5.182c-5.869,9.994-2.78,24.923,1.853,29.072,4.108,3.679,16.472,8.122,28.089,3.733a11.815,11.815,0,0,1-2.368,2.037c-12.719,7.668-27.849,2.546-32.481-1.6S729.193,1293.3,735.062,1283.3Z" transform="translate(-529.553 -1042.612)" fill="#f7cc7f"/><path d="M1044.234,1427.988l1.063,3.2-3.238-1.278Z" transform="translate(-810.6 -1182.163)" fill="#f79c8d"/><path d="M1009.784,1326.767c.216.009.807.207,1.672,1.842,1.1,2.088,2.719,8.394,2.719,8.394l-4.819,1.795-.619-1.316-1.02-10.133S1009.725,1326.764,1009.784,1326.767Z" transform="translate(-779.488 -1090.459)" fill="#dd513a"/><path d="M879.594,1317.1a29.427,29.427,0,0,1,6.37.909s1.163,9.992-1.047,17.585c-.495,1.7.409,7.046.409,7.046l-14.279-.188s1.692-12.924,1.054-15.012-.652-9.363-.652-9.363.1-.015,3.208-.553A32.327,32.327,0,0,1,879.594,1317.1Z" transform="translate(-655.668 -1081.701)" fill="#f47458"/><path d="M905.143,1785.968s.316,3.646.9,4.656-.031,2.726-.061,2.962-1.223.572-3.118.37-1.865-.64-1.712-1.346,1.162-1.616,1.223-2.289a17.559,17.559,0,0,0-.581-3.1Z" transform="translate(-682.881 -1506.484)" fill="#f7a491"/><path d="M881.368,1554.564s9.857-.547,12.058.786-.4,4.071-.4,4.071-8.025,3.489-21.459,4.264c-3.181.184-3.455-8.295-2.861-9S881.368,1554.564,881.368,1554.564Z" transform="translate(-653.321 -1296.635)" fill="#256653"/><path d="M901.505,1841.211c-1.952-.208-1.71-1.167-1.553-1.895a6.456,6.456,0,0,1,.992-1.5,3.253,3.253,0,0,0,1.306.635,4.884,4.884,0,0,0,2.855-.577,9.43,9.43,0,0,1,.261,2.518C905.335,1840.633,903.457,1841.418,901.505,1841.211Z" transform="translate(-681.762 -1553.456)" fill="#184655"/><path d="M856.944,1562.559c.394,2.98,2.344,17.815,2.344,17.815l-4.524.561s-5.564-19.363-5.278-22.325,2.368-3.211,2.368-3.211S855.9,1554.67,856.944,1562.559Z" transform="translate(-636.123 -1297.578)" fill="#3c8f7c"/><path d="M852.213,1339.153c1.335-.5,1.988,11.529,2.168,16.48a58.183,58.183,0,0,0,7.511-.075c.483-.036,1.6-.444,2.075-.507a4.808,4.808,0,0,1,1.179-.056,22.278,22.278,0,0,1,2.764,1.244c.261.274.968.965.849,1.264s-1.359-.833-1.359-.833l-.606-.34c.754.737,2.193,1.708,1.986,2.061s-1.5-.64-2.425-1.312c.793.717,1.779,2,1.552,2.2-.2.18-1.325-1.305-2.524-1.733-.444-.158-.887.281-1.236.333a2.512,2.512,0,0,1-.905.05l-1.3-.368c-.442.04-.453.3-.9.4-.518.11-1.368.226-2.028.388-3.8.928-5.068,1.36-6.231,1.359C849.262,1359.7,849.058,1340.336,852.213,1339.153Z" transform="translate(-636.588 -1101.667)" fill="#f7a491"/><path d="M845.79,1339.615c-.25-5.072-.213-11.323,2.63-12.389,1.122-.421,3.1,2.109,2.744,12.492A21.365,21.365,0,0,1,845.79,1339.615Z" transform="translate(-632.698 -1090.836)" fill="#dd513a"/><path d="M971.118,1436.234h-.29l-4.357,10.706.3-.046Z" transform="translate(-742.12 -1189.634)" fill="#f79c8d"/><path d="M1050.789,1819.137a2.463,2.463,0,0,0,.312,2.1c.707.837,3.644,1.658,4.03,2.112a1.271,1.271,0,0,1,.356.839l-8.244-.227.09-2.49.38-1.789Z" transform="translate(-815.297 -1536.534)" fill="#f7a491"/><path d="M1047.168,1844.111s-2.118.857-3.142.349-.992-.648-1.288-.459-.4,2.523-.4,2.523l9.27.273c.645-.015.971-.49.447-.9a7.576,7.576,0,0,0-1.011-.6A28.988,28.988,0,0,0,1047.168,1844.111Z" transform="translate(-810.851 -1558.988)" fill="#184655"/><path d="M1052.009,1558.854c.637-1.341,2.086-3.087,4.636-2.035,2.432,1,3.084,3.468,2.317,5.991s-5.819,17.36-5.995,19.4l-4.033.027s.733-11.748.913-14.587A27.5,27.5,0,0,1,1052.009,1558.854Z" transform="translate(-816.83 -1298.589)" fill="#3c8f7c"/><path d="M898.285,1436.234H884.8a.879.879,0,0,0-.813.547l-4.151,10.159h-7.432a.377.377,0,0,0-.376.377h0a.377.377,0,0,0,.376.377H893.56a1.477,1.477,0,0,0,1.347-.875l4.18-9.343A.882.882,0,0,0,898.285,1436.234Z" transform="translate(-656.558 -1189.634)"/><path d="M1059.99,1489.672a.742.742,0,1,1-.556-.971A.793.793,0,0,1,1059.99,1489.672Z" transform="translate(-825.522 -1237.156)" fill="#fff"/><g transform="translate(219.626 222.161)"><path d="M923.715,1177.349a10.3,10.3,0,0,1-1.193-.478,5.983,5.983,0,0,0-1.36-.512,3.278,3.278,0,0,0-2.759.736c-.889.965-2.469.174-2.151,5.227.36,5.719,3.54,5.091,3.617,4.994s2.836-3.659,2.836-3.659.965,2.11.965,2.033S928.6,1178.993,923.715,1177.349Z" transform="translate(-916.211 -1176.316)" fill="#0e2e35"/><path d="M938.878,1266.785l.275,2.043s.615,2.944-.176,3.512-3.364-3.6-3.364-3.6l.272-5.178Z" transform="translate(-933.788 -1255.363)" fill="#f7a491"/><path d="M937.569,1265.244a5.863,5.863,0,0,0,3.315,3.273l-.233-1.733-2.994-3.218Z" transform="translate(-935.561 -1255.362)" fill="#f47458"/><path d="M935.328,1203.306a2.725,2.725,0,0,1,3.138,2.756,20.74,20.74,0,0,1-.23,2.621c-.364,2.359-1.974,4.436-3.038,4.25a5.113,5.113,0,0,1-3.27-5.577A4.512,4.512,0,0,1,935.328,1203.306Z" transform="translate(-930.4 -1200.737)" fill="#f7a491"/><path d="M925.4,1240.547a.793.793,0,1,1-.6-1.073A.878.878,0,0,1,925.4,1240.547Z" transform="translate(-923.13 -1233.527)" fill="#f7a491"/><path d="M929.987,1199.14s1.287.32,1.764-.508,2.185-2.613,4.355-1.873-1.91-1.8-2.084-1.8-2.257-.015-2.257-.015-1.606,1.321-1.664,1.466-.521,1.728-.521,1.728Z" transform="translate(-928.324 -1193.193)" fill="#0e2e35"/></g><path d="M958.851,1276.287l2.341.448a1.042,1.042,0,0,1-1.259.715C958.671,1277.246,958.851,1276.287,958.851,1276.287Z" transform="translate(-735.208 -1044.726)" fill="#fff"/><path d="M701.559,998.917l2.341.448a1.042,1.042,0,0,1-1.259.715C701.379,999.876,701.559,998.917,701.559,998.917Z" transform="translate(-502.108 -793.435)" fill="#fff"/><path d="M2462.608,1763.026a36.864,36.864,0,0,0-6.046,1.082,72.8,72.8,0,0,0-10.525,3.849c-1.684.734-3.379,1.458-5.031,2.263a18.159,18.159,0,0,0-2.261,1.236,25.112,25.112,0,0,0-2.637,2.158l.787.023a26.122,26.122,0,0,1,5.249-3.423c6.49-3.126,13.231-6.332,20.47-7.128A.03.03,0,0,0,2462.608,1763.026Z" transform="translate(-2073.574 -1485.699)" fill="#3c8f7c"/></g></svg>