<?xml version="1.0" encoding="utf-8"?>
<!-- Generator: Adobe Illustrator 25.2.0, SVG Export Plug-In . SVG Version: 6.00 Build 0)  -->
<svg version="1.1" id="twitter" xmlns="http://www.w3.org/2000/svg" xmlns:xlink="http://www.w3.org/1999/xlink" x="0px" y="0px"
	 viewBox="0 0 40 40" style="enable-background:new 0 0 40 40;" xml:space="preserve">
<style type="text/css">
	.st0{fill:none;stroke:#08A0E9;stroke-width:2;}
	.st1{fill:#08A0E9;}
</style>
<g id="bg">
	<path class="st0" d="M20,1L20,1c10.5,0,19,8.5,19,19l0,0c0,10.5-8.5,19-19,19l0,0C9.5,39,1,30.5,1,20l0,0C1,9.5,9.5,1,20,1z"/>
</g>
<path id="twitter-2" class="st1" d="M24.7,17.6c0,0.1,0,0.2,0,0.3c0,3.8-3,6.9-6.9,7c0,0-0.1,0-0.1,0c-1.3,0-2.6-0.4-3.8-1.1
	c0.2,0,0.4,0,0.6,0c1.1,0,2.2-0.4,3-1c-1,0-2-0.7-2.3-1.7c0.2,0,0.3,0,0.5,0c0.2,0,0.4,0,0.6-0.1c-1.1-0.2-2-1.2-2-2.4v0
	c0.3,0.2,0.7,0.3,1.1,0.3c-1.1-0.7-1.4-2.2-0.8-3.3c1.2,1.5,3.1,2.5,5,2.6c0-0.2-0.1-0.4-0.1-0.6c0-1.4,1.1-2.4,2.5-2.4
	c0.7,0,1.3,0.3,1.8,0.8c0.5-0.1,1.1-0.3,1.6-0.6c-0.2,0.6-0.6,1-1.1,1.3c0.5-0.1,1-0.2,1.4-0.4C25.6,16.8,25.2,17.2,24.7,17.6z"/>
</svg>
