<svg xmlns="http://www.w3.org/2000/svg" width="176.698" height="163.706" viewBox="0 0 176.698 163.706"><path d="M297.742,600.911l-15.775,39.3h-7.581l-15.775-39.3h9.476l10.2,27.48,10.2-27.48Zm28.233,18.7a21.446,21.446,0,0,1,.864,6.1q0,.5-.028,1.059t-.084,1.171H305.936a7.134,7.134,0,0,0,2.536,4.376,7.589,7.589,0,0,0,4.766,1.477,9.437,9.437,0,0,0,3.79-.725,12.881,12.881,0,0,0,3.456-2.341l4.85,4.292a15.032,15.032,0,0,1-5.128,4.1,15.906,15.906,0,0,1-7.079,1.477,17.022,17.022,0,0,1-6.215-1.115,14.369,14.369,0,0,1-4.961-3.177,14.682,14.682,0,0,1-3.261-4.877,16.177,16.177,0,0,1-1.17-6.271v-.112a16.716,16.716,0,0,1,1.087-6.02,15.311,15.311,0,0,1,3.038-4.961,14.169,14.169,0,0,1,10.647-4.571,14.558,14.558,0,0,1,6.466,1.338,13.154,13.154,0,0,1,4.543,3.6A14.972,14.972,0,0,1,325.975,619.613Zm-7.386,3.038a8.254,8.254,0,0,0-2.007-4.6,5.556,5.556,0,0,0-4.292-1.756,5.691,5.691,0,0,0-4.32,1.728,8.669,8.669,0,0,0-2.146,4.627Zm41.3-12.6H349.748l-9.922,10.869V599.239h-8.473V639.93h8.473v-9.086l2.954-3.122,7.8,12.208h9.7l-11.761-18.116Zm29.794,9.56a21.448,21.448,0,0,1,.864,6.1q0,.5-.028,1.059t-.084,1.171H369.648a7.132,7.132,0,0,0,2.536,4.376,7.589,7.589,0,0,0,4.766,1.477,9.436,9.436,0,0,0,3.79-.725,12.886,12.886,0,0,0,3.456-2.341l4.85,4.292a15.036,15.036,0,0,1-5.128,4.1,15.906,15.906,0,0,1-7.079,1.477,17.022,17.022,0,0,1-6.215-1.115,14.369,14.369,0,0,1-4.961-3.177,14.682,14.682,0,0,1-3.261-4.877,16.177,16.177,0,0,1-1.171-6.271v-.112a16.71,16.71,0,0,1,1.087-6.02,15.305,15.305,0,0,1,3.038-4.961A14.169,14.169,0,0,1,376,609.5a14.558,14.558,0,0,1,6.466,1.338,13.154,13.154,0,0,1,4.543,3.6A14.967,14.967,0,0,1,389.687,619.613Zm-7.386,3.038a8.256,8.256,0,0,0-2.007-4.6A5.557,5.557,0,0,0,376,616.3a5.69,5.69,0,0,0-4.32,1.728,8.671,8.671,0,0,0-2.146,4.627Zm13.266,17.28h8.473V599.239h-8.473Zm39.743-29.877H409.836v6.856h14.939l-15.441,17.057v5.964H435.31v-6.856h-15.5l15.5-17.057Z" transform="translate(-258.612 -496.359)" fill="#2ec5b6"/><g transform="translate(19.843 147.658)"><path d="M326.061,760.778a4.406,4.406,0,1,1,4.374-4.42A4.229,4.229,0,0,1,326.061,760.778Zm0-1.245a2.9,2.9,0,0,0,2.926-3.175,2.866,2.866,0,0,0-2.88-3.16,2.828,2.828,0,0,0-2.848,3.16C323.259,758.521,324.583,759.533,326.061,759.533Z" transform="translate(-321.812 -748.793)" fill="#fff"/><path d="M363.941,755.779c0-1.743-.949-2.63-2.381-2.63-1.447,0-2.444.9-2.444,2.74V760.6H357.7v-8.53h1.417v1.214a3.151,3.151,0,0,1,2.739-1.37,3.309,3.309,0,0,1,3.487,3.658V760.6h-1.4Z" transform="translate(-346.431 -748.759)" fill="#fff"/><path d="M406.191,748.889h-1.1v-1.167h1.1v-2.148h1.417v2.148h2.226v1.167h-2.226v5.028c0,.841.311,1.136,1.183,1.136h1.043v1.2h-1.276c-1.51,0-2.366-.623-2.366-2.335Z" transform="translate(-378.94 -744.406)" fill="#fff"/><path d="M428.136,742.9h1.416v4.218a3.21,3.21,0,0,1,2.817-1.385c1.9,0,3.409,1.214,3.409,3.658v5.028h-1.4v-4.826c0-1.743-.95-2.63-2.381-2.63-1.448,0-2.444.9-2.444,2.74v4.716h-1.416Z" transform="translate(-394.753 -742.569)" fill="#fff"/><path d="M464.87,760.778a4.109,4.109,0,0,1-4.218-4.42,4.059,4.059,0,0,1,4.218-4.39,3.91,3.91,0,0,1,4.094,4.078,7.693,7.693,0,0,1-.047.856H462.1a2.681,2.681,0,0,0,2.771,2.677,2.345,2.345,0,0,0,2.4-1.572h1.525A3.835,3.835,0,0,1,464.87,760.778Zm-2.755-5.028H467.5a2.5,2.5,0,0,0-2.693-2.584A2.641,2.641,0,0,0,462.115,755.75Z" transform="translate(-417.06 -748.793)" fill="#fff"/><path d="M512.678,760.6h-1.416v-8.53h1.416v1.385a2.873,2.873,0,0,1,2.755-1.541v1.463h-.374c-1.354,0-2.381.607-2.381,2.584Z" transform="translate(-451.78 -748.759)" fill="#fff"/><path d="M531.484,742.82a.95.95,0,1,1,.966.965A.951.951,0,0,1,531.484,742.82Zm.234,2.35h1.416v8.53h-1.416Z" transform="translate(-465.652 -741.855)" fill="#fff"/><path d="M549.261,751.968a3.515,3.515,0,0,1,3.175,1.7v-1.556h1.432v8.717a3.824,3.824,0,0,1-4.078,4.016c-2.241,0-3.845-1.136-4.125-2.957h1.4a2.648,2.648,0,0,0,2.724,1.728,2.532,2.532,0,0,0,2.646-2.786v-1.79a3.564,3.564,0,0,1-3.175,1.743,4.1,4.1,0,0,1-4.047-4.436A4.042,4.042,0,0,1,549.261,751.968Zm.28,1.23a2.88,2.88,0,0,0-2.88,3.144,2.9,2.9,0,1,0,2.88-3.144Z" transform="translate(-475.071 -748.793)" fill="#fff"/><path d="M582.887,742.9H584.3v4.218a3.21,3.21,0,0,1,2.817-1.385c1.9,0,3.409,1.214,3.409,3.658v5.028h-1.4v-4.826c0-1.743-.95-2.63-2.382-2.63-1.448,0-2.444.9-2.444,2.74v4.716h-1.416Z" transform="translate(-500.916 -742.569)" fill="#fff"/><path d="M615.666,748.889h-1.1v-1.167h1.1v-2.148h1.417v2.148h2.226v1.167h-2.226v5.028c0,.841.311,1.136,1.183,1.136h1.043v1.2h-1.276c-1.51,0-2.366-.623-2.366-2.335Z" transform="translate(-522.645 -744.406)" fill="#fff"/><path d="M651.906,749.054h-1.012v-1.447h1.012v-2.132h1.79v2.132h2.086v1.447H653.7V753.8c0,.638.249.9,1,.9h1.09v1.479h-1.4c-1.525,0-2.475-.638-2.475-2.381Z" transform="translate(-547.571 -744.338)" fill="#f7c90b"/><path d="M675.916,760.537h-1.775V751.96h1.775v1.245a2.793,2.793,0,0,1,2.568-1.385v1.836h-.451c-1.307,0-2.117.545-2.117,2.366Z" transform="translate(-563.519 -748.691)" fill="#f7c90b"/><path d="M697.816,751.82a3.651,3.651,0,0,1,2.973,1.385V751.96h1.79v8.577h-1.79V759.26a3.692,3.692,0,0,1-3,1.416,4.146,4.146,0,0,1-4.016-4.467A4.082,4.082,0,0,1,697.816,751.82Zm.374,1.541a2.631,2.631,0,0,0-2.6,2.849,2.7,2.7,0,0,0,2.6,2.926,2.9,2.9,0,0,0,0-5.775Z" transform="translate(-576.984 -748.691)" fill="#f7c90b"/><path d="M734.057,751.82a3.731,3.731,0,0,1,3.954,2.848H736.1a2,2,0,0,0-2.039-1.354c-1.432,0-2.381,1.058-2.381,2.926,0,1.884.95,2.942,2.381,2.942a1.959,1.959,0,0,0,2.039-1.354h1.915a3.853,3.853,0,0,1-3.954,2.848,4.434,4.434,0,0,1,0-8.857Z" transform="translate(-601.739 -748.691)" fill="#f7c90b"/><path d="M763.957,742.9h1.775v6.693l3.113-3.751H771.3l-3.953,4.3,3.953,4.281h-2.4l-3.176-3.689v3.689h-1.775Z" transform="translate(-625.135 -742.569)" fill="#f7c90b"/></g><path d="M498.354,300.791c-2.446,2.435-4.818,5.041-7.1,7.774-2.192,2.627-4.282,5.434-6.313,8.305a96.6,96.6,0,0,0-7.8,13.184,82.252,82.252,0,0,0-5.126,12.769l-4.07-9.879c.607-1.072,1.228-2.128,1.873-3.153,1.658-2.634,3.428-5.138,5.226-7.587,1.632-2.223,3.334-4.353,5.068-6.42a91.157,91.157,0,0,1,7.749-8.184q3.412-3.172,6.921-6.138c2.027-1.708,4.111-3.265,6.225-4.743q-.331-.961-.712-1.9c-8.209,4.993-25.139,16.8-34.11,33.853l-2.955-7.173c1.445-1.725,15.394-17.945,36.784-27.353-.219-.51-.446-1.015-.687-1.512l-.01.011q-.764-1.576-1.686-3.07l.022-.022-.01-.017-.025.018c-.405-.659-.829-1.307-1.279-1.941l.035-.024c-.094-.136-.193-.269-.289-.4l-.006-.009h0a37.289,37.289,0,0,0-67.629,21.682c0,17.208,26.032,50.99,34.6,61.639a3.458,3.458,0,0,0,5.391,0c8.565-10.649,34.6-44.431,34.6-61.639a37.266,37.266,0,0,0-1.638-10.95C500.372,298.846,499.352,299.8,498.354,300.791Zm-30.433,53.35a2.381,2.381,0,0,1-4.448-.013c-6.4-16.9-14.248-36.369-19.493-49.356-2.436-5.9-3.962-7.52-7.835-8.153v-3.171H458.2v2.831c-7.013.708-7.078,1.544-5.6,5.791,1.33,3.406,3.821,9.757,6.748,17.154l11.41,27.694C469.791,349.341,468.839,351.76,467.921,354.141Z" transform="translate(-375.128 -271.569)" fill="#f7c90b"/></svg>