<svg xmlns="http://www.w3.org/2000/svg" width="123.064" height="38.791" viewBox="0 0 123.064 38.791"><path d="M243.636,41.967l-7.71,19.206h-3.7l-7.71-19.206h4.632L234.127,55.4l4.987-13.431Zm13.8,9.141a10.484,10.484,0,0,1,.422,2.982c0,.163,0,.337-.013.518s-.023.371-.041.572H247.643a3.489,3.489,0,0,0,1.239,2.139,3.7,3.7,0,0,0,2.33.721,4.627,4.627,0,0,0,1.852-.353,6.36,6.36,0,0,0,1.689-1.144l2.372,2.1a7.37,7.37,0,0,1-2.506,2,7.768,7.768,0,0,1-3.461.723,8.319,8.319,0,0,1-3.036-.544,7.006,7.006,0,0,1-2.425-1.553,7.166,7.166,0,0,1-1.594-2.384,7.921,7.921,0,0,1-.572-3.066v-.054a8.147,8.147,0,0,1,.531-2.943,7.449,7.449,0,0,1,1.485-2.425,6.924,6.924,0,0,1,5.2-2.233,7.12,7.12,0,0,1,3.159.654,6.437,6.437,0,0,1,2.22,1.758A7.3,7.3,0,0,1,257.433,51.108Zm-3.61,1.485a4.017,4.017,0,0,0-.981-2.248,2.719,2.719,0,0,0-2.093-.858,2.782,2.782,0,0,0-2.112.845,4.228,4.228,0,0,0-1.048,2.261Zm20.187-6.157h-4.949L264.2,51.753V41.15h-4.135V61.037h4.141V56.6l1.444-1.525,3.813,5.966h4.741l-5.748-8.853Zm14.561,4.673a10.482,10.482,0,0,1,.422,2.982c0,.163,0,.337-.013.518s-.023.371-.041.572H278.777a3.489,3.489,0,0,0,1.239,2.139,3.7,3.7,0,0,0,2.33.721,4.627,4.627,0,0,0,1.852-.353,6.36,6.36,0,0,0,1.689-1.144l2.371,2.1a7.37,7.37,0,0,1-2.506,2,7.768,7.768,0,0,1-3.461.723,8.319,8.319,0,0,1-3.036-.544,7.006,7.006,0,0,1-2.425-1.553,7.166,7.166,0,0,1-1.594-2.384,7.921,7.921,0,0,1-.572-3.066v-.054a8.147,8.147,0,0,1,.531-2.943A7.449,7.449,0,0,1,276.68,48.4a6.924,6.924,0,0,1,5.2-2.235,7.12,7.12,0,0,1,3.159.654,6.422,6.422,0,0,1,2.22,1.758A7.3,7.3,0,0,1,288.57,51.108Zm-3.61,1.485a4,4,0,0,0-.981-2.248,2.728,2.728,0,0,0-2.1-.858,2.782,2.782,0,0,0-2.112.845,4.229,4.229,0,0,0-1.048,2.261Zm6.484,8.444h4.141V41.15h-4.141Zm19.423-14.6h-12.45v3.355h7.3l-7.547,8.338v2.915h12.7V57.687h-7.573l7.573-8.338Z" transform="translate(-187.804 -34.388)" fill="#2ec5b6"/><path d="M285.906,188.8a2.153,2.153,0,1,1,2.138-2.16A2.071,2.071,0,0,1,285.906,188.8Zm0-.608a1.413,1.413,0,0,0,1.431-1.552,1.406,1.406,0,1,0-2.8,0A1.374,1.374,0,0,0,285.906,188.2Z" transform="translate(-237.425 -154.301)" fill="#fff"/><path d="M320.561,186.339c0-.852-.464-1.285-1.164-1.285s-1.193.441-1.193,1.339V188.7h-.693v-4.169h.693v.593a1.535,1.535,0,0,1,1.339-.67,1.617,1.617,0,0,1,1.7,1.789v2.452h-.685Z" transform="translate(-265.599 -154.26)" fill="#fff"/><path d="M362.538,180.12H362v-.571h.54V178.5h.693v1.05h1.087v.571h-1.087v2.452c0,.41.152.554.577.554h.51v.587H363.7c-.739,0-1.158-.306-1.158-1.144Z" transform="translate(-302.815 -149.282)" fill="#fff"/><path d="M383.62,176h.693v2.062a1.567,1.567,0,0,1,1.377-.677,1.608,1.608,0,0,1,1.666,1.789v2.452h-.685V179.27c0-.852-.464-1.285-1.164-1.285s-1.194.441-1.194,1.339v2.305h-.693Z" transform="translate(-320.9 -147.191)" fill="#fff"/><path d="M416.2,188.8a2.007,2.007,0,0,1-2.062-2.16A1.98,1.98,0,0,1,416.2,184.5a1.909,1.909,0,0,1,2,1.993,3.882,3.882,0,0,1-.023.419h-3.334a1.309,1.309,0,0,0,1.354,1.308,1.145,1.145,0,0,0,1.172-.768h.745A1.876,1.876,0,0,1,416.2,188.8Zm-1.347-2.452h2.632a1.221,1.221,0,0,0-1.316-1.264,1.289,1.289,0,0,0-1.316,1.261Z" transform="translate(-346.43 -154.301)" fill="#fff"/><path d="M462.332,188.7h-.692v-4.169h.692v.677a1.406,1.406,0,0,1,1.347-.754v.716H463.5c-.654,0-1.164.3-1.164,1.262Z" transform="translate(-386.164 -154.26)" fill="#fff"/><path d="M480.62,175.557a.464.464,0,1,1,.136.337A.464.464,0,0,1,480.62,175.557Zm.114,1.144h.692v4.169h-.692Z" transform="translate(-402.041 -146.439)" fill="#fff"/><path d="M495.453,184.5a1.723,1.723,0,0,1,1.553.829v-.76h.7v4.264a1.87,1.87,0,0,1-1.993,1.962,1.833,1.833,0,0,1-2.016-1.445h.677a1.3,1.3,0,0,0,1.332.844A1.237,1.237,0,0,0,497,188.831v-.875a1.743,1.743,0,0,1-1.553.852,2.162,2.162,0,0,1,.007-4.308Zm.137.6a1.408,1.408,0,0,0-1.408,1.537,1.417,1.417,0,1,0,1.408-1.537Z" transform="translate(-412.79 -154.301)" fill="#fff"/><path d="M528.86,176h.693v2.062a1.567,1.567,0,0,1,1.377-.677,1.608,1.608,0,0,1,1.666,1.789v2.452h-.685V179.27c0-.852-.464-1.285-1.164-1.285s-1.194.441-1.194,1.339v2.305h-.693Z" transform="translate(-442.394 -147.191)" fill="#fff"/><path d="M559.131,180.12h-.541v-.571h.541V178.5h.692v1.05h1.087v.571h-1.087v2.452c0,.41.152.554.579.554h.508v.587h-.618c-.739,0-1.156-.306-1.156-1.144Z" transform="translate(-467.263 -149.282)" fill="#fff"/><path d="M593.21,180.151h-.49v-.708h.49V178.4h.875v1.043H595.1v.708h-1.019v2.32c0,.311.121.441.491.441h.531v.723h-.683c-.745,0-1.21-.312-1.21-1.164Z" transform="translate(-495.813 -149.199)" fill="#f7c90b"/><path d="M615.378,188.61h-.868v-4.192h.868v.608a1.362,1.362,0,0,1,1.254-.677v.9h-.221c-.638,0-1.033.267-1.033,1.156Z" transform="translate(-514.041 -154.174)" fill="#f7c90b"/><path d="M634.87,184.356a1.785,1.785,0,0,1,1.453.677v-.608h.875v4.192h-.875v-.625a1.8,1.8,0,0,1-1.471.692,2.024,2.024,0,0,1-1.962-2.183A2,2,0,0,1,634.87,184.356Zm.183.754a1.284,1.284,0,0,0-1.27,1.391,1.323,1.323,0,0,0,1.27,1.431,1.307,1.307,0,0,0,1.27-1.416,1.286,1.286,0,0,0-1.265-1.4Z" transform="translate(-529.416 -154.18)" fill="#f7c90b"/><path d="M668.853,184.36a1.823,1.823,0,0,1,1.932,1.391h-.935a.981.981,0,0,0-1-.654c-.7,0-1.162.517-1.162,1.429s.463,1.439,1.162,1.439a.958.958,0,0,0,1-.662h.935a1.885,1.885,0,0,1-1.932,1.391,2.17,2.17,0,0,1,0-4.334Z" transform="translate(-557.782 -154.184)" fill="#f7c90b"/><path d="M698.81,176h.867v3.27l1.522-1.833h1.2l-1.924,2.1,1.932,2.093h-1.171l-1.553-1.8v1.8h-.867Z" transform="translate(-584.558 -147.191)" fill="#f7c90b"/><path d="M27.034,11.129c-.947.942-1.864,1.949-2.745,3.005-.847,1.017-1.656,2.1-2.441,3.213a37.225,37.225,0,0,0-3.016,5.1,31.881,31.881,0,0,0-1.982,4.938l-1.574-3.819c.235-.415.476-.817.724-1.22.641-1.019,1.326-1.988,2.022-2.935.631-.86,1.288-1.684,1.962-2.483a35.461,35.461,0,0,1,3-3.165q1.319-1.226,2.676-2.374c.783-.654,1.589-1.262,2.407-1.834q-.131-.371-.271-.734c-3.175,1.931-9.723,6.5-13.192,13.093l-1.144-2.779A42.4,42.4,0,0,1,27.681,8.553c-.085-.2-.163-.392-.265-.585h0a13.515,13.515,0,0,0-.654-1.187l.01-.008h-.01q-.245-.383-.49-.75l.013-.01c-.036-.052-.075-.1-.111-.155h0A14.422,14.422,0,0,0,0,14.251C0,20.9,10.068,33.971,13.38,38.085a1.337,1.337,0,0,0,2.085,0c3.312-4.118,13.38-17.185,13.38-23.839a14.423,14.423,0,0,0-.633-4.235C27.815,10.376,27.419,10.744,27.034,11.129ZM15.262,31.762a.92.92,0,0,1-1.72,0C11.067,25.223,8.031,17.7,6,12.674,5.06,10.386,4.47,9.766,2.972,9.521V8.294H11.5V9.388c-2.712.275-2.737.6-2.165,2.24.515,1.318,1.471,3.773,2.616,6.635l4.414,10.711c-.383.937-.75,1.869-1.105,2.789Z" transform="translate(0 0.207)" fill="#f7c90b"/></svg>