<svg xmlns="http://www.w3.org/2000/svg" width="123.032" height="38.791" viewBox="0 0 123.032 38.791"><g transform="translate(0)"><g transform="translate(0)"><path d="M27.031,11.039c-.948.948-1.863,1.945-2.746,3.007-.85,1.013-1.651,2.108-2.435,3.22a36.3,36.3,0,0,0-3.007,5.1A31.421,31.421,0,0,0,16.866,27.3L15.3,23.476c.229-.409.474-.817.719-1.226.637-1.013,1.324-1.994,2.027-2.925.637-.866,1.291-1.683,1.961-2.484a36.508,36.508,0,0,1,2.991-3.171c.883-.817,1.765-1.6,2.68-2.37.784-.654,1.585-1.258,2.4-1.83-.082-.245-.18-.49-.278-.735-3.171,1.929-9.724,6.488-13.189,13.091l-1.144-2.778A42.373,42.373,0,0,1,27.685,8.473c-.082-.2-.163-.392-.261-.588h0a12.141,12.141,0,0,0-.654-1.193h0c-.163-.261-.327-.507-.49-.752l.016-.016a1.413,1.413,0,0,1-.114-.163h0A14.428,14.428,0,0,0,0,14.16c0,6.652,10.067,19.71,13.369,23.828a1.329,1.329,0,0,0,1.879.2,1.11,1.11,0,0,0,.2-.2C18.762,33.87,28.813,20.812,28.813,14.16a14.288,14.288,0,0,0-.637-4.233C27.8,10.287,27.407,10.663,27.031,11.039ZM15.264,31.664a.932.932,0,0,1-1.193.539.971.971,0,0,1-.539-.539C11.064,25.127,8.024,17.609,6,12.575,5.05,10.287,4.461,9.666,2.974,9.421V8.2h8.531V9.29c-2.713.278-2.729.6-2.157,2.239.523,1.324,1.471,3.775,2.615,6.635l4.413,10.7c-.392.948-.768,1.879-1.111,2.795Z" transform="translate(0.001 0.304)" fill="#f7c90b"/></g></g><path d="M256.092,39.6a6.53,6.53,0,0,0-2.223-1.749,7.014,7.014,0,0,0-3.154-.654,7.149,7.149,0,0,0-2.925.6,6.906,6.906,0,0,0-2.272,1.634,7.428,7.428,0,0,0-1.487,2.419,8.446,8.446,0,0,0-.523,2.942v.049a8.015,8.015,0,0,0,.572,3.056,7.01,7.01,0,0,0,1.585,2.386,6.914,6.914,0,0,0,2.419,1.553,8.372,8.372,0,0,0,3.04.539,7.9,7.9,0,0,0,3.465-.719,7.233,7.233,0,0,0,2.5-1.994l-2.37-2.092a6.151,6.151,0,0,1-1.683,1.144,4.435,4.435,0,0,1-1.847.36,3.74,3.74,0,0,1-2.321-.719,3.447,3.447,0,0,1-1.242-2.141h10.149c.033-.2.033-.392.049-.572s.016-.36.016-.523a10.553,10.553,0,0,0-.425-2.974A7.3,7.3,0,0,0,256.092,39.6ZM253.8,43.657h-6.227a4.209,4.209,0,0,1,1.046-2.255,2.759,2.759,0,0,1,2.108-.85,2.7,2.7,0,0,1,2.092.85,4.039,4.039,0,0,1,.981,2.239v.016ZM243.622,33.017l-7.714,19.2H232.2l-7.7-19.2h4.625l4.985,13.434,4.985-13.434Zm24.793,10.215,5.753,8.858h-4.74l-3.808-5.965-1.438,1.52V52.09h-4.135V32.2h4.135V42.79l4.854-5.312h4.952ZM287.225,39.6A6.53,6.53,0,0,0,285,37.855a7.014,7.014,0,0,0-3.154-.654,7.149,7.149,0,0,0-2.925.6,6.906,6.906,0,0,0-2.272,1.634,7.428,7.428,0,0,0-1.487,2.419,8.447,8.447,0,0,0-.523,2.942v.049a8.015,8.015,0,0,0,.572,3.056,7.01,7.01,0,0,0,1.585,2.386,6.915,6.915,0,0,0,2.419,1.553,8.372,8.372,0,0,0,3.04.539,7.9,7.9,0,0,0,3.465-.719,7.233,7.233,0,0,0,2.5-1.994l-2.37-2.092a6.15,6.15,0,0,1-1.683,1.144,4.435,4.435,0,0,1-1.847.36A3.74,3.74,0,0,1,280,48.363a3.446,3.446,0,0,1-1.242-2.141h10.165c.016-.2.016-.392.033-.572s.016-.36.016-.523a10.554,10.554,0,0,0-.425-2.974A7.3,7.3,0,0,0,287.225,39.6Zm-2.288,4.053h-6.227a4.209,4.209,0,0,1,1.046-2.255,2.759,2.759,0,0,1,2.108-.85,2.7,2.7,0,0,1,2.092.85,4.039,4.039,0,0,1,.981,2.239Zm25.9-3.269-7.567,8.335h7.567v3.35h-12.7V49.164l7.551-8.335h-7.305v-3.35h12.454ZM291.426,32.2h4.135V52.09h-4.135Z" transform="translate(-187.809 -26.888)" fill="#2ec5b6"/><path d="M388.072,176.588c-.016,1.422-1.144,2.615-3.138,2.615-1.847,0-3.269-.915-3.334-2.648h2.223a.99.99,0,0,0,1.062.981c.6,0,1-.311,1-.8,0-1.585-4.282-.735-4.249-3.759,0-1.618,1.324-2.517,3.122-2.517,1.863,0,3.122.932,3.2,2.55H385.7a.9.9,0,0,0-.981-.883.759.759,0,0,0-.883.784C383.839,174.4,388.072,173.728,388.072,176.588Zm7.665-.981c0,.2-.016.409-.033.6h-4.723a1.263,1.263,0,0,0,1.291,1.307,1.1,1.1,0,0,0,1.079-.654h2.223a3.179,3.179,0,0,1-3.22,2.353,3.5,3.5,0,0,1,0-6.995A3.2,3.2,0,0,1,395.737,175.608Zm-2.141-.539a1.186,1.186,0,0,0-1.275-1.177A1.274,1.274,0,0,0,391,175.068Zm3.236,4.037h2.076V170.1h-2.076Zm3.6,0H402.5V170.1h-2.076Zm9.986-3.5c0,.2-.016.409-.033.6h-4.707a1.263,1.263,0,0,0,1.291,1.307,1.1,1.1,0,0,0,1.079-.654h2.223a3.185,3.185,0,0,1-3.236,2.353,3.5,3.5,0,0,1,0-6.995A3.2,3.2,0,0,1,410.413,175.608Zm-2.125-.539a1.186,1.186,0,0,0-1.275-1.177,1.274,1.274,0,0,0-1.324,1.177Zm5.312-1.618v-1.128h-2.076v6.8H413.6v-3.171c0-1.16.572-1.5,1.553-1.5h.572v-2.206A2.542,2.542,0,0,0,413.6,173.45Z" transform="translate(-319.234 -142.25)" fill="#f7c90b"/></svg>