<?xml version="1.0" encoding="utf-8"?>
<!-- Generator: Adobe Illustrator 25.2.0, SVG Export Plug-In . SVG Version: 6.00 Build 0)  -->
<svg version="1.1" id="Layer_1" xmlns="http://www.w3.org/2000/svg" xmlns:xlink="http://www.w3.org/1999/xlink" x="0px" y="0px"
	 viewBox="0 0 562.8 536" style="enable-background:new 0 0 562.8 536;" xml:space="preserve">
<style type="text/css">
	.st0{fill:#2EC5B6;}
	.st1{fill:#F7C90B;}
</style>
<g>
	<path class="st0" d="M124.6,333L74.4,458.2H50.2L0,333h30.2l32.5,87.5L95.2,333H124.6z M214.6,392.6c1.8,6.2,2.8,12.7,2.8,19.4
		c0,1.1,0,2.2-0.1,3.4c-0.1,1.2-0.2,2.4-0.3,3.7h-66.2c1.3,6.2,4,10.8,8.1,13.9c4.1,3.1,9.1,4.7,15.2,4.7c4.5,0,8.5-0.8,12.1-2.3
		c3.6-1.5,7.2-4,11-7.5l15.4,13.7c-4.5,5.6-9.9,9.9-16.3,13c-6.4,3.1-13.9,4.7-22.5,4.7c-7.1,0-13.7-1.2-19.8-3.6
		c-6.1-2.4-11.4-5.7-15.8-10.1c-4.4-4.4-7.9-9.6-10.4-15.5c-2.5-6-3.7-12.6-3.7-20v-0.4c0-6.7,1.2-13.1,3.5-19.2
		c2.3-6,5.5-11.3,9.7-15.8c4.1-4.5,9.1-8,14.8-10.7c5.7-2.6,12.1-3.9,19.1-3.9c7.9,0,14.8,1.4,20.6,4.3c5.8,2.8,10.6,6.7,14.5,11.5
		C209.9,380.8,212.7,386.3,214.6,392.6z M191,402.2c-0.8-6-3-10.9-6.4-14.6c-3.4-3.7-8-5.6-13.7-5.6s-10.3,1.8-13.8,5.5
		c-3.5,3.7-5.8,8.6-6.8,14.7H191z M322.6,362.1h-32.3l-31.6,34.6v-69.1h-27v129.6h27v-28.9l9.4-9.9l24.9,38.9h30.9l-37.5-57.7
		L322.6,362.1z M417.5,392.6c1.8,6.2,2.8,12.7,2.8,19.4c0,1.1,0,2.2-0.1,3.4c-0.1,1.2-0.2,2.4-0.3,3.7h-66.2
		c1.3,6.2,4,10.8,8.1,13.9c4.1,3.1,9.1,4.7,15.2,4.7c4.5,0,8.5-0.8,12.1-2.3c3.6-1.5,7.2-4,11-7.5l15.4,13.7
		c-4.5,5.6-9.9,9.9-16.3,13c-6.4,3.1-13.9,4.7-22.5,4.7c-7.1,0-13.7-1.2-19.8-3.6c-6.1-2.4-11.4-5.7-15.8-10.1
		c-4.4-4.4-7.9-9.6-10.4-15.5c-2.5-6-3.7-12.6-3.7-20v-0.4c0-6.7,1.2-13.1,3.5-19.2c2.3-6,5.5-11.3,9.7-15.8
		c4.1-4.5,9.1-8,14.8-10.7c5.7-2.6,12.1-3.9,19.1-3.9c7.9,0,14.8,1.4,20.6,4.3c5.8,2.8,10.6,6.7,14.5,11.5
		C412.8,380.8,415.6,386.3,417.5,392.6z M393.9,402.2c-0.8-6-3-10.9-6.4-14.6c-3.4-3.7-8-5.6-13.7-5.6s-10.3,1.8-13.8,5.5
		c-3.5,3.7-5.8,8.6-6.8,14.7H393.9z M436.2,457.3h27V327.7h-27V457.3z M562.8,362.1h-81.1v21.8h47.6L480,438.3v19h82.7v-21.8h-49.4
		l49.4-54.3V362.1z"/>
	<g>
		<path class="st1" d="M189.1,533.9c-12,0-21.4-6-21.7-17.2h14.4c0.4,4.3,3.1,6.4,6.9,6.4c4,0,6.5-2,6.5-5.2
			c0-10.3-27.9-4.8-27.7-24.5c0-10.6,8.7-16.4,20.3-16.4c12.1,0,20.3,6,20.9,16.7H194c-0.2-3.6-2.8-5.7-6.4-5.8
			c-3.3-0.1-5.7,1.6-5.7,5.1c0,9.7,27.5,5.3,27.5,24C209.4,526.1,202.1,533.9,189.1,533.9z"/>
		<path class="st1" d="M237.4,534c-13,0-22.4-8.7-22.4-22.8c0-14,9.2-22.8,22.4-22.8c12.9,0,22.1,8.6,22.1,22.1c0,1.3-0.1,2.6-0.2,4
			h-30.7c0.5,5.8,4,8.5,8.4,8.5c3.8,0,6-1.9,7.1-4.3h14.4C256.3,527.3,248.4,534,237.4,534z M228.6,506.9h17c0-4.8-3.8-7.6-8.3-7.6
			C232.8,499.3,229.4,502,228.6,506.9z"/>
		<path class="st1" d="M266.6,474.6h13.6v58.7h-13.6V474.6z"/>
		<path class="st1" d="M290,474.6h13.6v58.7H290V474.6z"/>
		<path class="st1" d="M333.1,534c-13,0-22.4-8.7-22.4-22.8c0-14,9.2-22.8,22.4-22.8c12.9,0,22.1,8.6,22.1,22.1c0,1.3-0.1,2.6-0.2,4
			h-30.7c0.5,5.8,4,8.5,8.4,8.5c3.8,0,6-1.9,7.1-4.3h14.4C352,527.3,344.2,534,333.1,534z M324.3,506.9h17c0-4.8-3.8-7.6-8.3-7.6
			C328.5,499.3,325.1,502,324.3,506.9z"/>
		<path class="st1" d="M375.9,533.3h-13.6V489h13.6v7.4c3.1-4.7,7.9-7.9,13.9-7.9v14.4h-3.7c-6.4,0-10.2,2.2-10.2,9.8V533.3z"/>
	</g>
	<path class="st1" d="M392.5,93.1c-7.8,7.8-15.3,16.1-22.6,24.8c-7,8.4-13.6,17.3-20.1,26.5c-9.2,12.9-17.4,27-24.8,42
		c-6.3,12.9-12,26.3-16.3,40.7l-13-31.5c1.9-3.4,3.9-6.8,6-10c5.3-8.4,10.9-16.4,16.6-24.2c5.2-7.1,10.6-13.9,16.1-20.4
		c7.9-9.4,16.1-18.1,24.7-26.1c7.2-6.7,14.6-13.3,22-19.5c6.5-5.4,13.1-10.4,19.8-15.1c-0.7-2-1.5-4.1-2.3-6
		C372.5,90,318.6,127.6,290,181.9l-9.4-22.8c4.6-5.5,49-57.2,117.2-87.1c-0.7-1.6-1.4-3.2-2.2-4.8c0,0,0,0,0,0
		c-1.6-3.3-3.4-6.6-5.4-9.8c0,0,0.1-0.1,0.1-0.1c0,0,0,0,0-0.1c0,0-0.1,0-0.1,0.1c-1.3-2.1-2.6-4.2-4.1-6.2c0,0,0.1-0.1,0.1-0.1
		c-0.3-0.4-0.6-0.9-0.9-1.3l0,0l0,0C363.7,19.6,328.5,0,288.6,0C223,0,169.8,53.2,169.8,118.8c0,54.8,82.9,162.4,110.2,196.3
		c4.4,5.5,12.8,5.5,17.2,0c27.3-33.9,110.2-141.5,110.2-196.3c0-12.1-1.8-23.8-5.2-34.9C398.9,86.9,395.7,89.9,392.5,93.1z
		 M295.5,263c-1.1,2.9-3.9,4.9-7.1,4.9c-3.2,0-6-1.9-7.1-4.9C261,209.1,236,147.1,219.3,105.8c-7.8-18.8-12.6-24-25-26V69.7h70.2v9
		c-22.3,2.3-22.5,4.9-17.8,18.4c4.2,10.8,12.2,31.1,21.5,54.6l36.3,88.2C301.5,247.7,298.5,255.4,295.5,263z"/>
</g>
</svg>
