<svg xmlns="http://www.w3.org/2000/svg" width="37" height="24" viewBox="0 0 37 24"><g transform="translate(-232 -147)"><rect width="37" height="24" rx="3" transform="translate(232 147)" fill="#15216c"/><g transform="translate(38.434 -754.299)"><g transform="translate(198.015 908.74)"><path d="M210.2,917.7H207.9l1.433-8.807h2.293Zm-4.222-8.807-2.186,6.058-.259-1.3h0l-.772-3.961a.982.982,0,0,0-1.088-.793h-3.614l-.042.149a8.577,8.577,0,0,1,2.4,1.007l1.992,7.652h2.389l3.648-8.808Zm18.036,8.807h2.106l-1.836-8.808h-1.843a1.054,1.054,0,0,0-1.059.656l-3.42,8.151h2.39l.478-1.308h2.915l.269,1.308Zm-2.523-3.116,1.2-3.3.678,3.3Zm-3.349-3.574.327-1.891a6.619,6.619,0,0,0-2.062-.384c-1.138,0-3.84.5-3.84,2.916,0,2.275,3.172,2.3,3.172,3.5s-2.845.981-3.784.227l-.341,1.978a6.425,6.425,0,0,0,2.588.5c1.565,0,3.925-.81,3.925-3.015,0-2.29-3.2-2.5-3.2-3.5s2.233-.868,3.215-.327Z" transform="translate(-198.015 -908.74)" fill="#fff"/></g><path d="M203.531,925.259l-.772-3.961a.982.982,0,0,0-1.088-.793h-3.614l-.042.149a8.885,8.885,0,0,1,3.4,1.709A6.868,6.868,0,0,1,203.531,925.259Z" transform="translate(0 -11.608)" fill="#e6a540"/></g></g></svg>