<svg xmlns="http://www.w3.org/2000/svg" width="130.451" height="32.167" viewBox="0 0 130.451 32.167"><g transform="translate(0 -17.202)"><path d="M32.167,33.286A16.084,16.084,0,1,1,16.084,17.2,16.084,16.084,0,0,1,32.167,33.286" transform="translate(0 0)" fill="#ee3023"/><path d="M145.444,67.708c-4.42.016-9.018-3.751-9.042-9.812a13.691,13.691,0,0,1,4.91-10.147,16.1,16.1,0,0,1,9.734-3.673,4.048,4.048,0,0,1,1.159.124,6.684,6.684,0,0,0-5.244,6.419,1.192,1.192,0,0,0,.016.265c4.9,1.191,7.12,4.147,7.135,8.24a8.606,8.606,0,0,1-8.629,8.583h-.039" transform="translate(-129.228 -25.458)" fill="#fff"/><path d="M720.657,151.4l-4.91-11.742h3.214l3.074,7.8,2.972-7.8h3.066L723.295,151.4Zm15.967-5.929a5.477,5.477,0,0,0-.171-1.4,3.332,3.332,0,0,0-.514-1.128,2.582,2.582,0,0,0-.825-.755,2.416,2.416,0,0,0-2.288,0,2.553,2.553,0,0,0-.833.755,3.331,3.331,0,0,0-.506,1.136,5.781,5.781,0,0,0,0,2.793,3.669,3.669,0,0,0,.49,1.136,2.326,2.326,0,0,0,1.984,1.05,2.256,2.256,0,0,0,1.976-1.05,3.5,3.5,0,0,0,.514-1.128,5.447,5.447,0,0,0,.171-1.408m2.965.008a7.442,7.442,0,0,1-.35,2.257,6.194,6.194,0,0,1-1.05,1.984,5.553,5.553,0,0,1-8.443,0,6.249,6.249,0,0,1-1.05-1.984,7.438,7.438,0,0,1,0-4.49,6.131,6.131,0,0,1,1.05-1.961A5.136,5.136,0,0,1,731.5,139.9a5.5,5.5,0,0,1,2.474-.529,5.268,5.268,0,0,1,4.21,1.914,5.978,5.978,0,0,1,1.058,1.961,7.317,7.317,0,0,1,.35,2.233m9.073-3.229a4.483,4.483,0,0,0-1.626-.35,2.622,2.622,0,0,0-2.257,1.089,3.619,3.619,0,0,0-.545,1.128,4.543,4.543,0,0,0-.179,1.284,6.07,6.07,0,0,0,.156,1.4,3.618,3.618,0,0,0,.49,1.167,2.575,2.575,0,0,0,.825.809,2.2,2.2,0,0,0,1.167.311,2.458,2.458,0,0,0,1.144-.311,2.017,2.017,0,0,0,.825-.716Zm.241,9.151-.117-.9a3.736,3.736,0,0,1-1.089.817,4.335,4.335,0,0,1-3.735-.156,4.778,4.778,0,0,1-1.556-1.369,6.232,6.232,0,0,1-.965-1.969,8.368,8.368,0,0,1-.327-2.334,7.572,7.572,0,0,1,.335-2.249,5.93,5.93,0,0,1,1.035-1.953,5.151,5.151,0,0,1,4.186-1.914,6.577,6.577,0,0,1,1.992.342v-4.552h3.019V151.4Zm11.275-5.509a17.245,17.245,0,0,0-1.984.249,2.265,2.265,0,0,0-1.362.669,1.635,1.635,0,0,0-.374,1.035,1.138,1.138,0,0,0,.428.934,1.867,1.867,0,0,0,1.206.358,2.8,2.8,0,0,0,1.144-.241,3.383,3.383,0,0,0,.942-.615Zm.241,5.493-.117-.871a3.346,3.346,0,0,1-1.245.848,4.4,4.4,0,0,1-3.112.047,3.564,3.564,0,0,1-2.435-3.47,3.323,3.323,0,0,1,1.268-2.677,5.157,5.157,0,0,1,1.346-.755,11.573,11.573,0,0,1,2.871-.623l1.167-.109V143.6a1.711,1.711,0,0,0-.506-1.385,2.109,2.109,0,0,0-1.385-.412,4.272,4.272,0,0,0-2.459.794,4.59,4.59,0,0,0-.451.327l-1-2.116a6.69,6.69,0,0,1,1.572-.887,7.135,7.135,0,0,1,4.614-.3,3.6,3.6,0,0,1,2.3,2.186,5.577,5.577,0,0,1,.327,2.031v7.548ZM772.5,137.838a3.937,3.937,0,0,0-1.712-.342,1.506,1.506,0,0,0-1.05.381,1.551,1.551,0,0,0-.428,1.229v.552h2.537v2.436h-2.513V151.4h-3.019v-9.306H764.76v-2.436h1.556v-.622a5.654,5.654,0,0,1,.3-1.945,3.19,3.19,0,0,1,2.046-2.023,6.622,6.622,0,0,1,4.186.257Zm8.233,7.633a5.617,5.617,0,0,0-.171-1.4,3.332,3.332,0,0,0-.514-1.128,2.582,2.582,0,0,0-.825-.755,2.416,2.416,0,0,0-2.288,0,2.6,2.6,0,0,0-.833.755,3.448,3.448,0,0,0-.513,1.136,5.61,5.61,0,0,0,0,2.8,3.749,3.749,0,0,0,.5,1.128,2.459,2.459,0,0,0,.833.778,2.343,2.343,0,0,0,1.159.28,2.256,2.256,0,0,0,1.969-1.058,3.5,3.5,0,0,0,.514-1.128,5.581,5.581,0,0,0,.171-1.408m2.965.008a7.352,7.352,0,0,1-.35,2.257,6.132,6.132,0,0,1-1.05,1.984,5.553,5.553,0,0,1-8.443,0,6.249,6.249,0,0,1-1.051-1.984,7.346,7.346,0,0,1,0-4.49,6.134,6.134,0,0,1,1.043-1.961,5.135,5.135,0,0,1,1.759-1.385,5.5,5.5,0,0,1,2.474-.529,5.268,5.268,0,0,1,4.21,1.914,5.975,5.975,0,0,1,1.058,1.961,7.317,7.317,0,0,1,.35,2.233m9.376,5.921v-6.692a3.353,3.353,0,0,0-.56-2.078,1.867,1.867,0,0,0-1.556-.731,2.42,2.42,0,0,0-1.307.366,5.486,5.486,0,0,0-1.035.809V151.4H785.6V139.659h2.755l.14.934a5.268,5.268,0,0,1,3.385-1.222,5.034,5.034,0,0,1,1.712.28,3.346,3.346,0,0,1,1.331.887,4.012,4.012,0,0,1,.872,1.58,7.943,7.943,0,0,1,.3,2.334V151.4Zm12.411-7.283a3.091,3.091,0,0,0-.257-1.058,2.241,2.241,0,0,0-.514-.731,2.046,2.046,0,0,0-1.385-.545,2.311,2.311,0,0,0-1.494.584,2.5,2.5,0,0,0-.833,1.751Zm-4.552,2.171a2.785,2.785,0,0,0,.934,2.14,3.362,3.362,0,0,0,2.14.661,5.907,5.907,0,0,0,2.1-.389,5.742,5.742,0,0,0,.716-.342,2.373,2.373,0,0,0,.436-.319l.809,2.459a5.672,5.672,0,0,1-1.486.716,10.271,10.271,0,0,1-2.972.451,6.535,6.535,0,0,1-2.179-.366,4.87,4.87,0,0,1-1.813-1.128,5.532,5.532,0,0,1-1.245-1.914,7.229,7.229,0,0,1-.467-2.723,7.577,7.577,0,0,1,.428-2.63,5.167,5.167,0,0,1,5-3.533,5.757,5.757,0,0,1,2.078.366,4.231,4.231,0,0,1,1.634,1.128,5.371,5.371,0,0,1,1.1,1.992,9.12,9.12,0,0,1,.4,2.895v.537Z" transform="translate(-678.102 -111.454)" fill="#ee3023"/></g></svg>