<svg xmlns="http://www.w3.org/2000/svg" width="32.167" height="32.167" viewBox="0 0 32.167 32.167"><g transform="translate(0 -17.202)"><path d="M32.167,33.286A16.084,16.084,0,1,1,16.084,17.2,16.084,16.084,0,0,1,32.167,33.286" fill="#ee3023"/><path d="M145.444,67.708c-4.42.016-9.018-3.751-9.042-9.812a13.691,13.691,0,0,1,4.91-10.147,16.1,16.1,0,0,1,9.734-3.673,4.048,4.048,0,0,1,1.159.124,6.684,6.684,0,0,0-5.244,6.419,1.192,1.192,0,0,0,.016.265c4.9,1.191,7.12,4.147,7.135,8.24a8.606,8.606,0,0,1-8.629,8.583h-.039" transform="translate(-129.228 -25.458)" fill="#fff"/></g></svg>