<?xml version="1.0" encoding="utf-8"?>
<!-- Generator: Adobe Illustrator 25.2.0, SVG Export Plug-In . SVG Version: 6.00 Build 0)  -->
<svg version="1.1" id="Layer_1" xmlns="http://www.w3.org/2000/svg" xmlns:xlink="http://www.w3.org/1999/xlink" x="0px" y="0px"
	 viewBox="0 0 140 140" style="enable-background:new 0 0 140 140;" xml:space="preserve">
<style type="text/css">
	.st0{opacity:0.2;fill:#FC0032;enable-background:new    ;}
	.st1{opacity:0.5;fill:#FC0032;enable-background:new    ;}
	.st2{fill:#FC0032;}
	.st3{fill:#FFFFFF;}
</style>
<g id="Group_2144" transform="translate(-118.5 -240.5)">
	<circle id="Oval_Copy_2" class="st0" cx="188.5" cy="310.5" r="70"/>
	<circle id="Oval_Copy" class="st1" cx="188.5" cy="310.5" r="60"/>
	<circle id="Oval" class="st2" cx="188.5" cy="310.5" r="50"/>
	<path class="st3" d="M191,310.5l6.2-6.2c0.7-0.7,0.7-1.8,0-2.5s-1.8-0.7-2.5,0l-6.2,6.2l-6.2-6.2c-0.7-0.7-1.8-0.7-2.5,0
		s-0.7,1.8,0,2.5l6.2,6.2l-6.2,6.2c-0.7,0.7-0.7,1.8,0,2.5s1.8,0.7,2.5,0l6.2-6.2l6.2,6.2c0.7,0.7,1.8,0.7,2.5,0s0.7-1.8,0-2.5
		L191,310.5z"/>
</g>
</svg>
