<?xml version="1.0" encoding="utf-8"?>
<!-- Generator: Adobe Illustrator 22.0.1, SVG Export Plug-In . SVG Version: 6.00 Build 0)  -->
<svg version="1.1" id="Layer_1" xmlns="http://www.w3.org/2000/svg" xmlns:xlink="http://www.w3.org/1999/xlink" x="0px" y="0px"
	 viewBox="0 0 627.3 270.8" style="enable-background:new 0 0 627.3 270.8;" xml:space="preserve">
<style type="text/css">
	.st0{stroke:#1F1A17;stroke-width:2.540500e-03;}
</style>
<g id="Dummy_x0025_Layer_x0025_Dummy_x0025_Layer">
	<path class="st0" d="M216.5,142l-102.9-1.2C163.2,57.1,218.5-14.6,325.2,2.7c80.8,13.1,153.6,60.1,211.6,99.9
		c56.7,38.9-105.8-66.4-161.3-80.7c-71.4-18.5-137.9,4.4-166.8,36.1C179.8,89.7,215.8,136.9,216.5,142L216.5,142z"/>
	<path d="M265.9,254h-26.4c1-1.2,1.4-2,1.4-2.5c0-0.2-0.1-0.5-0.2-0.9c-0.1-0.4-0.3-0.8-0.5-1.3c-0.2-0.5-0.3-1-0.5-1.5
		c-0.1-0.5-0.2-0.9-0.2-1.4c0-1.7,0.6-3.2,1.9-4.4l5.8-5.9l-2.1-4l4.8-4.5l2,3.8l2.3-2.3c-0.5,1.4-0.8,2.7-0.8,4c0,1,0.8,3,2.5,6.2
		l4.8,9.3h5.2L265.9,254L265.9,254z M253.5,248.8l-2.4-4.8c-0.8-1.5-1.2-2.6-1.2-3.4c0,0-0.2,0.2-0.4,0.4c-0.2,0.2-0.5,0.5-0.8,0.8
		c-0.3,0.3-0.5,0.6-0.7,0.9c-0.2,0.3-0.3,0.6-0.3,0.8c0,0.6,0.2,1.3,0.6,2.1l1.7,3.2c0.4,0,0.7,0,1,0s0.6,0,0.9,0c0.3,0,0.6,0,0.8,0
		C253.1,248.8,253.3,248.8,253.5,248.8L253.5,248.8z M256.9,223.8c0,0.6-0.6,1.8-1.8,3.7c-0.9-1.2-2.1-2.1-3.5-2.7
		c-1-0.4-1.5-1-1.5-1.7c0-0.6,1.4-2,4.1-4.2c0,0.4,0.2,0.9,0.5,1.3c0.3,0.4,0.6,0.9,1,1.3c0.3,0.4,0.6,0.8,0.9,1.2
		C256.8,223.1,256.9,223.5,256.9,223.8L256.9,223.8z M248.8,223.8c0,0.6-0.6,1.8-1.8,3.7c-0.9-1.2-2.1-2.1-3.5-2.7
		c-1-0.4-1.5-1-1.5-1.7c0-0.6,1.4-2,4.1-4.2c0,0.4,0.2,0.9,0.5,1.3c0.3,0.4,0.6,0.9,0.9,1.3c0.3,0.4,0.6,0.8,0.9,1.2
		C248.6,223.1,248.8,223.5,248.8,223.8L248.8,223.8z"/>
	<path id="_x31_" d="M280.8,250.9c0,0.5,0,1-0.1,1.4c-0.1,0.4-0.2,0.7-0.4,1.1c-0.2,0.4-0.5,0.8-0.9,1.2c-0.4,0.4-0.9,0.9-1.5,1.5
		l-5.4,5.1c-0.1-0.6-0.5-1.4-1-2.2c-0.5-0.8-1.1-1.6-1.8-2.4c-0.7-0.8-1.4-1.4-2.1-1.9c-0.7-0.5-1.3-0.8-1.9-0.8h-2.5v-5.3h2.3
		c0.9,0,2.3,1,4.4,3.2l3.6,3.7c0.4-0.5,0.6-1.1,0.6-1.6c0-0.4-0.4-1.5-1.2-3.1l-1.5-3.1c-1.2-2.4-1.8-4-1.8-4.8
		c0-1.4,0.6-2.8,1.7-4.1l4.4-4.2c-0.3,1.1-0.5,2-0.5,2.7c0,0.9,0.5,2.3,1.5,4.3l2.3,4.6C280.3,248.5,280.8,250,280.8,250.9
		L280.8,250.9z M279.3,265.4c0,0.6-0.6,1.9-1.8,3.7c-0.9-1.2-2.1-2.1-3.5-2.7c-1-0.4-1.5-1-1.5-1.7c0-0.6,1.4-2,4.1-4.2
		c0,0.4,0.2,0.9,0.5,1.3c0.3,0.4,0.6,0.9,0.9,1.3c0.3,0.4,0.6,0.8,0.9,1.2C279.2,264.7,279.3,265,279.3,265.4L279.3,265.4z
		 M271.2,265.4c0,0.6-0.6,1.9-1.8,3.7c-0.9-1.2-2.1-2.1-3.5-2.7c-1-0.4-1.5-1-1.5-1.7c0-0.6,1.4-2,4.1-4.2c0,0.4,0.2,0.9,0.5,1.3
		c0.3,0.4,0.6,0.9,0.9,1.3c0.3,0.4,0.6,0.8,0.9,1.2C271.1,264.7,271.2,265,271.2,265.4L271.2,265.4z"/>
	<path id="_x31_2" d="M310.9,248.1c0,1.8-0.9,3.6-2.8,5.4l-14.4,14.1c-2.2,2.1-4.9,3.2-8.2,3.2c-0.9,0-1.6-0.1-2.2-0.4
		c1.2-0.3,2.5-0.9,3.9-1.6c1.3-0.7,2.8-1.8,4.3-3.3l10.5-10.2c1.8-1.8,2.7-3.2,2.7-4.4c0-0.3-0.6-1.5-1.7-3.8l-1.5-3.1
		c-1.2-2.4-1.8-4-1.8-4.8c0-1.4,0.6-2.8,1.7-4.1l4.4-4.2c-0.3,1.1-0.5,2-0.5,2.7c0,0.9,0.5,2.3,1.5,4.3l2.3,4.6
		C310.3,245,310.9,246.9,310.9,248.1L310.9,248.1z"/>
	<path id="_x31_23" d="M348.1,254h-36.2v-8.6c3,2.2,6.1,3.3,9.2,3.3h15.9l-1.4-2.9h-13.5c-2.1,0-3.8-1.4-5.2-4.3l-2.8-5.6
		c-0.5-0.9-1.2-1.6-2.2-2.1l4.6-4.6l4.4,8.9c0.8,1.6,1.9,2.5,3.3,2.5h14.7c0.6,0,1.3,0.9,2.1,2.6l2.5,5.5h4.6L348.1,254L348.1,254z"
		/>
	<path id="_x31_234" d="M367.8,254h-5.6c-0.2,0.3-0.5,0.6-0.8,0.9c-0.3,0.4-0.7,0.8-1.2,1.2l-5.4,5.1c-0.1-0.6-0.5-1.4-1-2.2
		c-0.5-0.8-1.1-1.6-1.8-2.4c-0.7-0.8-1.4-1.4-2.1-1.9c-0.7-0.5-1.3-0.8-1.9-0.8h-2.5v-5.3h2.3c0.9,0,2.3,1,4.4,3.2l3.6,3.7
		c0.4-0.5,0.6-1.1,0.6-1.6c0-0.4-0.4-1.5-1.2-3.1l-1.5-3.1c-1.2-2.4-1.8-4-1.8-4.8c0-1.4,0.6-2.8,1.7-4.1l4.4-4.2
		c-0.3,1.1-0.5,2-0.5,2.7c0,0.9,0.5,2.3,1.5,4.3l2.3,4.6c0.3,0.5,0.5,1,0.7,1.4c0.2,0.4,0.3,0.7,0.4,1h5.2L367.8,254L367.8,254z
		 M356.6,230.1c0,0.6-0.6,1.8-1.8,3.7c-0.9-1.2-2.1-2.1-3.5-2.7c-1-0.4-1.5-1-1.5-1.7c0-0.6,1.4-2,4.1-4.2c0,0.4,0.2,0.9,0.5,1.3
		c0.3,0.4,0.6,0.9,0.9,1.3c0.3,0.4,0.6,0.8,0.9,1.2C356.4,229.4,356.6,229.7,356.6,230.1L356.6,230.1z"/>
	<path id="_x31_2345" d="M408.1,254h-42.8v-5.3H397l-1.4-2.9h-25.4c-0.4,0-0.9-0.1-1.3-0.3c-0.4-0.2-0.8-0.4-1.1-0.7
		c-0.3-0.3-0.6-0.7-0.7-1.1c-0.2-0.4-0.3-0.9-0.3-1.5c0-0.4,1.1-1.6,3.2-3.7l14-13.5c1.9-1.9,2.9-3.5,2.9-5c0-3.6-1.7-5.3-5.1-5.3
		c-0.5,0-1,0.1-1.6,0.2c-0.6,0.1-1.2,0.3-1.8,0.6c-0.6,0.2-1.3,0.5-2,0.8c-0.7,0.3-1.4,0.6-2,0.9l10.4-10.3l3.5,7
		c1.2,2.4,1.8,4.4,1.8,6.1c0,2.3-1.2,4.6-3.5,6.8l-5.9,5.6c-1.5,1.4-2.2,2.4-2.2,3c0,0.8,0.1,1.4,0.3,1.8l0.5,1.3
		c0.5,1.4,1.6,2,3.2,2h16.3c0.6,0,1.3,0.9,2.1,2.6l2.5,5.5h4.6L408.1,254L408.1,254z"/>
	<path id="_x31_23456" d="M439.6,252.5c-1.1,1-2.4,1.5-3.9,1.5h-30v-5.3h4.9l-0.3-0.6c-0.4-0.9-1.2-1.6-2.3-2.1l4.6-4.6l3.6,7.3h3.9
		l-1.8-3.6c-0.5-0.9-1.2-1.6-2.3-2.1l4.6-4.6l5.1,10.3h3.9l-3.4-6.7c-0.5-0.9-1.2-1.6-2.3-2.1l4.6-4.6l6.8,13.7
		c0.4,0.7,0.7,1.3,1,1.8c0.3,0.4,0.6,0.8,0.9,1c0.3,0.2,0.6,0.4,1,0.5C438.7,252.5,439.1,252.5,439.6,252.5L439.6,252.5z"/>
	<path id="_x31_234567" d="M463.7,230.1c0,2.1-1.3,5.2-3.8,9.2l-1.5-3.1c1.1-1.1,1.6-2.7,1.6-4.9v-6.1c0-1.5-1.3-4.6-4-9.4
		c1.6,0,4.2-2.1,7.7-6.2L463.7,230.1L463.7,230.1z M462.6,254h-14.2c-2.9,0-4.3-0.7-4.3-2.2V248c1.6-0.2,3.5-1.2,5.7-3.2l2.9-2.6
		l1.6,2.6c-1.8,1.7-2.6,2.7-2.6,2.9c0,0.7,0.6,1.1,1.8,1.1h1.7c1,0,1.5-0.4,1.5-1.3c0-0.4-0.4-1.4-1.3-3.1l-5.1-10c-2-4-3-6.5-3-7.6
		v-1.5c0-1.5-1.3-4.6-4-9.4c1.6,0,4.2-2.1,7.7-6.2V222c0,1.3,0.3,2.8,1,4.4c0.2,0.6,1.1,2.4,2.6,5.5l6.6,13.3c0.9,1.8,1.4,4,1.4,6.6
		L462.6,254L462.6,254z M452,256.9c-0.5,0.2-1.1,0.7-1.9,1.4l-0.9,1.1c-0.3,0.4-0.4,0.6-0.4,0.7c0,0.3,0.2,0.5,0.5,0.8l1.6,1.5
		c0.5,0.5,0.7,1,0.7,1.5c0,0.6-0.2,1.1-0.5,1.4l-2.5,2.5c-0.7,0.7-1.8,1.1-3.1,1.1c-0.5,0-1-0.1-1.5-0.3c0.6-0.1,1.1-0.5,1.7-1.1
		l0.9-1.1c0.4-0.5,0.7-0.9,0.7-1.2c0-0.2-0.2-0.5-0.6-0.9l-1.3-1.3c-0.6-0.6-0.9-1.1-0.9-1.7c0-0.6,0.3-1.1,0.9-1.7l2.1-2
		c0.7-0.6,1.7-0.9,3.1-0.9C451,256.8,451.5,256.8,452,256.9L452,256.9z"/>
	<path id="_x31_2345678" d="M486.1,253.1c-0.5,0.6-2.2,0.9-5.1,0.9c-1.7,0-3.1-0.1-4.3-0.3c-1.2-0.2-2.1-0.6-2.8-1.1
		c-0.7-0.5-1.2-1.2-1.5-2.1c-0.3-0.9-0.4-1.9-0.4-3.2v-22c0-1.5-1.4-4.6-4-9.4c1.8,0,4.4-2.1,7.7-6.2v33.6c0,1.2,0.1,2.2,0.3,3.1
		c0.2,0.9,0.6,1.7,1.1,2.3c0.5,0.7,1.2,1.3,2.1,1.8c0.9,0.5,1.9,1,3.2,1.4c0.4,0.1,1,0.3,1.6,0.5
		C484.6,252.7,485.3,252.9,486.1,253.1L486.1,253.1z"/>
	<path id="_x31_23456789" d="M524.4,254H498c1-1.2,1.4-2,1.4-2.5c0-0.2-0.1-0.5-0.2-0.9c-0.1-0.4-0.3-0.8-0.5-1.3
		c-0.2-0.5-0.3-1-0.5-1.5c-0.1-0.5-0.2-0.9-0.2-1.4c0-1.7,0.6-3.2,1.9-4.4l5.8-5.9l-2.1-4l4.8-4.5l2,3.8l2.3-2.3
		c-0.5,1.4-0.8,2.7-0.8,4c0,1,0.8,3,2.5,6.2l4.8,9.3h5.2V254L524.4,254z M512.1,248.8l-2.4-4.8c-0.8-1.5-1.2-2.6-1.2-3.4
		c0,0-0.2,0.2-0.4,0.4c-0.2,0.2-0.5,0.5-0.8,0.8c-0.3,0.3-0.5,0.6-0.7,0.9c-0.2,0.3-0.3,0.6-0.3,0.8c0,0.6,0.2,1.3,0.6,2.1l1.7,3.2
		c0.4,0,0.7,0,1,0s0.6,0,0.9,0c0.3,0,0.6,0,0.8,0C511.6,248.8,511.9,248.8,512.1,248.8L512.1,248.8z M515.5,223.8
		c0,0.6-0.6,1.8-1.8,3.7c-0.9-1.2-2.1-2.1-3.5-2.7c-1-0.4-1.5-1-1.5-1.7c0-0.6,1.4-2,4.1-4.2c0,0.4,0.2,0.9,0.5,1.3
		c0.3,0.4,0.6,0.9,1,1.3c0.3,0.4,0.6,0.8,0.9,1.2C515.3,223.1,515.5,223.5,515.5,223.8L515.5,223.8z M507.3,223.8
		c0,0.6-0.6,1.8-1.8,3.7c-0.9-1.2-2.1-2.1-3.5-2.7c-1-0.4-1.5-1-1.5-1.7c0-0.6,1.4-2,4.1-4.2c0,0.4,0.2,0.9,0.5,1.3
		c0.3,0.4,0.6,0.9,0.9,1.3c0.3,0.4,0.6,0.8,0.9,1.2C507.2,223.1,507.3,223.5,507.3,223.8L507.3,223.8z"/>
	<path id="_x31_2345678910" d="M544.1,254h-5.6c-0.2,0.3-0.5,0.6-0.8,0.9c-0.3,0.4-0.7,0.8-1.2,1.2l-5.4,5.1c-0.1-0.6-0.5-1.4-1-2.2
		c-0.5-0.8-1.1-1.6-1.8-2.4c-0.7-0.8-1.4-1.4-2.1-1.9c-0.7-0.5-1.3-0.8-1.9-0.8H522v-5.3h2.3c0.9,0,2.3,1,4.4,3.2l3.6,3.7
		c0.4-0.5,0.6-1.1,0.6-1.6c0-0.4-0.4-1.5-1.2-3.1l-1.5-3.1c-1.2-2.4-1.8-4-1.8-4.8c0-1.4,0.6-2.8,1.7-4.1l4.4-4.2
		c-0.3,1.1-0.5,2-0.5,2.7c0,0.9,0.5,2.3,1.5,4.3l2.3,4.6c0.3,0.5,0.5,1,0.7,1.4c0.2,0.4,0.3,0.7,0.4,1h5.2V254L544.1,254z
		 M530.4,264.7c0,0.6-0.6,1.8-1.8,3.7c-0.9-1.2-2.1-2.1-3.5-2.7c-1-0.4-1.5-1-1.5-1.7c0-0.6,1.4-2,4.1-4.2c0,0.4,0.2,0.9,0.5,1.3
		c0.3,0.4,0.6,0.9,0.9,1.3c0.3,0.4,0.6,0.8,0.9,1.2C530.3,264,530.4,264.3,530.4,264.7z"/>
	<path id="_x31_234567891011" d="M563.8,254h-5.6c-0.2,0.3-0.5,0.6-0.8,0.9c-0.3,0.4-0.7,0.8-1.2,1.2l-5.4,5.1
		c-0.1-0.6-0.5-1.4-1-2.2s-1.1-1.6-1.8-2.4c-0.7-0.8-1.4-1.4-2.1-1.9c-0.7-0.5-1.3-0.8-1.9-0.8h-2.5v-5.3h2.3c0.9,0,2.3,1,4.4,3.2
		l3.6,3.7c0.4-0.5,0.6-1.1,0.6-1.6c0-0.4-0.4-1.5-1.2-3.1l-1.5-3.1c-1.2-2.4-1.8-4-1.8-4.8c0-1.4,0.6-2.8,1.7-4.1l4.4-4.2
		c-0.3,1.1-0.5,2-0.5,2.7c0,0.9,0.5,2.3,1.5,4.3l2.3,4.6c0.3,0.5,0.5,1,0.7,1.4c0.2,0.4,0.3,0.7,0.4,1h5.2L563.8,254L563.8,254z
		 M559.3,230.1c0,0.6-0.6,1.8-1.8,3.7c-0.9-1.2-2.1-2.1-3.5-2.7c-1-0.4-1.5-1-1.5-1.7c0-0.6,1.4-2,4.1-4.2c0,0.4,0.2,0.9,0.5,1.3
		c0.3,0.4,0.6,0.9,0.9,1.3c0.3,0.4,0.6,0.8,0.9,1.2C559.1,229.4,559.3,229.7,559.3,230.1L559.3,230.1z M551.1,230.1
		c0,0.6-0.6,1.8-1.8,3.7c-0.9-1.2-2.1-2.1-3.5-2.7c-1-0.4-1.5-1-1.5-1.7c0-0.6,1.4-2,4.1-4.2c0,0.4,0.2,0.9,0.5,1.3
		c0.3,0.4,0.6,0.9,0.9,1.3c0.3,0.4,0.6,0.8,0.9,1.2C551,229.4,551.1,229.7,551.1,230.1L551.1,230.1z"/>
	<path id="_x31_23456789101112" d="M604.1,254h-42.8v-5.3H593l-1.4-2.9h-25.4c-0.4,0-0.9-0.1-1.3-0.3c-0.4-0.2-0.8-0.4-1.1-0.7
		c-0.3-0.3-0.6-0.7-0.7-1.1c-0.2-0.4-0.3-0.9-0.3-1.5c0-0.4,1.1-1.6,3.2-3.7l14-13.5c1.9-1.9,2.9-3.5,2.9-5c0-3.6-1.7-5.3-5.1-5.3
		c-0.5,0-1,0.1-1.6,0.2c-0.6,0.1-1.2,0.3-1.8,0.6c-0.6,0.2-1.3,0.5-2,0.8c-0.7,0.3-1.4,0.6-2,0.9l10.4-10.3l3.5,7
		c1.2,2.4,1.8,4.4,1.8,6.1c0,2.3-1.2,4.6-3.5,6.8l-5.9,5.6c-1.5,1.4-2.2,2.4-2.2,3c0,0.8,0.1,1.4,0.3,1.8l0.5,1.3
		c0.5,1.4,1.6,2,3.2,2h16.3c0.6,0,1.3,0.9,2.1,2.6l2.5,5.5h4.6L604.1,254L604.1,254z"/>
	<path id="_x31_2345678910111213" d="M627.3,254h-25.7v-5.3h3.3l-0.6-1.3c-0.4-0.6-0.6-1.3-0.6-1.9c0-1.2,0.5-2.4,1.5-3.4l12.8-12.9
		c-0.5,1.4-0.8,2.7-0.8,4c0,1,0.7,2.8,2.1,5.5L627.3,254L627.3,254z M617.4,248.8L615,244c-0.8-1.5-1.2-2.6-1.2-3.4
		c0,0-0.1,0.2-0.4,0.4c-0.2,0.2-0.5,0.5-0.8,0.8c-0.3,0.3-0.5,0.6-0.7,0.9c-0.2,0.3-0.3,0.6-0.3,0.8c0,0.6,0.2,1.3,0.6,2.1l1.6,3.2
		c0.4,0,0.7,0,1,0c0.3,0,0.6,0,0.9,0c0.3,0,0.6,0,0.8,0C617,248.8,617.2,248.8,617.4,248.8L617.4,248.8z"/>
	<path d="M2.6,168.7h10.3c2,0,3.6,0.1,4.6,0.3c1,0.2,1.9,0.5,2.7,1.1c0.8,0.5,1.4,1.3,2,2.2c0.5,0.9,0.8,1.9,0.8,3
		c0,1.2-0.3,2.3-1,3.3c-0.7,1-1.5,1.8-2.6,2.3c1.6,0.5,2.8,1.2,3.6,2.3c0.8,1.1,1.3,2.4,1.3,3.9c0,1.2-0.3,2.3-0.8,3.4
		c-0.5,1.1-1.3,2-2.2,2.7c-0.9,0.7-2.1,1.1-3.5,1.2c-0.9,0.1-3,0.1-6.3,0.2H2.6L2.6,168.7L2.6,168.7z M7.8,173v6h3.4
		c2,0,3.3,0,3.8-0.1c0.9-0.1,1.6-0.4,2.1-0.9c0.5-0.5,0.8-1.2,0.8-2c0-0.8-0.2-1.4-0.7-1.9c-0.4-0.5-1.1-0.8-2-0.9
		c-0.5-0.1-2-0.1-4.4-0.1C10.8,173,7.8,173,7.8,173z M7.8,183.2v6.9h4.8c1.9,0,3.1,0,3.6-0.2c0.8-0.1,1.4-0.5,1.9-1
		c0.5-0.5,0.7-1.3,0.7-2.2c0-0.8-0.2-1.4-0.6-2c-0.4-0.5-0.9-0.9-1.6-1.2c-0.7-0.2-2.3-0.4-4.6-0.4C12,183.2,7.8,183.2,7.8,183.2z"
		/>
	<polygon id="_x31__1_" points="28.5,194.4 28.5,168.7 33.7,168.7 33.7,194.4 	"/>
	<path id="_x31_2_1_" d="M38.6,168.7h10.3c2,0,3.6,0.1,4.6,0.3c1,0.2,1.9,0.5,2.7,1.1c0.8,0.5,1.4,1.3,2,2.2c0.5,0.9,0.8,1.9,0.8,3
		c0,1.2-0.3,2.3-1,3.3c-0.7,1-1.5,1.8-2.6,2.3c1.6,0.5,2.8,1.2,3.6,2.3c0.8,1.1,1.3,2.4,1.3,3.9c0,1.2-0.3,2.3-0.8,3.4
		c-0.5,1.1-1.3,2-2.2,2.7c-0.9,0.7-2.1,1.1-3.5,1.2c-0.9,0.1-3,0.1-6.3,0.2h-8.8L38.6,168.7L38.6,168.7z M43.8,173v6h3.4
		c2,0,3.3,0,3.8-0.1c0.9-0.1,1.6-0.4,2.1-0.9c0.5-0.5,0.8-1.2,0.8-2c0-0.8-0.2-1.4-0.7-1.9c-0.4-0.5-1.1-0.8-2-0.9
		c-0.5-0.1-2-0.1-4.4-0.1H43.8L43.8,173z M43.8,183.2v6.9h4.8c1.9,0,3.1,0,3.6-0.2c0.8-0.1,1.4-0.5,1.9-1c0.5-0.5,0.7-1.3,0.7-2.2
		c0-0.8-0.2-1.4-0.6-2c-0.4-0.5-0.9-0.9-1.6-1.2c-0.7-0.2-2.3-0.4-4.6-0.4C48,183.2,43.8,183.2,43.8,183.2z"/>
	<polygon id="_x31_23_1_" points="64.8,194.4 64.8,168.9 70,168.9 70,190.1 82.9,190.1 82.9,194.4 	"/>
	<polygon id="_x31_234_1_" points="86.4,194.4 86.4,168.7 91.7,168.7 91.7,194.4 	"/>
	<path id="_x31_2345_1_" d="M95.6,181.7c0-2.6,0.4-4.8,1.2-6.6c0.6-1.3,1.4-2.5,2.4-3.5c1-1,2.1-1.8,3.3-2.3c1.6-0.7,3.5-1,5.6-1
		c3.8,0,6.8,1.2,9.1,3.5c2.3,2.4,3.4,5.6,3.4,9.8c0,4.2-1.1,7.4-3.4,9.8c-2.3,2.3-5.3,3.5-9.1,3.5c-3.8,0-6.9-1.2-9.1-3.5
		C96.7,189,95.6,185.8,95.6,181.7L95.6,181.7z M100.9,181.5c0,2.9,0.7,5.1,2,6.6c1.3,1.5,3.1,2.3,5.1,2.3c2.1,0,3.8-0.7,5.1-2.2
		c1.3-1.5,2-3.7,2-6.7c0-3-0.6-5.2-1.9-6.6c-1.3-1.5-3-2.2-5.2-2.2c-2.1,0-3.9,0.7-5.2,2.2C101.6,176.3,100.9,178.6,100.9,181.5
		L100.9,181.5z"/>
	<polygon id="_x31_23456_1_" points="130.4,194.4 130.4,173 122.8,173 122.8,168.7 143.2,168.7 143.2,173 135.6,173 135.6,194.4 	
		"/>
	<polygon id="_x31_234567_1_" points="146.6,194.4 146.6,168.7 151.8,168.7 151.8,178.8 162,178.8 162,168.7 167.2,168.7 
		167.2,194.4 162,194.4 162,183.2 151.8,183.2 151.8,194.4 	"/>
	<polygon id="_x31_2345678_1_" points="172.6,194.4 172.6,168.7 191.7,168.7 191.7,173 177.8,173 177.8,178.7 190.7,178.7 
		190.7,183.1 177.8,183.1 177.8,190.1 192.2,190.1 192.2,194.4 	"/>
	<path id="_x31_23456789_1_" d="M213.1,185l5,1.6c-0.8,2.8-2.1,4.9-3.9,6.3c-1.8,1.4-4.1,2-6.8,2c-3.4,0-6.2-1.2-8.4-3.5
		c-2.2-2.3-3.3-5.5-3.3-9.6c0-4.3,1.1-7.6,3.3-10c2.2-2.4,5.1-3.6,8.7-3.6c3.2,0,5.7,0.9,7.7,2.8c1.2,1.1,2.1,2.7,2.6,4.7l-5.2,1.2
		c-0.3-1.3-0.9-2.4-1.9-3.2c-1-0.8-2.1-1.2-3.5-1.2c-1.9,0-3.5,0.7-4.6,2.1c-1.2,1.4-1.8,3.6-1.8,6.7c0,3.3,0.6,5.6,1.8,7
		c1.2,1.4,2.7,2.1,4.6,2.1c1.4,0,2.6-0.4,3.6-1.3C212,188.2,212.7,186.8,213.1,185L213.1,185z"/>
	<path id="_x31_2345678910_1_" d="M245.9,194.4h-5.7l-2.2-5.9h-10.3l-2.1,5.9H220l10-25.8h5.5L245.9,194.4L245.9,194.4z
		 M236.3,184.2l-3.6-9.6l-3.5,9.6H236.3L236.3,184.2z"/>
	<path id="_x31_234567891011_1_" d="M279.2,194.4h-5.7l-2.2-5.9H261l-2.1,5.9h-5.5l10-25.8h5.5L279.2,194.4L279.2,194.4z
		 M269.6,184.2l-3.6-9.6l-3.5,9.6H269.6L269.6,184.2z"/>
	<polygon id="_x31_23456789101112_1_" points="282.1,194.4 282.1,168.9 287.3,168.9 287.3,190.1 300.2,190.1 300.2,194.4 	"/>
	<polygon id="_x31_2345678910111213_1_" points="303.9,194.4 303.9,168.7 323,168.7 323,173 309.1,173 309.1,178.7 322.1,178.7 
		322.1,183.1 309.1,183.1 309.1,190.1 323.5,190.1 323.5,194.4 	"/>
	<polygon id="_x31_234567891011121314_1_" points="325.3,194.4 334.1,181 326.1,168.7 332.2,168.7 337.4,176.9 342.5,168.7 
		348.5,168.7 340.5,181.2 349.3,194.4 343,194.4 337.3,185.5 331.6,194.4 	"/>
	<path id="_x31_23456789101112131415" d="M375.2,194.4h-5.7l-2.2-5.9H357l-2.1,5.9h-5.5l10-25.8h5.5L375.2,194.4L375.2,194.4z
		 M365.6,184.2l-3.6-9.6l-3.5,9.6H365.6L365.6,184.2z"/>
	<polygon id="_x31_2345678910111213141516" points="378,194.4 378,168.7 383.1,168.7 393.6,185.9 393.6,168.7 398.4,168.7 
		398.4,194.4 393.2,194.4 382.8,177.6 382.8,194.4 	"/>
	<path id="_x31_234567891011121314151617" d="M403.9,168.7h9.5c2.1,0,3.8,0.2,4.9,0.5c1.5,0.4,2.8,1.2,3.9,2.4
		c1.1,1.1,1.9,2.5,2.5,4.2c0.6,1.6,0.8,3.7,0.8,6.1c0,2.1-0.3,3.9-0.8,5.5c-0.6,1.9-1.6,3.4-2.8,4.5c-0.9,0.9-2.1,1.6-3.7,2.1
		c-1.1,0.4-2.7,0.5-4.6,0.5h-9.8L403.9,168.7L403.9,168.7z M409.1,173v17.1h3.9c1.5,0,2.5-0.1,3.1-0.2c0.8-0.2,1.5-0.6,2.1-1.1
		c0.6-0.5,1-1.3,1.4-2.5c0.3-1.2,0.5-2.7,0.5-4.7c0-2-0.2-3.5-0.5-4.6c-0.4-1.1-0.8-1.9-1.5-2.5c-0.6-0.6-1.4-1-2.4-1.2
		c-0.7-0.2-2.1-0.2-4.3-0.2L409.1,173L409.1,173z"/>
	<path id="_x31_23456789101112131415161718" d="M430,194.4v-25.8h11c2.8,0,4.8,0.2,6,0.7c1.2,0.5,2.3,1.3,3,2.5
		c0.7,1.2,1.1,2.5,1.1,4.1c0,1.9-0.6,3.5-1.7,4.8c-1.1,1.3-2.8,2.1-5.1,2.4c1.1,0.7,2.1,1.4,2.8,2.2c0.7,0.8,1.7,2.2,3,4.2l3.2,5
		h-6.2l-3.8-5.6c-1.3-2-2.3-3.3-2.7-3.8c-0.5-0.5-1-0.9-1.6-1.1c-0.6-0.2-1.4-0.3-2.6-0.3h-1v10.8L430,194.4L430,194.4z
		 M435.2,179.6h3.8c2.5,0,4.1-0.1,4.7-0.3c0.6-0.2,1.1-0.6,1.5-1.1c0.3-0.5,0.5-1.2,0.5-1.9c0-0.9-0.2-1.6-0.7-2.1
		c-0.5-0.5-1.1-0.9-2-1c-0.4-0.1-1.7-0.1-3.8-0.1h-4.1V179.6L435.2,179.6z"/>
	<polygon id="_x31_2345678910111213141516171819" points="455.8,194.4 455.8,168.7 461,168.7 461,194.4 	"/>
	<polygon id="_x31_234567891011121314151617181920" points="466,194.4 466,168.7 471.1,168.7 481.6,185.9 481.6,168.7 486.4,168.7 
		486.4,194.4 481.2,194.4 470.8,177.6 470.8,194.4 	"/>
	<path id="_x31_23456789101112131415161718192021" d="M515.2,194.4h-5.7l-2.2-5.9H497l-2.1,5.9h-5.5l10-25.8h5.5L515.2,194.4
		L515.2,194.4z M505.6,184.2l-3.6-9.6l-3.5,9.6H505.6L505.6,184.2z"/>
</g>
</svg>
